<svg width="128" height="35" viewBox="0 0 128 35" fill="none" xmlns="http://www.w3.org/2000/svg">
<rect width="37.871" height="34.4994" fill="#DAF4F9"/>
<path d="M25.7734 16.3697L19.0234 26.2297C18.6834 26.7197 17.8834 26.4997 17.8834 25.9097L17.8734 20.2697C17.8734 19.6197 17.3234 19.0997 16.6434 19.0897L12.6134 19.0397C12.1234 19.0297 11.8334 18.5197 12.1034 18.1297L18.8534 8.26968C19.1934 7.77968 19.9934 7.99969 19.9934 8.58969L20.0034 14.2297C20.0034 14.8797 20.5534 15.3997 21.2334 15.4097L25.2634 15.4597C25.7434 15.4597 26.0334 15.9797 25.7734 16.3697Z" fill="#DAF4F9" stroke="black" stroke-width="1.5" stroke-linecap="round" stroke-linejoin="round"/>
<path d="M47.1623 23.7495V10.6586H52.1737C53.1197 10.6586 53.9059 10.8077 54.5323 11.106C55.163 11.4001 55.6339 11.8028 55.945 12.3141C56.2603 12.8255 56.418 13.4051 56.418 14.0528C56.418 14.5854 56.3157 15.0414 56.1112 15.4207C55.9066 15.7957 55.6317 16.1004 55.2866 16.3347C54.9414 16.5691 54.5558 16.7374 54.1296 16.8397V16.9676C54.5941 16.9931 55.0394 17.1359 55.4656 17.3958C55.896 17.6515 56.2475 18.0137 56.5202 18.4825C56.793 18.9512 56.9293 19.518 56.9293 20.1828C56.9293 20.8603 56.7653 21.4697 56.4371 22.0109C56.109 22.5478 55.6147 22.9718 54.9542 23.2829C54.2937 23.594 53.4627 23.7495 52.4613 23.7495H47.1623ZM49.5337 21.768H52.0842C52.945 21.768 53.565 21.6039 53.9442 21.2758C54.3278 20.9434 54.5195 20.5173 54.5195 19.9974C54.5195 19.6096 54.4237 19.2602 54.2319 18.9491C54.0401 18.6337 53.7674 18.3866 53.4137 18.2076C53.06 18.0244 52.6381 17.9328 52.1481 17.9328H49.5337V21.768ZM49.5337 16.2261H51.8796C52.2887 16.2261 52.6573 16.1515 52.9854 16.0024C53.3136 15.8489 53.5714 15.6337 53.7589 15.3568C53.9506 15.0755 54.0465 14.7431 54.0465 14.3596C54.0465 13.8525 53.8675 13.4349 53.5096 13.1068C53.1559 12.7786 52.6296 12.6146 51.9308 12.6146H49.5337V16.2261ZM63.1728 23.9413C62.214 23.9413 61.383 23.7303 60.6799 23.3085C59.9767 22.8866 59.4313 22.2964 59.0435 21.5379C58.66 20.7793 58.4682 19.893 58.4682 18.8788C58.4682 17.8646 58.66 16.9761 59.0435 16.2133C59.4313 15.4505 59.9767 14.8582 60.6799 14.4363C61.383 14.0144 62.214 13.8035 63.1728 13.8035C64.1316 13.8035 64.9625 14.0144 65.6657 14.4363C66.3688 14.8582 66.9121 15.4505 67.2956 16.2133C67.6834 16.9761 67.8773 17.8646 67.8773 18.8788C67.8773 19.893 67.6834 20.7793 67.2956 21.5379C66.9121 22.2964 66.3688 22.8866 65.6657 23.3085C64.9625 23.7303 64.1316 23.9413 63.1728 23.9413ZM63.1855 22.0876C63.7054 22.0876 64.1401 21.9448 64.4895 21.6593C64.839 21.3695 65.0989 20.9818 65.2694 20.496C65.4441 20.0102 65.5314 19.469 65.5314 18.8724C65.5314 18.2715 65.4441 17.7282 65.2694 17.2424C65.0989 16.7524 64.839 16.3624 64.4895 16.0727C64.1401 15.7829 63.7054 15.638 63.1855 15.638C62.6529 15.638 62.2097 15.7829 61.856 16.0727C61.5066 16.3624 61.2445 16.7524 61.0698 17.2424C60.8993 17.7282 60.8141 18.2715 60.8141 18.8724C60.8141 19.469 60.8993 20.0102 61.0698 20.496C61.2445 20.9818 61.5066 21.3695 61.856 21.6593C62.2097 21.9448 62.6529 22.0876 63.1855 22.0876ZM74.1239 23.9413C73.1651 23.9413 72.3342 23.7303 71.631 23.3085C70.9279 22.8866 70.3825 22.2964 69.9947 21.5379C69.6112 20.7793 69.4194 19.893 69.4194 18.8788C69.4194 17.8646 69.6112 16.9761 69.9947 16.2133C70.3825 15.4505 70.9279 14.8582 71.631 14.4363C72.3342 14.0144 73.1651 13.8035 74.1239 13.8035C75.0827 13.8035 75.9137 14.0144 76.6168 14.4363C77.32 14.8582 77.8633 15.4505 78.2468 16.2133C78.6346 16.9761 78.8285 17.8646 78.8285 18.8788C78.8285 19.893 78.6346 20.7793 78.2468 21.5379C77.8633 22.2964 77.32 22.8866 76.6168 23.3085C75.9137 23.7303 75.0827 23.9413 74.1239 23.9413ZM74.1367 22.0876C74.6566 22.0876 75.0913 21.9448 75.4407 21.6593C75.7901 21.3695 76.0501 20.9818 76.2205 20.496C76.3952 20.0102 76.4826 19.469 76.4826 18.8724C76.4826 18.2715 76.3952 17.7282 76.2205 17.2424C76.0501 16.7524 75.7901 16.3624 75.4407 16.0727C75.0913 15.7829 74.6566 15.638 74.1367 15.638C73.604 15.638 73.1609 15.7829 72.8072 16.0727C72.4577 16.3624 72.1957 16.7524 72.021 17.2424C71.8505 17.7282 71.7653 18.2715 71.7653 18.8724C71.7653 19.469 71.8505 20.0102 72.021 20.496C72.1957 20.9818 72.4577 21.3695 72.8072 21.6593C73.1609 21.9448 73.604 22.0876 74.1367 22.0876ZM82.9018 20.6685L82.8954 17.8752H83.2662L86.7946 13.9313H89.4984L85.1582 18.7637H84.6788L82.9018 20.6685ZM80.7924 23.7495V10.6586H83.1064V23.7495H80.7924ZM86.9544 23.7495L83.7583 19.2815L85.318 17.6515L89.7221 23.7495H86.9544ZM91.1428 23.7495V10.6586H99.5291V12.6465H93.5142V16.2005H98.9538V18.1884H93.5142V23.7495H91.1428ZM104.325 23.9477C103.703 23.9477 103.142 23.8369 102.644 23.6153C102.149 23.3894 101.757 23.057 101.468 22.6181C101.182 22.1792 101.039 21.638 101.039 20.9945C101.039 20.4406 101.142 19.9825 101.346 19.6203C101.551 19.258 101.83 18.9683 102.183 18.7509C102.537 18.5336 102.936 18.3695 103.379 18.2587C103.826 18.1437 104.289 18.0606 104.766 18.0095C105.341 17.9498 105.808 17.8965 106.166 17.8497C106.524 17.7985 106.784 17.7218 106.945 17.6195C107.112 17.513 107.195 17.3489 107.195 17.1274V17.089C107.195 16.6075 107.052 16.2346 106.767 15.9704C106.481 15.7062 106.07 15.5741 105.533 15.5741C104.966 15.5741 104.517 15.6977 104.184 15.9448C103.856 16.192 103.634 16.4839 103.519 16.8205L101.359 16.5137C101.529 15.9171 101.811 15.4185 102.203 15.018C102.595 14.6131 103.074 14.3106 103.641 14.1103C104.208 13.9058 104.834 13.8035 105.52 13.8035C105.993 13.8035 106.464 13.8589 106.933 13.9697C107.401 14.0805 107.83 14.2637 108.218 14.5194C108.605 14.7708 108.916 15.1139 109.151 15.5485C109.389 15.9832 109.509 16.5265 109.509 17.1785V23.7495H107.284V22.4008H107.208C107.067 22.6735 106.869 22.9292 106.613 23.1678C106.362 23.4022 106.044 23.5918 105.661 23.7367C105.281 23.8774 104.836 23.9477 104.325 23.9477ZM104.926 22.2474C105.39 22.2474 105.793 22.1558 106.134 21.9725C106.475 21.785 106.737 21.5379 106.92 21.231C107.107 20.9242 107.201 20.5897 107.201 20.2275V19.0705C107.129 19.1302 107.005 19.1856 106.83 19.2367C106.66 19.2879 106.468 19.3326 106.255 19.371C106.042 19.4093 105.831 19.4434 105.622 19.4732C105.414 19.5031 105.232 19.5286 105.079 19.5499C104.734 19.5968 104.425 19.6735 104.152 19.7801C103.879 19.8866 103.664 20.0357 103.507 20.2275C103.349 20.415 103.27 20.6579 103.27 20.9562C103.27 21.3823 103.426 21.7041 103.737 21.9214C104.048 22.1387 104.444 22.2474 104.926 22.2474ZM119.595 16.5265L117.486 16.7566C117.426 16.5435 117.322 16.3433 117.173 16.1558C117.028 15.9683 116.832 15.817 116.585 15.7019C116.338 15.5869 116.035 15.5293 115.677 15.5293C115.195 15.5293 114.791 15.6337 114.463 15.8426C114.139 16.0514 113.979 16.322 113.983 16.6543C113.979 16.9399 114.083 17.1721 114.296 17.3511C114.514 17.5301 114.872 17.6771 115.37 17.7921L117.045 18.1501C117.974 18.3504 118.664 18.6678 119.116 19.1025C119.572 19.5372 119.802 20.106 119.806 20.8092C119.802 21.4271 119.621 21.9725 119.263 22.4455C118.909 22.9143 118.417 23.2808 117.786 23.545C117.156 23.8092 116.431 23.9413 115.613 23.9413C114.411 23.9413 113.444 23.6899 112.711 23.187C111.978 22.6799 111.541 21.9747 111.401 21.0712L113.657 20.8539C113.759 21.2971 113.977 21.6316 114.309 21.8575C114.642 22.0833 115.074 22.1962 115.607 22.1962C116.156 22.1962 116.597 22.0833 116.93 21.8575C117.267 21.6316 117.435 21.3525 117.435 21.0201C117.435 20.7389 117.326 20.5066 117.109 20.3234C116.896 20.1401 116.563 19.9995 116.112 19.9015L114.437 19.5499C113.495 19.3539 112.798 19.0237 112.347 18.5592C111.895 18.0904 111.671 17.4981 111.676 16.7822C111.671 16.1771 111.835 15.6529 112.168 15.2097C112.504 14.7623 112.971 14.4171 113.568 14.1742C114.169 13.9271 114.861 13.8035 115.645 13.8035C116.796 13.8035 117.701 14.0485 118.362 14.5386C119.026 15.0286 119.438 15.6913 119.595 16.5265ZM126.617 13.9313V15.7211H120.973V13.9313H126.617ZM122.366 11.5791H124.68V20.7964C124.68 21.1075 124.727 21.3461 124.821 21.5123C124.919 21.6742 125.047 21.785 125.204 21.8447C125.362 21.9043 125.537 21.9342 125.729 21.9342C125.873 21.9342 126.006 21.9235 126.125 21.9022C126.248 21.8809 126.342 21.8617 126.406 21.8447L126.796 23.6536C126.672 23.6962 126.496 23.7431 126.265 23.7943C126.04 23.8454 125.763 23.8752 125.434 23.8837C124.855 23.9008 124.333 23.8134 123.868 23.6217C123.404 23.4256 123.035 23.1231 122.763 22.714C122.494 22.3049 122.362 21.7935 122.366 21.1799V11.5791Z" fill="black"/>
</svg>
