<svg xmlns="http://www.w3.org/2000/svg" width="380" height="380" fill="none">
  <path fill="#12111f" d="M271.284 251.684s-4.231 4.282 4.794 5.159c3.222.314 1.344-2.163 1.344-2.163l-4.903-.409z"/>
  <path fill="#12111f" d="M276.085 256.844s-2.426 3.252 4.538 4.333l1.549-1.856zm-166.156-36.182c0 .205-.183 1.418-.183 1.418s3.552 1.834 5.722.387c2.163-1.447 1.286-3.018 1.286-3.018l-1.461-.621s.898 2.046-.622 2.558c-1.52.511-4.742-.724-4.742-.724"/>
  <path fill="#12111f" d="M116.098 221.255s2.711 3.018 5.159 2.141c2.178-.782 2.061-2.47 2.061-2.47h-1.265s-1.907.614-2.009.614-3.113-1.286-3.113-1.286l-.833 1.008z"/>
  <path fill="#12111f" d="M122.002 221.327s2.2 3.23 4.056 3.552c1.227.212 1.615-.767 1.615-.767l-5.035-4.633zm85.88 74.737c-2.981-5.094-6.263-10.034-9.748-14.828-1.279-1.746-2.617-3.442-3.932-5.152-4.64-6.05-9.566-11.889-14.681-17.56a222 222 0 0 0-7.001-7.366c-1.513-1.549-3.091-3.026-4.589-4.597l-2.265-2.331c-.768-.767-1.447-1.622-2.171-2.426-.884-1.03-.745-.913.212-.263.482.321 1.169.775 2.024 1.308.826.555 1.725 1.286 2.668 2.112 1.68 1.447 3.273 2.996 4.837 4.56a258 258 0 0 1 4.67 4.743c3.069 3.208 6.08 6.496 8.937 9.931 3.42 4.114 7.067 8.323 10.392 12.671a196 196 0 0 1 10.34 14.806 154 154 0 0 1 5.591 9.617c2.638 4.962 4.961 10.128 6.788 15.419 1.396 4.114 2.631 8.243 3.018 12.635.081.965.139 1.922.095 2.916-.095 1.849-.423 3.105-.898 3.931-.483.819-1.06 1.177-1.572 1.228-.233.029-.504.044-.635-.029-.212-.125 0-.344.153-.804.154-.49.387-1.264.57-2.419.256-1.71.176-3.574-.036-5.422-.212-1.857-.578-3.742-1.038-5.613-.921-3.749-2.214-7.497-3.734-11.166-2.258-5.451-4.991-10.757-8.031-15.879l.036-.03zm-23.093-96.821c-2.214-.467-4.326-1.337-6.248-2.499-.701-.424-1.41-.855-2.039-1.366-2.236-1.842-3.917-4.253-5.152-6.753a61 61 0 0 1-1.527-3.361c-.555-1.454-1.235-2.865-1.344-4.465 0-.512-.008-.439.328-.132.38.293 1.06.841 1.462 1.637 1.337 2.85 2.506 5.642 4.202 8.141 1.008 1.505 2.484 2.704 3.953 3.815 1.637 1.169 3.479 2.126 5.452 2.696 1.206.387 2.47.577 3.727.709 1.914.146 3.887.051 5.758-.409 1.454-.373 2.821-.936 4.129-1.615.292-.146.563-.307.862-.446.548-.256.936-.387 1.25-.395.307-.029.526.03.738.132.095.051.212.088.285.139.234.168-.073.65-.789 1.33-.534.482-1.177.804-1.82 1.154-.628.366-1.33.607-2.017.899-.694.263-1.425.468-2.148.673-.746.153-1.484.35-2.244.416-2.25.307-4.574.212-6.81-.234v-.051zm-5.518-68.224c1.257.534 2.682.797 4.129.921.534.058 1.045.036 1.571.036a15.3 15.3 0 0 0 5.445-.957 10 10 0 0 0 2.185-1.155c.438-.292.877-.584 1.3-.906.439-.292.907-.584 1.338-.913.277-.197.277-.146.168.146-.11.285-.285.87-.658 1.447-.38.446-.804.87-1.264 1.242-.49.336-.994.636-1.52.899a12.2 12.2 0 0 1-3.34 1.118c-1.381.234-2.813.497-4.245.453-1.557-.058-3.099-.234-4.619-.687-.935-.263-1.827-.694-2.66-1.227-1.25-.841-2.185-2.112-2.748-3.457-.416-1.06-.738-2.126-.877-3.23-.021-.241-.051-.482-.058-.723 0-.907.153-1.199.365-1.389.052-.044.103-.102.154-.124.161-.088.329.278.497.899.489 1.841.855 3.719 1.819 5.181.687 1.103 1.769 1.885 3.04 2.397l-.014.036zm33.485 5.497c1.359.694 2.887 1.088 4.429 1.198.562.037 1.11-.007 1.673-.066 1.958-.219 3.895-1.023 5.539-2.236a12.3 12.3 0 0 0 2.003-1.834c.401-.417.767-.87 1.125-1.33.329-.475.804-.862 1.162-1.337.248-.285.219-.242.146.073-.095.299-.11.979-.417 1.637a17 17 0 0 1-1.074 1.556c-.402.49-.869.921-1.337 1.345a13.4 13.4 0 0 1-3.194 2.075c-1.388.621-2.908 1.169-4.494 1.286a12.85 12.85 0 0 1-5.049-.789 11.8 11.8 0 0 1-2.792-1.447c-1.315-.899-2.419-2.097-3.281-3.405-.365-.497-.629-1.038-.95-1.557-.249-.548-.548-1.089-.709-1.666-.08-.256-.175-.497-.248-.76-.227-.972-.168-1.308.087-1.564.059-.058.117-.131.176-.168.204-.124.497.219.73.862.739 1.893 1.608 3.757 2.916 5.328a10.6 10.6 0 0 0 3.574 2.769z"/>
  <path fill="#12111f" d="M201.538 170.612c-.446-.789-2.689 9.127-7.688 10.413-4.998 1.279-7.088-4.764-9.346-11.188l-1.221-5.795s-35.522 3.544-54.53 9.961c0 0-7.307-2.025-9.193-14.199-1.885-12.168 4.97-19.468 8.543-23.48 3.574-4.012 15.982-15.251 18.737-28.2s4.977-32.015 14.703-45.279c9.646-13.154 40.119-24.43 57.848-9.025 0 0 14.717-9.763 25.284-3.53 10.012 5.913 15.332 12.124 15.142 26.776s-11.13 33.097-11.13 33.097h-7.205s-9.23-6.862-13.205-15.215-6.299-16.581-6.299-16.581-4.37 4.567-13.132 8.652c-8.762 4.078-20.308 9.69-30.722 8.988l-8.119-1.052-.416 8.733s-3.296-5.634-8.623-4.26c-5.328 1.373-5.423 6.072-4.867 10.742.563 4.662 3.727 11.173 9.193 13.643 5.466 2.478 5.89 1.593 5.89 1.593s-.731 13.14 6.504 23.772c7.234 10.633 10.311 13.001 18.371 14.294 8.061 1.294 16.713-3.04 21.675-9.229 4.962-6.19 13.037-20.842 13.037-20.842l15.331-4.238s-1.205 2.586-.701 5.151c.511 2.565 8.345 19.519 10.457 27.163s3.588 18.299 2.258 27.455c-1.33 9.157-2.835 8.842-2.835 8.842s-19.614-15.002-35.581-21.652c-15.975-6.65-16.72-6.899-16.72-6.899l-1.447 1.389z"/>
  <path fill="#12111f" d="M210.93 160.411c-3.5 2.236-7.658 3.625-11.875 3.8-2.097 0-4.216-.139-6.219-.672-.504-.132-1.008-.205-1.512-.387l-1.506-.527c-.497-.175-.957-.438-1.439-.657-.475-.234-.958-.439-1.389-.738-.636-.417-1.308-.79-1.922-1.235l-1.783-1.411c-.577-.482-1.081-1.045-1.629-1.564l-.797-.803-.694-.877c-3.318-4.107-5.518-8.879-7.14-13.724l-1.111-3.676-.84-3.727c-.139-.621-.285-1.242-.409-1.863l-.293-1.886-.584-3.763c-.234-2.236-.475-4.473-.709-6.709l-.417-6.701c-.19-5.707-.394-11.48.739-17.122.226-.877.365-1.25.453-1.22.087.03.16.468.394 1.235.483 1.527 1.286 4.304 1.199 7.541.022 1.44.087 2.872.124 4.305.051 1.432.007 2.872.036 4.304l.205 4.289c.073 1.433.095 2.865.263 4.283l.395 4.275c.044.716.161 1.417.27 2.126l.314 2.12.307 2.126c.103.709.285 1.396.417 2.097l.438 2.098c.146.701.271 1.41.483 2.09.898 3.288 2.002 6.628 3.668 9.682.738 1.586 1.761 2.989 2.682 4.451l1.615 2.009c.256.351.563.643.862.943l.899.906.49.497.541.439 1.081.877c.344.314.76.518 1.147.781.395.242.775.505 1.177.731 1.644.855 3.332 1.491 5.196 1.849.453.124.913.175 1.381.234l1.388.175 1.396.03.694.014.695-.058c.46-.044.928-.066 1.388-.125l1.367-.263c.46-.065.906-.212 1.351-.35.446-.147.899-.242 1.33-.424 2.171-.782 4.18-2.003 6.059-3.391 1.878-1.396 3.61-3.018 5.195-4.779 4.845-5.328 8.667-11.641 12-18.058 2.586-5.005 4.713-10.121 7.015-15.214.504-1.126.979-2.236 1.505-3.362a72 72 0 0 1 1.286-2.616 19 19 0 0 1 1.06-1.695c.607-.892 1.125-1.323 1.637-1.623.227-.138.482-.343.643-.401.519-.227.183 1.702-1.008 4.845-3.735 9.236-7.863 19.014-13.359 28.295-2.039 3.442-4.297 6.803-6.913 9.938-2.623 3.121-5.605 6.051-9.186 8.295l-.051-.052z"/>
  <path fill="#12111f" d="M206.8 89.915a90 90 0 0 1-9.836 3.785c-1.213.402-2.433.804-3.668 1.147-4.385 1.097-8.872 1.82-13.381 1.995l-1.498.073-1.505.03c-1.002.05-2.003-.015-2.996-.03-2.544-.116-5.16-.24-7.542-1.308-.745-.3-.577-.526.153-.796.366-.139.87-.3 1.462-.468.585-.117 1.257-.219 1.958-.197 1.243.044 2.478.146 3.713.19 1.242.014 2.477.036 3.719.03 2.485 0 4.991-.103 7.513-.359 3.025-.278 6.087-1.125 9.069-1.995a83 83 0 0 0 9.675-3.486c1.936-.855 3.851-1.754 5.722-2.755 2.828-1.505 5.612-3.164 8.184-5.035 1.995-1.461 3.786-3.113 5.496-4.815.365-.388.709-.775 1.103-1.133.716-.68 1.177-1.126 1.593-1.36.446-.211.768-.284 1.126-.27.161 0 .343-.022.475 0 .219.044.263.278.175.702a5.4 5.4 0 0 1-.226.767c-.103.3-.315.577-.527.906-1.315 1.922-3.054 3.522-4.845 5.057-1.805 1.527-3.748 2.923-5.751 4.224-2.981 1.922-6.116 3.625-9.317 5.16l-.029-.06z"/>
  <path fill="#12111f" d="M230.688 101.218c-1.205-1.71-2.338-3.464-3.325-5.29-.365-.666-.796-1.287-1.103-1.981a45 45 0 0 1-2.814-7.432 66 66 0 0 1-.504-1.68c-.168-.556-.343-1.112-.511-1.667a37 37 0 0 1-.512-2.17c-.088-.746-.095-1.506-.124-2.251 0-.468.102-.424.395-.095.277.336.862.928 1.293 1.68.307.688.599 1.367.855 2.054.212.702.475 1.389.687 2.083.46 1.388.957 2.762 1.403 4.172.519 1.703 1.469 3.289 2.317 4.875.986 1.717 1.987 3.434 3.178 5.035.695 1.016 1.498 1.944 2.258 2.901 1.221 1.403 2.478 2.799 3.895 3.997.563.453 1.097.921 1.681 1.33l1.747 1.221c.248.182.533.321.774.526.234.175.417.336.57.475.147.153.234.307.307.438.139.271.176.497.154.76-.015.117 0 .241-.029.344-.074.314-.651.299-1.55.036-2.455-1.067-4.801-2.682-6.847-4.64-.38-.366-.775-.716-1.133-1.096l-1.081-1.155c-.746-.753-1.367-1.615-2.032-2.433l.051-.044zm-85.622 6.373c2.835-9.507 3.573-19.767 6.262-29.793.972-3.647 2.142-7.322 3.866-10.742a56 56 0 0 1 5.32-8.565c2.032-2.682 4.363-5.13 6.884-7.352.65-.533 1.257-1.11 1.937-1.614l2.024-1.506c1.41-.913 2.813-1.849 4.319-2.609 2.981-1.556 6.131-2.842 9.427-3.558a39.1 39.1 0 0 1 17.743.05 33 33 0 0 1 10.523 4.451c3.201 2.083 6.131 4.801 7.797 8.258.504 1.074.694 1.542.614 1.556-.081.015-.46-.424-1.199-1.089-.182-.168-.387-.343-.606-.54-.234-.183-.504-.373-.782-.57-.146-.095-.27-.212-.446-.293-.131-.117-.278-.226-.416-.35-.278-.249-.614-.46-.943-.702s-.672-.482-1.023-.738c-.336-.27-.76-.468-1.118-.745-.38-.256-.738-.563-1.14-.826a31 31 0 0 1-1.221-.826c-2.93-2.032-6.306-3.318-9.719-4.319-1.717-.497-3.486-.796-5.254-1.045-1.783-.175-3.574-.307-5.364-.22-1.798.023-3.573.257-5.334.578-.892.11-1.754.373-2.624.585-.431.117-.877.197-1.301.35l-1.279.44c-3.412 1.176-6.664 2.871-9.682 4.976-3.603 2.52-6.84 5.744-9.566 9.383-2.733 3.639-4.911 7.71-6.57 11.926-.935 2.31-1.629 4.735-2.287 7.161a126 126 0 0 0-1.615 7.432c-.95 5.006-1.703 10.085-2.784 15.149-.665 3.113-1.44 6.226-2.514 9.252-1.074 3.025-2.324 6.014-4.027 8.769-5.071 8.462-13.029 14.381-18.101 22.186-1.958 3.033-3.325 6.314-3.96 9.763a26.5 26.5 0 0 0-.395 5.203c.044 1.732.321 3.449.753 5.108.365 1.476.986 2.821 1.658 4.173 1.338 2.47 2.602 3.837 3.413 4.874.833 1.023 1.257 1.732 1.586 2.353.146.293.38.629.453.833.117.344-.358.234-1.432-.212-.563-.19-1.155-.628-1.915-1.11-.373-.249-.723-.585-1.103-.928-.395-.337-.753-.76-1.14-1.199-.6-.636-1.075-1.374-1.593-2.09-.454-.753-.936-1.498-1.301-2.309-.417-.789-.709-1.63-1.038-2.463-.248-.855-.548-1.702-.709-2.587-.402-1.754-.57-3.559-.563-5.364-.021-1.812.212-3.61.549-5.393l.292-1.33c.11-.445.256-.877.387-1.315.139-.438.263-.884.417-1.315l.526-1.272c.694-1.695 1.6-3.281 2.558-4.823 1.943-3.055 4.275-5.744 6.606-8.338 3.478-3.837 7.03-7.447 9.902-11.451 2.791-4.005 4.859-8.499 6.204-13.315h.073z"/>
  <path fill="#12111f" d="M257.911 74.89a38.5 38.5 0 0 0-.957-7.206c-.57-2.353-1.447-4.626-2.544-6.782-.84-1.556-1.848-3.01-2.945-4.399A31 31 0 0 0 244.684 50c-.314-.24-.636-.482-.95-.657-.329-.183-.621-.417-.972-.57l-1.03-.497c-.358-.146-.724-.27-1.082-.41a21 21 0 0 0-4.567-1.06 21.9 21.9 0 0 0-8.309.564c-1.695.511-3.332 1.198-4.838 2.097-.394.19-.723.49-1.096.716-.358.248-.738.475-1.06.775a14 14 0 0 1-1.037.818c-.351.27-.614.629-.994.892-.482.321-.753.43-.833.35-.088-.087-.015-.372.095-.928.117-.54.336-1.315.833-2.104a8 8 0 0 1 .891-1.206c.38-.365.797-.738 1.265-1.096 1.688-1.177 3.559-2.134 5.532-2.66 1.958-.563 3.975-.914 5.999-.95 2.017-.059 4.041.087 6.022.526 1.98.431 3.924 1.082 5.744 2.105l.803.496q.417.24.768.512c.482.35.964.709 1.447 1.06l.73.526.695.584 1.395 1.17c1.776 1.651 3.508 3.412 4.86 5.444.804 1.074 1.418 2.265 2.09 3.42.563 1.213 1.162 2.404 1.586 3.668a33.7 33.7 0 0 1 1.863 7.717c.417 3.223.417 6.475.125 9.683a51 51 0 0 1-1.17 7.205 67 67 0 0 1-2.002 6.98c-.607 1.768-1.235 3.514-1.958 5.232a47 47 0 0 1-2.412 5.049c-.205.366-.402.724-.607 1.082-.219.35-.438.709-.672 1.059-.884 1.308-1.659 2.054-2.287 2.492a3.2 3.2 0 0 1-.877.417 1.8 1.8 0 0 1-.797 0c-.233-.044-.489-.059-.65-.146-.27-.147-.234-.512-.022-1.002.212-.504.636-1.161 1.199-2.016a55 55 0 0 0 2.375-4.049 70 70 0 0 0 2.075-4.392 65 65 0 0 0 3.237-9.376c1.272-4.772 1.944-9.734 1.754-14.637h.073zm-101.774 39.155a25 25 0 0 1-.986-3.903 20.5 20.5 0 0 1-.161-4.077c.073-.994.168-2.003.482-3.004a8.1 8.1 0 0 1 1.308-2.514 5.4 5.4 0 0 1 2.397-1.768c.943-.373 2.01-.424 2.901-.263a9.5 9.5 0 0 1 2.58.804c1.418.658 2.733 1.527 3.807 2.645.694.702 1.337 1.484 1.798 2.375.19.468.402.921.504 1.418.139.482.124 1.001.11 1.491-.03.621-.146.533-.541.124-.212-.197-.46-.482-.855-.746-.183-.138-.322-.299-.475-.467a4.5 4.5 0 0 1-.475-.512c-.11-.168-.27-.314-.395-.467-.124-.161-.219-.337-.358-.49-.27-.307-.519-.621-.826-.899-.577-.577-1.235-1.067-1.9-1.527a9.3 9.3 0 0 0-2.133-1.118c-.738-.278-1.506-.446-2.193-.417-.197.029-.402.015-.599.102-.205.059-.416.11-.592.234l-.285.154-.248.212c-.183.124-.322.314-.468.482-.585.716-.95 1.71-1.184 2.733-.256 1.133-.351 2.346-.314 3.552.044 1.213.292 2.375.621 3.58.395 1.469.95 2.902 1.63 4.261 1.015 2.068 2.345 4.019 4.055 5.51 1.323 1.162 2.894 1.929 4.502 2.338.358.088.702.176 1.067.212.336.044.606.11.833.19.227.066.417.11.57.183.307.139.49.336.643.628.066.132.161.263.205.395.153.424-.475.775-1.703.877-1.805.022-3.647-.585-5.269-1.513-1.629-.935-3.047-2.229-4.216-3.661-1.74-2.141-2.997-4.597-3.888-7.14l.051-.022z"/>
  <path fill="#12111f" d="M246.095 125.795c.431-.299.76-.694 1.154-1.037.373-.359.68-.775 1.031-1.162.292-.432.613-.841.876-1.287l.38-.686c.139-.22.256-.461.359-.702.146-.351.314-.702.416-1.074q.151-.561.336-1.111c.746-2.36.168-5.43-1.958-6.898a5.06 5.06 0 0 0-3.267-.87c-.745.051-1.461.307-2.192.563-.373.124-.745.255-1.118.416-.366.168-.797.256-1.184.439-.504.19-.46.153-.248-.3.138-.307.292-.65.453-.994.219-.394.555-.804.993-1.14.198-.146.395-.299.614-.416.22-.117.453-.205.687-.3a9 9 0 0 1 1.484-.417c1.03-.168 2.148-.153 3.179.19a7.4 7.4 0 0 1 2.747 1.608 7.1 7.1 0 0 1 1.739 2.602c.454 1.14.702 2.331.782 3.544.03.606.015 1.22-.058 1.827-.08.628-.241 1.162-.395 1.717-.343 1.213-.862 2.375-1.49 3.464-.351.519-.68 1.06-1.067 1.557-.41.475-.768.993-1.235 1.417-1.045 1.133-2.31 2.017-3.567 2.843-1.958 1.198-4.106 2.002-6.248 2.616-1.666.468-3.31.979-5.013 1.257-.372.066-.745.132-1.125.168-1.418.073-1.871-.153-2.17-.884-.066-.154-.154-.292-.198-.417-.066-.219.044-.424.285-.694.241-.285.614-.46 1.096-.577 1.418-.366 2.836-.673 4.253-.987q1.053-.263 2.105-.548c.68-.234 1.389-.402 2.054-.679 1.995-.746 3.887-1.74 5.466-3.092l.051.052z"/>
  <path fill="#12111f" d="M256.485 170.832a67.5 67.5 0 0 0-2.521-10.369c-.41-1.243-.914-2.456-1.367-3.691-1.571-4.362-3.442-8.652-5.174-13.051-.753-1.959-1.534-3.932-2.134-5.971-.226-.643-.321-1.337-.482-2.002-.08-.694-.234-1.374-.212-2.09 0-.358-.029-.701.007-1.06l.22-1.052c.226-.679.438-1.359.825-1.944.453-.745.432-.584.388.139 0 .19-.015.402-.022.636.029.248.073.526.124.818.022.578.424 1.235.431 1.9.11 1.206.556 2.419.921 3.618a50 50 0 0 0 1.315 3.675c.475 1.228 1.009 2.456 1.513 3.713.49 1.264.987 2.528 1.483 3.8 1.162 3.062 2.682 6.138 3.866 9.302 1.308 3.479 2.412 7.067 3.15 10.728.489 2.251.767 4.546 1.001 6.833.3 3.478.175 7.001-.212 10.435l-.095 1.001-.146.994c-.088.665-.183 1.323-.27 1.988l-.373 1.966-.19.986-.256.972c-.153.57-.278 1.14-.446 1.71-.716 2.09-1.322 2.609-2.097 2.784-.183.037-.365.11-.526.11-.263 0-.409-.248-.468-.687-.058-.438-.051-1.081.124-1.834q.386-1.667.782-3.354c.263-1.126.446-2.273.687-3.413.344-2.309.702-4.64.76-7.008a50 50 0 0 0-.672-10.567zm-108.343-.38c-4.647.994-9.266 2.141-13.862 3.369-4.582 1.271-9.157 2.594-13.68 4.077-3.303 1.074-6.57 2.273-9.836 3.442a299 299 0 0 0-17.078 6.752c-5.613 2.434-11.152 5.057-16.523 7.988-4.743 2.609-9.449 5.444-13.556 8.827a32 32 0 0 0-3.683 3.486c-1.038 1.25-1.959 2.682-2.536 4.144-.256.738-.446 1.49-.49 2.25a9.2 9.2 0 0 0 .234 2.332c.198.782.446 1.585.71 2.397.262.818.591 1.622.81 2.477.256 1.074.285 1.564.169 1.571-.125.015-.432-.446-1.016-1.191a27 27 0 0 1-2.156-3.274c-.402-.723-.745-1.608-.98-2.631a7.9 7.9 0 0 1-.028-3.383c.08-.526.27-1.009.416-1.506.205-.46.358-.964.614-1.381.234-.431.468-.877.745-1.271.263-.41.526-.811.848-1.184 1.191-1.593 2.594-2.792 3.983-4.019 2.828-2.353 5.846-4.334 8.922-6.212 6.153-3.734 12.584-6.95 19.168-9.836 7.87-3.471 16.121-6.913 24.408-9.844 9.12-3.193 18.379-5.985 27.769-8.265a259 259 0 0 1 17.466-3.631c4.443-.731 8.915-1.382 13.402-1.827 1.118-.139 2.244-.212 3.369-.307 1.125-.081 2.243-.205 3.361-.256l3.625-.197c.205-.022.358.036.541.051l.263.036.131.015s.059-.022.052.036c.022 0 .043.022.058.037.234.241.344.599.439.979l.124.585.095.504.153.819c.629 3.368 1.425 6.701 2.872 9.638.731 1.44 1.659 2.799 2.85 3.588.585.388 1.25.622 1.886.644.621.036 1.22-.169 1.797-.534 1.016-.672 1.849-1.783 2.594-2.989 1.367-2.28 2.032-3.997 2.668-5.122.321-.563.592-1.009.862-1.36.278-.35.555-.606.811-.833.234-.204.497-.489.673-.584.292-.161.27.299.146 1.337-.117 1.045-.526 2.623-1.352 4.582-.614 1.454-1.316 2.908-2.273 4.311a12 12 0 0 1-1.71 2.017c-.68.629-1.52 1.206-2.558 1.52-1.03.329-2.228.285-3.2-.022-1.009-.299-1.9-.862-2.624-1.505-1.447-1.308-2.338-2.879-3.062-4.436-1.41-3.142-2.134-6.401-2.733-9.617l-.219-1.191c-.015-.08-.007-.029-.015-.044h-.065l-.6.03-2.397.124c-.796.044-1.6.124-2.397.19-4.75.358-9.492.964-14.228 1.688-4.735.709-9.441 1.644-14.125 2.653l-.022-.059z"/>
  <path fill="#12111f" d="m254.914 194.706 4.757 3.42 2.375 1.717 2.324 1.776 4.648 3.559 4.552 3.676 1.667 1.33 1.637 1.366c1.096.914 2.185 1.827 3.266 2.755 7.534 6.636 14.696 13.717 21.127 21.456a67 67 0 0 1 4.158 5.305 58 58 0 0 1 3.515 5.751 49.7 49.7 0 0 1 3.354 7.951c.431 1.374.826 2.755 1.133 4.151.073.351.175.694.219 1.052l.124 1.067c.08.716.124 1.432.175 2.141.074 1.791 0 1.549-.65.168-.329-.694-.862-1.659-1.491-2.799-.307-.577-.54-1.22-.811-1.892-.278-.673-.526-1.396-.796-2.141a55 55 0 0 0-3.318-7.688 53 53 0 0 0-4.341-7.14c-1.6-2.272-3.522-4.406-5.356-6.606-.899-1.111-1.878-2.163-2.85-3.223l-2.902-3.2c-1.176-1.265-2.426-2.478-3.668-3.72-.628-.614-1.257-1.235-1.885-1.849-.636-.614-1.308-1.191-1.966-1.79-1.323-1.184-2.646-2.375-3.968-3.559-1.359-1.147-2.711-2.302-4.063-3.442l-2.222-1.893-2.273-1.834-4.552-3.661c-3.113-2.346-6.168-4.765-9.369-7.001-3.873-2.828-7.863-5.51-11.875-8.141-3.069-1.951-6.116-3.938-9.266-5.758-3.098-1.9-6.299-3.617-9.471-5.335-2.484-1.3-4.998-2.47-7.49-3.668l-3.8-1.637c-1.272-.541-2.521-1.118-3.822-1.593-1.133-.431-2.243-.862-3.391-1.294-2.104-.862-3.493-1.373-4.428-1.907-.906-.584-1.418-.986-1.812-1.366-.176-.176-.432-.359-.527-.475-.168-.205.205-.205 1.06-.132.431.044.979.102 1.63.175.665.059 1.381.278 2.207.475 1.242.271 2.411.746 3.61 1.17 1.191.438 2.396.877 3.602 1.322 2.375.972 4.758 2.003 7.147 3.062 2.346 1.14 4.728 2.266 7.074 3.471 2.324 1.25 4.67 2.478 6.979 3.779 6.847 3.88 13.512 8.14 20.023 12.583l-.029.066zm-62.203 4.056c-1.856.249-3.72.22-5.532-.014a14 14 0 0 1-1.352-.212c-.446-.088-.891-.146-1.345-.3l-1.351-.387c-.454-.124-.863-.351-1.294-.526l-.935-.395-.885-.49-.884-.496c-.292-.176-.548-.388-.818-.585-.972-.672-1.813-1.498-2.668-2.295-.774-.862-1.578-1.71-2.243-2.652a30.8 30.8 0 0 1-3.486-5.912c-.453-.906-.796-1.864-1.191-2.792-.19-.468-.336-.95-.511-1.425-.169-.475-.344-.95-.468-1.432-.746-2.448-1.418-5.064-.884-7.673.248-.804.35-.68.833-.029.46.657 1.235 1.775 1.483 3.12.877 4.794 2.477 9.536 5.13 13.76.373.643.855 1.221 1.301 1.835.475.584 1.016 1.118 1.527 1.68.578.49 1.118 1.023 1.725 1.476l.921.658.46.329.482.278 1.067.621c.366.175.746.321 1.118.489.738.373 1.542.512 2.324.76 1.63.359 3.311.556 4.977.527 1.03 0 2.046-.132 3.054-.307.994-.227 1.995-.475 2.931-.885 2.879-1.161 5.393-3.237 7.234-5.765 1.44-1.966 2.419-4.188 3.15-6.453.161-.504.285-1.001.431-1.513.307-.928.482-1.542.716-1.958.234-.409.483-.629.789-.797.139-.073.285-.19.417-.226.219-.066.373.117.497.526.117.409.197 1.045.08 1.827-.139 1.162-.431 2.309-.818 3.442a23 23 0 0 1-1.411 3.332c-1.132 2.163-2.601 4.231-4.457 5.97-2.711 2.624-6.343 4.407-10.092 4.94l-.015-.058zm-63.357 24.283c.132.014.146-.095.146-.234 0-.015 0-.007-.007-.051l-.037-.146-.073-.3-.161-.592-.343-1.191c-.175-.577-.424-1.133-.607-1.71a48 48 0 0 0-1.059-3.003c-.19-.475-.409-.98-.629-1.33a3.1 3.1 0 0 0-.928-.936c-.687-.467-1.571-.723-2.448-.84-1.147-.161-2.28.022-3.464-.139-.365-.044-.394-.088-.16-.46.212-.388.789-1.06 1.578-1.206 1.381-.161 2.784-.11 4.195.358.694.241 1.388.599 1.995 1.14.16.124.292.278.431.431q.21.217.387.49c.132.182.219.35.292.504.081.161.169.321.227.475.628 1.483 1.337 2.886 1.915 4.355.307.804.599 1.615.862 2.441l.431 1.396c.205.65.27 1.279.219 1.812-.022.329-.277.651-.533.892a2.2 2.2 0 0 1-.957.489c-.702.161-1.484.051-2.207-.241l-.358-.153-.3-.154a9 9 0 0 1-.57-.329 13 13 0 0 1-1.045-.745 18.5 18.5 0 0 1-1.842-1.703c-.891-.928-1.768-1.87-2.455-3.01-.153-.249-.307-.497-.431-.768a4 4 0 0 1-.227-.665c-.029-.197 0-.372.037-.511.066-.285.256-.475.511-.643.117-.074.22-.161.329-.212.336-.154.855.146 1.294.657 1.015 1.615 2.309 3.172 3.844 4.443.562.461 1.169.877 1.746 1.162.073.03.146.073.212.103.051.022.037.014.037.014q0 .012.021.022a.1.1 0 0 0 .074.029l.051.066z"/>
  <path fill="#12111f" d="M121.118 218.47c-.365-1.615-1.118-3.296-1.973-4.896-.314-.585-.702-1.133-1.045-1.703a42 42 0 0 0-1.922-2.959 22 22 0 0 0-1.045-1.338l-.117-.124c-.037-.036-.029-.036-.073-.073a3 3 0 0 0-.322-.19 4 4 0 0 0-.708-.3c-.892-.27-1.886-.219-2.792.095-1.191.388-2.17 1.177-3.544 1.615-.461.117-.358.154-.219-.241.102-.416.27-1.315.928-1.914a6.5 6.5 0 0 1 2.046-1.184 7 7 0 0 1 2.448-.453c.855 0 1.71.182 2.506.54.198.095.395.19.585.315.073.036.248.16.373.263l.255.241c.293.307.519.599.746.899 1.016 1.439 2.126 2.821 3.047 4.326 1.001 1.651 1.907 3.376 2.58 5.247.387 1.162.738 2.375.599 3.785a2.97 2.97 0 0 1-.636 1.579c-.197.277-.46.46-.731.621-.292.131-.606.226-.913.234-.607.036-1.118-.117-1.586-.293a8 8 0 0 1-1.293-.643c-1.243-.76-2.383-1.585-3.413-2.594-.226-.226-.46-.438-.665-.687-.76-.943-.789-1.469-.256-1.988.095-.109.168-.219.234-.277.124-.11.285-.081.621-.044.198 0 .322.058.453.139.147.073.256.182.388.307.767.76 1.622 1.52 2.506 2.214.439.343.892.672 1.345.943.446.263.891.504 1.228.599.124.044.211.044.27.058.044 0 .022 0 .029.008 0 .007.022 0 0 .014.022-.007.044-.036.051-.066.015-.029.044-.051.051-.102.081-.161.117-.468.095-.818 0-.344-.08-.738-.175-1.133l.051-.015z"/>
  <path fill="#12111f" d="M102.455 206.845c.372-.073.731-.175 1.103-.226l1.155-.103c.387-.014.796.037 1.191.066.431-.037 1.198.3 1.535.577.65.475 1.132.943 1.651 1.418.504.475.979.957 1.447 1.447.68.716 1.389 1.41 2.01 2.185 1.096 1.359 2.126 2.791 2.901 4.436.365.825.789 1.688.789 2.747.015.519-.073 1.118-.38 1.637a2.18 2.18 0 0 1-1.308 1.075c-.913.328-1.842.168-2.616-.103-.797-.27-1.462-.709-2.097-1.162a14.8 14.8 0 0 1-2.222-1.987c-.658-.731-1.279-1.542-1.513-2.558-.139-.629-.117-.519.307-.183.205.168.585.344.95.585.183.124.395.241.592.387.183.161.366.329.548.512a15.4 15.4 0 0 0 2.076 1.783c.73.511 1.512.935 2.221 1.14l.263.073.249.022c.175.044.299-.008.445 0 .264-.066.505-.161.57-.278.059-.124.03-.358-.051-.687-.058-.168-.095-.329-.182-.519-.037-.19-.11-.387-.176-.584-.336-.972-.979-1.944-1.644-2.88-.672-.942-1.425-1.856-2.192-2.74a37 37 0 0 0-2.646-2.806 9 9 0 0 0-.709-.621c-.116-.095-.241-.198-.358-.278-.102-.08-.263-.183-.299-.212-.059-.036-.117-.073-.19-.088l-.373-.014c-.285-.015-.57-.044-.862.007-1.44.124-2.916.665-4.304 1.381-2.09 1.118-4.085 2.551-5.89 4.144-1.403 1.249-2.602 2.66-3.8 4.077-.264.315-.505.636-.775.943-1.023 1.133-1.52 1.33-2.207 1.191-.154-.036-.329-.044-.453-.102-.431-.168-.358-.935.234-1.966.913-1.483 2.068-2.835 3.303-4.151a37.4 37.4 0 0 1 4.078-3.705c1.118-.825 2.28-1.607 3.544-2.272a17.8 17.8 0 0 1 4.056-1.652l.021.059z"/>
  <path fill="#12111f" d="M108.212 221.488c.058.015.124.03.153.015.037 0 .103.015.124 0 .081-.015.147-.029.169-.022.043.044.138-.197.029-.57-.066-.263-.234-.526-.373-.811-.519-1.016-1.25-2.068-2.075-3.018-.366-.424-.797-.789-1.191-1.177l-.804-.709c-.278-.226-.49-.533-.746-.796-.146-.176-.065-.256.19-.292.249-.03.738-.088 1.148.087.679.373 1.381.738 1.951 1.264.57.519 1.103 1.089 1.571 1.725.555.76 1.22 1.484 1.695 2.412.249.511.483 1.088.461 1.841a2.05 2.05 0 0 1-.41 1.133c-.124.175-.277.292-.431.409q-.24.143-.482.263c-.862.329-1.659.132-2.309-.08-1.001-.366-1.805-.95-2.609-1.491-.621-.424-1.272-.782-1.885-1.228a3 3 0 0 1-.38-.314c-.205-.226-.329-.395-.344-.577 0-.205.066-.373.175-.563.052-.088.088-.175.139-.241.088-.117.212-.168.395-.205.183-.029.438-.051.621.059.292.146.614.241.87.416.27.161.526.336.782.512.518.343 1.023.709 1.534 1.016.373.233.753.438 1.104.606.35.183.687.278.913.3v.051zm12.285 7.119c-1.447.584-2.894 1.205-4.37 1.834-.541.226-1.045.519-1.601.731-.489.182-.972.38-1.469.54l-1.505.483c-1.03.256-2.053.526-3.113.657-.468.074-.928.169-1.403.183-.475.037-.943.102-1.418.132-.606-.059-1.213-.088-1.819-.161a5.8 5.8 0 0 1-1.674-.782c-.321-.212-.27-.19.073-.314.168-.066.417-.183.709-.351.285-.139.592-.248.899-.3 1.103-.138 2.134-.255 3.208-.314a37 37 0 0 0 3.267-.541c.672-.109 1.33-.38 1.987-.621q.978-.43 1.966-.847l4.385-1.915c.898-.402 1.841-.753 2.762-1.133.716-.256 1.432-.519 2.148-.752.738-.198 1.455-.454 2.193-.629.577-.131 1.14-.314 1.702-.475l1.747-.365c.256-.066.519-.088.782-.103.994-.051 1.308.147 1.476.746.037.131.088.27.11.402.058.424-.344.855-.98.994-.95.146-1.892.416-2.85.577-.95.27-1.914.46-2.879.796-1.432.432-2.879.994-4.319 1.593l-.022-.051zm163.977 13.365c1.82.343 3.603.847 5.364 1.432s3.493 1.337 5.152 2.324c.614.336 1.199.775 1.791 1.198.533.454 1.03.921 1.534 1.396 1.674 1.761 3.069 3.705 4.275 5.737 1.184 2.046 2.163 4.18 3.011 6.357a92 92 0 0 1 2.032 5.854l.54 1.9c.154.643.322 1.286.439 1.936.277 1.294.387 2.646.124 4.012-.19.848-.234.695-.541.022-.124-.329-.475-.789-.738-1.315-.153-.27-.343-.548-.468-.862-.102-.307-.226-.644-.306-.994-1.257-4.984-3.092-9.858-5.401-14.484-1.374-2.777-3.412-5.335-5.722-7.366-1.213-1.089-2.718-1.871-4.311-2.551-1.586-.679-3.274-1.198-4.977-1.615a42 42 0 0 0-6.401-1.074c-1.63-.131-3.274-.168-4.867 0-.388.059-.811.073-1.17.176l-.555.124-.27.066-.168.065c-.22.081-.453.161-.643.307-.198.124-.315.395-.198.614.176.329.519.526.826.68l.329.16c.131.059.27.117.409.169.27.109.541.175.826.248 1.125.263 2.331.292 3.551.241.541-.014 1.075-.088 1.623-.117 2.053-.102 2.769.168 3.244.768.11.124.249.241.315.336.109.175-.052.336-.417.606-.365.285-.95.468-1.717.651-.57.153-1.155.197-1.754.248a22 22 0 0 1-1.834.08c-1.25 0-2.565-.109-3.925-.533a8 8 0 0 1-1.001-.38l-.482-.219-.256-.117-.38-.219c-1.074-.563-1.863-1.425-2.104-2.353-.103-.468-.081-1.016.131-1.469.066-.241.241-.424.365-.636.161-.19.373-.358.556-.541.482-.278 1.038-.504 1.549-.76.124-.058.278-.139.38-.175l.27-.066.534-.139c.548-.161 1.03-.219 1.52-.285.497-.08.979-.109 1.461-.139.49-.036.965-.051 1.44-.044.475 0 .957-.007 1.425.03 1.893.058 3.749.329 5.59.657v.066z"/>
  <path fill="#12111f" d="M272.372 255.215c-.614-.198-1.031-.548-1.374-.936-.066-.087-.117-.204-.176-.299-.014-.117-.102-.22-.124-.344-.036-.248-.058-.482 0-.709.095-.453.351-.891.716-1.3.19-.198.402-.395.607-.57l.314-.249.161-.124.11-.073c.292-.198.577-.38.869-.548.541-.315 1.067-.643 1.622-.899 1.995-.841 4.056-1.403 6.132-1.805.92-.161 1.841-.387 2.769-.461 1.184-.109 2.412-.233 3.581.256.358.154.314.088 0 .212-.153.059-.38.212-.636.344-.146.073-.277.146-.416.219-.073.044-.146.066-.227.117l-.234.051c-.57.095-1.132.219-1.688.351-.555.153-1.111.27-1.673.365-1.118.227-2.236.49-3.369.775-1.352.336-2.645 1.03-3.888 1.68-.343.176-.679.366-1.001.556-.161.102-.321.197-.475.299l-.351.242a2 2 0 0 0-.394.336.6.6 0 0 0-.132.234c-.022.095.037.175.095.233.161.139.38.212.614.264.066.014.336.065.563.095.234.029.467.051.709.065 1.454.088 2.959.03 4.428-.146 1.14-.146 2.243-.446 3.347-.716.241-.058.475-.139.723-.197.453-.103.753-.146.98-.095.233.08.387.212.54.409.066.095.154.175.212.263.095.153.066.322-.08.519-.139.19-.38.424-.724.533-2.002.753-4.18 1.06-6.408 1.308-.833.081-1.667.132-2.529.132-.431.015-.869 0-1.315-.015l-.344-.022c-.124-.007-.197-.022-.438-.043a3 3 0 0 1-.577-.11c-.183-.051-.388-.08-.549-.154z"/>
  <path fill="#12111f" d="M281.331 259.797c-1.009-.008-2.003-.029-3.172-.271a2 2 0 0 1-.234-.065l-.336-.11c-.212-.066-.38-.205-.563-.3-.19-.095-.314-.27-.482-.402-.124-.16-.256-.328-.336-.511-.336-.76-.183-1.666.292-2.346.073-.124.19-.248.293-.365.08-.095.16-.183.248-.249.168-.153.329-.299.497-.416a6.3 6.3 0 0 1 1.023-.636c1.22-.607 2.463-.95 3.705-1.235a42 42 0 0 1 3.727-.658 58 58 0 0 1 3.325-.329c.709-.036 1.425-.102 2.141-.036.716.109 1.447.204 2.112.548.409.219.336.197-.051.278-.395.102-1.074.38-1.834.555l-.512.11-.511.051c-.337.036-.68.08-1.016.131-.68.095-1.359.212-2.039.336-.68.139-1.359.22-2.046.329-.68.117-1.367.227-2.054.344-.818.146-1.637.387-2.411.694-.782.3-1.535.65-2.178 1.045-.329.197-.687.526-.723.592-.11.131-.154.351-.044.504a.47.47 0 0 0 .212.183.4.4 0 0 0 .117.051c.065.029.175.059.27.08.395.103.848.161 1.301.176 1.132.051 2.316-.015 3.486-.088 1.805-.124 3.617-.248 5.4-.365 1.403-.081 2.791-.263 4.253-.168.322.029.636.058.957.124.3.058.548.146.753.219.197.095.343.227.46.322.227.212.315.438.351.665.015.109.044.219.037.307-.037.299-.548.343-1.323.416-.555-.036-1.133-.015-1.71.007-.585 0-1.177 0-1.783.022-1.213.037-2.47.11-3.749.198-1.9.124-3.829.285-5.839.328v-.051z"/>
  <path fill="#12111f" d="M280.958 262.018c-.263-.314-.416-.599-.431-1.06 0-.489.212-.811.497-1.103.556-.6 1.739-.987 2.858-1.221.57-.117.986-.241 1.49-.299 1.718-.212 3.42-.263 5.123-.263.753 0 1.513-.044 2.265-.066.483.022.972.036 1.462.102l.365.059c.117.043.241.08.358.131.242.095.475.205.709.344.285.182.183.27-.102.416-.139.073-.336.19-.555.322q-.188.108-.351.204c-.059.037-.124.059-.19.11-.059.007-.124.022-.19.029-.453.051-.914.11-1.374.183-.46.044-.928.022-1.396.036a73 73 0 0 1-2.843 0c-1.147-.022-2.323.212-3.449.41l-.833.146a4 4 0 0 0-.38.066 2 2 0 0 0-.424.131c-.124.051-.328.168-.27.322.161.285.541.394.928.511l.263.066.431.095c.293.058.585.11.884.153.592.088 1.192.154 1.791.198.928.065 1.856-.022 2.784-.03.205.015.402.015.607.037.38.037.628.11.804.227.175.102.27.219.35.365.037.066.081.131.103.19.065.19-.256.387-.826.592-.417.088-.848.19-1.279.27-.431.029-.87.044-1.308.051-.884 0-1.776-.043-2.689-.131a26 26 0 0 1-2.046-.307c-1.228-.227-2.682-.599-3.201-1.257l.058-.022zm-14.104-5.942c-.825-1.14-1.637-2.323-2.221-3.785-.205-.541-.439-1.111-.453-1.805l.022-.46c.022-.161.058-.322.087-.475a3.5 3.5 0 0 1 .373-.855c.146-.249.336-.497.57-.731.263-.234.563-.446.906-.556a2.4 2.4 0 0 1 1.038-.102c.329.029.599.132.848.234.496.219.898.49 1.271.76l1.9 1.44c.753.643 1.454 1.293 2.185 1.885.227.175.146.329-.197.431a2.5 2.5 0 0 1-1.542-.102 30 30 0 0 1-1.44-.672c-.446-.249-.826-.563-1.22-.834-.387-.27-.767-.533-1.126-.745-.343-.219-.701-.343-.855-.424-.168-.08-.336-.051-.555.351l-.073.146-.037.117c-.036.073-.029.168-.051.249-.007.182 0 .387.044.621.197 1.037.899 2.221 1.637 3.288q.702 1.008 1.491 1.973c.796.979 1.608 1.966 2.47 2.901.658.738 1.425 1.367 2.068 2.171.139.175.285.343.409.548.241.365.3.679.3.906s-.103.409-.263.57c-.073.073-.146.153-.227.205-.278.16-.628-.015-1.059-.344-1.243-1.023-2.419-2.346-3.662-3.698a62 62 0 0 1-2.682-3.186l.037-.036zm-49.041 50.766c1.717 3.544 3.318 7.169 4.56 10.969.643 1.885 1.147 3.837 1.557 5.824.401 1.988.628 4.034.577 6.139-.073 2.09-.424 4.304-1.542 6.299-.322.497-.526.95-.994 1.483-.438.49-.972.929-1.556 1.228-1.162.629-2.39.775-3.508.797-2.251-.015-4.253-.592-6.168-1.257-1.914-.687-3.727-1.52-5.495-2.426-5.13-2.69-9.924-5.861-14.455-9.347-3.997-3.069-7.804-6.336-11.553-9.653a212 212 0 0 1-10.933-10.341c-7.015-7.169-13.555-14.813-19.402-22.961-5.21-7.212-9.872-14.922-13.453-23.033-2.287-5.211-4.151-10.64-5.422-16.209-1.272-5.568-1.966-11.283-1.864-16.976.132-3.551.417-3.047.987-.095.161.738.27 1.63.46 2.646.205 1.016.424 2.155.643 3.405.468 2.492.965 5.393 1.623 8.528 2.258 11.123 6.832 21.689 12.788 31.416 2.974 4.874 6.277 9.566 9.785 14.126a195 195 0 0 0 11.144 13.212c4.692 5.079 9.793 9.96 15.186 14.586 5.385 4.648 10.925 9.164 16.756 13.096 3.208 2.148 6.519 4.172 9.961 5.846 1.724.826 3.485 1.571 5.268 2.104 1.769.519 3.647.892 5.24.6.797-.139 1.447-.475 1.937-.98.226-.241.445-.635.672-.993.234-.359.365-.782.555-1.17.621-1.637.782-3.493.709-5.342-.073-1.856-.424-3.734-.877-5.583-.446-1.849-1.038-3.683-1.71-5.488a81 81 0 0 0-2.769-6.562 119 119 0 0 0-3.245-6.38c-2.273-4.202-4.779-8.287-7.403-12.299-7.98-12.116-17.056-23.633-26.819-34.243a214 214 0 0 0-11.773-11.81c-4.055-3.748-8.235-7.337-12.62-10.64-1.929-1.461-3.88-2.791-5.905-4.099-3.763-2.426-6.365-3.698-8.184-4.509-1.82-.797-2.85-1.264-3.756-1.754-.417-.27-1.002-.387-1.294-.599-.241-.161-.205-.336.139-.519a4 4 0 0 1 .745-.27c.322-.066.716-.103 1.184-.139 1.856-.088 4.655.562 7.805 2.068 4.662 2.251 8.901 5.196 12.978 8.367 4.078 3.179 7.973 6.628 11.758 10.238 7.564 7.22 14.674 15.083 21.397 23.275a271 271 0 0 1 14.184 18.942c4.436 6.547 8.624 13.285 12.16 20.417l-.058.052z"/>
  <path fill="#12111f" d="M135.916 308.231c3.705-5.992 8.089-11.429 12.686-16.633 4.611-5.195 9.493-10.128 14.557-14.856 3.705-3.435 7.454-6.84 11.371-10.026 6.905-5.627 14.118-10.903 21.842-15.434 3.859-2.258 7.856-4.326 12.073-5.948 2.112-.804 4.282-1.499 6.54-1.944 2.251-.431 4.604-.695 6.994-.256.526.109 1.052.197 1.571.395.255.087.519.16.767.277l.745.366c.256.109.483.263.717.423.226.161.46.307.686.475l.651.614c.212.212.365.461.548.694.658.98 1.023 2.083 1.176 3.165.132 1.074.161 2.148.044 3.179-.197 2.075-.709 4.048-1.344 5.948-.636 1.907-1.403 3.742-2.244 5.539-2.17 4.597-4.808 8.952-7.753 13.074-2.953 4.114-6.226 8.009-9.939 11.444-2.353 2.112-2.309 1.505-.796-.702 1.498-2.229 4.253-6.197 7.585-10.786 2.938-4.085 5.605-8.375 7.797-12.847 1.089-2.236 2.069-4.524 2.799-6.847.731-2.31 1.25-4.714 1.118-6.862-.065-1.067-.328-2.025-.803-2.682-.125-.161-.227-.336-.395-.453l-.212-.205c-.088-.066-.205-.131-.3-.197-.387-.3-.855-.497-1.315-.709-.95-.373-2.032-.555-3.15-.629-1.132-.051-2.302.037-3.485.212-2.368.351-4.75 1.082-7.082 1.944-2.338.87-4.647 1.908-6.913 3.033-5.429 2.718-10.698 6.109-15.792 9.778-5.093 3.675-10.04 7.636-14.783 11.743a236 236 0 0 0-15.083 14.177c-4.809 4.947-9.398 10.121-13.549 15.609-2.543 3.376-4.94 6.884-6.92 10.582-.979 1.849-1.863 3.756-2.506 5.707-.169.49-.315.979-.432 1.476-.138.49-.226.987-.307 1.484-.102.497-.102.994-.153 1.483.022.482-.015.987.08 1.454.19 1.433.79 2.785 1.922 3.537.556.388 1.228.658 1.937.833.716.161 1.469.227 2.236.242 3.084 0 6.212-.819 9.237-1.813 6.058-2.046 11.831-4.94 17.392-8.067 8.631-4.919 16.633-10.545 24.276-16.684a186 186 0 0 0 4.926-4.151c3.069-2.601 5.013-4.406 6.445-5.597 1.462-1.17 2.346-1.805 3.142-2.251.359-.205.79-.526 1.024-.629.387-.175.102.41-.746 1.652-.855 1.235-2.287 3.113-4.458 5.196-3.156 3.149-6.576 6.094-10.143 8.922a184 184 0 0 1-11.107 8.149 180 180 0 0 1-11.868 7.395c-4.085 2.316-8.28 4.487-12.657 6.35-3.252 1.374-6.599 2.609-10.165 3.398-1.783.388-3.625.658-5.576.614a12 12 0 0 1-2.996-.424c-1.016-.285-2.061-.767-2.952-1.534a4 4 0 0 1-.621-.621 5 5 0 0 1-.534-.695l-.241-.365-.183-.373-.35-.752c-.358-1.031-.578-2.09-.592-3.106-.066-2.039.336-3.932.869-5.707.541-1.784 1.25-3.472 2.054-5.079a57 57 0 0 1 2.601-4.699l.066.022z"/>
  <path fill="#12111f" d="M137.588 269.434c6.745-.869 13.49-1.132 20.228-1.11 6.73.036 13.453.38 20.147.979 4.882.431 9.763.928 14.616 1.659 8.542 1.293 17.041 3.018 25.35 5.568 4.144 1.301 8.25 2.792 12.167 4.787 1.959 1.001 3.873 2.126 5.649 3.507 1.761 1.381 3.449 3.018 4.502 5.203.263.461.394 1.002.584 1.506a4.1 4.1 0 0 1 .095 1.871c-.233 1.271-1.001 2.25-1.783 2.966-1.607 1.447-3.434 2.28-5.254 3.026-3.661 1.439-7.432 2.302-11.181 3.018a126 126 0 0 1-14.593 1.82c-4.889.328-9.8.387-14.681-.022-3.04-.3-2.587-.673-.015-1.06 1.286-.205 3.106-.438 5.284-.709 2.177-.248 4.728-.468 7.49-.665 4.896-.343 9.778-.913 14.586-1.768 2.404-.439 4.787-.943 7.11-1.579 2.317-.643 4.612-1.388 6.65-2.404 1.009-.504 1.966-1.096 2.653-1.739.344-.322.599-.658.746-.943.153-.292.168-.511.146-.767 0-.059-.03-.139-.037-.205l-.109-.329c-.081-.226-.132-.453-.256-.672-.117-.219-.205-.453-.336-.665l-.417-.65a14.7 14.7 0 0 0-2.243-2.412c-1.725-1.498-3.786-2.748-5.912-3.866-2.141-1.118-4.385-2.09-6.68-2.981-5.495-2.112-11.37-3.661-17.333-4.918s-12.043-2.2-18.087-2.953a252 252 0 0 0-20.023-1.702c-6.694-.293-13.402-.322-20.074.065-4.107.256-8.207.658-12.233 1.367-2.01.365-4.005.804-5.956 1.367-1.944.57-3.844 1.271-5.554 2.243-1.271.738-2.47 1.652-3.186 2.806-.351.599-.577 1.162-.555 1.769.014.606.255 1.227.613 1.819s.848 1.14 1.374 1.659 1.111.994 1.725 1.447c1.22.899 2.536 1.703 3.895 2.441 2.718 1.469 5.583 2.704 8.484 3.814 2.901 1.111 5.854 2.09 8.82 2.989 9.237 2.748 18.547 4.604 27.967 5.89 2.075.278 4.114.49 6.212.702 3.887.431 6.445.606 8.243.833 1.797.263 2.835.482 3.683.753.387.116.891.219 1.118.321.38.168-.227.351-1.666.577-1.44.22-3.72.453-6.636.322-4.326-.124-8.681-.57-13.059-1.191a181 181 0 0 1-13.153-2.361 177 177 0 0 1-13.147-3.376c-4.363-1.308-8.703-2.799-12.949-4.618-3.15-1.381-6.27-2.879-9.193-4.999a18.4 18.4 0 0 1-2.12-1.775c-.679-.665-1.33-1.411-1.863-2.346-.526-.921-.921-2.112-.833-3.384.022-.314.088-.621.153-.928.095-.285.183-.606.307-.847.249-.49.497-.987.826-1.396 1.264-1.718 2.909-2.784 4.524-3.632 1.629-.855 3.303-1.462 4.983-1.995a46 46 0 0 1 5.072-1.279c1.695-.351 3.398-.614 5.101-.862l.029.065zm49.49-136.813c.92-.095 1.812-.424 2.682-.797.416-.234.862-.409 1.256-.701l.607-.395.57-.46c1.527-1.235 2.799-2.843 3.785-4.626.738-1.294 1.221-2.726 1.696-4.151.175-.643.394-1.272.519-1.929l.219-.979c.058-.315.08-.585.117-.885.058-1.162-.271-2.287-.958-3.281-.701-.979-1.717-1.798-2.842-2.455-1.133-.658-2.375-1.169-3.669-1.564-2.287-.702-4.728-1.009-7.125-1.038-3.076-.036-6.153.38-9.017 1.25-.848.336-.943.073-.366-.672.3-.359.782-.812 1.44-1.257.329-.198.694-.453 1.103-.614.41-.168.863-.307 1.33-.402a25.6 25.6 0 0 1 5.05-.526c1.688.007 3.369.153 5.035.445s3.318.724 4.925 1.36c1.593.65 3.165 1.512 4.509 2.747.797.746 1.513 1.645 2.017 2.69a7.44 7.44 0 0 1 .738 3.39c-.044.57-.095 1.162-.204 1.645-.103.511-.169 1.023-.307 1.527-.132.504-.256 1.008-.395 1.513l-.497 1.476c-.804 2.141-1.929 4.18-3.413 5.963-1.483 1.768-3.295 3.339-5.473 4.275-1.315.606-2.777.935-4.231.994-1.447.044-2.828-.103-4.224-.373-2.097-.453-4.151-1.374-5.802-2.806-1.667-1.418-2.865-3.311-3.61-5.306-1.118-3.127-1.389-6.408-1.126-9.616.029-.351.037-.709.073-1.06l.154-1.045c.46-2.616 1.118-3.303 1.805-3.676.168-.08.336-.204.482-.241.241-.058.38.197.468.694.08.497.124 1.243-.022 2.141-.081 1.352-.3 2.69-.336 4.042l-.059 1.008.022 1.001v1.001l.11.987.095.986.197.958c.095.657.322 1.249.512 1.863.08.314.219.599.358.877l.402.855.511.775.249.394.307.344c1.169 1.403 2.762 2.426 4.581 3.011.907.314 1.879.475 2.858.591.497.03 1.001.074 1.483.088.461-.036.921-.007 1.381-.117l.015.059zm19.087-9.151c-.146 1.93 0 3.888.46 5.781.256.942.526 1.885.928 2.711.395.847.928 1.629 1.498 2.375.855 1.081 1.959 1.951 3.157 2.616a9.6 9.6 0 0 0 3.493 1.111c.315.058.629.087.95.102.315.015.636.058.95.037.636-.022 1.257-.11 1.878-.22 2.478-.482 4.692-1.914 6.417-3.844 1.534-1.717 2.667-3.821 3.544-5.977.555-1.396 1.001-2.836 1.41-4.297l.3-1.096.351-1.089c.233-.731.431-1.462.825-2.163.285-.431.439-.607.505-.57.073.036.08.278.212.731.27.891.54 2.491.116 4.267-.833 3.099-1.973 6.197-3.756 9.025-.899 1.403-1.98 2.733-3.274 3.866-1.278 1.147-2.85 2.01-4.494 2.529-.979.336-2.009.489-3.04.613-1.03.051-2.061.125-3.091.022-2.068-.087-4.209-.804-5.956-1.987a12.5 12.5 0 0 1-4.435-5.255c-.907-2.126-1.404-4.297-1.572-6.54-.197-2.748.183-5.51 1.023-8.104.329-.987.695-1.937 1.243-2.901.307-.512.767-1.031 1.249-1.345a6.3 6.3 0 0 1 1.513-.775c2.061-.723 4.122-.818 6.146-.825 3.142.036 6.204.321 9.251 1.103.665.183 1.33.344 1.995.599 2.427 1.038 2.989 1.966 3.092 2.682.021.176.073.358.051.482-.037.205-.293.19-.716.059a28 28 0 0 1-1.879-.563 48 48 0 0 0-3.756-.964 44 44 0 0 0-3.953-.614c-2.653-.271-5.444-.351-7.9.139-.884.19-1.746.467-2.258.833l-.183.131c-.043.044-.08.088-.131.124-.059.037-.059.081-.095.117-.015.022-.029.03-.051.059l-.066.117c-.19.351-.409.789-.577 1.227a18.4 18.4 0 0 0-1.301 5.657h-.066z"/>
  <path fill="#12111f" d="m202.328 118.253 1.096.219c.131.022.263-.014.402.022.475.11.942.351 1.388.563.197.08.402.139.599.212.256.088.527.161.695.453.051.088-.081.344-.263.614-.183.263-.41.577-.527.621-.226.059-.431.146-.628.139a1.5 1.5 0 0 1-.577-.219c-.242-.139-.519-.066-.79-.088-.299-.029-.606-.073-.928-.095-.197-.015-.394-.037-.592-.029-.299.007-.613-.044-.906.029-.226.066-.438.234-.665.314-.051.022-.095.066-.153.037-.212-.066-.3-.227-.402-.68l-.073-.299a1.53 1.53 0 0 1 .073-.885c.146-.402.343-.54.533-.73.198-.139.424-.183.651-.242.336-.087.694-.043 1.059-.029v.059z"/>
  <path fill="#12111f" d="M194.867 130.771c-1.001 1.286-1.959 2.608-2.609 3.975a7 7 0 0 0-.439 1.469c-.065.212-.043.387-.08.584.029.161 0 .358.066.497.066.315.241.578.511.863.563.533 1.601.95 2.551 1.205.869.234 1.79.293 2.711.256 1.169-.095 2.412-.175 3.668-.102.388.029.337.066.03.204-.315.125-.848.483-1.52.768-2.339.884-5.364 1.227-7.951-.241-.205-.095-.402-.256-.599-.395-.103-.073-.198-.139-.3-.219l-.278-.278-.277-.285c-.081-.11-.147-.226-.22-.343-.065-.117-.146-.234-.204-.351l-.139-.38c-.351-1.038-.227-2.054.015-2.894.577-1.856 1.593-3.296 2.594-4.713.628-.863 1.286-1.689 1.936-2.514.994-1.243 2.017-2.456 2.967-3.683.724-.965 1.338-1.988 1.944-2.953.132-.212.241-.431.358-.643.409-.789.687-.906 1.009-1.081.08-.037.16-.095.233-.125.125-.051.22.022.315.256.051.117.087.271.102.439s.037.387-.007.592c-.285 1.213-.76 2.302-1.323 3.317a33 33 0 0 1-1.929 2.858c-1.038 1.337-2.119 2.623-3.091 3.953l-.044-.029zm.657-29.085c.285.351.621.658.541 1.104-.234 1.227-.848 3.274-2.565 2.864-2.164-.518-12.467-3.843-14.236-6.81-1.768-2.967 13.622-.41 16.26 2.842m18.299 4.02c0 1.68 2.287 1.907 5.167 2.009 2.879.103 11.136-1.724 10.83-2.886-.629-2.426-12.606-3.172-15.588-.643-.438.372-.416 1.015-.409 1.52m-27.96 182.34c.015 1.279-.409 2.602-1.366 3.742-3.442 4.122-10.341 1.608-10.341-3.742 0-3.653 3.23-6.065 6.753-5.59 2.996.402 4.925 2.916 4.947 5.59zm7.148-138.648a6.41 6.41 0 0 0 5.452 2.002c2.039-.234 3.836-1.133 5.364-2.448.482-.417.431-1.25 0-1.681-.483-.482-1.191-.416-1.681 0a5 5 0 0 1-.782.585 10 10 0 0 1-1.03.584 5.3 5.3 0 0 1-.928.358 14 14 0 0 1-.534.147c-.102.022-.197.043-.3.058-.036 0-.299.051-.109.022a5.4 5.4 0 0 1-1.089.036c-.102 0-.197-.014-.3-.021-.124-.015.11.029-.102-.022-.175-.044-.351-.081-.526-.132-.658-.197-1.22-.585-1.761-1.169-.439-.468-1.235-.439-1.681 0-.468.468-.439 1.206 0 1.681zm-1.797-30.81c-1.849.906-2.419 3.113-2.551 4.999-.058.862.11 1.812.724 2.462.782.819 2.126.885 3.032.234 1.659-1.191 2.076-3.646 1.586-5.517-.256-.979-.804-2.141-1.863-2.441-1.155-.321-2.098.526-2.587 1.484-.519 1.03-1.045 2.258-.673 3.427.169.512.461 1.001.885 1.337.606.483 1.227.629 1.987.519.614-.088 1.009-.906.826-1.461-.219-.68-.796-.921-1.461-.826l.153-.029q-.165-.002 0 .007h.08c-.124-.029-.102-.015.059.051-.022.015-.124-.08-.139-.08.066-.022.161.16.044.036-.015-.014-.205-.212-.073-.066.131.147-.037-.073-.051-.087-.095-.132.051-.037.007.051l-.073-.241c.073.051 0 .241.007.044v-.263c0-.183-.073.248.008-.052.021-.065.029-.138.051-.204.036-.139.087-.271.139-.409-.081.204 0-.015.029-.066.044-.103.095-.198.139-.293q.089-.186.19-.372c.029-.051.065-.103.087-.146-.117.109.132-.242 0 0 .022-.022.117-.154.146-.154.015 0-.255.146-.043.044-.234.117-.154.058-.066.044a.6.6 0 0 1-.453-.044c.234.11-.132-.124-.015-.007s-.139-.249 0-.008q.09.154.168.307c.154.271-.044-.146.022.03.029.08.059.153.088.233q.077.233.131.475c.015.066.022.132.037.198.066.307 0-.168 0 .029 0 .146.022.292.022.446 0 .153 0 .299-.022.445 0 .081.015.278 0 .03 0 .087-.037.204-.059.292a5 5 0 0 1-.102.38l-.066.19c-.095.292.073-.132-.014.037-.066.131-.132.263-.205.387-.036.058-.073.109-.109.161.138-.22-.015.014-.059.058-.007.007-.241.183-.102.095s-.11.051-.117.051c.014 0 .263-.08.029-.022-.212.051.007 0 .051 0-.27.022.154.073 0 .015-.073-.029-.263-.102 0 .015-.153-.066.081-.044.066.058-.029-.022-.051-.051-.073-.073-.059-.066-.037-.029.08.102 0 .015-.058-.124-.073-.124.081.007.081.27.022.044-.007-.029-.051-.322-.08-.336.066.036.022.255.014.08q.002-.099-.007-.197c0-.146 0-.293.015-.431q.02-.242.051-.483c-.029.22 0 .03 0-.014.022-.11.036-.22.058-.329.037-.183.073-.358.125-.534.021-.087.051-.175.08-.263.015-.036.139-.343.073-.212-.073.154.058-.117.058-.117q.064-.12.139-.241.046-.077.103-.153c.16-.249-.161.168.043-.051.088-.095.205-.271.329-.322-.219.095-.058.044.015 0q.134-.087.278-.153c.555-.278.752-1.111.423-1.623-.372-.57-1.03-.716-1.622-.423zm19.634 2.924c-1.848.906-2.418 3.113-2.55 4.999-.058.862.11 1.812.723 2.462.782.819 2.127.885 3.033.234 1.659-1.191 2.076-3.646 1.586-5.517-.256-.979-.804-2.141-1.864-2.441-1.154-.321-2.097.526-2.586 1.484-.519 1.03-1.045 2.258-.673 3.427.168.511.461 1.001.884 1.337.607.482 1.228.629 1.988.519.614-.088 1.009-.906.826-1.462-.219-.679-.797-.92-1.462-.825l.154-.03q-.165-.002 0 .008h.08c-.124-.029-.102-.015.059.051-.022.015-.125-.08-.139-.08.066-.022.161.16.044.036-.015-.015-.205-.212-.073-.066.131.146-.037-.073-.052-.087-.095-.132.052-.037.008.051l-.073-.241c.073.051 0 .241.007.043v-.263c0-.182-.073.249.007-.051.022-.066.03-.139.051-.204.037-.139.088-.271.139-.41-.08.205 0-.014.03-.065.043-.103.095-.198.138-.293.059-.124.125-.248.19-.372.03-.052.066-.103.088-.147-.117.11.132-.241 0 0 .022-.021.117-.153.146-.153.015 0-.256.146-.044.044-.233.117-.153.058-.065.044a.6.6 0 0 1-.453-.044c.233.109-.132-.124-.015-.007s-.139-.249 0-.008c.058.103.117.205.168.307.153.271-.044-.146.022.029.029.081.058.154.088.234q.077.232.131.475c.015.066.022.132.037.198.065.306 0-.169 0 .029 0 .146.022.292.022.446 0 .153 0 .299-.022.445 0 .081.014.278 0 .03 0 .087-.037.204-.059.292-.029.131-.066.256-.102.38l-.066.19c-.095.292.073-.132-.014.036a7 7 0 0 1-.205.388 3 3 0 0 1-.11.16c.139-.219-.014.015-.058.059-.007.007-.241.183-.102.095.138-.088-.11.051-.117.051.014 0 .263-.08.029-.022-.212.051.007 0 .051 0-.27.022.153.073 0 .015-.073-.029-.263-.103 0 .014-.153-.065.08-.043.066.059-.029-.022-.051-.051-.073-.073-.059-.066-.037-.029.08.102 0 .015-.058-.124-.073-.124.08.007.08.27.022.044-.007-.03-.051-.322-.08-.336.065.036.021.255.014.08q.002-.1-.007-.197c0-.147 0-.293.014-.432q.02-.24.052-.482c-.03.219 0 .029 0-.014.022-.11.036-.22.058-.329a7 7 0 0 1 .205-.797c.014-.036.139-.343.073-.212-.073.154.058-.117.058-.117q.064-.12.139-.241c.029-.051.066-.102.102-.153.161-.249-.16.168.044-.051.088-.095.205-.271.329-.322-.219.095-.058.044.015 0q.132-.088.277-.153c.556-.278.753-1.111.424-1.623-.372-.57-1.03-.716-1.622-.424zm99.641 75.395c.125-.278.212-.549.249-.797.007-.11.029-.234.014-.402 0-.161-.007-.314-.029-.475a4.7 4.7 0 0 0-.657-1.863c-.709-1.192-1.878-2.222-3.208-2.821a5.5 5.5 0 0 0-1.016-.358 19 19 0 0 0-1.177-.263 23 23 0 0 0-2.462-.307 30 30 0 0 0-5.043.066c-2.462.233-4.889.803-7.264 1.527a46 46 0 0 0-6.138 2.397c-1.973.986-3.932 2.031-5.766 3.281-3.719 2.419-7.161 5.305-10.304 8.484-2.799 2.821-5.356 5.912-7.709 9.084-.738 1.037-1.52 2.039-2.207 3.105-.709 1.053-1.469 2.083-2.171 3.143-1.41 2.126-2.82 4.26-4.224 6.387-.898 1.315-.891 1.081-.445-.212.248-.68.57-1.601.957-2.675.409-1.111 1.045-2.324 1.754-3.632.621-1.162 1.315-2.287 2.002-3.412.672-1.14 1.44-2.215 2.207-3.289l1.147-1.622 1.213-1.579 1.221-1.571 1.286-1.52c3.471-4.019 7.344-7.753 11.729-10.859 5.188-3.742 11.166-7.059 17.641-8.609 3.544-.855 7.22-1.22 10.895-.913.921.088 1.835.205 2.755.395.892.168 1.922.489 2.777.957 1.74.921 3.23 2.331 4.144 4.151.541 1.14.84 2.375.709 3.719-.183 1.374-.855 2.478-1.601 3.406-.76.935-1.659 1.71-2.623 2.367a12 12 0 0 1-3.172 1.55c-.869.255-1.805.431-2.799.328-.489-.051-1.001-.16-1.483-.394a4.1 4.1 0 0 1-1.25-.95c-.701-.716-1.132-1.813-1.11-2.828.007-1.023.328-1.93.73-2.733.811-1.608 1.93-2.916 3.077-4.151 1.155-1.228 2.382-2.361 3.61-3.457 3.749-3.507 8.068-6.496 13.008-8.213 1.088-.366 2.177-.709 3.332-.899 2.141-.373 3.603-.329 4.596-.161.497.102.885.197 1.199.336.307.161.548.336.753.49.19.146.438.285.54.38.344.292-1.403.533-4.238.796-4.231.577-8.375 2.309-12.124 4.758a40 40 0 0 0-2.725 1.98c-.899.709-1.688 1.425-2.602 2.251-1.732 1.571-3.434 3.135-4.75 4.889-.482.643-.921 1.3-1.242 1.943-.307.636-.504 1.279-.49 1.725 0 .226.037.402.117.563s.175.321.365.489c.095.103.161.139.22.183.073.036.146.08.234.117.175.073.402.124.672.139 1.133.058 2.66-.526 3.902-1.345 1.257-.818 2.412-1.958 2.923-3.098l.066.022zM72.31 149.976c1.023 1.483 1.753 3.361 1.688 5.298-.059.957-.242 1.9-.592 2.748-.19.423-.3.811-.68 1.33-.16.255-.343.445-.526.621-.183.182-.365.372-.563.504-1.534 1.155-3.113 1.666-4.691 2.083a23.8 23.8 0 0 1-4.794.701c-2.346.044-4.816.081-7.227-1.279-.264-.139-.534-.38-.79-.592-.255-.263-.504-.533-.694-.913-.41-.731-.416-1.71-.146-2.404.555-1.389 1.476-2.127 2.353-2.763.862-.635 1.907-1.125 2.923-1.498 1.045-.307 2.105-.555 3.172-.599 2.126-.153 4.202.146 6.182.68 1.98.533 3.873 1.293 5.678 2.199 3.194 1.623 6.19 3.654 8.799 6.08 1.68 1.55 3.193 3.311 4.428 5.284.322.482.577 1.008.855 1.52.227.541.468 1.074.643 1.629l.263.841c.073.285.132.577.19.862.08.285.08.585.088.877 0 .3.036.585.022.877-.125 1.469-.22 1.213-.673.102-.11-.277-.314-.592-.511-.95-.241-.343-.446-.738-.687-1.154-.278-.402-.519-.848-.848-1.294-.307-.453-.635-.913-.935-1.432-1.104-1.798-2.55-3.413-4.092-4.911-1.528-1.52-3.238-2.879-5.043-4.092-1.805-1.206-3.72-2.273-5.729-3.099-2.002-.818-4.085-1.469-6.197-1.68-1.257-.132-2.543-.125-3.763.153-1.235.263-2.331.775-3.362 1.52-.49.38-.957.775-1.257 1.184-.139.197-.248.394-.277.541-.052.153-.022.241 0 .35.065.227.453.585.957.841.504.27 1.125.453 1.74.621 1.33.329 2.82.336 4.281.212 1.462-.132 2.93-.395 4.32-.826.686-.226 1.38-.46 1.994-.782.629-.299 1.213-.679 1.608-1.096.102-.102.212-.205.263-.314.066-.117.146-.176.205-.358.11-.315.285-.614.343-.936.066-.321.183-.635.183-.957l.044-.482c0-.161-.022-.322-.037-.483 0-.402-.139-.782-.22-1.176-.167-.373-.277-.767-.51-1.111-.38-.738-.973-1.374-1.572-1.995-1.264-1.198-2.835-2.112-4.465-2.894-2.492-1.154-5.217-1.907-7.987-2.331a40.8 40.8 0 0 0-8.39-.416c-4.348.226-8.55 1.161-12.62 2.491q-.668.222-1.337.432-.658.24-1.337.46c-1.674.548-2.77.943-3.596 1.082-.848.102-1.38.058-1.863-.066-.22-.059-.49-.095-.636-.168-.248-.125-.073-.417.438-.892.52-.46 1.33-1.235 2.573-1.768.453-.22.906-.439 1.366-.665.468-.205.936-.402 1.403-.607.936-.424 1.908-.76 2.887-1.089a66 66 0 0 1 3.003-.877c1.023-.233 2.04-.504 3.084-.679 2.076-.417 4.21-.651 6.358-.789 2.148-.117 4.326-.052 6.496.131 3.223.314 6.453.935 9.559 2.141 1.55.599 3.098 1.279 4.509 2.288 1.417.979 2.762 2.148 3.829 3.661l-.051.051zm-9.603 125.831c1.366-.277 2.864-1.856 3.697-3.515.848-1.703 1.243-3.712.987-5.605a6.2 6.2 0 0 0-.6-1.958c-.277-.621-.686-1.148-1.132-1.644-.79-.87-1.9-1.462-2.872-1.411-.972.037-1.82.775-2.265 1.944-.446 1.147-.592 2.507-.46 3.829.08 1.367.416 2.704.854 4.005.38 1.162.98 2.236 1.615 3.281.687 1.008 1.462 1.958 2.354 2.784 2.301 2.112 5.151 3.523 8.213 4.385.95.314.819.431-.08.577-.906.219-2.638.256-4.516-.453a15.6 15.6 0 0 1-2.397-1.155L65 280.126c-.358-.27-.694-.555-1.045-.833a17.4 17.4 0 0 1-3.456-4.07 17.1 17.1 0 0 1-2.054-4.933l-.255-1.315c-.073-.439-.103-.885-.154-1.33a10.6 10.6 0 0 1 .08-2.763c.183-1.096.498-2.229 1.2-3.281.35-.519.796-1.016 1.373-1.381a4.6 4.6 0 0 1 1.893-.687c1.366-.146 2.608.314 3.624.957 1.001.68 1.871 1.528 2.478 2.551 1.351 2.243 1.614 4.896 1.183 7.322-.467 2.426-1.666 4.735-3.522 6.423a7.4 7.4 0 0 1-2.002 1.323 5.7 5.7 0 0 1-2.441.482c-1.652-.051-3.099-.694-4.363-1.468-1.929-1.199-3.449-2.938-4.56-4.838-1.118-1.907-1.834-3.997-2.258-6.124a23.4 23.4 0 0 1-.453-4.984c.03-1.666.227-3.361.775-5.006.124-.358.234-.723.394-1.074.146-.351.3-.709.505-1.045.723-1.271 1.476-1.958 2.06-2.316.585-.373 1.03-.424 1.447-.329.19.044.41.058.541.139.227.131.168.438-.073.84a4 4 0 0 1-.227.314q-.111.186-.255.395c-.205.256-.41.584-.643.928-1.389 2.083-1.879 4.779-1.871 7.49.044 2.733.49 5.496 1.63 7.951.825 1.82 1.994 3.464 3.478 4.655.73.585 1.571 1.096 2.397 1.403s1.622.402 2.265.234l.022.066zm-31.102-73.34c.483-.109 1.002-.475 1.287-.942.292-.475.365-.943.16-1.593-.153-.461-.482-.914-.825-1.403-1.192-1.732-2.858-3.187-4.926-3.347-.899-.073-1.82.19-2.484.723-.439.344-.753.819-1.009 1.308a3.5 3.5 0 0 0-.395 1.63c.015.351-.197.409-.533.109-.322-.285-.73-1.088-.511-2.024.336-1.622 1.834-2.93 3.42-3.31a6.1 6.1 0 0 1 4.596.665c1.578.942 2.916 2.156 3.939 3.617.555.826 1.067 1.893.965 3.12-.103 1.206-.753 2.237-1.623 2.924a4.36 4.36 0 0 1-1.87.862 4.3 4.3 0 0 1-2.032-.139c-1.937-.614-3.376-2.404-3.347-4.531.036-.869.482-1.695 1.133-2.243.635-.556 1.6-.884 2.535-.68.402.081.79.212 1.104.468.592.468.804.943.862 1.286.03.175 0 .322-.044.446a1 1 0 0 1-.263.329c-.095.08-.182.168-.27.212-.146.073-.3 0-.534-.074-.248-.073-.402-.197-.635-.299a1.55 1.55 0 0 0-.87-.132c-.183.044-.35.168-.504.336-.146.183-.183.351-.168.475 0 .169.095.527.277.819.264.431.658.84 1.119 1.111.467.263.971.336 1.41.212l.022.051zm267.185-99.97c.855.416 1.871.563 2.784.365.461-.102.877-.27 1.279-.548a5.5 5.5 0 0 0 1.133-1.045c.482-.584.804-1.286.884-1.893q.064-.403-.037-.73a1.5 1.5 0 0 0-.336-.629c-.314-.35-.869-.584-1.49-.628a3.94 3.94 0 0 0-1.886.343c-.584.263-1.059.694-1.249 1.162-.417.782.38 2.178 1.308 2.565.299.132.592.154.847.088a1.18 1.18 0 0 0 .658-.461.7.7 0 0 0 .11-.306c.022-.081-.03-.161-.052-.3-.087-.249-.372-.519-.665-.534-.182-.014-.299.015-.343-.043-.037-.052-.015-.22.234-.41.241-.19.745-.328 1.337-.138.292.102.636.277.877.643.241.365.322.928.219 1.373-.19.834-.752 1.433-1.395 1.791a2.9 2.9 0 0 1-1.097.343 3.2 3.2 0 0 1-1.11-.109c-1.396-.41-2.251-1.411-2.785-2.521-.263-.592-.423-1.338-.299-2.083.109-.753.511-1.403.972-1.87.942-.936 2.068-1.33 3.186-1.455a6.4 6.4 0 0 1 2.061.117c.687.168 1.403.504 1.951 1.067s.899 1.3.986 2.075c.095.775-.08 1.491-.329 2.112-.584 1.367-1.505 2.419-2.681 3.237-1.235.826-2.763 1.096-4.151.877a6.5 6.5 0 0 1-4.348-2.616c-.695-1.067-1.221-2.295-1.265-3.625-.058-1.33.432-2.623 1.133-3.675.124-.22.278-.41.439-.592.16-.183.307-.388.475-.563.35-.329.679-.701 1.081-.98.753-.62 1.63-1.073 2.558-1.439.424-.11.818-.314 1.279-.35 1.688-.22 2.272.248 2.433.884.037.153.095.307.095.445 0 .242-.175.417-.438.549a1.7 1.7 0 0 1-.453.146c-.176.044-.373.11-.585.139-1.279.197-2.543.825-3.581 1.651-1.059.826-1.783 1.93-2.046 3.025-.175.826-.022 1.696.417 2.573.219.467.445.818.774 1.14.322.314.716.584 1.148.782l-.022.051zm43.78 115.572c-.124 1.052.168 2.105.789 3.099a5.23 5.23 0 0 0 2.587 2.126c.796.307 1.673.387 2.536.344 1.505-.037 3.098-.782 3.42-1.944.168-.57.022-1.294-.388-1.966a7 7 0 0 0-.716-.972 2.8 2.8 0 0 0-.862-.628 2.87 2.87 0 0 0-1.907-.176 2.24 2.24 0 0 0-1.411 1.133c-.351.701-.175 1.644.278 2.287.49.629 1.081.892 1.878.578.475-.205.723.029.424.694-.066.175-.205.343-.395.519-.182.204-.467.328-.811.453-.709.19-1.681-.095-2.28-.738a4 4 0 0 1-1.045-1.944c-.161-.709-.168-1.476.073-2.222.219-.731.672-1.447 1.272-1.907.57-.504 1.3-.819 2.031-.95 1.476-.263 2.96.241 4.049 1.235.292.278.453.504.65.745.205.227.365.526.541.79.314.577.606 1.198.694 1.929.132.855 0 1.812-.438 2.601-.432.782-1.06 1.374-1.74 1.805-1.359.863-2.923 1.191-4.435 1.118a7.8 7.8 0 0 1-4.619-1.797 7.6 7.6 0 0 1-1.637-1.886c-.431-.694-.796-1.454-.986-2.28-.512-2.024-.059-4.194 1.052-5.868a8.3 8.3 0 0 1 3.376-2.923c1.323-.65 2.792-1.016 4.304-.986a8.6 8.6 0 0 1 3.377.76c1.052.467 1.995 1.096 2.85 1.819.372.322.745.621 1.074.987 1.154 1.395 1.257 2.009.957 2.674-.073.154-.124.322-.205.439-.292.394-1.037.073-1.943-.687a45 45 0 0 0-2.025-1.586 10.4 10.4 0 0 0-2.075-1.14c-1.388-.541-2.74-.65-4.209-.153-1.104.372-2.032.942-2.763 1.753-.701.812-1.183 1.82-1.242 2.872h-.066zm-213.4 43.934c.234.102.285.387.285.702 0 .102-.146.292-.227.292-.182 0-.358-.015-.489-.015-.051 0-.409-.117-.826-.219-.212-.051-.431-.095-.636-.146-.19-.059-.358-.11-.467-.146a8.3 8.3 0 0 1-1.25-.497l-.614-.285-.585-.329-1.176-.643a2 2 0 0 1-.482-.358c-.505-.483-1.097-.819-1.725-1.096-.102-.044-.197-.11-.336-.088-.227.036-1.82-.899-1.995-1.074a11 11 0 0 0-.672-.636 6 6 0 0 1-.673-.636c-.066-.066-.153-.088-.175-.219-.051-.3-.227-.365-.373-.475-.204-.168-.431-.285-.592-.541-.08-.117-.139-.292-.212-.431-.065-.124.081-.285.132-.292.139-.015.102-.161.131-.249.015-.029.03-.073.044-.095.008-.014.117-.022.293-.036.168-.015.409-.066.621-.037.431.022.891.037.972.066.014.022.584.131 1.132.358.548.212 1.126.438 1.25.475.131.037.219.146.314.241.044.044 1.717.665 1.769.724.299.212.657.328.855.716.036.073.109.102.175.139.548.299 1.038.716 1.535 1.103.255.197.54.351.803.526.052.029.081.088.117.132.052.058.095.124.161.161.636.409 1.162.993 1.805 1.388.073.051.241.241.417.446.153.226.321.446.394.504.081.08.22.526.315.563zm-4.297 43.955c.183-.153.424-.102.68.022.08.044.175.241.131.3-.08.124-.161.248-.248.358-.059.058-1.045.899-1.345 1.235a9 9 0 0 1-.95.84c-.672.512-1.388.95-2.068 1.447-.153.11-.321.19-.497.263-.599.241-1.14.585-1.651.972-.088.066-.183.117-.227.234-.073.197-1.491 1.184-1.71 1.264-.577.212-1.081.402-1.622.599-.081.03-.132.103-.249.066-.263-.08-.387.044-.54.124-.227.095-.432.227-.702.264-.132.021-.3 0-.446-.008-.131 0-.219-.212-.204-.263.043-.124-.095-.168-.161-.241a1 1 0 0 1-.066-.08c0-.015.037-.11.095-.256.066-.146.139-.351.249-.519.197-.358.431-.709.489-.76l.811-.753c.395-.394.87-.723.95-.811.088-.088.227-.109.344-.146.051-.022 1.352-1.06 1.417-1.082.307-.16.556-.409.95-.423.081 0 .132-.044.19-.081.497-.314 1.053-.533 1.586-.782.278-.124.526-.285.797-.424.051-.021.109-.029.161-.043.065-.022.138-.03.197-.066.606-.366 1.33-.526 1.958-.862.146-.074.943-.227 1.111-.322.095-.044.497-.015.57-.08zm-.241-7.08c.124-.037.183.124.212.387.007.08-.051.314-.088.343a1.3 1.3 0 0 1-.219.154c-.044.014-.65.109-.855.19a2.8 2.8 0 0 1-.577.102c-.38.037-.76.102-1.133.168a.6.6 0 0 1-.248-.051c-.278-.117-.57-.11-.848-.044-.044.015-.095 0-.139.081-.073.109-.818.233-.921.197-.263-.102-.519-.161-.789-.227-.037-.007-.073.022-.117-.058-.117-.183-.19-.146-.27-.161-.117-.015-.234-.029-.358-.073-.059-.022-.139-.11-.212-.168-.066-.058-.103-.292-.088-.329.029-.088-.037-.19-.066-.285-.007-.029-.022-.073-.029-.102-.015-.044.541-.746.614-.789.007-.03 1.008-.388 1.133-.41.058-.022.131.015.19.037.029 0 .855-.197.891-.183.175.015.351-.051.526.117.037.029.073.022.103.022.299-.015.591.037.884.139.146.044.299.058.446.088.029 0 .051.036.08.051a.3.3 0 0 0 .095.051c.351.066.687.212 1.03.256.081.007.424.255.519.27.051 0 .176.234.227.219zm108.125-26.857c-.161.204-.454.168-.79.029-.109-.044-.27-.285-.241-.365.066-.161.124-.322.197-.468a39 39 0 0 1 1.345-1.564c.314-.373.68-.687 1.045-.987.738-.621 1.542-1.161 2.331-1.717q.264-.184.57-.292c.702-.256 1.33-.629 1.929-1.052.103-.074.22-.125.271-.264.088-.241 1.849-1.191 2.112-1.242.65-.131 1.271-.314 1.907-.46.088-.022.161-.095.292-.022.293.168.453.058.651.007.263-.073.541-.131.826-.153.146 0 .321.073.489.117.146.043.219.372.197.423-.065.147.088.256.154.38.022.044.051.095.058.132.015.073-1.074 1.381-1.205 1.483-.008.03-.505.3-1.016.6-.504.307-1.031.621-1.133.701-.102.081-.248.088-.387.11-.073 0-1.535 1.008-1.608 1.023-.343.131-.628.38-1.059.358-.088 0-.147.037-.212.073-.541.322-1.14.541-1.718.804-.299.131-.562.321-.847.475-.052.029-.117.029-.176.051-.073.022-.146.037-.212.073-.65.395-1.395.665-2.017 1.118-.146.095-.986.366-1.154.483-.095.058-.563.051-.621.146zm58.023-139.598c-.08.095-.211 0-.372-.197-.051-.066-.132-.285-.117-.329.036-.088.066-.168.109-.241.022-.044.556-.417.739-.555.175-.139.365-.227.555-.307.395-.161.789-.336 1.198-.475a.7.7 0 0 1 .285-.044c.337.014.651-.066.958-.176.051-.014.109-.014.153-.087.066-.124.95-.263 1.074-.227.3.095.585.161.87.241.044.015.08-.014.124.066.095.183.176.161.263.176.117.021.241.065.358.124.059.029.117.124.176.197.051.066.022.292 0 .322-.051.073-.008.182 0 .277v.103c-.008.043-.643.555-.702.584-.007.015-.241.059-.482.117-.241.066-.49.124-.541.146s-.109-.014-.168-.036c-.029-.015-.738.204-.76.204-.153 0-.292.059-.468-.073-.036-.029-.065-.014-.095-.014-.255.044-.526.014-.796.022-.139 0-.271.036-.402.058-.022 0-.051-.015-.08-.015-.037 0-.066-.014-.095-.007-.315.066-.651.066-.95.19-.074.022-.454-.014-.534.029-.044.015-.256-.102-.285-.058zm-5.034-46.594c-.022.102-.146.036-.343-.117-.059-.052-.205-.234-.205-.278 0-.08-.015-.154 0-.212 0-.037.263-.387.343-.519a1.5 1.5 0 0 1 .285-.307l.643-.548a.5.5 0 0 1 .169-.095c.219-.073.38-.212.54-.35.03-.023.059-.037.066-.088 0-.088.482-.417.563-.439.197-.051.372-.131.57-.175.029-.007.044-.037.087-.015.11.044.147 0 .198-.029a1.3 1.3 0 0 1 .234-.088.4.4 0 0 1 .16.015c.052 0 .11.11.11.131 0 .052.051.08.088.117.014.015.029.03.036.044.008.022-.182.519-.212.563 0 .022-.445.54-.497.6-.022.036-.065.043-.109.058-.022 0-.373.43-.388.445-.087.066-.153.168-.299.154-.029 0-.044.014-.059.029-.146.132-.321.212-.482.314-.088.051-.153.117-.234.176-.014.007-.036.007-.058.014a.1.1 0 0 0-.066.022c-.175.146-.395.249-.548.424-.037.037-.307.11-.344.154-.021.029-.211-.03-.219.007zm-171.483.051c.132.059.058.234-.146.468-.066.073-.307.227-.366.22a1.6 1.6 0 0 1-.285-.03c-.043-.015-.533-.38-.73-.453a2.4 2.4 0 0 1-.468-.314 6 6 0 0 0-.935-.607.55.55 0 0 1-.183-.16 1.3 1.3 0 0 0-.716-.446c-.044-.015-.088-.044-.154 0-.124.08-.796-.205-.877-.285-.182-.198-.402-.344-.621-.505-.029-.022-.073 0-.087-.095-.037-.197-.125-.19-.198-.226a1.2 1.2 0 0 1-.307-.22c-.051-.05-.095-.145-.146-.226-.044-.073 0-.256.022-.278.059-.058.029-.16.029-.24v-.088c0-.022.198-.14.424-.293.219-.124.461-.204.504-.212.022-.036 1.177.117 1.308.147.074 0 .125.065.176.116.014.008.248.059.489.125.234.073.454.175.468.182.161.11.351.168.431.402.015.044.051.059.088.08.278.169.512.417.731.651.117.117.248.22.365.329.022.022.029.058.044.08.022.037.029.073.058.103.285.263.49.599.768.862.073.058.197.497.27.563.044.036-.022.314.029.336zm61.765 94.839c-.043.037-.752.512-.745.541 0 .015-.051-.007-.124-.051a2 2 0 0 1-.322-.212c-.051-.044-.095-.088-.095-.102 0-.059 0-.117.015-.168a.8.8 0 0 1 .087-.176c.022-.043.081-.073.074-.146-.015-.109.087-.139.073-.248-.015-.11.043-.161.058-.249.022-.117.073-.204.102-.314.008-.037 0-.088.008-.117.022-.036.073-.051.095-.095.029-.051.029-.117.051-.175.036-.081.08-.154.117-.234.014-.022 0-.073.014-.088.022-.029.066-.029.088-.051a.7.7 0 0 0 .073-.124s-.014-.022-.014-.037c-.052-.117-.03-.161 0-.197.058-.073.109-.132.16-.197.03-.073 1.045-.643 1.067-.658l.008-.015c.007-.014.073.037-.015-.102-.029-.051 0-.022.015-.022s.043.037-.015-.051c-.029-.037-.007-.029.015-.015.109.095.219.183.138.037-.022-.044.022 0 .022-.015 0-.08.095-.022.037-.168-.022-.058.058.022.095.037.014 0 .036.022.022 0-.029-.088 0-.095.044-.073.065.036.058-.044.087-.073.022-.022.044-.052.073-.066.037-.022.095-.022.117-.066.008-.015 0-.051.008-.058.029-.022.044-.081.073-.103.014-.014.058.015.073 0 .102-.029.19-.051.277-.08.037-.015.044-.059.096-.051.073.014.138.007.168-.059.021-.044.109.015.16.022.059.008.117.007.168.007.044 0 .212.3.366.6.073.153.153.299.204.409.052.11.088.19.081.19-.066 0-.373.599-.417.643-.065.044-.139.073-.204.124-.044.037-.066.103-.11.132s-.117.036-.153.073c-.03.036-.03.109-.044.161 0 .007-.015 0-.022 0h-.029c0 .014-.008.029-.008.043v.022s.022.044.015.037c-.095-.073-.11-.044-.117-.015 0 .008-.022 0-.022 0 0 .095.029.234-.095.183-.022-.007-.044-.015 0 .058q.033.058 0 .037c-.11-.073-.029.073-.073.073s-.029.073-.088.059c-.058-.008-.029.08-.065.087-.037.015-.139.161-.176.19-.029.022-.066.037-.088.059-.058.058-.124.109-.175.175a2 2 0 0 1-.234.205c-.029.022-.292.087-.533.19-.241.095-.475.212-.483.241zm13.373 11.415c0 .044-.3.651-.285.665 0 .008-.066.015-.183.022a3 3 0 0 1-.526 0c-.095 0-.175-.014-.19-.029a.23.23 0 0 1-.095-.117c-.022-.051-.015-.102-.022-.146 0-.044.037-.08-.015-.124-.08-.066 0-.124-.08-.19s-.058-.124-.095-.183c-.051-.08-.058-.161-.095-.241-.007-.029-.058-.051-.066-.08 0-.037.037-.066.03-.095 0-.044-.044-.088-.052-.132-.014-.066-.014-.131-.029-.197 0-.022-.044-.044-.044-.059 0-.022.044-.044.044-.065 0-.037 0-.074-.014-.11 0 0-.022-.007-.037-.015-.117-.051-.117-.087-.11-.124.008-.066 0-.131-.007-.197-.022-.059.439-.855.431-.877v-.015c0-.014.073-.014-.073-.051-.051-.015-.014-.015 0-.022.007 0 .059 0-.044-.029-.044-.015-.022-.015 0-.015.139 0 .271.015.125-.044-.044-.014.021-.014 0-.021-.052-.044.058-.059-.074-.117-.043-.022.059-.015.088-.022.015 0 .037 0 .022-.015-.073-.036-.058-.051-.007-.066.073-.014.022-.051.029-.08 0-.022 0-.051.007-.073.015-.029.044-.059.037-.095 0-.015-.037-.029-.029-.044 0-.029-.022-.066-.022-.095 0-.015.044-.022.051-.029a.7.7 0 0 1 .161-.168c.022-.022.014-.051.058-.066.066-.029.117-.059.117-.102 0-.037.095-.037.132-.059a.6.6 0 0 0 .131-.073c.037-.022.263.051.49.132.226.08.453.175.453.175-.008.015.036.161.109.314l.11.212c.015.059.029.095.022.11a1.4 1.4 0 0 0-.059.182c0 .044.015.095.015.139s-.044.081-.036.125c0 .036.051.08.08.124 0 0 0 .007-.015.014 0 0-.014.008-.014.015s.014.022.022.037c0 0 0 .007.014.014 0 0 .044.015.029.015-.109 0-.102.022-.08.051 0 0-.015 0-.007.015.058.065.175.131.058.16-.022 0-.036.015.037.037q.066.022.022.022c-.125 0 .029.058 0 .08-.022.022.029.059-.015.081-.044.021.037.065.015.087-.022.029.014.168.014.205 0 .029-.022.051-.022.08-.007.066-.029.124-.036.19-.007.081 0 .161-.022.241-.022.052-.512.68-.482.731zm11.648-5.904c.029.044-.007.76.015.767a.8.8 0 0 1-.168.11c-.169.095-.38.212-.519.27-.095.037-.183.073-.198.073a.3.3 0 0 1-.146-.051c-.044-.036-.066-.08-.095-.117-.022-.036 0-.087-.08-.102-.117-.015-.059-.11-.176-.124-.116-.008-.116-.073-.19-.11-.095-.044-.138-.11-.219-.161-.022-.014-.087-.014-.109-.036-.022-.029 0-.073-.022-.103-.03-.036-.088-.051-.125-.08-.051-.044-.087-.102-.131-.146-.015-.015-.066-.007-.073-.029s.022-.059.007-.088c-.014-.037-.044-.058-.073-.088 0 0-.029 0-.044.008-.146.022-.168 0-.175-.037a.8.8 0 0 0-.117-.161c-.007-.022-.088-.234-.088-.475-.007-.234-.014-.467-.029-.482v-.007c-.015-.008.073-.051-.11 0-.065.022-.022 0-.014-.015.007-.007.058-.036-.059 0-.058.015-.036 0 0-.015.154-.08.307-.16.11-.109-.059.014.015-.022 0-.022-.088 0 .022-.08-.154-.051-.065.014.052-.044.088-.073.015-.008.037-.022.015-.022-.11.014-.103 0-.051-.044.065-.051-.015-.051-.037-.073-.015-.022-.044-.037-.051-.059-.015-.029.022-.08-.015-.102-.007-.007-.058 0-.058-.015-.007-.029-.059-.043-.073-.065 0-.015.044-.044.044-.059a2 2 0 0 0 .051-.234c0-.029-.037-.043-.008-.08.052-.058.074-.117.022-.146-.036-.022.066-.088.095-.132a1 1 0 0 0 .081-.139c.022-.036.387-.146.752-.248.366-.102.731-.19.731-.19-.029.051.548.358.578.395.021.058.036.124.065.182.03.037.066.073.081.11.014.044-.008.102.022.139.022.029.102.036.153.058.007 0 0 .015 0 .022s-.015.022-.007.022c.007 0 .029.007.044.015h.022c.007 0 .058-.015.043 0-.124.073-.102.087-.065.095.007 0-.015.014 0 .014.102.015.27.008.153.103-.022.022-.029.029.066 0 .051-.015.066-.015.036 0-.131.08.059.036.044.073-.014.036.059.036.022.08-.044.051.073.037.066.073 0 .029.088.146.095.19.007.029 0 .066 0 .095q.024.1.058.197c.03.081.073.147.095.227 0 .058-.197.906-.138.943zm-19 17.245c-2.017-.526-3.947-1.359-5.737-2.404-.65-.38-1.315-.745-1.922-1.206-2.141-1.586-3.946-3.624-5.218-5.941a23 23 0 0 1-1.461-3.179c-.49-1.388-.935-2.894-.534-4.399.103-.46.125-.395.351-.029.117.182.3.431.534.723.204.292.38.629.497 1.001.043.168.124.329.175.49l.139.497c.08.336.219.65.321.972q.35.966.819 1.878c.614 1.228 1.374 2.375 2.214 3.5 1.001 1.359 2.419 2.456 3.866 3.391 1.593 1.038 3.332 1.893 5.166 2.47 1.126.365 2.295.614 3.472.782 1.783.234 3.617.27 5.385 0 1.381-.205 2.675-.665 3.946-1.155.285-.095.549-.234.834-.336 1.037-.416 1.476-.321 1.856-.102.087.051.197.095.255.153.212.176-.095.629-.789 1.243-2.221 1.512-5.071 2.214-7.907 2.36-2.112.088-4.238-.175-6.284-.672v-.051z"/>
</svg>
