<svg width="24" height="24" viewBox="0 0 24 24" fill="none" xmlns="http://www.w3.org/2000/svg">
<path d="M16.7116 4.33001C17.3114 4.69941 17.8658 5.13772 18.3636 5.63602C18.8736 6.14602 19.3076 6.70002 19.6696 7.28802M16.7116 4.33001L13.2636 8.46802M16.7116 4.33001C15.2937 3.46056 13.6629 3.00037 11.9996 3.00037C10.3364 3.00037 8.70556 3.46056 7.28765 4.33001M19.6696 7.28802L15.5316 10.736M19.6696 7.28802C20.5391 8.70593 20.9993 10.3368 20.9993 12C20.9993 13.6633 20.5391 15.2941 19.6696 16.712M13.2636 8.46802C13.7859 8.65472 14.26 8.95532 14.6516 9.34801C15.0444 9.73963 15.345 10.2138 15.5316 10.736M13.2636 8.46802C12.4462 8.17666 11.5531 8.17666 10.7356 8.46802M7.28765 4.33001L10.7356 8.46802M7.28765 4.33001C6.6879 4.69938 6.13346 5.1377 5.63565 5.63602C5.13734 6.13383 4.69902 6.68827 4.32965 7.28802M15.5316 10.736C15.823 11.5535 15.823 12.4465 15.5316 13.264M19.6696 16.712L15.5316 13.264M19.6696 16.712C19.3003 17.3117 18.8619 17.8662 18.3636 18.364C17.8536 18.874 17.2996 19.308 16.7116 19.67M15.5316 13.264C15.3506 13.77 15.0566 14.246 14.6516 14.652C14.26 15.0447 13.7859 15.3453 13.2636 15.532M10.7356 8.46802C10.2134 8.65469 9.73926 8.95529 9.34765 9.34801C8.94265 9.75401 8.64865 10.23 8.46765 10.736M13.2636 15.532L16.7116 19.67M13.2636 15.532C12.4462 15.8234 11.5531 15.8234 10.7356 15.532M16.7116 19.67C15.2937 20.5395 13.6629 20.9997 11.9996 20.9997C10.3364 20.9997 8.70556 20.5395 7.28765 19.67M7.28765 19.67L10.7356 15.532M7.28765 19.67C6.6879 19.3006 6.13346 18.8623 5.63565 18.364C5.13735 17.8662 4.69904 17.3117 4.32965 16.712M10.7356 15.532C10.2134 15.3453 9.73926 15.0447 9.34765 14.652C8.95495 14.2604 8.65435 13.7862 8.46765 13.264M8.46765 13.264L4.32965 16.712M8.46765 13.264C8.17629 12.4465 8.17629 11.5535 8.46765 10.736M4.32965 16.712C3.46019 15.2941 3 13.6633 3 12C3 10.3368 3.46019 8.70593 4.32965 7.28802M4.32965 7.28802L8.46765 10.736" stroke="#44403C" stroke-width="1.5" stroke-linecap="round" stroke-linejoin="round"/>
</svg>
