<svg width="24" height="24" viewBox="0 0 24 24" fill="none" xmlns="http://www.w3.org/2000/svg">
<path d="M15.2282 16.852L14.3052 16.469" stroke="#12111F" stroke-width="1.5" stroke-linecap="round" stroke-linejoin="round"/>
<path d="M15.2282 19.1479L14.3052 19.5309" stroke="#12111F" stroke-width="1.5" stroke-linecap="round" stroke-linejoin="round"/>
<path d="M16 2V6" stroke="#12111F" stroke-width="1.5" stroke-linecap="round" stroke-linejoin="round"/>
<path d="M16.4702 14.3049L16.8522 15.2279" stroke="#12111F" stroke-width="1.5" stroke-linecap="round" stroke-linejoin="round"/>
<path d="M16.8522 20.772L16.4692 21.696" stroke="#12111F" stroke-width="1.5" stroke-linecap="round" stroke-linejoin="round"/>
<path d="M19.1479 15.2279L19.5309 14.3049" stroke="#12111F" stroke-width="1.5" stroke-linecap="round" stroke-linejoin="round"/>
<path d="M19.5299 21.696L19.1479 20.772" stroke="#12111F" stroke-width="1.5" stroke-linecap="round" stroke-linejoin="round"/>
<path d="M20.772 16.852L21.696 16.469" stroke="#12111F" stroke-width="1.5" stroke-linecap="round" stroke-linejoin="round"/>
<path d="M20.772 19.1479L21.696 19.5309" stroke="#12111F" stroke-width="1.5" stroke-linecap="round" stroke-linejoin="round"/>
<path d="M21 10.592V6C21 5.46957 20.7893 4.96086 20.4142 4.58579C20.0391 4.21071 19.5304 4 19 4H5C4.46957 4 3.96086 4.21071 3.58579 4.58579C3.21071 4.96086 3 5.46957 3 6V20C3 20.5304 3.21071 21.0391 3.58579 21.4142C3.96086 21.7893 4.46957 22 5 22H11" stroke="#12111F" stroke-width="1.5" stroke-linecap="round" stroke-linejoin="round"/>
<path d="M3 10H21" stroke="#12111F" stroke-width="1.5" stroke-linecap="round" stroke-linejoin="round"/>
<path d="M8 2V6" stroke="#12111F" stroke-width="1.5" stroke-linecap="round" stroke-linejoin="round"/>
<path d="M18 21C19.6569 21 21 19.6569 21 18C21 16.3431 19.6569 15 18 15C16.3431 15 15 16.3431 15 18C15 19.6569 16.3431 21 18 21Z" stroke="#12111F" stroke-width="1.5" stroke-linecap="round" stroke-linejoin="round"/>
</svg>
