<svg width="24" height="24" viewBox="0 0 24 24" fill="none" xmlns="http://www.w3.org/2000/svg">
<path d="M9.6713 4.13603C9.7264 3.55637 9.99564 3.01807 10.4264 2.62631C10.8572 2.23454 11.4185 2.01746 12.0008 2.01746C12.5831 2.01746 13.1444 2.23454 13.5752 2.62631C14.006 3.01807 14.2752 3.55637 14.3303 4.13603C14.3634 4.51048 14.4863 4.87145 14.6884 5.18837C14.8906 5.50529 15.1662 5.76884 15.4918 5.95671C15.8174 6.14457 16.1834 6.25123 16.559 6.26765C16.9346 6.28407 17.3085 6.20977 17.6493 6.05103C18.1784 5.81081 18.778 5.77605 19.3313 5.95352C19.8846 6.13098 20.3521 6.50798 20.6428 7.01113C20.9335 7.51429 21.0266 8.1076 20.9039 8.6756C20.7813 9.2436 20.4517 9.74565 19.9793 10.084C19.6717 10.2999 19.4206 10.5866 19.2472 10.9201C19.0739 11.2535 18.9833 11.6237 18.9833 11.9995C18.9833 12.3753 19.0739 12.7456 19.2472 13.079C19.4206 13.4124 19.6717 13.6992 19.9793 13.915C20.4517 14.2534 20.7813 14.7555 20.9039 15.3235C21.0266 15.8915 20.9335 16.4848 20.6428 16.9879C20.3521 17.4911 19.8846 17.8681 19.3313 18.0455C18.778 18.223 18.1784 18.1883 17.6493 17.948C17.3085 17.7893 16.9346 17.715 16.559 17.7314C16.1834 17.7478 15.8174 17.8545 15.4918 18.0424C15.1662 18.2302 14.8906 18.4938 14.6884 18.8107C14.4863 19.1276 14.3634 19.4886 14.3303 19.863C14.2752 20.4427 14.006 20.981 13.5752 21.3727C13.1444 21.7645 12.5831 21.9816 12.0008 21.9816C11.4185 21.9816 10.8572 21.7645 10.4264 21.3727C9.99564 20.981 9.7264 20.4427 9.6713 19.863C9.63825 19.4884 9.5154 19.1273 9.31317 18.8103C9.11094 18.4933 8.83528 18.2296 8.50954 18.0418C8.1838 17.8539 7.81757 17.7472 7.44188 17.7309C7.06619 17.7146 6.69211 17.7891 6.3513 17.948C5.82219 18.1883 5.22263 18.223 4.6693 18.0455C4.11598 17.8681 3.64848 17.4911 3.35779 16.9879C3.0671 16.4848 2.97402 15.8915 3.09666 15.3235C3.21931 14.7555 3.54891 14.2534 4.0213 13.915C4.32892 13.6992 4.58003 13.4124 4.75339 13.079C4.92675 12.7456 5.01726 12.3753 5.01726 11.9995C5.01726 11.6237 4.92675 11.2535 4.75339 10.9201C4.58003 10.5866 4.32892 10.2999 4.0213 10.084C3.54957 9.74547 3.22055 9.24362 3.09821 8.67601C2.97586 8.1084 3.06891 7.51557 3.35929 7.01274C3.64966 6.50991 4.11662 6.13301 4.66939 5.95527C5.22217 5.77753 5.82129 5.81166 6.3503 6.05103C6.69106 6.20977 7.06505 6.28407 7.44061 6.26765C7.81616 6.25123 8.18224 6.14457 8.50784 5.95671C8.83345 5.76884 9.109 5.50529 9.31117 5.18837C9.51334 4.87145 9.63619 4.51048 9.6693 4.13603" stroke="#44403C" stroke-width="1.5" stroke-linecap="round" stroke-linejoin="round"/>
<path d="M12 15C13.6569 15 15 13.6569 15 12C15 10.3431 13.6569 9 12 9C10.3431 9 9 10.3431 9 12C9 13.6569 10.3431 15 12 15Z" stroke="#44403C" stroke-width="1.5" stroke-linecap="round" stroke-linejoin="round"/>
</svg>
