<svg width="18" height="18" viewBox="0 0 18 18" fill="none" xmlns="http://www.w3.org/2000/svg">
<g clip-path="url(#clip0_605_43942)">
<path d="M1.9395 13.0609C1.65818 13.3421 1.50008 13.7236 1.5 14.1214V15.7504C1.5 15.9493 1.57902 16.14 1.71967 16.2807C1.86032 16.4213 2.05109 16.5004 2.25 16.5004H4.5C4.69891 16.5004 4.88968 16.4213 5.03033 16.2807C5.17098 16.14 5.25 15.9493 5.25 15.7504V15.0004C5.25 14.8015 5.32902 14.6107 5.46967 14.47C5.61032 14.3294 5.80109 14.2504 6 14.2504H6.75C6.94891 14.2504 7.13968 14.1713 7.28033 14.0307C7.42098 13.89 7.5 13.6993 7.5 13.5004V12.7504C7.5 12.5515 7.57902 12.3607 7.71967 12.22C7.86032 12.0794 8.05109 12.0004 8.25 12.0004H8.379C8.77679 12.0003 9.15826 11.8422 9.4395 11.5609L10.05 10.9504C11.0924 11.3135 12.2271 11.3121 13.2686 10.9464C14.3101 10.5808 15.1967 9.87249 15.7833 8.93746C16.3699 8.00243 16.6218 6.89599 16.4978 5.79917C16.3739 4.70234 15.8813 3.68005 15.1008 2.89954C14.3203 2.11903 13.298 1.6265 12.2012 1.50253C11.1044 1.37856 9.99794 1.63049 9.06291 2.2171C8.12787 2.8037 7.41959 3.69027 7.05394 4.73175C6.68828 5.77324 6.68689 6.90799 7.05 7.95036L1.9395 13.0609Z" stroke="#44403C" stroke-width="1.5" stroke-linecap="round" stroke-linejoin="round"/>
<path d="M12.375 6C12.5821 6 12.75 5.83211 12.75 5.625C12.75 5.41789 12.5821 5.25 12.375 5.25C12.1679 5.25 12 5.41789 12 5.625C12 5.83211 12.1679 6 12.375 6Z" fill="#44403C" stroke="#44403C" stroke-width="1.5" stroke-linecap="round" stroke-linejoin="round"/>
</g>
<defs>
<clipPath id="clip0_605_43942">
<rect width="18" height="18" fill="white"/>
</clipPath>
</defs>
</svg>
