<svg width="24" height="24" viewBox="0 0 24 24" fill="none" xmlns="http://www.w3.org/2000/svg">
<path d="M17 18.9999C17 19.5304 16.7893 20.0391 16.4142 20.4142C16.0391 20.7892 15.5304 20.9999 15 20.9999H4C3.46957 20.9999 2.96086 20.7892 2.58579 20.4142C2.21071 20.0391 2 19.5304 2 18.9999V10.9999C2.00001 10.6489 2.09243 10.304 2.26796 9.99997C2.4435 9.69594 2.69597 9.44348 3 9.26794" stroke="black" stroke-width="1.5" stroke-linecap="round" stroke-linejoin="round"/>
<path d="M22 5.5L15.581 9.679C15.2585 9.88617 14.8833 9.99631 14.5 9.99631C14.1167 9.99631 13.7415 9.88617 13.419 9.679L7 5.5" stroke="black" stroke-width="1.5" stroke-linecap="round" stroke-linejoin="round"/>
<path d="M20 3H9C7.89543 3 7 3.89543 7 5V13C7 14.1046 7.89543 15 9 15H20C21.1046 15 22 14.1046 22 13V5C22 3.89543 21.1046 3 20 3Z" stroke="black" stroke-width="1.5" stroke-linecap="round" stroke-linejoin="round"/>
</svg>
