<svg width="24" height="24" viewBox="0 0 24 24" fill="none" xmlns="http://www.w3.org/2000/svg">
<path d="M4 2V22L6 21L8 22L10 21L12 22L14 21L16 22L18 21L20 22V2L18 3L16 2L14 3L12 2L10 3L8 2L6 3L4 2Z" stroke="#44403C" stroke-width="1.5" stroke-linecap="round" stroke-linejoin="round"/>
<path d="M8 12H13" stroke="#44403C" stroke-width="1.5" stroke-linecap="round" stroke-linejoin="round"/>
<path d="M15.9997 9.49998C15.4682 8.87861 14.7591 8.43505 13.9678 8.22903C13.1765 8.02301 12.3411 8.06443 11.5741 8.34771C10.8071 8.631 10.1453 9.14253 9.67794 9.81342C9.21054 10.4843 8.95996 11.2823 8.95996 12.1C8.95996 12.9176 9.21054 13.7156 9.67794 14.3865C10.1453 15.0574 10.8071 15.569 11.5741 15.8522C12.3411 16.1355 13.1765 16.1769 13.9678 15.9709C14.7591 15.7649 15.4682 15.3213 15.9997 14.7" stroke="#44403C" stroke-width="1.5" stroke-linecap="round" stroke-linejoin="round"/>
</svg>
