<svg width="24" height="24" viewBox="0 0 24 24" fill="none" xmlns="http://www.w3.org/2000/svg">
<path d="M14 9.536V7C14 5.93913 14.4214 4.92172 15.1716 4.17157C15.9217 3.42143 16.9391 3 18 3H19.5C19.6326 3 19.7598 3.05268 19.8536 3.14645C19.9473 3.24021 20 3.36739 20 3.5V5C20 6.06087 19.5786 7.07828 18.8284 7.82843C18.0783 8.57857 17.0609 9 16 9C14.9391 9 13.9217 9.42143 13.1716 10.1716C12.4214 10.9217 12 11.9391 12 13C12 15 13 16 13 18C13 19.0819 12.6491 20.1345 12 21" stroke="#44403C" stroke-width="1.5" stroke-linecap="round" stroke-linejoin="round"/>
<path d="M4 9C4.74285 8.44287 5.62616 8.1036 6.55097 8.02021C7.47578 7.93682 8.40554 8.1126 9.23607 8.52787C10.0666 8.94313 10.7651 9.58147 11.2533 10.3713C11.7414 11.1612 12 12.0714 12 13C11.2572 13.5571 10.3738 13.8964 9.44903 13.9798C8.52422 14.0632 7.59446 13.8874 6.76393 13.4721C5.9334 13.0569 5.23492 12.4185 4.74675 11.6287C4.25857 10.8388 4 9.92856 4 9Z" stroke="#44403C" stroke-width="1.5" stroke-linecap="round" stroke-linejoin="round"/>
<path d="M5 21H19" stroke="#44403C" stroke-width="1.5" stroke-linecap="round" stroke-linejoin="round"/>
</svg>
