<svg width="24" height="24" viewBox="0 0 24 24" fill="none" xmlns="http://www.w3.org/2000/svg">
<path d="M16.7121 4.32989C17.3119 4.69928 17.8663 5.1376 18.3641 5.63589C18.8741 6.14589 19.3081 6.69989 19.6701 7.28789M16.7121 4.32989L13.2641 8.46789M16.7121 4.32989C15.2942 3.46044 13.6634 3.00024 12.0001 3.00024C10.3369 3.00024 8.70605 3.46044 7.28814 4.32989M19.6701 7.28789L15.5321 10.7359M19.6701 7.28789C20.5396 8.70581 20.9998 10.3366 20.9998 11.9999C20.9998 13.6632 20.5396 15.294 19.6701 16.7119M13.2641 8.46789C13.7864 8.6546 14.2605 8.9552 14.6521 9.34789C15.0449 9.73951 15.3455 10.2136 15.5321 10.7359M13.2641 8.46789C12.4467 8.17654 11.5536 8.17654 10.7361 8.46789M7.28814 4.32989L10.7361 8.46789M7.28814 4.32989C6.68839 4.69926 6.13395 5.13758 5.63614 5.63589C5.13783 6.13371 4.69951 6.68815 4.33014 7.28789M15.5321 10.7359C15.8235 11.5534 15.8235 12.4464 15.5321 13.2639M19.6701 16.7119L15.5321 13.2639M19.6701 16.7119C19.3007 17.3116 18.8624 17.8661 18.3641 18.3639C17.8541 18.8739 17.3001 19.3079 16.7121 19.6699M15.5321 13.2639C15.3511 13.7699 15.0571 14.2459 14.6521 14.6519C14.2605 15.0446 13.7864 15.3452 13.2641 15.5319M10.7361 8.46789C10.2139 8.65457 9.73975 8.95517 9.34814 9.34789C8.94314 9.75389 8.64914 10.2299 8.46814 10.7359M13.2641 15.5319L16.7121 19.6699M13.2641 15.5319C12.4467 15.8233 11.5536 15.8233 10.7361 15.5319M16.7121 19.6699C15.2942 20.5393 13.6634 20.9995 12.0001 20.9995C10.3369 20.9995 8.70605 20.5393 7.28814 19.6699M7.28814 19.6699L10.7361 15.5319M7.28814 19.6699C6.68839 19.3005 6.13395 18.8622 5.63614 18.3639C5.13784 17.8661 4.69953 17.3116 4.33014 16.7119M10.7361 15.5319C10.2139 15.3452 9.73975 15.0446 9.34814 14.6519C8.95544 14.2603 8.65484 13.7861 8.46814 13.2639M8.46814 13.2639L4.33014 16.7119M8.46814 13.2639C8.17678 12.4464 8.17678 11.5534 8.46814 10.7359M4.33014 16.7119C3.46068 15.294 3.00049 13.6632 3.00049 11.9999C3.00049 10.3366 3.46068 8.70581 4.33014 7.28789M4.33014 7.28789L8.46814 10.7359" stroke="#12111F" stroke-width="1.5" stroke-linecap="round" stroke-linejoin="round"/>
</svg>
