<svg width="24" height="24" viewBox="0 0 24 24" fill="none" xmlns="http://www.w3.org/2000/svg">
<path d="M10.7329 5.07599C13.0623 4.7984 15.4185 5.29081 17.4418 6.47804C19.465 7.66527 21.0441 9.48207 21.9379 11.651C22.0213 11.8755 22.0213 12.1225 21.9379 12.347C21.5704 13.238 21.0847 14.0755 20.4939 14.837" stroke="#12111F" stroke-width="1.5" stroke-linecap="round" stroke-linejoin="round"/>
<path d="M14.0841 14.158C13.5183 14.7045 12.7605 15.0069 11.9739 15C11.1873 14.9932 10.4349 14.6777 9.87868 14.1215C9.32245 13.5652 9.00695 12.8128 9.00011 12.0262C8.99328 11.2396 9.29566 10.4818 9.84214 9.91602" stroke="#12111F" stroke-width="1.5" stroke-linecap="round" stroke-linejoin="round"/>
<path d="M17.479 17.499C16.1525 18.2848 14.6725 18.7761 13.1394 18.9394C11.6063 19.1028 10.056 18.9345 8.59365 18.4459C7.13133 17.9573 5.79121 17.1599 4.66423 16.1078C3.53725 15.0556 2.64977 13.7734 2.06202 12.348C1.97868 12.1235 1.97868 11.8765 2.06202 11.652C2.94865 9.50189 4.50869 7.69728 6.50802 6.50903" stroke="#12111F" stroke-width="1.5" stroke-linecap="round" stroke-linejoin="round"/>
<path d="M2 2L22 22" stroke="#12111F" stroke-width="1.5" stroke-linecap="round" stroke-linejoin="round"/>
</svg>
