<svg width="24" height="24" viewBox="0 0 24 24" fill="none" xmlns="http://www.w3.org/2000/svg">
<path d="M10.0001 20C10 20.1858 10.0517 20.368 10.1494 20.5261C10.2471 20.6842 10.3869 20.8119 10.5531 20.895L12.5531 21.895C12.7056 21.9712 12.8751 22.0072 13.0454 21.9994C13.2157 21.9917 13.3812 21.9406 13.5262 21.8509C13.6711 21.7613 13.7908 21.636 13.8737 21.4871C13.9567 21.3381 14.0002 21.1705 14.0001 21V14C14.0004 13.5044 14.1846 13.0265 14.5171 12.659L21.7401 4.67C21.8696 4.52656 21.9547 4.34868 21.9852 4.15788C22.0157 3.96708 21.9903 3.77153 21.912 3.59487C21.8338 3.41822 21.706 3.26802 21.5441 3.16245C21.3823 3.05688 21.1934 3.00046 21.0001 3H3.00013C2.80673 3.00007 2.61751 3.05622 2.45538 3.16164C2.29324 3.26706 2.16516 3.41723 2.08663 3.59396C2.00811 3.7707 1.98251 3.96641 2.01295 4.15739C2.04339 4.34837 2.12855 4.52643 2.25813 4.67L9.48313 12.659C9.81566 13.0265 9.9999 13.5044 10.0001 14V20Z" stroke="#12111F" stroke-width="1.5" stroke-linecap="round" stroke-linejoin="round"/>
</svg>
