<svg width="24" height="24" viewBox="0 0 24 24" fill="none" xmlns="http://www.w3.org/2000/svg">
<path d="M17 19.0001C17 19.5305 16.7893 20.0392 16.4142 20.4143C16.0391 20.7894 15.5304 21.0001 15 21.0001H4C3.46957 21.0001 2.96086 20.7894 2.58579 20.4143C2.21071 20.0392 2 19.5305 2 19.0001V11.0001C2.00001 10.649 2.09243 10.3041 2.26796 10.0001C2.4435 9.69607 2.69597 9.4436 3 9.26807" stroke="#12111F" stroke-width="1.5" stroke-linecap="round" stroke-linejoin="round"/>
<path d="M22 5.5L15.581 9.679C15.2585 9.88617 14.8833 9.99631 14.5 9.99631C14.1167 9.99631 13.7415 9.88617 13.419 9.679L7 5.5" stroke="#12111F" stroke-width="1.5" stroke-linecap="round" stroke-linejoin="round"/>
<path d="M20 3H9C7.89543 3 7 3.89543 7 5V13C7 14.1046 7.89543 15 9 15H20C21.1046 15 22 14.1046 22 13V5C22 3.89543 21.1046 3 20 3Z" stroke="#12111F" stroke-width="1.5" stroke-linecap="round" stroke-linejoin="round"/>
</svg>
