<svg width="24" height="24" viewBox="0 0 24 24" fill="none" xmlns="http://www.w3.org/2000/svg">
<path d="M20.6502 14.863C20.5433 14.7956 20.421 14.7562 20.2948 14.7487C20.1686 14.7412 20.0426 14.7657 19.9283 14.8199C19.6426 14.9551 19.3272 15.0158 19.0117 14.9964C18.6962 14.977 18.3907 14.8781 18.1236 14.709C17.8565 14.5399 17.6365 14.3059 17.4841 14.029C17.3317 13.752 17.2517 13.441 17.2517 13.1249C17.2517 12.8088 17.3317 12.4978 17.4841 12.2208C17.6365 11.9439 17.8565 11.7099 18.1236 11.5408C18.3907 11.3717 18.6962 11.2728 19.0117 11.2534C19.3272 11.234 19.6426 11.2947 19.9283 11.4299C20.0427 11.4842 20.1689 11.5086 20.2952 11.501C20.4215 11.4933 20.5439 11.4538 20.6508 11.3862C20.7578 11.3185 20.8459 11.2249 20.9069 11.114C20.968 11.0032 20.9999 10.8786 20.9999 10.7521V6.7499C20.9999 6.35207 20.8419 5.97054 20.5606 5.68923C20.2793 5.40793 19.8977 5.24989 19.4999 5.24989H16.1043C16.1182 5.12539 16.1251 5.00018 16.1249 4.87489C16.1242 4.41395 16.0294 3.958 15.8463 3.53499C15.6631 3.11198 15.3956 2.73083 15.0599 2.4149C14.5952 1.97841 14.0163 1.68249 13.3903 1.56141C12.7643 1.44034 12.1168 1.49905 11.5228 1.73076C10.9289 1.96247 10.4127 2.3577 10.034 2.87067C9.65536 3.38364 9.42977 3.99338 9.38334 4.62927C9.36894 4.83612 9.37333 5.04384 9.39647 5.24989H5.99991C5.60208 5.24989 5.22055 5.40793 4.93925 5.68923C4.65794 5.97054 4.49991 6.35207 4.49991 6.7499V9.77052C4.3754 9.75656 4.2502 9.74968 4.12491 9.7499C3.66397 9.75064 3.20804 9.84548 2.78504 10.0286C2.36204 10.2117 1.98088 10.4793 1.66491 10.8149C1.34667 11.1511 1.10163 11.5496 0.945264 11.9853C0.788899 12.421 0.724614 12.8843 0.75647 13.3461C0.810215 14.1593 1.15573 14.9257 1.72947 15.5045C2.30322 16.0832 3.06662 16.4354 3.87928 16.4961C4.08612 16.511 4.29389 16.5066 4.49991 16.483V19.4999C4.49991 19.8977 4.65794 20.2793 4.93925 20.5606C5.22055 20.8419 5.60208 20.9999 5.99991 20.9999H19.4999C19.8977 20.9999 20.2793 20.8419 20.5606 20.5606C20.8419 20.2793 20.9999 19.8977 20.9999 19.4999V15.4977C21 15.371 20.968 15.2463 20.9068 15.1353C20.8457 15.0243 20.7574 14.9307 20.6502 14.863ZM19.4999 19.4999H5.99991V15.4977C5.99995 15.3711 5.96796 15.2466 5.90693 15.1358C5.8459 15.0249 5.7578 14.9313 5.65084 14.8636C5.54388 14.796 5.42155 14.7565 5.29522 14.7488C5.16889 14.7412 5.04268 14.7656 4.92835 14.8199C4.64256 14.9551 4.32725 15.0158 4.01171 14.9964C3.69617 14.977 3.39066 14.8781 3.12358 14.709C2.8565 14.5399 2.63652 14.3059 2.48409 14.029C2.33165 13.752 2.25172 13.441 2.25172 13.1249C2.25172 12.8088 2.33165 12.4978 2.48409 12.2208C2.63652 11.9439 2.8565 11.7099 3.12358 11.5408C3.39066 11.3717 3.69617 11.2728 4.01171 11.2534C4.32725 11.234 4.64256 11.2947 4.92835 11.4299C5.04268 11.4842 5.16889 11.5086 5.29522 11.501C5.42155 11.4933 5.54388 11.4538 5.65084 11.3862C5.7578 11.3185 5.8459 11.2249 5.90693 11.114C5.96796 11.0032 5.99995 10.8786 5.99991 10.7521V6.7499H10.3771C10.5037 6.74994 10.6282 6.71795 10.739 6.65692C10.8499 6.59588 10.9435 6.50779 11.0112 6.40083C11.0788 6.29387 11.1183 6.17153 11.126 6.0452C11.1336 5.91888 11.1092 5.79267 11.0549 5.67833C10.9198 5.39255 10.859 5.07723 10.8784 4.7617C10.8978 4.44616 10.9967 4.14065 11.1658 3.87357C11.335 3.60649 11.5689 3.3865 11.8458 3.23407C12.1228 3.08164 12.4338 3.00171 12.7499 3.00171C13.066 3.00171 13.377 3.08164 13.654 3.23407C13.9309 3.3865 14.1649 3.60649 14.334 3.87357C14.5031 4.14065 14.602 4.44616 14.6214 4.7617C14.6408 5.07723 14.5801 5.39255 14.4449 5.67833C14.3906 5.79267 14.3662 5.91888 14.3738 6.0452C14.3815 6.17153 14.421 6.29387 14.4886 6.40083C14.5563 6.50779 14.6499 6.59588 14.7608 6.65692C14.8717 6.71795 14.9962 6.74994 15.1227 6.7499H19.4999V9.77146C19.2939 9.74785 19.0861 9.74346 18.8793 9.75833C18.0064 9.82014 17.1916 10.2186 16.6069 10.8696C16.0221 11.5206 15.7131 12.3733 15.7449 13.2478C15.7768 14.1223 16.1471 14.9502 16.7776 15.557C17.4082 16.1637 18.2498 16.5018 19.1249 16.4999C19.2502 16.5001 19.3754 16.4932 19.4999 16.4793V19.4999Z" fill="#12111F"/>
</svg>
