<svg width="135" height="111" viewBox="0 0 135 111" fill="none" xmlns="http://www.w3.org/2000/svg">
<path d="M42.1172 98.0867C42.1172 98.0867 29.6294 100.375 26.0958 107.068C26.0958 107.068 25.4786 107.169 25.0553 109.567L34.7687 109.611C34.7687 109.611 33.6764 108.466 33.8266 107.145C33.9768 105.823 34.755 103.188 34.755 103.188L30.8637 105.689C30.8637 105.689 30.6698 105.189 32.1116 103.849C33.1794 102.855 35.7354 102.552 35.7354 102.552L42.1172 101.32V98.084V98.0867Z" fill="#231F20"/>
<path opacity="0.7" d="M85.5815 90.249C85.5815 90.249 84.4674 90.9235 84.3418 91.1857C84.2162 91.4478 89.8825 91.6663 89.8825 91.6663L91.125 90.5221L86.8104 90.3801L85.5815 90.2518V90.249Z" fill="#231F20"/>
<path opacity="0.7" d="M91.126 91.8631C91.126 91.8631 91.5275 91.803 91.3226 92.8817C91.1151 93.9604 91.126 100.522 91.126 100.522L89.8699 100.271L89.9955 91.844L91.126 90.708V91.8659V91.8631Z" fill="#231F20"/>
<path opacity="0.7" d="M91.1251 107.775C91.2699 108.002 91.1251 110.069 91.1251 110.069L89.869 110.004L89.8581 107.775H91.1251Z" fill="#231F20"/>
<path d="M100.309 109.359C100.309 109.359 100.306 111.278 100.675 110.768C100.735 110.686 101.92 109.678 101.068 109.359C100.216 109.042 100.309 109.359 100.309 109.359Z" fill="#231F20"/>
<path d="M47.1078 108.185C47.2743 108.147 47.3918 108.106 47.5447 108.057C47.6894 108.005 47.8478 107.945 47.998 107.846C48.1072 107.775 48.2192 107.699 48.2984 107.601C48.4486 107.423 48.5359 107.202 48.5742 106.978C48.5906 106.866 48.5933 106.746 48.5687 106.628C48.5633 106.598 48.5551 106.568 48.5469 106.541L48.5332 106.519C48.5223 106.5 48.5086 106.484 48.495 106.465C48.4895 106.456 48.4813 106.448 48.4731 106.44C48.4704 106.437 48.4649 106.432 48.4622 106.429H48.4759C48.495 106.424 48.5141 106.415 48.5332 106.41L48.5851 106.388C48.607 106.374 48.6015 106.38 48.6452 106.353C48.7435 106.276 48.8199 106.172 48.8718 106.06C48.8991 106.006 48.9155 105.946 48.9265 105.886C48.9374 105.826 48.9183 105.76 48.9046 105.703C48.8773 105.629 48.8554 105.643 48.7872 105.686C48.7544 105.708 48.6998 105.733 48.6397 105.749C48.5851 105.768 48.5414 105.79 48.5059 105.815C48.454 105.856 48.394 105.886 48.3366 105.902C48.323 105.907 48.3148 105.918 48.3011 105.921C48.3011 105.921 48.2711 105.94 48.2547 105.951C48.2301 105.957 48.1919 105.957 48.1591 105.959L48.0581 105.965H47.9297H47.6457L47.7686 106.243C47.8096 106.325 47.8505 106.404 47.8915 106.486L47.9625 106.631C47.9871 106.708 47.9871 106.691 47.998 106.71C48.0116 106.735 48.028 106.765 48.0362 106.8C48.0608 106.88 48.0417 106.975 47.998 107.057C47.9543 107.136 47.8915 107.205 47.8205 107.27C47.6812 107.409 47.4464 107.489 47.1815 107.554L47.0586 107.584C47.0204 107.59 46.9931 107.601 46.9548 107.603C46.8811 107.614 46.7992 107.62 46.7173 107.62C46.4688 107.625 46.2093 107.625 45.9554 107.592C45.7588 107.568 45.5676 107.502 45.3737 107.453C45.33 107.442 45.2891 107.426 45.2454 107.418C45.0815 107.404 45.0215 107.445 44.975 107.614C44.9641 107.652 44.9532 107.688 44.945 107.721C44.9259 107.835 44.9778 107.964 45.0897 108.016C45.4229 108.177 45.7997 108.212 46.1848 108.234C46.4769 108.245 46.7473 108.25 47.105 108.199V108.182L47.1078 108.185Z" fill="#231F20"/>
<path d="M41.0823 109.048C41.5274 109.132 41.9807 109.198 42.4395 109.239C42.6061 109.252 42.7727 109.282 42.942 109.288C43.54 109.304 44.1298 109.255 44.7142 109.138C44.9737 109.08 45.2358 109.02 45.4925 108.911C45.6563 108.837 45.8311 108.744 45.954 108.564C46.0114 108.474 46.066 108.362 46.0578 108.247C46.0578 108.19 46.0441 108.135 46.0223 108.086C46.0059 108.034 45.9813 107.991 45.9513 107.952C45.8775 107.854 45.8502 107.901 45.8011 108.004C45.782 108.054 45.7383 108.119 45.6891 108.165C45.6236 108.209 45.5772 108.22 45.5553 108.245C45.5062 108.291 45.416 108.348 45.3014 108.409C45.1839 108.463 45.0501 108.518 44.9054 108.556C44.6187 108.638 44.3046 108.695 43.9878 108.744C43.6028 108.804 43.2014 108.766 42.8082 108.731C42.374 108.693 41.9343 108.627 41.4974 108.548C41.227 108.499 40.9594 108.444 40.6918 108.381C40.2849 108.288 39.8753 108.193 39.4766 108.075C39.1653 107.983 38.8704 107.86 38.5564 107.778C38.4881 107.759 38.4225 107.737 38.3515 107.72C38.0894 107.677 37.9938 107.704 37.9146 107.802C37.8955 107.824 37.8737 107.846 37.8627 107.871C37.8218 107.947 37.9092 108.045 38.0839 108.138C38.2123 108.209 38.3461 108.269 38.4799 108.327C38.6164 108.384 38.7475 108.449 38.8895 108.493C39.1708 108.583 39.4602 108.668 39.7524 108.744C40.1866 108.862 40.6317 108.963 41.0796 109.058V109.045L41.0823 109.048Z" fill="#231F20"/>
<path d="M49.6854 87.9821C49.6854 87.9821 49.7073 87.9821 49.7154 87.9821C49.7182 87.9902 49.7209 88.0012 49.7236 88.0121V88.023L49.7209 88.0886L49.7127 88.2251L49.6936 88.5036C49.669 88.875 49.6472 89.2519 49.6363 89.6287C49.6281 89.9045 49.6035 90.1803 49.6144 90.4616C49.6226 90.7074 49.639 90.9559 49.6799 91.2126C49.6854 91.2754 49.7045 91.3409 49.7182 91.4064C49.7291 91.4611 49.7482 91.5621 49.7892 91.6522C49.8083 91.6959 49.8274 91.7396 49.8465 91.7833L49.8793 91.8461L49.8875 91.8625C49.9066 91.8516 49.8984 91.8679 49.9066 91.8679L49.9284 91.8952C49.994 91.9635 50.0923 91.9826 50.1851 92.0045C50.3927 92.04 50.4937 92.04 50.6221 92.0454C50.7449 92.0509 50.8678 92.0482 50.9907 92.0454C51.2338 92.0427 51.4741 92.0318 51.7144 92.0236C52.1404 92.0045 52.5691 91.9963 52.9896 91.9854C53.5303 91.9744 54.0765 91.9417 54.609 91.7806C54.7728 91.6659 54.7455 91.7096 54.5981 91.6331C54.5216 91.5894 54.4206 91.5566 54.2949 91.5102C54.2321 91.4884 54.1666 91.4665 54.0956 91.4474C54.0601 91.4365 54.0246 91.431 53.9864 91.4201C53.9481 91.4174 53.9099 91.4146 53.8717 91.4119L53.4593 91.3928L53.2545 91.3819L53.0497 91.3873L52.2278 91.4119C51.6816 91.4283 51.13 91.4501 50.6002 91.4556H50.4118C50.3845 91.4529 50.3572 91.4556 50.3353 91.4392C50.3244 91.4146 50.3162 91.3983 50.308 91.3628C50.2971 91.2999 50.2753 91.2207 50.2698 91.1443C50.2288 90.833 50.2288 90.4971 50.2316 90.1639C50.2316 89.798 50.2479 89.4294 50.2698 89.058L50.3053 88.5009L50.3244 88.2196L50.3353 88.0776C50.3435 88.0066 50.3381 87.9356 50.3408 87.8646C50.349 87.7745 50.3271 87.7008 50.3135 87.6243L50.2971 87.5697C50.2807 87.5588 50.2643 87.5451 50.2479 87.5369L50.1496 87.4796C50.0759 87.4496 49.9885 87.4304 49.9039 87.4113L49.7837 87.3895L49.6963 87.3758C49.4642 87.3403 49.2348 87.3103 49.0054 87.2802C48.3091 87.1929 47.6073 87.1382 46.9109 87.0836C46.3703 87.0427 45.8405 86.9689 45.2943 86.9662C45.1742 86.9662 45.0568 86.9607 44.9311 86.9717C44.4751 87.0072 44.3222 87.0973 44.2703 87.2721C44.2566 87.313 44.2403 87.354 44.2375 87.3895C44.2375 87.5151 44.415 87.5588 44.7154 87.567C45.6193 87.6161 46.6051 87.6762 47.5936 87.7636C47.9596 87.7964 48.3282 87.8319 48.6941 87.8728L49.243 87.9411L49.6881 88.0066L49.6936 87.993L49.6854 87.9821Z" fill="#231F20"/>
<path opacity="0.7" d="M51.8086 86.4092L50.3613 87.3595L50.476 91.4966H51.6884L51.8086 86.4092Z" fill="#231F20"/>
<path opacity="0.7" d="M51.4746 85.7707L50.3605 86.975L42.7962 87.3136C42.7962 87.3136 43.4926 85.7762 44.4511 85.5168C45.4096 85.2601 51.4746 85.768 51.4746 85.768V85.7707Z" fill="#231F20"/>
<path d="M87.6541 108.22C87.3756 108.22 87.0943 108.223 86.8131 108.209C86.7093 108.206 86.611 108.182 86.5072 108.174C86.144 108.16 85.7863 108.113 85.4258 108.064C85.2674 108.034 85.1118 107.993 84.9643 107.941C84.8715 107.906 84.7759 107.868 84.6776 107.838C84.6312 107.819 84.5847 107.802 84.5356 107.789C84.4892 107.772 84.4373 107.761 84.3772 107.769C84.3035 107.775 84.2871 107.821 84.298 107.92C84.3035 108.029 84.3526 108.176 84.4646 108.245C84.6612 108.362 84.8687 108.455 85.0817 108.518C85.2947 108.591 85.5132 108.63 85.7371 108.643C86.0047 108.657 86.2669 108.733 86.5345 108.763C86.8294 108.796 87.1216 108.815 87.4166 108.823H87.96C88.2358 108.826 88.5089 108.813 88.7819 108.807C88.9949 108.804 89.2052 108.834 89.4346 108.821C89.4865 108.815 89.5329 108.826 89.5902 108.81C89.6421 108.799 89.6831 108.783 89.7159 108.766C89.7486 108.747 89.7732 108.736 89.7951 108.695C89.8306 108.619 89.8251 108.556 89.8005 108.493C89.7896 108.463 89.7814 108.436 89.7677 108.414C89.7432 108.376 89.7022 108.354 89.6558 108.318C89.6339 108.302 89.6094 108.283 89.5875 108.261C89.5739 108.247 89.5739 108.242 89.5629 108.239C89.5493 108.234 89.5384 108.231 89.5247 108.231C89.2325 108.198 88.8529 108.206 88.487 108.206C88.2112 108.209 87.9299 108.215 87.6487 108.204V108.22H87.6541Z" fill="#231F20"/>
<path d="M85.9923 105.558C85.7137 105.55 85.4325 105.53 85.1539 105.495C85.0529 105.481 84.9546 105.451 84.8508 105.438C84.4903 105.388 84.1353 105.317 83.7803 105.236C83.622 105.197 83.4772 105.129 83.3298 105.074C83.1441 105.001 82.942 104.938 82.8 104.801C82.759 104.755 82.7563 104.758 82.7618 104.82C82.77 104.878 82.8027 105.009 82.8901 105.118C83.0458 105.304 83.2205 105.473 83.4308 105.558C83.6356 105.653 83.8432 105.738 84.0616 105.779C84.3238 105.825 84.5832 105.924 84.8453 105.978C85.1348 106.038 85.4297 106.085 85.7247 106.118C85.9049 106.137 86.0878 106.153 86.2708 106.167C86.5466 106.189 86.8252 106.186 87.101 106.191C87.3167 106.197 87.5297 106.232 87.7509 106.232C87.8 106.232 87.8492 106.24 87.8983 106.232C88.0786 106.194 88.125 106.123 88.125 105.967C88.125 105.932 88.125 105.896 88.125 105.861C88.1113 105.746 88.0212 105.664 87.9011 105.634C87.7208 105.582 87.5515 105.591 87.3713 105.577C87.1911 105.571 87.0108 105.569 86.8279 105.563C86.5548 105.552 86.2763 105.563 85.995 105.539V105.552L85.9923 105.558Z" fill="#231F20"/>
<path d="M89.1906 92.4831C89.278 92.7316 89.3216 93.0729 89.3571 93.3924C89.3899 93.7174 89.4118 94.0478 89.4281 94.381C89.4391 94.624 89.4281 94.867 89.4363 95.1101C89.4636 95.9675 89.4664 96.8305 89.4664 97.6934C89.4664 98.0757 89.45 98.4607 89.4281 98.8403C89.4118 99.0834 89.3954 99.3291 89.3926 99.5722C89.3926 99.695 89.3845 99.8179 89.3981 99.9408C89.4145 100.064 89.4336 100.187 89.4527 100.312C89.48 100.465 89.5019 100.449 89.5729 100.323C89.622 100.241 89.6739 100.151 89.7258 100.066C89.7558 100.012 89.7968 99.9545 89.8214 99.8917C89.8405 99.8288 89.8596 99.7606 89.8705 99.6923C89.9606 99.1953 89.9798 98.6956 90.0125 98.1958C90.0262 97.9446 90.0344 97.6934 90.0371 97.4422C90.0371 97.1909 90.0262 96.937 90.0125 96.683C89.9825 96.0768 90.018 95.4487 90.0016 94.8288C89.9798 94.1461 89.9525 93.4634 89.8405 92.7698C89.7968 92.5514 89.7695 92.3465 89.633 92.098C89.6111 92.0653 89.5865 92.0352 89.562 92.0052C89.5374 91.9806 89.5073 91.9588 89.4828 91.9397C89.4309 91.896 89.379 91.8605 89.3298 91.8359C89.2288 91.7731 89.125 91.7294 89.024 91.6857C88.4041 91.4454 87.776 91.3061 87.137 91.2297C86.6428 91.1696 86.1512 91.104 85.6433 91.1505C85.5313 91.1559 85.4194 91.1778 85.3074 91.1996C84.8896 91.3143 84.7968 91.4782 84.764 91.5983C84.7558 91.6283 84.7449 91.6584 84.7449 91.683C84.7503 91.7676 84.9196 91.7458 85.1927 91.7485C85.9792 91.7048 86.8394 91.7567 87.6914 91.9287C88.0081 91.9752 88.3276 92.0407 88.6171 92.1499C88.6908 92.1772 88.7646 92.2018 88.8301 92.2319C88.9011 92.2619 88.9639 92.2919 89.0185 92.3247C89.0813 92.3547 89.1141 92.393 89.1332 92.4012C89.1305 92.3957 89.1551 92.4285 89.1742 92.494H89.1878L89.1906 92.4831Z" fill="#231F20"/>
<path d="M89.6568 109.108C89.6349 109.007 89.6131 108.906 89.594 108.805C89.5885 108.769 89.594 108.731 89.583 108.696C89.5557 108.567 89.5202 108.439 89.4793 108.313C89.4629 108.256 89.4574 108.201 89.4492 108.144C89.441 108.073 89.4356 107.999 89.4028 107.931C89.3919 107.909 89.3591 107.915 89.3209 107.936C89.2854 107.958 89.2362 107.994 89.2253 108.035C89.1898 108.182 89.1543 108.327 89.1762 108.472C89.198 108.559 89.1762 108.649 89.1789 108.736C89.1816 108.832 89.1871 108.933 89.1898 109.029C89.1898 109.089 89.1953 109.149 89.1953 109.209C89.1953 109.299 89.2007 109.392 89.1844 109.482C89.1734 109.553 89.1161 109.616 89.0997 109.684C89.0942 109.698 89.086 109.714 89.0833 109.728C89.0724 109.785 89.1188 109.807 89.2472 109.832L89.3318 109.848C89.4219 109.862 89.5202 109.848 89.5639 109.807C89.7005 109.69 89.7032 109.553 89.6977 109.414C89.695 109.313 89.6759 109.209 89.665 109.105H89.654L89.6568 109.108Z" fill="#231F20"/>
<path d="M72.5078 94.8499L72.4395 101.008C72.4395 101.008 68.7475 100.066 68.297 101.273C67.8464 102.48 68.297 109.359 68.297 109.359L54.5339 109.569V103.362C54.5339 103.362 58.8813 103.719 58.8485 102.209C58.813 100.699 58.8485 94.4512 58.8485 94.4512C58.8485 94.4512 60.3395 94.0826 61.3581 94.5031C62.3739 94.9237 62.5241 97.1574 64.5995 97.1574C69.4685 97.1574 72.0845 94.312 72.0845 94.312L72.5078 94.8527V94.8499Z" fill="#231F20"/>
<path d="M101.131 104.575C101.131 104.575 100.467 103.75 101.636 103.985C105.203 104.698 106.827 106.393 105.697 106.027C104.566 105.661 101.229 104.646 101.382 105.402C101.535 106.158 102.182 108.985 101.128 110.244C100.074 111.503 98.9983 110.842 98.9983 110.842C98.9983 110.842 98.8782 111.77 100.672 112.472C101.994 112.991 108.13 116.213 111.915 113.903C113.723 112.797 114.618 111.68 113.843 109.569C111.557 103.362 96.0382 96.3086 91.3877 96.3086V99.2196C91.3877 99.2196 92.7067 98.3703 95.8689 102C99.0311 105.631 101.134 104.575 101.134 104.575H101.131Z" fill="#231F20"/>
<path d="M117.876 110.678C118.397 110.645 118.924 110.618 119.451 110.607C119.643 110.604 119.837 110.618 120.028 110.607C120.71 110.577 121.393 110.55 122.076 110.52C122.379 110.503 122.682 110.511 122.982 110.511C123.176 110.511 123.367 110.522 123.561 110.52C123.755 110.511 123.949 110.487 124.14 110.454C124.26 110.432 124.244 110.353 124.143 110.257C124.042 110.165 123.856 110.036 123.638 109.992C122.857 109.916 122.078 109.831 121.284 109.886C120.809 109.913 120.317 109.848 119.834 109.831C119.299 109.818 118.763 109.826 118.225 109.837L117.234 109.867C116.734 109.883 116.232 109.921 115.735 109.932C115.35 109.935 114.968 109.905 114.583 109.891C114.498 109.891 114.416 109.881 114.329 109.883C114.015 109.894 113.919 109.962 113.873 110.205C113.862 110.26 113.848 110.317 113.842 110.372C113.829 110.558 113.971 110.7 114.2 110.735C114.883 110.836 115.585 110.823 116.292 110.779C116.816 110.752 117.341 110.713 117.868 110.697V110.675L117.876 110.678Z" fill="#231F20"/>
<path d="M107.289 102.975C108.256 103.633 109.195 104.329 110.08 105.083C110.962 105.839 111.806 106.645 112.505 107.551C113.013 108.218 113.414 108.93 113.605 109.717C113.791 110.408 113.854 111.131 113.646 111.784C113.45 112.437 112.977 112.983 112.374 113.357C111.77 113.737 111.06 113.963 110.337 114.108C109.61 114.25 108.865 114.31 108.116 114.321C106.789 114.335 105.459 114.111 104.2 113.717C103.392 113.461 102.603 113.144 101.838 112.773C101.453 112.592 101.082 112.388 100.702 112.188C100.511 112.093 100.323 111.992 100.137 111.888C99.9487 111.787 99.763 111.68 99.58 111.571C99.1185 111.304 99.1458 111.383 99.4708 111.713C99.6319 111.882 99.8722 112.104 100.175 112.366C100.328 112.494 100.495 112.631 100.681 112.767C100.869 112.898 101.079 113.018 101.298 113.144C102.86 114.018 104.602 114.594 106.399 114.821C107.297 114.938 108.207 114.946 109.108 114.878C110.009 114.807 110.918 114.646 111.787 114.299C112.305 114.103 112.811 113.816 113.248 113.428C113.477 113.245 113.657 113.007 113.84 112.773L114.061 112.382C114.138 112.254 114.171 112.104 114.225 111.964C114.405 111.396 114.446 110.79 114.356 110.222C114.332 109.933 114.255 109.657 114.184 109.384L114.13 109.176L114.053 108.974C113.998 108.84 113.958 108.701 113.889 108.575C113.346 107.439 112.538 106.511 111.683 105.659C110.823 104.81 109.894 104.042 108.936 103.324C107.75 102.445 106.519 101.637 105.26 100.875C103.354 99.7223 101.366 98.6901 99.3616 97.7616C97.8023 97.0407 96.2567 96.3662 94.6482 95.7982C94.296 95.6726 93.9437 95.5579 93.5832 95.4459C92.2342 95.0527 91.7755 95.0227 91.4532 95.0964C91.3795 95.1155 91.2839 95.1264 91.2402 95.151C91.1638 95.192 91.2594 95.2657 91.4942 95.3667C91.7291 95.4623 92.1032 95.5934 92.5838 95.7463C94.0065 96.2215 95.4429 96.7731 96.882 97.3848C98.3157 98.0019 99.7521 98.6792 101.169 99.3946C103.269 100.471 105.328 101.65 107.273 102.988L107.284 102.975H107.289Z" fill="#231F20"/>
<path d="M56.1358 79.1268C52.8343 78.6106 46.5672 74.8367 50.322 69.5964C52.1871 66.9912 56.5153 67.4363 56.5153 67.4363C56.5153 67.4363 59.3826 63.8508 64.7322 66.5761C67.5995 68.0371 67.4876 69.1922 67.4876 69.1922C67.4876 69.1922 71.2424 67.7995 73.2304 68.2173C75.2184 68.6351 78.4025 70.1289 79.5221 71.8001C80.639 73.4713 82.0398 75.7051 81.8869 77.7068C81.734 79.7084 80.3577 82.2398 80.3577 82.2398C80.3577 82.2398 79.4074 80.7488 78.1021 80.7406C76.7968 80.7324 75.6417 81.7292 75.7045 82.1142C75.7645 82.4993 74.5384 87.3764 73.3041 87.1634C72.0698 86.9504 72.4931 85.3174 72.676 84.6893C72.859 84.0613 72.9054 82.8433 72.8918 82.1115C72.8781 81.3796 70.9666 79.9706 70.9666 79.094C70.9666 78.2174 70.9666 77.136 70.9666 77.136C70.9666 77.136 68.1593 78.2966 65.8355 79.094C62.1134 80.372 56.1385 79.1213 56.1385 79.1213L56.1358 79.1268Z" fill="#231F20"/>
<path d="M90.8877 108.534C90.9014 108.668 90.9123 108.802 90.9177 108.938C90.9177 108.988 90.9014 109.037 90.9041 109.086C90.9232 109.266 90.9505 109.449 90.9614 109.629C90.9642 109.708 90.9669 109.79 90.9587 109.87C90.956 109.971 90.9123 110.072 90.9942 110.178C91.0242 110.211 91.0953 110.211 91.1963 110.192C91.3083 110.173 91.4311 110.134 91.4502 110.083C91.4885 109.987 91.5212 109.894 91.5431 109.799C91.5649 109.703 91.5486 109.599 91.5294 109.495C91.5021 109.37 91.5567 109.25 91.5649 109.121C91.5704 108.982 91.5704 108.84 91.5704 108.698C91.5704 108.611 91.5704 108.521 91.5704 108.436C91.5704 108.302 91.5595 108.168 91.5731 108.037C91.5813 107.933 91.6359 107.832 91.6605 107.723C91.6632 107.699 91.6742 107.677 91.6714 107.652C91.6714 107.565 91.5841 107.543 91.4257 107.543H91.3164C91.199 107.548 91.0898 107.592 91.0188 107.652C90.986 107.696 90.956 107.737 90.9287 107.778C90.9096 107.819 90.9014 107.86 90.8904 107.901C90.8713 107.983 90.8686 108.065 90.8686 108.149C90.8686 108.275 90.8768 108.403 90.8768 108.537H90.8932L90.8877 108.534Z" fill="#231F20"/>
<path d="M84.02 103.354C83.8043 103.376 83.6131 103.403 83.3728 103.442C83.0342 103.494 82.6601 103.595 82.4362 103.742L82.3543 103.799L82.2915 103.865C82.2478 103.906 82.2205 103.961 82.1931 104.015C82.174 104.073 82.1604 104.141 82.1467 104.209C82.1495 104.28 82.174 104.337 82.1931 104.392C82.2614 104.6 82.5154 104.783 82.8458 104.919C82.9605 104.971 83.0806 105.017 83.209 105.061C83.2909 105.091 83.3592 105.11 83.4329 105.135C83.5804 105.181 83.7251 105.225 83.8726 105.26C84.913 105.509 85.9534 105.651 86.9938 105.796C87.4553 105.864 87.9168 105.932 88.3756 106C88.6678 106.05 88.9655 106.082 89.2604 106.11C89.5553 106.145 89.8557 106.14 90.1588 106.101C90.3472 106.077 90.3226 106.055 90.1752 105.968C90.1015 105.927 89.9977 105.856 89.8693 105.787C89.8065 105.755 89.7383 105.711 89.6645 105.681C89.5908 105.656 89.5116 105.632 89.427 105.615C88.8398 105.484 88.2473 105.4 87.652 105.31C87.0594 105.222 86.4641 105.138 85.8633 105.047C85.1478 104.944 84.416 104.758 83.7224 104.556L83.3291 104.433C83.2609 104.406 83.1762 104.381 83.1189 104.316C83.0861 104.28 83.1052 104.234 83.138 104.212C83.168 104.187 83.2063 104.174 83.2418 104.16C83.3264 104.133 83.3783 104.119 83.5421 104.1C84.0255 104.051 84.5252 104.021 85.0222 104.012C85.7786 104.002 86.5433 104.012 87.2942 104.07C87.8786 104.116 88.4466 104.212 89.0173 104.305C89.143 104.326 89.2658 104.346 89.3915 104.359C89.8611 104.414 90.0141 104.389 90.1424 104.242C90.1725 104.209 90.208 104.176 90.2271 104.144C90.2953 104.029 90.1178 103.887 89.771 103.786C89.2576 103.63 88.7224 103.537 88.179 103.472C87.6356 103.403 87.0812 103.36 86.5241 103.33C85.6967 103.289 84.8638 103.281 84.0173 103.33V103.349L84.02 103.354Z" fill="#231F20"/>
<path d="M87.7198 108.319C88.3123 108.275 88.8995 108.218 89.4866 108.158L90.3659 108.065L90.8028 108.018L91.0076 107.997C91.0349 107.997 91.0513 107.986 91.065 107.999H91.0677C91.0677 107.999 91.0677 107.999 91.0895 108.013L91.1605 108.057L91.2998 108.141C91.3927 108.201 91.4882 108.251 91.5811 108.305C91.7695 108.417 91.9634 108.515 92.16 108.608C93.5691 109.275 95.1311 109.616 96.6822 109.575C97.3703 109.561 98.0585 109.466 98.7138 109.288C98.935 109.234 99.1125 109.176 99.3064 109.168C99.5003 109.157 99.6969 109.179 99.8963 109.223C100.096 109.264 100.292 109.335 100.494 109.392C100.702 109.449 100.907 109.509 101.114 109.567C101.376 109.63 101.346 109.6 101.155 109.471C101.043 109.392 100.909 109.296 100.767 109.193C100.685 109.135 100.598 109.067 100.497 109.01C100.393 108.955 100.281 108.903 100.158 108.857C99.94 108.778 99.7024 108.718 99.4512 108.696C99.3255 108.685 99.1972 108.688 99.0716 108.701C98.946 108.712 98.8067 108.745 98.7138 108.761C98.5063 108.797 98.3042 108.846 98.094 108.865L97.7827 108.906L97.4713 108.928C96.6412 109.015 95.8001 108.972 94.9618 108.84C94.462 108.756 93.9568 108.619 93.468 108.436C92.9792 108.251 92.5013 108.024 92.0398 107.778L91.7094 107.595L91.3462 107.371C91.3025 107.36 91.267 107.319 91.2152 107.33C91.1715 107.322 91.125 107.311 91.0813 107.308L90.9503 107.317L90.8629 107.325L90.5161 107.358L89.8252 107.426L88.4489 107.549C87.7252 107.606 87.0016 107.653 86.2834 107.661H85.8765L85.5488 107.65C85.3986 107.639 85.2402 107.633 85.0928 107.573C85.0573 107.557 85.0218 107.532 85.0108 107.494C84.9972 107.456 85.019 107.418 85.0409 107.388C85.09 107.33 85.1583 107.287 85.2266 107.251C85.2948 107.216 85.3658 107.183 85.4396 107.156L85.5488 107.115L85.7345 107.052C86.5292 106.801 87.3511 106.669 88.1731 106.549C88.3533 106.527 88.5308 106.506 88.7138 106.484C89.391 106.413 89.5849 106.279 89.7214 106.112C89.7515 106.074 89.7952 106.036 89.8143 106C89.8443 105.94 89.7897 105.891 89.6559 105.842C89.5221 105.796 89.3118 105.741 89.0524 105.746C88.2796 105.779 87.5013 105.886 86.7176 106.05C86.3243 106.132 85.9311 106.23 85.5324 106.355L85.3822 106.405L85.1665 106.481C84.989 106.555 84.7951 106.626 84.6422 106.719C84.309 106.893 84.1097 107.104 84.0332 107.317C84.0141 107.399 83.9813 107.486 84.0059 107.59L84.0141 107.669V107.688C84.0141 107.688 84.0141 107.702 84.0141 107.707L84.0278 107.743C84.0414 107.795 84.0715 107.827 84.0933 107.866C84.1588 108.016 84.3036 108.125 84.5084 108.215C84.9262 108.379 85.7372 108.395 85.9065 108.395C86.521 108.401 87.1217 108.371 87.7198 108.333V108.313V108.319Z" fill="#231F20"/>
<path d="M43.9657 108.474C43.1711 108.482 42.3437 108.381 41.5272 108.258C41.2268 108.212 40.9319 108.144 40.6342 108.092L39.0449 107.81C38.78 107.761 38.5124 107.715 38.2448 107.674C37.9717 107.633 37.7123 107.587 37.4064 107.573C37.3709 107.573 37.3245 107.576 37.2835 107.578C37.248 107.584 37.2207 107.589 37.1907 107.592L37.0105 107.622L36.6527 107.685C36.4124 107.726 36.1776 107.775 35.9455 107.841C35.6478 107.92 35.3474 107.999 35.058 108.116C34.7685 108.231 34.4954 108.384 34.2305 108.542C34.0667 108.646 34.0913 108.635 34.2551 108.611C34.337 108.597 34.4545 108.586 34.5992 108.578C34.7439 108.572 34.9078 108.564 35.0798 108.54C35.3857 108.504 35.6779 108.428 35.981 108.392L36.4315 108.329L36.8794 108.247L37.33 108.174C37.3709 108.16 37.5484 108.179 37.685 108.198C37.9881 108.245 38.2912 108.291 38.597 108.338C39.3371 108.447 40.0962 108.646 40.8581 108.783C41.6937 108.933 42.5376 109.061 43.3977 109.116C43.9275 109.143 44.4655 109.159 45.0253 109.023C45.1318 108.993 45.2383 108.96 45.3448 108.906C45.3994 108.884 45.4486 108.848 45.5032 108.807C45.566 108.772 45.6124 108.714 45.6561 108.66C45.6779 108.632 45.7025 108.605 45.7216 108.578L45.7653 108.482C45.779 108.449 45.7954 108.419 45.8063 108.387L45.8254 108.283C45.8336 108.144 45.7762 108.007 45.6916 107.895C45.6534 107.838 45.596 107.789 45.5496 107.742C45.5032 107.704 45.4595 107.668 45.413 107.638C45.3229 107.573 45.2301 107.524 45.1372 107.475C44.9516 107.376 44.7631 107.303 44.5747 107.232C43.9876 107.019 43.4114 106.838 42.8134 106.699C42.6823 106.669 42.5539 106.636 42.4174 106.614C42.2918 106.595 42.188 106.582 42.0979 106.576C42.0078 106.576 41.934 106.595 41.874 106.609C41.7538 106.642 41.6801 106.685 41.6255 106.748C41.6009 106.776 41.5681 106.803 41.5517 106.83C41.5053 106.915 41.6965 107.005 42.0324 107.141C42.5403 107.264 43.0619 107.404 43.5752 107.565C43.8319 107.649 44.0859 107.742 44.3262 107.846C44.5665 107.95 44.8041 108.062 44.987 108.176C45.0171 108.198 45.0526 108.22 45.0744 108.239C45.1072 108.264 45.0908 108.25 45.0963 108.256C45.0963 108.256 45.0963 108.256 45.0963 108.258C45.0963 108.258 45.0963 108.258 45.0908 108.261C45.0772 108.275 45.0526 108.288 45.0198 108.302C44.9051 108.359 44.7304 108.4 44.5474 108.422C44.3644 108.447 44.1678 108.452 43.9712 108.455V108.471L43.9657 108.474Z" fill="#231F20"/>
<path d="M45.8527 107.655C46.2214 107.676 46.5927 107.693 46.9805 107.674C47.1771 107.66 47.3738 107.644 47.5868 107.595L47.7506 107.545C47.7779 107.537 47.8079 107.524 47.8353 107.51L47.9472 107.458C48.0155 107.417 48.0756 107.365 48.1356 107.316C48.1821 107.256 48.2339 107.196 48.2694 107.13L48.3241 107.018C48.3814 106.824 48.3541 106.611 48.2503 106.434C48.2039 106.347 48.122 106.259 48.0619 106.199C48.0046 106.147 47.9445 106.098 47.8844 106.06C47.6523 105.907 47.4229 105.809 47.1935 105.721C46.9641 105.637 46.732 105.566 46.4999 105.508C46.0357 105.396 45.5714 105.312 45.1072 105.241C44.6949 105.172 44.2798 105.118 43.8702 105.079C43.6053 105.049 43.3404 105.028 43.0728 105.033C42.8052 105.028 42.5376 105.063 42.2727 105.115C42.1088 105.15 42.1334 105.17 42.2727 105.227C42.3628 105.265 42.4584 105.309 42.5539 105.35C42.6686 105.407 42.8024 105.459 42.9499 105.486C43.466 105.612 43.9849 105.68 44.4983 105.789C45.0171 105.863 45.5359 105.948 46.0521 106.046C46.3606 106.106 46.6665 106.196 46.9587 106.308C47.1061 106.363 47.2427 106.431 47.371 106.499C47.4338 106.535 47.4939 106.573 47.5485 106.611C47.5786 106.631 47.5977 106.65 47.6223 106.669C47.6468 106.688 47.6441 106.691 47.6577 106.702C47.6878 106.734 47.7124 106.783 47.696 106.83C47.6796 106.882 47.6441 106.915 47.5813 106.942C47.4802 106.98 47.3574 107.013 47.2236 107.027C46.9559 107.059 46.6692 107.057 46.3825 107.043C45.9456 107.024 45.5032 106.98 45.0608 106.931C44.3863 106.852 43.7091 106.773 43.04 106.696C42.5184 106.636 42.0051 106.543 41.4698 106.519C41.3524 106.51 41.235 106.502 41.1148 106.513C40.667 106.554 40.525 106.655 40.4704 106.827C40.4567 106.868 40.4403 106.906 40.4349 106.945C40.4294 107.073 40.6096 107.125 40.9018 107.147C41.3387 107.201 41.7866 107.218 42.2536 107.272C42.7233 107.324 43.1984 107.379 43.6763 107.431C44.3917 107.515 45.1154 107.603 45.8582 107.666V107.649L45.8527 107.655Z" fill="#231F20"/>
<path d="M46.5735 106.265C46.9613 106.328 47.3545 106.375 47.7914 106.35C47.9007 106.345 48.0153 106.331 48.1328 106.306C48.1819 106.293 48.2912 106.274 48.3594 106.235C48.4332 106.2 48.5178 106.173 48.5724 106.115C48.7062 106.022 48.7964 105.891 48.851 105.747C48.8919 105.594 48.8673 105.438 48.8045 105.296C48.7035 105.094 48.485 104.897 48.384 104.826C48.2584 104.731 48.13 104.652 47.999 104.583C47.0787 104.116 46.1339 103.851 45.1808 103.592C44.7575 103.48 44.3315 103.374 43.9083 103.278C43.3676 103.158 42.8078 103.032 42.237 103.114C42.0595 103.152 42.0869 103.161 42.2289 103.229C42.3709 103.311 42.6194 103.439 42.9197 103.518C43.9929 103.767 45.0634 104.073 46.1338 104.395C46.7674 104.594 47.42 104.889 47.9443 105.25C47.9798 105.274 48.0153 105.299 48.0454 105.326L48.1218 105.386C48.1464 105.408 48.1737 105.433 48.1874 105.463C48.2311 105.525 48.1819 105.607 48.1164 105.635C48.0864 105.662 47.8843 105.689 47.7204 105.686C47.5457 105.681 47.3654 105.667 47.1825 105.643C46.7319 105.588 46.2731 105.501 45.8143 105.405C45.1153 105.255 44.4135 105.105 43.7198 104.955C43.1764 104.84 42.6439 104.701 42.0787 104.638C41.953 104.624 41.8302 104.608 41.7018 104.608C41.4642 104.616 41.3031 104.646 41.1966 104.701C41.0928 104.763 41.041 104.843 41.0082 104.925C40.9945 104.963 40.9727 105.001 40.9672 105.031C40.959 105.086 41.0055 105.124 41.0901 105.165C41.1748 105.2 41.3004 105.258 41.4478 105.263C42.3408 105.353 43.313 105.566 44.3042 105.79C45.0415 105.957 45.787 106.137 46.5653 106.279L46.5708 106.263L46.5735 106.265Z" fill="#231F20"/>
<path d="M34.5087 99.3916C34.0172 99.6429 33.5284 99.8914 33.0505 100.17L32.3323 100.577L31.6278 101.011C31.4557 101.117 31.281 101.219 31.1089 101.317C30.9369 101.421 30.7703 101.535 30.6037 101.647C29.435 102.453 28.3072 103.343 27.3459 104.405C27.1439 104.651 26.9363 104.891 26.726 105.132C26.5322 105.383 26.3465 105.645 26.158 105.896C26.0434 106.066 25.9478 106.246 25.844 106.421L25.6911 106.686C25.6447 106.776 25.6092 106.874 25.5682 106.967C25.4917 107.158 25.4044 107.341 25.347 107.538C25.3006 107.74 25.2651 107.942 25.246 108.144C25.2214 108.398 25.2569 108.368 25.4098 108.196C25.5709 108.024 25.8467 107.729 26.0652 107.355C26.4339 106.68 26.9035 106.068 27.3978 105.476C27.66 105.189 27.9085 104.891 28.1979 104.624L28.6075 104.198L29.0445 103.791C29.7326 103.127 30.5928 102.6 31.412 102.062C31.8735 101.778 32.335 101.494 32.8047 101.221C33.2826 100.962 33.7523 100.686 34.2384 100.438C34.8364 100.137 35.429 99.8176 36.0434 99.5473C36.9637 99.1131 37.9058 98.7089 38.8452 98.3403C39.5852 98.0727 40.3198 97.8378 41.0653 97.6166C41.2292 97.5675 41.393 97.5265 41.5568 97.4719C42.1631 97.2698 42.3378 97.1551 42.3952 96.8984C42.4088 96.8411 42.4334 96.7838 42.4334 96.7319C42.4416 96.5653 42.144 96.5025 41.6825 96.6199C40.9998 96.7865 40.3034 96.9776 39.6125 97.2207C38.9189 97.4555 38.2253 97.7149 37.5372 98.0017C37.0238 98.2065 36.5158 98.4249 36.0107 98.6598C35.5055 98.8892 35.0003 99.1186 34.5033 99.3698L34.5115 99.3889L34.5087 99.3916Z" fill="#231F20"/>
<path d="M51.2643 86.8824C51.3244 86.7704 51.3872 86.6585 51.4555 86.5493C51.48 86.511 51.5183 86.481 51.5429 86.4428C51.633 86.3035 51.7067 86.1451 51.7995 86.0086C51.8405 85.9458 51.8924 85.8939 51.9361 85.8365C51.9934 85.7628 52.0508 85.6863 52.0835 85.5908C52.0945 85.5607 52.0672 85.5416 52.018 85.528C51.9688 85.517 51.8924 85.5006 51.8378 85.5225C51.6357 85.588 51.5019 85.7136 51.3872 85.8693C51.3217 85.9621 51.2152 86.025 51.1332 86.1096C51.0431 86.2025 50.9585 86.3008 50.8765 86.4018C50.8247 86.4646 50.7728 86.5274 50.7236 86.5875C50.6444 86.6803 50.5734 86.7814 50.486 86.866C50.4178 86.9316 50.3222 86.9725 50.2375 87.0271C50.2184 87.0381 50.1966 87.0463 50.1802 87.0626C50.1256 87.12 50.1584 87.1746 50.2922 87.2948L50.385 87.3767C50.4942 87.4641 50.6062 87.5105 50.6799 87.4996C50.8765 87.4559 50.9912 87.3466 51.0786 87.2074C51.1469 87.1063 51.207 86.9971 51.2752 86.8933L51.2643 86.8824Z" fill="#231F20"/>
<path d="M48.7473 85.0986L47.4474 85.175C47.289 85.1832 47.1306 85.1696 46.9723 85.1805C46.4152 85.2187 45.8554 85.2488 45.2983 85.2952C45.0498 85.3116 44.8013 85.3116 44.5555 85.3088C44.2388 85.3198 43.922 85.3061 43.6079 85.4345C43.5096 85.47 43.5233 85.4945 43.6079 85.5601C43.668 85.6065 43.7281 85.6529 43.78 85.6966C43.8155 85.7239 43.8537 85.7567 43.8947 85.7785C43.9356 85.7949 43.9793 85.8113 44.0258 85.8195C44.1869 85.8468 44.348 85.8823 44.5091 85.8987C44.6702 85.9041 44.8313 85.9096 44.9924 85.9123C45.3147 85.9123 45.6369 85.9123 45.9619 85.8686C46.3496 85.8195 46.7538 85.8577 47.1525 85.8495L48.4633 85.814L49.2716 85.7895C49.6784 85.7813 50.0881 85.7621 50.4949 85.7731C50.809 85.7785 51.1176 85.8277 51.4316 85.855C51.4999 85.8604 51.5681 85.8741 51.6364 85.8768C51.8931 85.8878 51.975 85.8304 52.0269 85.6365C52.0378 85.5928 52.0542 85.5491 52.0597 85.5054C52.0815 85.3607 51.975 85.2324 51.7893 85.1887C51.235 85.0658 50.6506 85.033 50.0662 85.0412C49.632 85.0467 49.1924 85.0685 48.7554 85.0822V85.1013L48.7473 85.0986Z" fill="#231F20"/>
<path d="M51.5715 87.4912C51.5906 87.7451 51.6125 87.9991 51.6261 88.253C51.6316 88.3459 51.6152 88.4387 51.6261 88.5316C51.6644 88.8593 51.7026 89.187 51.7163 89.5146C51.7217 89.6594 51.719 89.8068 51.719 89.9516C51.719 90.0444 51.7081 90.1373 51.719 90.2301C51.7326 90.323 51.7545 90.4185 51.7736 90.5141C51.7873 90.5742 51.7954 90.566 51.8309 90.5196C51.8637 90.4732 51.9484 90.3885 52.0085 90.2875C52.0904 90.1018 52.115 89.9133 52.1532 89.7222C52.1696 89.531 52.175 89.3399 52.1586 89.146C52.1395 88.9139 52.1887 88.679 52.1914 88.4415C52.1914 88.182 52.1778 87.9253 52.1696 87.6659C52.1641 87.5075 52.1586 87.3492 52.1532 87.1908C52.1477 86.9505 52.1313 86.7101 52.145 86.4698C52.1532 86.2841 52.2023 86.1039 52.2269 85.921C52.2296 85.88 52.2378 85.8418 52.2378 85.8008C52.2433 85.7243 52.1969 85.6752 52.1668 85.6397C52.1313 85.6042 52.0849 85.5851 52.0221 85.5687C51.9921 85.5605 51.9648 85.5523 51.9402 85.5468C51.8528 85.5332 51.7681 85.5933 51.6862 85.7025C51.6289 85.7844 51.6152 85.8663 51.5825 85.951C51.5661 86.0356 51.5551 86.1176 51.547 86.205C51.5306 86.3743 51.5278 86.5463 51.5278 86.7183C51.5278 86.975 51.547 87.2317 51.5524 87.4884H51.5661L51.5715 87.4912Z" fill="#231F20"/>
<path d="M97.5129 104.1C98.5178 104.648 99.6156 104.919 100.664 105.124L100.883 105.173C100.907 105.178 100.932 105.186 100.935 105.216L100.981 105.367C101 105.451 101.027 105.533 101.044 105.621C101.188 106.249 101.265 106.92 101.281 107.584C101.292 108.25 101.259 108.919 101.068 109.537C100.907 110.08 100.62 110.629 100.189 110.929C99.9105 111.126 99.5965 111.129 99.3643 110.905C99.1322 110.681 98.9493 110.342 98.8264 109.984C98.7472 109.76 98.7008 109.799 98.6735 110.017C98.6598 110.126 98.6516 110.285 98.6735 110.476C98.6816 110.571 98.7035 110.678 98.7363 110.79C98.7554 110.845 98.7745 110.902 98.7991 110.962C98.8318 111.017 98.8591 111.077 98.9056 111.129C99.0476 111.322 99.266 111.516 99.5555 111.585C99.8422 111.658 100.143 111.596 100.369 111.481C100.833 111.249 101.128 110.88 101.361 110.503C101.841 109.744 101.934 108.837 101.939 108.024C101.939 107.527 101.929 107.027 101.888 106.522C101.868 106.271 101.841 106.017 101.797 105.763C101.754 105.503 101.707 105.271 101.612 104.984C101.593 104.924 101.568 104.864 101.546 104.804C101.478 104.597 101.251 104.531 101.046 104.485L100.656 104.403C100.405 104.351 100.156 104.296 99.9105 104.236C99.419 104.113 98.9383 103.963 98.4768 103.769C97.8897 103.521 97.3354 103.196 96.8821 102.767C96.5489 102.434 96.2158 102.038 95.8771 101.669C95.5385 101.298 95.1917 100.929 94.8313 100.574C94.2687 100.031 93.7089 99.4764 92.9498 99.1104C92.7805 99.0367 92.6084 98.9602 92.4118 98.9247C92.0486 98.8565 91.781 98.9111 91.6199 98.9848C91.4588 99.0695 91.3905 99.1623 91.3714 99.2797C91.3605 99.3316 91.3441 99.3862 91.3523 99.4327C91.3632 99.5064 91.4396 99.5392 91.5489 99.5446C91.6581 99.5501 91.8028 99.5446 91.9776 99.5583C92.5046 99.6102 93.0563 99.9652 93.5696 100.383C94.0858 100.806 94.5773 101.306 95.0552 101.825C95.4129 102.224 95.7706 102.622 96.1284 103.024C96.5189 103.463 97.0104 103.829 97.5101 104.11L97.5211 104.097L97.5129 104.1Z" fill="#231F20"/>
<path d="M91.6291 97.0592L91.5827 95.4262C91.5772 95.2269 91.5909 95.0275 91.5827 94.8309C91.5499 94.1291 91.5199 93.4273 91.4871 92.7255C91.4735 92.4142 91.4762 92.1002 91.4707 91.7916L91.4543 91.1963C91.4489 91.098 91.4407 90.9969 91.4325 90.8986C91.427 90.8003 91.3833 90.702 91.3588 90.6037C91.3205 90.4808 91.2878 90.4999 91.2168 90.6037C91.1703 90.6774 91.1212 90.7539 91.0775 90.8249C91.0311 90.915 91.0092 91.0215 91.001 91.1335C90.9382 91.939 90.9628 92.7419 91.012 93.5557C91.0475 94.0417 91.0038 94.5497 91.0065 95.0467L91.0202 96.6933L91.0311 97.7064C91.0311 98.2171 91.0475 98.7332 91.0393 99.2411C91.0338 99.6371 90.9874 100.025 90.9683 100.415C90.9655 100.503 90.9573 100.587 90.9601 100.672C90.9655 100.833 90.9737 100.94 91.012 101.013C91.0611 101.087 91.1157 101.128 91.1895 101.161C91.2222 101.175 91.255 101.196 91.285 101.202C91.3369 101.215 91.3806 101.188 91.4325 101.128C91.4817 101.068 91.5445 100.975 91.5527 100.858C91.58 100.683 91.6045 100.508 91.6237 100.331C91.6373 100.153 91.6455 99.973 91.651 99.7927C91.6646 99.4323 91.6619 99.0664 91.6619 98.6977C91.6537 98.1515 91.6482 97.6027 91.64 97.0538H91.6237L91.6291 97.0592Z" fill="#231F20"/>
<path d="M63.0525 95.6286C62.0667 94.8694 61.354 93.7252 60.7996 92.5264C60.5975 92.0868 60.4392 91.6225 60.2726 91.1638C59.6827 89.5417 59.2813 87.8377 58.9236 86.1228C58.7679 85.3609 58.645 84.5854 58.5249 83.8207C58.3501 82.8431 58.2136 81.8355 57.7521 80.8988C57.5691 80.6203 57.5637 80.6885 57.5637 80.9643C57.5609 81.12 57.5555 81.3112 57.55 81.5214C57.5527 81.7454 57.5227 82.0157 57.5691 82.2942C57.6347 82.7885 57.6811 83.2937 57.7439 83.7962C57.8258 84.2986 57.905 84.8011 57.9869 85.3035C58.159 86.3085 58.3528 87.3216 58.6314 88.321C58.9536 89.5171 59.2431 90.7787 59.6964 91.9748C60.1961 93.2856 60.8488 94.5772 61.8291 95.6422C62.4354 96.2894 63.1863 96.8301 64.041 97.1332C64.6882 97.3517 65.3682 97.4309 66.0372 97.4172C66.7063 97.4063 67.3644 97.3025 68.0007 97.1278C68.9892 96.8711 69.9313 96.4942 70.8024 95.9535C70.9963 95.8389 71.182 95.716 71.3622 95.5767C72.0285 95.0497 72.1542 94.7738 72.0941 94.4898C72.0804 94.4243 72.075 94.3506 72.0477 94.296C72.0012 94.2086 71.8947 94.1977 71.7473 94.255C71.5998 94.3124 71.425 94.4407 71.1957 94.6045C69.8822 95.5985 68.241 96.344 66.5424 96.5215C65.9171 96.5816 65.2863 96.5598 64.6937 96.415C64.1011 96.2758 63.5577 96.0027 63.0689 95.6122L63.0552 95.6286H63.0525Z" fill="#231F20"/>
<path d="M79.268 82.0022C79.623 82.4309 79.8387 82.9552 79.8387 83.5096C79.8387 83.7116 79.7868 83.9083 79.7431 84.1049C79.5957 84.8094 79.1233 85.4648 78.4706 85.8635C78.1811 86.0437 77.8398 86.142 77.5039 86.1748C77.0643 86.2048 76.6355 86.1557 76.1522 86.1256C76.002 86.1147 75.9993 86.1611 76.0894 86.2868C76.1358 86.3468 76.1986 86.4424 76.2942 86.5353C76.3406 86.5817 76.3925 86.6363 76.4526 86.68C76.5126 86.7237 76.5836 86.7537 76.6546 86.7838C76.7857 86.8329 76.9195 86.8766 77.0588 86.8985C77.1981 86.9094 77.3401 86.9285 77.4821 86.9203C77.7661 86.9203 78.0528 86.8739 78.3286 86.7947C78.8802 86.6363 79.3909 86.3141 79.7404 85.8635C80.1637 85.3419 80.5514 84.7384 80.6607 84.0475C80.7836 83.2966 80.6061 82.5101 80.221 81.8848C80.0954 81.6909 79.9807 81.5188 79.8059 81.3413L79.6639 81.2075L79.5138 81.1065C79.4154 81.0328 79.3062 80.9918 79.2024 80.9399C78.5607 80.6723 77.8808 80.6395 77.2226 80.746C76.7174 80.828 76.1822 80.9973 75.7753 81.4123C75.6961 81.5079 75.5924 81.5898 75.5296 81.6991C75.4067 81.9011 75.3685 82.0595 75.3876 82.1715C75.4012 82.2862 75.4504 82.3599 75.5405 82.4255C75.5815 82.4555 75.6197 82.4883 75.6634 82.5101C75.8108 82.5729 75.9801 82.4528 76.1194 82.2725C76.3269 82.0022 76.5591 81.811 76.8676 81.6854C77.1708 81.5571 77.5339 81.4915 77.9053 81.5106C78.446 81.5298 79.0359 81.7045 79.2516 82.0213L79.268 82.0104V82.0022Z" fill="#231F20"/>
<path d="M64.104 64.9516C63.3694 64.5474 62.572 64.2552 61.7501 64.0968C61.5999 64.0695 61.4497 64.0367 61.3022 64.004C61.152 63.9849 60.9991 63.9685 60.8462 63.9603C60.5786 63.933 60.3082 63.9603 60.0434 63.963C59.7757 63.9712 59.5027 64.0122 59.2405 64.0613C58.7135 64.1678 58.2028 64.3317 57.7195 64.5774C57.2989 64.8041 56.8866 65.0799 56.5671 65.4595C56.466 65.5796 56.3732 65.7134 56.2967 65.8527C56.2339 66.0002 56.1547 66.1422 56.1302 66.3006L56.0783 66.5327L56.0674 66.7675C56.051 66.9232 56.1056 67.0761 56.1356 67.2235C56.1848 67.4065 56.2339 67.3683 56.3268 67.2154C56.4114 67.057 56.5999 66.8112 56.7036 66.5682C56.9112 66.134 57.2143 65.7981 57.6403 65.5332C58.0581 65.271 58.5496 65.0635 59.0712 64.9051C59.3852 64.815 59.7157 64.7686 60.0515 64.7768L60.5622 64.7932C60.7315 64.815 60.9008 64.8369 61.0674 64.8532C61.8047 64.9461 62.5338 65.1536 63.2165 65.4786C63.6398 65.6725 64.0412 65.921 64.4262 66.1886C64.9997 66.6091 65.5377 67.1007 65.9828 67.6577C66.335 68.0865 66.589 68.5753 66.8402 69.0559C66.8921 69.1651 66.9358 69.2744 66.9932 69.3809C67.198 69.7768 67.3127 69.8751 67.5666 69.8642C67.624 69.8615 67.684 69.8642 67.7387 69.856C67.9189 69.8205 67.9653 69.5884 67.8615 69.2443C67.5311 68.2394 66.8867 67.3 66.1111 66.4835C65.5295 65.88 64.8522 65.3557 64.1204 64.9324L64.1095 64.9516H64.104Z" fill="#231F20"/>
<path d="M80.6263 72.6002C80.2577 72.0295 79.8317 71.5025 79.3592 71.0218C78.8895 70.5412 78.3843 70.0961 77.8409 69.7111C77.4477 69.4216 77.0463 69.1458 76.623 68.9055C75.1183 68.0863 73.4307 67.5865 71.7158 67.5674C70.9567 67.5565 70.1866 67.633 69.4547 67.8487C68.9823 67.9716 68.529 68.1764 68.0975 68.4112C67.991 68.474 67.8982 68.556 67.7999 68.6297C67.7016 68.7007 67.6087 68.7853 67.5241 68.8727L67.2647 69.1294C67.1882 69.225 67.1063 69.3124 67.038 69.4134C66.8796 69.6756 66.9233 69.6537 67.18 69.5663C67.4777 69.4626 67.8873 69.3178 68.3488 69.154C69.1161 68.728 69.9763 68.5259 70.8502 68.4358C71.7295 68.3484 72.6388 68.4058 73.5427 68.5751C74.0834 68.6843 74.6213 68.8645 75.1429 69.0885C75.6618 69.326 76.1642 69.5991 76.6476 69.8995C77.1746 70.2354 77.6771 70.6095 78.1495 71.0218C78.6165 71.4397 79.0452 71.8957 79.433 72.3872C79.9054 72.9935 80.3095 73.6598 80.6072 74.3698C80.8311 74.9077 80.995 75.4703 81.1069 76.0437C81.208 76.6172 81.238 77.2043 81.2025 77.786C81.1479 78.6898 80.9103 79.5582 80.5963 80.3911C80.528 80.5768 80.4461 80.7488 80.3751 80.9318C80.102 81.6118 80.0583 81.8466 80.1785 82.0869C80.2058 82.1415 80.2276 82.2071 80.2604 82.248C80.3669 82.3846 80.6427 82.177 80.9431 81.68C81.7732 80.189 82.2047 78.3321 82.0299 76.4697C81.8907 75.0825 81.3909 73.7444 80.6482 72.592L80.629 72.603L80.6263 72.6002Z" fill="#231F20"/>
<path d="M71.9797 85.121C71.936 85.4296 71.9033 85.7436 71.906 86.0849C71.9142 86.257 71.9224 86.4318 71.9688 86.6256C72.0098 86.8113 72.0835 87.0271 72.2501 87.2209C72.4085 87.4148 72.6597 87.5568 72.8836 87.5923C72.9928 87.6115 73.1021 87.6224 73.2004 87.6169L73.4898 87.5869C73.8776 87.5131 74.2272 87.3056 74.4838 87.0516C74.8498 86.6748 75.0873 86.2515 75.2567 85.8255C75.5434 85.0691 75.7072 84.3072 75.841 83.5535L75.9366 82.9883L75.983 82.707C76.0049 82.5841 75.994 82.5923 76.0377 82.5104L76.1469 82.2755C76.1824 82.1963 76.2397 82.1335 76.2834 82.0598C76.3681 81.9096 76.4964 81.8004 76.6057 81.672C76.835 81.4863 77.089 81.317 77.3812 81.2542C77.6679 81.1887 77.971 81.1696 78.2632 81.2378C78.6401 81.3116 78.9923 81.4945 79.2955 81.7376C79.6095 81.9697 79.8826 82.2701 80.0901 82.6251C80.2267 82.8408 80.2922 82.7916 80.2949 82.5377C80.2949 82.4749 80.2949 82.3957 80.284 82.3083C80.2731 82.2209 80.2458 82.1253 80.2157 82.0188C80.1884 81.9123 80.1475 81.7976 80.0819 81.6884C80.0191 81.5765 79.9563 81.4508 79.8553 81.3525C79.5112 80.9839 79.0633 80.6999 78.5609 80.5551C78.0584 80.4022 77.4959 80.4241 76.9907 80.6043C76.4828 80.7845 76.0486 81.1313 75.7427 81.5437C75.6717 81.6502 75.5953 81.7539 75.5297 81.8632L75.3659 82.2018C75.344 82.2564 75.2867 82.3438 75.2785 82.4476L75.2512 82.6196L75.202 82.9446C75.0382 83.9741 74.7924 85.0527 74.3364 85.9293C74.0879 86.4045 73.7383 86.7895 73.2905 86.8223C73.1758 86.8414 73.0693 86.8359 72.9956 86.8113C72.9246 86.784 72.8754 86.7485 72.829 86.6775C72.7334 86.5273 72.7007 86.2543 72.7061 85.9866C72.7252 85.3094 72.8918 84.5912 73.0475 83.8812C73.1594 83.3351 73.3014 82.7998 73.3205 82.1881C73.3178 82.0352 73.3178 81.8632 73.2277 81.672C73.143 81.5273 73.0693 81.3935 72.9655 81.2788C72.7689 81.0412 72.5368 80.8528 72.3211 80.6835C71.9825 80.4186 71.6903 80.1564 71.5046 79.8315C71.3162 79.5093 71.2233 79.1461 71.1933 78.7583C71.1823 78.589 71.1905 78.4169 71.1851 78.2422C71.2069 77.5868 71.2042 77.3683 71.0212 77.1963C70.9803 77.1581 70.942 77.1062 70.9011 77.0789C70.7645 76.9888 70.5952 77.2536 70.4915 77.7807C70.4314 78.1739 70.3904 78.5863 70.4423 79.0232C70.456 79.2389 70.516 79.4628 70.5734 79.684L70.7045 80.0117C70.7536 80.1209 70.8192 80.222 70.8792 80.3258C71.1387 80.7354 71.5046 81.0467 71.8077 81.2924C72.1163 81.5437 72.3429 81.7567 72.4713 81.9915L72.4904 82.0188V82.0216C72.4904 82.0216 72.4931 82.0216 72.4931 82.0352C72.4986 82.0516 72.5013 82.1035 72.504 82.1499C72.504 82.251 72.4931 82.3793 72.4767 82.5104C72.444 82.7725 72.3839 83.0565 72.3238 83.3433C72.2037 83.9167 72.0617 84.5038 71.9606 85.1237L71.9797 85.1292V85.121Z" fill="#231F20"/>
<path d="M71.964 96.6583L72.0186 98.7419L72.0432 99.7768L72.0541 100.506C72.0541 100.522 72.0541 100.539 72.0487 100.552C72.035 100.555 72.0186 100.552 72.005 100.552L71.8985 100.547C71.6445 100.536 71.3878 100.525 71.1311 100.528C70.6805 100.528 70.2272 100.539 69.7685 100.569C69.5391 100.585 69.3097 100.604 69.0748 100.637C68.9574 100.653 68.8373 100.673 68.7171 100.7C68.6652 100.711 68.5724 100.733 68.485 100.763C68.3976 100.787 68.3157 100.825 68.2392 100.866C68.1628 100.91 68.0972 100.965 68.0426 101.028L67.9989 101.077L67.988 101.137L67.9634 101.26C67.9388 101.336 67.9525 101.432 67.9525 101.525L67.9634 101.735C67.9798 101.959 67.9853 102.18 67.9907 102.404L68.0235 103.742C68.0426 104.534 68.0344 105.328 68.0344 106.112C68.0344 107.12 68.0017 108.133 68.1901 109.141C68.2938 109.455 68.2501 109.414 68.3512 109.146C68.4058 109.012 68.4659 108.824 68.5478 108.597C68.6188 108.368 68.6707 108.1 68.7035 107.811C68.7854 106.781 68.7936 105.752 68.7854 104.72C68.7772 104.203 68.769 103.687 68.7581 103.171L68.7335 102.396L68.7198 102.008C68.7198 101.885 68.7226 101.732 68.7198 101.634C68.7117 101.615 68.7035 101.593 68.7035 101.571C68.6953 101.549 68.7007 101.525 68.7226 101.514C68.739 101.5 68.7581 101.492 68.7799 101.484C68.7908 101.478 68.799 101.475 68.8154 101.473C68.8482 101.464 68.8782 101.456 68.9137 101.451C69.1895 101.396 69.4981 101.374 69.8067 101.361C70.4266 101.336 71.0601 101.352 71.6882 101.366L71.9913 101.374C72.1333 101.374 72.2862 101.393 72.42 101.38C72.4883 101.377 72.5457 101.358 72.5975 101.339C72.6248 101.328 72.6467 101.317 72.6685 101.306L72.6849 101.298C72.6412 101.246 72.674 101.281 72.6631 101.271L72.6685 101.265L72.6767 101.26L72.7095 101.232L72.7668 101.175C72.7778 101.148 72.7914 101.12 72.7996 101.09C72.8187 101.03 72.8297 100.965 72.8406 100.896C72.8542 100.76 72.8597 100.607 72.8597 100.479V100.192L72.857 99.6649L72.8133 97.5676C72.7969 96.7102 72.7805 95.85 72.786 94.9952C72.7914 94.3562 72.7969 93.7145 72.8297 93.081C72.846 92.7642 72.8679 92.4474 72.9061 92.1389C72.9252 91.9859 72.9498 91.833 72.9798 91.6856C73.0181 91.519 73.0317 91.4671 73.0809 91.3797C73.0863 91.3715 73.0918 91.3633 73.1 91.3579C73.13 91.3387 73.1655 91.3333 73.201 91.3278L73.3212 91.3087C73.4386 91.2923 73.5615 91.2787 73.6817 91.265C73.9247 91.2404 74.1705 91.2268 74.4135 91.2131C74.9023 91.1913 75.3938 91.1831 75.8799 91.1886C76.0929 91.1967 76.3032 91.2022 76.5189 91.2104C76.9149 91.2213 77.1716 91.2295 77.3491 91.2022C77.5293 91.1749 77.6358 91.1121 77.7423 91.0165C77.7887 90.9756 77.8515 90.9428 77.8898 90.9046C78.0263 90.8008 77.6904 90.4704 77.0596 90.3994C76.3523 90.3093 75.6478 90.2983 74.9296 90.3202C74.5719 90.3311 74.2114 90.3557 73.8482 90.3884C73.6653 90.4048 73.4823 90.4267 73.2939 90.454L73.1492 90.4758L73.0345 90.4977L72.9034 90.525C72.8187 90.5496 72.7341 90.5714 72.6631 90.6151C72.6248 90.6342 72.5975 90.6615 72.562 90.6861L72.5375 90.7052C72.5156 90.6943 72.5183 90.7161 72.5074 90.7189L72.461 90.7626C72.3272 90.9182 72.2507 91.1285 72.1907 91.336C72.1552 91.4753 72.1333 91.59 72.1087 91.7129C72.0678 91.9532 72.0432 92.1853 72.0213 92.4147C71.9012 93.8538 71.9258 95.2574 71.934 96.6638H71.9558L71.964 96.6583Z" fill="#231F20"/>
<path d="M89.4019 108.632C89.432 108.744 89.4593 108.856 89.4784 108.971C89.4866 109.012 89.4729 109.053 89.4784 109.094C89.5057 109.241 89.533 109.392 89.5385 109.539C89.5412 109.605 89.5275 109.667 89.5084 109.73C89.4838 109.809 89.4565 109.886 89.4948 109.981C89.5084 110.012 89.6095 110.033 89.7214 110.039C89.8334 110.044 89.9617 110.031 89.9918 109.984C90.0491 109.905 90.071 109.818 90.0819 109.728C90.0955 109.637 90.0955 109.545 90.0764 109.452C90.0546 109.34 90.1037 109.233 90.1119 109.121C90.1201 109.001 90.1201 108.878 90.1147 108.755C90.1147 108.682 90.1092 108.605 90.1065 108.531C90.1065 108.419 90.0846 108.305 90.101 108.196C90.1119 108.108 90.1693 108.024 90.2048 107.936C90.213 107.917 90.2293 107.898 90.2321 107.879C90.2375 107.808 90.1802 107.786 89.9672 107.783H89.8225C89.6586 107.783 89.5221 107.819 89.4729 107.868C89.3282 108.015 89.3309 108.157 89.3337 108.305C89.3337 108.414 89.3664 108.523 89.3828 108.635H89.4019V108.632Z" fill="#231F20"/>
<path d="M90.5491 91.6604C90.6147 91.5757 90.6857 91.4911 90.7621 91.4092C90.7894 91.3791 90.8304 91.3627 90.8577 91.33C90.9069 91.2726 90.9533 91.2125 90.9997 91.1497C91.0434 91.0842 91.0844 91.0187 91.1281 90.9559C91.1636 90.8985 91.2182 90.8603 91.2537 90.8057C91.3056 90.7401 91.3711 90.6882 91.3711 90.579C91.3684 90.5408 91.3411 90.5217 91.2782 90.4916C91.21 90.4561 91.1171 90.4179 91.0707 90.4315C90.8932 90.4698 90.7812 90.5517 90.6939 90.6828C90.6392 90.762 90.5519 90.8002 90.4754 90.8603C90.3935 90.9285 90.3116 90.9995 90.2269 91.076C90.175 91.1224 90.1231 91.1716 90.0712 91.218C89.9921 91.289 89.9211 91.3737 89.8364 91.4365C89.7709 91.4856 89.6726 91.502 89.607 91.5539C89.5934 91.5648 89.5742 91.573 89.5606 91.5867C89.5142 91.6385 89.5333 91.685 89.6371 91.8024L89.7081 91.8816C89.79 91.9662 89.8828 92.0154 89.9456 92.0181C89.9948 92.0181 90.0385 92.0181 90.0794 92.0181C90.1231 92.0181 90.1641 92.0127 90.1887 91.9963C90.2487 91.969 90.2979 91.928 90.3498 91.8898C90.4235 91.8324 90.4891 91.756 90.5601 91.6795L90.5519 91.6658L90.5491 91.6604Z" fill="#231F20"/>
<path d="M88.6298 89.9791L87.5593 90.0009C87.4282 90.0009 87.2999 89.9873 87.1688 89.99C86.7101 89.9982 86.2458 90.0364 85.7843 90.061C85.5795 90.0692 85.3747 90.0692 85.1699 90.0665C85.0388 90.0665 84.905 90.0719 84.7739 90.0883C84.6401 90.1074 84.5063 90.132 84.378 90.2085C84.2988 90.2522 84.3261 90.2877 84.4053 90.345C84.4872 90.3996 84.6101 90.5116 84.7521 90.528C85.0033 90.5771 85.2627 90.5826 85.5222 90.5853C85.7843 90.5935 86.0465 90.588 86.3114 90.5717C86.6281 90.5525 86.9586 90.5935 87.2835 90.6044L88.3594 90.6263L89.023 90.6399C89.3562 90.6509 89.6948 90.6563 90.0252 90.6754C90.2846 90.6863 90.5331 90.7655 90.7926 90.771C90.8499 90.7737 90.9045 90.7819 90.9619 90.7819C91.1776 90.7737 91.2459 90.7191 91.2896 90.5799C91.3005 90.5471 91.3141 90.517 91.3196 90.4843C91.3387 90.3805 91.2541 90.2877 91.1039 90.2276C90.6615 90.0419 90.1891 90.0009 89.7084 89.9763C89.3507 89.9627 88.993 89.9682 88.6325 89.96V89.9763L88.6298 89.9791Z" fill="#231F20"/>
<path d="M88.5996 90.9264C87.2615 90.8227 85.9425 90.809 84.5799 90.9701L84.3587 91.0029C84.274 91.0193 84.2249 91.0275 84.1075 91.0521C83.8726 91.1067 83.6432 91.2132 83.5367 91.4262C83.5012 91.5026 83.4739 91.5873 83.4521 91.6719L83.4248 91.7976L83.4084 91.8822C83.392 91.9942 83.3783 92.1007 83.3701 92.2072C83.3401 92.6113 83.3374 92.9964 83.3319 93.3787C83.3319 93.5534 83.3237 93.8129 83.3265 93.8292C83.3265 93.862 83.3264 93.8948 83.321 93.9276C83.321 93.9494 83.3019 93.9521 83.2855 93.9521L83.2391 93.9603L83.179 93.9658L83.0534 93.974L82.7175 93.9849C82.4908 93.9904 82.2669 93.9931 82.0375 93.9931C81.5842 93.9931 81.1255 93.9794 80.6694 93.9658L79.7382 93.9276L79.274 93.903L79.0419 93.8921H78.9709L78.919 93.8811H78.8289C78.7988 93.8675 78.807 93.8238 78.8016 93.7992C78.8016 93.7419 78.8016 93.6927 78.8043 93.6326L78.8125 93.2804C78.818 93.0428 78.8234 92.8025 78.8207 92.5594C78.8152 92.0788 78.7879 91.5791 78.5913 91.1094C78.4602 90.8199 78.4438 90.88 78.3947 91.1422C78.3674 91.2732 78.2991 91.4562 78.25 91.6665C78.2226 91.773 78.1899 91.8849 78.1708 92.0078C78.1544 92.128 78.1407 92.2563 78.1353 92.3874C78.1216 92.7096 78.0943 93.0319 78.0724 93.365L78.0561 93.619C78.0561 93.7719 78.0424 93.9467 78.0561 94.1078C78.0697 94.2689 78.1271 94.4 78.2172 94.4901C78.2609 94.5502 78.3291 94.5666 78.392 94.5911L78.5831 94.6621L78.818 94.6785C78.8917 94.6894 78.9927 94.6894 79.0146 94.6922L79.2521 94.7004L79.73 94.7195L80.694 94.7522C81.3385 94.7714 81.9911 94.7796 82.6519 94.7522C82.7776 94.7468 82.9032 94.7413 83.0315 94.7359L83.2582 94.7249C83.3647 94.7195 83.4712 94.7113 83.5804 94.7058L83.8207 94.6239C83.8398 94.613 83.8671 94.6184 83.8753 94.5966C83.8972 94.5884 83.9108 94.5693 83.9245 94.5529C83.9491 94.5174 83.9709 94.4846 83.99 94.4437C84.0665 94.2907 84.0774 94.075 84.0856 93.8866C84.0911 93.6381 84.0993 93.3869 84.1047 93.1356C84.1102 92.9008 84.1184 92.6659 84.132 92.4366C84.1402 92.3219 84.1484 92.2099 84.1593 92.1007L84.1812 91.9423C84.1866 91.9122 84.1894 91.9013 84.1921 91.8795L84.1976 91.8631C84.203 91.8358 84.2249 91.8167 84.2522 91.8057C84.2658 91.8003 84.2768 91.7948 84.2904 91.7921C84.3041 91.7866 84.3095 91.7866 84.3505 91.7757C84.4898 91.7484 84.6427 91.7266 84.7983 91.7102C85.1069 91.6774 85.4264 91.6637 85.7459 91.6528C86.3849 91.6364 87.0294 91.6501 87.6711 91.6774C87.966 91.6911 88.2637 91.7102 88.5586 91.7347L89.001 91.7757L89.3369 91.8139C89.3833 91.8249 89.468 91.8085 89.4625 91.8795C89.4707 91.9314 89.4761 91.986 89.4816 92.0406L89.5007 92.4693L89.5144 92.9281L89.528 93.8484C89.5335 94.4628 89.5335 95.0772 89.528 95.6862C89.5171 96.6365 89.4625 97.5649 89.4461 98.5098C89.4434 98.7173 89.4324 98.9221 89.4352 99.1324C89.457 99.9107 89.5635 100.162 89.7711 100.309C89.8202 100.342 89.8694 100.389 89.9158 100.405C90.0715 100.462 90.1643 100.146 90.2107 99.5857C90.3008 97.9254 90.3336 96.1641 90.3418 94.3891C90.3418 93.8866 90.3418 93.3814 90.3363 92.8735C90.3309 92.6195 90.3254 92.3628 90.3145 92.1007C90.3145 92.0597 90.3063 91.9095 90.2954 91.7921C90.2845 91.6692 90.2681 91.5491 90.2326 91.4398C90.1971 91.3333 90.1397 91.2487 90.0551 91.1831L89.7711 91.0439L89.3423 90.9811L89.0884 90.9483L88.6078 90.8991V90.9182L88.5996 90.9264Z" fill="#231F20"/>
<path d="M84.0698 101.161C84.0152 101.163 83.9742 101.169 83.9087 101.177C83.8186 101.185 83.7285 101.196 83.6438 101.213C83.4745 101.248 83.3079 101.281 83.1687 101.344C83.0895 101.368 83.0321 101.404 82.972 101.439L82.8819 101.491L82.8109 101.554C82.7099 101.633 82.6607 101.737 82.5897 101.841C82.5378 101.964 82.5297 102.125 82.5788 102.231C82.6198 102.343 82.6908 102.444 82.7945 102.54C83.0021 102.734 83.3598 102.892 83.682 103.009C83.9633 103.11 84.2364 103.212 84.5177 103.288C85.5062 103.547 86.4947 103.733 87.486 103.913C87.9257 103.993 88.3653 104.072 88.8022 104.151C89.0835 104.2 89.362 104.26 89.646 104.293C89.93 104.331 90.2195 104.326 90.509 104.307C90.6892 104.293 90.6673 104.257 90.5308 104.165C90.4407 104.107 90.3451 104.042 90.2468 103.979C90.1294 103.9 89.9928 103.823 89.8345 103.78C88.723 103.493 87.6062 103.231 86.462 103.053C85.7793 102.938 85.0911 102.717 84.4275 102.504C84.2937 102.461 84.1599 102.417 84.0316 102.368L83.8268 102.294C83.7749 102.275 83.7203 102.25 83.6684 102.218C83.6165 102.19 83.5592 102.122 83.6056 102.073C83.652 102.007 83.7394 101.977 83.824 101.955C83.8732 101.942 83.9305 101.931 83.9824 101.925C84.0807 101.912 84.2063 101.903 84.3183 101.898C84.5504 101.884 84.788 101.882 85.0228 101.884C85.741 101.898 86.4702 101.958 87.1829 102.065C87.7372 102.149 88.2725 102.28 88.8104 102.409C88.9278 102.439 89.0425 102.469 89.1627 102.499C89.6051 102.597 89.7553 102.578 89.8863 102.466C89.9164 102.441 89.9519 102.417 89.9737 102.392C90.0447 102.31 89.8891 102.152 89.5668 102.024C88.6083 101.666 87.5679 101.447 86.5029 101.292C85.711 101.183 84.9136 101.098 84.0671 101.142V101.161H84.0698Z" fill="#231F20"/>
<path d="M102.795 105.516L103.669 105.71C103.775 105.735 103.876 105.779 103.985 105.803C104.368 105.885 104.75 105.978 105.14 106.046C105.312 106.076 105.479 106.125 105.648 106.166C105.861 106.226 106.088 106.246 106.312 106.248C106.383 106.248 106.38 106.216 106.334 106.155C106.287 106.098 106.203 105.997 106.091 105.934C105.894 105.814 105.689 105.738 105.485 105.656C105.277 105.582 105.075 105.495 104.854 105.454C104.589 105.399 104.34 105.268 104.081 105.175C103.794 105.074 103.505 104.976 103.207 104.897C103.024 104.845 102.838 104.798 102.655 104.752C102.374 104.681 102.087 104.629 101.801 104.569C101.58 104.522 101.361 104.438 101.129 104.4C101.077 104.394 101.028 104.375 100.976 104.375C100.779 104.378 100.719 104.435 100.697 104.634C100.692 104.681 100.687 104.725 100.684 104.771C100.684 104.921 100.766 105.047 100.88 105.09C100.968 105.123 101.055 105.156 101.14 105.186C101.227 105.208 101.315 105.227 101.402 105.246C101.582 105.282 101.762 105.314 101.945 105.35C102.221 105.405 102.505 105.459 102.792 105.536L102.797 105.519L102.795 105.516Z" fill="#231F20"/>
<path d="M42.6102 95.9346C42.6075 95.2656 42.6075 94.5965 42.6184 93.9248C42.6211 93.679 42.6457 93.436 42.6485 93.1902C42.6539 92.3245 42.6594 91.4589 42.643 90.5932C42.6403 90.2082 42.6539 89.8231 42.6566 89.4408C42.6566 89.1951 42.6594 88.9493 42.6621 88.7035C42.6566 88.5807 42.6375 88.4578 42.6239 88.3349L42.5966 88.1519C42.5856 88.0918 42.5583 88.029 42.542 87.969C42.4846 87.816 42.4873 87.8379 42.4136 87.969C42.3235 88.0973 42.1815 88.3349 42.1269 88.6134C42.0968 88.8619 42.0777 89.1077 42.0586 89.3562C42.0395 89.6047 42.0122 89.8505 42.0122 90.099C41.9985 90.596 41.9903 91.093 42.0095 91.5981C42.0368 92.1989 41.9712 92.8243 41.9521 93.4387C41.9303 94.1159 41.9166 94.7931 41.9084 95.4731L41.8975 96.7265C41.8975 97.3601 41.903 97.9963 41.9057 98.6244C41.9057 99.1132 41.8675 99.5938 41.8593 100.08C41.8565 100.186 41.8483 100.293 41.8511 100.399C41.8538 100.599 41.8784 100.73 41.9303 100.82C41.9767 100.91 42.045 100.957 42.1378 100.992C42.1788 101.008 42.217 101.03 42.2525 101.038C42.3617 101.068 42.5037 100.896 42.5501 100.604C42.6266 99.7468 42.6239 98.8538 42.6293 97.9527C42.6293 97.2836 42.6211 96.6091 42.6321 95.9346H42.6129H42.6102Z" fill="#231F20"/>
<path d="M59.3433 96.713L59.3024 94.2608L59.2723 93.0347L59.2532 92.4203L59.2395 92.0789L59.2286 91.8058C59.2232 91.7157 59.204 91.6338 59.1931 91.5464C59.1767 91.4973 59.1522 91.459 59.133 91.4154C59.1276 91.4044 59.1221 91.3962 59.1167 91.3853L59.1085 91.3717L59.103 91.3662V91.3635C59.0948 91.3689 59.1194 91.3498 59.0866 91.3771V91.3744C59.0702 91.3525 59.0539 91.3362 59.0375 91.3198C58.9747 91.2488 58.8709 91.2187 58.7644 91.1942C58.6552 91.1696 58.535 91.1641 58.4176 91.1587L58.2401 91.1532H58.1336C57.8578 91.1505 57.5902 91.1532 57.3198 91.1587C56.5252 91.1723 55.736 91.175 54.9468 91.1996C54.2122 91.2242 53.4749 91.246 52.743 91.2597C52.3771 91.2652 52.0112 91.2679 51.6507 91.2624C51.4705 91.2624 51.2903 91.2542 51.1155 91.246L50.9626 91.2351C50.9298 91.2324 50.8943 91.2297 50.8615 91.2187C50.8206 91.2133 50.8397 91.1696 50.8315 91.1423V91.0494V90.5907L50.8506 89.6103L50.8916 87.6442V87.3492C50.8943 87.2345 50.8998 87.1117 50.8752 87.0134C50.8643 86.9642 50.8561 86.9123 50.837 86.8713C50.8315 86.8604 50.8288 86.8495 50.8206 86.8413C50.7905 86.8522 50.7933 86.8304 50.7796 86.8277C50.7578 86.814 50.7387 86.8031 50.7168 86.7922C50.6404 86.7403 50.5366 86.713 50.4219 86.6993C50.3072 86.6884 50.1898 86.6802 50.0751 86.6775L49.8375 86.672L49.3678 86.6665C48.7452 86.6638 48.1253 86.672 47.5109 86.6857C46.7217 86.7075 45.9298 86.7294 45.1379 86.7812L44.5453 86.8277L43.9554 86.9096C43.7588 86.9396 43.5622 86.9724 43.3656 87.0079C43.2673 87.0215 43.1717 87.0598 43.0734 87.0871C42.9778 87.1198 42.8795 87.1362 42.7867 87.1854C42.5518 87.2864 42.4535 87.3383 42.4617 87.3492C42.4726 87.3656 42.5928 87.352 42.8085 87.3957C43.2427 87.4912 44.0128 87.6523 44.9112 87.6223C45.7058 87.5759 46.5032 87.5459 47.3006 87.524C48.098 87.5022 48.8981 87.4803 49.6873 87.4858L49.9795 87.4912H50.0478H50.056C50.056 87.4912 50.0696 87.4858 50.0778 87.4885C50.0805 87.494 50.0805 87.4994 50.0833 87.5049C50.0887 87.4366 50.0833 87.7315 50.0833 87.9172L50.0723 88.5207C50.0587 89.3263 50.045 90.1346 50.0505 90.9538V91.1641C50.0505 91.2515 50.0505 91.3389 50.0587 91.4263V91.4918C50.0669 91.5109 50.0778 91.5273 50.0833 91.5464L50.1297 91.6475L50.1734 91.743L50.1789 91.7567V91.7594C50.1707 91.7649 50.1952 91.7458 50.1625 91.7731L50.1679 91.7785L50.1898 91.8004C50.2034 91.814 50.2198 91.825 50.2335 91.8386C50.3673 91.926 50.542 91.9752 50.7305 91.997L50.8697 92.0134L50.9899 92.0243L51.1619 92.0352C51.3913 92.0462 51.6152 92.0516 51.8392 92.0571C52.287 92.0653 52.7349 92.0653 53.1827 92.0625C54.0784 92.0571 54.9741 92.0462 55.8643 92.0243L57.3908 91.9943C57.6448 91.9915 57.8987 91.9888 58.1472 91.9943H58.3275C58.352 91.9997 58.3766 92.0025 58.4012 92.0079C58.4285 92.0161 58.4121 92.0516 58.4203 92.0707L58.4476 92.7234L58.4804 93.5918L58.535 95.3285C58.5705 96.6693 58.5978 98.0102 58.5978 99.3482C58.5923 100.359 58.5978 101.385 58.5077 102.371C58.4968 102.494 58.4749 102.625 58.4613 102.674C58.4531 102.707 58.4449 102.748 58.4149 102.767C58.3848 102.786 58.3493 102.797 58.3165 102.808C58.2974 102.814 58.2838 102.816 58.2647 102.822L58.18 102.841C58.1227 102.852 58.0626 102.863 58.0025 102.871C57.8823 102.887 57.7595 102.904 57.6338 102.915C57.1368 102.964 56.6344 102.986 56.1319 103.005C55.8698 103.013 55.6104 103.021 55.3537 103.029C55.2199 103.035 55.0888 103.04 54.955 103.043C54.8621 103.048 54.7665 103.051 54.6792 103.068C54.5918 103.087 54.518 103.109 54.447 103.158C54.3624 103.302 54.346 103.496 54.3351 103.687L54.3132 104.083C54.305 104.343 54.2941 104.605 54.2859 104.864C54.2695 105.383 54.2586 105.899 54.2559 106.415C54.2504 106.757 54.2477 107.09 54.2422 107.434C54.2422 108.707 54.2777 109.105 54.458 109.384C54.4989 109.447 54.5399 109.531 54.5808 109.569C54.7201 109.703 54.8758 109.176 54.9167 108.237C54.955 107.434 54.9714 106.618 54.985 105.796C54.985 105.386 54.985 104.974 54.985 104.559C54.985 104.354 54.9877 104.149 54.9905 103.941V103.788L54.9959 103.715C54.9959 103.712 54.9959 103.712 54.9959 103.709C54.9959 103.704 54.9959 103.701 55.0014 103.698C55.0041 103.698 55.0069 103.698 55.0096 103.698H55.0123H55.0669L55.5202 103.685C55.8288 103.677 56.1374 103.668 56.446 103.663C56.7573 103.652 57.0686 103.641 57.3881 103.619C57.7076 103.597 58.0216 103.575 58.3739 103.51L58.4449 103.494C58.4804 103.485 58.5132 103.477 58.5459 103.469C58.6087 103.447 58.6743 103.428 58.7343 103.401C58.7944 103.373 58.8518 103.341 58.8982 103.294C58.9446 103.251 58.9992 103.212 59.0265 103.152C59.0975 103.043 59.1221 102.906 59.1685 102.784C59.1849 102.713 59.1877 102.677 59.1958 102.639L59.215 102.524C59.2559 102.229 59.2723 101.953 59.2914 101.672C59.3242 101.115 59.3406 100.566 59.3542 100.015C59.3761 98.914 59.3788 97.819 59.3761 96.724H59.357L59.3433 96.713Z" fill="#231F20"/>
<path d="M33.619 105.328C33.5589 105.686 33.5152 106.046 33.5043 106.41C33.4989 106.541 33.4716 106.672 33.4852 106.806C33.5071 107.272 33.6054 107.739 33.761 108.179C33.8211 108.376 33.9112 108.564 33.9904 108.755C34.0505 108.873 34.1269 108.985 34.2034 109.094C34.2389 109.151 34.299 109.189 34.3536 109.228C34.4082 109.266 34.4656 109.304 34.5229 109.34C34.5939 109.381 34.6185 109.337 34.6294 109.236C34.6321 109.14 34.6594 108.966 34.6103 108.851C34.5639 108.747 34.5366 108.635 34.4792 108.545C34.4382 108.441 34.4027 108.337 34.3591 108.236C34.3263 108.13 34.299 108.021 34.2607 107.914C34.228 107.805 34.2089 107.69 34.1761 107.578C34.1379 107.442 34.1433 107.294 34.1379 107.15C34.1433 107.002 34.1652 106.855 34.1706 106.71C34.1979 106.388 34.2252 106.06 34.2935 105.738L34.3563 105.44L34.4382 105.145C34.5256 104.85 34.6267 104.553 34.7714 104.28C34.826 104.173 34.8997 104.08 34.9735 103.985C35.0363 103.884 35.1127 103.799 35.1783 103.701C35.2083 103.66 35.2329 103.616 35.2575 103.57C35.3039 103.488 35.3148 103.419 35.3012 103.357C35.293 103.296 35.2575 103.239 35.2138 103.179C35.1947 103.154 35.181 103.127 35.1674 103.108C35.1346 103.059 34.968 103.037 34.8042 103.114C34.5748 103.236 34.4 103.414 34.2444 103.608C34.1106 103.815 34.0095 104.039 33.9167 104.269C33.8511 104.438 33.7965 104.615 33.7419 104.79C33.6982 104.968 33.6463 105.145 33.6108 105.323L33.6299 105.328H33.619Z" fill="#231F20"/>
<path d="M46.1576 110.153C50.4531 110.132 54.7486 110.126 59.0441 110.145C60.6116 110.162 62.179 110.178 63.7438 110.194C69.2681 110.219 74.7897 110.26 80.3141 110.325C82.7636 110.355 85.2295 110.41 87.6599 110.47C88.4409 110.492 89.2219 110.511 90.0056 110.533L92.354 110.568C93.1378 110.574 93.9188 110.585 94.7025 110.574L95.8767 110.555C96.2672 110.547 96.6605 110.497 97.051 110.481C98.0259 110.421 97.8948 110.388 97.0728 110.246C96.2509 110.08 94.7407 109.771 92.9412 109.716L90.549 109.618C89.7516 109.585 88.9542 109.583 88.1569 109.564C86.5621 109.536 84.9646 109.512 83.3671 109.484C80.1721 109.441 76.9689 109.413 73.7493 109.416C69.9017 109.416 65.8956 109.312 61.9606 109.271C57.6323 109.236 53.3013 109.217 48.9703 109.228C46.3051 109.239 43.6399 109.252 40.9774 109.263C38.9593 109.285 36.9386 109.304 34.9205 109.326C32.9025 109.353 30.8872 109.383 28.8855 109.411C25.7724 109.443 22.7194 109.473 19.6391 109.506C18.9619 109.514 18.2983 109.517 17.6129 109.539C15.0787 109.615 14.2759 109.695 13.7407 109.979C13.6205 110.039 13.4567 110.099 13.3884 110.151C13.1508 110.317 14.1913 110.495 16.0454 110.473C21.5452 110.446 27.3399 110.336 33.1592 110.276C37.482 110.222 41.8239 110.186 46.1576 110.178L46.1631 110.153H46.1576Z" fill="#231F20"/>
<path d="M47.2895 72.259L47.295 72.7287L47.3605 73.1902L47.4315 73.6489L47.5571 74.0913L47.6827 74.531C47.7401 74.6757 47.8029 74.8204 47.863 74.9624C47.9722 75.2573 48.1524 75.514 48.3054 75.7844C48.9908 76.8275 49.9766 77.5976 51.0115 78.1738C51.7734 78.5889 52.5654 78.933 53.3819 79.1869C56.2737 80.0389 59.2776 80.1645 62.2186 79.927C63.5239 79.8177 64.832 79.6375 66.1072 79.359C66.5168 79.2743 66.9237 79.1678 67.3306 79.0586C67.732 78.933 68.1335 78.8046 68.5267 78.6462C68.7233 78.5725 68.9199 78.4906 69.1084 78.3977C69.2995 78.3049 69.4989 78.2312 69.6736 78.1083C70.0368 77.8925 70.3891 77.6495 70.7086 77.371C71.1018 77.0187 71.0254 77.0487 70.6185 77.2262C70.4219 77.3218 70.1133 77.4092 69.761 77.5212C69.3951 77.6113 68.9855 77.7287 68.554 77.8898C65.4382 78.9193 62.0848 79.3262 58.7396 79.2415C56.738 79.1842 54.6517 78.8101 52.7674 78.0782C51.7352 77.6713 50.7548 77.1334 49.9465 76.4043C49.1382 75.6724 48.5757 74.733 48.3354 73.6626C48.3163 73.5807 48.2835 73.5015 48.2726 73.4195L48.2371 73.171L48.1688 72.674V72.1743C48.1688 72.0924 48.1661 72.0077 48.1688 71.9258L48.2043 71.68C48.2617 71.0165 48.5184 70.3884 48.8515 69.8204C49.3785 68.9657 50.1869 68.2884 51.1126 67.8624C52.0383 67.4337 53.0787 67.2507 54.1 67.278C54.4987 67.2698 54.892 67.3463 55.2825 67.3982C55.6648 67.4665 56.0307 67.5757 56.3884 67.7313C57.1039 68.0345 57.7784 68.4523 58.4119 68.922C58.6905 69.1295 58.9526 69.348 59.2202 69.5746C60.206 70.4212 60.5037 70.6997 60.8833 70.7406C60.9679 70.7516 61.069 70.7789 61.1372 70.7707C61.3639 70.757 61.1482 70.1945 60.4436 69.4545C59.922 68.9083 59.3404 68.4086 58.7041 67.958C58.0678 67.5102 57.3797 67.1033 56.6069 66.8111C56.2273 66.6609 55.804 66.5407 55.3917 66.4834C54.9848 66.4342 54.5807 66.3578 54.1656 66.3687C53.3409 66.3223 52.5025 66.4533 51.6942 66.6718C50.4954 67.0241 49.3622 67.7095 48.5402 68.7008C47.6964 69.6784 47.2731 70.9864 47.2677 72.248H47.2895V72.259Z" fill="#231F20"/>
<path d="M45.6767 101.994C44.4615 101.54 43.2327 101.161 41.9137 100.978C41.4331 100.912 40.8924 100.907 40.4282 100.994C39.5898 101.134 38.7952 101.36 38.006 101.614C37.2195 101.868 36.4495 102.163 35.693 102.488C35.0185 102.767 34.3522 103.078 33.7078 103.419C33.2954 103.64 32.8776 103.862 32.498 104.148C32.3123 104.301 32.1266 104.443 31.971 104.632L31.7307 104.897C31.657 104.992 31.5996 105.104 31.5341 105.202C31.3866 105.459 31.403 105.415 31.6187 105.284C31.8345 105.148 32.2768 104.998 32.7438 104.785C33.1507 104.588 33.5193 104.329 33.9344 104.132C34.1338 104.023 34.3413 103.924 34.5488 103.829C34.7564 103.731 34.9639 103.632 35.1742 103.542C36.0071 103.149 36.8645 102.788 37.7384 102.455C38.2627 102.261 38.8088 102.092 39.3659 101.964C39.9203 101.827 40.4883 101.732 41.0235 101.688C41.5997 101.636 42.2141 101.756 42.8231 101.885C43.432 102.021 44.0383 102.196 44.6363 102.395C45.3709 102.644 46.1 102.92 46.78 103.269L46.9575 103.365C47.0093 103.395 47.0612 103.427 47.1104 103.46C47.1595 103.496 47.2114 103.534 47.2496 103.583C47.2688 103.608 47.2852 103.635 47.2879 103.665C47.2879 103.695 47.266 103.722 47.2415 103.739C47.1595 103.796 47.053 103.802 46.952 103.804C46.9001 103.804 46.8482 103.804 46.7963 103.799L46.7171 103.793L46.6161 103.782C46.2584 103.741 45.8979 103.673 45.5402 103.602C44.6445 103.419 43.7788 103.165 42.875 102.985C42.6756 102.944 42.479 102.903 42.2742 102.873C41.5096 102.764 41.2256 102.873 41.0836 103.075C41.0508 103.122 41.0071 103.168 40.9935 103.209C40.9689 103.277 41.0371 103.332 41.1655 103.378C41.2966 103.433 41.4905 103.474 41.7471 103.509C42.5118 103.624 43.3119 103.821 44.1311 104.004C44.5407 104.096 44.9585 104.189 45.3818 104.274C45.5948 104.318 45.8078 104.356 46.0263 104.394L46.3567 104.443L46.5233 104.465L46.6188 104.476C46.6707 104.482 46.7253 104.487 46.7772 104.49C46.9329 104.495 47.0967 104.512 47.2415 104.503L47.4626 104.492C47.5282 104.482 47.5883 104.465 47.6511 104.451C47.7193 104.441 47.7658 104.416 47.8149 104.394C47.8695 104.375 47.916 104.35 47.9515 104.32C48.0416 104.269 48.0853 104.192 48.1645 104.116C48.1836 104.086 48.1972 104.045 48.2136 104.009C48.2 103.963 48.2327 103.924 48.2409 103.886C48.2573 103.848 48.2655 103.81 48.26 103.774C48.26 103.736 48.2546 103.703 48.2464 103.67C48.2409 103.602 48.2054 103.537 48.1781 103.471C48.1262 103.403 48.1044 103.335 48.0279 103.266C47.9078 103.13 47.7248 102.993 47.5309 102.87L47.2333 102.69L47.0366 102.586C46.5888 102.357 46.1382 102.163 45.6822 101.983L45.674 101.999L45.6767 101.994Z" fill="#231F20"/>
<path d="M65.2817 84.4846C65.4209 84.6921 65.4919 84.9406 65.5029 85.1891C65.5138 85.4704 65.4428 85.8227 65.156 85.9428C64.9704 86.022 64.7847 85.9729 64.6345 85.8473C64.5307 85.7599 64.4679 85.6343 64.4187 85.5114C64.3314 85.2793 64.2877 85.0198 64.2604 84.7741C64.2303 84.5037 64.315 84.1897 64.5744 84.0559C64.7328 83.9739 64.9512 84.0094 65.0413 84.1788C65.1233 84.3344 65.0878 84.5583 64.9185 84.6457C64.842 84.6839 64.9622 84.602 64.9239 84.6375C64.883 84.6785 64.9703 84.5611 64.9376 84.6239C64.9239 84.6484 64.9321 84.6321 64.9567 84.5774C64.954 84.5884 64.9485 84.5966 64.9458 84.6075C64.943 84.6211 64.9294 84.6949 64.9376 84.6266C64.9458 84.5583 64.9376 84.6348 64.9376 84.6512C64.9376 84.673 64.9376 84.6976 64.9376 84.7194C64.9376 84.7358 64.9403 84.7522 64.943 84.7713C64.9458 84.8014 64.943 84.7932 64.9403 84.744C64.9403 84.7604 64.9458 84.7768 64.9485 84.7904C64.9649 84.8997 64.9895 85.0089 65.0168 85.1181C65.0304 85.1728 65.0468 85.2246 65.0632 85.2793C65.0687 85.2984 65.0796 85.3175 65.0823 85.3366C65.0605 85.2847 65.055 85.2738 65.0714 85.3066C65.0769 85.3175 65.0823 85.3284 65.0905 85.3393C65.1205 85.3967 65.0332 85.2793 65.0878 85.3366C65.1424 85.3939 65.0277 85.3038 65.0769 85.3311C65.0414 85.3093 65.0031 85.3011 64.9622 85.3011C64.9867 85.3011 64.9813 85.3011 64.9485 85.3038C64.8966 85.3093 64.8092 85.3421 64.7956 85.4021C64.801 85.3912 64.8092 85.383 64.812 85.3721C64.7901 85.4267 64.7847 85.4376 64.7983 85.4021C64.8038 85.383 64.8092 85.3666 64.812 85.3475C64.8147 85.3339 64.8174 85.3202 64.8202 85.3066C64.8256 85.2683 64.8256 85.2792 64.8174 85.3339C64.8174 85.3147 64.8202 85.2902 64.8229 85.2711C64.8229 85.2219 64.8229 85.1728 64.8174 85.1236C64.812 85.0854 64.8147 85.0963 64.8202 85.1509C64.8202 85.1373 64.8147 85.1236 64.812 85.1099C64.8065 85.0881 64.8038 85.069 64.7983 85.0499C64.7901 85.0226 64.7819 84.9953 64.7737 84.9707C64.7683 84.957 64.7628 84.9434 64.7574 84.9324L64.7737 84.9761C64.7737 84.9761 64.7437 84.9133 64.7355 84.9024C64.7219 84.8778 64.7055 84.8533 64.6918 84.8314C64.5935 84.6812 64.659 84.4464 64.8147 84.3644C64.9867 84.2743 65.1752 84.3289 65.2817 84.4873V84.4846Z" fill="#231F20"/>
<path d="M61.4394 85.3089C61.5596 85.4755 61.6442 85.6776 61.6743 85.8797C61.7152 86.1527 61.7289 86.5105 61.4722 86.6825C61.3111 86.7917 61.0981 86.7508 60.9534 86.6388C60.8578 86.5651 60.7841 86.4641 60.7185 86.363C60.6093 86.1937 60.5301 85.9971 60.4864 85.8005C60.4318 85.5465 60.429 85.2953 60.4755 85.0413C60.5082 84.8638 60.7322 84.7491 60.896 84.8037C61.0844 84.8638 61.1691 85.0359 61.1336 85.2243C61.1336 85.2379 61.1281 85.2516 61.1281 85.2625C61.1227 85.298 61.1254 85.2898 61.1336 85.2325C61.1336 85.2516 61.1281 85.2734 61.1281 85.2925C61.1254 85.339 61.1227 85.3854 61.1254 85.4318C61.1281 85.4782 61.1254 85.5274 61.1363 85.5711L61.1309 85.5192C61.1309 85.5192 61.1363 85.5465 61.1363 85.5602C61.1391 85.5793 61.1445 85.5984 61.1472 85.6202C61.1582 85.6667 61.1691 85.7104 61.1827 85.7568C61.1909 85.7786 61.1964 85.8005 61.2046 85.8223C61.2073 85.8305 61.2128 85.8414 61.2155 85.8496C61.2292 85.8824 61.2264 85.8742 61.2046 85.8223C61.2319 85.8578 61.2455 85.9097 61.2674 85.9479C61.2892 85.9862 61.3111 86.0217 61.3357 86.0572C61.3493 86.079 61.4039 86.1336 61.3357 86.0599C61.3493 86.0735 61.3602 86.0872 61.3739 86.1036C61.4012 86.1282 61.393 86.12 61.3493 86.0845C61.3739 86.0981 61.3712 86.0981 61.3411 86.0845C61.292 86.0599 61.2401 86.0572 61.1827 86.0736C61.0899 86.1036 61.0326 86.1582 61.008 86.2401C61.008 86.2292 61.0134 86.1992 61.0189 86.1855C61.0107 86.2429 61.0107 86.251 61.0134 86.2155C61.0134 86.2019 61.0134 86.1882 61.0162 86.1746C61.0162 86.1309 61.0162 86.0845 61.0162 86.0408C60.9916 85.9425 61.0162 86.0107 61.0162 86.0408C61.0107 86.0217 61.008 85.9998 61.0052 85.9807C60.9943 85.9343 60.9807 85.8879 60.9643 85.8414C60.9588 85.8278 60.9534 85.8169 60.9506 85.8032L60.9697 85.8469C60.9561 85.836 60.9424 85.7895 60.9342 85.7732C60.9124 85.7322 60.8851 85.6912 60.8551 85.653C60.8059 85.5847 60.8004 85.4673 60.8196 85.3909C60.8387 85.3144 60.9015 85.227 60.9752 85.1861C61.0544 85.1451 61.15 85.1232 61.2374 85.1505C61.3247 85.1779 61.3848 85.2325 61.4422 85.3062L61.4394 85.3089Z" fill="#231F20"/>
<path d="M64.1561 80.9455C64.9944 80.7325 65.8601 80.5987 66.682 80.3147C66.8841 80.2437 67.1381 80.3939 67.1872 80.6014C67.2391 80.8281 67.1189 81.0302 66.9005 81.1066C66.0813 81.3906 65.2156 81.5244 64.3745 81.7374C64.167 81.7893 63.9212 81.6692 63.8693 81.4507C63.8174 81.2322 63.9321 81.0029 64.1561 80.9455Z" fill="#231F20"/>
<path d="M61.6845 81.8078C61.5644 81.7804 61.4415 81.7613 61.3186 81.7422C61.2804 81.7367 61.2449 81.7313 61.2067 81.7258C61.1493 81.7176 61.223 81.7258 61.2394 81.7313C61.223 81.7313 61.2067 81.7258 61.1875 81.7258C61.1138 81.7176 61.0401 81.7067 60.9691 81.6985C60.7015 81.6685 60.4339 81.6439 60.1635 81.6248C59.9505 81.6084 59.743 81.4473 59.7539 81.2152C59.7621 81.0076 59.9341 80.7892 60.1635 80.8056C60.7424 80.8492 61.3323 80.8957 61.9003 81.0186C62.1105 81.065 62.2525 81.3189 62.187 81.5237C62.116 81.7449 61.9085 81.8596 61.6818 81.8105L61.6845 81.8078Z" fill="#231F20"/>
<path d="M67.7289 90.571C67.718 91.1063 67.5077 91.6279 67.1308 92.0102C66.754 92.3925 66.2351 92.6082 65.6999 92.63C65.5033 92.6382 65.3149 92.4525 65.3231 92.2532C65.3313 92.0429 65.4869 91.8845 65.6999 91.8764C65.7272 91.8764 65.7545 91.8764 65.7818 91.8709C65.8092 91.8654 65.8829 91.8764 65.79 91.8709C65.8337 91.8709 65.8938 91.8518 65.9375 91.8436C65.9866 91.8327 66.0331 91.819 66.0822 91.8026C66.1068 91.7944 66.1341 91.7835 66.1587 91.7753C66.115 91.7972 66.2242 91.7535 66.1587 91.7753C66.2515 91.7289 66.3444 91.6825 66.4318 91.6224C66.4509 91.6087 66.4673 91.5951 66.4864 91.5842C66.4318 91.6306 66.5246 91.5569 66.4864 91.5842C66.5273 91.5487 66.5683 91.5132 66.6065 91.4749C66.642 91.4394 66.6721 91.4012 66.7048 91.363C66.6639 91.4203 66.7349 91.3275 66.7048 91.363C66.7212 91.3411 66.7349 91.3193 66.7513 91.2947C66.8031 91.2155 66.866 91.1227 66.8933 91.0325C66.866 91.1254 66.8878 91.038 66.8933 91.0216C66.9015 90.997 66.9124 90.9697 66.9178 90.9452C66.9315 90.9015 66.9424 90.8578 66.9533 90.8141C66.9588 90.7868 66.9643 90.7622 66.9697 90.7349C66.9697 90.7212 66.9752 90.7076 66.9752 90.6939C66.9807 90.6639 66.9779 90.6748 66.9697 90.7267C66.9888 90.6939 66.9779 90.6038 66.9806 90.5656C66.9834 90.369 67.15 90.1805 67.3575 90.1887C67.565 90.1969 67.7371 90.3526 67.7343 90.5656L67.7289 90.571Z" fill="#231F20"/>
<path d="M61.3901 87.2261C61.2699 87.7831 61.1498 88.3484 61.1088 88.9683C61.0979 89.195 61.0733 89.4353 61.1307 89.7029C61.1771 89.9323 61.3136 90.219 61.5785 90.3965C61.8407 90.5631 62.1028 90.5822 62.3185 90.5603C62.7582 90.5221 63.1132 90.3692 63.4518 90.2026C63.7522 90.0524 64.0335 89.8749 64.2956 89.6783C64.6261 89.4271 64.9592 89.1267 65.1012 88.7116C65.1449 88.586 65.123 88.5996 65.0357 88.6734C64.9592 88.7553 64.7599 88.84 64.5796 88.9574C64.2656 89.184 63.9051 89.3533 63.5501 89.4926C63.2006 89.6401 62.8429 89.7848 62.5042 89.8449C62.3076 89.8886 62.1028 89.8449 62.0509 89.7848C62.0264 89.7575 62.0045 89.722 61.9909 89.6455C61.969 89.58 61.9581 89.4817 61.9499 89.3806C61.928 88.9164 62.0455 88.3593 62.1711 87.8296C62.2503 87.4991 62.3377 87.1687 62.4305 86.8356C62.5698 86.3331 62.7009 85.8197 62.8538 85.3145C62.9712 84.9213 63.1296 84.5445 63.2252 84.1212C63.247 84.0283 63.2716 83.9328 63.2798 83.8345C63.3016 83.4603 63.1951 83.3101 62.9603 83.2856C62.9057 83.2801 62.851 83.2692 62.7992 83.2719C62.7118 83.2774 62.6381 83.3238 62.5807 83.3811C62.5261 83.4385 62.4797 83.515 62.4524 83.6105C62.2476 84.2605 62.04 84.9186 61.8297 85.5876C61.6659 86.1146 61.5075 86.6553 61.3682 87.2124L61.3901 87.2206V87.2261Z" fill="#231F20"/>
<path d="M85.2711 100.385C85.2465 100.382 85.1946 100.352 85.2165 100.32C85.2246 100.301 85.241 100.29 85.2601 100.279C85.2711 100.273 85.282 100.27 85.2956 100.265L85.3666 100.254C85.3967 100.249 85.4295 100.246 85.4622 100.243C85.7271 100.216 86.0084 100.216 86.2924 100.232C86.5928 100.249 86.8904 100.298 87.1935 100.336C88.2585 100.47 89.329 100.691 90.3749 100.991C90.8391 101.125 91.2951 101.292 91.7348 101.477C92.0161 101.598 92.2946 101.729 92.5677 101.86C92.707 101.923 92.849 101.977 92.9937 102.032C93.133 102.092 93.2777 102.144 93.4279 102.19C93.6163 102.245 93.63 102.179 93.548 101.996C93.4716 101.805 93.2777 101.505 92.9664 101.295C91.8031 100.688 90.5633 100.292 89.2853 100.041C88.5207 99.8936 87.7397 99.6888 86.9423 99.5878C86.5409 99.5386 86.1367 99.5059 85.7216 99.5113C85.6179 99.5113 85.5114 99.5168 85.4076 99.525C85.3557 99.525 85.3011 99.5359 85.2465 99.5414C85.2001 99.5496 85.1018 99.555 85.0335 99.5796C84.7249 99.6397 84.4628 99.7708 84.3262 100.003C84.2661 100.09 84.2279 100.172 84.2197 100.276C84.2197 100.642 84.5747 100.874 84.9243 101.057C85.1919 101.188 85.4376 101.278 85.6943 101.371C86.4671 101.639 87.2509 101.838 88.0155 102.065C88.6108 102.239 89.1843 102.447 89.7605 102.641C89.8888 102.684 90.009 102.734 90.1373 102.775C90.6097 102.933 90.779 102.908 90.9374 102.78C90.9729 102.75 91.0166 102.725 91.0412 102.695C91.1258 102.6 90.9729 102.403 90.6316 102.234C89.6103 101.781 88.4988 101.464 87.4065 101.125C86.9996 101 86.5955 100.874 86.1995 100.737C86.0029 100.669 85.8063 100.598 85.6233 100.522C85.5278 100.486 85.4376 100.445 85.3503 100.407L85.2929 100.38H85.2875H85.2793L85.2629 100.391L85.2711 100.385Z" fill="#231F20"/>
<g opacity="0.55">
<path d="M77.1477 102.838C77.3006 103.007 77.4535 103.179 77.601 103.357C77.6556 103.419 77.6966 103.493 77.7512 103.556C77.9451 103.78 78.1417 104.004 78.3219 104.239C78.4011 104.342 78.4694 104.457 78.5349 104.569C78.6169 104.714 78.6824 104.872 78.808 104.99C78.8845 105.066 79.1521 104.755 79.0647 104.577C78.9036 104.269 78.7179 103.974 78.4803 103.712C78.3383 103.556 78.24 103.359 78.1144 103.187C77.9779 102.996 77.8277 102.813 77.6802 102.63L77.4044 102.294C77.2679 102.125 77.1204 101.961 76.9948 101.784C76.8965 101.647 76.8255 101.492 76.7408 101.344C76.7217 101.311 76.708 101.276 76.6862 101.246C76.607 101.131 76.5497 101.123 76.4077 101.205C76.3749 101.224 76.3421 101.24 76.3121 101.259C76.2083 101.33 76.1646 101.437 76.2029 101.535C76.3121 101.827 76.4978 102.068 76.6917 102.311C76.8391 102.486 76.9866 102.663 77.134 102.841L77.145 102.832L77.1477 102.838Z" fill="#231F20"/>
</g>
<path d="M75.2083 106.052C75.2984 106.131 75.3858 106.207 75.4732 106.289C75.5032 106.319 75.5196 106.357 75.5524 106.387C75.6671 106.488 75.7872 106.584 75.8964 106.688C75.9456 106.734 75.9811 106.789 76.0166 106.846C76.0603 106.92 76.0821 107.005 76.1804 107.04C76.2405 107.062 76.5983 106.723 76.5573 106.633C76.4781 106.478 76.3743 106.341 76.2105 106.248C76.1149 106.191 76.0739 106.087 76.0057 106.005C75.9292 105.918 75.8473 105.83 75.7681 105.746C75.7189 105.691 75.6698 105.639 75.6234 105.585C75.5524 105.503 75.4732 105.423 75.4186 105.331C75.3776 105.257 75.3667 105.164 75.3448 105.079C75.3394 105.06 75.3394 105.038 75.3312 105.022C75.3011 104.959 75.252 104.967 75.0991 105.06L74.9953 105.123C74.8779 105.2 74.8014 105.287 74.7987 105.35C74.7905 105.538 74.8697 105.672 74.9653 105.798C75.0363 105.89 75.1182 105.975 75.1974 106.062L75.211 106.054L75.2083 106.052Z" fill="#231F20"/>
<g opacity="0.75">
<path d="M48.401 97.2291L48.9226 96.5546C48.9881 96.4727 49.0646 96.4044 49.1274 96.3225C49.3513 96.033 49.5698 95.7381 49.7992 95.4541C49.9002 95.3285 50.0149 95.2111 50.1269 95.0991C50.2771 94.9571 50.4327 94.8206 50.531 94.6294C50.5611 94.5693 50.4764 94.5011 50.3562 94.4656C50.2388 94.4301 50.0832 94.4219 49.9903 94.4983C49.6817 94.7851 49.4032 95.1018 49.1602 95.4541C49.0154 95.6671 48.8134 95.8392 48.6413 96.033L48.0788 96.6802L47.7347 97.0789C47.5572 97.2783 47.3879 97.4858 47.1995 97.6688C47.052 97.8108 46.8827 97.9282 46.7216 98.0565C46.6861 98.0838 46.6479 98.1084 46.6151 98.1385C46.4922 98.2532 46.4895 98.3214 46.5905 98.4662C46.6151 98.4989 46.6342 98.5344 46.6615 98.5645C46.7489 98.6682 46.8772 98.6955 46.9892 98.6327C47.3224 98.4498 47.5982 98.1821 47.8521 97.8954C48.0433 97.6851 48.2235 97.4612 48.4065 97.24L48.3956 97.2291H48.401Z" fill="#231F20"/>
</g>
</svg>
