<svg width="380" height="380" viewBox="0 0 380 380" fill="none" xmlns="http://www.w3.org/2000/svg">
<path opacity="0.13" d="M189.531 198.967C190.745 199.398 190.745 208.16 185.344 205.902C185.344 205.902 188.969 214.269 194.61 216.849C200.245 219.428 213.216 218.69 213.844 207.912C214.473 197.133 207.596 193.852 207.596 193.852L191.877 198.967L189.524 198.967L189.531 198.967Z" fill="#12111F"/>
<path opacity="0.13" d="M222.316 191.549C222.316 191.549 223.594 195.495 220.788 196.621C220.788 196.621 230.515 204.301 231.099 206.471C231.691 208.642 232.729 208.474 232.729 208.474C232.729 208.474 236.975 205.909 236.865 203.249C236.756 200.589 235.718 192.309 232.729 189.247C229.74 186.192 222.308 191.549 222.308 191.549L222.316 191.549Z" fill="#12111F"/>
<path d="M214.575 252.576C214.575 252.576 208.831 254.542 210 255.857C211.17 257.173 217.973 260.885 220.545 263.815C223.118 266.746 203.986 256.471 203.986 256.471L204.98 254.695L214.575 252.583L214.575 252.576Z" fill="#12111F"/>
<path opacity="0.75" d="M134.828 260.563L142.201 255.856C139.797 257.091 137.334 258.641 134.828 260.563Z" fill="#12111F"/>
<path opacity="0.78" d="M140.389 257.012C150.715 251.655 159.586 250.771 166.39 251.802C167.837 252.021 170.621 252.934 171.242 253.731C173.325 258.284 176.818 263.903 180.559 267.279C187.436 273.476 198.383 272.643 201.956 264.203C202.504 262.902 206.414 263.53 208.065 263.815C214.262 264.89 224.661 269.077 230.047 273.44C228.227 271.686 224.844 267.623 224.844 267.623L206.202 258.203L200.918 255.996C200.918 255.996 193.896 266.227 188.349 264.203C180.004 261.155 178.352 249.741 178.352 249.741C178.352 249.741 173.924 246.343 170.511 246.343C167.098 246.343 153.382 248.71 153.382 248.71L140.382 257.012L140.389 257.012Z" fill="#12111F"/>
<path opacity="0.75" d="M229.017 271.648C230.822 273.388 232.108 274.615 230.032 272.555C229.733 272.255 229.389 271.955 229.017 271.648Z" fill="#12111F"/>
<path d="M201.232 254.256C201.232 254.256 199.515 264.202 191.879 264.166C185.17 264.136 180.121 256.756 179.141 255.104C178.155 253.453 177.022 244.786 177.022 244.786L178.345 240.438C178.345 240.438 183.577 247.672 189.533 250.771C195.489 253.869 201.232 254.256 201.232 254.256Z" fill="#12111F"/>
<path d="M196.233 219.406C197.891 219.873 199.616 220.115 201.333 220.042C201.962 220.027 202.59 219.99 203.204 219.888C205.389 219.508 207.457 218.565 209.167 217.221C209.92 216.607 210.643 215.964 211.257 215.226C211.462 214.999 211.659 214.765 211.842 214.51C212.017 214.254 212.236 214.035 212.368 213.75L212.792 212.931C212.909 212.646 213.018 212.368 213.135 212.083C213.274 211.725 213.172 211.74 212.909 211.967C212.653 212.193 212.222 212.61 211.769 213.114C211.038 214.049 210.329 214.985 209.452 215.759C208.583 216.541 207.611 217.213 206.566 217.762C205.309 218.434 203.833 218.733 202.386 218.88C200.793 219.048 199.163 218.938 197.585 218.573C196.613 218.346 195.655 218.054 194.749 217.637C193.361 217.031 192.038 216.242 190.905 215.248C190.014 214.48 189.29 213.589 188.596 212.683C188.435 212.485 188.304 212.273 188.158 212.069C187.58 211.316 187.376 211.09 187.061 211.031C186.996 211.017 186.915 210.987 186.857 210.987C186.667 210.987 186.74 211.397 187.01 212.098C187.478 213.085 188.085 214.071 188.845 214.941C189.626 215.796 190.533 216.548 191.497 217.213C192.944 218.193 194.537 218.953 196.211 219.442L196.211 219.413L196.233 219.406Z" fill="#12111F"/>
<path d="M228.818 141.674C234.072 138.13 260.212 139.511 254.475 163.626C254.475 163.626 247.628 172.293 235.483 171.402C223.337 170.51 226.662 170.094 226.662 170.094C226.662 170.094 223.476 176.451 215.774 176.575C208.071 176.7 205.046 173.272 205.046 173.272C205.046 173.272 210.432 179.659 194.603 180.96C178.775 182.261 174.018 176.188 174.018 176.188C174.018 176.188 177.372 187.859 175.318 193.844C173.265 199.829 171.898 203.241 171.898 203.241C171.898 203.241 174.061 204.937 176.312 208.466C178.563 211.996 179.155 218.821 176.312 219.062C173.469 219.304 169.341 216.015 167.039 212.734C164.737 209.453 162.939 209.131 162.939 209.131C162.939 209.131 154.937 210.074 154.937 213.764C154.937 215.774 143.128 206.822 140.57 203.241C138.012 199.66 132.678 190.102 132.349 180.96C132.02 171.818 133.321 161.47 139.043 156.004C144.765 150.538 156.253 143.442 162.238 143.406C168.223 143.369 178.497 145.686 183.591 148.09C188.677 150.494 187.449 151.313 187.449 151.313C187.449 151.313 190.043 141.038 196.284 134.98C205.185 126.342 228.818 122.25 228.818 141.667L228.818 141.674Z" fill="#12111F"/>
<path d="M179.557 257.808C180.821 259.855 182.378 261.813 184.453 263.26C185.199 263.793 185.988 264.298 186.865 264.634C188.407 265.218 190.087 265.408 191.673 265.233C192.47 265.153 193.244 264.985 193.99 264.758C194.742 264.546 195.495 264.246 196.175 263.859C197.395 263.172 198.499 262.295 199.405 261.25C199.953 260.556 200.442 259.803 200.764 258.978C200.917 258.561 201.005 258.123 201.071 257.691C201.129 257.48 201.085 257.246 201.056 257.019C201.042 256.8 201.056 256.588 201.042 256.376C201.012 255.843 201.005 255.923 200.793 256.325C200.684 256.522 200.559 256.815 200.172 257.078C199.865 257.355 199.602 257.677 199.302 258.006C198.879 258.62 198.425 259.19 197.892 259.679C197.38 260.183 196.869 260.673 196.284 261.082C195.1 261.886 193.822 262.478 192.324 262.843C190.555 263.311 188.67 262.887 187.077 262.032C185.301 261.09 183.774 259.555 182.568 257.765C181.822 256.661 181.172 255.477 180.631 254.235C179.805 252.357 179.126 250.376 178.724 248.36C178.41 246.788 178.359 245.21 178.329 243.639C178.315 243.295 178.359 242.952 178.315 242.608C178.264 241.965 178.205 241.549 178.044 241.256C177.869 240.964 177.62 240.796 177.321 240.657C177.182 240.591 177.058 240.511 176.948 240.475C176.751 240.409 176.583 240.511 176.349 240.76C176.108 241.008 175.896 241.403 175.837 241.914C175.56 243.427 175.64 244.976 175.794 246.54C175.969 248.104 176.283 249.668 176.722 251.21C177.357 253.504 178.3 255.74 179.513 257.852L179.572 257.823L179.557 257.808Z" fill="#12111F"/>
<path d="M232.513 200.065C232.958 200.767 233.207 201.651 233.163 202.492C233.119 203.449 232.783 204.545 231.899 205.057C231.358 205.371 230.722 205.429 230.145 205.188C229.655 204.983 229.29 204.625 229.027 204.165C228.815 203.8 228.661 203.383 228.508 202.989C228.376 202.652 228.267 202.316 228.179 201.965C227.953 201.008 227.894 199.934 228.281 199.006C228.428 198.662 228.574 198.385 228.91 198.187C229.202 198.012 229.633 197.946 229.962 198.049C230.291 198.151 230.613 198.363 230.781 198.677C230.949 198.991 231.058 199.4 230.92 199.729C230.817 199.978 230.751 200.226 230.708 200.489L230.759 200.124C230.722 200.438 230.73 200.76 230.766 201.074L230.715 200.708C230.803 201.337 231 201.936 231.248 202.513L231.11 202.185C231.19 202.382 231.27 202.579 231.38 202.762C231.395 202.784 231.453 202.85 231.446 202.872C231.446 202.842 231.219 202.623 231.343 202.74C231.387 202.784 231.533 202.908 231.343 202.755C231.161 202.609 231.292 202.711 231.358 202.733L231.029 202.594C231.029 202.594 231.102 202.616 231.139 202.623L230.773 202.572C230.839 202.579 230.89 202.579 230.956 202.572L230.591 202.623C230.649 202.609 230.7 202.594 230.759 202.572L230.43 202.711C230.481 202.682 230.635 202.572 230.437 202.718C230.189 202.901 230.423 202.703 230.43 202.696C230.401 202.711 230.24 202.974 230.328 202.82C230.357 202.762 230.386 202.711 230.415 202.652L230.276 202.981C230.357 202.784 230.408 202.579 230.437 202.367L230.386 202.733C230.423 202.462 230.423 202.192 230.386 201.914L230.437 202.28C230.401 202.031 230.335 201.797 230.24 201.563L230.379 201.892C230.306 201.732 230.233 201.578 230.138 201.432C229.75 200.825 229.991 199.897 230.627 199.554C231.307 199.196 232.089 199.4 232.505 200.044L232.513 200.065Z" fill="#12111F"/>
<path d="M133.468 173.981C134.082 168.223 136.099 162.516 139.475 157.788C140.096 156.925 140.761 156.129 141.514 155.383L142.661 154.258L143.231 153.688L143.831 153.155C146.615 150.604 149.779 148.456 153.236 146.921C156.685 145.379 160.419 144.451 164.219 144.225C167.595 144.005 171.008 144.517 174.26 145.365L175.816 145.832L176.591 146.066C176.847 146.154 177.095 146.263 177.351 146.366C178.352 146.789 179.383 147.14 180.376 147.579C181.356 148.046 182.342 148.507 183.336 148.953L184.79 149.698L185.521 150.063L185.886 150.246L186.069 150.341C186.106 150.341 186.113 150.399 186.179 150.363L186.281 150.385C186.983 150.546 187.311 150.582 187.348 150.495C187.384 150.4 187.143 150.151 186.793 149.603C186.449 149.048 185.835 148.426 185.083 147.681C184.893 147.491 184.688 147.323 184.469 147.14C184.242 146.98 184.001 146.811 183.753 146.651C183.248 146.322 182.708 146 182.123 145.693C177.958 143.574 173.354 142.215 168.626 141.784C163.898 141.367 159.045 141.966 154.588 143.655C153.93 143.932 153.272 144.21 152.614 144.488L151.621 144.904L150.663 145.394C150.028 145.73 149.37 146.037 148.741 146.388C148.128 146.76 147.506 147.14 146.885 147.513C144.466 149.091 142.135 150.867 140.155 152.957C139.015 154.031 137.97 155.318 137.056 156.611C136.136 157.919 135.31 159.278 134.601 160.696C133.147 163.517 132.109 166.528 131.393 169.597C130.969 171.497 130.706 173.419 130.56 175.355C130.436 177.292 130.458 179.236 130.604 181.165C131.071 187.026 133.044 192.711 135.865 197.746C136.932 199.726 138.167 201.583 139.424 203.424C140.096 204.301 140.739 205.214 141.441 206.077C142.164 206.917 142.837 207.809 143.611 208.605C144.291 209.314 144.898 210.067 145.621 210.739C146.988 211.959 147.923 212.727 148.69 213.121C149.458 213.516 149.998 213.618 150.503 213.611C150.729 213.611 150.992 213.655 151.146 213.626C151.409 213.574 151.306 213.246 150.978 212.632C150.656 212.011 150.013 211.2 149.121 210.264C148.471 209.555 147.85 208.817 147.17 208.138C146.527 207.421 145.877 206.705 145.226 205.982C144.605 205.236 143.984 204.491 143.356 203.738C142.771 202.956 142.157 202.196 141.58 201.407C139.285 198.236 137.319 194.801 135.858 191.154C133.709 185.739 132.869 179.806 133.534 173.989L133.468 173.974L133.468 173.981Z" fill="#12111F"/>
<path d="M198.324 254.914C203.184 256.091 208.409 255.857 213.181 254.403C214.906 253.833 216.63 253.219 218.223 252.342C221.022 250.8 223.602 248.871 225.801 246.591C227.986 244.296 229.864 241.738 231.406 239.005L232.349 237.142L232.824 236.214C232.978 235.9 233.094 235.571 233.233 235.249L234.037 233.32C234.278 232.67 234.476 232.005 234.695 231.347L235.111 230.083L235.426 228.789L235.711 227.488L235.849 226.838L235.93 226.173C236.025 225.289 236.149 224.405 236.186 223.52L236.105 222.183C236.069 221.737 235.988 221.299 235.93 220.853C235.747 219.757 235.638 219.918 235.206 220.817C235.002 221.27 234.629 221.898 234.351 222.643C234.213 223.016 234.044 223.418 233.884 223.835C233.752 224.258 233.635 224.712 233.555 225.179C232.853 228.497 232.071 231.785 230.683 234.891C229.309 237.982 227.541 240.913 225.37 243.565C222.769 246.751 219.203 249.309 215.395 251.019C211.171 252.839 206.494 253.643 201.876 253.058C199.033 252.737 196.242 251.903 193.574 250.829C189.548 249.134 185.755 246.737 182.554 243.777C180.084 241.453 178.053 238.786 176.401 235.929C176.051 235.293 175.678 234.687 175.386 234.014C175.079 233.408 174.816 232.918 174.574 232.509C174.333 232.1 174.194 231.749 174.004 231.486C173.646 230.952 173.288 230.697 172.908 230.514C172.74 230.433 172.565 230.302 172.433 230.258C172.214 230.192 172.141 230.441 172.112 231.011C172.082 231.573 172.199 232.421 172.55 233.437C172.842 234.168 173.127 234.92 173.464 235.658C173.822 236.382 174.231 237.076 174.618 237.792C174.991 238.523 175.502 239.166 175.948 239.853C176.182 240.189 176.409 240.533 176.657 240.869L177.439 241.826C179.529 244.398 181.984 246.73 184.725 248.681C185.214 249.068 185.741 249.404 186.274 249.74L187.853 250.749L189.504 251.64C190.059 251.94 190.6 252.247 191.185 252.481C192.332 252.992 193.472 253.518 194.678 253.898C195.277 254.096 195.854 254.337 196.468 254.49L198.303 254.965L198.324 254.907L198.324 254.914Z" fill="#12111F"/>
<path d="M229.118 202.255C226.86 199.968 224.39 198.017 221.92 196.139C221.021 195.452 220.166 194.728 219.268 194.071C218.486 193.493 217.696 192.916 216.995 192.324C216.644 192.039 216.315 191.725 216.111 191.491L216.038 191.411C216.038 191.411 216.016 191.374 216.008 191.359C215.979 191.33 215.965 191.272 215.935 191.199C215.862 191.06 215.848 190.899 215.804 190.753C215.709 190.11 215.877 189.321 216.257 188.546C216.622 187.771 217.141 187.011 217.74 186.302C218.793 185.031 220.123 183.935 221.511 182.999C223.323 181.83 225.223 180.851 227.05 179.857C227.62 179.616 227.628 179.441 226.963 179.104C226.626 178.951 226.115 178.768 225.501 178.688C225.201 178.659 224.851 178.607 224.522 178.637C224.186 178.673 223.857 178.754 223.521 178.871C222.943 179.097 222.351 179.294 221.818 179.601C221.284 179.894 220.758 180.215 220.254 180.544C219.238 181.216 218.266 181.954 217.36 182.78C216.454 183.606 215.592 184.527 214.861 185.594C214.496 186.134 214.159 186.697 213.874 187.326C213.589 187.947 213.356 188.619 213.253 189.372C213.122 190.256 213.166 191.25 213.531 192.178C213.604 192.412 213.787 192.726 213.926 192.923L214.145 193.223L214.357 193.464C214.642 193.785 214.927 194.049 215.205 194.304C216.323 195.313 217.433 196.197 218.551 197.052C221.014 198.923 223.47 200.735 225.698 202.789C227.072 204.046 228.373 205.376 229.469 206.837C230.295 207.941 231.04 209.117 231.559 210.367L231.735 210.842L231.822 211.076L231.866 211.258C231.91 211.507 231.932 211.762 231.881 212.033C231.8 212.581 231.508 213.158 231.165 213.699C230.01 215.394 228.234 216.673 226.517 217.93C226.122 218.201 225.742 218.471 225.348 218.741C224.624 219.267 224.164 219.655 223.908 220.02C223.667 220.4 223.601 220.729 223.66 221.116C223.681 221.292 223.681 221.482 223.74 221.628C223.828 221.876 224.083 221.957 224.456 221.927C224.829 221.891 225.362 221.752 225.932 221.401C227.657 220.407 229.403 219.267 231.033 217.791C231.851 217.046 232.641 216.227 233.35 215.204C233.7 214.685 234.022 214.108 234.27 213.421C234.511 212.742 234.672 211.916 234.563 211.039C234.548 210.878 234.511 210.717 234.475 210.557C234.438 210.396 234.387 210.221 234.358 210.14L234.131 209.512C233.978 209.095 233.795 208.701 233.605 208.299C233.218 207.524 232.794 206.771 232.312 206.077C231.369 204.667 230.295 203.417 229.177 202.233L229.126 202.277L229.118 202.255Z" fill="#12111F"/>
<path d="M231.931 189.613C232.019 189.613 232.18 189.613 232.165 189.606L232.209 189.591C232.209 189.591 232.275 189.569 232.304 189.591C232.326 189.606 232.355 189.628 232.384 189.657L232.757 190.219C233.02 190.592 233.217 190.994 233.451 191.381C233.685 191.769 233.89 192.171 234.08 192.573C234.387 193.157 234.547 193.786 234.789 194.392C235.008 194.926 235.154 195.474 235.329 196.014C235.446 196.57 235.622 197.118 235.68 197.681C235.885 198.806 235.877 199.946 235.76 201.086C235.687 202.102 235.337 203.081 234.957 204.016C234.394 205.2 233.714 206.282 233.261 207.634C233.115 208.05 233.312 208.153 233.809 208.072C234.058 208.036 234.401 207.955 234.789 207.831C234.979 207.765 235.183 207.685 235.366 207.575C235.541 207.458 235.709 207.319 235.863 207.159C236.119 206.866 236.382 206.567 236.586 206.238C236.798 205.909 236.952 205.544 237.134 205.2C237.463 204.491 237.755 203.753 237.953 202.979C238.384 201.451 238.428 199.822 238.201 198.28C237.931 196.438 237.624 194.553 236.944 192.828C236.784 192.346 236.55 191.9 236.345 191.44C236.148 190.972 235.907 190.534 235.658 190.103C235.417 189.664 235.183 189.218 234.905 188.809L234.452 188.093C234.35 187.939 234.262 187.764 234.138 187.64L233.963 187.443C233.963 187.443 233.919 187.355 233.86 187.362C233.824 187.333 233.795 187.304 233.758 187.282C233.378 187.063 232.903 187.041 232.457 187.011C232.048 186.997 231.792 187.004 231.464 187.011C230.835 187.033 230.221 187.092 229.615 187.165C227.766 187.391 225.968 187.859 224.214 188.407C222.855 188.831 221.481 189.226 220.159 189.839C219.866 189.978 219.581 190.11 219.318 190.293C218.821 190.621 218.522 190.892 218.39 191.177C218.31 191.528 218.324 191.798 218.39 192.09C218.427 192.229 218.441 192.368 218.492 192.47C218.573 192.653 218.755 192.741 219.033 192.784C219.172 192.806 219.347 192.821 219.537 192.836C219.742 192.865 219.895 192.784 220.085 192.726C220.626 192.507 221.204 192.361 221.73 192.134C222.263 191.929 222.804 191.718 223.352 191.506C224.448 191.104 225.574 190.738 226.728 190.439C228.431 190.008 230.25 189.679 231.931 189.679L231.931 189.613Z" fill="#12111F"/>
<path d="M206.962 215.73C204.266 217.112 200.977 217.674 197.966 216.783C197.404 216.666 196.877 216.432 196.344 216.205C195.796 216.015 195.314 215.687 194.787 215.431C191.177 213.443 188.232 210.052 186.384 206.172C186.077 205.551 185.85 204.886 185.572 204.25L185.192 203.066C185.112 202.81 185.032 202.562 184.944 202.314L184.812 201.941L184.783 201.846L184.769 201.802L184.769 201.839L184.82 201.999L184.44 201.459C184.432 201.415 184.389 201.459 184.359 201.473L184.257 201.539L184.052 201.663L183.651 201.919L183.446 202.043C183.387 202.065 183.344 202.065 183.3 202.072L183.007 202.124C182.817 202.16 182.598 202.197 182.481 202.233C181.181 202.562 179.975 203.03 178.798 203.563C177.629 204.104 176.496 204.718 175.437 205.514C174.772 206.048 175.122 206.252 175.868 206.223C176.621 206.201 177.856 206.019 179.164 205.514C180.041 205.171 180.932 204.849 181.809 204.601C182.247 204.469 182.686 204.367 183.095 204.287C183.168 204.272 183.161 204.265 183.168 204.265C183.168 204.25 183.139 204.294 183.183 204.287C183.19 204.309 183.183 204.25 183.212 204.33L183.3 204.637C183.351 204.842 183.417 205.047 183.497 205.244C183.819 206.026 184.104 206.83 184.513 207.568L185.097 208.693L185.77 209.775C186.194 210.505 186.749 211.163 187.253 211.835C187.779 212.457 188.313 213.092 188.876 213.699C189.467 214.284 190.023 214.912 190.681 215.445C191.916 216.593 193.37 217.528 194.89 218.288C196.592 219.092 198.456 219.53 200.334 219.684C202.227 219.779 204.105 219.487 205.881 218.924C206.969 218.566 208.022 218.076 209.008 217.462C209.98 216.827 210.872 216.059 211.624 215.182C212.786 213.86 213.583 212.252 214.08 210.6C214.555 208.942 214.745 207.224 214.701 205.536C214.635 202.913 214.175 200.333 213.13 197.892C212.889 197.359 212.662 196.833 212.362 196.321C211.763 195.4 211.259 194.852 210.828 194.56C210.404 194.253 210.039 194.202 209.651 194.26C209.476 194.29 209.286 194.29 209.154 194.348C208.701 194.553 209.001 195.4 209.659 196.606C210.126 197.527 210.565 198.448 210.937 199.42C211.303 200.392 211.595 201.4 211.807 202.423C212.224 204.477 212.319 206.618 211.931 208.635C211.646 210.133 211.091 211.543 210.251 212.749C209.417 213.962 208.27 214.934 206.947 215.65L206.977 215.709L206.962 215.73Z" fill="#12111F"/>
<path d="M170.137 214.188C169.26 213.18 168.435 212.098 167.616 210.995L166.388 209.299L166.016 208.795C165.833 208.547 165.636 208.291 165.424 208.072C165.212 207.852 164.985 207.677 164.708 207.582C164.43 207.524 164.138 207.553 163.853 207.538L162.654 207.787L161.85 207.991C161.317 208.123 160.776 208.298 160.243 208.474C158.832 208.956 157.349 209.526 156.07 210.637C154.952 211.587 154.046 213.034 153.856 214.539C153.644 216.03 153.87 217.447 154.272 218.719C154.703 220.012 155.295 221.269 156.114 222.314C156.479 222.877 156.947 223.337 157.371 223.842C157.838 224.302 158.299 224.762 158.803 225.179C160.586 226.648 162.61 227.832 164.81 228.533C166.22 228.979 167.733 229.242 169.246 229.081L169.816 229.037C170.006 229.001 170.188 228.957 170.371 228.913L170.926 228.782C171.109 228.738 171.299 228.701 171.467 228.599L172.476 228.08C172.651 228.007 172.79 227.868 172.929 227.744L173.353 227.371C174.032 226.736 173.872 226.787 173.082 226.882C172.688 226.933 172.132 226.955 171.511 226.911C171.197 226.889 170.89 226.911 170.546 226.874C170.218 226.874 169.881 226.896 169.538 226.933C164.613 227.079 159.373 223.864 156.961 219.362C156.815 219.011 156.669 218.668 156.53 218.317C156.435 217.937 156.311 217.557 156.245 217.177C156.114 216.417 156.085 215.657 156.209 214.97C156.362 214.291 156.647 213.677 157.086 213.143C157.51 212.595 158.145 212.164 158.803 211.769C159.526 211.331 160.382 211.017 161.237 210.724C161.675 210.593 162.106 210.447 162.559 210.337L163.217 210.169L163.619 210.074C163.706 210.067 163.823 209.986 163.889 210.074C163.955 210.14 164.013 210.213 164.079 210.293C164.108 210.322 164.306 210.6 164.43 210.776L164.854 211.367C165.424 212.164 166.001 212.968 166.6 213.757C168.077 215.679 169.64 217.586 171.672 219.143C172.447 219.72 173.316 220.246 174.354 220.524C174.873 220.656 175.435 220.714 176.005 220.641C176.568 220.568 177.116 220.363 177.591 220.071C178.519 219.508 179.213 218.551 179.542 217.572C179.871 216.578 179.944 215.569 179.878 214.605C179.769 213.099 179.403 211.667 178.885 210.308C178.358 208.949 177.671 207.662 176.838 206.457C176.458 205.938 176.1 205.412 175.662 204.929C174.003 203.161 173.185 202.891 172.395 203.154C172.213 203.212 172.008 203.256 171.869 203.344C171.409 203.658 171.928 204.491 172.965 205.624C174.507 207.326 175.779 209.336 176.605 211.477C177.014 212.544 177.299 213.662 177.372 214.714C177.452 215.767 177.277 216.753 176.875 217.331C176.166 218.237 175.465 218.427 174.04 217.659C172.695 216.892 171.38 215.547 170.196 214.144L170.145 214.181L170.137 214.188Z" fill="#12111F"/>
<path d="M174.647 187.961C174.625 188.721 174.633 189.488 174.538 190.255L174.435 191.403C174.377 191.783 174.311 192.163 174.267 192.55C174.231 192.828 174.172 193.105 174.114 193.383C174.041 193.653 173.975 193.931 173.924 194.209C173.588 196.175 173.069 198.14 172.331 200.011C172.024 200.859 171.564 201.633 171.147 202.415C170.555 203.395 169.868 204.286 169.459 205.397C169.327 205.74 169.583 205.894 170.051 205.857C170.285 205.843 170.584 205.784 170.898 205.675C171.052 205.623 171.22 205.55 171.374 205.47L171.607 205.331C171.666 205.273 171.732 205.207 171.783 205.141C173.332 203.168 174.428 200.895 175.078 198.491C175.466 197.059 176.043 195.627 176.408 194.158C176.598 193.347 176.745 192.528 176.869 191.702C176.949 190.869 177.081 190.051 177.11 189.218L177.176 187.683L177.154 186.148C177.176 185.374 177.044 184.599 176.993 183.825C176.927 183.05 176.745 182.29 176.657 181.523C176.533 180.931 176.423 180.346 176.335 179.754C176.24 179.162 176.05 178.585 175.897 178C175.824 177.745 175.78 177.482 175.641 177.24C175.532 177.014 175.422 176.831 175.327 176.692C175.217 176.553 175.093 176.458 174.984 176.385C174.764 176.239 174.552 176.203 174.304 176.225C174.187 176.232 174.07 176.225 173.975 176.254C173.654 176.327 173.529 176.838 173.544 177.547C173.887 179.498 174.289 181.413 174.399 183.437C174.487 184.175 174.53 184.935 174.589 185.688C174.589 186.448 174.647 187.208 174.589 187.975L174.655 187.975L174.647 187.961Z" fill="#12111F"/>
<path d="M216.132 174.954C214.502 175.02 212.836 174.903 211.206 174.567C210.607 174.45 210.044 174.216 209.46 174.055C207.413 173.448 205.411 172.528 203.694 171.198C202.919 170.62 202.254 169.897 201.662 169.152C201.268 168.684 200.924 168.172 200.566 167.668C200.193 167.178 199.74 166.733 199.229 166.287C198.9 166.017 198.82 166.104 198.71 166.55C198.652 166.769 198.578 167.091 198.498 167.485C198.447 167.865 198.483 168.267 198.593 168.669C198.9 169.312 199.295 169.912 199.711 170.489C199.908 170.788 200.164 171.044 200.405 171.307C200.647 171.57 200.895 171.826 201.165 172.067C202.21 173.039 203.394 173.865 204.666 174.493C206.186 175.239 207.713 176.079 209.357 176.583C211.155 177.132 213.018 177.453 214.889 177.497C216.037 177.548 217.191 177.46 218.338 177.329C220.07 177.102 221.795 176.583 223.381 175.75C223.987 175.414 224.594 175.056 225.157 174.618C225.705 174.165 226.223 173.646 226.625 173.039L226.91 172.645C226.983 172.506 227.064 172.36 227.13 172.213C227.415 171.673 227.422 171.256 227.363 170.964C227.312 170.672 227.166 170.474 226.918 170.306C226.808 170.226 226.698 170.138 226.589 170.08C226.209 169.912 225.727 170.233 225.332 170.781C224.711 171.585 224.104 172.25 223.344 172.769C222.621 173.324 221.78 173.792 220.816 174.113C219.398 174.618 217.776 174.859 216.146 174.881L216.146 174.947L216.132 174.954Z" fill="#12111F"/>
<path d="M214.634 123.61C210.892 124.333 207.377 125.736 204.133 127.549C203.548 127.892 202.934 128.184 202.357 128.535C201.787 128.901 201.21 129.259 200.654 129.646C196.745 132.394 193.42 135.931 190.899 139.95C190.351 140.849 189.751 141.718 189.313 142.683C188.845 143.626 188.326 144.546 187.983 145.54L187.237 147.418C187.047 148.061 186.872 148.719 186.704 149.369C186.339 150.67 186.353 152.051 186.448 153.396C186.66 154.244 186.697 154.119 187.245 153.498C187.53 153.184 187.844 152.746 188.209 152.227C188.553 151.708 188.809 151.087 189.116 150.436C189.335 149.844 189.488 149.238 189.671 148.646C189.832 148.047 190.131 147.484 190.351 146.899L190.701 146.03L190.877 145.599L191.096 145.182L191.958 143.516C192.199 142.939 192.579 142.427 192.886 141.879C193.222 141.346 193.5 140.776 193.88 140.264C194.633 139.241 195.312 138.159 196.167 137.195C198.104 134.791 200.706 132.81 203.395 131.151C206.332 129.295 209.541 127.819 212.895 126.913C213.918 126.584 214.977 126.452 216.03 126.241C216.556 126.138 217.089 126.138 217.615 126.08C218.142 126.043 218.682 125.963 219.194 126.007C222.329 125.999 225.552 127.132 227.729 129.339C229.461 131.034 230.236 133.373 230.324 135.646C230.338 136.15 230.258 136.654 230.258 137.158C230.09 139.051 230.119 139.701 230.682 140.315C230.806 140.454 230.923 140.629 231.047 140.732C231.266 140.9 231.522 140.812 231.822 140.476C231.975 140.308 232.129 140.081 232.289 139.789C232.45 139.504 232.626 139.161 232.728 138.744C233.444 136.325 233.283 133.461 232.15 130.881C230.996 128.309 228.855 126.197 226.399 124.903C224.565 123.931 222.548 123.361 220.517 123.193C219.501 123.12 218.47 123.106 217.513 123.208L216.059 123.317C215.584 123.383 215.109 123.478 214.634 123.559L214.634 123.632L214.634 123.61Z" fill="#12111F"/>
<path d="M217.301 264.568C219.581 265.905 221.751 267.461 223.885 269.069C224.66 269.661 225.361 270.348 226.129 270.947C228.796 273.125 231.42 275.39 233.897 277.816C235.008 278.883 236.038 280.038 237.061 281.171C238.391 282.618 239.568 284.203 241.212 285.373C241.753 285.716 241.862 285.511 241.826 284.854C241.833 284.159 241.621 283.071 240.949 282.135C238.45 278.934 235.57 276.055 232.45 273.388C231.515 272.591 230.608 271.736 229.673 270.889L228.292 269.603C227.81 269.193 227.335 268.784 226.86 268.375C224.755 266.584 222.511 264.955 220.239 263.384C218.799 262.47 217.381 261.528 215.876 260.709C215.313 260.395 214.765 260.051 214.181 259.766L212.441 258.904L211.572 258.473L210.68 258.086C210.088 257.83 209.496 257.567 208.912 257.311C207.984 256.931 207.07 256.551 206.15 256.171C205.696 255.966 205.229 255.798 204.754 255.645L203.336 255.17C202.912 255.038 202.518 254.856 202.072 254.783C201.253 254.666 200.705 254.629 200.303 254.724C199.894 254.863 199.653 255.038 199.441 255.287C199.346 255.396 199.229 255.499 199.171 255.601C199.068 255.776 199.171 255.966 199.419 256.222C199.675 256.478 200.062 256.836 200.603 257.019C201.005 257.165 201.392 257.355 201.801 257.464C202.203 257.603 202.598 257.771 203 257.91C203.796 258.224 204.63 258.436 205.426 258.794C206.223 259.131 207.048 259.416 207.852 259.766C208.649 260.139 209.453 260.49 210.271 260.833C212.631 261.981 215.014 263.164 217.25 264.626L217.286 264.575L217.301 264.568Z" fill="#12111F"/>
<path d="M148.018 249.982L145.65 251.085L143.355 252.328C141.813 253.117 140.344 254.045 138.861 254.929L138.043 255.404L137.246 255.908C136.713 256.245 136.179 256.588 135.66 256.939C132.014 259.482 128.594 262.303 125.349 265.299C123.931 266.651 122.455 267.952 121.067 269.303C120.153 270.151 119.254 271.021 118.385 271.912L117.734 272.585C117.53 272.826 117.34 273.074 117.15 273.323L116.587 274.075C116.404 274.331 116.273 274.631 116.112 274.908C115.754 275.625 115.966 275.676 116.733 275.493C117.544 275.354 118.86 274.938 119.89 273.98C121.651 272.212 123.427 270.458 125.239 268.755C126.138 267.893 127.03 267.009 127.958 266.176C128.871 265.321 129.778 264.451 130.728 263.633C131.29 263.129 131.868 262.639 132.459 262.149C133.066 261.682 133.694 261.236 134.316 260.783C134.951 260.344 135.565 259.869 136.216 259.46C136.866 259.036 137.509 258.62 138.152 258.196L139.204 257.494L140.293 256.844L142.471 255.543C143.194 255.105 143.969 254.754 144.714 254.359C145.467 253.979 146.213 253.57 146.98 253.212C148.887 252.386 150.773 251.48 152.753 250.837L154.982 250.04L157.262 249.397C158.022 249.193 158.782 248.966 159.542 248.783C160.316 248.637 161.084 248.498 161.858 248.36C163.057 248.148 164.248 247.958 165.454 247.936C166.652 247.877 167.843 247.826 169.042 247.768C169.568 247.782 170.087 247.819 170.62 247.819C171.607 247.819 172.25 247.753 172.696 247.563C173.149 247.388 173.412 247.132 173.624 246.737C173.719 246.562 173.85 246.387 173.909 246.211C174.106 245.634 173.28 245.159 171.768 244.976C170.649 244.903 169.517 244.815 168.369 244.845C167.229 244.903 166.068 244.991 164.906 245.1C163.736 245.173 162.582 245.415 161.42 245.634L159.681 245.977L158.811 246.153L157.956 246.394L155.413 247.125L154.141 247.497L152.899 247.958C151.248 248.572 149.581 249.163 147.996 249.923L148.018 249.982Z" fill="#12111F"/>
<path d="M201.079 213.152C201.737 213.722 202.241 214.592 202.394 215.454C202.577 216.448 202.526 217.602 201.751 218.348C201.371 218.72 200.838 218.932 200.304 218.918C199.72 218.903 199.223 218.655 198.777 218.282C198.47 218.026 198.236 217.668 198.01 217.332C197.754 216.945 197.557 216.535 197.381 216.104C196.972 215.118 196.914 214.058 197.104 213.006C197.162 212.684 197.462 212.348 197.732 212.187C198.024 212.012 198.456 211.946 198.784 212.049C199.113 212.151 199.435 212.363 199.603 212.677C199.786 213.02 199.807 213.349 199.742 213.729C199.727 213.795 199.72 213.861 199.712 213.919L199.764 213.554C199.72 213.905 199.712 214.255 199.764 214.599L199.712 214.233C199.764 214.621 199.873 215.001 200.027 215.359L199.888 215.03C200.085 215.483 200.341 215.907 200.641 216.294L200.429 216.017C200.516 216.126 200.611 216.228 200.721 216.323L200.443 216.112C200.531 216.177 200.619 216.236 200.721 216.28L200.392 216.141C200.458 216.17 200.531 216.185 200.604 216.199L200.239 216.148C200.304 216.155 200.37 216.155 200.443 216.148L200.078 216.199C200.136 216.192 200.187 216.177 200.239 216.155L199.91 216.294C199.961 216.272 200.012 216.243 200.056 216.207L199.778 216.418C199.829 216.382 199.866 216.338 199.902 216.287L199.691 216.565C199.742 216.499 199.778 216.426 199.815 216.353L199.676 216.682C199.727 216.557 199.756 216.426 199.778 216.294L199.727 216.66C199.756 216.418 199.756 216.177 199.727 215.936L199.778 216.302C199.742 216.038 199.676 215.79 199.574 215.549L199.712 215.878C199.61 215.637 199.479 215.41 199.318 215.205L199.53 215.483C199.413 215.337 199.281 215.205 199.142 215.081C198.887 214.862 198.741 214.438 198.741 214.109C198.741 213.78 198.887 213.371 199.142 213.137C199.398 212.903 199.749 212.721 200.114 212.735C200.48 212.75 200.794 212.889 201.086 213.137L201.079 213.152Z" fill="#12111F"/>
<path d="M183.708 188.064C186.419 183.84 191.301 181.94 196.212 182.481C197.352 182.605 198.477 182.817 199.566 183.168C200.406 183.438 201.51 183.723 202.131 184.388C202.789 185.097 202.708 186.171 202.014 186.821C201.32 187.472 200.297 187.581 199.412 187.552C197.834 187.501 196.453 186.894 194.947 186.529C193.442 186.164 192.032 186.061 190.57 185.996C188.816 185.923 188.802 183.175 190.57 183.255C192.755 183.35 194.925 183.613 197.008 184.3C197.951 184.614 198.908 184.848 199.909 184.804C199.982 184.804 200.055 184.804 200.129 184.79C200.077 184.797 199.887 184.812 200.143 184.775C200.399 184.739 200.253 184.651 200.194 184.775C200.26 184.636 200.099 184.885 200.085 184.907C199.982 185.068 199.865 185.345 199.865 185.543C199.865 185.908 200.107 186.076 200.253 186.339C200.326 186.471 200.282 186.354 200.129 186.288C199.99 186.229 199.851 186.164 199.712 186.105C199.31 185.944 198.901 185.806 198.484 185.689C197.68 185.455 196.855 185.272 196.022 185.192C194.26 185.024 192.492 185.155 190.811 185.718C188.845 186.376 187.201 187.698 186.083 189.438C185.133 190.921 182.758 189.547 183.715 188.056L183.708 188.064Z" fill="#12111F"/>
<path d="M217.148 233.262C216.629 234.585 215.789 235.673 214.415 236.163C213.304 236.558 212.011 236.419 210.929 236.01C208.276 235.001 206.084 232.809 204.805 230.295C204.455 229.608 204.623 228.753 205.317 228.344C205.953 227.971 206.917 228.168 207.268 228.855C207.867 230.039 208.342 230.682 209.234 231.559C209.416 231.742 209.606 231.917 209.804 232.078C209.84 232.107 210.169 232.378 210.052 232.283C209.935 232.188 210.271 232.443 210.308 232.465C210.725 232.758 211.17 233.006 211.623 233.225C211.952 233.386 211.353 233.138 211.689 233.255C211.806 233.291 211.923 233.342 212.04 233.379C212.252 233.445 212.464 233.488 212.683 233.532C212.99 233.598 212.405 233.54 212.69 233.532C212.815 233.532 212.939 233.547 213.07 233.54C213.136 233.54 213.297 233.554 213.348 233.518C213.136 233.547 213.085 233.554 213.195 233.532C213.238 233.525 213.282 233.518 213.326 233.503C213.421 233.474 213.531 233.43 213.626 233.415C213.728 233.379 213.684 233.401 213.487 233.474C213.538 233.452 213.596 233.423 213.648 233.393C213.721 233.35 213.801 233.291 213.874 233.255C213.713 233.452 214.115 233.13 213.874 233.255C213.947 233.16 214.057 233.065 214.137 232.984C213.984 233.138 214.057 233.101 214.152 232.948C214.21 232.86 214.261 232.765 214.313 232.67C214.349 232.604 214.378 232.538 214.415 232.473C214.349 232.641 214.349 232.641 214.408 232.487C214.685 231.771 215.365 231.274 216.161 231.493C216.848 231.683 217.44 232.524 217.155 233.247L217.148 233.262Z" fill="#12111F"/>
<path d="M185.601 140.213C185.835 140.279 186.88 139.738 187.311 139.321C188.816 137.86 193.8 130.37 191.074 128.389C185.944 124.662 183.737 139.694 185.593 140.213L185.601 140.213Z" fill="#12111F"/>
<path d="M181.699 141.528C181.568 141.688 180.567 141.725 180.048 141.586C178.243 141.096 170.891 137.362 171.754 134.556C173.376 129.273 182.722 140.278 181.699 141.528Z" fill="#12111F"/>
<path d="M104.01 145.087C104.858 143.728 104.705 142.844 104.332 142.098C103.09 139.614 101.825 137.129 100.43 134.703C99.2237 132.62 97.8572 130.625 96.4395 128.652C95.2484 126.942 93.9914 125.262 92.6833 123.617C91.3533 121.988 89.9868 120.38 88.4522 118.926C88.0137 118.48 87.5387 118.071 87.0784 117.654C86.6034 117.245 86.1722 116.799 85.6753 116.419L84.3087 115.265C83.8191 114.914 83.2784 114.636 82.7595 114.337C82.5841 114.234 82.4234 114.095 82.2187 114.059C81.6634 113.957 81.2468 114.329 81.2687 114.907C81.2687 115.038 81.2395 115.235 81.3126 115.294C81.6487 115.593 81.8241 116.025 81.9703 116.5C82.1311 116.953 82.2187 117.486 82.5768 117.778C83.8776 118.897 84.9372 120.278 86.0187 121.593C86.4499 122.127 86.9395 122.594 87.4145 123.084C88.043 123.683 88.7737 124.202 89.3803 124.838C89.5922 125.05 89.9795 125.481 90.4984 126.065C90.988 126.679 91.6383 127.425 92.318 128.323C93.6991 130.092 95.2922 132.387 96.8341 134.659C98.3688 136.939 99.8157 139.212 100.912 140.944C102.008 142.676 102.761 143.852 102.848 143.962C103.119 144.313 103.499 144.59 104.025 145.087L104.01 145.087Z" fill="#12111F"/>
<path d="M99.926 175.991C100.956 174.976 101.081 174.121 100.913 173.382C100.233 170.971 99.356 168.589 98.2306 166.309C97.7629 165.322 97.1783 164.394 96.601 163.473C95.9798 162.574 95.3441 161.683 94.6864 160.813C93.5829 159.293 92.3845 157.846 91.1202 156.451C90.4771 155.764 89.8341 155.077 89.1252 154.456C88.4456 153.805 87.7294 153.199 87.006 152.592C86.5894 152.227 86.1364 151.898 85.6979 151.569C85.2521 151.24 84.821 150.889 84.3679 150.568C83.9441 150.254 83.5202 149.925 83.1037 149.603C82.6944 149.26 82.2194 149.019 81.7737 148.734C81.6202 148.639 81.4887 148.5 81.306 148.478C80.7945 148.434 80.3121 149.041 80.2683 149.713C80.261 149.866 80.2098 150.1 80.2683 150.151C80.9187 150.612 80.8164 151.898 81.4814 152.351C82.7383 153.184 83.7467 154.346 84.7844 155.427C85.1937 155.866 85.6614 156.239 86.1071 156.626C86.6844 157.123 87.3641 157.517 87.9194 158.044C88.1168 158.219 88.4821 158.562 88.9644 159.045C89.4175 159.556 90.0314 160.163 90.6525 160.923C91.946 162.392 93.3271 164.387 94.6133 166.374C95.8921 168.377 96.9883 170.437 97.7337 172.045C98.4644 173.653 98.9395 174.764 99.0052 174.866C99.2025 175.202 99.5168 175.48 99.9114 175.991L99.926 175.991Z" fill="#12111F"/>
<path d="M308.479 140.366C309.729 140.044 310.24 139.409 310.54 138.707C311.563 136.369 312.769 134.125 313.829 131.823C314.764 129.857 315.619 127.84 316.642 125.904C317.512 124.238 318.447 122.594 319.39 120.964L322.254 116.075L323.964 113.189C324.235 112.728 324.52 112.268 324.805 111.815C324.951 111.588 325.09 111.362 325.199 111.113C325.331 110.879 325.419 110.616 325.492 110.346C325.55 110.17 325.638 110.002 325.63 109.798C325.609 109.242 325.243 108.892 324.717 108.965C324.593 108.979 324.41 108.965 324.359 109.03C323.906 109.732 322.583 109.695 322.13 110.463C321.26 111.844 320.172 113.101 319.236 114.453C318.864 114.994 318.535 115.564 318.242 116.155C317.87 116.908 317.57 117.705 317.219 118.472C316.744 119.517 314.15 124.267 312.075 129.032C311.549 130.223 311.052 131.407 310.613 132.525C310.167 133.643 309.831 134.71 309.524 135.623C308.94 137.465 308.589 138.722 308.574 138.853C308.494 139.262 308.523 139.694 308.472 140.359L308.479 140.366Z" fill="#12111F"/>
<g opacity="0.45">
<path d="M304.811 115.242C306.068 115.191 306.411 114.943 306.535 114.643C306.967 113.657 307.434 112.707 307.902 111.779C308.304 110.989 308.596 110.149 309.064 109.389C309.466 108.739 309.89 108.103 310.328 107.467C310.767 106.839 311.263 106.232 311.753 105.626C312.053 105.267 312.294 104.873 312.615 104.529C312.922 104.201 313.244 103.894 313.558 103.572C313.609 103.521 313.704 103.499 313.697 103.389C313.668 103.104 313.134 102.549 312.608 102.271C312.491 102.206 312.301 102.089 312.279 102.111C312.016 102.352 311.044 101.869 310.788 102.169C310.35 102.739 309.641 103.082 309.1 103.587C308.888 103.791 308.713 104.032 308.574 104.296C308.399 104.639 308.297 105.019 308.128 105.362C308.019 105.596 307.617 106.21 307.142 107.043C306.689 107.891 306.185 108.972 305.775 110.061C304.942 112.246 304.599 114.417 304.606 114.534C304.606 114.716 304.73 114.928 304.825 115.235L304.811 115.242Z" fill="#12111F"/>
</g>
<path d="M314.48 149.457C315.905 149.384 316.409 148.953 316.657 148.434C317.096 147.586 317.527 146.731 317.987 145.913C318.418 145.087 318.857 144.261 319.288 143.436C320.026 142.033 320.691 140.6 321.575 139.292C322.328 138.167 323.176 137.1 324.082 136.069C324.959 135.024 325.916 134.023 326.873 133.022L328.613 131.261C328.898 130.983 329.19 130.72 329.49 130.457C329.775 130.179 330.038 129.88 330.308 129.588C330.396 129.485 330.535 129.427 330.557 129.266C330.622 128.842 330.14 128.214 329.541 127.951C329.402 127.892 329.197 127.768 329.146 127.804C328.905 128.002 328.496 127.987 328.079 127.958C327.663 127.943 327.21 127.885 326.983 128.133C326.559 128.579 326.048 128.944 325.543 129.317C325.047 129.697 324.528 130.063 324.053 130.472C323.673 130.808 323.337 131.181 323.03 131.583C322.65 132.109 322.343 132.693 321.97 133.227C321.714 133.592 320.94 134.579 319.997 135.945C319.047 137.304 317.987 139.066 317.125 140.863C316.255 142.661 315.539 144.459 315.115 145.854C314.692 147.243 314.436 148.193 314.421 148.288C314.377 148.595 314.458 148.946 314.48 149.464L314.48 149.457Z" fill="#12111F"/>
<g opacity="0.55">
<path d="M100.743 162.983C101.642 162.274 101.752 161.924 101.679 161.675C101.43 160.842 101.138 160.016 100.765 159.227C100.466 158.54 99.9468 157.992 99.5376 157.371L98.4633 155.785C98.0906 155.266 97.7399 154.733 97.316 154.251C97.0749 153.958 96.8118 153.688 96.578 153.396C96.3514 153.111 96.1614 152.804 95.9422 152.511C95.9057 152.46 95.9056 152.38 95.818 152.38C95.5914 152.38 95.0799 152.782 94.7876 153.184C94.7218 153.279 94.6049 153.418 94.6195 153.439C94.7803 153.666 94.276 154.382 94.466 154.587C94.8314 154.959 94.9703 155.515 95.2041 155.99C95.2991 156.18 95.4233 156.348 95.5768 156.487C95.7741 156.662 96.0372 156.801 96.2272 156.984C96.4976 157.232 97.5206 158.599 98.4049 159.98C99.3549 161.317 100.166 162.669 100.217 162.728C100.312 162.823 100.502 162.874 100.729 162.991L100.743 162.983Z" fill="#12111F"/>
</g>
<path d="M274.433 218.843C275.369 219.062 275.741 218.953 275.924 218.741C276.567 218.047 277.269 217.396 277.809 216.665C278.299 216.044 278.657 215.35 279.132 214.729C279.556 214.203 279.929 213.647 280.331 213.107C280.74 212.573 281.149 212.04 281.573 211.521C281.836 211.229 282.004 210.849 282.238 210.527C282.457 210.213 282.706 209.928 282.947 209.628C282.983 209.577 283.064 209.555 283.049 209.467C283.013 209.219 282.574 208.788 282.143 208.569C282.041 208.517 281.887 208.43 281.865 208.444C281.653 208.656 280.813 208.269 280.586 208.503C280.382 208.729 280.126 208.905 279.848 209.065C279.709 209.146 279.571 209.226 279.424 209.307C279.3 209.402 279.176 209.497 279.059 209.599C278.876 209.767 278.73 209.957 278.613 210.176C278.467 210.454 278.387 210.783 278.241 211.06C278.146 211.25 277.802 211.747 277.356 212.398C276.925 213.063 276.45 213.91 275.99 214.744C275.529 215.577 275.091 216.395 274.843 217.06C274.572 217.718 274.404 218.164 274.397 218.215C274.368 218.368 274.419 218.565 274.426 218.836L274.433 218.843Z" fill="#12111F"/>
<g opacity="0.35">
<path d="M73.5448 134.739C71.7836 134.739 71.7763 131.999 73.5448 131.999C75.3132 131.999 75.3132 134.739 73.5448 134.739Z" fill="#12111F"/>
</g>
<path d="M70.9428 133.344C70.9428 133.811 71.067 134.286 71.3301 134.71C71.5932 135.134 71.9805 135.455 72.3897 135.624C72.682 135.755 72.967 135.865 73.2739 135.872C73.8001 135.879 74.3043 135.733 74.7282 135.441C75.1593 135.156 75.4589 134.688 75.5466 134.235C75.6416 133.833 75.649 133.446 75.5759 133.073C75.4955 132.605 75.247 132.079 74.7501 131.897C74.5966 131.838 74.5016 132.072 74.4212 132.335C74.3482 132.591 74.2093 132.869 74.2239 132.978C74.2751 133.175 74.2532 133.402 74.2093 133.577C74.1655 133.767 74.107 133.848 74.0632 134.016C73.9682 134.228 73.6174 134.206 73.4055 134.14C73.1424 134.067 72.9889 133.972 72.9159 133.709C72.8793 133.541 72.8647 133.344 72.9232 133.197C72.9963 132.949 73.2666 132.715 73.5589 132.781C73.7928 132.825 73.8878 133.073 73.9463 133.227C73.9609 133.256 73.9682 133.292 73.9828 133.314C74.0559 133.387 74.1801 133.365 74.6259 133.373L74.9255 133.387C75.247 133.409 75.5613 133.227 75.5686 132.781C75.5686 132.16 75.269 131.48 74.6405 131.144C74.0413 130.786 73.2666 130.705 72.6016 130.947C71.5932 131.275 70.9209 132.364 70.8916 133.351L70.9428 133.351L70.9428 133.344Z" fill="#12111F"/>
<path d="M109.367 119.247C110.061 119.503 110.792 119.386 111.318 119.093C111.515 118.991 111.734 118.903 111.888 118.721C112.158 118.406 112.348 117.997 112.377 117.573C112.414 117.135 112.261 116.704 112.019 116.455C111.815 116.221 111.596 116.039 111.332 115.907C111.033 115.732 110.529 115.651 110.229 115.958C110.134 116.053 110.28 116.221 110.426 116.426C110.58 116.609 110.66 116.894 110.653 116.952C110.66 117.047 110.667 117.142 110.667 117.201C110.675 117.23 110.638 117.259 110.675 117.237C110.755 117.208 110.828 117.201 110.843 117.201L110.85 117.201C110.85 117.201 110.675 117.171 110.762 117.186C110.762 117.186 110.777 117.193 110.777 117.201C110.777 117.208 110.777 117.223 110.762 117.23C110.733 117.245 110.689 117.252 110.653 117.288C110.58 117.383 110.426 117.478 110.302 117.493C110.229 117.508 110.105 117.486 110.002 117.413C109.849 117.318 109.681 117.128 109.659 116.908C109.659 116.777 109.717 116.653 109.783 116.558L109.242 117.208C109.316 117.208 109.381 117.208 109.447 117.208C109.506 117.208 109.564 117.223 109.622 117.208C109.82 117.157 109.849 116.996 109.761 116.536L109.703 116.221C109.622 115.871 109.454 115.6 109.272 115.505C109.074 115.41 108.892 115.359 108.709 115.33L108.314 115.257L107.839 116.375C107.627 116.879 107.708 117.449 107.934 117.939C108.19 118.509 108.687 119.02 109.345 119.298L109.367 119.254L109.367 119.247Z" fill="#12111F"/>
<path d="M115.375 157.006C116.069 157.261 116.8 157.144 117.326 156.852C117.523 156.75 117.742 156.662 117.896 156.479C118.166 156.165 118.356 155.756 118.385 155.332C118.422 154.894 118.268 154.463 118.027 154.214C117.823 153.98 117.603 153.798 117.34 153.666C117.041 153.491 116.536 153.41 116.237 153.717C116.142 153.812 116.288 153.98 116.434 154.185C116.588 154.368 116.668 154.653 116.661 154.711C116.668 154.806 116.675 154.901 116.675 154.959C116.683 154.989 116.646 155.018 116.683 154.996C116.763 154.967 116.836 154.959 116.851 154.959L116.858 154.959C116.858 154.959 116.683 154.93 116.77 154.945L116.785 154.959C116.785 154.967 116.785 154.981 116.77 154.989C116.741 155.003 116.697 155.011 116.661 155.047C116.588 155.142 116.434 155.237 116.31 155.252C116.237 155.266 116.113 155.244 116.01 155.171C115.857 155.076 115.689 154.886 115.667 154.667C115.667 154.536 115.725 154.411 115.791 154.316L115.25 154.967C115.323 154.967 115.389 154.967 115.455 154.967C115.513 154.967 115.572 154.981 115.63 154.967C115.828 154.916 115.857 154.755 115.769 154.294L115.711 153.98C115.63 153.629 115.462 153.359 115.28 153.264C115.082 153.169 114.9 153.118 114.717 153.089L114.322 153.016L113.847 154.134C113.635 154.638 113.716 155.208 113.942 155.698C114.198 156.268 114.695 156.779 115.353 157.057L115.375 157.013L115.375 157.006Z" fill="#12111F"/>
<path d="M270.006 132.24C270.152 132.495 270.32 132.715 270.488 132.919L270.744 133.204C270.868 133.358 271.007 133.497 271.131 133.635C271.314 133.833 271.467 134.059 271.65 134.249L271.664 134.249C272.081 134.279 272.571 134.249 272.958 134.045C273.353 133.84 273.667 133.489 273.864 133.102C274.047 132.766 274.178 132.386 274.222 132.035C274.288 131.619 274.208 131.019 273.747 130.764C273.608 130.683 273.404 130.975 273.184 131.268C272.98 131.56 272.673 131.772 272.644 131.787C272.512 131.969 272.702 131.852 272.673 132.225C272.644 132.4 272.468 132.43 272.403 132.349L272.359 132.32C272.3 132.276 272.249 132.254 272.154 132.167C272.023 132.02 271.898 131.867 271.796 131.721C271.664 131.538 271.555 131.348 271.489 131.144C271.387 130.859 271.358 130.552 271.489 130.267C271.584 130.047 271.84 129.96 271.979 129.93C272.015 129.93 272.052 129.93 272.074 129.93C272.154 129.909 272.103 129.733 272.066 129.287L272.044 128.98C272.023 128.659 271.84 128.352 271.46 128.315C270.941 128.315 270.429 128.608 270.123 128.995C269.816 129.382 269.64 129.843 269.574 130.31C269.523 130.654 269.545 131.034 269.633 131.377C269.713 131.699 269.83 131.991 269.962 132.254L270.006 132.24Z" fill="#12111F"/>
<path d="M293.396 123.53C293.418 123.646 293.447 123.727 293.484 123.851C293.535 123.983 293.571 124.121 293.637 124.238C293.739 124.487 293.878 124.699 293.988 124.911C294.032 124.991 294.068 125.086 294.112 125.174C294.171 125.196 294.258 125.203 294.346 125.196C294.974 125.232 295.588 124.94 295.954 124.443C296.034 124.341 296.114 124.224 296.18 124.114C296.239 124.019 296.297 123.924 296.341 123.815C296.458 123.559 296.568 123.208 296.378 122.93C296.319 122.843 296.056 122.952 295.8 123.062C295.544 123.179 295.281 123.245 295.267 123.274C295.238 123.354 295.208 123.435 295.179 123.515C295.208 123.53 295.23 123.595 295.201 123.712C295.15 123.858 295.04 123.836 294.96 123.829C294.901 123.763 294.821 123.69 294.763 123.559C294.719 123.42 294.689 123.281 294.704 123.157C294.704 123.106 294.719 123.047 294.726 123.011C294.741 122.901 294.814 122.791 294.923 122.74C295.026 122.675 295.216 122.777 295.223 122.806C295.238 122.806 295.216 122.85 295.238 122.806C295.238 122.806 295.252 122.777 295.252 122.784C295.245 122.791 295.252 122.784 295.281 122.755C295.325 122.718 295.413 122.66 295.544 122.58L295.734 122.477C295.939 122.375 296.085 122.163 295.917 121.9C295.669 121.527 295.157 121.337 294.799 121.418C294.404 121.461 293.995 121.651 293.739 121.988C293.601 122.148 293.506 122.338 293.433 122.536C293.338 122.901 293.338 123.237 293.381 123.53L293.418 123.53L293.396 123.53Z" fill="#12111F"/>
<path d="M297.649 87.8749C297.736 88.5107 298.021 89.1245 298.555 89.5776C298.745 89.7384 298.957 89.9064 299.213 89.9795C299.629 90.1184 300.214 90.0672 300.579 89.8187C300.959 89.5849 301.186 89.2634 301.346 88.9345C301.485 88.6422 301.602 88.3426 301.639 87.9991C301.661 87.7799 301.661 87.5314 301.558 87.2903C301.463 87.0491 301.259 86.8372 301.018 86.7714C300.857 86.7203 300.755 87.0418 300.623 87.356C300.557 87.5095 300.484 87.6484 300.404 87.7507C300.367 87.7945 300.309 87.8457 300.309 87.8457C300.323 87.831 300.309 87.8457 300.287 87.8603C300.206 87.8895 300.206 87.8895 300.214 87.9187C300.206 87.9626 300.206 88.0137 300.192 88.0868C300.163 88.2257 300.111 88.3864 300.053 88.5326C299.951 88.7007 299.863 88.6568 299.688 88.5911C299.512 88.5326 299.308 88.3134 299.213 88.0137C299.154 87.8311 299.132 87.6264 299.161 87.4364C299.198 87.2172 299.271 87.0126 299.417 86.8664L299.191 86.9834C299.242 86.9834 299.293 86.9687 299.351 86.9834C299.527 87.0199 299.629 87.2464 299.666 87.378C299.673 87.4072 299.666 87.451 299.688 87.4584C299.768 87.5168 299.885 87.5168 300.228 87.5387L300.455 87.5607C300.696 87.5899 300.945 87.451 300.988 87.093C301.105 86.1064 300.075 85.2587 298.898 85.4634L298.57 85.5218L298.372 85.7337L298.219 85.8945C297.7 86.4864 297.568 87.2245 297.62 87.8676L297.656 87.8676L297.649 87.8749Z" fill="#12111F"/>
<g opacity="0.35">
<path d="M263.99 169.758L264.114 169.758C265.875 169.758 265.882 172.498 264.114 172.498L263.99 172.498C262.229 172.498 262.221 169.758 263.99 169.758L264.114 169.758C265.875 169.758 265.882 172.498 264.114 172.498L263.99 172.498C262.229 172.498 262.221 169.758 263.99 169.758Z" fill="#12111F"/>
</g>
<path d="M261.688 170.605C261.557 171.519 261.805 172.337 262.273 173.017C262.441 173.265 262.616 173.536 262.879 173.726C263.245 173.989 263.72 174.164 264.173 174.186C264.874 174.215 265.539 173.879 265.949 173.367C266.241 172.973 266.438 172.651 266.577 172.22C266.643 171.95 266.731 171.65 266.643 171.329C266.592 171.022 266.446 170.715 266.146 170.569C265.963 170.459 265.707 170.81 265.422 171.146C265.152 171.489 264.772 171.709 264.75 171.687C264.692 171.657 264.67 171.731 264.604 171.84C264.553 171.906 264.619 171.913 264.611 171.972C264.611 172.023 264.611 172.096 264.575 172.176C264.546 172.235 264.502 172.257 264.458 172.271C264.341 172.286 264.261 172.206 264.129 172.111C263.924 171.957 263.734 171.628 263.698 171.292C263.676 171.08 263.698 170.89 263.8 170.7C263.954 170.408 264.239 170.116 264.626 170.021C264.926 169.94 265.247 170.057 265.51 170.159C265.569 170.174 265.627 170.218 265.678 170.225C265.89 170.262 265.978 170.137 266.19 169.626L266.336 169.282C266.489 168.895 266.453 168.508 266.168 168.303C265.963 168.15 265.729 168.04 265.481 167.96C265.232 167.901 264.977 167.879 264.714 167.894C264.187 167.923 263.654 168.099 263.157 168.398C262.426 168.851 261.827 169.626 261.63 170.598L261.681 170.612L261.688 170.605Z" fill="#12111F"/>
<path d="M255.156 148.397C256.121 150.407 256.618 152.628 256.457 154.857C256.281 157.071 255.558 159.278 254.272 161.186C253.351 162.589 252.138 163.78 250.83 164.854C248.499 166.74 245.641 168.143 242.667 169.02C239.678 169.904 236.507 170.276 233.379 170.057C230.61 169.853 227.862 169.093 225.472 167.792C223.93 166.959 222.586 165.848 221.336 164.664C220.086 163.458 219.078 162.055 218.011 160.608C217.624 160.177 217.375 160.016 217.251 160.09C217.12 160.163 217.083 160.477 217.017 161.061C216.937 161.653 217.017 162.428 217.215 163.371C217.456 164.277 217.916 165.3 218.676 166.221C219.334 167.039 220.065 167.814 220.876 168.479C221.709 169.129 222.571 169.728 223.485 170.233C225.311 171.256 227.27 171.994 229.272 172.447C233.284 173.346 237.428 173.251 241.33 172.301C243.668 171.745 246 170.978 248.243 169.948C249.361 169.421 250.45 168.822 251.495 168.143C252.006 167.77 252.533 167.426 253.022 167.025C253.49 166.601 254.001 166.228 254.425 165.76C256.376 163.795 257.933 161.398 258.751 158.723C259.628 156.07 259.709 153.176 259.088 150.48C258.276 147.162 256.486 144.173 254.016 141.893C252.131 140.183 249.865 138.905 247.461 138.174C245.057 137.414 242.543 137.173 240.088 137.26C236.266 137.443 232.524 138.313 229.09 140.001C228.337 140.366 227.599 140.746 226.875 141.192C225.538 142.025 224.763 142.734 224.34 143.348C224.12 143.647 223.967 143.91 223.886 144.166C223.806 144.429 223.784 144.685 223.777 144.911C223.777 145.123 223.718 145.357 223.74 145.496C223.77 145.935 225.121 145.591 226.934 144.561C229.557 142.916 232.444 141.616 235.491 140.863C238.524 140.118 241.732 139.92 244.743 140.549C249.237 141.389 253.161 144.276 255.076 148.419L255.149 148.39L255.156 148.397Z" fill="#12111F"/>
<path d="M185.791 181.377C187.779 181.721 189.788 181.947 191.798 182.05C192.529 182.101 193.267 182.174 194.005 182.167C196.606 182.115 199.252 181.816 201.773 180.888C202.884 180.471 203.994 179.96 204.974 179.2C205.273 178.937 205.587 178.688 205.865 178.396C206.121 178.082 206.42 177.797 206.61 177.431C206.72 177.263 206.793 177.066 206.881 176.883C206.947 176.693 206.99 176.489 207.042 176.299C207.159 175.911 207.129 175.495 207.093 175.1C206.947 174.589 206.903 174.676 206.464 174.961C206.04 175.261 205.259 175.648 204.82 176.087C203.6 177.928 201.1 178.849 198.44 179.543C196.818 179.945 195.042 179.857 193.31 179.792C191.403 179.726 189.474 179.529 187.567 179.214C186.39 179.024 185.221 178.79 184.066 178.498C182.312 178.06 180.559 177.555 178.907 176.861C177.621 176.32 176.459 175.59 175.297 174.888C175.049 174.727 174.8 174.567 174.552 174.399C174.084 174.106 173.74 173.975 173.441 173.967C173.149 173.953 172.915 174.04 172.652 174.216C172.535 174.296 172.396 174.362 172.301 174.45C171.972 174.727 172.147 175.327 172.754 176.028C173.74 176.934 174.88 177.665 176.079 178.33C177.292 178.959 178.571 179.455 179.872 179.901C181.801 180.559 183.789 181.041 185.791 181.436L185.805 181.377L185.791 181.377Z" fill="#12111F"/>
<path d="M201.144 193.559C200.019 193.836 198.901 194.136 197.783 194.443C197.373 194.56 196.949 194.589 196.548 194.713C195.115 195.159 193.719 195.758 192.331 196.321C191.71 196.569 191.096 196.825 190.482 197.074C189.686 197.373 188.926 197.804 188.297 198.433C188.1 198.63 188.29 198.879 188.648 199.105C189.013 199.324 189.561 199.58 190.022 199.522C191.673 199.346 193.135 198.827 194.64 198.082C195.546 197.651 196.584 197.549 197.571 197.286C198.652 197.008 199.748 196.723 200.852 196.474C201.531 196.314 202.211 196.175 202.898 196.043C203.936 195.861 204.981 195.641 206.033 195.561C206.851 195.495 207.67 195.619 208.488 195.649C208.664 195.649 208.846 195.671 209.022 195.649C209.351 195.619 209.563 195.532 209.701 195.349C209.84 195.181 209.906 194.947 209.943 194.611C209.957 194.457 209.986 194.304 209.994 194.158C210.008 193.676 209.694 193.259 209.175 193.025C208.795 192.916 208.415 192.813 208.035 192.747C207.655 192.711 207.275 192.696 206.888 192.696C206.121 192.704 205.353 192.777 204.579 192.879C203.431 193.025 202.291 193.259 201.144 193.478L201.144 193.551L201.144 193.559Z" fill="#12111F"/>
<path d="M293.908 282.596L295.67 284.24C295.889 284.437 296.072 284.671 296.298 284.861C297.095 285.548 297.891 286.227 298.812 286.841C299.024 286.973 299.214 287.112 299.492 287.236C299.74 287.36 300.12 287.477 300.434 287.433C300.653 287.419 300.843 287.309 300.982 287.141C301.041 287.053 301.121 286.98 301.172 286.878L301.289 286.556C301.37 286.337 301.333 286.154 301.348 285.95C301.348 285.76 301.275 285.628 301.231 285.467C301.158 285.277 300.96 285.329 300.727 285.489C300.61 285.57 300.471 285.679 300.347 285.796C300.23 285.921 300.157 285.935 300.142 286.008C300.135 286.03 300.142 286.008 300.142 286.023C300.142 286.023 300.142 286.023 300.142 286.037C300.142 286.037 300.142 286.045 300.127 286.037L300.018 285.986C299.652 285.796 299.148 285.446 298.68 285.124C298.103 284.729 297.635 284.152 297.117 283.641L295.377 281.952L294.296 280.915C293.74 280.389 293.185 279.87 292.63 279.344C292.206 278.934 291.826 278.474 291.329 278.079C291.219 277.992 291.11 277.904 290.993 277.824C290.525 277.531 290.233 277.634 290.05 277.919C290.006 277.984 289.962 278.05 289.933 278.123C289.853 278.372 289.948 278.613 290.123 278.847C290.423 279.146 290.752 279.504 291.095 279.862C291.438 280.228 291.818 280.571 292.198 280.944C292.768 281.499 293.338 282.055 293.901 282.61L293.93 282.588L293.908 282.596Z" fill="#12111F"/>
<path d="M256.478 286.074C256.134 286.739 255.974 287.462 256.142 288.164C256.31 288.873 256.843 289.406 257.428 289.823C257.749 290.005 258.049 290.232 258.407 290.334C258.729 290.444 258.941 290.524 259.211 290.561C259.73 290.678 260.227 290.685 260.731 290.707L261.798 290.648C262.141 290.59 262.485 290.532 262.828 290.451C265.159 289.706 266.994 288.273 268.521 286.71C268.879 286.381 269.179 285.993 269.522 285.65C269.858 285.299 270.202 284.956 270.494 284.59C270.896 284.13 271.327 283.684 271.634 283.151L271.868 282.756L272.036 282.318C272.138 282.025 272.248 281.733 272.357 281.433C272.474 281.061 272.343 281.032 271.941 281.141C271.678 281.214 271.4 281.295 271.144 281.368C270.984 281.419 270.816 281.47 270.647 281.536C270.56 281.565 270.487 281.609 270.384 281.631C270.326 281.682 270.253 281.733 270.194 281.792C269.244 282.537 268.587 283.494 267.746 284.269C267.542 284.473 267.359 284.693 267.154 284.883C266.95 285.073 266.738 285.263 266.541 285.467C266.153 285.898 265.722 286.235 265.313 286.637C264.29 287.528 262.952 288.018 261.71 288.237C261.031 288.339 260.322 288.383 259.693 288.215C259.328 288.105 259.247 288.091 259.072 288.003C258.926 287.915 258.758 287.784 258.729 287.601C258.692 287.375 258.816 287.148 258.955 286.965C258.97 286.936 259.043 286.848 259.131 286.768L259.372 286.534C259.547 286.381 259.715 286.227 259.912 286.088C260.482 285.65 261.096 285.226 261.739 284.81C262.375 284.408 263.099 283.918 263.712 283.436C264.684 282.668 265.693 281.989 266.57 281.2C266.76 281.024 266.957 280.871 267.14 280.681C267.476 280.345 267.651 280.082 267.702 279.818C267.761 279.563 267.724 279.343 267.615 279.066C267.564 278.942 267.527 278.81 267.469 278.708C267.286 278.364 266.731 278.35 266.007 278.649C263.983 279.643 262.514 281.251 260.914 282.193C260.249 282.603 259.467 283.048 258.758 283.611C258.392 283.882 258.034 284.196 257.669 284.525C257.486 284.707 257.304 284.875 257.121 285.08C256.836 285.372 256.609 285.723 256.412 286.052L256.471 286.081L256.478 286.074Z" fill="#12111F"/>
<path d="M302.751 286.337C302.736 285.876 302.692 285.394 302.583 284.897C302.553 284.649 302.451 284.408 302.371 284.159C302.29 283.925 302.188 283.626 302.137 283.531C301.888 282.946 301.596 282.42 301.311 281.894C300.719 280.856 300.076 279.884 299.411 278.934C298.921 278.24 298.483 277.524 297.964 276.866C297.043 275.704 296.086 274.586 295.085 273.497C294.588 272.956 294.076 272.416 293.55 271.89C293.01 271.363 292.52 270.837 291.826 270.326C291.234 269.865 290.503 269.493 289.736 269.317C288.968 269.142 288.186 269.105 287.478 269.23C286.564 269.383 285.724 269.639 284.942 269.931C284.145 270.209 283.436 270.589 282.771 271.122C282.355 271.451 282.457 271.619 282.991 271.875C283.261 272.006 283.648 272.196 284.094 272.306C284.313 272.357 284.555 272.43 284.788 272.438C285.015 272.438 285.249 272.408 285.475 272.35C286.272 272.145 287.025 271.97 287.682 271.911C288.347 271.882 288.859 271.809 289.326 271.926L289.677 272.036C289.794 272.101 289.911 272.138 290.035 272.211L290.408 272.445C290.54 272.54 290.686 272.664 290.832 272.781C291.424 273.278 292.03 273.841 292.637 274.396C294.091 275.748 295.297 277.443 296.51 279.058C297.175 279.95 297.825 280.849 298.425 281.777C299.016 282.683 299.579 283.677 299.974 284.576C300.105 284.875 300.23 285.19 300.251 285.555C300.251 285.73 300.237 285.928 300.127 286.066C299.996 286.198 299.791 286.14 299.645 286.066C299.411 285.95 299.199 285.781 298.98 285.599L298.819 285.46L298.739 285.387L298.6 285.255L298.037 284.715C297.292 283.976 296.568 283.209 295.852 282.435C294.734 281.236 293.704 279.972 292.454 278.832C292.176 278.576 291.913 278.328 291.599 278.094C291.022 277.67 290.569 277.443 290.203 277.4C290.006 277.4 289.853 277.414 289.714 277.465C289.568 277.524 289.443 277.619 289.334 277.714C289.231 277.801 289.122 277.867 289.071 277.933C288.968 278.057 289.041 278.218 289.173 278.488C289.297 278.773 289.509 279.051 289.853 279.292C290.854 280.096 291.84 281.119 292.841 282.171C293.865 283.253 294.895 284.356 295.933 285.453C296.335 285.869 296.736 286.278 297.168 286.695L297.65 287.141L298.278 287.703C298.688 288.083 299.133 288.434 299.55 288.631C299.974 288.829 300.354 288.909 300.712 288.909C301.055 288.88 301.428 288.792 301.786 288.536C302.13 288.281 302.371 287.959 302.524 287.579C302.612 287.396 302.663 287.192 302.729 287.002C302.773 286.797 302.787 286.563 302.816 286.351L302.758 286.322L302.751 286.337Z" fill="#12111F"/>
<path d="M283.196 292.826C283.4 293.068 283.627 293.309 283.875 293.543C284.146 293.798 284.328 293.966 284.84 294.325C285.081 294.441 285.307 294.573 285.549 294.675C285.797 294.741 286.038 294.843 286.287 294.88C286.791 294.96 287.266 294.894 287.748 294.792C288.004 294.697 288.245 294.566 288.479 294.427C288.698 294.259 288.881 294.054 289.042 293.835C289.356 293.389 289.473 292.826 289.509 292.256C289.509 291.964 289.524 291.679 289.48 291.372L289.429 290.992L289.371 290.707C289.29 290.327 289.188 289.969 289.078 289.626C288.771 288.683 288.464 287.777 288.041 286.929C287.295 285.438 286.433 284.035 285.468 282.691C284.986 282.018 284.46 281.375 283.89 280.747C283.32 280.133 282.699 279.505 281.873 279C280.565 278.226 279.147 277.634 277.693 277.268C276.757 277.064 275.807 276.932 274.872 276.903C274.404 276.896 273.937 276.954 273.476 277.013C273.016 277.064 272.563 277.159 272.117 277.305C271.562 277.488 271.635 277.648 272.11 278.014C272.585 278.408 273.469 278.993 274.426 279.256C275.281 279.402 276.1 279.534 276.882 279.76C277.664 279.958 278.431 280.162 279.154 280.476C279.52 280.623 279.878 280.791 280.221 280.988C280.616 281.2 280.791 281.302 281.098 281.551C281.676 282.026 282.275 282.669 282.852 283.319C284.248 284.898 285.286 286.922 286.155 288.873C286.513 289.684 286.827 290.517 286.996 291.299C287.025 291.401 287.032 291.504 287.039 291.518C287.047 291.555 287.054 291.606 287.061 291.65C287.076 291.738 287.076 291.833 287.061 291.928C287.054 292.118 286.915 292.308 286.718 292.337C286.469 292.41 286.199 292.329 285.972 292.176C285.936 292.147 285.746 292.03 285.636 291.928C285.505 291.825 285.381 291.716 285.256 291.591C285.001 291.35 284.752 291.087 284.511 290.81C284.014 290.261 283.561 289.648 283.086 289.041C281.668 287.192 280.126 285.336 278.256 283.809C276.816 282.625 275.23 281.543 273.396 280.929C272.994 280.791 272.599 280.644 272.176 280.564C271.788 280.469 271.459 280.447 271.182 280.454C270.904 280.462 270.685 280.462 270.495 280.549C270.122 280.71 269.917 280.922 269.757 281.222C269.684 281.353 269.589 281.485 269.552 281.609C269.486 281.821 269.603 282.018 269.852 282.23C270.1 282.442 270.48 282.661 270.948 282.8C271.649 282.998 272.329 283.217 273.001 283.465C273.659 283.743 274.309 284.035 274.931 284.401C276.173 285.124 277.342 286.067 278.424 287.17C280.046 288.836 281.464 290.729 283.152 292.856L283.196 292.819L283.196 292.826Z" fill="#12111F"/>
<path d="M298.227 287.784C298.037 287.323 297.913 286.878 297.679 286.425L297.358 285.745C297.256 285.518 297.124 285.277 297.066 285.19C296.781 284.685 296.466 284.203 296.152 283.735C295.516 282.793 294.851 281.901 294.157 281.032C293.653 280.396 293.2 279.723 292.659 279.117C291.702 278.057 290.693 277.042 289.626 276.084C288.545 275.134 287.441 274.213 286.119 273.417C285.819 273.242 285.505 273.073 285.169 272.92C284.986 272.847 284.796 272.774 284.613 272.708L284.087 272.562C283.378 272.394 282.647 272.335 281.939 272.365C281.032 272.394 280.148 272.577 279.344 272.869C278.541 273.161 277.78 273.519 277.276 274.301C276.955 274.776 277.123 274.944 277.729 275.258C278.029 275.405 278.489 275.697 278.913 275.828C279.132 275.894 279.359 275.989 279.571 276.011C279.776 276.018 279.973 276.011 280.163 275.953C280.828 275.755 281.471 275.682 282.026 275.587C282.596 275.507 283.115 275.514 283.627 275.609C283.956 275.631 284.569 275.945 285.169 276.296C285.775 276.662 286.404 277.085 287.025 277.531C288.53 278.613 289.758 280.162 291.007 281.602C292.374 283.187 293.704 284.897 294.727 286.622C294.888 286.885 295.049 287.163 295.187 287.484C295.319 287.798 295.451 288.164 295.37 288.529C295.341 288.661 295.275 288.8 295.151 288.851C295.034 288.909 294.902 288.887 294.778 288.851C294.537 288.77 294.318 288.624 294.099 288.463C293.631 288.105 293.368 287.864 292.542 287.024C291.461 285.913 290.54 284.678 289.422 283.523C289.173 283.268 288.939 283.005 288.654 282.763C288.128 282.318 287.704 282.062 287.324 282.011C286.937 281.974 286.637 282.106 286.389 282.354C286.279 282.464 286.162 282.559 286.097 282.668C285.987 282.851 286.046 283.063 286.119 283.326C286.199 283.618 286.323 283.896 286.616 284.174C287.456 285.043 288.34 286.103 289.283 287.148C289.758 287.674 290.24 288.208 290.752 288.741L291.556 289.56C292.067 290.078 292.586 290.627 293.141 291.087C293.96 291.781 294.793 292.22 295.451 292.337C296.123 292.446 296.664 292.402 297.336 291.978C297.636 291.73 297.942 291.496 298.081 291.16L298.33 290.714C298.388 290.553 298.417 290.378 298.469 290.217C298.607 289.53 298.52 288.697 298.293 287.791L298.213 287.777L298.227 287.784Z" fill="#12111F"/>
<path d="M80.9699 275.084C80.5461 275.887 80.1442 276.699 79.7349 277.517C79.5961 277.817 79.4134 278.102 79.2819 278.401C78.8215 279.483 78.4123 280.586 78.0249 281.697C77.8496 282.187 77.6669 282.676 77.4915 283.166C77.2138 283.772 77.148 284.459 77.1334 285.139C77.1334 285.351 77.2796 285.358 77.5134 285.249C77.74 285.132 78.12 284.92 78.3465 284.613L78.6461 284.204C78.7484 284.065 78.7777 283.911 78.858 283.765L79.2453 282.881C79.5011 282.289 79.6765 281.66 79.8738 281.025C80.1003 280.265 80.5388 279.556 80.9042 278.832C81.2988 278.036 81.6788 277.225 82.0953 276.428C82.3511 275.939 82.5996 275.442 82.8773 274.959C83.2865 274.229 83.6884 273.49 84.1488 272.789C84.485 272.234 84.9307 271.766 85.2669 271.225C85.34 271.101 85.4203 270.991 85.4861 270.867C85.7346 270.399 85.7419 270.202 85.5811 269.961C85.5446 269.902 85.5153 269.844 85.4715 269.8C85.3399 269.654 85.0696 269.734 84.7553 269.99C84.5215 270.187 84.2876 270.385 84.0538 270.575C83.8199 270.772 83.6373 271.013 83.4327 271.24C83.038 271.7 82.658 272.182 82.3438 272.709C81.8469 273.469 81.3938 274.265 80.9334 275.062L80.9699 275.084Z" fill="#12111F"/>
<path d="M75.4306 275.58C75.1383 276.099 74.8533 276.618 74.5683 277.137C74.4659 277.327 74.3271 277.495 74.2321 277.692C73.8813 278.372 73.5671 279.088 73.3113 279.826C73.1944 280.148 73.0556 280.469 72.9679 280.798C72.8436 281.215 72.7486 281.653 72.7633 282.099C72.7633 282.238 72.8436 282.23 72.9679 282.135C73.0921 282.04 73.2748 281.88 73.3917 281.675L73.7132 281.134C73.8302 280.959 73.9544 280.791 74.0275 280.601C74.2102 280.235 74.3929 279.863 74.5536 279.468C74.729 278.986 75.0579 278.562 75.3356 278.116L76.2636 276.633L76.8483 275.719C77.1406 275.259 77.4256 274.777 77.7471 274.338C78.0029 273.995 78.2879 273.688 78.529 273.337C78.5802 273.264 78.6459 273.191 78.6898 273.11C78.8506 272.796 78.814 272.643 78.6679 272.467C78.6313 272.431 78.6021 272.387 78.5656 272.35C78.4486 272.241 78.244 272.285 78.0175 272.431C77.7033 272.665 77.4256 272.935 77.1479 273.205C76.8848 273.483 76.6509 273.797 76.4098 274.104C76.059 274.572 75.7009 275.04 75.4013 275.558L75.4306 275.58Z" fill="#12111F"/>
<path d="M104.062 286.015C104.457 286.227 104.874 286.403 105.29 286.585C105.721 286.732 106.145 286.907 106.569 287.017C107 287.134 107.439 287.236 107.906 287.302C108.14 287.338 108.374 287.36 108.622 287.375C108.739 287.389 108.951 287.389 109.112 287.375C109.287 287.367 109.463 287.375 109.631 287.338C110.603 287.214 111.546 286.768 111.955 285.906C112.057 285.73 112.108 285.526 112.181 285.336C112.225 285.138 112.232 284.934 112.232 284.729C112.196 284.327 112.05 283.94 111.831 283.582C111.611 283.224 111.312 282.895 111.019 282.595C110.807 282.398 110.603 282.215 110.398 282.04C109.572 281.353 108.761 280.747 108.001 280.096C107.329 279.526 106.73 278.876 106.24 278.204C105.941 277.758 105.656 277.327 105.407 276.888C105.181 276.442 104.925 276.048 104.618 275.587C104.26 275.31 104.223 275.31 103.799 275.682C103.573 275.872 103.397 276.157 103.229 276.53C103.164 276.713 103.076 276.925 103.069 277.129C103.069 277.327 103.091 277.546 103.164 277.736C103.281 278.087 103.427 278.415 103.587 278.73C103.734 279.051 103.924 279.351 104.136 279.607C104.552 280.14 104.998 280.622 105.458 281.061C106.379 281.938 107.373 282.654 108.337 283.319C108.63 283.516 108.893 283.728 109.134 283.955L109.309 284.123C109.382 284.203 109.353 284.167 109.39 284.203C109.434 284.247 109.47 284.291 109.507 284.335C109.572 284.43 109.631 284.547 109.609 284.664C109.58 284.78 109.514 284.883 109.426 284.956C109.324 285.036 109.192 285.08 109.054 285.095C108.988 285.124 108.579 285.095 108.25 285.022C107.556 284.905 106.839 284.649 106.174 284.371C105.349 284.006 104.559 283.516 103.821 282.946C102.718 282.077 101.666 281.054 100.832 279.892C100.182 278.985 99.7363 277.962 99.2978 276.961C99.2028 276.742 99.1005 276.53 98.9763 276.318C98.8594 276.128 98.7571 275.967 98.6548 275.843C98.5378 275.726 98.3844 275.66 98.2748 275.595C98.0409 275.47 97.7998 275.448 97.5586 275.448C97.449 275.449 97.3467 275.427 97.2736 275.434C97.1421 275.441 97.0763 275.551 96.9594 275.792C96.8936 275.916 96.8571 276.055 96.8205 276.223C96.7913 276.384 96.7475 276.589 96.7621 276.779C96.8059 277.049 96.8644 277.327 96.9302 277.597C96.9886 277.875 97.0544 278.145 97.1786 278.393C97.3905 278.905 97.639 279.409 97.924 279.899C98.4867 280.885 99.159 281.821 99.9409 282.698C101.074 284.013 102.477 285.146 104.055 286.045L104.092 285.993L104.062 286.015Z" fill="#12111F"/>
<path d="M72.3389 280.206C72.5435 279.146 72.9162 278.014 73.3693 276.918C73.5373 276.516 73.7785 276.15 73.9393 275.748C74.5166 274.316 75.1816 272.884 75.9781 271.539C76.3143 270.933 76.7308 270.37 77.162 269.844C77.7685 269.208 78.2289 268.47 78.6527 267.63C78.7843 267.366 78.7039 267.308 78.375 267.301C78.2143 267.301 77.9731 267.293 77.6954 267.308C77.5566 267.315 77.4031 267.33 77.257 267.359C77.1766 267.366 77.1108 267.396 77.0231 267.403L76.8331 267.505C76.6139 267.637 76.4093 267.776 76.1901 267.914C75.9854 268.053 75.8247 268.243 75.6493 268.411C75.3058 268.755 74.9843 269.113 74.6774 269.486C74.0489 270.216 73.5666 271.057 73.1573 271.934C72.675 272.979 71.937 273.921 71.3962 274.966C70.8262 276.128 70.3439 277.341 69.9566 278.606C69.7227 279.388 69.5254 280.199 69.4524 281.09C69.4158 281.419 69.4304 281.901 69.5181 282.347C69.6131 282.793 69.8397 283.188 70.1466 283.502C70.702 284.05 71.4547 284.386 72.2293 284.393C73.5373 284.401 74.5458 283.882 75.4227 283.246C75.6054 283.1 75.81 282.968 75.9708 282.786C76.5408 282.084 76.4385 281.631 75.8831 281.171C75.7589 281.068 75.6493 280.959 75.525 280.886C75.3204 280.754 75.0939 280.718 74.8308 280.703C74.5677 280.688 74.3193 280.718 74.1293 280.827C73.8224 280.973 73.552 281.134 73.2962 281.273C73.0404 281.419 72.792 281.514 72.5947 281.58C72.1197 281.711 72.2877 281.58 72.2585 281.609C72.2585 281.609 72.2585 281.609 72.2439 281.609L72.2293 281.609C72.2293 281.609 72.2293 281.609 72.2293 281.594L72.2293 281.492C72.2147 281.156 72.2877 280.688 72.4046 280.228L72.3389 280.206Z" fill="#12111F"/>
<path d="M77.5494 278.138C78.1194 276.56 78.7917 274.989 79.5736 273.483C79.8586 272.935 80.224 272.431 80.5236 271.89C81.5833 270.012 82.8036 268.127 84.2944 266.804C84.6379 266.534 84.9594 266.322 85.3321 266.227C85.7267 266.125 86.1725 266.081 86.6109 266.081C87.1809 266.088 87.7509 266.19 88.2771 266.322C88.5402 266.38 88.8106 266.402 89.0663 266.475C89.3148 266.541 89.5998 266.548 89.8629 266.673C90.1771 266.811 90.2867 266.797 90.3086 266.307C90.3086 266.066 90.2575 265.708 90.0894 265.262C89.9067 264.875 89.5632 264.488 89.154 264.254C88.394 263.91 87.6194 263.801 86.8448 263.742C86.0629 263.698 85.2883 263.72 84.3894 263.998C83.454 264.312 82.7963 264.809 82.2263 265.313C81.6417 265.81 81.2032 266.388 80.794 266.972C79.8367 268.368 78.7771 269.669 77.9294 271.101C77.016 272.672 76.2121 274.302 75.5105 275.975C75.0794 277.006 74.6848 278.051 74.3267 279.11C74.0563 279.914 73.8298 280.74 73.6471 281.588C73.4717 282.457 73.3182 283.268 73.3475 284.306C73.3475 284.657 73.4352 284.949 73.4936 285.278L73.6763 285.724C73.7421 285.87 73.8371 286.001 73.9175 286.14C74.2902 286.593 74.8382 286.878 75.4448 286.973C75.7517 287.017 76.0659 287.025 76.3802 286.988C76.7017 286.959 77.0306 286.849 77.2571 286.776C77.6006 286.652 77.9367 286.528 78.2363 286.316C79.3325 285.512 79.3179 284.92 78.9598 284.401C78.8721 284.277 78.799 284.145 78.704 284.058C78.3825 283.751 77.8052 283.868 77.2863 284.072C77.0671 284.167 76.8479 284.226 76.6359 284.255C76.5336 284.27 76.4313 284.277 76.329 284.277C76.2779 284.277 76.234 284.277 76.1829 284.277C76.1609 284.277 76.1536 284.27 76.139 284.255C76.044 284.196 76.0221 284.123 76.0367 284.072C76.044 284.028 76.0659 284.036 76.0805 284.006C76.0952 283.678 76.1171 283.283 76.2048 282.844C76.4679 281.368 76.9794 279.731 77.5932 278.175L77.5348 278.146L77.5494 278.138Z" fill="#12111F"/>
<path d="M82.0076 281.806C82.446 280.206 82.9868 278.613 83.6226 277.078C83.8637 276.515 84.178 276.004 84.4337 275.456C84.8795 274.491 85.3764 273.556 85.9099 272.664C86.4507 271.787 87.0791 270.954 87.8099 270.355C88.4091 269.851 89.308 269.595 90.1776 269.485C90.7403 269.412 91.2957 269.456 91.8145 269.485C92.0776 269.485 92.3187 269.536 92.5818 269.507C92.8595 269.463 93.1372 269.456 93.4222 269.507C93.7803 269.573 93.868 269.522 93.8022 269.04C93.7656 268.806 93.6707 268.448 93.4514 268.031C93.3418 267.826 93.2103 267.6 93.0276 267.425C92.8449 267.293 92.6257 267.161 92.3991 267.096C91.9972 266.942 91.5953 266.898 91.1934 266.891C90.7987 266.884 90.4114 266.891 90.0314 266.942C89.2714 267.03 88.5334 267.198 87.7953 267.483C87.4445 267.615 86.9987 267.841 86.6626 268.068C86.3045 268.294 86.0049 268.557 85.7126 268.82C85.1499 269.354 84.7041 269.931 84.3095 270.523C83.3887 271.941 82.4241 273.315 81.7006 274.783C80.9041 276.398 80.2683 278.072 79.691 279.753C79.3403 280.79 79.0333 281.843 78.7556 282.91C78.5437 283.721 78.361 284.532 78.266 285.445C78.2514 285.548 78.2514 285.701 78.2368 285.855C78.2295 286.001 78.2514 286.147 78.2587 286.286C78.2953 286.571 78.4195 286.841 78.551 287.104C78.6168 287.236 78.6753 287.382 78.7556 287.499L79.0114 287.842C79.1649 288.091 79.3914 288.266 79.6107 288.441C80.3195 288.99 81.2914 289.026 82.161 288.741C82.3657 288.661 82.6141 288.58 82.7968 288.493L83.3157 288.222C83.6299 288.025 83.9514 287.82 84.2218 287.572C84.463 287.36 84.7114 287.163 84.9161 286.907C85.3107 286.454 85.4641 286.059 85.4422 285.716C85.4422 285.394 85.2814 285.124 84.9964 284.875C84.8649 284.758 84.748 284.641 84.6091 284.561C84.1341 284.32 83.5933 284.444 83.0233 284.758C82.6653 285.043 82.278 285.314 81.9053 285.526C81.7299 285.643 81.5472 285.745 81.4011 285.818C81.3353 285.84 81.2257 285.906 81.2037 285.898C81.1891 285.898 81.1745 285.884 81.1672 285.876C81.1234 285.847 81.116 285.811 81.1234 285.789C81.1234 285.781 81.1234 285.774 81.1234 285.774C81.138 285.774 81.1599 285.833 81.1526 285.818C81.1526 285.818 81.1526 285.906 81.1526 285.803C81.1672 285.657 81.1818 285.496 81.2184 285.314C81.2768 284.956 81.3499 284.568 81.4376 284.181C81.613 283.399 81.8322 282.595 82.088 281.799L82.0222 281.77L82.0076 281.806Z" fill="#12111F"/>
<path d="M88.9557 286.52C88.9264 286.608 88.8314 286.725 88.678 286.725C88.561 286.71 88.5391 286.586 88.5026 286.469C88.4953 286.44 88.488 286.389 88.4806 286.345L88.4806 286.308L88.4806 286.199L88.4806 285.965C88.4806 285.651 88.5099 285.322 88.5318 285C88.5903 284.24 88.773 283.48 88.9045 282.713C89.3722 280.009 90.1906 277.305 91.5645 274.93C92.1783 273.878 92.953 272.928 93.8445 272.161C94.4291 271.686 95.0283 271.24 95.6641 270.874C95.9783 270.684 96.3145 270.538 96.6287 270.334C96.9576 270.114 97.2791 269.902 97.608 269.683C98.0318 269.384 97.966 269.252 97.4618 268.996C97.2133 268.879 96.8187 268.646 96.351 268.565C96.1172 268.521 95.8468 268.448 95.591 268.463C95.3426 268.499 95.0868 268.565 94.831 268.667C93.026 269.398 91.5791 270.75 90.4976 272.212C89.3941 273.681 88.6049 275.31 88.0349 276.976C87.3699 278.979 86.6099 281.003 86.2372 283.122C86.0691 284.101 85.9522 285.088 85.9229 286.111C85.923 286.754 85.9083 287.602 86.091 288.245C86.2591 288.924 86.566 289.429 87.1653 289.743C87.6403 289.904 88.1372 289.977 88.6268 289.904C89.5841 289.772 90.4099 289.049 91.053 288.237C91.5718 287.536 91.8933 286.937 92.2368 286.279C93.2233 284.328 93.9395 282.34 94.8383 280.491C95.5399 279.074 96.446 277.758 97.418 276.808C97.6226 276.596 97.8418 276.421 98.0391 276.275C98.4118 275.99 98.6018 275.844 98.748 275.646C98.9014 275.464 99.011 275.208 99.1426 274.901C99.201 274.762 99.296 274.645 99.3399 274.536C99.4203 274.353 99.3399 274.185 99.0403 273.929C98.9672 273.871 98.8722 273.783 98.7626 273.746C98.6603 273.717 98.536 273.688 98.4045 273.666C98.1268 273.615 97.8199 273.629 97.4764 273.702C96.4826 273.98 95.686 274.55 95.0283 275.142C94.4072 275.771 93.903 276.45 93.4572 277.137C92.5803 278.511 91.9153 279.936 91.2941 281.324C90.8556 282.369 90.4464 283.4 90.0153 284.364C89.8033 284.854 89.5768 285.314 89.343 285.746C89.226 285.95 89.1091 286.162 88.9849 286.345C88.8972 286.469 88.941 286.411 88.9264 286.44L88.9264 286.462L88.9557 286.52Z" fill="#12111F"/>
<path d="M185.631 275.858C186.983 276.311 188.386 276.64 189.818 276.779C190.337 276.83 190.856 276.918 191.389 276.903C192.325 276.859 193.245 276.728 194.152 276.501C195.05 276.253 195.913 275.916 196.717 275.478C197.411 275.054 198.098 274.616 198.69 274.09C199.45 273.403 200.064 272.577 200.517 271.685C200.663 271.408 200.597 271.422 200.356 271.561C199.939 271.817 199.545 272.058 199.216 272.263C198.829 272.555 198.39 272.774 197.995 273.015L197.411 273.381L196.812 273.702C195.993 274.082 195.197 274.477 194.32 274.762C193.267 275.12 192.076 275.069 190.936 274.988C189.672 274.93 188.393 274.674 187.151 274.301C186.384 274.068 185.624 273.79 184.9 273.446C183.797 272.935 182.7 272.343 181.736 271.598C180.983 271.02 180.34 270.348 179.741 269.661C179.609 269.508 179.5 269.347 179.361 269.201C178.805 268.704 178.55 268.609 178.133 268.704C178.038 268.726 177.936 268.733 177.855 268.77C177.585 268.865 177.563 269.288 177.804 269.895C177.972 270.355 178.243 270.75 178.528 271.13C178.813 271.51 179.127 271.875 179.463 272.226C180.114 272.942 180.91 273.505 181.729 274.024C182.942 274.791 184.257 275.405 185.616 275.902L185.638 275.858L185.631 275.858Z" fill="#12111F"/>
</svg>
