<svg width="455" height="8" viewBox="0 0 455 8" fill="none" xmlns="http://www.w3.org/2000/svg">
<path d="M276.96 6.75871C265.302 5.73384 253.884 4.00831 242.342 3.57875C230.797 2.96892 219.214 2.79789 207.629 2.91702C199.178 3.00623 190.728 3.31567 182.277 3.6451C167.381 4.20714 152.484 5.02936 137.58 5.78123C130.128 6.16217 122.666 6.53269 115.206 6.85326C111.487 7.00897 107.746 7.19381 103.991 7.22796C100.246 7.2825 96.5034 7.25713 92.7721 7.21217C86.1399 7.12675 79.5281 7.03216 72.8972 7.15697C66.2285 7.23016 59.6071 6.88499 53.0369 6.51189C49.1532 6.28045 45.2586 6.06856 41.3715 5.91705C39.4332 5.83651 37.4841 5.77553 35.5441 5.73495L34.1445 5.69683C34.0241 5.70184 33.9833 5.72014 33.8306 5.78385C33.6674 5.85714 33.483 5.95958 33.2977 6.08199L32.0539 6.87103C31.8279 7.01177 31.5818 7.15168 31.2963 7.27993C30.9699 7.42651 30.5653 7.52981 30.1852 7.52402C29.6461 7.49161 29.2893 7.40672 28.8267 7.21736C28.3942 7.02924 28.0062 6.73286 27.6993 6.40984C27.4024 6.08724 27.1493 5.67638 27.1297 5.66555C27.0918 5.61394 27.0543 5.55234 26.9956 5.51988C26.9861 5.50947 26.9657 5.51862 26.9461 5.5078C26.9136 5.5665 26.8562 5.74428 26.8117 5.85252L26.5299 6.61147C27.0729 4.38209 26.6756 5.99698 26.8066 5.49199L26.7866 5.49116L26.7567 5.48991L26.6668 5.48617L26.2971 5.47081L25.5681 5.43054L24.1002 5.3495L21.174 5.19788L15.3224 4.87468L9.48197 4.52188C7.53739 4.351 5.59156 4.21012 3.66029 3.95972C1.04294 3.60075 -0.0798571 3.40396 0.00422561 3.30737C0.0883083 3.21078 1.38093 3.1744 3.63104 2.97765C5.87033 2.80046 9.0542 2.53242 12.878 2.52116C16.703 2.47993 21.1741 2.5456 26.0191 2.76694L26.5786 2.79019L26.8983 2.80347L27.1981 2.81593L27.3479 2.82216L27.4179 2.82506L27.4578 2.82672L27.4778 2.82755L27.936 0.954975L28.0789 2.33209C28.1102 2.54357 28.1181 2.83415 28.1618 2.98609C28.2305 3.01897 28.3096 3.04227 28.3779 3.08515C28.6514 3.24664 28.8833 3.44647 29.0828 3.70497C29.2535 3.93225 29.5171 4.33352 29.5362 4.35433C29.6028 4.43717 29.6499 4.5092 29.6978 4.56123C29.7939 4.6553 29.8522 4.69777 29.9405 4.74147C29.9904 4.74355 30.0292 4.77516 30.0987 4.78806C30.1378 4.8097 30.2881 4.80596 30.2278 4.81346C30.2278 4.81346 30.187 4.83176 30.2686 4.79512C30.3909 4.74015 30.5654 4.63733 30.7502 4.5249C31.1302 4.29048 31.5632 3.98818 32.066 3.6888C32.3429 3.53015 32.5893 3.38027 33.0268 3.20828C33.2708 3.11833 33.5139 3.04837 33.7653 3.01878C34.0068 2.98878 34.3273 2.98206 34.4068 2.99538L35.9563 3.03975C38.025 3.1157 40.0828 3.21122 42.1298 3.3263L54.4192 4.07716C58.5032 4.30692 62.588 4.51669 66.657 4.62572C70.7255 4.74474 74.7737 4.63272 78.928 4.61518C87.1758 4.59759 95.3925 4.84893 103.575 4.72853C107.66 4.6881 111.752 4.46781 115.883 4.28916C120.005 4.10011 124.127 3.90107 128.248 3.71201C148.998 2.69262 170.593 1.08781 191.88 0.410975C203.576 0.0362209 215.302 -0.117051 227.013 0.0993464C238.713 0.345303 250.483 0.83438 262.127 2.18896C269.291 2.94708 276.423 3.77386 283.564 4.15064C287.129 4.32883 290.708 4.43751 294.267 4.30514C297.824 4.19275 301.378 3.93007 304.866 3.33436C307.505 2.92358 310.304 2.52943 313.02 2.19191C315.751 1.98511 318.496 1.69881 321.233 1.57236C323.97 1.46589 326.709 1.30945 329.434 1.24253L337.637 1.10299C348.559 1.04638 359.45 1.24871 370.271 1.44814C387.092 1.76678 403.575 2.03135 420.172 1.96036C423.828 1.90208 427.394 1.84005 431.079 1.78302C444.723 1.49921 448.964 1.08493 451.996 1.81145C452.68 1.96 453.587 2.0677 453.991 2.2246C454.69 2.48388 453.663 2.88159 451.208 3.44013C449.985 3.71961 448.38 4.04326 446.47 4.24414C444.56 4.44502 442.32 4.64217 439.8 4.82771C424.873 5.65868 409.566 5.50307 394.083 5.25005C378.592 4.96664 362.909 4.47509 347.211 4.33325L338.474 4.32051L329.742 4.43808C326.827 4.49711 323.937 4.65727 321.03 4.76667C319.577 4.82637 318.149 4.97726 316.704 5.07733C315.267 5.2078 313.813 5.26748 312.395 5.44874C309.556 5.84122 306.789 6.19665 303.746 6.69073C302.256 6.88906 300.759 7.03704 299.262 7.175C297.767 7.25302 296.27 7.40097 294.778 7.41904C288.805 7.61122 282.862 7.31422 276.977 6.81949L276.951 6.73832L276.96 6.75871Z" fill="#231F20"/>
</svg>
