<svg width="455" height="12" viewBox="0 0 455 12" fill="none" xmlns="http://www.w3.org/2000/svg">
<path d="M177.172 7.63662C188.842 6.76798 200.283 5.19553 211.829 4.9206C223.381 4.46545 234.965 4.44956 246.548 4.72385C254.997 4.92624 263.442 5.34883 271.888 5.79142C286.775 6.55292 301.66 7.57459 316.552 8.52602C323.999 9.00673 331.455 9.47716 338.91 9.89761C342.627 10.1031 346.365 10.3381 350.119 10.4225C353.863 10.5272 357.606 10.5519 361.337 10.557C367.97 10.5604 374.582 10.5544 381.211 10.768C387.878 10.9305 394.504 10.674 401.078 10.3889C404.965 10.2095 408.862 10.0498 412.75 9.9504C414.69 9.89583 416.64 9.86096 418.58 9.84637L419.98 9.827C420.1 9.83362 420.141 9.85246 420.293 9.91821C420.455 9.99368 420.638 10.0986 420.821 10.2235L422.055 11.0291C422.279 11.1728 422.523 11.316 422.807 11.4481C423.131 11.599 423.534 11.7077 423.914 11.707C424.454 11.6819 424.812 11.6018 425.277 11.4186C425.712 11.2363 426.104 10.9451 426.415 10.6263C426.716 10.3077 426.975 9.90023 426.994 9.88967C427.033 9.83857 427.071 9.77748 427.13 9.7458C427.14 9.73553 427.16 9.74495 427.18 9.73439C427.212 9.79352 427.267 9.97205 427.31 10.0809L427.581 10.8435C427.068 8.60709 427.444 10.2272 427.32 9.72045L427.34 9.71989L427.37 9.71904L427.46 9.71651L427.83 9.7061L428.559 9.67559L430.028 9.61423L432.956 9.50181L438.811 9.25701L444.656 8.98247C446.603 8.83765 448.55 8.72284 450.485 8.49833C453.106 8.17444 454.232 7.99272 454.149 7.89501C454.066 7.7973 452.774 7.74361 450.527 7.51674C448.29 7.30958 445.11 6.99892 441.287 6.93645C437.463 6.84399 432.991 6.84976 428.144 7.00619L427.584 7.02195L427.264 7.03095L426.964 7.03939L426.814 7.04361L426.744 7.04558L426.704 7.0467L426.684 7.04726L426.251 5.16872L426.09 6.5438C426.056 6.75484 426.044 7.04528 425.998 7.19663C425.929 7.22859 425.85 7.25082 425.781 7.29278C425.505 7.45059 425.271 7.6473 425.068 7.90311C424.894 8.12808 424.625 8.52578 424.606 8.54633C424.538 8.62827 424.49 8.69966 424.441 8.75105C424.344 8.84383 424.285 8.88551 424.196 8.92803C424.146 8.92944 424.107 8.96053 424.037 8.97249C423.998 8.99361 423.848 8.98785 423.908 8.99616C423.908 8.99616 423.949 9.01501 423.868 8.97727C423.746 8.92067 423.573 8.81552 423.39 8.70063C423.013 8.46114 422.584 8.15307 422.085 7.84698C421.81 7.68464 421.566 7.53147 421.131 7.35364C420.888 7.26043 420.646 7.18721 420.395 7.15426C420.154 7.12103 419.833 7.11002 419.754 7.12227L418.204 7.14589C416.134 7.19412 414.075 7.26207 412.027 7.34973L399.729 7.93592C395.642 8.11095 391.555 8.266 387.485 8.32052C383.415 8.38504 379.369 8.21881 375.215 8.14563C366.968 8.01757 358.749 8.15884 350.569 7.92886C346.485 7.83372 342.395 7.55864 338.267 7.32468C334.149 7.08044 330.03 6.82621 325.911 6.58197C305.177 5.28475 283.605 3.39085 262.329 2.42897C250.64 1.89761 238.916 1.58729 227.203 1.64681C215.501 1.73604 203.726 2.06744 192.065 3.26595C184.891 3.92803 177.749 4.65922 170.604 4.94033C167.036 5.07074 163.456 5.13149 159.9 4.95147C156.344 4.79144 152.794 4.48118 149.314 3.83881C146.681 3.39272 143.887 2.96111 141.176 2.58725C138.448 2.34389 135.708 2.02086 132.972 1.85775C130.237 1.71464 127.5 1.52153 124.776 1.41812L116.576 1.16872C105.656 0.965836 94.7635 1.02228 83.9407 1.07676C67.1167 1.17008 50.6314 1.21385 34.0366 0.920567C30.3821 0.81333 26.8176 0.703555 23.1332 0.597161C9.49465 0.130647 5.2597 -0.340401 2.21779 0.345443C1.53143 0.484807 0.623784 0.580364 0.217885 0.731843C-0.485364 0.981725 0.536595 1.39316 2.9842 1.98454C4.203 2.28037 5.80336 2.62548 7.71048 2.85192C9.61761 3.07836 11.8549 3.3055 14.3721 3.52477C29.287 4.55561 44.5944 4.60501 60.0792 4.55939C75.5732 4.48349 91.2615 4.20204 106.96 4.27046L115.696 4.37474L124.426 4.60926C127.34 4.70732 130.227 4.90617 133.132 5.0545C134.585 5.13366 136.01 5.30365 137.454 5.42308C138.889 5.57277 140.342 5.65192 141.758 5.85216C144.591 6.28263 147.353 6.67509 150.39 7.20989C151.876 7.42815 153.372 7.59616 154.867 7.75417C156.36 7.8522 157.855 8.02019 159.347 8.05825C165.317 8.33041 171.263 8.11303 177.154 7.69715L177.182 7.61636L177.172 7.63662Z" fill="#231F20"/>
</svg>
