<svg width="380" height="380" viewBox="0 0 380 380" fill="none" xmlns="http://www.w3.org/2000/svg">
<g opacity="0.5">
<path d="M91.7861 124.062C93.043 123.521 94.2414 122.835 95.3741 122.016C96.5141 121.22 97.5957 120.299 98.6041 119.298C100.643 117.31 102.411 115.001 103.99 112.567C105.568 110.126 106.942 107.532 108.141 104.858C109.339 102.19 110.377 99.4134 111.137 96.6364C111.7 94.6707 111.86 92.6464 111.51 90.7391C111.173 88.8537 110.128 87.1584 108.725 87.0999C108.097 87.0341 107.344 87.2534 106.621 87.648C105.905 88.0572 105.203 88.5907 104.553 89.2118C103.245 90.4395 102.09 91.9303 101.045 93.4795C100.007 95.0434 99.0353 96.6657 98.1438 98.3537C97.6907 99.1868 97.2741 100.049 96.843 100.897L96.2584 102.176L95.7322 103.476C94.4022 106.984 93.5911 110.704 93.4449 114.445C93.3061 118.172 93.8541 121.958 95.4253 125.305C96.8064 128.257 99.028 130.866 101.929 132.24C103.361 132.934 104.933 133.314 106.518 133.38C108.104 133.445 109.697 133.175 111.21 132.656C113.161 131.998 114.981 130.931 116.632 129.638C118.298 128.359 119.811 126.861 121.2 125.239C122.573 123.609 123.874 121.899 125.029 120.087C126.191 118.275 127.28 116.411 128.383 114.54C129.728 112.187 129.625 112.523 128.982 114.76C128.361 116.996 127.075 121.212 124.028 125.458C122.676 127.321 121.163 129.105 119.424 130.705C117.685 132.298 115.646 133.628 113.402 134.593L112.555 134.943L111.678 135.228C111.1 135.44 110.479 135.543 109.88 135.689C108.652 135.893 107.395 136.032 106.138 135.923C105.51 135.915 104.881 135.776 104.26 135.689C103.646 135.528 103.025 135.404 102.441 135.163C101.242 134.753 100.124 134.147 99.1011 133.445C98.0561 132.751 97.1645 131.881 96.3241 130.983C95.5276 130.047 94.7895 129.068 94.1976 128.008C92.9699 125.918 92.1807 123.624 91.7203 121.3C90.8068 116.638 91.1795 111.888 92.3195 107.408C93.0211 104.733 93.9857 102.088 95.228 99.5814C96.4338 97.0968 97.7491 94.6341 99.313 92.2737C100.899 89.9426 102.609 87.5968 105.203 85.9087C105.51 85.6895 105.89 85.5287 106.233 85.3387C106.613 85.1926 106.979 85.0172 107.403 84.9368C108.214 84.7176 109.164 84.7176 110.033 85.0099C110.91 85.2949 111.656 85.8576 112.204 86.5007C112.766 87.1437 113.125 87.8745 113.424 88.598C114.637 91.8134 114.243 95.248 113.366 98.2222C112.503 101.196 111.393 104.061 110.106 106.86C108.82 109.651 107.351 112.363 105.627 114.928C103.917 117.493 101.951 119.926 99.6638 122.053C96.8649 124.669 93.4522 126.81 89.6157 127.731C87.7084 128.198 85.7353 128.359 83.7768 128.213C81.8038 128.111 79.8526 127.533 78.0768 126.649C76.703 126.006 75.5264 125.027 74.4376 124.004C73.9407 123.441 73.3999 122.922 72.9834 122.301C72.7641 122.001 72.5303 121.709 72.333 121.395L71.763 120.445C70.2649 117.88 69.4611 115.015 69.0445 112.136C68.6572 109.25 68.7888 106.297 69.3076 103.484C69.7972 100.648 70.6303 97.9153 71.6168 95.2553C73.188 91.1338 75.1611 87.2241 77.5945 83.5849C78.8149 81.7726 80.1449 80.0261 81.6722 78.4111C83.2215 76.8253 84.9241 75.3053 87.1311 74.3334C88.1322 73.9387 89.1845 73.6391 90.4341 73.7561L90.9091 73.7999C91.0845 73.8364 91.2818 73.8949 91.4572 73.9607C91.808 74.1141 92.1441 74.3114 92.3999 74.6037C92.9334 75.1445 93.1453 76.0361 93.138 76.7011C93.1234 77.8703 92.8164 78.7253 92.5241 79.4926C92.2172 80.2526 91.8811 80.8957 91.5449 81.4584C90.8653 82.5837 90.1711 83.3803 89.5718 84.0014C88.9653 84.6226 88.4245 85.0464 87.9422 85.3461C87.4526 85.6384 87.0068 85.8064 86.6122 85.9307C86.2468 86.0403 85.8011 86.1937 85.5745 86.2084C84.7926 86.2376 87.2041 84.5641 89.5061 80.2818C89.9226 79.4999 90.2734 78.6741 90.478 77.8849C90.5803 77.4903 90.6388 77.103 90.6388 76.7887C90.6388 76.6061 90.6241 76.5476 90.6022 76.5037C90.5876 76.4526 90.5584 76.4087 90.5218 76.3649C90.4853 76.3284 90.4415 76.2991 90.3903 76.2918C90.3684 76.2845 90.3391 76.2845 90.3172 76.2772H90.1272L89.9226 76.2553C89.8495 76.2553 89.7545 76.2772 89.6668 76.2845C89.4914 76.3064 89.3234 76.3064 89.1407 76.3649C88.4245 76.5184 87.6572 76.8764 86.9338 77.3441C85.4649 78.2576 84.1203 79.5803 82.8707 80.9761C81.6284 82.3864 80.4811 83.9284 79.4288 85.5507C77.3241 88.788 75.5557 92.303 74.1818 95.9495C72.8153 99.5961 71.8141 103.418 71.5949 107.196C71.4634 109.98 71.7776 112.808 72.6399 115.439C72.8226 116.111 73.1222 116.725 73.3634 117.368C73.6849 117.968 73.9334 118.611 74.3134 119.166C74.9784 120.343 75.848 121.366 76.7907 122.265L77.5288 122.908L78.3253 123.463C78.4568 123.551 78.5884 123.653 78.7272 123.741L79.1584 123.967C79.4507 124.113 79.7211 124.281 80.0207 124.406C80.6345 124.618 81.2191 124.903 81.8695 125.012C82.1911 125.078 82.5053 125.18 82.8268 125.231L83.8134 125.341L84.3103 125.4H84.8218C85.158 125.4 85.5014 125.421 85.8376 125.407C86.5099 125.348 87.1895 125.326 87.8545 125.188C88.5268 125.1 89.1772 124.895 89.8349 124.735C90.478 124.501 91.1284 124.311 91.7495 124.004L91.7934 124.062H91.7861Z" fill="#12111F"/>
</g>
<path opacity="0.45" d="M156.136 181.225L152.263 179.975L149.362 183.161L149.406 178.908L145.496 177.549C146.607 177.059 149.179 176.087 149.179 176.087C149.179 176.087 149.925 173.5 149.881 172.148L152.519 174.969C152.519 174.969 156.1 174.692 156.311 174.662C156.063 175.218 154.031 177.615 154.031 177.615C154.031 177.615 155.259 179.537 156.143 181.225H156.136Z" fill="#12111F"/>
<path d="M236.754 256.032L235.651 252.116L231.391 251.465L234.957 249.149L233.919 245.137C234.942 245.787 237.178 247.395 237.178 247.395C237.178 247.395 239.743 246.584 240.847 245.794L239.955 249.558C239.955 249.558 242.169 252.386 242.308 252.539C241.709 252.642 238.589 252.276 238.589 252.276C238.589 252.276 237.668 254.366 236.754 256.032Z" fill="#12111F"/>
<path opacity="0.45" d="M327.348 120.556L326.405 117.201L322.766 116.646L325.813 114.666L324.929 111.238C325.806 111.794 327.713 113.168 327.713 113.168C327.713 113.168 329.905 112.473 330.848 111.801L330.088 115.016C330.088 115.016 331.981 117.435 332.105 117.567C331.593 117.654 328.926 117.34 328.926 117.34C328.926 117.34 328.137 119.123 327.355 120.556H327.348Z" fill="#12111F"/>
<path d="M316.524 104.155L311.299 102.365L307.448 106.75V100.852L302.172 98.9158C303.655 98.2508 307.105 96.9354 307.105 96.9354C307.105 96.9354 308.069 93.3619 307.989 91.4766L311.577 95.43C311.577 95.43 316.385 95.0939 316.67 95.05C316.341 95.8246 313.638 99.1131 313.638 99.1131C313.638 99.1131 315.311 101.802 316.524 104.155Z" fill="#12111F"/>
<path d="M37.6551 269.093L36.0547 264.255L30.6836 263.868L35.0171 260.58L33.4971 255.625C34.8124 256.341 37.7063 258.139 37.7063 258.139C37.7063 258.139 40.8705 256.853 42.2078 255.749L41.309 260.587C41.309 260.587 44.2394 263.934 44.4221 264.117C43.6767 264.307 39.7524 264.16 39.7524 264.16C39.7524 264.16 38.7147 266.886 37.6624 269.093H37.6551Z" fill="#12111F"/>
<path d="M178.372 61.0333L173.198 61.786L171.847 67.1426L169.303 62.1806L164.027 62.831C164.992 61.6326 167.323 59.031 167.323 59.031C167.323 59.031 166.592 55.6037 165.715 54.0545L170.436 55.8303C170.436 55.8303 174.338 53.4699 174.558 53.3164C174.616 54.1056 173.761 58.0445 173.761 58.0445C173.761 58.0445 176.333 59.5791 178.372 61.0406V61.0333Z" fill="#12111F"/>
<path d="M256.338 158.214L223.76 147.04L213.544 145.849L209.189 141.727L164.027 125.453C164.027 125.453 160.271 128.493 161.031 132.856L220.355 154.384C220.355 154.384 230.14 152.689 237.645 157.074C237.645 157.074 244.529 161.268 249.498 160.172C254.467 159.076 256.345 158.206 256.345 158.206L256.338 158.214Z" fill="#12111F"/>
<path d="M163.27 127.679C162.985 127.942 162.685 128.227 162.488 128.607C162.4 128.738 162.4 128.906 162.327 129.045C162.064 129.557 161.859 130.141 161.713 130.77C161.655 131.047 161.647 131.332 161.669 131.617L161.698 131.888C161.698 131.983 161.684 132.07 161.677 132.165C161.662 132.26 161.655 132.348 161.603 132.45C161.545 132.545 161.479 132.648 161.414 132.743C161.319 132.867 161.128 132.867 160.829 132.794C160.675 132.757 160.493 132.699 160.303 132.626C160.208 132.589 160.105 132.545 160.032 132.502C159.967 132.45 159.915 132.399 159.886 132.348C159.777 132.151 159.689 131.946 159.682 131.734C159.652 131.53 159.652 131.31 159.652 131.099C159.652 130.675 159.74 130.236 159.945 129.82C160.171 129.323 160.178 128.767 160.383 128.249C160.61 127.686 160.924 127.138 161.318 126.663C161.545 126.363 161.83 126.107 162.1 125.859C162.524 125.486 163.014 125.223 163.46 124.945C163.803 124.712 164.132 124.47 164.49 124.259C164.57 124.222 164.643 124.164 164.731 124.149C165.06 124.083 165.206 124.171 165.396 124.544C165.44 124.624 165.484 124.704 165.52 124.777C165.63 125.026 165.608 125.369 165.469 125.581C165.031 126.21 164.636 126.67 164.198 126.977C163.891 127.233 163.584 127.445 163.306 127.715L163.262 127.679H163.27Z" fill="#12111F"/>
<path d="M136.434 125.363C136.23 125.26 136.047 125.209 135.821 125.056C135.587 124.902 135.375 124.72 135.17 124.522C134.783 124.12 134.498 123.638 134.315 123.163C133.943 122.198 133.928 121.27 134.008 120.408C134.103 119.546 134.33 118.727 134.659 117.953C134.995 117.178 135.419 116.433 136.062 115.753C136.383 115.417 136.763 115.088 137.26 114.832C137.735 114.577 138.429 114.408 139.036 114.496C140.096 114.715 140.666 114.986 141.389 115.234C142.756 115.746 144.093 116.272 145.43 116.805L161.427 123.207C165.322 124.749 169.246 126.218 173.141 127.73C179.097 130.04 185.074 132.29 191.074 134.49C194.078 135.579 197.081 136.668 200.092 137.72L204.615 139.291L209.314 140.892C209.402 140.928 209.482 140.972 209.563 141.008L209.687 141.067C209.687 141.067 209.753 141.06 209.723 141.125L209.774 141.169C209.848 141.228 209.906 141.293 209.972 141.359L210.103 141.608C210.169 141.783 210.242 141.966 210.301 142.141L210.418 142.477C210.578 142.908 210.754 143.31 210.98 143.676C211.419 144.407 212.033 144.984 212.8 145.298C213.414 145.568 214.159 145.656 214.948 145.715C215.738 145.766 216.541 145.78 217.36 145.788C218.997 145.802 220.663 145.795 222.366 145.992C223.206 146.095 224.098 146.285 224.909 146.555L227.24 147.315C228.796 147.812 230.346 148.309 231.895 148.806C235.878 150.055 239.875 151.305 243.865 152.555L249.828 154.52L252.795 155.536C253.781 155.887 254.731 156.34 255.703 156.727C258.108 157.765 257.728 157.772 255.521 157.443C254.424 157.261 252.81 157.173 250.961 156.742C249.097 156.355 246.941 155.836 244.632 155.156C241.461 154.243 238.326 153.212 235.176 152.218C232.034 151.21 228.891 150.194 225.749 149.149L224.573 148.755L223.981 148.557L223.484 148.411C222.804 148.236 222.051 148.133 221.284 148.06C219.728 147.929 218.105 147.951 216.417 147.914C215.569 147.892 214.707 147.87 213.779 147.739C213.545 147.702 213.297 147.658 213.063 147.615C212.807 147.542 212.544 147.483 212.303 147.388C211.806 147.205 211.324 146.964 210.885 146.65C209.994 146.029 209.329 145.159 208.89 144.275C208.671 143.837 208.488 143.383 208.349 142.967L208.306 142.843V142.821L208.291 142.784C208.291 142.755 208.262 142.748 208.24 142.733C206.493 142.134 204.747 141.527 202.993 140.921C201.159 140.263 199.324 139.605 197.483 138.948C187.8 135.425 177.716 131.793 167.894 127.986C162.501 125.889 157.115 123.755 151.744 121.599L143.684 118.384C142.346 117.858 140.987 117.324 139.664 116.864C139.299 116.725 139.08 116.696 138.802 116.601C138.612 116.564 138.451 116.601 138.232 116.718C137.808 116.937 137.384 117.419 137.056 117.945C136.646 118.61 136.361 119.378 136.215 120.152C136.069 120.92 136.076 121.723 136.318 122.345C136.434 122.659 136.61 122.915 136.836 123.105C136.888 123.156 136.961 123.192 137.019 123.236C137.092 123.28 137.194 123.309 137.275 123.353L137.808 123.587L140.278 124.559C143.596 125.838 146.936 127.073 150.268 128.308C160.382 132.042 170.554 135.776 180.639 139.357C188.48 142.134 196.219 144.728 204.009 147.373C205.726 147.951 207.407 148.521 209.131 149.105C215.526 151.32 217.521 152.138 218.69 153.205C218.96 153.439 219.333 153.702 219.472 153.877C219.961 154.44 217.192 154.009 212.478 152.467C198.462 147.973 183.832 142.821 169.173 137.552C163.736 135.572 158.292 133.591 152.84 131.611L144.678 128.585L140.6 127.051L138.561 126.269L137.538 125.867L137.026 125.67L136.42 125.407V125.348L136.434 125.363Z" fill="#12111F"/>
<path opacity="0.25" d="M308.516 209.922C307.712 213.905 291.613 229.55 287.447 224.669C282.909 219.349 300.177 200.648 300.177 200.648L308.516 209.922Z" fill="#12111F"/>
<path d="M285.042 224.294C285.042 224.294 294.616 222.292 300.44 217.483C306.264 212.675 316.181 206.456 320.141 192.074C320.141 192.074 344.176 211.52 345.93 212.762C347.684 214.012 343.394 220.063 335.137 224.74C326.886 229.417 329.627 231.521 327.975 238.946C326.324 246.37 316.641 250.485 312.512 251.632C308.383 252.779 297.005 238.5 291.999 231.616C286.994 224.74 285.035 224.287 285.035 224.287L285.042 224.294Z" fill="#12111F"/>
<path d="M236.212 102.82C235.057 101.841 233.888 100.891 232.748 99.89C232.331 99.5247 231.886 99.2031 231.476 98.8304C230.022 97.5297 228.575 96.2289 227.143 94.9135C226.5 94.3362 225.85 93.7662 225.192 93.2108C224.351 92.502 223.577 91.7054 222.846 90.8797C222.62 90.6166 222.707 90.5873 223.014 90.6823C223.314 90.7846 223.855 90.9747 224.388 91.3181C225.367 91.8954 226.23 92.597 227.099 93.2985C227.976 93.9927 228.838 94.7016 229.671 95.4616C230.665 96.3677 231.827 97.1716 232.916 98.0193C234.115 98.9473 235.291 99.912 236.468 100.877L238.653 102.638C239.763 103.515 240.838 104.457 241.956 105.312C242.825 105.97 243.71 106.584 244.557 107.263C244.747 107.41 244.93 107.549 245.113 107.702C245.785 108.294 245.924 108.564 245.938 108.857C245.938 108.922 245.953 109.003 245.938 109.054C245.902 109.237 245.522 109.134 244.923 108.842C244.053 108.382 243.191 107.877 242.321 107.366C241.466 106.832 240.64 106.233 239.8 105.649C239.186 105.203 238.558 104.772 237.966 104.297L236.183 102.864L236.205 102.828L236.212 102.82Z" fill="#12111F"/>
<path d="M239.503 133.885C234.804 134.937 230.12 136.048 225.45 137.232C223.119 137.831 220.795 138.423 218.5 139.139L215.058 140.192C213.94 140.557 212.793 140.915 211.843 141.346C211.39 141.536 210.9 141.887 210.973 141.858C210.944 141.894 210.922 141.96 210.93 141.989V142.077C210.93 142.135 210.944 142.187 210.944 142.238C210.959 142.34 210.959 142.45 210.988 142.545C211.141 143.341 211.624 143.948 212.435 144.445C213.239 144.934 214.291 145.241 215.373 145.446C216.461 145.65 217.609 145.745 218.771 145.789C223.426 145.921 228.205 145.3 232.94 144.613C236.411 144.101 239.861 143.473 243.376 142.947C245.151 142.698 246.869 142.413 248.849 142.42C250.844 142.508 252.744 143.042 254.476 144.013C257.494 145.731 259.723 148.683 260.446 152.11C260.622 152.973 260.695 153.872 260.578 154.814C260.446 155.742 260.14 156.758 259.35 157.584C259.175 157.788 258.919 157.971 258.715 158.117L258.188 158.439C257.838 158.651 257.501 158.885 257.129 159.067C256.763 159.257 256.398 159.455 256.025 159.63L254.878 160.12C253.329 160.712 251.677 161.084 250.018 161.187C248.36 161.296 246.708 161.157 245.108 160.858C241.907 160.251 238.962 159.075 236.068 157.986C233.174 156.89 230.317 155.815 227.372 155.304C225.903 155.041 224.42 154.924 222.943 154.99C221.482 155.055 220.006 155.333 218.551 155.728C217.843 155.94 217.126 156.152 216.498 156.451C215.87 156.736 215.285 157.109 215.007 157.496C214.92 157.591 214.912 157.679 214.854 157.767C214.854 157.854 214.795 157.935 214.825 158.03C214.803 158.205 214.905 158.446 215.022 158.702C215.161 158.958 215.351 159.213 215.577 159.469C215.68 159.601 215.804 159.71 215.921 159.827C216.045 159.937 216.155 160.061 216.301 160.163C217.404 161.033 218.756 161.742 220.123 162.385C221.496 163.028 222.921 163.605 224.354 164.161C229.462 166.097 234.745 167.683 240.021 169.262C242.66 170.051 245.298 170.855 247.928 171.688C249.244 172.112 250.559 172.543 251.867 173.025C252.525 173.266 253.175 173.529 253.833 173.829C254.527 174.158 255.083 174.501 255.704 174.837C257.246 175.729 258.758 176.686 260.205 177.702C261.667 178.71 263.077 179.741 264.531 180.662C267.411 182.518 270.626 183.862 273.922 184.783C275.573 185.236 277.276 185.492 278.979 185.645C280.689 185.806 282.406 185.799 284.109 185.631C287.514 185.338 290.854 184.323 293.682 182.467C294.106 182.16 294.478 181.897 294.793 181.677C295.092 181.436 295.333 181.246 295.523 181.093C295.918 180.8 296.123 180.691 296.152 180.764C296.188 180.837 296.042 181.085 295.743 181.509C295.589 181.714 295.414 181.984 295.158 182.247C294.895 182.51 294.595 182.81 294.266 183.146C293.923 183.475 293.499 183.782 293.039 184.14C292.578 184.483 292.03 184.783 291.468 185.141C290.284 185.748 288.903 186.398 287.302 186.815C284.116 187.728 280.163 188.02 275.997 187.355C274.163 187.07 272.307 186.61 270.56 186.011C268.806 185.426 267.067 184.717 265.401 183.848C263.735 182.985 262.156 181.977 260.666 180.968C259.168 179.953 257.713 178.988 256.23 178.067C255.485 177.607 254.739 177.161 253.972 176.745C253.592 176.54 253.19 176.306 252.868 176.16C252.518 175.999 252.138 175.831 251.743 175.678C250.157 175.064 248.455 174.523 246.759 173.99C243.361 172.937 239.905 171.943 236.477 170.855C233.043 169.78 229.601 168.677 226.181 167.449C224.471 166.828 222.768 166.178 221.073 165.454C219.377 164.716 217.696 163.956 216.045 162.897C215.234 162.385 214.357 161.72 213.648 160.858C213.473 160.66 213.305 160.419 213.144 160.163C212.976 159.937 212.837 159.615 212.705 159.323C212.471 158.687 212.325 157.84 212.61 157.043C212.888 156.283 213.385 155.706 213.86 155.348C214.342 154.96 214.825 154.705 215.3 154.478C216.25 154.047 217.178 153.784 218.106 153.55C219.925 153.133 221.84 152.775 223.769 152.797C225.691 152.797 227.591 153.053 229.418 153.492C233.803 154.529 237.8 156.437 241.885 157.745C243.924 158.388 245.992 158.892 248.06 158.972C250.128 159.097 252.181 158.731 254.103 157.986C255.053 157.584 255.996 157.138 256.873 156.553L257.209 156.342C257.311 156.276 257.465 156.188 257.494 156.152C257.618 156.057 257.735 155.947 257.83 155.801C258.028 155.523 258.166 155.143 258.24 154.712C258.393 153.857 258.269 152.863 257.991 151.928C257.706 150.985 257.268 150.072 256.705 149.246C255.58 147.587 253.965 146.279 252.108 145.555C251.18 145.19 250.201 144.963 249.2 144.876C248.286 144.788 247.19 144.912 246.123 145.029C243.763 145.314 241.366 145.731 238.969 146.111C236.572 146.498 234.161 146.885 231.735 147.222C229.308 147.558 226.875 147.85 224.42 148.04C221.964 148.223 219.48 148.303 216.958 148.091C215.701 147.974 214.43 147.777 213.158 147.382C211.909 146.973 210.586 146.359 209.607 145.168C209.125 144.583 208.781 143.86 208.62 143.129C208.576 142.947 208.54 142.764 208.525 142.581C208.503 142.391 208.481 142.23 208.489 142.018C208.474 141.755 208.496 141.522 208.555 141.288C208.576 141.047 208.708 140.835 208.818 140.63C208.964 140.44 209.095 140.243 209.293 140.082C209.505 139.892 209.636 139.79 209.797 139.695C210.111 139.475 210.418 139.329 210.718 139.183C211.324 138.891 211.923 138.679 212.515 138.474C214.905 137.707 217.229 137.122 219.589 136.472C221.942 135.822 224.295 135.186 226.656 134.587C232.465 133.096 238.304 131.722 244.158 130.428C247.088 129.785 250.018 129.164 252.971 128.602C253.723 128.477 254.425 128.302 255.221 128.229L256.391 128.09C256.778 128.046 257.173 128.075 257.567 128.061C259.138 128.01 260.695 128.287 262.215 128.631C264.502 129.223 266.651 130.209 268.653 131.386C270.655 132.57 272.526 133.951 274.265 135.456C277.766 138.46 280.85 141.865 283.736 145.395C289.524 152.454 294.522 160.039 299.806 167.281C301.866 170.109 303.986 172.791 306.295 175.385C308.568 177.994 310.87 180.567 313.215 183.088C317.892 188.145 322.737 193.012 327.809 197.659C328.912 198.697 330.06 199.662 331.178 200.663C332.318 201.635 333.465 202.614 334.627 203.6C338.96 207.24 341.949 209.454 343.981 211.113C344.996 211.946 345.778 212.618 346.414 213.21C347.057 213.78 347.547 214.277 347.978 214.737C348.365 215.161 348.906 215.673 349.111 215.95C349.454 216.418 348.621 216.075 346.78 215.095C344.931 214.123 342.139 212.413 338.778 209.9C333.794 206.165 328.971 202.08 324.301 197.747C319.639 193.399 315.145 188.788 310.767 184.03C308.59 181.641 306.426 179.222 304.3 176.759C303.248 175.546 302.151 174.282 301.128 172.981C300.091 171.688 299.111 170.372 298.132 169.05C294.252 163.759 290.598 158.358 286.71 153.155C283.824 149.29 280.835 145.519 277.576 142.04C274.316 138.584 270.772 135.361 266.753 133.088C264.743 131.978 262.617 131.13 260.432 130.735C259.343 130.538 258.24 130.45 257.136 130.487C256.04 130.531 254.973 130.692 253.753 130.918C249.01 131.817 244.245 132.855 239.51 133.922L239.473 133.87L239.503 133.885Z" fill="#12111F"/>
<path d="M300.682 202.517C299.841 201.399 299.001 200.281 298.124 199.185C297.802 198.783 297.444 198.425 297.123 198.03C295.997 196.62 294.865 195.224 293.696 193.85C293.177 193.243 292.607 192.673 292.044 192.118C291.306 191.416 290.604 190.678 289.976 189.86C289.786 189.604 289.961 189.473 290.327 189.473C290.692 189.48 291.269 189.59 291.759 189.94C292.629 190.547 293.403 191.263 294.156 192.001C294.901 192.739 295.632 193.506 296.297 194.332C297.079 195.333 298.051 196.225 298.913 197.19C299.856 198.249 300.777 199.338 301.683 200.434L303.349 202.458C304.182 203.481 304.986 204.548 305.848 205.535C306.506 206.317 307.288 206.975 307.938 207.749C308.084 207.917 308.245 208.071 308.377 208.246C308.874 208.918 308.859 209.262 308.618 209.671C308.559 209.766 308.516 209.868 308.457 209.949C308.26 210.205 307.792 210.139 307.251 209.795C306.857 209.54 306.521 209.225 306.155 208.933C305.797 208.633 305.446 208.319 305.139 207.976C304.504 207.289 303.897 206.573 303.291 205.842C302.392 204.76 301.515 203.664 300.645 202.553L300.682 202.517Z" fill="#12111F"/>
<path d="M240.461 96.0161C243.209 98.128 245.891 100.32 248.529 102.593C249.493 103.426 250.495 104.215 251.423 105.114C251.832 105.509 252.241 105.918 252.643 106.356C252.833 106.568 253.111 106.919 253.257 107.138C253.418 107.38 253.586 107.628 253.739 107.869C254.346 108.826 254.916 109.784 255.478 110.748L258.811 116.514C259.797 118.217 260.835 119.898 261.873 121.549C262.545 122.601 263.217 123.661 263.89 124.721C264.533 125.795 265.132 126.898 265.687 128.024C265.972 128.762 265.702 128.82 264.986 128.491C264.284 128.155 263.21 127.388 262.34 126.226C259.498 121.958 256.83 117.596 254.295 113.116C253.542 111.771 252.709 110.441 251.832 109.17C251.722 109.009 251.613 108.863 251.503 108.71C251.393 108.563 251.277 108.388 251.189 108.293C251.035 108.081 250.707 107.789 250.451 107.54C249.895 107.021 249.311 106.51 248.726 105.998C246.147 103.755 243.421 101.614 240.702 99.4872C239.022 98.1792 237.333 96.8784 235.616 95.6215C233.015 93.7215 230.398 91.7995 227.695 90.1188C227.168 89.7972 226.635 89.483 226.109 89.2053C225.846 89.0592 225.575 88.9349 225.32 88.818C225.188 88.7669 225.064 88.7011 225.005 88.6938C224.932 88.6719 224.852 88.6499 224.779 88.6645C224.077 88.818 223.763 89.1761 223.814 90.2138C223.865 90.6449 223.953 91.0834 224.128 91.5219C224.421 92.3549 224.72 92.8592 224.823 93.2538C224.867 93.4584 224.881 93.6484 224.881 93.8092C224.874 93.9772 224.83 94.1745 224.808 94.328C224.786 94.4815 224.808 94.6495 224.801 94.7738C224.779 94.9784 224.567 95.0222 224.055 94.8761C223.558 94.7445 222.996 94.2769 222.565 93.5388C222.228 93.0053 221.98 92.4207 221.761 91.7995C221.571 91.1638 221.359 90.5134 221.352 89.7242C221.352 88.9569 221.527 87.9338 222.316 87.108C222.513 86.9253 222.733 86.728 222.959 86.5892C223.186 86.4795 223.42 86.3699 223.661 86.2822C223.785 86.2311 223.895 86.2019 224.004 86.1872L224.165 86.158L224.392 86.1288C224.545 86.1069 224.698 86.0776 224.845 86.0703C224.983 86.0703 225.115 86.1215 225.254 86.1215C225.532 86.1507 225.787 86.2676 226.058 86.3334L226.577 86.5672C226.862 86.7134 227.154 86.8595 227.417 87.0057C227.958 87.298 228.469 87.6049 228.981 87.9119C229.997 88.533 230.983 89.1761 231.97 89.8338C234.878 91.7849 237.699 93.8603 240.498 95.9503L240.461 96.0088V96.0161Z" fill="#12111F"/>
<path d="M215.524 98.9603C215.341 98.6168 215.217 98.2368 215.071 97.8641C214.969 97.506 214.823 97.1772 214.735 96.8191C214.523 96.1176 214.369 95.4014 214.245 94.6633C214.128 93.9253 214.077 93.158 214.121 92.3395C214.136 91.9303 214.209 91.5064 214.333 91.0606C214.406 90.8341 214.457 90.6149 214.589 90.3737L214.764 90.023C214.837 89.906 214.932 89.7672 215.027 89.6503C215.393 89.146 215.926 88.7953 216.503 88.5906C217.117 88.4226 217.68 88.3933 218.25 88.5395C218.396 88.5833 218.535 88.6272 218.674 88.6783C218.813 88.7295 218.966 88.7879 219.032 88.8318L219.536 89.1022C219.887 89.2849 220.164 89.4676 220.471 89.6503C221.67 90.3883 222.781 91.1556 223.906 91.923C225.536 93.0556 227.187 94.1372 228.788 95.2991C231.601 97.3453 234.393 99.4206 237.169 101.496L241.342 104.602L243.432 106.151L244.477 106.926C244.835 107.254 245.266 107.561 245.559 107.919C246.706 109.147 247.576 110.463 248.416 111.793C249.256 113.115 250.031 114.467 250.791 115.804C252.735 119.239 254.635 122.703 256.25 126.145C256.469 126.693 256.542 126.985 256.462 127.036C256.374 127.095 256.118 126.941 255.563 126.693C254.481 126.181 252.808 124.837 251.631 122.871C250.63 121.103 249.644 119.363 248.716 117.602C247.773 115.856 246.83 114.124 245.807 112.494L245.025 111.303C244.748 110.938 244.477 110.55 244.199 110.199C243.914 109.893 243.629 109.498 243.344 109.279C243.184 109.147 243.103 109.03 242.884 108.877L242.278 108.424C240.663 107.211 239.069 105.976 237.476 104.726C233.669 101.737 229.526 98.8945 225.506 96.0372C223.299 94.4806 221.071 92.8949 218.827 91.5137C218.542 91.331 218.286 91.2141 218.009 91.0533L217.906 90.9949L217.855 90.9803C217.855 90.9803 217.789 90.951 217.753 90.9364L217.731 90.9218H217.716V90.9145V90.8487L217.738 90.7026L217.753 90.5564V90.4833L217.76 90.4468C217.819 90.001 217.68 91.0095 217.694 90.9072H217.68H217.651H217.519C217.205 90.8926 216.993 91.0168 216.825 91.3749C216.635 91.7695 216.54 92.3614 216.511 92.9533C216.481 93.5526 216.525 94.1883 216.613 94.8168C216.723 95.5914 216.898 96.3733 217.132 97.1333C217.366 97.8349 217.738 98.5218 218.169 99.1795C219.039 100.495 220.186 101.671 221.385 102.775C225.083 106.114 229.387 108.848 233.523 111.756C234.327 112.326 235.123 112.903 235.905 113.517C236.68 114.138 237.454 114.774 238.149 115.622C238.799 116.521 239.238 117.332 239.734 118.194C240.217 119.042 240.677 119.889 241.138 120.744C241.539 121.497 241.956 122.221 242.351 122.981C243.023 124.42 243.454 125.37 243.666 126.086C243.746 126.459 243.798 126.751 243.819 127.014C243.863 127.263 243.871 127.475 243.863 127.672C243.863 127.848 243.885 128.074 243.863 128.191C243.819 128.388 243.6 128.235 243.176 127.796C242.964 127.57 242.709 127.285 242.394 126.949C242.066 126.613 241.81 126.159 241.488 125.67C240.531 124.216 239.691 122.674 238.843 121.124C238.419 120.357 237.988 119.59 237.557 118.815L236.906 117.697C236.797 117.507 236.687 117.354 236.578 117.178C236.468 117.032 236.402 116.923 236.271 116.776C235.796 116.236 235.153 115.673 234.488 115.147C233.815 114.613 233.106 114.094 232.376 113.576C230.914 112.545 229.401 111.529 227.889 110.492C225.638 108.95 223.38 107.357 221.224 105.552C220.15 104.646 219.09 103.696 218.104 102.629C217.117 101.562 216.189 100.393 215.488 98.9676L215.531 98.9383L215.524 98.9603Z" fill="#12111F"/>
<path d="M299.95 244.363C298.518 242.828 297.13 241.25 295.814 239.627C295.332 239.035 294.791 238.502 294.323 237.895C292.657 235.791 291.086 233.613 289.508 231.457C288.799 230.507 288.09 229.55 287.396 228.6L286.709 227.694C286.49 227.38 286.285 227.065 286.08 226.744C285.883 226.422 285.664 226.115 285.503 225.757C285.35 225.407 285.196 225.056 285.043 224.698C284.86 224.252 284.94 224.274 285.328 224.486C285.583 224.617 285.861 224.763 286.139 224.91C286.307 224.997 286.497 225.085 286.672 225.202C286.833 225.326 286.994 225.465 287.147 225.618C289.288 227.833 291.086 230.288 292.855 232.824C293.914 234.337 295.237 235.732 296.465 237.157C297.824 238.721 299.19 240.278 300.593 241.79L301.901 243.179C302.347 243.632 302.8 244.078 303.253 244.516C304.635 245.861 306.06 247.162 307.587 248.294C308.164 248.762 308.815 249.098 309.436 249.478C310.05 249.865 310.693 250.187 311.321 250.53C311.599 250.677 311.869 250.823 312.154 250.969C313.206 251.458 313.462 251.78 313.499 252.365C313.506 252.496 313.535 252.635 313.521 252.759C313.491 253.154 312.9 253.278 311.971 253.022C311.635 252.92 311.277 252.84 310.956 252.708L309.976 252.299C309.319 252.014 308.639 251.736 308.055 251.327C306.812 250.582 305.687 249.683 304.554 248.777C303.758 248.068 302.939 247.373 302.172 246.635C301.419 245.883 300.63 245.159 299.906 244.385L299.943 244.341L299.95 244.363Z" fill="#12111F"/>
<path d="M305.745 215.301C302.786 217.859 299.636 220.212 296.158 222.09C294.886 222.762 293.607 223.464 292.204 223.939C290.977 224.362 289.712 224.72 288.368 224.852C288.039 224.903 287.703 224.918 287.359 224.925L286.848 224.94H286.716L286.533 224.925L286.175 224.881C285.693 224.772 285.203 224.56 284.845 224.224C284.48 223.902 284.224 223.515 284.049 223.142C283.398 221.622 283.537 220.234 283.735 218.933C283.961 217.632 284.327 216.397 284.809 215.22C285.649 213.123 286.731 211.15 287.929 209.309C288.704 208.125 289.544 206.985 290.465 205.903C290.918 205.362 291.408 204.851 291.897 204.339C292.394 203.835 292.957 203.404 293.505 202.965C294.207 202.432 294.243 202.644 293.943 203.375C293.79 203.74 293.563 204.237 293.3 204.836C293.008 205.406 292.621 206.02 292.153 206.649C290.494 208.855 289.033 211.187 287.878 213.627C287.301 214.848 286.826 216.105 286.446 217.362C286.066 218.611 285.825 219.919 285.868 221.081C285.876 221.768 286.11 222.397 286.343 222.557C286.402 222.601 286.46 222.638 286.533 222.652C286.563 222.674 286.614 222.667 286.658 222.674C286.687 222.689 286.782 222.682 286.884 222.674C287.272 222.645 287.659 222.66 288.061 222.579C289.647 222.36 291.232 221.797 292.767 221.132C296.136 219.634 299.307 217.508 302.223 215.104C304.021 213.62 305.745 212.034 307.36 210.354C309.808 207.803 312.118 205.063 314.025 202.125C315.508 199.838 316.641 197.404 317.547 194.927C317.723 194.379 317.891 193.838 318.059 193.283C318.366 192.252 318.563 191.595 318.855 191.149C319.111 190.703 319.396 190.462 319.754 190.279C319.915 190.199 320.068 190.075 320.207 190.031C320.434 189.958 320.595 190.148 320.748 190.608C320.923 191.069 320.975 191.777 320.858 192.647C320.397 195.212 319.403 197.675 318.19 200.02C316.97 202.366 315.472 204.588 313.857 206.692C311.445 209.827 308.705 212.692 305.767 215.33L305.723 215.286L305.745 215.301Z" fill="#12111F"/>
<path opacity="0.25" d="M128.415 255.514C102.231 257.312 103.883 231.538 106.536 231.18C106.536 231.18 86.7098 233.54 86.6221 232.568C86.5344 231.596 87.6525 252.087 87.6525 252.087C87.6525 252.087 99.7906 254.981 106.214 255.85C114.603 256.99 128.415 255.514 128.415 255.514Z" fill="#12111F"/>
<path d="M111.55 230.033C109.511 230.596 107.465 231.137 105.389 231.561C104.637 231.736 103.884 231.904 103.117 232.029C100.435 232.496 97.7164 232.803 94.9906 232.876C94.3914 232.913 93.7849 232.927 93.1783 232.927C92.5718 232.927 91.9726 232.957 91.3733 232.949C90.606 232.92 89.8314 232.927 89.0568 232.862C88.6695 232.818 88.2895 232.759 87.9095 232.701C87.5295 232.65 87.1568 232.503 86.7841 232.408C86.3237 232.262 86.3968 232.218 86.8133 232.102C87.0837 232.021 87.3833 231.926 87.6756 231.838C88.0264 231.751 88.4356 231.736 88.8668 231.751C89.6341 231.751 90.4014 231.765 91.1687 231.817C91.936 231.86 92.7033 231.817 93.4779 231.838C95.0199 231.824 96.5618 231.773 98.1183 231.656C99.9818 231.546 101.896 231.159 103.767 230.801C104.798 230.603 105.828 230.37 106.851 230.136C107.874 229.873 108.904 229.646 109.913 229.354C111.17 229.018 112.412 228.652 113.654 228.258C115.533 227.666 117.411 227.037 119.238 226.358C120.648 225.802 122.044 225.262 123.439 224.713C123.746 224.597 124.053 224.48 124.36 224.355C125.522 223.924 125.917 223.851 126.231 223.939C126.304 223.961 126.392 223.968 126.443 223.997C126.604 224.092 126.187 224.392 125.369 224.794C124.156 225.386 122.899 225.978 121.62 226.562C120.334 227.14 118.989 227.607 117.644 228.097C115.642 228.813 113.603 229.456 111.557 230.063V230.033H111.55Z" fill="#12111F"/>
<path opacity="0.35" d="M114.875 215.54C97.0516 212.318 122.402 202.891 129.249 202.891C129.249 202.891 98.5716 203.088 89.2031 215.168C89.2031 215.168 106.99 216.49 114.882 215.54H114.875Z" fill="#12111F"/>
<path d="M185.716 214.435C183.129 207.983 172.043 202.802 166.314 200.865C160.577 198.936 139.78 193.462 121.693 195.063C103.804 196.649 86.353 202.049 79.3669 205.44C72.388 208.83 69.728 212.141 69.728 212.141C63.8015 215.875 64.81 228.824 98.6446 229.855C98.6446 229.855 112.661 230.074 122.373 226.566C132.085 223.059 144.968 221.444 150.902 221.275C156.828 221.115 169.88 223.095 179.241 218.988C183.158 217.271 186.797 217.132 185.716 214.435ZM137.865 211.169C128.577 213.04 114.071 215.882 108.539 216.35C103 216.818 94.9688 216.701 93.1346 215.985C91.3004 215.269 90.7157 213.069 90.7157 213.069C90.7157 213.069 101.875 204.555 118.522 203.437C135.168 202.312 140.24 202.707 149.608 205.308C158.984 207.917 160.336 210.27 160.336 210.27C160.336 210.27 147.153 209.298 137.865 211.169Z" fill="#12111F"/>
<path d="M90.5397 251.917C90.5397 251.917 92.0597 263.025 91.5408 283.23C91.1754 297.575 90.5981 306.842 88.5008 315.947C86.7835 323.408 125.463 326.28 128.744 326.185C132.025 326.09 163.375 321.45 170.04 315.808C170.04 315.808 163.551 247.167 164.494 241.723C164.494 241.723 153.094 252.333 140.4 254.665C127.714 256.996 118.799 257.449 111.951 256.784C105.104 256.119 90.5324 251.91 90.5324 251.91L90.5397 251.917Z" fill="#12111F"/>
<path d="M136.383 255.609C132.268 256.31 128.118 256.763 123.959 257.004L121.687 257.143C120.927 257.18 120.174 257.209 119.414 257.224C116.739 257.253 114.065 257.202 111.398 257.012C110.06 256.946 108.73 256.792 107.4 256.676C106.078 256.5 104.748 256.376 103.425 256.149C101.079 255.813 98.7333 255.36 96.4387 254.856L94.2318 254.301L92.0541 253.636C91.3306 253.394 90.6218 253.124 89.9275 252.824C89.226 252.525 88.5683 252.13 87.896 251.779C87.0702 251.319 87.2675 251.209 88.1006 251.261C88.5171 251.282 89.1018 251.348 89.7814 251.436C90.1248 251.48 90.5048 251.502 90.8848 251.575C91.2648 251.655 91.6595 251.765 92.0614 251.896C93.501 252.32 94.9552 252.7 96.4168 253.029C97.1402 253.226 97.8856 253.358 98.6164 253.526C99.3471 253.694 100.093 253.833 100.838 253.957C103.805 254.491 106.816 254.9 109.856 255.177C113.495 255.528 117.317 255.426 121.051 255.243C125.165 255.053 129.272 254.637 133.343 253.986C135.849 253.599 138.334 253.087 140.804 252.51C144.531 251.604 148.243 250.493 151.736 249.002C154.447 247.833 156.968 246.386 159.285 244.706C159.811 244.355 160.257 243.924 160.776 243.566C161.258 243.237 161.616 242.915 161.945 242.681C162.266 242.44 162.559 242.272 162.785 242.119C163.246 241.826 163.604 241.746 164.006 241.775C164.188 241.79 164.393 241.768 164.539 241.804C164.788 241.87 164.802 242.141 164.612 242.594C164.422 243.039 164.02 243.682 163.355 244.333C161.448 246.372 159.036 247.914 156.552 249.251C154.045 250.581 151.385 251.655 148.689 252.576C144.669 253.913 140.541 254.892 136.39 255.645L136.375 255.594L136.383 255.609Z" fill="#12111F"/>
<path d="M95.297 322.562C96.7366 322.861 98.1689 323.183 99.6231 323.424C101.07 323.687 102.524 323.943 103.986 324.14C105.053 324.294 106.12 324.425 107.187 324.542C110.943 325.061 114.721 325.419 118.514 325.646C120.194 325.726 121.89 325.77 123.556 325.741C125.704 325.763 127.838 325.47 130.001 325.719C130.688 325.923 130.593 325.814 130.045 326.099C129.504 326.435 128.467 326.873 127.217 326.968C122.781 327.195 118.353 327.034 113.917 326.581C112.594 326.428 111.242 326.318 109.876 326.201C108.517 326.062 107.15 325.938 105.798 325.77C104.315 325.551 102.831 325.361 101.355 325.119C99.8789 324.849 98.3954 324.637 96.9339 324.323L94.2228 323.768C93.3166 323.578 92.4251 323.344 91.5335 323.132C90.167 322.832 88.8224 322.438 87.4778 322.058C86.1258 321.707 84.8105 321.232 83.4878 320.815C82.4501 320.516 81.4635 320.099 80.4478 319.748C79.432 319.419 78.4674 318.945 77.4955 318.484C77.0716 318.28 76.6405 318.097 76.2166 317.87C74.6966 316.935 74.3093 316.489 74.1339 316.08C74.0974 315.985 74.0316 315.875 74.0243 315.802C73.9951 315.561 74.7112 315.773 75.8512 316.299C76.2751 316.504 76.6624 316.745 77.1081 316.92C77.5466 317.096 77.9851 317.278 78.4308 317.454C78.8693 317.636 79.3078 317.819 79.7535 318.002C80.2066 318.163 80.667 318.309 81.1201 318.484C82.9178 319.208 84.8105 319.778 86.6958 320.384C89.5312 321.188 92.3958 321.948 95.3043 322.533V322.569L95.297 322.562Z" fill="#12111F"/>
<path d="M121.446 326.565C115.943 327.661 63.328 321.011 71.0011 312.885C73.5661 310.174 85.1926 308.939 85.1926 308.902L84.6737 316.678L96.7168 321.559L121.446 326.572V326.565Z" fill="#12111F"/>
<path d="M117.404 213.551C121.109 212.988 124.821 212.36 128.534 211.702C129.886 211.461 131.23 211.162 132.589 210.935C137.376 210.131 142.199 209.43 147.059 208.947C149.214 208.735 151.392 208.531 153.562 208.502C154.951 208.472 156.369 208.472 157.808 208.706C158.524 208.816 159.241 209.02 159.913 209.335C160.249 209.488 160.578 209.656 160.892 209.846C161.206 210.043 161.455 210.336 161.725 210.57C162.368 211.213 162.164 211.227 161.404 211.088C160.571 211.015 159.284 211.001 157.911 210.825C156.676 210.628 155.353 210.621 153.994 210.672C152.642 210.723 151.282 210.818 149.916 210.913C147.176 211.11 144.413 211.417 141.622 211.724C138.282 212.097 134.855 212.85 131.464 213.456C127.73 214.128 123.988 214.801 120.232 215.422C117.923 215.809 115.599 216.16 113.282 216.489C109.76 216.978 106.201 217.366 102.657 217.534C99.9021 217.658 97.1617 217.775 94.3555 217.329C93.7417 217.212 93.1278 217.103 92.5067 216.92C90.2048 216.182 89.6421 215.356 89.6567 214.567C89.6494 214.399 89.6055 214.223 89.6201 214.107C89.6494 213.909 89.8978 213.895 90.3509 213.902C90.5921 213.887 90.8186 213.96 91.089 214.048C91.3813 214.099 91.6882 214.216 92.0171 214.348C94.0705 215.049 96.4236 215.247 98.8205 215.298C101.225 215.342 103.709 215.195 106.209 214.969C109.914 214.633 113.662 214.107 117.389 213.493L117.404 213.551Z" fill="#12111F"/>
<path d="M116.251 202.385C120.226 201.72 124.246 201.296 128.272 201.187C129.01 201.157 129.741 201.128 130.479 201.114C131.217 201.092 131.948 201.077 132.686 201.106C137.867 201.238 143.034 201.874 148.061 203.094C150.29 203.635 152.526 204.249 154.682 205.023C156.063 205.527 157.444 206.083 158.767 206.806C160.053 207.552 161.361 208.458 162.158 209.883C162.319 210.387 162.326 210.614 162.253 210.643C162.172 210.679 161.975 210.519 161.581 210.365C161.347 210.314 161.157 210.204 160.894 210.124C160.623 210.044 160.367 209.934 160.039 209.854C159.447 209.649 158.774 209.386 158.087 209.042C155.683 207.705 152.979 206.719 150.232 205.907C147.477 205.104 144.634 204.49 141.755 203.978C138.298 203.394 134.63 203.306 131.042 203.35C127.096 203.394 123.135 203.664 119.211 204.227C116.792 204.548 114.387 205.001 112.005 205.535C108.395 206.302 104.851 207.442 101.416 208.765C98.7563 209.81 96.2205 211.037 93.787 212.397C93.2536 212.696 92.7494 213.018 92.2378 213.339C91.2951 213.939 90.7105 214.326 90.3086 214.523C89.9067 214.75 89.7094 214.75 89.4171 214.852C89.2709 214.903 89.1978 215.057 89.1321 215.188C89.0736 215.298 88.9932 215.349 88.8471 215.261C88.7813 215.217 88.679 215.13 88.6278 214.998C88.584 214.881 88.5255 214.647 88.5547 214.494C88.6351 213.734 89.154 213.04 89.8409 212.411C91.9894 210.672 94.3644 209.488 96.8051 208.334C99.2532 207.208 101.789 206.222 104.376 205.33C106.291 204.68 108.264 204.066 110.259 203.605C111.252 203.372 112.239 203.13 113.24 202.933C114.234 202.714 115.235 202.524 116.236 202.349L116.251 202.407V202.385Z" fill="#12111F"/>
<path d="M115.796 197.169C112.537 197.585 109.234 198.324 105.974 199.091C102.708 199.873 99.4559 200.75 96.2332 201.714C89.7951 203.658 83.4301 205.894 77.4232 208.81C75.2382 209.877 73.1117 211.061 71.1167 212.391C69.1363 213.736 67.2801 215.255 65.8551 217.017C65.2194 217.784 64.8028 218.522 64.664 219.326C64.5324 220.115 64.6859 220.919 65.0878 221.694C65.899 223.265 67.5213 224.587 69.2605 225.537C71.0801 226.495 73.0167 227.299 75.0263 227.876C77.0359 228.46 79.1332 228.811 81.2378 229.06C85.4617 229.542 89.7805 229.425 94.0994 229.177C96.2624 229.052 98.4328 228.884 100.603 228.731C102.744 228.555 104.893 228.344 107.027 228.015C114.619 226.919 122.139 224.931 129.651 223.287C134.482 222.227 139.378 221.27 144.347 220.787C149.302 220.327 154.286 220.086 159.233 220.51C160.775 220.824 161.432 220.999 161.381 221.058C161.337 221.124 160.577 221.138 159.277 221.445C156.675 221.993 151.94 222.651 146.371 223.206C141.431 223.718 136.55 224.478 131.661 225.537C126.772 226.56 121.883 227.759 116.921 228.804C111.959 229.856 106.917 230.77 101.78 231.194C96.7228 231.574 91.6513 231.99 86.4701 231.888C83.379 231.815 80.2294 231.566 77.1017 230.952C73.9813 230.324 70.8536 229.367 67.9744 227.759C66.5128 226.933 65.1536 225.895 64.0136 224.551C63.4509 223.871 62.9613 223.097 62.6105 222.227C62.2524 221.357 62.1136 220.356 62.2013 219.392C62.2671 218.405 62.6617 217.514 63.1074 216.717C63.5971 215.92 64.1378 215.314 64.6932 214.685C65.8186 213.465 67.0901 212.457 68.3763 211.499C71.2336 209.446 74.2955 207.787 77.4159 206.304C80.5436 204.827 83.7371 203.549 86.9671 202.372C93.4344 200.041 100.033 198.126 106.712 196.57C108.773 196.095 110.841 195.656 112.931 195.284C115.036 194.911 117.141 194.699 119.245 194.465C123.454 194.034 127.686 193.822 131.909 193.837C135.11 193.859 138.318 193.99 141.512 194.26C144.705 194.538 147.891 194.955 151.048 195.51C157.362 196.614 163.581 198.272 169.5 200.64C171.802 201.561 174.053 202.599 176.231 203.76C178.408 204.93 180.527 206.23 182.457 207.831C183.436 208.62 184.342 209.512 185.161 210.535C185.57 211.046 185.935 211.602 186.257 212.23C186.564 212.866 186.79 213.582 186.827 214.364C186.863 215.139 186.681 215.95 186.322 216.637C185.964 217.324 185.467 217.886 184.934 218.354C183.86 219.282 182.654 219.859 181.448 220.327C179.314 221.138 177.195 221.591 175.01 221.913C166.891 222.907 164.319 222.205 162.609 221.569C162.222 221.409 161.71 221.248 161.484 221.094C161.111 220.839 161.739 220.634 163.179 220.429C164.626 220.21 166.877 219.991 169.749 219.794C171.875 219.625 174.002 219.377 176.084 218.982C178.152 218.588 180.221 218.032 181.923 217.134C182.771 216.695 183.487 216.125 183.852 215.555C184.218 214.985 184.269 214.459 184.042 213.743C183.816 213.049 183.224 212.208 182.574 211.477C181.931 210.717 181.134 210.023 180.323 209.351C176.991 206.691 173.001 204.615 168.872 202.942C164.736 201.269 160.409 199.939 156.01 198.93C142.929 195.927 129.191 195.481 115.803 197.235L115.781 197.176L115.796 197.169Z" fill="#12111F"/>
<path d="M103.345 322.248C109.863 323.892 116.601 324.726 123.353 324.923C126.729 325.04 130.12 324.959 133.496 324.769C136.872 324.572 140.249 324.243 143.603 323.754C148.499 323.059 153.337 321.985 158.057 320.611C160.111 320.027 162.135 319.332 164.101 318.551C165.088 318.163 166.052 317.732 166.98 317.264C167.441 317.023 167.908 316.797 168.332 316.519C168.551 316.387 168.771 316.263 168.983 316.124L169.392 315.825C169.45 315.796 169.494 315.752 169.494 315.679C169.501 315.606 169.501 315.576 169.501 315.467C169.501 315.101 169.472 314.692 169.443 314.297C169.384 313.494 169.304 312.675 169.216 311.857C169.048 310.22 168.851 308.583 168.654 306.939L167.441 297.081C166.637 290.504 165.884 283.912 165.219 277.313C164.452 269.538 163.75 261.711 163.261 253.965C162.946 248.989 162.756 243.99 162.713 238.992C162.669 233.993 162.815 228.973 163.67 224.033C163.911 222.491 164.057 221.833 164.116 221.877C164.181 221.928 164.181 222.688 164.276 224.011C164.357 225.326 164.656 227.204 164.846 229.455C164.949 230.581 165.102 231.801 165.175 233.087C165.234 234.381 165.27 235.747 165.292 237.172C165.365 242.214 165.599 247.264 165.891 252.306C166.147 257.356 166.491 262.406 166.893 267.462C167.718 277.569 168.712 287.697 169.823 297.87C170.174 300.932 170.524 304.03 170.875 307.143C171.051 308.707 171.226 310.278 171.401 311.849C171.482 312.639 171.555 313.435 171.613 314.246C171.642 314.656 171.664 315.05 171.672 315.511C171.657 315.832 171.657 316.176 171.584 316.482C171.533 316.629 171.46 316.775 171.372 316.906C171.336 317.067 171.175 317.147 171.087 317.272L170.393 317.776C170.225 317.907 170.049 318.024 169.867 318.127C169.516 318.339 169.165 318.565 168.807 318.762C168.091 319.142 167.368 319.522 166.629 319.837C165.168 320.516 163.677 321.064 162.179 321.598C159.176 322.628 156.128 323.461 153.059 324.141C146.27 325.646 139.372 326.56 132.444 326.918C128.98 327.079 125.502 327.101 122.038 326.969C118.567 326.837 115.11 326.509 111.668 326.026C103.221 324.806 94.8387 322.431 87.2971 318.295C86.8367 318.046 86.3983 317.769 85.9525 317.513L84.4617 316.629L84.1694 316.387L84.0964 316.329C84.1402 316.271 84.0744 316.263 84.0744 316.234C84.0452 316.176 84.016 316.124 83.994 316.066C83.9137 315.825 83.9137 315.547 83.921 315.277C83.921 314.97 83.9356 314.816 83.9429 314.619L83.9794 314.056L84.1621 311.835L84.5787 307.414C84.8417 304.469 85.1121 301.531 85.3752 298.586C85.8721 292.703 86.274 286.828 86.5517 280.982C87.0194 271.094 87.0633 261.397 86.7344 251.634C86.6614 249.486 86.5517 247.381 86.4494 245.218C86.2521 241.206 86.0913 238.561 86.0767 236.697C86.0913 235.762 86.1133 235.024 86.1644 234.41C86.2229 233.796 86.3106 233.299 86.3983 232.861C86.4787 232.459 86.5371 231.932 86.6029 231.699C86.7198 231.297 86.9098 231.911 87.2606 233.35C87.6114 234.79 87.9767 237.077 88.196 240.029C89.5917 257.561 89.1533 276.137 87.7794 294.662C87.509 298.294 87.2021 301.918 86.866 305.55L86.3617 310.987L86.1279 313.691C86.0913 314.137 86.0621 314.582 86.0402 315.006V315.079C86.0402 315.079 86.0402 315.087 86.0402 315.094L87.7721 316.117C88.4517 316.526 89.1752 316.855 89.8767 317.228L90.9364 317.776L92.0252 318.266C92.756 318.58 93.4721 318.931 94.2175 319.223C97.1698 320.429 100.232 321.379 103.323 322.19V322.248H103.345Z" fill="#12111F"/>
<path d="M149.602 234.629C149.646 234.256 149.682 233.876 149.704 233.503C149.711 233.364 149.704 233.233 149.704 233.094C149.748 232.612 149.792 232.122 149.799 231.633C149.799 231.413 149.777 231.201 149.763 230.989C149.741 230.719 149.719 230.441 149.763 230.164C149.777 230.076 149.879 230.076 150.004 230.135C150.121 230.193 150.281 230.31 150.34 230.463C150.552 231.011 150.588 231.581 150.559 232.159C150.537 232.502 150.61 232.853 150.632 233.204C150.654 233.591 150.632 233.971 150.632 234.358C150.632 234.592 150.618 234.833 150.61 235.067C150.603 235.425 150.581 235.783 150.581 236.141C150.581 236.419 150.661 236.689 150.661 236.967C150.661 237.026 150.676 237.084 150.669 237.15C150.654 237.376 150.574 237.442 150.34 237.479C150.289 237.486 150.23 237.501 150.179 237.501C150.004 237.515 149.858 237.42 149.784 237.252C149.551 236.763 149.499 236.266 149.492 235.754C149.514 235.381 149.543 235.001 149.565 234.629H149.594H149.602Z" fill="#12111F"/>
<path d="M142.609 236.44C142.645 236.009 142.674 235.57 142.682 235.139C142.682 234.979 142.652 234.825 142.652 234.672C142.674 234.109 142.696 233.546 142.674 232.991C142.674 232.742 142.609 232.501 142.579 232.253C142.528 231.946 142.433 231.639 142.499 231.303C142.521 231.2 142.733 231.171 142.974 231.215C143.208 231.259 143.478 231.369 143.544 231.544C143.785 232.172 143.866 232.83 143.814 233.502C143.785 233.904 143.902 234.306 143.931 234.708C143.968 235.154 143.982 235.6 143.99 236.045C143.99 236.323 143.997 236.594 144.004 236.871C144.004 237.288 143.982 237.704 144.026 238.114C144.07 238.413 144.114 238.742 144.158 239.056C144.165 239.129 144.18 239.195 144.18 239.261C144.18 239.524 144.085 239.604 143.785 239.663C143.719 239.677 143.646 239.692 143.581 239.699C143.354 239.729 143.157 239.619 143.054 239.436C142.769 238.888 142.557 238.318 142.572 237.741C142.55 237.31 142.55 236.879 142.565 236.44H142.601H142.609Z" fill="#12111F"/>
</svg>
