<svg xmlns="http://www.w3.org/2000/svg" width="380" height="380" fill="none"><path fill="#12111f" d="M186.55 254.25c-8.2 4.44-7.2-12.14-6.99-13.19l-2.61 2.46s-1.67 32.03 1.1 31.2c2.76-.83 7.61-2.3 7.96-6.82.34-4.51.54-13.65.54-13.65"/><path fill="#12111f" d="M185.7 271.88c-.97 1.19-2.52 20.27 4.5 15.18 3.48-2.51 1.25 8.68-.89 10.67-2.13 2-15.03 10.44-15.03 10.44v-31.03l5.28-2.9zM213.49 298.56c0 .99-1.87 15.04 4.55 15.69v13.35l-7.04-5.87.27-22.83zM88.16 303.74c.17-.06-6.8 1.95-4.33 3.17 2.48 1.22 10.1 2.25 10.1 2.25l-5.4-3.08z"/><path fill="#12111f" d="M210.8 318.45s-7.27-.19-5.07 1.4c1.64 1.16 6.7 3.18 6.7 3.18l-1.64-4.58M100.78 261.78c.69.73 1.3 1.54 1.75 2.45l.26.49q.11.25.21.53a6 6 0 0 1 .26 1.96c-.04.66-.2 1.33-.54 1.9q-.47.8-1.22 1.24a3.2 3.2 0 0 1-2.03.5q-.3 0-.02-.15c.17-.08.45-.3.77-.5.28-.17.55-.28.8-.46q.34-.27.6-.6.46-.65.52-1.56a4.5 4.5 0 0 0-.5-2.15 8 8 0 0 0-1.47-2.13q-.55-.6-1.2-1.1c-.66-.51-1.35-1-2.1-1.35-.6-.27-1.22-.41-1.84-.54l-.41-.07c-.5-.12-.63-.27-.65-.7l-.02-.28q.05-.48.74-.52c1.28.03 2.58.5 3.74 1.17.88.48 1.66 1.15 2.38 1.86l-.02.03zM229 293.13q.45-.37.92-.67.15-.12.32-.22.63-.34 1.29-.52.28-.1.56-.18c.24-.06.5-.12.75-.08q.13.04.06.25c-.04.13-.11.31-.22.38-.2.12-.38.28-.57.36q-.3.14-.61.25c-.26.08-.44.3-.65.47a6 6 0 0 0-1.43 1.76c-.07.21-.03.45-.01.66l.02.15c0 .16-.14.19-.55.15l-.27-.02c-.31-.04-.55-.16-.62-.35-.17-.53.02-1.06.28-1.5q.3-.51.72-.92l.03.02zM244.16 292.78c.31-.31.7-.52 1.09-.72q.19-.14.4-.23a5 5 0 0 1 1.56-.3h.67c.27 0 .56.04.8.2.09.04.04.15-.04.28-.1.12-.22.3-.35.35-.45.16-.75.47-1.19.46-.26.02-.45.24-.66.4a7 7 0 0 0-1.05.96c-.17.22-.36.46-.45.74-.09.21-.05.46-.07.69v.15c-.04.18-.16.2-.6.15l-.3-.04c-.34-.06-.6-.2-.67-.4-.2-.55-.19-1.16.07-1.66q.31-.56.76-1.05zM259.8 293.02q.4-.4.85-.73.14-.15.3-.26.63-.37 1.3-.6l.6-.23c.27-.08.6-.05.85.1q.1.05-.03.2c-.08.1-.2.26-.3.33-.17.16-.33.22-.52.3q-.27.15-.6.29c-.26.1-.45.35-.68.52a8 8 0 0 0-1.11 1.08q-.29.37-.5.76-.1.34-.11.7 0 .08-.02.15c-.05.18-.15.2-.48.15l-.22-.04c-.25-.05-.43-.2-.45-.37-.1-.53.13-1.02.39-1.46q.31-.49.7-.9zM216.28 297.21q.4.36.8.7c.1.09.23.13.32.23.35.3.67.66 1 1q.23.2.5.37.33.2.49.64c.03.1-.09.22-.27.33-.18.1-.45.25-.6.24-.31 0-.5-.13-.7-.28q-.3-.2-.56-.5c-.22-.24-.51-.36-.78-.53l-.85-.61-.52-.38c-.27-.19-.54-.4-.84-.54-.22-.13-.49-.18-.73-.28q-.08-.03-.16-.07c-.16-.14-.15-.28.03-.6l.13-.23c.14-.24.36-.4.55-.43q.4-.03.75.03.17.03.33.1.15.06.3.17.41.28.84.62l-.03.04zM237.06 329.99l-4.15-.4c-.5-.05-1.02-.05-1.52-.1l-5.33-.55q-1.2-.13-2.37-.19c-1.01-.05-2.03-.05-3.02-.35-.3-.14-.26-.2.01-.41a4 4 0 0 1 1.16-.53h.21c2.07.02 4.13.06 6.2.4 1.23.19 2.53.2 3.8.3l4.19.35 2.57.22c1.3.09 2.61.21 3.9.26 1.01.05 2 0 3 0q.33-.02.66 0c.82.03 1.07.15 1.23.54q.06.13.1.26c.06.3-.28.52-.9.58-1.78.19-3.66.08-5.54-.03q-2.1-.14-4.2-.32zM191.15 290.7l.1-2.24q-.02-.4 0-.82l.14-2.88q.04-.63.03-1.28.02-.81.13-1.63c.03-.17.08-.14.17 0 .08.14.24.4.33.71l.2.83q.08.42.12.82.1.82.02 1.67c-.05.66.04 1.36.05 2.04l.02 2.25q0 .7.02 1.37c.03.69.05 1.38.22 2.03.12.5.35.95.6 1.38q.1.14.18.26c.16.35.15.5-.13.78q-.08.1-.16.18c-.16.16-.52.17-.79-.1a5 5 0 0 1-1.2-3.02c-.1-.8-.08-1.58-.1-2.33h.05zM117.01 233.54c.4-.4.87-.74 1.33-1.06q.26-.18.51-.35a7 7 0 0 1 2.05-.65c.3-.03.6-.11.9-.14.39-.08.79 0 1.17.06q.16.03 0 .15c-.1.07-.27.22-.48.3-.35.17-.7.2-1.04.33l-1.01.33c-.4.15-.75.42-1.1.68q-.56.41-1.08.96-.3.33-.58.7-.44.55-.77 1.17c-.16.33-.23.7-.34 1.05q-.02.12-.07.24c-.12.27-.25.31-.62.22l-.25-.08c-.27-.1-.44-.31-.43-.55 0-.74.34-1.4.72-2.03q.43-.72 1.05-1.33l.03.02zM136.11 233.31q.6-.59 1.28-1.07.23-.19.48-.35.94-.54 2.02-.73c.3-.09.63-.1.94-.16q.3-.01.63.04c.2.04.4.15.58.25.1.08.01.25-.15.43s-.36.38-.52.38c-.16.02-.3.09-.44.06l-.44.06-.94.2c-.4.1-.73.4-1.07.64q-.58.4-1.1.9c-.2.22-.43.42-.6.66q-.2.25-.39.55a2.4 2.4 0 0 0-.4 1.07q-.03.25 0 .48.01.1.01.2c.02.21-.09.27-.47.37l-.26.06c-.29.07-.54-.04-.63-.33-.26-.86.06-1.69.42-2.36q.45-.75 1.03-1.36zM156.66 234q.54-.51 1.15-.9.21-.15.44-.29a7 7 0 0 1 1.74-.55l.76-.14c.17-.02.33-.08.5-.05q.26.02.5.1.14.04 0 .24c-.08.13-.22.3-.38.38-.58.21-1.12.34-1.69.51-.35.1-.64.35-.93.55a6 6 0 0 0-1.42 1.32q-.36.45-.6.98c-.1.28-.12.59-.15.87q0 .1-.02.2c-.05.22-.17.27-.51.25q-.12 0-.24-.02-.42-.06-.5-.4c-.13-.66.07-1.32.4-1.9q.39-.64.91-1.17l.03.02M98.48 238.9l.9-.68.31-.29q.62-.43 1.25-.82.28-.2.5-.42c.2-.2.42-.37.73-.43.15.04.19.12.28.33.08.22.14.5.06.64q-.21.37-.54.62-.3.27-.67.48c-.3.16-.5.45-.75.68l-.86.73-.54.46q-.41.35-.8.72-.26.32-.5.67l-.1.14c-.17.16-.3.13-.56-.12l-.19-.16c-.2-.2-.27-.44-.22-.61q.25-.78.82-1.25.42-.36.85-.72z"/><path fill="#12111f" d="M93.53 244.24q.31-.87.89-1.65c.14-.18.26-.4.45-.55a4 4 0 0 1 2.26-.75q.49-.04.95-.02.6-.01 1.14.15.16.08 0 .29c-.1.13-.3.3-.5.36q-.57.12-1.07.26l-.92.23c-.37.08-.58.4-.8.68q-.4.44-.66 1.1-.16.41-.24.84c-.09.44-.18.91-.18 1.4-.01.37.11.75.1 1.15v.26c-.04.33-.18.42-.6.4l-.27-.01q-.47-.08-.62-.42a4 4 0 0 1-.27-2 7 7 0 0 1 .3-1.73h.04zM88.58 302.28q-.1-1.27-.13-2.52-.03-.46-.04-.92c0-1.07.1-2.14.16-3.2q.04-.7.04-1.4c.03-.6-.02-1.2.15-1.8q.04-.26.16 0l.17.33a1 1 0 0 1 .14.47c.1 1.22.2 2.42.19 3.64 0 .74.08 1.49.14 2.23q.08 1.2.22 2.43.1.76.24 1.48.2 1.13.55 2.2c.2.54.49 1.04.78 1.53l.2.31c.22.4.2.58-.1.86l-.21.19c-.25.19-.56.12-.8-.17a8 8 0 0 1-1.48-3.1q-.28-1.27-.42-2.55h.03z"/><path fill="#12111f" d="M48.6 90.86s.98-2.22 2.92-3.48c1.94-1.27 24.92-16.8 24.92-16.8l18.64-12.03s15.48-7.94 19.62-8.51c4.14-.58 9.85-.57 11.95.61s5.02 4.3 5.02 4.3 9.68 1.67 12.46 3.83c2.78 2.15 5.28 5.15 5.84 7.91s5.6 5.25 6.17 7.87c.56 2.62.65 5.17-1.36 4.86s-11.26-5.93-11.26-5.93-5.4-3.4-7.18-2.92-12.48 2.94-12.48 2.94l-3.46 2.62s10.7-1.45 16.76.63 10.84 5.94 13.81 7.88c2.99 1.93 6.5 6.92 6.33 9.53-.19 2.62-3.9 3.78-4.18 2.88S142.7 86.71 136.07 86.3c-6.62-.42-17.98 1.78-19.92 5.38s-4.08 6.28-2.23 9.54c1.85 3.27 9.73 10.92 9.73 10.92s5.2 5.42 5.36 8.37-1.52 5.05-4.09 4-19.76-13.08-19.76-13.08L97 107.14s-15.21 1.99-20.29.27a76 76 0 0 1-7.44-2.85s-13.47 6.1-13.47 7.55-7.2-21.24-7.2-21.24" opacity=".3"/><path fill="#12111f" d="M51.84 104.8q-.38-1-.75-2.01-.34-1.03-.67-2.05c-.13-.52-.32-1-.44-1.52q-.6-2.71-.85-5.5-.02-.6-.08-1.23L49 91.25a8 8 0 0 1 .51-3.13c.14-.3.22-.24.38.05.2.31.45.82.55 1.39.24 1 .3 1.98.42 2.97l.1.75q.02.37.05.75l.12 1.53c.1 1.23.51 2.46.85 3.67.4 1.34.73 2.7 1.2 4.03q.4 1.23.89 2.44c.5 1.21 1 2.43 1.62 3.58.47.9 1.04 1.72 1.58 2.56q.18.27.36.55c.4.72.45 1 .27 1.33q-.06.12-.13.21c-.16.2-.52.03-.94-.44a23 23 0 0 1-3.18-4.74 51 51 0 0 1-1.86-3.92z"/><path fill="#12111f" d="M61.7 109.3c.22 1.06 5.1 12.05 2.09 12.28-3.02.23-6.92-9.12-6.92-9.12z"/><path fill="#12111f" d="M62.06 125.8q-.8.53-1.6 1.02-.28.2-.57.4l-2.11 1.17q-.45.3-.9.56-.3.18-.58.36t-.65.22q-.22 0-.2-.31 0-.17.02-.42a.6.6 0 0 1 .18-.35q.5-.46 1.03-.88.57-.37 1.18-.68c.5-.25.9-.65 1.35-.97l1.46-1.1q.44-.33.87-.7c.43-.38.87-.73 1.22-1.17.28-.32.46-.73.64-1.1l.11-.25c.1-.14.17-.22.31-.2q.15 0 .27.06.12.02.25.08l.23.08q.17.07.27.26l.14.26c.07.11.03.16.03.25-.2.92-.83 1.59-1.45 2.2q-.72.66-1.5 1.24l-.03-.03zM45.67 90.07q-.77.1-1.54.3c-.2.05-.36.15-.55.2q-1.02.23-2.03.6-.44.16-.85.38c-.36.19-.71.38-1.15.41-.2-.12-.16-.09-.17-.33 0-.24.08-.52.27-.68a7.07 7.07 0 0 1 2.23-1.11c.48-.14.93-.43 1.43-.6q.81-.3 1.66-.48.52-.1 1.06-.18c.54-.09 1.1-.08 1.65-.1.43 0 .87-.05 1.32-.01q.15 0 .3.03c.36.1.42.28.33.66l-.07.27a.8.8 0 0 1-.56.52c-.64.06-1.2 0-1.85.01-.47.03-.97.04-1.48.14zM41.6 102.01q.23-.72.53-1.42l-.12.29q.59-1.36 1.4-2.58c.36-.51.12-1.34-.42-1.62a1.2 1.2 0 0 0-1.62.42c-.9 1.3-1.57 2.76-2.04 4.27-.18.6.22 1.33.83 1.46.64.15 1.26-.2 1.46-.82z"/><path fill="#12111f" d="M43.88 112.52c1.7.96 3.6 1.48 5.56 1.5.62.01 1.21-.55 1.18-1.18a1.2 1.2 0 0 0-1.18-1.18q-.3 0-.62-.02-.17-.02-.35-.03-.09 0-.17-.03l.14.03c-.41-.02-.86-.16-1.25-.26q-.6-.16-1.17-.4l.08.04-.16-.07a10 10 0 0 1-.87-.44c-.54-.3-1.32-.15-1.62.42s-.15 1.3.43 1.63z" opacity=".55"/><path fill="#12111f" d="M51.63 126.08q.17-.6.41-1.19l-.11.29q.52-1.23 1.32-2.28l-.18.24.33-.4c.2-.25.36-.52.36-.84 0-.3-.14-.64-.36-.85-.44-.4-1.25-.5-1.68 0a11.6 11.6 0 0 0-2.37 4.39c-.17.6.21 1.32.82 1.46.62.14 1.28-.19 1.47-.83zM166.48 104.1a9 9 0 0 0-.04-1.62c0-.2-.07-.38-.1-.58q-.14-1.06-.56-2.05c-.12-.3-.3-.56-.46-.83-.22-.34-.4-.7-.63-1.06-.07-.12-.05-.1.05-.06.1.06.32.14.52.29q.27.2.52.44.2.25.38.53.38.56.6 1.18c.18.5.42 1 .57 1.53q.24.88.28 1.78.03.54 0 1.1c0 .56-.1 1.11-.16 1.66-.07.42-.05.86-.14 1.3q-.02.13-.06.28c-.1.34-.26.4-.6.35l-.21-.04a.6.6 0 0 1-.41-.52c-.04-.74.14-1.4.25-2.1q.14-.77.17-1.57zM181.28 116.21c-.02-.48 0-1-.1-1.53-.02-.19-.1-.36-.15-.55a9 9 0 0 0-.67-1.97q-.21-.42-.45-.82l-.62-1.03q-.09-.14.07-.06c.1.06.3.16.48.31q.47.43.88.9.4.51.68 1.08c.23.45.53.9.75 1.4q.35.79.53 1.67.07.55.09 1.1c.02.55-.07 1.1-.14 1.66q-.05.31-.08.65a11 11 0 0 1-.24.9c-.17.33-.31.38-.66.27l-.22-.08a.6.6 0 0 1-.38-.58c.02-.34 0-.68.03-.99q0-.23.06-.45l.07-.45q.04-.35.06-.7t-.02-.72zM147.9 133.67c1.21.86 6.26 5.81 3.91 7.65-.92.72 18.76 13.94 18.76 13.94l17.9-21.58-1.47-8.16-17.64 23.38z"/><path fill="#12111f" d="M159.84 148.54a257 257 0 0 0-4.1-3.22c-.5-.39-1.03-.72-1.54-1.12q-2.6-2.12-5.26-4.17-1.2-.9-2.4-1.76-.78-.55-1.53-1.12-.74-.61-1.44-1.27c-.28-.28-.15-.38.25-.36.38.03 1.07.11 1.74.43.6.27 1.13.64 1.7.97q.82.5 1.63 1.05 1.59 1.1 3.1 2.35c1.2 1 2.61 1.82 3.88 2.78q2.1 1.56 4.2 3.18l2.56 1.99c1.3 1 2.58 2.04 3.88 3 1.02.76 2.08 1.4 3.12 2.12q.34.22.67.48c.8.65.96.96.82 1.49q-.04.19-.1.36c-.17.35-.7.34-1.37-.02q-1.5-.79-2.9-1.82-1.4-1-2.8-2.09l-4.14-3.2z"/><path fill="#12111f" d="m183.6 141.06-4.4 5c-.53.6-1 1.25-1.54 1.86l-2.82 3.2-1.4 1.62-1.42 1.68-.75.87-.66.48c-.05.05-.11.1-.18.05q-.09-.04-.14-.1a1 1 0 0 1-.23-.24c-.16-.19-.3-.52-.41-.91s-.19-.82-.25-1.15a67 67 0 0 1-.49-2.38l-.2-1.2c-.08-.4-.06-.81-.09-1.22.03-.52-.05-.44.17-.05l.5.79q.3.5.52 1.17l.85 2.6s-.01.12.03.08h.05v-.02l.1-.1.67-.81 1.39-1.58c1.34-1.47 2.56-3.14 3.85-4.71l4.3-5.14 2.65-3.16 2-2.4.97-1.2.45-.6c.13-.2.21-.29.23-.44.03-.23 0-.66-.04-1.02q-.06-.57-.18-1.15l-.43-2.34q-.08-.52-.15-1.06c-.1-1.35.08-1.84.64-2.1.13-.05.26-.13.38-.15.44-.08.73.43.92 1.31.29 1.33.6 2.73.82 4.23q.1.56.14 1.16c.03.44.08.79 0 1.46-.06.37-.17.74-.38 1.02-.2.32-.28.41-.4.59l-.7.93c-1.4 1.78-2.85 3.47-4.31 5.18l-.05-.03zM181.53 114.47a5 5 0 0 0-1.15-2.2c-.21-.24-.48-.41-.73-.62a8 8 0 0 0-3.12-1.64 6 6 0 0 0-1.61-.16c-.7.06-1.37.12-2.12.09q-.33-.05-.13-.47c.12-.3.41-.71.86-.89a7.05 7.05 0 0 1 4.9.28c.9.42 1.88.8 2.7 1.45a7 7 0 0 1 2.13 2.67q.44.95.66 1.95c.23 1 .25 2.04.22 3.05-.03.8 0 1.6-.15 2.41q-.03.28-.1.54-.15.49-.44.6-.27.11-.73-.05-.23-.06-.42-.14c-.46-.2-.73-.61-.73-1.01.05-1.16.22-2.21.24-3.34a8 8 0 0 0-.33-2.49l.05-.02M166.73 102.9a6 6 0 0 0-.58-1.98q-.19-.35-.43-.65a7 7 0 0 0-1.92-2.06l-.55-.34q-.28-.16-.59-.26c-.5-.25-1.06-.29-1.57-.65-.16-.1-.1-.28.09-.48.19-.18.56-.48.94-.45q.48.03.97.16c.32.08.65.13.95.28a5 5 0 0 1 1.66 1.14q.41.42.89.84.44.43.84.9c.5.75.95 1.54 1.2 2.41.19.52.26 1.08.34 1.62.02.42.08.83.04 1.25l-.03.62-.08.62c-.02.33-.08.64-.1.98q-.04.5-.19 1c-.04.15-.05.32-.12.45-.25.52-.55.55-1.12.25l-.4-.22c-.41-.28-.66-.7-.66-1.02.07-.9.28-1.6.38-2.45q.12-.95-.02-1.94l.05-.02M145.97 63.8a24 24 0 0 1 6.4 4.41 17.4 17.4 0 0 1 4.32 6.6c.26.8.46 1.62.51 2.52a5 5 0 0 1-.32 1.9q-.1.23-.25.43c-.18.27-.47.44-.74.62l-.4.15q-.14.06-.3.09-.3.08-.61.09a6 6 0 0 1-2.78-.64c-.8-.36-1.5-.8-2.18-1.24-1.37-.9-2.63-1.84-3.93-2.72-2.56-1.76-5.26-3.4-8.23-3.92a20 20 0 0 0-8.09.53c-3.42.81-6.68 2.33-10.12 3.35-1.1.27-1.01.08-.26-.58q.57-.51 1.62-1.22c.34-.23.71-.5 1.14-.72q.62-.34 1.35-.63c1.72-.69 3.48-1.34 5.3-1.85a23 23 0 0 1 7.12-.93c.49 0 .97.06 1.46.1.98.11 1.98.35 2.91.65 1.88.63 3.57 1.57 5.15 2.6 1.73 1.12 3.4 2.35 5.11 3.45.85.54 1.71 1.06 2.57 1.41q.66.28 1.25.36.3.03.55 0 .13-.01.24-.04.07 0 .12-.04h.03q.18-.07.22-.32c.1-.37.08-.91-.02-1.44a8 8 0 0 0-.47-1.6q-.64-1.6-1.71-3.02a21 21 0 0 0-5.2-4.8 28 28 0 0 0-8.15-3.5 40 40 0 0 0-6.7-1.16c-2.23-.17-4.5 0-6.74.36-3.46.6-6.76 1.7-9.97 3.01q-1.05.44-2.1.91c-2.62 1.13-3.47 1.46-4.31 1.17-.19-.06-.42-.1-.55-.17-.43-.23.41-1.2 2.34-2.2a51 51 0 0 1 9.15-3.72c3.24-.94 6.65-1.6 10.18-1.66 1.3-.03 2.67.06 3.92.23q.95.11 1.9.28.96.16 1.9.36 3.81.8 7.4 2.48z"/><path fill="#12111f" d="M121.9 55.68c2.5-.4 5.04-.7 7.6-.77.93-.03 1.87-.09 2.8-.04 3.3.15 6.61.85 9.64 2.23 1.33.63 2.64 1.33 3.82 2.22 1.49 1.13 2.92 2.48 3.62 4.26.2.55.1.52-.38.27-.48-.26-1.39-.62-2.13-1.26q-3.87-3.5-9.06-4.99c-2.06-.59-4.34-.73-6.56-.74-2.45-.03-4.92.19-7.37.54a73 73 0 0 0-4.52.8 66 66 0 0 0-6.75 1.73c-1.71.55-3.33 1.25-4.95 1.95q-.53.24-1.07.47c-1.34.57-1.83.59-2.32.23-.1-.08-.25-.16-.33-.25-.28-.31.14-.86 1.1-1.4a46 46 0 0 1 9.4-3.6 84 84 0 0 1 7.47-1.68l.01.05z"/><path fill="#12111f" d="M77.83 68.22c4-2.57 7.98-5.13 12.05-7.6 1.48-.9 3-1.82 4.5-2.64 5.35-2.92 10.86-5.75 16.8-7.48a37 37 0 0 1 8.11-1.48c1.76-.14 3.59 0 5.34.45 1.75.43 3.42 1.28 4.74 2.52.74.87.52.82-.4.54-.46-.11-1.08-.32-1.8-.5q-.57-.1-1.18-.26l-1.27-.33c-1.56-.42-3.2-.56-4.84-.5-1.68.06-3.35.29-5.01.6q-2.49.52-4.95 1.32a79 79 0 0 0-4.88 1.83c-3.87 1.6-7.64 3.85-11.4 6-4.07 2.37-8.07 4.98-12.06 7.58l-7.34 4.84c-3.7 2.47-7.42 4.93-11.05 7.43-2.82 1.95-5.52 3.97-8.29 5.93q-.9.65-1.82 1.3c-2.33 1.55-3.22 1.86-4.05 1.65-.19-.05-.4-.07-.54-.15-.46-.28.31-1.15 1.93-2.39 4.83-3.6 10.1-7.22 15.42-10.8q5.95-3.97 11.95-7.9zM42.76 90.84q-1.43.68-2.82 1.43c-.35.18-.65.42-1 .6a36.69 36.69 0 0 0-5.07 3.1c-.31.23-.61.49-.95.69q-.52.3-1.06.54c-.23.1-.27 0-.2-.26.06-.25.18-.7.45-1.1.52-.64 1.14-1.15 1.75-1.69q.95-.74 2.04-1.32c.85-.48 1.63-1.12 2.47-1.66q1.39-.89 2.85-1.64l1.8-.92c.92-.46 1.86-.86 2.77-1.31.7-.35 1.37-.79 2.07-1.14.15-.08.3-.19.47-.24.61-.21.85-.14 1.14.28l.2.28c.17.34.03.73-.34 1.02-1.1.88-2.4 1.4-3.67 2.02q-1.44.64-2.86 1.36l-.02-.04zM61.05 127.15q-1.22.62-2.4 1.27c-.3.16-.55.37-.84.53-1 .58-2.06 1.1-3.05 1.71q-.66.4-1.26.9-.37.32-.77.6-.39.31-.87.5-.29.12-.27-.3 0-.2.03-.5.07-.3.25-.53.69-.8 1.51-1.42.8-.63 1.71-1.16c.72-.41 1.38-.95 2.1-1.4q1.17-.74 2.37-1.43l1.47-.86c.74-.44 1.49-.85 2.2-1.32.55-.37 1.03-.82 1.53-1.24q.16-.16.33-.27c.44-.32.65-.3 1.02.08q.15.12.25.25c.26.31.25.7-.02 1.02-.8.91-1.82 1.62-2.86 2.26q-1.2.69-2.4 1.35zM59.21 108.9q1.03-.51 2.06-.96.36-.19.73-.37 1.35-.5 2.69-.97.59-.23 1.14-.5c.48-.22.95-.47 1.5-.53.17-.01.26.25.26.59 0 .32-.09.74-.34.92a9 9 0 0 1-2.9 1.35c-.62.18-1.17.57-1.74.87q-.95.49-1.87 1.02-.56.33-1.11.69c-.55.36-1.1.74-1.57 1.2-.36.36-.62.82-.9 1.25q-.08.16-.16.28c-.26.32-.51.26-.96-.01l-.3-.2a.9.9 0 0 1-.39-.95 5.5 5.5 0 0 1 1.92-2.4c.6-.5 1.26-.91 1.92-1.31l.03.04M136.41 97.68a63 63 0 0 0-2.72 2.86c-.32.35-.6.76-.9 1.11-1.13 1.28-2.28 2.56-3.36 3.88q-.72.88-1.36 1.82c-.56.78-1.04 1.63-1.8 2.29-.22.2-.33.08-.37-.25a4 4 0 0 1 0-.64q0-.4.2-.77a34 34 0 0 1 3.2-5.02c.75-.92 1.38-2 2.1-3a74 74 0 0 1 2.5-3.18l1.6-1.9c.83-.96 1.72-1.86 2.53-2.82.63-.74 1.15-1.58 1.74-2.37q.18-.26.41-.49c.6-.55.92-.56 1.54-.14q.22.14.4.29c.43.36.51.92.26 1.46-.2.39-.38.8-.64 1.15q-.38.52-.8 1-.82.98-1.74 1.94l-2.73 2.83-.05-.04zM186.83 123.06l.66.64c.27.27.55.55.74.84q.08.1.1.22l.03.24v.23l-.01.12v.01c-.16.02.22-.02.18-.01v.04l-.02.05q-.13.47-.25.94c-.88 1.28-1.08 1.6-1.51 2.2l-1.2 1.68a243 243 0 0 1-7.5 9.7c-1.45 1.76-2.85 3.57-4.34 5.3l-1.9 2.19-.98 1.08-.33.36c-.13.14-.27.33-.42.43-.3.2-.6.45-.9.63q-.37-.06-.78-.22-.21-.08-.4-.17l-.4-.26-.62-.4-.48-.34-1.88-1.31-3.73-2.67a787 787 0 0 1-15.93-11.83q-2.72-2.04-5.4-4.2a52 52 0 0 1-5.07-4.59c-.92-1.1-.66-1.09.48-.58.58.24 1.36.65 2.26 1.15q.7.37 1.44.86.75.49 1.5 1.1 5.47 4.21 11.08 8.3l11.16 8.32a127 127 0 0 0 5.33 3.74l.75.5q.16.13.31.18l.24-.24.58-.68 1.34-1.58 2.65-3.21a223 223 0 0 0 11.35-14.92l.69-1.03.16-.24c.03-.08-.08-.15-.13-.22l-.2-.2-.34-.32q-.91-.83-1.85-1.65l-3.77-3.25a600 600 0 0 0-13.49-11.2c-3.53-2.82-7.09-5.45-10.66-8.12l-2.36-1.74a29 29 0 0 1-3-2.48 3.5 3.5 0 0 1-.97-1.58c-.06-.22-.17-.48-.17-.65 0-.3.37-.32 1.03-.08.66.25 1.61.73 2.72 1.5a302 302 0 0 1 19.82 15.08 508 508 0 0 1 7.28 6.02c2.4 2.06 4.79 4.1 7.15 6.27z"/><path fill="#12111f" d="M131.69 87.49c-2.41-.1-4.81.14-7.1.76-1.13.32-2.25.7-3.29 1.25a13 13 0 0 0-2.87 1.9c-1.7 1.5-3 3.5-3.44 5.64a8 8 0 0 0 .03 3.23c.1.55.31 1.02.5 1.5.29.49.53.98.9 1.45a27 27 0 0 0 3.59 3.88l4.1 3.72a34 34 0 0 1 3.5 3.69 11 11 0 0 1 1.47 2.29c.4.83.66 1.63.9 2.53.2.89.34 1.85.16 2.9a3.9 3.9 0 0 1-1.86 2.72 4.5 4.5 0 0 1-3.07.56c-.97-.13-1.8-.46-2.62-.8a29 29 0 0 1-4.38-2.56 97 97 0 0 1-4-2.92c-2.6-2-5.13-4.03-7.77-5.9a46 46 0 0 0-3.58-2.33 18 18 0 0 0-3.78-1.73q-.49-.17-.95-.2-.46-.07-.98-.07-1.04 0-2.1.08l-4.33.29c-3.71.2-7.51.19-11.23-.54-.92-.2-1.85-.35-2.76-.63-.9-.27-1.83-.47-2.69-.87l-1.3-.53q-.65-.28-1.28-.61l-1.25-.64q-.6-.34-1.2-.72c-1.98-1.23-1.65-1.14.2-.47.46.16 1 .4 1.66.56.66.15 1.38.38 2.18.58q1.24.23 2.6.53c.93.15 1.9.4 2.9.55.9.15 1.8.31 2.72.38l1.36.14 1.36.06c.91.06 1.83.04 2.75.07.92-.03 1.83-.02 2.76-.08 1.85-.07 3.69-.25 5.61-.38.97-.05 1.94-.12 3.08-.03q.45.06.88.14l.78.22q.76.23 1.47.54c1.9.81 3.55 1.86 5.17 2.93a92 92 0 0 1 4.65 3.4c3.03 2.3 5.95 4.72 9.02 6.8.92.6 1.86 1.18 2.81 1.66s1.96.85 2.83.9c.45.04.78-.05 1.13-.2q.52-.25.76-.68c.33-.59.3-1.59.03-2.58q-.2-.75-.52-1.51-.14-.39-.33-.7c-.12-.22-.22-.44-.39-.66-.55-.87-1.34-1.7-2.1-2.5-1.6-1.6-3.35-3.12-5.08-4.7-1.9-1.75-3.82-3.57-5.34-5.9a10 10 0 0 1-1.08-8.24 13.6 13.6 0 0 1 4.73-6.67 20 20 0 0 1 7.31-3.3c3.2-.7 6.5-.8 9.71-.37q2.41.31 4.75 1c.77.25 1.54.5 2.32.85q1.15.53 2.17 1.2c2.07 1.35 3.88 2.96 5.7 4.48.92.76 1.82 1.52 2.77 2.15q.7.48 1.43.82c.24.14.47.16.7.25q.35.07.63.06c.34 0 .66-.22.77-.54.12-.27.15-.82.08-1.33a11 11 0 0 0-1.05-3.14 19 19 0 0 0-4.08-5.46 34 34 0 0 0-8.81-5.98 33 33 0 0 0-10.16-2.74c-.77-.1-1.55-.1-2.31-.15-.77-.03-1.55 0-2.33-.01q-2.17.06-3.67.2l-2.5.23a9 9 0 0 1-2.86-.13c-.31-.09-.72-.14-.93-.25-.34-.19.06-.5 1.1-.92a23.32 23.32 0 0 1 4.96-1.2c3.31-.47 6.75-.54 10.2-.08 3.44.45 6.86 1.47 10.06 3.04a36 36 0 0 1 8.78 6.06 22 22 0 0 1 3.6 4.22c1 1.57 1.87 3.24 2.35 5.25.15.76.3 1.55.1 2.6-.09.57-.36 1.22-.76 1.69-.4.49-.96.83-1.56 1a4 4 0 0 1-1.73.1c-.28-.03-.48-.1-.7-.16l-.63-.2c-.35-.17-.74-.34-1.06-.53-.3-.19-.64-.37-.93-.57-1.17-.8-2.17-1.65-3.17-2.48q-1.48-1.26-2.91-2.44A28 28 0 0 0 142 90.1c-1.01-.62-1.95-1.01-3.15-1.38a28 28 0 0 0-7.15-1.17zM53.78 105.53a51 51 0 0 0 3.62 6.98c.5.82 1.1 1.58 1.64 2.36.97 1.38 2 2.73 3.12 3.96q.84.93 1.75 1.76a10 10 0 0 0 1.42 1.01q.14.09.2.1l.13.05c.17.06.39.03.5-.13q.09-.12.13-.24l.1-.35c.14-.65.16-1.39.12-2.1-.04-.94-.23-1.87-.4-2.8a10 10 0 0 0-.84-2.64q-.43-.71.36-.28a5 5 0 0 1 1.8 2.18c.46.98.72 2.03.87 3.1q.12.8.13 1.64.01.42-.04.87-.01.21-.05.46l-.06.25q-.02.17-.08.35c-.28.95-1 1.72-1.94 1.82a3 3 0 0 1-1.68-.31l-.22-.11q-.22-.1-.4-.23c-1.02-.62-1.8-1.35-2.53-2.12a54 54 0 0 1-4.8-5.87 53 53 0 0 1-8.08-19.27 45 45 0 0 1-.97-7.16c.03-1.63.3-2.14.87-2.43q.2-.12.39-.18c.43-.1.7.57.8 1.7.22 3.33.68 6.76 1.58 10.17a49 49 0 0 0 2.6 7.43z"/><path fill="#12111f" d="M25.45 293.33s4.88-25.66 7.01-31.2S44.58 237.49 48 233.4c3.4-4.08 13.08-14.07 17.07-15.3 3.98-1.2 11.57-2.57 14.67-1.15 3.09 1.43 9.9 1.53 9.9 1.53s6.48 3.57 4.06 6.34c-2.42 2.76 8.71 5.6 8.71 5.6l4.35 4.48-7.04 4.25s-4.5 1.06-4.81 4.37c-.32 3.3-2.14-.25-2.14-.25s-11.83-1.18-14.09 3.58-6.45 9.64-5 11.19 9.76 1.94 9.76 1.94 14.16.52 16.36 3.2c2.2 2.67 3.67 6.63-2.95 7.13s-15.06 1.22-15.06 1.22-14.99 6.38-16.73 8.35S53 284.54 53 284.54s-2.08 4.55-2.68 9.03-1.9 8.93-1.9 8.93z" opacity=".1"/><path fill="#12111f" d="M50.33 293.55c.43 0 12.57 3.43 13.4 6.7.82 3.28-14.08.59-14.08.59zM39.63 300.16q-1.9-.57-3.77-1.23c-.45-.16-.92-.28-1.37-.46a42 42 0 0 1-4.61-2.17c-.66-.37-1.35-.67-2-1.04q-.61-.34-1.23-.73c-.41-.25-.76-.59-1.14-.9-.22-.2-.13-.28.18-.31.3 0 .85-.06 1.37.1 1.84.62 3.5 1.46 5.21 2.3 1.01.55 2.17.89 3.27 1.26a62 62 0 0 0 6.01 1.77c1.18.27 2.37.56 3.56.76.93.15 1.86.18 2.79.26q.3 0 .61.04c.75.12.97.29 1.07.77l.06.33c.01.35-.34.6-.92.64-1.7.1-3.45-.14-5.2-.44-1.3-.21-2.6-.56-3.89-.9z"/><path fill="#12111f" d="M25.31 308.15s-1.22-13.65 1.93-12.94c3.16.7 14.7 5.6 18.99 6.05s18.83.4 18.83.4v13.21s-7.56-2.89-11.27 1.24-11.97 3.02-15.13-1.93-7.43-7.47-10.87-4.35c-3.44 3.11-2.48-1.68-2.48-1.68M85.44 233.07l-.7-.1q-.35-.03-.69-.04c-.1 0-.14.02-.21.03-.08.01-.13 0-.25.04l-.65.21c-.92.37-1.87.86-2.79 1.38-.67.38-1.3.83-1.97 1.24a79 79 0 0 0-6.84 4.73 41 41 0 0 0-4.49 4.05q-.42.4-.88.77l-.9.77c-.4.29-.51.11-.45-.39s.28-1.37.84-2.13q3.32-3.7 7.44-6.47c1.64-1.1 3.23-2.39 4.93-3.5q1.39-.92 2.9-1.7.73-.41 1.56-.75c.3-.1.55-.22.88-.3.35-.06.74-.15 1.02-.12 1.5 0 2.88.34 4.22.76a29 29 0 0 1 5.7 2.69 38 38 0 0 1 4.04 2.64q.44.3.84.67c1 .9 1.13 1.37.86 1.98q-.1.23-.2.41c-.3.4-.95.29-1.64-.27a49 49 0 0 0-6.88-4.47q-1.38-.72-2.8-1.25-1.45-.56-2.89-.82z"/><path fill="#12111f" d="m87.8 223.79-.95-.22q-.48-.06-.94-.12a6 6 0 0 0-1.83.1c-1.28.22-2.6.68-3.9 1.2-.95.4-1.85.9-2.78 1.35a82 82 0 0 0-9.55 5.62 59 59 0 0 0-3.94 2.99q-1.2 1-2.4 2.03-.59.52-1.22 1-.62.48-1.26.95c-.53.39-.55.27-.36-.32a7 7 0 0 1 1.39-2.65 49 49 0 0 1 10.36-8.1c2.26-1.36 4.57-2.87 7.01-4.08a32 32 0 0 1 4.2-1.73c.74-.23 1.47-.45 2.26-.57q.6-.1 1.2-.14l.62-.01.6.05c1.95.17 3.75.79 5.45 1.52a40 40 0 0 1 7.19 4.26 49 49 0 0 1 5.03 3.96q.52.48 1.03 1c.59.66.95 1.13 1.1 1.55.13.41.1.73-.05 1.06q-.1.24-.22.44c-.32.4-1.05.06-1.9-.76a56 56 0 0 0-8.7-6.88 27 27 0 0 0-7.47-3.45v-.06z"/><path fill="#12111f" d="M76.21 219.11c-1.68.54-3.31 1.4-4.92 2.32q-.87.55-1.71 1.12a77 77 0 0 0-5.98 4.18q-1.27 1.01-2.5 2.05c-1.07.88-2.05 1.86-3.28 2.55-.38.23-.42.1-.3-.3l.3-.8q.1-.25.25-.5.15-.22.36-.45c.99-1.03 1.97-2.06 3.05-3 1.1-.9 2.23-1.8 3.42-2.6 1.42-.97 2.79-2.12 4.26-3.12a31 31 0 0 1 5.14-2.87q1.7-.72 3.5-1.1c1.82-.39 3.72-.45 5.54-.3 1.41.12 2.82.26 4.2.55q.45.09.9.2c1.11.3 1.4.63 1.43 1.22 0 .14.04.28.02.41-.04.43-.6.62-1.4.5-2.36-.4-4.72-.9-7.08-.88-1.74 0-3.5.27-5.18.87z"/><path fill="#12111f" d="M29.85 265.73c1.91-5.65 4.13-11.2 6.87-16.49.98-1.93 2.04-3.84 3.1-5.74a90 90 0 0 1 14.13-18.04c2.4-2.36 4.88-4.8 7.84-6.6a22 22 0 0 1 6.15-2.52q.8-.2 1.6-.36.82-.12 1.63-.22l1.62-.15c.54-.03 1.1 0 1.63.01 1.37.13 1.18.07.1.54-1.08.53-3.05 1.4-5.34 2.03a22 22 0 0 0-5.72 2.27 33 33 0 0 0-5.01 3.71 73 73 0 0 0-4.65 4.51l-2.27 2.33-2.13 2.47-1.28 1.5c-.43.49-.8 1.04-1.19 1.58l-2.33 3.25c-1.4 2.29-2.9 4.53-4.14 6.9-1.49 2.54-2.72 5.22-4.02 7.86-1.14 2.71-2.36 5.4-3.3 8.2l-.94 2.56-.81 2.6-.81 2.6q-.36 1.31-.7 2.64a112 112 0 0 0-3.07 16.2c-.22 2.11-.44 4.2-.49 6.3l-.12 3.14c-.03 1.05 0 2.1 0 3.14l.01 2.76c.12 3.45-.03 4.54-.54 5.31-.12.18-.24.4-.36.51-.4.36-.8-1.04-1.03-3.6a103 103 0 0 1 1.26-23.67c.2-1.49.52-2.96.82-4.43s.57-2.95.97-4.4l1.13-4.38 1.32-4.32h.07M48.35 296.21q.18-1.33.5-2.61c.07-.3.1-.63.2-.93.31-1.07.7-2.1 1.01-3.13q.2-.7.34-1.39.1-.44.2-.88c.1-.3.27-.57.41-.85q.14-.24.35.06c.13.18.4.53.5.91.04 1.3-.28 2.51-.66 3.7-.24.71-.27 1.49-.4 2.22-.1.81-.27 1.62-.33 2.42q-.08.75-.08 1.5c.02.75.04 1.5.24 2.23.14.56.44 1.07.7 1.59q.09.15.18.32c.2.43.09.62-.44.94l-.36.21c-.41.22-.84.16-1.1-.15q-.59-.7-.92-1.58a8 8 0 0 1-.38-1.81c-.12-.92-.06-1.85 0-2.77h.05zM66 306.1q-.12 1.4-.2 2.8-.01.52-.02 1.03-.18 1.8-.29 3.63c-.04.54.02 1.08-.02 1.61-.04.69.01 1.37-.26 2.06-.08.21-.1.18-.24 0l-.28-.37q-.1-.11-.17-.24l-.1-.28-.22-1.04q-.07-.25-.1-.52l-.03-.52q-.05-1.04.03-2.1c.06-.84-.07-1.72-.1-2.58q0-1.43.04-2.85l.06-1.75c.02-.89.1-1.78.08-2.66-.02-.7-.13-1.37-.16-2.07q-.02-.23-.03-.46c.03-.58.2-.75.76-.8l.4-.02c.42 0 .75.27.84.67a12 12 0 0 1 .22 3.66l-.16 2.8zM92.84 269.3c1.52 0 3.04-.04 4.48-.22q1.08-.14 2.03-.4a3 3 0 0 0 1.37-.7c.13-.12.16-.24.21-.38a2 2 0 0 0-.03-.71 4 4 0 0 0-.79-1.65 8 8 0 0 0-1.4-1.47q-.2-.17-.4-.32l-.42-.27a5 5 0 0 0-.9-.47c-.43-.23-.96-.36-1.44-.53-.52-.12-1.02-.27-1.57-.36a34 34 0 0 0-3.25-.4 69 69 0 0 0-5.9-.21c-2 0-3.98.07-6.04 0-1-.02-2.15-.12-3.23-.5a5 5 0 0 1-1.58-.89 4 4 0 0 1-1.1-1.55 6 6 0 0 1-.1-3.46c.27-1.07.7-2.05 1.19-2.97a24 24 0 0 1 3.18-4.5 22 22 0 0 1 4.13-3.65 13 13 0 0 1 6.85-2.08 12 12 0 0 1 3.58.5c1.15.33 2.3.79 3.18 1.63.48.62.66.88.63.89s-.33-.2-.97-.26c-1.29-.14-3.32-.5-5.64-.46-2.04-.06-4.15.41-5.9 1.38a19 19 0 0 0-4.78 4.2 17 17 0 0 0-3.27 5.44 4 4 0 0 0-.14 2.58c.22.67.88 1.15 1.82 1.44 1.1.3 2.52.3 3.91.32q2.1 0 4.27-.06c2.87-.04 5.8-.05 8.73.39 1.6.24 3.23.62 4.79 1.4.39.17.76.44 1.13.66q.54.36 1 .8a9 9 0 0 1 1.7 1.96c.47.75.87 1.6.98 2.58q.05.38 0 .78c-.05.27-.08.56-.21.82-.2.55-.6.96-.98 1.3a7 7 0 0 1-2.47 1.15q-1.23.31-2.44.43c-3.97.4-7.87.04-11.65.1-.72.03-1.38.04-1.98.23l-1.01.3-1 .37q-1.97.78-3.85 1.84c-2.52 1.4-4.9 3.06-7.36 4.64a48 48 0 0 1-5.94 3.38 30 30 0 0 1-9.53 2.66c-3.8.33-5.02-.17-5.74-.84-.17-.16-.39-.33-.47-.48-.15-.25.16-.44.82-.57q1.02-.21 2.97-.33a32 32 0 0 0 11.24-2.82c3.56-1.63 6.9-4.12 10.54-6.4 2.7-1.7 5.64-3.29 8.95-4.18 1.12-.25 1.9-.23 2.74-.25q1.22 0 2.4.02c1.59.03 3.14.08 4.68.07v.06z"/><path fill="#12111f" d="M44.02 299.24q3.92.77 7.91 1.15c.96.09 1.94.07 2.9.11 1.7.08 3.4.08 5.04-.1.82-.1 1.63-.23 2.34-.48.72-.24 1.34-.6 1.54-.99.19-.34.08-.85-.3-1.4A8 8 0 0 0 62 296q-1.09-.9-2.3-1.7c-.4-.26-.82-.49-1.2-.78l-1.2-.86c-.52-.35-.46-.33.12-.38.28-.01.71-.07 1.22-.05q.39-.01.82.06.41.1.82.28.74.33 1.45.7l.7.4.68.48a10 10 0 0 1 2.5 2.52c.35.59.69 1.49.56 2.4a3.5 3.5 0 0 1-1.3 2.22c-.59.48-1.18.74-1.76.93q-.87.28-1.69.4c-2.62.38-5.2.57-7.75.48-2.8-.1-5.56-.45-8.3-.9q-2.53-.44-5.02-.98a93 93 0 0 1-7.48-2.02c-1.9-.6-3.82-1.13-5.7-2-.4-.19-.82-.37-1.21-.63-1.46-.95-1.76-1.62-1.5-2.33q.07-.26.18-.47c.33-.44.98-.25 1.91.2a58 58 0 0 0 9.65 3.43q3.86 1.06 7.83 1.77v.07zM186.94 298.1c.96-.85 1.93-1.7 2.83-2.57.28-.3.25-.22.3-.3l.02-.13.03-.46.11-1.91c.05-.94.03-1.89.07-2.82l.45-9.98q.09-2.21.08-4.43l.1-2.82q.06-.72.16-1.42l.1-.7q.07-.36.16-.7c.17-.59.08-.5.21-.01.18.5.55 1.41.75 2.5q.17 1.44.28 2.88c.07.97.06 1.92.07 2.89q0 1.44-.02 2.9l-.15 2.9c-.17 2.31-.07 4.73-.13 7.1q-.05 1.96-.13 3.94c-.02.26-.02.92-.27 1.33-.13.2-.34.42-.48.55l-.36.36-1.45 1.35c-1.2 1.1-2.42 2.14-3.64 3.2a148 148 0 0 1-5.74 4.57c-1.5 1.14-2.94 2.34-4.56 3.37q-.51.36-1.08.66-.53.28-.9.44c-.26.1-.5.12-.7.14-.4.02-.66-.07-.9-.26q-.18-.13-.32-.27c-.25-.32.2-.87 1.08-1.46 2.66-1.7 5.4-3.73 8.09-5.88q3.02-2.4 5.9-4.98l.04.03z"/><path fill="#12111f" d="M148.05 311.26q-11.89-.06-23.76-.37c-2.89-.07-5.78-.1-8.67-.2q-7.63-.28-15.26-.82c-2.55-.2-5.09-.41-7.65-.76a38 38 0 0 1-2.9-.54q-.25-.06-.52-.15c-.22-.1-.45-.17-.66-.3-.45-.21-.65-.7-.74-1.16-.07-.26-.07-.4-.1-.58l-.06-.5q-.1-.98-.15-1.94a249 249 0 0 1 .09-22.24c.09-1.44.15-2.89.31-4.33l.29-2.15c.1-.72.3-1.43.47-2.14.52-1.75.44-1.51.68.04.28 1.56.85 4.38.61 7.66q-.23 4.37-.32 8.75-.13 4.4-.16 8.77 0 2.2.03 4.37a53 53 0 0 0 .17 3.2l.07.57c.01.05.03.05.14.1q.44.15.95.25 1.03.22 2.1.38 2.15.3 4.35.5c7 .69 14.38.79 21.62.98a1131 1131 0 0 0 38.57.25l7.5-.14 3.74-.1q1.71-.08 3.4-.13l.27-.01h.13c.05-.01.03-.08.05-.12l.05-.52.1-1.64.16-3.6c.2-5.71.18-11.33.18-16.99l-.02-3.72c.02-4.65.16-6.13.84-7.13.15-.23.29-.53.43-.66.43-.44.95 1.46 1.06 4.88a312 312 0 0 1-.06 23.12l-.18 3.95-.06 1-.08 1.23-.1.97c-.04.32-.14.6-.4.72l-.29.21-.02.01c-.15-.16.2.23.16.2h-.01l-.05.02-.1.03-.17.08-.73.32-1.17.05-3.14.12-3 .08-6 .12q-6 .08-12 .08v-.07M185.17 258.45q.14-2.36.26-4.74c.04-.58 0-1.16.05-1.73.14-2.04.24-4.09.4-6.14q.07-1.36.09-2.73a18 18 0 0 1 .16-2.6c.03-.3.16-.58.22-.87.12-.36.13-.3.3 0q.11.23.37.64.2.4.27.9c.2 1.18.2 2.35.25 3.53.02 1.18.06 2.36-.05 3.55-.1 1.43.02 2.9.02 4.37q-.02 2.4-.14 4.81l-.16 2.97c-.06 1.5-.23 3-.3 4.49-.07 1.15-.05 2.3-.09 3.45q0 .38-.03.75c-.1.95-.4 1.21-.85 1.36q-.15.06-.3.1-.24.02-.41-.26a2 2 0 0 1-.3-.82c-.18-2.05-.07-4.15-.02-6.28.04-1.58.16-3.16.22-4.75zM182.09 237.74l.16-.04.35-.14.1-.05v-.04l-.09-.05c-.07-.03-.24-.01-.31-.05l-.29-.1-.22-.05-.3-.05-.6-.1a52 52 0 0 0-2.44-.31q-1.08-.11-2.16-.1c-.92-.06-1.83.02-2.75-.26-.3-.17-.27-.23-.03-.53q.17-.24.5-.49.3-.27.73-.34l1.44-.18q.72-.03 1.45.02 1.44.07 2.87.32.43.08.87.12l.44.03.53.04q.74.05 1.51.08c.5.04 1.05.07 1.44.19.44.11.71.28.92.43.22.16.36.29.49.48.06.08 0 .14-.02.19l-.09.15q-.07.15-.18.3l-.35.4c-.12.13-.2.25-.43.39l-.15.1-1.52 1.02-.73.47-.5.32c-1.03.64-2.1 1.24-3.1 1.89-.78.5-1.49 1.1-2.25 1.64q-.24.2-.5.37-.47.3-.78.25a1.3 1.3 0 0 1-.61-.4q-.14-.12-.26-.24-.16-.2-.11-.55c.02-.25.11-.53.32-.71 1.2-1.14 2.63-2.03 4.07-2.93l1.6-1 .8-.5.05-.04h.05l.05.02zM98.59 237.82q1.13-.52 2.25-1.07.4-.21.79-.44l1.44-.7q.72-.33 1.44-.7.63-.34 1.22-.71.73-.54 1.58-.89.24-.08.17.25c-.05.2-.17.55-.42.81a15 15 0 0 1-3.06 2.13c-.68.34-1.3.8-1.96 1.18q-1.1.62-2.2 1.22l-1.36.73c-.69.38-1.38.73-2.04 1.14-.51.32-.96.72-1.43 1.1l-.3.24c-.4.28-.6.26-.91-.06q-.11-.1-.21-.22c-.22-.27-.2-.61.06-.87.77-.8 1.72-1.4 2.7-1.96q1.1-.62 2.22-1.2l.02.04zM114.52 237.59c-.66-.75-.37-2 .15-3.15.12-.29.3-.58.45-.84a8 8 0 0 1 1.21-1.43c.44-.42.9-.85 1.43-1.16a7 7 0 0 1 3.06-.93 7 7 0 0 1 3.11.48 5.6 5.6 0 0 1 3.28 3.9q.12.39.16.79c.04.34.06.3-.2.12-.3-.14-.85-.45-1.3-.84-1.67-1.38-2.42-2.13-4.26-2.25-1.08-.14-2.13.35-3 .97a6 6 0 0 0-1.3 1.26l-.13.18-.11.15-.13.18a3 3 0 0 0-.28.65c0 .07-.03.18.04.19l.4.02.42.01 3.89.08c1.04 0 2.07-.09 3.11-.08h.7q.63.04.89.25.24.26.3.66.03.19.04.36 0 .29-.27.5c-.17.15-.43.3-.72.3-1.77.13-3.61.09-5.49.07l-1.69-.03h-1.12c-.58.03-1.2.17-1.75.11l-.33-.08q-.13-.07-.24-.14-.24-.15-.38-.3l.04-.03zM133.76 237.64l-.2-.22a2 2 0 0 1-.19-.37 2 2 0 0 1-.1-.8c.02-.56.23-1.19.51-1.78.12-.28.33-.61.46-.83a10 10 0 0 1 2.75-2.62 8 8 0 0 1 3.09-.95 5.9 5.9 0 0 1 6.3 3.74q.14.4.22.83.04.21.06.43 0 .21-.02.43c-.06.37-.03.3-.23.07-.24-.23-.73-.57-1.16-.97-.78-.68-1.44-1.26-2.1-1.67a4 4 0 0 0-2.2-.67 5 5 0 0 0-3.16 1.04 6 6 0 0 0-1.37 1.27l-.26.36-.14.2q-.13.2-.22.45c-.02.1-.08.22-.01.31q.13.03.3.04l.68.07c1.36.07 2.74.18 4.1.2 1.06.02 2.11-.08 3.16-.11.24 0 .46-.04.7-.03.43.01.71.04.91.18q.28.23.37.62.06.19.1.36.03.29-.23.53c-.17.16-.42.34-.74.35a34 34 0 0 1-5.78.15l-2.19-.1-.6-.03c-.36.06-.74.01-1.1.03-.39.02-.72-.06-1.07-.09l-.13-.01-.09-.05-.17-.1c-.1-.06-.23-.12-.29-.2l.05-.04zM154.08 238c-.2-.14-.28-.27-.4-.42a2 2 0 0 1-.2-.7q-.03-.72.35-1.53a7 7 0 0 1 1.78-2.4c.42-.38.85-.78 1.34-1.08a8 8 0 0 1 2.86-1.03 6 6 0 0 1 3.06.26 4.9 4.9 0 0 1 3.12 3.82q.1.37.12.76c.02.32.04.28-.21.11a6 6 0 0 1-1.24-.84c-1.62-1.38-2.17-2-3.92-2a4.8 4.8 0 0 0-2.9 1.13 6 6 0 0 0-1 .87l-.27.3c-.18.2-.38.44-.5.76q-.01.08 0 .17.08.03.15.04l.3.06.57.08c1.26.11 2.54.25 3.8.27.98.01 1.95-.1 2.91-.2q.31-.02.64-.07c.4-.01.65 0 .84.11q.26.2.39.6.07.17.12.34.06.28-.15.54c-.15.17-.38.38-.68.42-1.77.4-3.64.38-5.5.28q-.91-.05-1.82-.13l-1.08-.1c-.6 0-1.24 0-1.82-.06l-.42-.14c-.14-.04-.2-.13-.31-.2l.05-.03z"/><path fill="#12111f" d="m158.5 243.78-19.84-.57c-2.41-.07-4.83-.06-7.24-.15-8.5-.28-17-.64-25.5-.78h-5.22l-2.6-.03h-1.95c-.16-.02-.2.02-.34-.03-.1.08-.32-.06-.33.14-.08.27-.14 1.77-.17 2.91l-.12 3.61q-.09 1.82-.24 3.62l-.16 1.8q-.12.9-.26 1.8c-.27 1.5-.46 1.28-.8-.01-.38-1.3-.83-3.65-.86-6.4 0-1.5.06-3 .1-4.51q.01-1.13.1-2.3v-.15l.03-.27.07-.56q.06-.56.26-1.02c.15-.28.32-.54.6-.7l.45-.15.22-.07.11-.03.06-.02h.03l.01-.01c.01.02-.01-.06.03.05-.04-.1 0-.03-.01-.05h3.15l2.56.01q2.56.07 5.14.22c1.71.13 3.43.15 5.14.2l5.16.19c5.93.24 12.1.22 18.16.35l19.98.5 12.3.25 9.8.13.72.15c.25.06.33.33.42.55.17.46.23 1.1.27 1.54q.11 1.16.16 2.3.12 2.3.17 4.56.09 3.6.12 7.16.06 3.56-.11 7.13c-.05 1.06-.09 2.08-.19 3.14-.35 3.92-.77 5.17-1.46 5.9-.15.16-.31.4-.44.47-.43.29-.48-1.31-.33-4.12.22-4.18.14-8.5.17-12.88q0-3.3-.1-6.61c-.05-2.2-.12-4.44-.31-6.58l-.03-.3v-.05l-8.1-.1-8.76-.17v-.06z"/><path fill="#12111f" d="M155.88 276.87c-5.61-.01-11.22-.1-16.84-.19-2.04-.04-4.09-.02-6.13-.08q-10.83-.35-21.64-1.09l-4.8-.33c-1.6-.1-3.19-.27-4.78-.4-1.01-.09-2.04-.13-3.06-.25l-3.05-.4a37 37 0 0 1-6.03-1.23c-1.2-.5-1.03-.45.1-.62q.86-.14 2.27-.2c.94-.04 2 .04 3.17.12 4.11.34 8.22.78 12.36 1.07 4.14.31 8.3.56 12.48.85 5 .3 10.21.3 15.33.37q8.46.12 16.92.08 5.2-.01 10.42-.12l7.88-.18 3.9-.15c.47-.07 1.15-.28 1.74-.47q.9-.3 1.8-.67a57 57 0 0 0 5.44-2.5q1.3-.7 2.61-1.43l1.3-.74.32-.19.17-.1.33-.21.4-.25q.19-.16.38-.28c.1-.03 0-.1-.05-.12l-.16-.07-.28-.13a2 2 0 0 1-.39-.27c-.05-.08-.45-.3-.61-.49q-.3-.28-.46-.6c-.1-.2-.24-.42-.27-.6-.06-.3.26-.42.88-.4a5 5 0 0 1 .83.07l.16.03.26.06c.72.18 1.64.43 2.54.8q.66.28 1.01.63c.23.23.39.42.5.7v.13q-.01.05-.05.1l-.13.19-.25.38-.5.79c-.57.36-1.06.63-1.6.95l-1.6.92q-1 .58-2.02 1.14a85 85 0 0 1-8.67 4.03q-1.12.45-2.38.8l-.35.1-.4.08-.24.04-.17.01-.32.02q-.66.06-1.24.07c-5.67.2-11.33.25-17 .28v-.06zM242.54 328.65q4.54.09 9.1-.05c1.1-.02 2.2-.15 3.31-.18q2.93-.1 5.86-.22 2.94-.1 5.87-.25c1.74-.1 3.47-.29 5.2-.41 2.2-.2 4.42-.44 6.67-.19.7.08.61.16.06.46l-1.16.64q-.73.37-1.68.6-.82.21-1.67.34l-1.68.27c-1.12.18-2.25.36-3.38.44a106 106 0 0 1-6.82.42c-2.74.07-5.58.38-8.38.52-3.08.15-6.17.2-9.25.24-1.9-.02-3.8 0-5.7-.07l-2.16-.05-2.17-.1c-1.44-.06-2.87-.19-4.3-.26-2.22-.16-4.41-.2-6.63-.45-.49-.05-.97-.07-1.45-.15-1.8-.33-2.35-.63-2.57-1.39q-.1-.26-.14-.51c-.03-.56.78-.85 2.06-.74 3.83.28 7.83.61 11.9.8 3.02.1 6.07.26 9.11.23zM212.4 319.07l-.02 1.98.01.07.02.03.1.09.8.77 1.66 1.55.84.76.37.33.1.1q.16.14.31.26l.16.11q.02.02.05.02v-.04l.01-.1q.01-.09.04-.18l.03-.36v-.11l.01-.34v-.67l.03-2.69.02-5.4q-.02-2.62.02-5.22c.06-2.21-.1-4.47.7-6.65.32-.68.11-.6.3 0q.13.45.49 1.22a8 8 0 0 1 .43 1.73l.46 6.72q.01 3.38-.13 6.8-.08 1.52-.07 3.07v1.63l-.03 2.55v.22l-.06.11-.11.24-.23.48-.1.24-.07.12-.01.03v.01l-.03-.04v.01l-.05.04c-.13.04-.28 0-.43 0a3 3 0 0 1-1.26-.58q-.74-.58-1.46-1.21l-1.94-1.69-1.74-1.53-.93-.85c-.52-.37-.6-.96-.64-1.54-.07-1.95-.02-3.81-.02-5.7l.1-8.58c0-2.2-.1-4.37-.11-6.57 0-.48-.03-.95-.01-1.44.04-.9.1-1.5.25-1.92.18-.4.4-.63.7-.8.14-.07.3-.17.42-.2q.34-.1.57.43a4 4 0 0 1 .32 1.5 239 239 0 0 1 .22 12.04c0 3.04-.05 6.11 0 9.15h-.09M282.55 311.18l-.19 3.93c-.02.47.02.95 0 1.42-.1 1.68-.27 3.36-.33 5.03q-.04 1.12-.05 2.23.02.7 0 1.42 0 .35-.02.7 0 .19-.1.36-.05.19-.06.36c-.05.3-.1.26-.25.02-.1-.11-.15-.29-.38-.5-.16-.2-.23-.45-.3-.72q-.29-1.44-.49-2.9c-.08-.48-.06-.97-.06-1.46q0-.73.05-1.47c.08-1.17-.07-2.39-.06-3.58l.05-3.94.02-2.42c-.01-1.22 0-2.45-.1-3.65-.09-.94-.28-1.85-.44-2.76-.03-.2-.1-.4-.09-.61 0-.76.15-1.02.65-1.23l.33-.14c.38-.1.73.18.98.73.42.8.54 1.67.7 2.54s.18 1.76.2 2.65c.05 1.32 0 2.66-.01 3.98h-.06zM230.27 293.06a5 5 0 0 0-1.3 1.35c-.07.1-.17.27-.17.25l-.14.2a.4.4 0 0 0-.03.17q-.01.1.06.13c-.17.12 2.2.3 3.72.38.73.04 1.48-.02 2.21 0 .47 0 .94-.04 1.42-.02q.71-.03 1.42.38c.3.16.26.2.02.45q-.2.2-.5.58-.16.18-.34.28-.1.06-.18.12-.1.03-.2.04l-1.44.22-.72.08-.72.01q-1.45 0-2.92-.15-.43-.05-.88-.05l-1.2-.01q-.35-.02-.72-.05c-.25 0-.45-.07-.64-.13q-.3-.1-.53-.23l-.1-.09c0-.06-.06-.09-.08-.13a1 1 0 0 1-.13-.27c-.24-.83.14-1.93.62-2.85.38-.7.82-1.26 1.36-1.8a5.37 5.37 0 0 1 4.46-1.64 6.9 6.9 0 0 1 4.6 2.31q.24.25.44.54c.47.7.42 1-.04 1.42q-.15.16-.33.28c-.37.26-.86.15-1.22-.23-.54-.57-1.03-1.08-1.54-1.4a4 4 0 0 0-1.65-.63q-.34-.04-.72-.05a3 3 0 0 0-1.84.6l-.03-.04zM246.14 292.77a4.5 4.5 0 0 0-1.73 1.4l-.24.31-.1.17-.06.09-.02.02c-.07.1-.07.2-.12.32q-.05.08-.06.18.05.07.12.09.15.06.36.1l.56.07.6.06 1.22.1c.71.06 1.44.01 2.16.03q.69-.02 1.38 0 .69-.02 1.39.37c.29.15.25.19.01.43l-.5.56q-.14.17-.33.27l-.18.1-.2.05a18 18 0 0 1-6.12 0q-.38-.01-.74-.04-.37 0-.7-.08l-.33-.06-.29-.1q-.28-.08-.49-.26l-.05-.04-.01-.02v-.01l-.02-.04-.1-.12-.1-.29q-.14-.58.05-1.26a7 7 0 0 1 1.21-2.34q.67-.86 1.58-1.5a6 6 0 0 1 4.52-1q1.03.2 1.88.77a9 9 0 0 1 2.25 2.04q.2.26.39.52c.42.69.38.97-.07 1.37q-.15.14-.31.27c-.37.25-.85.14-1.2-.26-.51-.58-.99-1.16-1.47-1.6a4 4 0 0 0-1.5-.91 3.7 3.7 0 0 0-2.59.28l-.03-.06zM260.86 292.57q-.6.38-1.1 1.01-.23.32-.44.68c-.17.32-.16.26-.21.36a.4.4 0 0 0-.02.33l.04.02q.1.05.29.12h.04l.13.03.3.04.59.09q1.18.16 2.37.27c.74.07 1.48.04 2.2.06h1.42q.35-.03.7.05c.23.03.48.18.72.26.3.14.27.18.03.43l-.49.6q-.16.17-.34.27l-.19.12-.2.05c-1.97.39-3.94.3-5.9 0q-.71-.11-1.43-.15l-.57-.04-.59-.06-.3-.04-.24-.09q-.25-.08-.48-.18c-.27-.13-.48-.5-.52-.84-.07-.45.03-.97.18-1.48q.13-.37.29-.75c.1-.23.17-.35.27-.53q.53-.98 1.36-1.77a5.5 5.5 0 0 1 2.45-1.37 5.7 5.7 0 0 1 4.05.67 9 9 0 0 1 2.9 2.48c.46.75.42 1.15-.1 1.5q-.16.1-.34.2c-.43.15-.84.02-1.14-.32-.93-1.07-2.05-2.04-3.23-2.34-.93-.23-1.74-.17-2.5.36l-.03-.04z"/><path fill="#12111f" d="m252.81 301.41-13.28.05-4.85.08h-14.96l-.53-.01-.68-.03c-.54-.08-.82-.28-1.17-.42a50 50 0 0 1-5.73-3.15 3 3 0 0 1-.83-.82l-.19-.35-.08-.16c-.01-.08.08-.1.11-.14.4-.24.84-.62 2.13-.72q.9-.09 1.9-.12l.98-.02h.68q1.23.01 2.44.07c.81.04 1.62.06 2.43.22q.74.23.71.3c-.01.05-.26.1-.68.3-.84.4-2.38.95-4.22 1.24l-.96.14-.1.02h-.05v.02l.01.02s-.03 0 .05.03l.32.18 1.3.67c.41.21.88.44 1.23.59l.03.01-.01.07-.08.35-.1.5.2-.91h.29l.71.01 1.5.03 3.02.07c3.97.1 8.1-.1 12.15-.14l13.39-.12 8.23-.06c4.16-.05 8.34-.06 12.47-.14q1.64-.07 3.26-.1l.81-.04.27-.02.2-.01.7-.06.55-.06.23-.03c.04-.01-.06-.08-.09-.1l-.14-.1c-.27-.2-.56-.35-.75-.48a4 4 0 0 1-.44-.34l-.36-.31-.37-.36a2 2 0 0 1-.6-1.26c-.02-.2-.08-.4-.06-.57q.06-.38.85-.23.39.08.89.32l.53.28c.2.11.33.17.7.43q.6.4 1.18.82l1.07.86c.37.28.77.58 1.03.85.27.28.4.52.5.74.11.22.13.4.14.58v.15c-.01.07-.08.07-.12.11l-.28.18-1.1.74-12.96.26-13.4.16v-.05z"/><path fill="#12111f" d="m134.13 257.13-2.7 1.79c-.34.21-.63.48-.97.7q-1.75 1.14-3.47 2.3-.77.52-1.5 1.1c-.61.48-1.2 1-1.92 1.36-.21.12-.35-.1-.34-.45s.13-.8.47-1.11a24 24 0 0 1 3.78-2.97c.83-.5 1.57-1.2 2.36-1.79l2.62-1.94 1.61-1.18c.8-.61 1.66-1.18 2.43-1.82.6-.5 1.13-1.07 1.68-1.6l.36-.37c.5-.39.75-.4 1.16-.11q.15.09.27.2c.28.24.27.64 0 1.04-.86 1.14-2 2.06-3.15 2.97-.84.68-1.76 1.28-2.66 1.9l-.03-.03" opacity=".55"/><path fill="#12111f" d="m112.8 292.43-2.13 1.55-.75.6q-1.38.97-2.74 1.99l-1.17.93c-.5.4-.98.82-1.53 1.15-.18.1-.25-.03-.22-.26.03-.22.15-.57.4-.82l1.43-1.35q.75-.6 1.56-1.18c.64-.45 1.24-1.02 1.86-1.52l2.06-1.65 1.28-1.02q.97-.77 1.9-1.55c.48-.42.9-.89 1.35-1.33q.14-.15.3-.3c.37-.35.55-.4.86-.2q.11.07.2.14c.22.17.2.47-.05.78-.71.9-1.6 1.67-2.5 2.44-.68.56-1.4 1.07-2.1 1.62l-.02-.03zM126.3 292.65l-2.43 1.74q-.43.34-.86.67-1.57 1.1-3.13 2.23-.69.5-1.33 1.06-.82.73-1.77 1.27c-.2.12-.27-.03-.24-.29.04-.25.17-.65.46-.96.5-.56 1.1-1 1.67-1.46q.87-.69 1.8-1.33c.74-.5 1.42-1.13 2.13-1.7q1.18-.93 2.38-1.83l1.47-1.13c.74-.57 1.5-1.14 2.2-1.74q.79-.72 1.55-1.48.17-.17.34-.33c.44-.39.64-.43.97-.23l.23.15c.22.18.18.52-.1.85-.83 1-1.85 1.88-2.91 2.7q-1.2.94-2.4 1.84zM224.75 231.85c-.03.3 3.46.23 3.92-2.3.47-2.52 2.23 1.32 1.52 2.26-.7.95-4.43 4.56-4.43 4.56zM236.52 219.73l2.6-3.3s1.9 1.08 1.1 2.13l-1.92 2.53zM246.83 206.4c.32-.18 5.23-4.88 5.8-5.57s-3.66 7.46-3.66 7.46z"/><path fill="#12111f" d="M322.52 153.32c-3.32-1.13-4.33-1.7-4.33-1.7s-5.66 7.85-9.34 8.42c-10.67 1.67-27.65-6.63-27.65-6.63s-19.56-9.53-23.89-9.66c-4.32-.14-8.05-1.25-8.12.76-.09 2.01 5.8 5.93 5.8 5.93s7.21 1.47 8.25 2.33c1.06.85 5.45 4.2 3.7 4.12-1.74-.06-12.25.45-13.28.99s-10.88 8.02-11.51 8.4c-.62.4-6.92 8.07-6.67 8.96.24.9 5.83 2.2 5.83 2.2s-3.5 5.34-4.09 7.55c-.59 2.22-.52 4.72 1.78 4.37 2.3-.36 10.46-6.83 10.46-6.83s9.1-6.88 11.84-7.27c2.73-.38-9.24 6.7-11.33 10.49s-5.34 10.15-4.29 11.71 4.73 1.64 7.74-1.66 7-8.96 10.1-10c3.1-1.02 7.59-2.54 13.05-1.24 5.45 1.3 8.76.57 8.7 3.77-.05 3.2-3.44 9.1-6.64 12.47-3.21 3.36-8.37 8.3-7.93 11.92s-.02 7.15 2.65 6.5 6.26-5.19 6.26-5.19 4.63-6.2 6.98-7.54c2.34-1.35 19.6-8.11 19.6-8.11l7.33-5.66 10.58-12.86 8.98-6.97s-7.22-18.43-10.54-19.58zm-5.71 12.01c-1.29.42-3.23-.61-2.89-2.22.34-1.6 1.7-2.14 1.7-2.14s2-.86 2.99.7c.98 1.56-.5 3.25-1.8 3.67m5.95 11.1c-1.94-.37-3.26-2.04-2.51-2.97.74-.93 3.31-1.72 3.31-1.72.04 0 .81.09 1.12 2.37.31 2.34.01 2.66-1.92 2.3z" opacity=".15"/><path fill="#12111f" d="M327.37 135.05s-13.03 12.51-12.43 14.22 7.61 3.59 11 8.2c3.39 4.62 9.3 14.1 9.6 18.37.3 4.26-.16 7.92 2.57 6.84s14.8-7.44 16.08-9.98-8.7-5.52-6.89-9.4c1.8-3.87-.62-13.68-5.35-13.21s-7.74-3.36-6-7.36-8.58-7.68-8.58-7.68"/><path fill="#12111f" d="M329.06 165.92q-.46-1.01-1.03-2-.55-.98-1.18-1.91c-.28-.47-.66-.88-.97-1.33a37 37 0 0 0-3.8-4.43c-.62-.62-1.3-1.18-1.94-1.74q-1.32-1-2.62-2.06c-.27-.23-.21-.23.06-.12.28.1.82.3 1.4.6a26 26 0 0 1 5.36 4.36l1.42 1.57q.71.79 1.38 1.64c.5.6.9 1.27 1.37 1.9q.64 1 1.22 2.02l.68 1.28q.3.65.6 1.31c.32.66.53 1.36.8 2.04.25.69.44 1.4.68 2.07q.2.82.46 1.63.19.81.35 1.64.09.36.11.73c.1.92-.02 1.23-.31 1.43q-.1.09-.2.14c-.23.1-.47-.26-.64-.89-.18-.94-.47-1.88-.72-2.83l-.37-1.44-.45-1.44q-.35-1.05-.76-2.1c-.32-.68-.59-1.38-.94-2.05z"/><path fill="#12111f" d="M327.84 176.32c.38.58 3.78 7.78 5.45 6.53 1.66-1.26-.22-9.94-.22-9.94l-5.22 3.4M306.57 154.59q.12-.3.11-.63-.02-.12-.05-.24-.05-.45-.33-.86-.15-.16-.31-.3-.22-.14-.45-.33-.05-.08.08-.23c.09-.09.25-.2.39-.17.5.05.93.38 1.16.8.14.26.35.48.47.76q.2.46.21.96.02.3-.04.6-.09.44-.24.86c-.06.22-.07.48-.16.71l-.08.14c-.13.16-.26.13-.53-.06l-.18-.14a1 1 0 0 1-.36-.5l-.06-.28q0-.1.03-.2.04-.19.12-.35.12-.26.18-.55h.04M316.58 163.93q.26-.2.43-.5c.04-.06.03-.15.06-.23q.2-.42.19-.95-.02-.22-.13-.42c-.1-.17-.24-.29-.27-.51 0-.07.2-.25.43-.37.23-.14.54-.2.66-.08.4.42.69 1 .6 1.6-.07.35 0 .7-.07 1.05a3 3 0 0 1-.45 1.05q-.2.3-.43.53c-.23.26-.52.44-.79.63-.2.16-.39.37-.63.52q-.08.06-.15.1c-.21.1-.32 0-.44-.4l-.08-.28c-.07-.31-.06-.58 0-.7.2-.36.37-.52.57-.7.13-.14.33-.22.46-.37l.04.02M324.23 173.6a3 3 0 0 1-.32 1.35q-.1.24-.24.44c-.38.44-.87.71-1.36.87q-.32.12-.66.17c-.27.05-.6.05-.84-.12-.08-.06-.01-.2.1-.34s.23-.3.32-.32c.37-.08.66-.25 1.01-.42.22-.1.3-.36.4-.55q.2-.3.22-.72.01-.25-.04-.5a2 2 0 0 0-.32-.74c-.13-.17-.34-.26-.53-.34l-.12-.04c-.14-.08-.13-.18.03-.52l.11-.23q.21-.4.53-.4c.6.1 1.1.53 1.4 1.06.22.4.32.88.34 1.35zM325.82 194.1q.19-.26.28-.56c.03-.08.01-.16.04-.23.06-.26.14-.56.11-.86q-.02-.2-.1-.38c-.07-.16-.17-.29-.2-.46q0-.1.2-.17c.14-.04.32-.04.41.04.3.32.53.73.54 1.17q.05.4.05.8a3 3 0 0 1-.38 1.31q-.19.37-.42.68c-.12.16-.2.37-.32.55q-.04.06-.1.1c-.14.1-.24.08-.43-.14l-.12-.15c-.13-.17-.2-.36-.18-.48.04-.36.15-.54.27-.77q.18-.2.33-.47h.03zM317.32 144.48c.64-.53 1.24-1.12 1.88-1.68q.33-.31.65-.66c.81-.73 1.58-1.5 2.41-2.24q.53-.5 1.05-1.02.67-.65 1.46-1.19c.16-.1.14-.08.07.07s-.2.46-.37.77c-.31.58-.68 1.08-1.06 1.58s-.77 1-1.25 1.43c-.56.52-1.03 1.17-1.56 1.75q-.87.96-1.83 1.84-.58.55-1.2 1.07c-.6.54-1.27 1.02-1.9 1.53-.5.38-.97.81-1.52 1.15q-.17.13-.36.23c-.48.22-.69.18-.92-.09q-.08-.09-.15-.19c-.14-.23-.05-.53.2-.77q.32-.26.6-.53l.6-.53 1.3-.97c.62-.51 1.28-1.02 1.88-1.6l.03.04zM269.43 210.37a6 6 0 0 0-.41-1.5q-.14-.26-.29-.5a6 6 0 0 0-1.16-1.82c-.22-.25-.47-.44-.71-.66q-.5-.38-1-.8-.14-.13.08-.15c.14-.02.39-.04.64.03q.67.22 1.29.54.6.39 1.05.93c.36.43.82.82 1.16 1.3.33.56.63 1.14.8 1.76q.18.58.27 1.16.13.9.08 1.77c0 .46.06.92.04 1.38q0 .15-.03.3c-.08.36-.23.45-.65.4q-.15 0-.3-.02c-.31-.06-.54-.27-.6-.53-.17-.75-.16-1.42-.2-2.08q.02-.75-.1-1.5zM225.02 235q-.09-.51-.2-1.03-.06-.18-.1-.36-.11-.68-.3-1.33a4 4 0 0 0-.2-.56 2 2 0 0 1-.22-.73q0-.13.18-.1c.12.03.3.08.4.2.22.19.3.44.43.68q.16.36.27.76c.08.31.25.6.36.91q.16.52.3 1.05.07.33.15.64.11.5.25.97c.08.25.22.48.33.71l.08.15c.07.2 0 .29-.28.4l-.2.07q-.38.1-.55-.1a3 3 0 0 1-.5-1.3l-.22-1.02h.03zM249.24 252.24q-.92.62-1.98 1.02c-.26.09-.5.22-.77.27a6.4 6.4 0 0 1-2.84-.07c-.4-.1-.8-.19-1.17-.36a4 4 0 0 1-1.31-.84q-.17-.16.1-.14c.15.01.41.03.68.1.47.17.95.22 1.4.32q.7.14 1.4.2c.58.04 1.14-.15 1.7-.32q.91-.3 1.76-.84.52-.33.99-.73.74-.61 1.4-1.3.5-.55.93-1.15l.2-.26c.28-.3.42-.35.68-.22l.17.08c.18.12.2.36.03.62q-.7 1.15-1.7 2.2c-.47.53-1.05.98-1.65 1.43l-.02-.02M238.12 220.26l-6.86 9.94s-.4-.34-.87-.94l7.16-8.98.56-.02M239.5 190.6c-.74.1-1.63 0-2.4-.4q-.28-.14-.53-.33c-.14-.13-.35-.24-.51-.46-.15-.22-.34-.4-.45-.63q-.16-.36-.25-.72c-.17-.98.03-1.63.2-2.28q.3-.94.69-1.74a31 31 0 0 1 3.87-5.71 53 53 0 0 1 3.27-3.7 47 47 0 0 1 6.69-5.56q1.8-1.24 3.8-2.2a17 17 0 0 1 4.23-1.34q3.8-.74 7.61-.96a34 34 0 0 1 4.9.06q.62.05 1.23.13.6.12 1.22.26c.8.21 1.6.42 2.34.82.87.62.78.4-.1.4-.44 0-1.06.07-1.78.12q-.56.03-1.17.1l-.63.06c-.21-.02-.43 0-.66-.02-1.58-.05-3.17.02-4.76.12q-2.4.1-4.77.43c-1.57.2-3.16.48-4.64.89-1.4.4-2.83 1.08-4.2 1.88-3.3 1.94-6.24 4.8-8.94 7.68a43 43 0 0 0-4.09 5.07c-.6.89-1.16 1.81-1.6 2.75-.2.46-.39.94-.48 1.4q-.09.32-.1.63.03.26.08.42.06.1.14.18c.06.04.17.16.27.2q.15.1.3.16.17.07.34.09a3 3 0 0 0 1.6-.24 13 13 0 0 0 3.23-2.07 58 58 0 0 0 4.41-4.28c.72-.74 1.43-1.5 2.22-2.24a13 13 0 0 1 2.7-1.8 46 46 0 0 1 9-3.55q1.01-.28 2.07-.51c1.32-.25 2.22-.31 2.86-.24q.47.06.77.18.31.16.51.38c.13.13.29.26.36.38.19.43-.82.72-2.6 1.04a50 50 0 0 0-11.9 4.15q-.47.25-.9.51l-.43.26-.4.28c-.28.2-.45.35-.71.6q-.37.35-.75.74c-1.5 1.56-3.02 3.26-4.71 4.83-.86.78-1.75 1.55-2.76 2.24a9 9 0 0 1-3.67 1.58z"/><path fill="#12111f" d="M243.4 163.76q2.86-2.32 5.89-4.43c.74-.5 1.45-1.06 2.23-1.54q.51-.31 1.09-.61l.3-.15.38-.14.63-.16q1.24-.28 2.44-.4c1.6-.17 3.19-.2 4.76-.2q2.1 0 4.18.08c1.77.06 3.58.13 5.3.81.52.25.42.29-.08.43-.5.17-1.37.46-2.36.52-1.77.06-3.53.03-5.3.11-1.76.03-3.53.03-5.29.12q-1.6.08-3.07.5c-.23.08-.51.16-.64.23q-.3.16-.64.36l-1.35.87a88 88 0 0 0-9.28 7.11 38 38 0 0 0-4.7 4.78q-.65.84-1.1 1.73-.22.46-.36.88c-.1.28-.11.58-.1.71q.03.2.17.32c.1.1.35.23.6.33.47.18.84.24 1.08.34s.4.26.6.5q.14.16.28.33.23.28-.2.65c-.29.22-.82.38-1.48.33-.6-.05-1.22-.2-1.83-.57q-.46-.25-.9-.81a3 3 0 0 1-.47-1.3q0-.38.03-.7l.11-.57c.1-.34.22-.7.37-.98.27-.61.6-1.12.94-1.64q1.05-1.48 2.26-2.77a62 62 0 0 1 5.48-5.09l.03.04zM284.65 156.48c-4.6-1.94-9.03-4.15-13.46-6.32-1.61-.8-3.25-1.53-4.86-2.28a62 62 0 0 0-4.27-1.88c-.72-.26-1.38-.49-2.14-.66q-1.12-.26-2.25-.44c-1.5-.23-3.04-.35-4.53-.28q-1.14.04-2.19.27c-.15.03-.38.1-.47.11q-.13.04-.25.1-.27.07-.46.3a.3.3 0 0 0-.07.27q.05.14.12.25c.16.36 1.16 1.2 2.16 1.65 1 .5 2.1.88 3.23 1.24 1.68.52 3.42.98 5.16 1.62q1.3.47 2.57 1.19.62.36 1.18.87c.35.35.76.68.94 1.2q.13.49.11.72 0 .23-.03.23c-.08.02-.22-.25-.73-.43-.94-.43-2.44-.68-4.27-1.3-1.98-.64-4.14-1.08-6.3-1.83-1.1-.36-2.2-.78-3.32-1.37q-.84-.43-1.65-1.09-.2-.16-.4-.35a4 4 0 0 1-.51-.56c-.37-.4-.61-.85-.86-1.3-.07-.3-.19-.59-.22-.89q-.02-.46.15-.9.35-.87 1.22-1.4.42-.26.91-.43c.3-.13.7-.23.86-.27q.64-.15 1.25-.22a20 20 0 0 1 4.7.06 39 39 0 0 1 5.15 1q.88.24 1.71.54c2.2.81 4.3 1.75 6.35 2.73 4.5 2.17 8.9 4.4 13.42 6.42 2.78 1.24 5.58 2.41 8.44 3.39 2.16.75 4.36 1.41 6.6 1.88 2.22.48 4.48.77 6.7.66a13 13 0 0 0 4.86-1.14 17 17 0 0 0 4.03-2.92c.54-.5 1-1.07 1.5-1.62 1.78-2.12 2.3-2.78 3.2-2.98.2-.05.4-.14.57-.15.52-.07.44 1.32-.8 3.22a21 21 0 0 1-3.33 3.82 17 17 0 0 1-4.46 2.96c-3.5 1.43-7.23 1.34-10.66.82-5.15-.79-9.95-2.55-14.61-4.45z"/><path fill="#12111f" d="M317.9 142.3q1.51-.95 2.94-2c.37-.24.65-.56 1-.81 1.19-.92 2.32-1.93 3.26-3.12q.32-.4.57-.84.29-.41.5-.87c.41-.76.76-1.54 1.4-2.23.19-.22.2-.18.27.1l.2.97.04.22-.03.2c-.1.46-.28.9-.44 1.35a10 10 0 0 1-.68 1.25q-.35.62-.81 1.18-.44.57-.95 1.07-.59.62-1.18 1.26-.6.66-1.23 1.23c-.93.85-1.97 1.55-3 2.25l-1.88 1.26c-.95.64-1.91 1.25-2.79 1.95-.69.54-1.25 1.2-1.85 1.8q-.2.2-.4.41c-.5.47-.77.52-1.24.21l-.33-.2c-.34-.27-.34-.72-.03-1.17a14 14 0 0 1 3.6-3.42c1-.73 2.04-1.38 3.04-2.07l.03.04zM349.46 177.3q-1.51 1.03-3.07 2c-.38.23-.73.51-1.12.73-1.34.8-2.79 1.5-4.25 2.1q-.97.43-1.96.79l-.65.22-.66.14q-.68.13-1.38-.01c-.28-.05-.25-.15-.05-.37l.41-.43q.12-.15.26-.26.15-.1.31-.18c.76-.38 1.55-.6 2.32-.97q1.14-.52 2.33-1.09c.95-.45 1.81-1.14 2.73-1.74a87 87 0 0 0 4.72-3.36c.87-.7 1.76-1.4 2.55-2.17.61-.6 1.11-1.3 1.64-1.97q.16-.23.34-.45c.46-.53.7-.6 1.24-.3l.36.2c.38.27.44.74.17 1.2a15 15 0 0 1-3.27 3.64q-1.42 1.2-2.93 2.28l-.02-.04zM308.63 156.14a3.1 3.1 0 0 1-3.11.76c-.36-.1-.72-.2-1.03-.43a3 3 0 0 1-1.1-1.57q-.23-.91.02-1.74.2-.74.67-1.31c.21-.24.45-.48.78-.56q.49-.14.95-.01c.19.06.13.17-.01.3a3 3 0 0 0-.46.57c-.1.17-.2.28-.3.43q-.13.22-.2.48-.14.52-.06 1.06c.08.45.4.75.78.9.43.21.98.22 1.36 0q.38-.22.56-.68c.17-.44.14-.98-.2-1.27-.25-.24-.68-.2-.94-.13l-.16.08c-.17.06-.24-.08-.6-.57l-.25-.32a.8.8 0 0 1-.2-.58c.02-.2.14-.42.37-.56.68-.4 1.56-.47 2.32-.14.75.3 1.47 1.04 1.73 1.92a3.5 3.5 0 0 1-.87 3.4zM318.2 165.98a3.7 3.7 0 0 1-3.42-.04l-.55-.34-.46-.45a3.6 3.6 0 0 1 .03-3.78q.38-.69.96-1.2c.48-.44 1.22-.78 1.87-.53.2.08.14.12-.02.23-.17.12-.4.33-.6.47-.4.26-.66.68-.85 1.12s-.38.9-.46 1.35q-.03.2 0 .4t.11.37.2.3q.1.13.24.23c.35.32 1 .46 1.55.3.34-.09.65-.29.8-.56.09-.1.1-.22.17-.33 0-.13.05-.25.04-.4q.02-.44-.2-.77c-.23-.35-.71-.46-1.06-.51h-.24c-.27-.03-.33-.14-.55-.63l-.16-.33c-.17-.35-.03-.78.5-.96a2.8 2.8 0 0 1 2.38.36 3.3 3.3 0 0 1 1.43 2.25c.03.32.1.63.02.99q-.03.26-.1.5-.08.25-.2.51a3.3 3.3 0 0 1-1.41 1.48zM325.53 175.54a3.3 3.3 0 0 1-2.66 1.82c-.37.04-.75.06-1.13-.04a2.7 2.7 0 0 1-1.56-1.14 3.1 3.1 0 0 1-.15-3.14q.24-.43.62-.72.44-.25.91-.23c.2.01.17.08.06.22s-.24.47-.31.71c-.55.63-.52 1.38-.2 2.1q.17.31.47.44.3.1.64.12c.49.03 1.02-.19 1.3-.56.17-.23.28-.55.28-.88 0-.5-.22-1-.63-1.22-.33-.17-.76-.08-1.05.07q-.08.06-.17.12c-.2.1-.3 0-.72-.45l-.29-.3c-.33-.34-.4-.83 0-1.16 1.18-.98 3.25-.77 4.35.75.74 1.1.76 2.4.28 3.5zM327.74 195.86c-.81.75-2 1.14-3.07.81a2.5 2.5 0 0 1-1.1-.54 3 3 0 0 1-.85-1.7 4 4 0 0 1 .1-1.65q.17-.69.48-1.3c.24-.53.67-.99 1.2-1.24.16-.08.23.06.23.28s0 .55-.1.8q-.62 1.25-.6 2.51c.02.52.4.9.69 1.01.33.15.87.13 1.28-.12.26-.16.5-.42.64-.72.22-.45.26-.99-.02-1.4-.21-.33-.64-.47-.96-.52h-.22c-.24-.04-.27-.17-.34-.77l-.06-.4c-.06-.45.15-.87.65-.93.72-.07 1.48.17 2.06.67.58.49 1.01 1.22 1.14 2.06a3.8 3.8 0 0 1-1.1 3.18zM265.43 205.27q-1.25-.92-2.51-1.8c-.31-.23-.66-.39-.96-.6l-3.33-2.27q-.76-.47-1.53-.9-1-.54-1.94-1.2c-.19-.16-.12-.21.11-.24a3 3 0 0 1 1.09.07q.57.16 1.13.34.56.22 1.08.45c.71.32 1.43.65 2.09 1.09.78.53 1.68.92 2.52 1.4q1.38.78 2.7 1.68l1.61 1.11c.82.57 1.6 1.19 2.4 1.78.63.47 1.3.85 1.94 1.43.14.15.29.26.4.44.45.66.38 1.2-.17 1.38a1 1 0 0 1-.35.09c-.2.01-.4-.06-.56-.08q-.1 0-.21-.04a.4.4 0 0 1-.18-.08 31 31 0 0 1-1.33-.98l-1.55-1.2q-1.2-.92-2.47-1.82zM245.61 253.41c.6-.34 1.24-.86 1.86-1.38a36 36 0 0 0 1.84-1.7 77 77 0 0 0 3.53-3.7c.84-.92 1.61-1.91 2.44-2.86 2.93-3.3 5.82-6.7 8.55-10.19q1.83-2.35 3.52-4.75c.73-1.02 1.4-2.09 2.16-3.1l1.11-1.5q.28-.39.61-.73.31-.35.64-.7c.56-.58.47-.53.4.2q-.1.64-.2 1.5-.2.91-.71 1.9a78 78 0 0 1-9 12.7c-2.05 2.36-3.92 5.02-6.03 7.42a78 78 0 0 1-7.4 7.63 21 21 0 0 1-1.7 1.3l-.43.26q-.26.15-.54.25c-.19.06-.36.2-.56.16-.4.06-.77-.13-1.13-.28l-.28-.13-.2-.1-.37-.2-1.4-.87c-2.78-1.8-5.4-3.8-7.98-5.77-2-1.53-4.03-2.99-5.96-4.6q-.65-.5-1.27-1.06a7 7 0 0 1-1.48-1.65 1.7 1.7 0 0 1-.16-1.2c.04-.17.06-.37.12-.51q.19-.36.8-.17c.4.12.95.39 1.51.85 3.43 2.72 7.01 5.6 10.74 8.34q2.07 1.54 4.2 2.97a45 45 0 0 0 2.62 1.61l.03.03q0 .02.08-.03zM227.88 223.63c.16-.53.38-1 .68-1.54a7 7 0 0 1 1.08-1.3c.28-.28.56-.58.9-.8a7 7 0 0 1 3.88-1.08q.89.01 1.72.1.28.03.54.1.27.06.51.17.52.16.92.6c.17.17.06.31-.2.51q-.2.16-.5.35-.28.18-.54.2l-.47.04-.22.04h-.21c-.29-.04-.57 0-.84-.02-.27.03-.54.02-.81.06q-.42 0-.85.02c-.7.03-1.31.48-1.84.9-.61.47-1.14 1.01-1.44 1.74-.2.46-.38.94-.44 1.43-.12.76-.1 1.55.17 2.25.2.55.62.98 1.04 1.34l.3.21c.34.28.3.54.09 1l-.15.33c-.17.34-.57.5-1.06.34a5 5 0 0 1-2.53-3.62c-.2-1.14-.1-2.3.2-3.37l.06.02zM237.64 210.5q.13-.45.33-.87c.16-.29.33-.6.53-.83.39-.5.83-.86 1.29-1.2.33-.24.65-.5 1-.67a9 9 0 0 1 4-.87c.6.02 1.2 0 1.8.1.73.11 1.55.2 2.06.9.18.16.07.3-.2.46l-.52.34q-.15.1-.3.14l-.15.06h-.13a21 21 0 0 0-3.7-.1c-.78.06-1.5.46-2.15.85-.73.43-1.38 1-1.7 1.65q-.3.67-.37 1.5c-.04.8.03 1.67.31 2.46.22.62.62 1.15 1.01 1.61q.15.14.28.28c.3.38.3.55-.03 1.04l-.22.32c-.26.35-.7.43-1.12.13a6 6 0 0 1-2.16-3.84 8 8 0 0 1 .1-3.48h.05z"/><path fill="#12111f" d="M271.74 219.75c-.31-.31-.67-.59-.9-.96l-.36-.53-.27-.57c-.2-.38-.27-.78-.4-1.17q-.11-.57-.2-1.16a13 13 0 0 1 .42-4.37q.52-2.09 1.53-4 .26-.47.57-.96.34-.5.68-.9.68-.81 1.37-1.53c1.85-1.95 3.7-3.8 5.41-5.75 1.7-1.93 3.36-3.98 4.28-6.15.32-.78.51-1.59.44-2.26a2 2 0 0 0-.26-.85c-.14-.23-.41-.47-.71-.7-1.3-.9-3.14-1.44-4.92-1.82-3-.62-6.14-.82-9.2-.58-1.52.14-3.05.38-4.4.88a7 7 0 0 0-1.87 1q-.9.64-1.75 1.45c-2.25 2.13-4.28 4.6-6.51 6.94-1.14 1.17-2.28 2.34-3.7 3.31a6 6 0 0 1-2.54 1.09c-.5.04-1.06.05-1.57-.17-.26-.07-.48-.22-.7-.35-.23-.15-.4-.32-.6-.5a3 3 0 0 1-.69-1.57 6 6 0 0 1 0-1.44c.2-1.65.7-3.12 1.27-4.57a41 41 0 0 1 1.98-4.18 38 38 0 0 1 5.28-7.55c.68-.73 1.4-1.42 2.25-2.04s1.7-1.08 2.58-1.55a30 30 0 0 1 11.35-3.22c1.96-.15 3.93-.06 5.86.17 1.2.18 1.71.33 1.68.4-.05.07-.65.08-1.66.2-2.05.15-5.69 1-9.77 2.13a29 29 0 0 0-7.37 2.96l-.84.5q-.37.25-.73.53-.73.56-1.41 1.26a27 27 0 0 0-2.55 3.03 41 41 0 0 0-4.1 6.97 25 25 0 0 0-1.38 3.7c-.16.62-.3 1.24-.33 1.8v.38c.01.1 0 .24.03.32.03.2.09.26.09.28q.34.34.69.4a2 2 0 0 0 1-.18c.8-.34 1.66-.97 2.46-1.69 1.63-1.44 3.14-3.15 4.7-4.84 1.61-1.74 3.21-3.56 5.2-5.19.96-.8 2.23-1.54 3.48-1.9 1.25-.41 2.5-.64 3.76-.8a35 35 0 0 1 11.25.61c1.24.3 2.47.66 3.67 1.25.65.32 1.31.7 1.92 1.27q.47.42.8 1.05l.17.32.1.3q.11.31.16.63a6 6 0 0 1-.13 2.4 10 10 0 0 1-.78 2.06c-1.3 2.56-3.08 4.65-4.88 6.65-1.81 2-3.76 3.87-5.53 5.78-.44.48-.87.98-1.2 1.44q-.5.76-.9 1.63a16 16 0 0 0-1.16 3.6 10 10 0 0 0-.2 2.27c0 .75.17 1.46.43 2.1q.4.98 1.26 1.53c.31.22.48.29.71.29q.36-.01.8-.25a7 7 0 0 0 1.67-1.42q.76-.88 1.44-1.87t1.27-2.03c.4-.7.73-1.4 1.23-2.18 1.51-2.24 3.65-3.79 5.8-5.12a57 57 0 0 1 6.74-3.4c2.3-1 4.62-1.9 6.93-2.81 2.29-.92 4.63-1.8 6.7-2.92.78-.42 1.5-1.04 2.26-1.59.75-.56 1.42-1.2 2.13-1.81a55 55 0 0 0 3.88-4.05c2.47-2.82 4.72-5.83 7.2-8.76a60 60 0 0 1 3.39-3.77 26 26 0 0 1 5.28-4.29 10 10 0 0 1 1.66-.78q.71-.2 1.26-.22c.34-.01.77-.07 1-.02.37.09.05.53-.8 1.24l-.75.58-.9.74c-.68.5-1.4 1.16-2.25 1.87-4.94 4.33-8.79 10.11-13.6 15.48-.59.68-1.24 1.32-1.86 1.99q-.96.96-1.99 1.9c-.7.6-1.38 1.23-2.14 1.79l-1.12.84-.58.41q-.34.23-.66.41c-1.73.98-3.4 1.64-5.1 2.32l-5 1.98a100 100 0 0 0-7.21 3.13 30 30 0 0 0-6.4 4.02c-.9.8-1.7 1.68-2.22 2.63a41 41 0 0 1-2.17 3.54 17 17 0 0 1-2.9 3.31 5.3 5.3 0 0 1-2.44 1.23c-.55.1-1.22.03-1.77-.23q-.23-.09-.33-.18l-.28-.18q-.28-.18-.54-.38l.02-.06z"/><path fill="#12111f" d="M328.41 159.23a43 43 0 0 1 4.34 7.16c.44.92.93 1.82 1.3 2.77a35 35 0 0 1 1.55 5.15c.38 1.76.58 3.58.44 5.44a9 9 0 0 1-.54 2.5q-.25.62-.73 1.17-.49.55-1.2.83c-.62.22-1.24.2-1.79.11a5 5 0 0 1-1.53-.53c-.92-.5-1.7-1.16-2.42-1.86-.4-.5-.36-.4.16-.24a28 28 0 0 0 3.8.93q.62.07.98-.08c.4-.15.68-.65.9-1.37.19-.73.24-1.62.21-2.54s-.16-1.85-.26-2.8c-.3-2.3-1.24-4.6-2.2-6.78a41 41 0 0 0-12.4-15.86 27 27 0 0 0-4.88-2.85c-.37-.16-.74-.28-1.1-.46-1.38-.55-1.68-.7-1.9-1.45-.04-.16-.13-.32-.16-.48q-.1-.37.44-.61c.4-.18.92-.15 1.57-.03 1.87.46 3.56 1.3 5.18 2.27q2.41 1.49 4.55 3.38a45 45 0 0 1 5.78 6.17l-.04.05zM242.17 218.3l-5.94 7.4c-.72.91-1.39 1.85-2.11 2.75l-3.83 4.75-1.92 2.37-.95 1.2-1.35 1.72c-.76.75-1.53 1.4-1.74.4q-.16-.28-.22-.79l-.1-1.08-.06-1.05-.07-.66a88 88 0 0 0-.4-3.4 66 66 0 0 0-.45-3.39c-.12-.7-.03-.64.33-.12.37.53 1 1.56 1.39 2.87.3 1.16.5 2.34.7 3.51l.14.88.02.16-.01.1c-.01.09 0-.01.03-.04.01-.04.01 0 .03 0h.03l.07-.08q1.11-1.38 2.26-2.74c1.82-2.16 3.53-4.57 5.3-6.86l5.88-7.55 3.61-4.64c1.82-2.35 3.66-4.69 5.41-7.06 1.36-1.85 2.58-3.74 3.86-5.61q.4-.62.83-1.25a7 7 0 0 1 1.3-1.5c.37-.27.7-.33 1.05-.3q.26 0 .47.03.33.1.25.68c-.03.4-.22.93-.58 1.5a122 122 0 0 1-7.28 10.3c-1.94 2.53-3.93 5.03-5.89 7.55l-.04-.03z"/><path fill="#12111f" d="M252.63 232.4q-1.04.53-2.07 1.1-.36.21-.73.44-1.35.69-2.73 1.34-.6.3-1.19.63c-.5.28-1 .6-1.58.7-.36.07-.4-1.2.14-1.48.99-.52 1.98-1.05 3.04-1.5.65-.26 1.2-.72 1.81-1.08l2.02-1.21 1.26-.73c.63-.37 1.3-.72 1.92-1.1q.7-.48 1.44-.94.15-.1.32-.2c.43-.2.62-.16.86.18l.17.22c.16.28.1.59-.15.82q-1.11 1.03-2.48 1.74l-2.03 1.1zM253.57 224.43q-.94.41-1.86.86-.34.17-.67.35-1.2.53-2.4 1.11-.53.28-1.03.57c-.44.25-.86.52-1.34.7-.14.05-.2-.09-.18-.3s.14-.5.37-.67q.6-.48 1.25-.9.65-.4 1.36-.72c.57-.25 1.1-.63 1.65-.93q.91-.51 1.85-.95l1.15-.57q.88-.43 1.73-.87c.44-.24.84-.54 1.26-.8l.28-.17c.36-.17.52-.14.74.08q.08.07.13.16c.14.18.08.43-.14.65q-.5.48-1.08.84-.57.39-1.2.7l-1.86.9z" opacity=".45"/><path fill="#12111f" d="m117.65 258.65-1.84 1.16c-.22.13-.42.3-.65.43l-2.4 1.4-1.05.63c-.44.28-.88.57-1.38.75-.15.06-.22-.09-.19-.3s.14-.51.38-.7l1.25-.96q.66-.44 1.37-.8c.56-.3 1.07-.74 1.6-1.11l1.74-1.25 1.07-.76q.83-.6 1.58-1.23c.38-.34.7-.74 1.06-1.1l.23-.24c.3-.28.46-.3.74-.14l.18.12c.19.15.2.41.01.68a10 10 0 0 1-1.97 2.11q-.84.69-1.72 1.35l-.02-.02z" opacity=".55"/><path fill="#12111f" d="M168.82 175.16c-.03.25-.32.33-.73.3-.14 0-.44-.2-.47-.28l-.06-.5c0-.1.36-1.38.42-1.83q.12-.66.35-1.24.47-1.2.82-2.4.09-.28.24-.52c.35-.55.54-1.18.65-1.82.02-.1.05-.21 0-.33-.13-.22.29-1.93.42-2.14.32-.51.56-1.04.83-1.58.04-.07.03-.16.16-.22.3-.1.3-.29.35-.46.1-.24.16-.49.35-.7.09-.1.27-.19.42-.28.14-.08.5.06.53.1.1.15.3.1.45.12l.17.04c.03.02.22.43.31.85.1.41.18.85.16.93l-.16 1.13-.19 1.3c0 .12-.1.23-.17.35 0 .06-.34 1.78-.39 1.84-.15.34-.19.71-.53.98q-.09.09-.1.2c-.2.6-.52 1.15-.83 1.7q-.22.44-.4.87-.05.07-.12.14-.08.08-.13.17c-.3.7-.77 1.3-1.09 1.97-.07.16-.7.75-.77.94-.04.1-.48.27-.49.38zM188.72 167.76c.21 0 .16.3-.03.76-.06.15-.35.51-.43.54q-.23.09-.45.1c-.08 0-1.01-.32-1.35-.4q-.48-.13-.87-.38c-.54-.33-1.1-.62-1.64-.97a1 1 0 0 1-.3-.3 3 3 0 0 0-1.08-.96c-.07-.03-.12-.1-.24-.06-.2.06-1.28-.68-1.37-.85-.21-.4-.49-.74-.71-1.14-.03-.06-.1-.06-.07-.2.08-.31-.05-.35-.14-.45a2 2 0 0 1-.32-.47c-.04-.1 0-.28 0-.44.01-.15.31-.46.36-.48.15-.06.22-.27.32-.41l.11-.16a5 5 0 0 1 1.46 0c.03 0 1.36.75 1.52.82.08.04.11.15.16.23.02.05 1.1.62 1.13.66.18.18.43.25.48.6q.02.1.1.13c.35.24.63.58.92.9q.24.24.49.45.03.05.06.12.03.08.08.13c.4.33.71.77 1.16 1.04.1.07.38.64.5.7.07.04.06.47.15.47zM281.48 288.3c-.12.21-.38.21-.69.14-.1-.02-.26-.21-.24-.29l.12-.43c.04-.09.76-1.18.96-1.59.2-.4.48-.72.75-1.04l1.68-1.96q.18-.21.42-.38a6 6 0 0 0 1.43-1.31c.07-.09.16-.15.17-.3a7 7 0 0 1 1.43-1.62c.52-.27 1-.6 1.5-.89.08-.04.11-.13.25-.1.31.1.4-.07.55-.17q.3-.22.66-.36c.13-.04.32 0 .5 0 .16.02.4.36.4.43.02.17.22.25.35.38l.13.13a6 6 0 0 1-.54 1.7c-.02 0-.37.39-.74.78l-.83.91c-.08.1-.22.13-.33.18-.06.03-1.16 1.25-1.22 1.28-.27.2-.47.48-.87.54q-.11.04-.18.11c-.42.41-.93.71-1.42 1.04q-.36.26-.7.56-.06.05-.14.07-.11.04-.19.1c-.54.46-1.13.86-1.66 1.32-.12.1-.87.44-1 .57-.08.07-.5.13-.54.21M276.4 284.05c.21.16 0 .43-.45.75-.15.1-.64.27-.73.23a3 3 0 0 1-.49-.22c-.08-.05-.76-1.06-1.03-1.38a5 5 0 0 1-.6-1q-.51-1.06-1.08-2.08a2 2 0 0 1-.15-.5 4 4 0 0 0-.65-1.67c-.05-.08-.08-.19-.22-.23a6 6 0 0 1-1.01-1.7c-.08-.54-.24-1.06-.35-1.6 0-.07-.08-.12-.02-.25.16-.27.05-.39-.02-.54a3 3 0 0 1-.2-.67c-.01-.12.06-.29.11-.45.05-.15.43-.31.48-.3.16.01.28-.16.42-.26l.16-.1c.08-.04 1.4.73 1.48.86 0 .02.31.42.63.84l.7.98c.09.08.08.22.1.35.02.05.93 1.36.95 1.42.12.3.35.56.27.97q0 .11.06.19c.27.5.43 1.04.58 1.59q.13.4.3.8.01.08.01.17t.02.2c.26.63.38 1.31.68 1.92.08.14.07.94.16 1.1.05.08-.2.52-.11.58"/></svg>