<svg xmlns="http://www.w3.org/2000/svg" width="380" height="380" fill="none">
  <path fill="#12111f" d="M91.786 124.062a18.8 18.8 0 0 0 3.588-2.046 24.6 24.6 0 0 0 3.23-2.718c2.039-1.988 3.807-4.297 5.386-6.731 1.578-2.441 2.952-5.035 4.151-7.709 1.198-2.668 2.236-5.445 2.996-8.222.563-1.965.723-3.99.373-5.897-.337-1.885-1.382-3.58-2.785-3.64-.628-.065-1.381.154-2.104.549-.716.41-1.418.943-2.068 1.564-1.308 1.227-2.463 2.718-3.508 4.267a57 57 0 0 0-2.901 4.875c-.453.833-.87 1.695-1.301 2.543l-.585 1.279-.526 1.3c-1.33 3.508-2.14 7.228-2.287 10.969-.139 3.727.41 7.513 1.98 10.86 1.381 2.952 3.603 5.561 6.504 6.935a11.65 11.65 0 0 0 4.589 1.14c1.586.065 3.179-.205 4.692-.724 1.951-.658 3.771-1.725 5.422-3.018 1.666-1.279 3.179-2.777 4.568-4.399 1.373-1.63 2.674-3.34 3.829-5.152 1.162-1.812 2.251-3.676 3.354-5.547 1.345-2.353 1.242-2.017.599.22-.621 2.236-1.907 6.452-4.954 10.698-1.352 1.863-2.865 3.647-4.604 5.247a21.5 21.5 0 0 1-6.022 3.888l-.847.35-.877.285c-.578.212-1.199.315-1.798.461-1.228.204-2.485.343-3.742.234-.628-.008-1.257-.147-1.878-.234-.614-.161-1.235-.285-1.819-.526-1.199-.41-2.317-1.016-3.34-1.718-1.045-.694-1.936-1.564-2.777-2.462-.796-.936-1.534-1.915-2.126-2.975-1.228-2.09-2.017-4.384-2.478-6.708-.913-4.662-.54-9.412.6-13.892a41.2 41.2 0 0 1 2.908-7.827c1.206-2.484 2.521-4.947 4.085-7.307 1.586-2.331 3.296-4.677 5.89-6.365.307-.22.687-.38 1.03-.57.38-.146.746-.322 1.17-.402a4.6 4.6 0 0 1 2.63.073c.877.285 1.623.848 2.171 1.49.562.644.921 1.374 1.22 2.098 1.213 3.215.819 6.65-.058 9.624-.863 2.974-1.973 5.839-3.26 8.638-1.286 2.791-2.755 5.503-4.479 8.068-1.71 2.565-3.676 4.998-5.963 7.125-2.8 2.616-6.212 4.757-10.048 5.678a18.7 18.7 0 0 1-5.84.482c-1.972-.102-3.923-.68-5.7-1.564-1.373-.643-2.55-1.622-3.638-2.645-.497-.563-1.038-1.082-1.455-1.703-.219-.3-.453-.592-.65-.906l-.57-.95c-1.498-2.565-2.302-5.43-2.719-8.309-.387-2.886-.255-5.839.264-8.652.49-2.836 1.322-5.569 2.309-8.229 1.571-4.121 3.544-8.03 5.977-11.67 1.22-1.812 2.55-3.559 4.078-5.174 1.55-1.586 3.252-3.106 5.46-4.078 1-.394 2.052-.694 3.302-.577l.475.044c.175.036.373.095.548.16.351.154.687.351.943.644.533.54.745 1.432.738 2.097-.015 1.17-.322 2.024-.614 2.792-.307.76-.643 1.403-.98 1.965a14 14 0 0 1-1.972 2.543c-.607.622-1.148 1.045-1.63 1.345a6 6 0 0 1-1.33.585c-.365.11-.81.263-1.037.277-.782.03 1.63-1.644 3.931-5.926.417-.782.767-1.608.972-2.397.102-.395.16-.782.16-1.096 0-.183-.014-.241-.036-.285a.4.4 0 0 0-.08-.14.24.24 0 0 0-.132-.072c-.022-.008-.05-.008-.073-.015h-.19l-.204-.022c-.073 0-.169.022-.256.03-.176.021-.344.021-.526.08-.717.153-1.484.511-2.207.98-1.47.913-2.814 2.235-4.063 3.631a39 39 0 0 0-3.442 4.575 54.2 54.2 0 0 0-5.247 10.398c-1.367 3.647-2.368 7.469-2.587 11.247-.132 2.784.183 5.612 1.045 8.243.183.672.482 1.286.723 1.929.322.6.57 1.243.95 1.798.665 1.177 1.535 2.2 2.478 3.099l.738.643.796.555c.132.088.263.19.402.278l.431.226c.293.146.563.314.863.439.614.212 1.198.497 1.849.606.321.066.635.168.957.219l.986.11.497.059h.512c.336 0 .68.021 1.016.007.672-.059 1.352-.081 2.017-.219.672-.088 1.322-.293 1.98-.453.643-.234 1.293-.424 1.915-.731l.043.058z" opacity=".5"/>
  <path fill="#12111f" d="m156.136 181.225-3.873-1.25-2.901 3.186.044-4.253-3.91-1.359c1.111-.49 3.683-1.462 3.683-1.462s.746-2.587.702-3.939l2.638 2.821s3.581-.277 3.792-.307c-.248.556-2.28 2.953-2.28 2.953s1.228 1.922 2.112 3.61z" opacity=".45"/>
  <path fill="#12111f" d="m236.754 256.032-1.103-3.916-4.26-.651 3.566-2.316-1.038-4.012c1.023.65 3.259 2.258 3.259 2.258s2.565-.811 3.669-1.601l-.892 3.764s2.214 2.828 2.353 2.981c-.599.103-3.719-.263-3.719-.263s-.921 2.09-1.835 3.756"/>
  <path fill="#12111f" d="m327.348 120.556-.943-3.355-3.639-.555 3.047-1.98-.884-3.428c.877.556 2.784 1.93 2.784 1.93s2.192-.695 3.135-1.367l-.76 3.215s1.893 2.419 2.017 2.551c-.512.087-3.179-.227-3.179-.227s-.789 1.783-1.571 3.216z" opacity=".45"/>
  <path fill="#12111f" d="m316.524 104.155-5.225-1.79-3.851 4.385v-5.898l-5.276-1.936c1.483-.665 4.933-1.98 4.933-1.98s.964-3.574.884-5.46l3.588 3.954s4.808-.336 5.093-.38c-.329.775-3.032 4.063-3.032 4.063s1.673 2.689 2.886 5.042M37.655 269.093l-1.6-4.838-5.371-.387 4.333-3.288-1.52-4.955c1.315.716 4.21 2.514 4.21 2.514s3.163-1.286 4.5-2.39l-.898 4.838s2.93 3.347 3.113 3.53c-.745.19-4.67.043-4.67.043s-1.037 2.726-2.09 4.933zm140.717-208.06-5.174.753-1.351 5.357-2.544-4.962-5.276.65c.965-1.198 3.296-3.8 3.296-3.8s-.731-3.427-1.608-4.977l4.721 1.776s3.902-2.36 4.122-2.514c.058.79-.797 4.728-.797 4.728s2.572 1.535 4.611 2.997zm77.966 97.181L223.76 147.04l-10.216-1.191-4.355-4.122-45.162-16.274s-3.756 3.04-2.996 7.403l59.324 21.528s9.785-1.695 17.29 2.69c0 0 6.884 4.194 11.853 3.098s6.847-1.966 6.847-1.966z"/>
  <path fill="#12111f" d="M163.27 127.679c-.285.263-.585.548-.782.928-.088.131-.088.299-.161.438a7.5 7.5 0 0 0-.614 1.725 3 3 0 0 0-.044.847l.029.271c0 .095-.014.182-.021.277-.015.095-.022.183-.074.285a7 7 0 0 1-.189.293c-.095.124-.286.124-.585.051a4 4 0 0 1-.526-.168 2 2 0 0 1-.271-.124.6.6 0 0 1-.146-.154c-.109-.197-.197-.402-.204-.614-.03-.204-.03-.424-.03-.635 0-.424.088-.863.293-1.279.226-.497.233-1.053.438-1.571a6 6 0 0 1 .935-1.586c.227-.3.512-.556.782-.804.424-.373.914-.636 1.36-.914.343-.233.672-.475 1.03-.686.08-.037.153-.095.241-.11.329-.066.475.022.665.395q.068.122.124.233c.11.249.088.592-.051.804-.438.629-.833 1.089-1.271 1.396-.307.256-.614.468-.892.738l-.044-.036z"/>
  <path fill="#12111f" d="M136.434 125.363c-.204-.103-.387-.154-.613-.307a4.5 4.5 0 0 1-.651-.534 4.1 4.1 0 0 1-.855-1.359c-.372-.965-.387-1.893-.307-2.755a8.7 8.7 0 0 1 .651-2.455c.336-.775.76-1.52 1.403-2.2a4.5 4.5 0 0 1 1.198-.921c.475-.255 1.169-.424 1.776-.336 1.06.219 1.63.49 2.353.738 1.367.512 2.704 1.038 4.041 1.571l15.997 6.402c3.895 1.542 7.819 3.011 11.714 4.523 5.956 2.31 11.933 4.56 17.933 6.76 3.004 1.089 6.007 2.178 9.018 3.23l4.523 1.571 4.699 1.601c.088.036.168.08.249.116l.124.059s.066-.007.036.058l.051.044c.074.059.132.124.198.19l.131.249c.066.175.139.358.198.533l.117.336c.16.431.336.833.562 1.199.439.731 1.053 1.308 1.82 1.622.614.27 1.359.358 2.148.417.79.051 1.593.065 2.412.073 1.637.014 3.303.007 5.006.204.84.103 1.732.293 2.543.563l2.331.76q2.333.745 4.655 1.491c3.983 1.249 7.98 2.499 11.97 3.749l5.963 1.965 2.967 1.016c.986.351 1.936.804 2.908 1.191 2.405 1.038 2.025 1.045-.182.716-1.097-.182-2.711-.27-4.56-.701a80 80 0 0 1-6.329-1.586c-3.171-.913-6.306-1.944-9.456-2.938a931 931 0 0 1-9.427-3.069l-1.176-.394-.592-.198-.497-.146c-.68-.175-1.433-.278-2.2-.351-1.556-.131-3.179-.109-4.867-.146-.848-.022-1.71-.044-2.638-.175a30 30 0 0 1-.716-.124c-.256-.073-.519-.132-.76-.227a6 6 0 0 1-1.418-.738c-.891-.621-1.556-1.491-1.995-2.375a10 10 0 0 1-.541-1.308l-.043-.124v-.022l-.015-.037c0-.029-.029-.036-.051-.051-1.747-.599-3.493-1.206-5.247-1.812q-2.75-.987-5.51-1.973c-9.683-3.523-19.767-7.155-29.589-10.962a1597 1597 0 0 1-16.15-6.387l-8.06-3.215c-1.338-.526-2.697-1.06-4.02-1.52-.365-.139-.584-.168-.862-.263-.19-.037-.351 0-.57.117-.424.219-.848.701-1.176 1.227a6.6 6.6 0 0 0-.841 2.207c-.146.768-.139 1.571.103 2.193.116.314.292.57.518.76.052.051.125.087.183.131.073.044.175.073.256.117l.533.234 2.47.972c3.318 1.279 6.658 2.514 9.99 3.749 10.114 3.734 20.286 7.468 30.371 11.049 7.841 2.777 15.58 5.371 23.37 8.016 1.717.578 3.398 1.148 5.122 1.732 6.395 2.215 8.39 3.033 9.559 4.1.27.234.643.497.782.672.489.563-2.28.132-6.994-1.41-14.016-4.494-28.646-9.646-43.305-14.915q-8.155-2.97-16.333-5.941l-8.162-3.026-4.078-1.534-2.039-.782-1.023-.402-.512-.197-.606-.263v-.059z"/>
  <path fill="#12111f" d="M308.516 209.922c-.804 3.983-16.903 19.628-21.069 14.747-4.538-5.32 12.73-24.021 12.73-24.021z" opacity=".25"/>
  <path fill="#12111f" d="M285.042 224.294s9.574-2.002 15.398-6.811c5.824-4.808 15.741-11.027 19.701-25.409 0 0 24.035 19.446 25.789 20.688 1.754 1.25-2.536 7.301-10.793 11.978-8.251 4.677-5.51 6.781-7.162 14.206-1.651 7.424-11.334 11.539-15.463 12.686s-15.507-13.132-20.513-20.016c-5.005-6.876-6.964-7.329-6.964-7.329zm-48.83-121.474c-1.155-.979-2.324-1.929-3.464-2.93-.417-.365-.862-.687-1.272-1.06a443 443 0 0 1-4.333-3.916 85 85 0 0 0-1.951-1.703c-.841-.709-1.615-1.506-2.346-2.331-.226-.263-.139-.293.168-.198.3.103.841.293 1.374.636.979.577 1.842 1.279 2.711 1.98a48 48 0 0 1 2.572 2.164c.994.906 2.156 1.71 3.245 2.557 1.199.928 2.375 1.893 3.552 2.858l2.185 1.761c1.11.877 2.185 1.819 3.303 2.674.869.658 1.754 1.272 2.601 1.951.19.147.373.286.556.439.672.592.811.862.825 1.155 0 .065.015.146 0 .197-.036.183-.416.08-1.015-.212a67 67 0 0 1-2.602-1.476c-.855-.534-1.681-1.133-2.521-1.717-.614-.446-1.242-.877-1.834-1.352l-1.783-1.433.022-.036z"/>
  <path fill="#12111f" d="M239.503 133.885a515 515 0 0 0-14.053 3.347c-2.331.599-4.655 1.191-6.95 1.907l-3.442 1.053c-1.118.365-2.265.723-3.215 1.154-.453.19-.943.541-.87.512-.029.036-.051.102-.043.131v.088c0 .058.014.11.014.161.015.102.015.212.044.307.153.796.636 1.403 1.447 1.9.804.489 1.856.796 2.938 1.001 1.088.204 2.236.299 3.398.343 4.655.132 9.434-.489 14.169-1.176 3.471-.512 6.921-1.14 10.436-1.666 1.775-.249 3.493-.534 5.473-.527 1.995.088 3.895.622 5.627 1.593 3.018 1.718 5.247 4.67 5.97 8.097.176.863.249 1.762.132 2.704-.132.928-.438 1.944-1.228 2.77-.175.204-.431.387-.635.533l-.527.322c-.35.212-.687.446-1.059.628-.366.19-.731.388-1.104.563l-1.147.49a16.6 16.6 0 0 1-4.86 1.067c-1.658.109-3.31-.03-4.91-.329-3.201-.607-6.146-1.783-9.04-2.872-2.894-1.096-5.751-2.171-8.696-2.682a20 20 0 0 0-4.429-.314c-1.461.065-2.937.343-4.392.738-.708.212-1.425.424-2.053.723-.628.285-1.213.658-1.491 1.045-.087.095-.095.183-.153.271 0 .087-.059.168-.029.263-.022.175.08.416.197.672.139.256.329.511.555.767.103.132.227.241.344.358.124.11.234.234.38.336 1.103.87 2.455 1.579 3.822 2.222 1.373.643 2.798 1.22 4.231 1.776 5.108 1.936 10.391 3.522 15.667 5.101a510 510 0 0 1 7.907 2.426c1.316.424 2.631.855 3.939 1.337.658.241 1.308.504 1.966.804.694.329 1.25.672 1.871 1.008a61 61 0 0 1 4.501 2.865c1.462 1.008 2.872 2.039 4.326 2.96 2.88 1.856 6.095 3.2 9.391 4.121 1.651.453 3.354.709 5.057.862 1.71.161 3.427.154 5.13-.014 3.405-.293 6.745-1.308 9.573-3.164a80 80 0 0 1 1.111-.79c.299-.241.54-.431.73-.584.395-.293.6-.402.629-.329.036.073-.11.321-.409.745-.154.205-.329.475-.585.738-.263.263-.563.563-.892.899-.343.329-.767.636-1.227.994-.461.343-1.009.643-1.571 1.001-1.184.607-2.565 1.257-4.166 1.674-3.186.913-7.139 1.205-11.305.54a32 32 0 0 1-5.437-1.344 35 35 0 0 1-5.159-2.163c-1.666-.863-3.245-1.871-4.735-2.88a133 133 0 0 0-4.436-2.901 47 47 0 0 0-2.258-1.322c-.38-.205-.782-.439-1.104-.585-.35-.161-.73-.329-1.125-.482-1.586-.614-3.288-1.155-4.984-1.688-3.398-1.053-6.854-2.047-10.282-3.135-3.434-1.075-6.876-2.178-10.296-3.406a99 99 0 0 1-5.108-1.995c-1.696-.738-3.377-1.498-5.028-2.557-.811-.512-1.688-1.177-2.397-2.039a5.4 5.4 0 0 1-.504-.695c-.168-.226-.307-.548-.439-.84-.234-.636-.38-1.483-.095-2.28a3.8 3.8 0 0 1 1.25-1.695c.482-.388.965-.643 1.44-.87.95-.431 1.878-.694 2.806-.928 1.819-.417 3.734-.775 5.663-.753 1.922 0 3.822.256 5.649.695 4.385 1.037 8.382 2.945 12.467 4.253 2.039.643 4.107 1.147 6.175 1.227 2.068.125 4.121-.241 6.043-.986.95-.402 1.893-.848 2.77-1.433l.336-.211c.102-.066.256-.154.285-.19a1.4 1.4 0 0 0 .336-.351c.198-.278.336-.658.41-1.089.153-.855.029-1.849-.249-2.784a9.9 9.9 0 0 0-1.286-2.682 10 10 0 0 0-4.597-3.691 10.4 10.4 0 0 0-2.908-.679c-.914-.088-2.01.036-3.077.153-2.36.285-4.757.702-7.154 1.082-2.397.387-4.808.774-7.234 1.111s-4.86.628-7.315.818c-2.456.183-4.94.263-7.462.051-1.257-.117-2.528-.314-3.8-.709-1.249-.409-2.572-1.023-3.551-2.214a4.9 4.9 0 0 1-.987-2.039 3.6 3.6 0 0 1-.095-.548c-.022-.19-.044-.351-.036-.563a2.4 2.4 0 0 1 .066-.73c.021-.241.153-.453.263-.658.146-.19.277-.387.475-.548.212-.19.343-.292.504-.387.314-.22.621-.366.921-.512.606-.292 1.205-.504 1.797-.709 2.39-.767 4.714-1.352 7.074-2.002 2.353-.65 4.706-1.286 7.067-1.885a534 534 0 0 1 17.502-4.159c2.93-.643 5.86-1.264 8.813-1.826.752-.125 1.454-.3 2.25-.373l1.17-.139c.387-.044.782-.015 1.176-.029 1.571-.051 3.128.226 4.648.57 2.287.592 4.436 1.578 6.438 2.755a39 39 0 0 1 5.612 4.07c3.501 3.004 6.585 6.409 9.471 9.939 5.788 7.059 10.786 14.644 16.07 21.886 2.06 2.828 4.18 5.51 6.489 8.104a318 318 0 0 0 6.92 7.703c4.677 5.057 9.522 9.924 14.594 14.571 1.103 1.038 2.251 2.003 3.369 3.004q1.708 1.458 3.449 2.937c4.333 3.64 7.322 5.854 9.354 7.513a52 52 0 0 1 2.433 2.097c.643.57 1.133 1.067 1.564 1.527.387.424.928.936 1.133 1.213.343.468-.49.125-2.331-.855-1.849-.972-4.641-2.682-8.002-5.195-4.984-3.735-9.807-7.82-14.477-12.153-4.662-4.348-9.156-8.959-13.534-13.717a362 362 0 0 1-6.467-7.271c-1.052-1.213-2.149-2.477-3.172-3.778-1.037-1.293-2.017-2.609-2.996-3.931-3.88-5.291-7.534-10.692-11.422-15.895-2.886-3.865-5.875-7.636-9.134-11.115-3.26-3.456-6.804-6.679-10.823-8.952-2.01-1.11-4.136-1.958-6.321-2.353a15.6 15.6 0 0 0-3.296-.248c-1.096.044-2.163.205-3.383.431-4.743.899-9.508 1.937-14.243 3.004l-.037-.052z"/>
  <path fill="#12111f" d="M300.682 202.517c-.841-1.118-1.681-2.236-2.558-3.332-.322-.402-.68-.76-1.001-1.155a174 174 0 0 0-3.427-4.18c-.519-.607-1.089-1.177-1.652-1.732-.738-.702-1.44-1.44-2.068-2.258-.19-.256-.015-.387.351-.387.365.007.942.117 1.432.467.87.607 1.644 1.323 2.397 2.061.745.738 1.476 1.505 2.141 2.331.782 1.001 1.754 1.893 2.616 2.858a116 116 0 0 1 2.77 3.244l1.666 2.024c.833 1.023 1.637 2.09 2.499 3.077.658.782 1.44 1.44 2.09 2.214.146.168.307.322.439.497.497.672.482 1.016.241 1.425-.059.095-.102.197-.161.278-.197.256-.665.19-1.206-.154-.394-.255-.73-.57-1.096-.862a10 10 0 0 1-1.016-.957 52 52 0 0 1-1.848-2.134 146 146 0 0 1-2.646-3.289zM240.461 96.016a186 186 0 0 1 8.068 6.577c.964.833 1.966 1.622 2.894 2.521.409.395.818.804 1.22 1.242.19.212.468.563.614.782.161.242.329.49.482.731a90 90 0 0 1 1.739 2.879l3.333 5.766a162 162 0 0 0 3.062 5.035q1.008 1.58 2.017 3.172a46 46 0 0 1 1.797 3.303c.285.738.015.796-.701.467-.702-.336-1.776-1.103-2.646-2.265a212 212 0 0 1-8.045-13.11 50 50 0 0 0-2.463-3.946c-.11-.161-.219-.307-.329-.46-.11-.147-.226-.322-.314-.417-.154-.212-.482-.504-.738-.753-.556-.519-1.14-1.03-1.725-1.542-2.579-2.243-5.305-4.384-8.024-6.51a216 216 0 0 0-5.086-3.867c-2.601-1.9-5.218-3.822-7.921-5.502a30 30 0 0 0-1.586-.914c-.263-.146-.534-.27-.789-.387-.132-.051-.256-.117-.315-.124a.5.5 0 0 0-.226-.03c-.702.154-1.016.512-.965 1.55.051.43.139.87.314 1.308.293.833.592 1.337.695 1.732.044.204.058.394.058.555-.007.168-.051.365-.073.519-.022.153 0 .322-.007.446-.022.204-.234.248-.746.102-.497-.132-1.059-.6-1.49-1.337-.337-.534-.585-1.118-.804-1.74-.19-.635-.402-1.286-.409-2.075 0-.767.175-1.79.964-2.616.197-.183.417-.38.643-.519a8 8 0 0 1 .702-.307c.124-.05.234-.08.343-.095l.161-.029.227-.03c.153-.021.306-.05.453-.058.138 0 .27.052.409.052.278.029.533.146.804.211l.519.234c.285.146.577.293.84.439.541.292 1.052.599 1.564.906a91 91 0 0 1 2.989 1.922c2.908 1.95 5.729 4.026 8.528 6.116l-.037.059z"/>
  <path fill="#12111f" d="M215.524 98.96c-.183-.343-.307-.723-.453-1.096-.102-.358-.248-.687-.336-1.045a17 17 0 0 1-.49-2.156 11 11 0 0 1-.124-2.323 5.5 5.5 0 0 1 .212-1.28c.073-.226.124-.445.256-.686l.175-.351c.073-.117.168-.256.263-.373.366-.504.899-.855 1.476-1.06.614-.167 1.177-.197 1.747-.05q.217.063.424.138c.139.052.292.11.358.154l.504.27c.351.183.628.366.935.548 1.199.738 2.31 1.506 3.435 2.273 1.63 1.133 3.281 2.214 4.882 3.376a796 796 0 0 1 8.381 6.197l4.173 3.106 2.09 1.549 1.045.775c.358.328.789.635 1.082.993 1.147 1.228 2.017 2.544 2.857 3.874.84 1.322 1.615 2.674 2.375 4.011 1.944 3.435 3.844 6.899 5.459 10.341.219.548.292.84.212.891-.088.059-.344-.095-.899-.343-1.082-.512-2.755-1.856-3.932-3.822-1.001-1.768-1.987-3.508-2.915-5.269-.943-1.746-1.886-3.478-2.909-5.108l-.782-1.191c-.277-.365-.548-.753-.826-1.104-.285-.306-.57-.701-.855-.92-.16-.132-.241-.249-.46-.402l-.606-.453a287 287 0 0 1-4.802-3.698c-3.807-2.989-7.95-5.832-11.97-8.689-2.207-1.556-4.435-3.142-6.679-4.523-.285-.183-.541-.3-.818-.46l-.103-.06-.051-.014-.102-.044-.022-.014h-.015v-.073l.022-.146.015-.147v-.073l.007-.036c.059-.446-.08.563-.066.46h-.175c-.314-.014-.526.11-.694.468-.19.394-.285.986-.314 1.578-.03.6.014 1.235.102 1.864.11.774.285 1.556.519 2.316.234.702.606 1.389 1.037 2.047.87 1.315 2.017 2.491 3.216 3.595 3.698 3.339 8.002 6.073 12.138 8.981.804.57 1.6 1.147 2.382 1.761.775.621 1.549 1.257 2.244 2.105.65.899 1.089 1.71 1.585 2.572.483.848.943 1.695 1.404 2.55.401.753.818 1.477 1.213 2.237.672 1.439 1.103 2.389 1.315 3.105.08.373.132.665.153.928.044.249.052.461.044.658 0 .176.022.402 0 .519-.044.197-.263.044-.687-.395-.212-.226-.467-.511-.782-.847-.328-.336-.584-.79-.906-1.279-.957-1.454-1.797-2.996-2.645-4.546q-.638-1.148-1.286-2.309l-.651-1.118c-.109-.19-.219-.343-.328-.519-.11-.146-.176-.255-.307-.402-.475-.54-1.118-1.103-1.783-1.629a49 49 0 0 0-2.112-1.571c-1.462-1.031-2.975-2.047-4.487-3.084-2.251-1.542-4.509-3.135-6.665-4.94-1.074-.906-2.134-1.856-3.12-2.923s-1.915-2.236-2.616-3.661l.043-.03zm84.426 145.403a91 91 0 0 1-4.136-4.736c-.482-.592-1.023-1.125-1.491-1.732-1.666-2.104-3.237-4.282-4.815-6.438-.709-.95-1.418-1.907-2.112-2.857l-.687-.906a28 28 0 0 1-.629-.95c-.197-.322-.416-.629-.577-.987q-.23-.524-.46-1.059c-.183-.446-.103-.424.285-.212.255.131.533.277.811.424.168.087.358.175.533.292.161.124.322.263.475.416 2.141 2.215 3.939 4.67 5.708 7.206 1.059 1.513 2.382 2.908 3.61 4.333a190 190 0 0 0 4.128 4.633l1.308 1.389q.67.68 1.352 1.337c1.382 1.345 2.807 2.646 4.334 3.778.577.468 1.228.804 1.849 1.184.614.387 1.257.709 1.885 1.052.278.147.548.293.833.439 1.052.489 1.308.811 1.345 1.396.007.131.036.27.022.394-.03.395-.621.519-1.55.263-.336-.102-.694-.182-1.015-.314l-.98-.409c-.657-.285-1.337-.563-1.921-.972-1.243-.745-2.368-1.644-3.501-2.55-.796-.709-1.615-1.404-2.382-2.142-.753-.752-1.542-1.476-2.266-2.25l.037-.044z"/>
  <path fill="#12111f" d="M305.745 215.301c-2.959 2.558-6.109 4.911-9.587 6.789-1.272.672-2.551 1.374-3.954 1.849-1.227.423-2.492.781-3.836.913a8 8 0 0 1-1.009.073l-.511.015h-.132l-.183-.015-.358-.044c-.482-.109-.972-.321-1.33-.657a3.3 3.3 0 0 1-.796-1.082c-.651-1.52-.512-2.908-.314-4.209a17.8 17.8 0 0 1 1.074-3.713c.84-2.097 1.922-4.07 3.12-5.911a34 34 0 0 1 2.536-3.406c.453-.541.943-1.052 1.432-1.564.497-.504 1.06-.935 1.608-1.374.702-.533.738-.321.438.41-.153.365-.38.862-.643 1.461a13 13 0 0 1-1.147 1.813c-1.659 2.206-3.12 4.538-4.275 6.978a27 27 0 0 0-1.432 3.735c-.38 1.249-.621 2.557-.578 3.719.008.687.242 1.316.475 1.476a.46.46 0 0 0 .19.095c.03.022.081.015.125.022.029.015.124.008.226 0 .388-.029.775-.014 1.177-.095 1.586-.219 3.171-.782 4.706-1.447 3.369-1.498 6.54-3.624 9.456-6.028a61 61 0 0 0 5.137-4.75c2.448-2.551 4.758-5.291 6.665-8.229 1.483-2.287 2.616-4.721 3.522-7.198.176-.548.344-1.089.512-1.644.307-1.031.504-1.688.796-2.134.256-.446.541-.687.899-.87.161-.08.314-.204.453-.248.227-.073.388.117.541.577.175.461.227 1.169.11 2.039-.461 2.565-1.455 5.028-2.668 7.373-1.22 2.346-2.718 4.568-4.333 6.672-2.412 3.135-5.152 6-8.09 8.638l-.044-.044z"/>
  <path fill="#12111f" d="M128.415 255.514c-26.184 1.798-24.532-23.976-21.879-24.334 0 0-19.826 2.36-19.914 1.388s1.03 19.519 1.03 19.519 12.139 2.894 18.562 3.763c8.389 1.14 22.201-.336 22.201-.336" opacity=".25"/>
  <path fill="#12111f" d="M111.55 230.033c-2.039.563-4.085 1.104-6.161 1.528-.752.175-1.505.343-2.272.468-2.682.467-5.4.774-8.126.847-.6.037-1.206.051-1.813.051-.606 0-1.205.03-1.805.022-.767-.029-1.542-.022-2.316-.087-.388-.044-.767-.103-1.148-.161-.38-.051-.752-.198-1.125-.293-.46-.146-.387-.19.03-.306.27-.081.57-.176.862-.264.35-.087.76-.102 1.19-.087.768 0 1.535.014 2.303.066.767.043 1.534 0 2.309.021a70 70 0 0 0 4.64-.182c1.864-.11 3.778-.497 5.649-.855a90 90 0 0 0 3.084-.665c1.023-.263 2.053-.49 3.062-.782a85 85 0 0 0 3.741-1.096 117 117 0 0 0 5.584-1.9c1.41-.556 2.806-1.096 4.201-1.645a39 39 0 0 0 .921-.358c1.162-.431 1.557-.504 1.871-.416.073.022.161.029.212.058.161.095-.256.395-1.074.797-1.213.592-2.47 1.184-3.749 1.768-1.286.578-2.631 1.045-3.976 1.535a116 116 0 0 1-6.087 1.966v-.03z"/>
  <path fill="#12111f" d="M114.875 215.54c-17.823-3.222 7.527-12.649 14.374-12.649 0 0-30.677.197-40.046 12.277 0 0 17.787 1.322 25.679.372z" opacity=".35"/>
  <path fill="#12111f" d="M185.716 214.435c-2.587-6.452-13.673-11.633-19.402-13.57-5.737-1.929-26.534-7.403-44.621-5.802-17.889 1.586-35.34 6.986-42.326 10.377-6.979 3.39-9.639 6.701-9.639 6.701-5.926 3.734-4.918 16.683 28.917 17.714 0 0 14.016.219 23.728-3.289s22.595-5.122 28.529-5.291c5.926-.16 18.978 1.82 28.339-2.287 3.917-1.717 7.556-1.856 6.475-4.553m-47.851-3.266c-9.288 1.871-23.794 4.713-29.326 5.181-5.539.468-13.57.351-15.404-.365-1.835-.716-2.42-2.916-2.42-2.916s11.16-8.514 27.807-9.632c16.646-1.125 21.718-.73 31.086 1.871 9.376 2.609 10.728 4.962 10.728 4.962s-13.183-.972-22.471.899M90.54 251.917s1.52 11.108 1 31.313c-.365 14.345-.942 23.612-3.04 32.717-1.716 7.461 36.963 10.333 40.244 10.238s34.631-4.735 41.296-10.377c0 0-6.489-68.641-5.546-74.085 0 0-11.4 10.61-24.094 12.942-12.686 2.331-21.601 2.784-28.449 2.119-6.847-.665-21.419-4.874-21.419-4.874z"/>
  <path fill="#12111f" d="M136.383 255.609a113 113 0 0 1-12.424 1.395l-2.272.139c-.76.037-1.513.066-2.273.081-2.675.029-5.349-.022-8.016-.212-1.338-.066-2.668-.22-3.998-.336-1.322-.176-2.652-.3-3.975-.527-2.346-.336-4.692-.789-6.986-1.293l-2.207-.555-2.178-.665a27 27 0 0 1-2.127-.812c-.701-.299-1.359-.694-2.031-1.045-.826-.46-.629-.57.205-.518.416.021 1 .087 1.68.175.344.044.724.066 1.104.139.38.08.774.19 1.176.321q2.162.638 4.356 1.133c.723.197 1.469.329 2.2.497.73.168 1.476.307 2.221.431 2.967.534 5.978.943 9.018 1.22 3.639.351 7.461.249 11.195.066 4.114-.19 8.221-.606 12.292-1.257 2.506-.387 4.991-.899 7.461-1.476 3.727-.906 7.439-2.017 10.932-3.508a39.5 39.5 0 0 0 7.549-4.296c.526-.351.972-.782 1.491-1.14.482-.329.84-.651 1.169-.885.321-.241.614-.409.84-.562.461-.293.819-.373 1.221-.344.182.015.387-.007.533.029.249.066.263.337.073.79-.19.445-.592 1.088-1.257 1.739-1.907 2.039-4.319 3.581-6.803 4.918-2.507 1.33-5.167 2.404-7.863 3.325-4.02 1.337-8.148 2.316-12.299 3.069l-.015-.051zm-41.086 66.953c1.44.299 2.872.621 4.326.862 1.447.263 2.901.519 4.363.716a95 95 0 0 0 3.201.402c3.756.519 7.534.877 11.327 1.104 1.68.08 3.376.124 5.042.095 2.148.022 4.282-.271 6.445-.022.687.204.592.095.044.38-.541.336-1.578.774-2.828.869-4.436.227-8.864.066-13.3-.387-1.323-.153-2.675-.263-4.041-.38-1.359-.139-2.726-.263-4.078-.431-1.483-.219-2.967-.409-4.443-.651-1.476-.27-2.96-.482-4.421-.796l-2.711-.555c-.906-.19-1.798-.424-2.69-.636-1.366-.3-2.71-.694-4.055-1.074-1.352-.351-2.667-.826-3.99-1.243-1.038-.299-2.025-.716-3.04-1.067-1.016-.329-1.98-.803-2.952-1.264-.424-.204-.855-.387-1.28-.614-1.52-.935-1.907-1.381-2.082-1.79-.037-.095-.102-.205-.11-.278-.029-.241.687-.029 1.827.497.424.205.811.446 1.257.621.439.176.877.358 1.323.534q.655.273 1.323.548c.453.161.913.307 1.366.482 1.798.724 3.69 1.294 5.576 1.9 2.835.804 5.7 1.564 8.608 2.149v.036z"/>
  <path fill="#12111f" d="M121.446 326.565c-5.503 1.096-58.118-5.554-50.445-13.68 2.565-2.711 14.192-3.946 14.192-3.983l-.52 7.776 12.044 4.881 24.729 5.013zm-4.042-113.014a459 459 0 0 0 11.13-1.849c1.352-.241 2.696-.54 4.055-.767 4.787-.804 9.61-1.505 14.47-1.988 2.155-.212 4.333-.416 6.503-.445 1.389-.03 2.807-.03 4.246.204.716.11 1.433.314 2.105.629q.506.228.979.511c.314.197.563.49.833.724.643.643.439.657-.321.518-.833-.073-2.12-.087-3.493-.263-1.235-.197-2.558-.204-3.917-.153-1.352.051-2.712.146-4.078.241-2.74.197-5.503.504-8.294.811-3.34.373-6.767 1.126-10.158 1.732a802 802 0 0 1-11.232 1.966c-2.309.387-4.633.738-6.95 1.067-3.522.489-7.081.877-10.625 1.045-2.755.124-5.495.241-8.301-.205-.614-.117-1.228-.226-1.85-.409-2.301-.738-2.864-1.564-2.85-2.353-.007-.168-.05-.344-.036-.46.03-.198.278-.212.73-.205.242-.015.469.058.739.146.292.051.6.168.928.3 2.053.701 4.407.899 6.804.95 2.404.044 4.888-.103 7.388-.329 3.705-.336 7.453-.862 11.18-1.476z"/>
  <path fill="#12111f" d="M116.251 202.385c3.975-.665 7.995-1.089 12.021-1.198.738-.03 1.469-.059 2.207-.073a32 32 0 0 1 2.207-.008c5.181.132 10.348.768 15.375 1.988 2.229.541 4.465 1.155 6.621 1.929 1.381.504 2.762 1.06 4.085 1.783 1.286.746 2.594 1.652 3.391 3.077.161.504.168.731.095.76-.081.036-.278-.124-.672-.278-.234-.051-.424-.161-.687-.241-.271-.08-.527-.19-.855-.27a16 16 0 0 1-1.952-.812c-2.404-1.337-5.108-2.323-7.855-3.135-2.755-.803-5.598-1.417-8.477-1.929-3.457-.584-7.125-.672-10.713-.628-3.946.044-7.907.314-11.831.877a83 83 0 0 0-7.206 1.308c-3.61.767-7.154 1.907-10.589 3.23a62 62 0 0 0-7.629 3.632c-.533.299-1.038.621-1.55.942-.942.6-1.526.987-1.928 1.184-.402.227-.6.227-.892.329-.146.051-.22.205-.285.336-.058.11-.139.161-.285.073a.6.6 0 0 1-.22-.263c-.043-.117-.102-.351-.072-.504.08-.76.599-1.454 1.286-2.083 2.148-1.739 4.523-2.923 6.964-4.077 2.448-1.126 4.984-2.112 7.571-3.004 1.915-.65 3.888-1.264 5.883-1.725.993-.233 1.98-.475 2.981-.672a70 70 0 0 1 2.996-.584l.015.058z"/>
  <path fill="#12111f" d="M115.796 197.169c-3.259.416-6.562 1.155-9.822 1.922a181 181 0 0 0-9.74 2.623c-6.439 1.944-12.804 4.18-18.81 7.096-2.186 1.067-4.312 2.251-6.307 3.581-1.98 1.345-3.837 2.864-5.262 4.626-.636.767-1.052 1.505-1.191 2.309-.132.789.022 1.593.424 2.368.811 1.571 2.433 2.893 4.172 3.843a30.5 30.5 0 0 0 5.766 2.339c2.01.584 4.107.935 6.212 1.184 4.224.482 8.543.365 12.861.117 2.163-.125 4.334-.293 6.504-.446 2.141-.176 4.29-.387 6.424-.716 7.592-1.096 15.112-3.084 22.624-4.728 4.831-1.06 9.727-2.017 14.696-2.5 4.955-.46 9.939-.701 14.886-.277 1.542.314 2.199.489 2.148.548-.044.066-.804.08-2.104.387-2.602.548-7.337 1.206-12.906 1.761-4.94.512-9.821 1.272-14.71 2.331-4.889 1.023-9.778 2.222-14.74 3.267-4.962 1.052-10.004 1.966-15.141 2.39-5.057.38-10.129.796-15.31.694-3.091-.073-6.24-.322-9.368-.936-3.12-.628-6.248-1.585-9.128-3.193-1.461-.826-2.82-1.864-3.96-3.208a8.8 8.8 0 0 1-1.403-2.324 6.1 6.1 0 0 1-.41-2.835c.066-.987.46-1.878.906-2.675.49-.797 1.03-1.403 1.586-2.032 1.126-1.22 2.397-2.228 3.683-3.186 2.858-2.053 5.92-3.712 9.04-5.195 3.128-1.477 6.321-2.755 9.551-3.932 6.467-2.331 13.066-4.246 19.745-5.802 2.061-.475 4.129-.914 6.219-1.286 2.105-.373 4.21-.585 6.314-.819 4.209-.431 8.441-.643 12.664-.628 3.201.022 6.409.153 9.603.423 3.193.278 6.379.695 9.536 1.25 6.314 1.104 12.533 2.762 18.452 5.13a68 68 0 0 1 6.731 3.12c2.177 1.17 4.296 2.47 6.226 4.071a17.6 17.6 0 0 1 2.704 2.704 10 10 0 0 1 1.096 1.695c.307.636.533 1.352.57 2.134a4.54 4.54 0 0 1-.505 2.273c-.358.687-.855 1.249-1.388 1.717-1.074.928-2.28 1.505-3.486 1.973-2.134.811-4.253 1.264-6.438 1.586-8.119.994-10.691.292-12.401-.344-.387-.16-.899-.321-1.125-.475-.373-.255.255-.46 1.695-.665 1.447-.219 3.698-.438 6.57-.635 2.126-.169 4.253-.417 6.335-.812 2.068-.394 4.137-.95 5.839-1.848.848-.439 1.564-1.009 1.929-1.579.366-.57.417-1.096.19-1.812-.226-.694-.818-1.535-1.468-2.266-.643-.76-1.44-1.454-2.251-2.126-3.332-2.66-7.322-4.736-11.451-6.409-4.136-1.673-8.463-3.003-12.862-4.012-13.081-3.003-26.819-3.449-40.207-1.695l-.022-.059z"/>
  <path fill="#12111f" d="M103.345 322.248c6.518 1.644 13.256 2.478 20.008 2.675 3.376.117 6.767.036 10.143-.154 3.376-.197 6.753-.526 10.107-1.015 4.896-.695 9.734-1.769 14.454-3.143a63 63 0 0 0 6.044-2.06 34 34 0 0 0 2.879-1.287c.461-.241.928-.467 1.352-.745.219-.132.439-.256.651-.395l.409-.299c.058-.029.102-.073.102-.146.007-.073.007-.103.007-.212 0-.366-.029-.775-.058-1.17a73 73 0 0 0-.227-2.44c-.168-1.637-.365-3.274-.562-4.918l-1.213-9.858a938 938 0 0 1-2.222-19.768c-.767-7.775-1.469-15.602-1.958-23.348a275 275 0 0 1-.548-14.973c-.044-4.999.102-10.019.957-14.959.241-1.542.387-2.2.446-2.156.065.051.065.811.16 2.134.081 1.315.38 3.193.57 5.444.103 1.126.256 2.346.329 3.632.059 1.294.095 2.66.117 4.085.073 5.042.307 10.092.599 15.134.256 5.05.6 10.1 1.002 15.156.825 10.107 1.819 20.235 2.93 30.408.351 3.062.701 6.16 1.052 9.273q.264 2.348.526 4.706c.081.79.154 1.586.212 2.397.029.41.051.804.059 1.265-.015.321-.015.665-.088.971a2 2 0 0 1-.212.424c-.036.161-.197.241-.285.366l-.694.504a4 4 0 0 1-.526.351c-.351.212-.702.438-1.06.635-.716.38-1.439.76-2.178 1.075-1.461.679-2.952 1.227-4.45 1.761a84 84 0 0 1-9.12 2.543 125 125 0 0 1-20.615 2.777 123 123 0 0 1-10.406.051c-3.471-.132-6.928-.46-10.37-.943-8.447-1.22-16.83-3.595-24.37-7.731-.461-.249-.9-.526-1.346-.782l-1.49-.884-.293-.242-.073-.058c.044-.058-.022-.066-.022-.095-.029-.058-.058-.11-.08-.168-.08-.241-.08-.519-.073-.789 0-.307.015-.461.022-.658l.036-.563.183-2.221.417-4.421c.263-2.945.533-5.883.796-8.828a480 480 0 0 0 1.177-17.604c.467-9.888.511-19.585.182-29.348-.073-2.148-.182-4.253-.285-6.416-.197-4.012-.358-6.657-.372-8.521.014-.935.036-1.673.087-2.287.059-.614.147-1.111.234-1.549.08-.402.14-.929.205-1.162.117-.402.307.212.658 1.651.35 1.44.716 3.727.935 6.679 1.396 17.532.957 36.108-.417 54.633-.27 3.632-.577 7.256-.913 10.888l-.504 5.437-.234 2.704c-.037.446-.066.891-.088 1.315v.088l1.732 1.023c.68.409 1.403.738 2.105 1.111l1.06.548 1.088.49c.731.314 1.447.665 2.192.957 2.953 1.206 6.015 2.156 9.106 2.967v.058z"/>
  <path fill="#12111f" d="M149.602 234.629c.044-.373.08-.753.102-1.126.007-.139 0-.27 0-.409.044-.482.088-.972.095-1.461 0-.22-.022-.432-.036-.644-.022-.27-.044-.548 0-.825.014-.088.116-.088.241-.029.117.058.277.175.336.328.212.548.248 1.118.219 1.696-.022.343.051.694.073 1.045.022.387 0 .767 0 1.154 0 .234-.014.475-.022.709-.007.358-.029.716-.029 1.074 0 .278.08.548.08.826 0 .059.015.117.008.183-.015.226-.095.292-.329.329-.051.007-.11.022-.161.022-.175.014-.321-.081-.395-.249-.233-.489-.285-.986-.292-1.498.022-.373.051-.753.073-1.125zm-6.993 1.811c.036-.431.065-.87.073-1.301 0-.16-.03-.314-.03-.467.022-.563.044-1.126.022-1.681 0-.249-.065-.49-.095-.738-.051-.307-.146-.614-.08-.95.022-.103.234-.132.475-.088.234.044.504.154.57.329.241.628.322 1.286.27 1.958-.029.402.088.804.117 1.206.037.446.051.892.059 1.337 0 .278.007.549.014.826 0 .417-.022.833.022 1.243.044.299.088.628.132.942.007.073.022.139.022.205 0 .263-.095.343-.395.402a2 2 0 0 1-.204.036.52.52 0 0 1-.527-.263c-.285-.548-.497-1.118-.482-1.695a15 15 0 0 1-.007-1.301z"/>
</svg>
