<svg xmlns="http://www.w3.org/2000/svg" width="380" height="380" fill="none"><path fill="#12111f" d="M251.523 183.87c0-.278 2.178-8.39 2.178-8.39s3.647 3.282 4.655 6.453c1.016 3.172-.219 3.734-3.244 2.952-3.026-.781-3.589-1.008-3.589-1.008zM268.961 140.168c.036.03.102.03.175-.014l.059-.037.022-.014c.022-.037.058-.088.08-.132.102-.19.227-.373.322-.57.146-.285.211-.606.336-.906.431-1.06.73-2.258.592-3.318-.059-.46-.278-.862-.548-1.03a1 1 0 0 1-.132-.073 1 1 0 0 1-.153-.037c-.103-.029-.205-.095-.337-.109-.087-.015-.087-.037-.248-.044a1.3 1.3 0 0 1-.417-.103c-.102-.043-.182-.095-.233-.124q-.054-.054-.117-.044c-.044.015-.073-.022-.11-.124a.77.77 0 0 1 0-.489.7.7 0 0 1 .219-.271c.124-.066.249-.124.358-.175.11-.059.205-.11.234-.176v-.022s.015-.029.007.03c-.007.073 0 .182-.007.219v.102c.007.095-.08-.833-.044-.438l.03-.015.109-.036a6 6 0 0 1 .409-.103q.23-.02.461-.029c.161-.022.321.051.475.095.161.044.307.117.453.205a3.17 3.17 0 0 1 1.264 1.344c.49 1.001.49 1.951.351 2.806-.176 1.016-.249 2.032-.563 3.004a10 10 0 0 1-.665 1.535 8.1 8.1 0 0 1-1.33 1.819c-.614.607-1.249.979-1.914 1.191-.505.146-1.045.19-1.55.051a.8.8 0 0 1-.35-.204.53.53 0 0 1-.147-.3c-.036-.19-.022-.365-.022-.548.015-.285-.043-.526-.065-.964-.037-.432.204-1.133.219-1.71 0-.066 0-.132-.015-.183a.2.2 0 0 0-.029-.059c-.029-.029-.036-.065-.058-.095-.059-.226.014-.372.416-.877l.234-.328c.227-.315.818-.505 1.315.051.168.197.344.431.432.687.051.124.095.255.124.387.022.022.036.022.058.036.066.03.11.03.146.015.066-.029.095-.073.095-.073-.007 0-.036.132.015.132l.015.087zM260.796 136.384c.285-.541.541-1.125.584-1.673.03-.351.044-.3.037-.402 0-.073-.029-.168-.102-.212-.117-.073-.249.014-.358.051-.234.117-.585.38-.885.65-.314.278-.628.592-.942.921-.636.651-1.265 1.359-2.039 1.995a18 18 0 0 1-2.119 1.513 10.5 10.5 0 0 1-1.477.76 6 6 0 0 1-.781.263c-.264.073-.534.124-.826.058-.373-.124-.373-.307-.227-.796.139-.534.453-1.104.943-1.316a13.3 13.3 0 0 0 2.426-1.425c.387-.277.731-.57 1.082-.884.365-.314.738-.672 1.125-1.037.475-.432.906-.943 1.403-1.455.241-.255.519-.519.818-.767.264-.219.812-.577 1.316-.687a2.24 2.24 0 0 1 1.644.197c.482.293.797.797.921 1.352.073.271.095.57.102.848 0 .263-.022.446-.051.665-.058.417-.161.804-.248 1.184a11.3 11.3 0 0 1-1.133 2.623c-.731 1.243-1.71 2.317-2.835 3.238-.87.716-1.82 1.417-2.967 1.805a5 5 0 0 1-.768.226c-.497.015-.833-.036-1.052-.197-.219-.176-.336-.395-.409-.694-.037-.139-.081-.271-.095-.395-.022-.219.058-.409.204-.607.147-.204.358-.387.607-.526.183-.095.351-.226.526-.292.168-.073.344-.146.504-.234.329-.146.636-.351.958-.519a9.1 9.1 0 0 0 1.841-1.337c.855-.804 1.666-1.805 2.222-2.916l.051.015z"/><path fill="#12111f" d="M266.373 137.685c.709-1.126 1.235-2.514 1.483-3.881.088-.504.081-1.008.095-1.483.059-1.082-.234-2.127-.848-2.682-.109-.161-.891-.183-1.563-.146-.848.036-1.71.234-2.551.416a74 74 0 0 0-3.201.833c-.277.088-.423-.08-.277-.475.153-.38.57-.95 1.184-1.271 1.059-.534 2.141-1.031 3.31-1.272.585-.131 1.177-.248 1.812-.292.329 0 .651-.015 1.031.029.16 0 .445.073.687.146.124.022.241.081.35.147.11.065.227.109.329.182.095.059.19.161.249.212.709.651 1.162 1.498 1.432 2.324.27.833.365 1.666.343 2.463-.073 1.761-.584 3.383-1.293 4.918a11 11 0 0 1-.775 1.381c-.036.058-.073.11-.117.168l-.16.227c-.11.146-.234.277-.344.416a4 4 0 0 1-.774.665 2.1 2.1 0 0 1-1.031.322c-.394-.022-.796-.154-1.096-.41-.307-.248-.519-.592-.672-.972a4.5 4.5 0 0 1-.278-1.22c-.029-.234-.029-.38-.036-.541 0-.16-.008-.321 0-.482.021-1.206.021-2.382.255-3.544.051-.256.095-.512.168-.768a3.6 3.6 0 0 1 .234-.584 1.3 1.3 0 0 1 .336-.344 1 1 0 0 1 .717-.204c.124.007.241.007.336.044.285.138.431.504.533 1.183-.029.468-.051.95-.066 1.433-.014.482-.08.957-.109 1.432-.037.475-.066.943-.066 1.381 0 .212.007.461.022.607 0 0-.015.007 0 .029 0 .015.015.022.036.022 0 0 .022-.015.022 0 0 .007.088-.124.125-.183.051-.08.102-.153.146-.234l.051.03z"/><path fill="#12111f" d="M257.756 126.562c-3.647 2.25-7.008 5.173-7.834 9.353-.409 1.55-.68 3.143-.957 4.729-.504 2.813-.841 5.678-1.33 8.571a42 42 0 0 1-.95 4.319 313 313 0 0 1-1.191 4.188c-.746 2.47-1.542 4.962-2.558 7.344-1.308 3.033-2.916 6.109-5.474 8.294-.752.709-.745.519-.387-.3.176-.409.453-.971.665-1.717.278-.701.672-1.447 1.104-2.251.197-.358.394-.701.57-1.067.19-.358.394-.701.57-1.066.372-.717.708-1.455 1.037-2.193.643-1.491 1.191-3.018 1.703-4.582.504-1.564.965-3.149 1.432-4.75l.687-2.411c.234-.804.431-1.571.607-2.375.84-3.851 1.008-8.097 1.805-12.211a45 45 0 0 1 .76-3.377l.226-.84c.088-.292.183-.592.293-.884q.33-.866.782-1.666c1.213-2.127 2.93-3.83 4.771-5.262 2.28-1.768 4.787-3.157 7.367-4.333a43 43 0 0 1 4.64-1.791c.395-.124.797-.248 1.198-.358l.607-.161c.212-.058.548-.131.818-.19.563-.116 1.14-.204 1.608-.138.234.043.453.058.643.226.088.088.103.219.154.322.051.109.08.226.102.35.08.614.058 1.257-.168 1.9-.08.322-.27.622-.402.936-.161.241-.285.475-.453.687-1.111 1.454-2.58 2.419-4.085 3.193-.38.176-.76.373-1.147.526l-1.097.453c-.65.293-1.256.687-1.863 1.14-.533.402-1.03.863-1.586 1.316-1.045.833-1.885 1.337-2.528 1.564-.651.219-1.089.197-1.469.029-.175-.08-.38-.146-.49-.241-.182-.168-.044-.431.293-.738.336-.336.862-.753 1.542-1.352.92-.819 1.834-1.776 3.018-2.668a11 11 0 0 1 1.965-1.213l1.023-.431c.293-.117.585-.234.863-.372 1.125-.527 2.192-1.162 3.011-1.915.211-.183.387-.387.555-.585.073-.102.168-.197.226-.299l.154-.234v-.007l-.095.021-.19.052c-.512.131-1.03.285-1.549.453a43 43 0 0 0-3.084 1.118c-2.032.826-4.012 1.797-5.854 2.945l-.036-.044zM256.172 164.48c-.358 1.6-.68 3.223-.979 4.845-.11.592-.154 1.198-.263 1.79-.366 2.098-.855 4.188-1.235 6.292-.161.936-.322 1.878-.475 2.806-.11.6-.154 1.206-.351 1.791-.168.592-.38 1.169-.614 1.746-.153.358-.27.278-.416-.08-.132-.351-.38-.987-.439-1.696-.007-.314-.066-.628-.036-.935l.065-.913.161-1.835a54 54 0 0 1 .694-3.646c.329-1.454.439-3.004.717-4.509.292-1.652.613-3.31.957-4.955q.318-1.525.679-3.04c.359-1.534.79-3.062 1.228-4.574.336-1.177.665-2.361 1.264-3.486.147-.248.256-.497.446-.731.672-.869 1.147-.979 1.535-.811.087.037.19.073.256.124.116.088.124.249.073.439-.022.095-.066.19-.117.307a2 2 0 0 1-.183.387c-.402.84-.702 1.812-.957 2.813-.285.994-.607 2.017-.87 3.077a88 88 0 0 0-1.096 4.801h-.051zM227.569 336.133c1.432-.066 2.872-.081 4.304-.11.526-.015 1.045-.066 1.564-.073 1.841-.007 3.683.037 5.517.088.811.022 1.63-.008 2.441-.03 1.038-.087 2.083.052 3.12.169.322.043.285.131.015.277-.271.139-.76.409-1.352.556l-.789.182c-.263.059-.526.059-.79.088l-1.578.124c-1.052.066-2.112.11-3.172.103-1.271-.037-2.586.124-3.887.204l-4.275.263-2.631.183c-1.33.117-2.667.212-3.975.402-1.016.146-2.003.424-3.011.57-.219.036-.439.088-.658.109-.416.044-.694.052-.899-.021a.98.98 0 0 1-.453-.402c-.051-.081-.117-.161-.153-.242-.059-.131-.008-.263.124-.416.132-.154.351-.344.65-.431.877-.314 1.783-.636 2.719-.833a40 40 0 0 1 2.857-.417c1.432-.168 2.872-.27 4.319-.387v.051z"/><path fill="#12111f" d="M215.213 337.499c2.791.168 5.597.278 8.396.395 1.023.044 2.046 0 3.069.036 3.61.117 7.22.147 10.838.183 1.607 0 3.215-.036 4.808-.08 1.023-.022 2.046-.088 3.069-.073 1.023.029 2.054.095 3.077.146.636.044.555.073.022.205-.534.116-1.52.416-2.689.635-.263.044-.519.095-.782.124l-.782.066-1.564.125-3.128.211c-2.09.117-4.187.227-6.299.183-2.521-.036-5.145.124-7.732.146-2.835.022-5.678-.022-8.52-.124-1.747-.08-3.493-.139-5.24-.241-2.645-.132-5.298-.329-7.921-.534-2.039-.109-4.042-.226-6.066-.336-.446-.029-.884-.051-1.323-.124-1.644-.256-2.155-.475-2.455-.943-.066-.109-.161-.219-.197-.314-.117-.336.592-.533 1.812-.577.453-.015.906-.022 1.367-.037.453-.007.913.029 1.373.029.921.022 1.842.052 2.777.103 1.864.08 3.749.168 5.642.248 2.806.176 5.627.388 8.448.49v.058M234.63 334.298a45 45 0 0 0-2.405-.153c-.292-.015-.584.043-.876.014a31 31 0 0 0-3.114-.087c-.46.014-.92.08-1.381.109-.584.066-1.176.146-1.783.095-.19-.022-.19-.212-.073-.446.124-.226.373-.533.702-.65.584-.183 1.176-.387 1.783-.482a12 12 0 0 1 1.849-.095c.745.029 1.505-.132 2.265-.154.833 0 1.666.029 2.499.073l1.528.088c.767.037 1.534.11 2.301.11.592-.015 1.177-.081 1.762-.103.131 0 .255-.022.387-.014.475.102.621.255.716.584.022.081.051.154.059.227.036.241-.169.453-.527.621-1.059.424-2.155.482-3.252.424-.811-.022-1.629-.088-2.44-.124v-.044zM70.36 324.047c-2.2 0-4.406.036-6.606.087-.804.022-1.607.095-2.411.103-2.836.044-5.678.08-8.514.19-1.257.036-2.52.161-3.77.219-.804.051-1.608.095-2.405.146-.804.066-1.615-.044-2.426-.08-.504-.044-.446-.183-.037-.424.205-.124.497-.278.848-.446.176-.08.366-.168.57-.248.102-.044.205-.073.314-.117.11-.022.22-.037.337-.059 3.252-.504 6.525-.687 9.843-.709 1.98-.007 4.034-.233 6.058-.328 2.222-.103 4.458-.147 6.68-.205l4.114-.066 6.233-.044c1.608-.029 3.179-.146 4.772-.124.35 0 .694-.022 1.045.029 1.308.176 1.71.351 1.966.731.058.088.139.176.168.256.11.263-.439.482-1.396.628-1.418.271-2.85.285-4.311.395l-4.429.044c-2.207.022-4.428.014-6.65.066v-.052z"/><path fill="#12111f" d="m72.778 325.505-5.495-.066c-.665 0-1.337.037-2.002.03-2.354-.044-4.714-.088-7.067-.125a76 76 0 0 0-3.128.044c-.665.022-1.33.051-1.995.073a14 14 0 0 1-2.002-.168c-.416-.182-.365-.175-.022-.438a4.6 4.6 0 0 1 1.747-.731c2.718-.19 5.43-.278 8.177-.197 1.644.073 3.347-.044 5.02-.066l5.532-.037 3.406-.022c1.717-.021 3.449-.021 5.152-.095 1.322-.051 2.623-.248 3.931-.328.285-.022.57-.052.862-.066 1.082-.051 1.425.139 1.667.541.058.095.124.19.16.277.11.307-.321.6-1.103.79-2.331.475-4.801.54-7.286.591-1.841.037-3.698.022-5.54.037v-.044zM232.054 222.087c-10.64 6.65-24.327-1.689-24.327-1.689s4.209 6.614 11.882 6.57c6.686-.036 12.452-4.874 12.452-4.874zM211.929 270.551c6.256 4.56 10.574 6.489 16.698 11.224 5.883 4.553 13.695 12.124 17.502 18.642 3.391 5.803 4.107 10.889 1.769 18.175-1.009 3.135 6.43-6.249 5.963-11.583-.468-5.335-2.88-12.072-6.775-15.346s-9.229-10.063-24.904-17.122c-5.912-2.66-10.26-3.99-10.26-3.99z"/><path fill="#12111f" d="M119.342 286.986s-3.969-6.219 2.572-21.177c0 0 16.369 6.226 20.023 6.072 0 0 2.675 4.538 6.855 3.281 3.471-1.045 7.49-5.721 8.915-7.804 0 0 8.623-.022 11.663 2.426s9.588 6.065 15.595 4.421c0 0 11.955.636 15.718 2.989.497.979 5.722.197 7.06-2.134.453-.796.767.366 5.159 2.865 0 0 13.329 8.097 19.84 15.697 6.504 7.6 13.541 15.514 13.856 24.342.321 8.827-10.37 15.463-13.242 17.29s-19.351 4.048-41.515.95c-22.164-3.099-48.179-10.436-105.443-11.203 0 0 4.07-18.211 23.254-28.661 7.841-4.275 61.494-2.55 102.285 16.26 0 0-15.996-13.337-43.451-18.438 0 0-49.261.373-49.137-7.183zM171.174 183.889s-1.732-2.302-1.929.168.292 3.742 1.637 3.42c1.345-.321.292-3.588.292-3.588"/><path fill="#12111f" d="M170.75 189.073s.482-2.623-1.63-1.103c-2.104 1.527-2.075 2.938-1.315 3.705s2.316.921 2.726.219c.409-.701.219-2.828.219-2.828zM134.12 213.005s-.921-3.15.533-3.742 4.151-2.185 4.151-2.185l-4.677 5.927zM106.416 295.37s-4.67-4.253-13.278-1.191c-8.375 2.981-11.751 14.652-11.751 14.652s-3.464-.804-10.626 1.205c-7.161 2.017-13.073 3.377-14.36 6.102-1.278 2.726-3.748 5.277 3.728 6.234s24.934-3.245 27.813-1.308c0 0 7.666-19.329 18.474-25.701zM208.51 310.685s-21.703-19.424-69.912-20.287l7.388 2.324s38.972 3.895 59.024 16.947zM152.957 268.396s14.864 0 17.093 2.813c1.578 1.988 6.635 4.787 11.655 4.217 7.067-.797 11.89-.161 16.443 1.469 4.56 1.622 2.404-1.798-2.273-2.741-4.677-.942-7.461-.328-12.036-.665-4.574-.336-6.007.19-9.478-2.586-3.471-2.777-3.054-2.076-7.227-3.187s-11.904-1.9-11.904-1.9l-2.273 2.587zM140.461 271.49s-8.798-.768-12.81.606c-8.703 2.982-5.24 20.871-7.739 15.237-2.601-5.876.724-15.858 1.666-18.189.936-2.331 2.697-1.637 2.697-1.637zM151.451 257.822a26 26 0 0 0-1.827 2.382c-.205.307-.358.636-.556.943-.701 1.081-1.352 2.214-1.87 3.398a11 11 0 0 0-.585 1.615c-.124.701-.49 1.403-.541 2.046-.007.124-.022.248-.241.08-.183-.175-.424-.606-.482-1.089a17 17 0 0 1-.051-.635c-.008-.212.043-.41.073-.607a10 10 0 0 1 .263-1.169c.19-.775.548-1.491.928-2.185.46-.826.804-1.747 1.271-2.594a29 29 0 0 1 1.688-2.682c.373-.534.768-1.053 1.162-1.564.614-.767 1.287-1.491 1.908-2.244.248-.285.467-.599.694-.898.219-.307.446-.614.716-.877.117-.117.219-.249.344-.358.467-.41.73-.417 1.103-.198.088.051.175.095.248.154.249.19.249.562.044.979-.336.577-.621 1.213-1.059 1.703-.417.511-.848 1.015-1.279 1.527-.643.76-1.272 1.527-1.9 2.309l-.037-.029z"/><path fill="#12111f" d="M144.57 265.139c-.147.395-1.33 6.884 1.417 6.898 2.748.015 7.644-4.348 8.645-6.226s-10.062-.672-10.062-.672M249.374 183.021c-1.045-.534-2.046-1.14-3.033-1.754a21 21 0 0 1-1.082-.68 34 34 0 0 1-3.485-2.821c-.49-.445-.958-.92-1.44-1.366-.285-.307-.606-.585-.87-.921-.233-.358-.445-.738-.657-1.103-.124-.234-.081-.227.139-.125.212.11.657.256 1.081.497a69 69 0 0 1 3.778 3.26c.366.343.782.643 1.213.928.424.299.87.555 1.308.833.95.614 1.937 1.169 2.945 1.702.629.307 1.25.629 1.9.892a23 23 0 0 0 2.982 1.089c.789.212 1.586.321 2.382.409.176.015.344.066.519.102.643.147.826.315.928.636.022.073.059.146.066.219.036.227-.263.38-.789.446-.782.117-1.557 0-2.331-.161-.775-.153-1.535-.394-2.295-.65a33 33 0 0 1-3.267-1.403l.015-.029zM217.418 198.852s5.51 2.652 6.453 3.076c1.388.629 2.514 4.268.299 3.442-4.552-1.695-6.745-6.518-6.745-6.518zM172.112 183.706l-.395 1.827c-.051.22-.058.446-.117.673-.248.767-.541 1.527-.811 2.28-.117.336-.227.665-.336 1.001-.146.424-.307.848-.541 1.235-.073.124-.132.073-.168-.066a1.4 1.4 0 0 1-.029-.628c.16-.877.248-1.754.46-2.624.139-.519.102-1.089.183-1.629.087-.592.19-1.192.263-1.791.051-.373.095-.738.131-1.111.044-.562.139-1.132.147-1.695 0-.438-.081-.87-.066-1.301 0-.095-.008-.19 0-.285.014-.358.19-.467.438-.541.059-.014.117-.036.176-.043.182-.03.365.117.518.387.139.395.3.804.359 1.213q.054.614.043 1.25c.015.621-.131 1.242-.212 1.863h-.036zM176.313 163.918c-1.338 2.339-4.692 4.392-7.951 4.392-8.989 0-18.964-6.986-18.964-7.892 0 0 11.335 5.13 14.674 5.452 4.202.394 12.233-1.944 12.233-1.944zM206.719 82.3c-1.783 4.451-8.66 21.076-40.572 11.949-6.774-1.937-10.808-5.378-16.26-7.286 6.058 15.624-2.36 30.809-3.135 30.386-.774-.417-7.096-6.241-12.649-2.807-4.546 2.807-.775 9.062-.775 9.062s.409 2.353-5.379 3.405c-5.78 1.067-12.218-4.808-13.343-11.422-1.126-6.613 6.109-13.329 8.111-14.491s-.409-2.755-4.092-6.255-6.175-5.941-3.084-15.376c3.237-9.887 12.584-10.508 19.468-8.06.84.3 4.64 3.354 5.451 3.837-1.125-8.112-.533-14.01 5.342-18.715 11.51-9.215 20.352-1.184 24.656 6.883 2.288 4.29-6.321 2.31-4.077 11.832.628 2.674 8.55 11.728 20.447 7.234.964-.365 11.699-5.612 4.106-12.394-3.544-3.171-14.666-1.388-14.001 5.16.285 2.806 2.587 3.639 6.116 2.952-3.712 1.074-10.727 1.966-13.146-5.342-4.421-13.351 16.318-12.007 19.168-11.225 0 0 9.317 1.645 13.066 6.767 3.742 5.108 6.358 9.456 4.575 13.907zM175.122 150.116c2.229 0 4.472-.409 6.474-1.272.994-.431 1.922-.994 2.653-1.673.183-.154.366-.366.541-.57l.541-.614c.307-.46.672-.87.928-1.367.847-1.381 1.396-2.945 1.841-4.552.768-2.85 1.031-5.898 1.053-8.952.007-3.062-.198-6.153-.497-9.244-.249-2.748-.673-5.496-.928-8.243-.168-1.762-.329-3.545-.351-5.342-.022-.899.029-1.805.161-2.704.043-.446.153-.899.233-1.345a9.6 9.6 0 0 1 .461-1.293c.504-1.031.446-.855.431.095.044.972.358 2.638.512 4.589.168 3.486.891 7.001 1.256 10.581.432 3.581.819 7.213.885 10.904.029 2.206.036 4.465-.132 6.759-.168 2.287-.548 4.611-1.33 6.826l-.336.913-.409.884c-.249.599-.614 1.155-.928 1.725-.746 1.103-1.498 2.119-2.558 3.047-2.119 1.747-4.626 2.624-7.147 3.084-3.12.541-6.306.3-9.317-.453-4.582-1.169-8.704-3.647-12.211-6.614-2.748-2.301-5.218-4.815-7.403-7.607-.468-.621-.965-1.206-1.389-1.863-.803-1.213-1.3-2.039-1.512-2.69-.205-.657-.219-1.096-.117-1.512.044-.19.066-.417.139-.548.117-.227.402-.132.84.204.439.336 1.023.921 1.63 1.754 1.863 2.419 3.814 4.838 5.97 7.081 2.163 2.236 4.531 4.305 7.147 5.971 3.866 2.462 8.338 4.048 12.862 3.975v.066z"/><path fill="#12111f" d="M134.336 115.777c-1.038 1.089-1.22 3.15-.767 5.079.044.358.219.68.336 1.016.11.343.292.65.446.972 1.067 2.302 3.193 4.107 5.692 5.064 1.118.424 2.339.512 3.515.46.373-.051.753-.087 1.126-.153q.55-.132 1.111-.241c.708-.263 1.49-.38 2.272-.629.497-.124.534.015.307.483a11 11 0 0 1-.541.957 2.6 2.6 0 0 1-.46.563 4 4 0 0 1-.65.416c-1.703.848-3.691 1.045-5.576.826-1.886-.241-3.742-.943-5.232-2.141-1.74-1.425-3.442-3.15-4.283-5.335-.197-.599-.453-1.191-.541-1.812l-.182-.928-.088-.936c-.073-1.257.088-2.594.687-3.814.358-.746.87-1.44 1.513-1.951a6.3 6.3 0 0 1 2.126-1.133c2.317-.687 4.677-.27 6.738.577 1.608.658 3.12 1.564 4.377 2.85.263.293.548.556.775.884.804 1.25.76 1.813.321 2.31-.102.117-.19.241-.299.329-.373.277-.936-.074-1.513-.724-.877-.965-1.768-1.863-2.857-2.565-1.067-.701-2.28-1.25-3.537-1.505-1.849-.453-3.829-.022-4.779 1.132l-.052-.036z"/><path fill="#12111f" d="M148.396 105.997c.175-1.527.3-3.084.278-4.655-.015-.577-.059-1.14-.088-1.717-.051-2.032-.161-4.078-.402-6.117-.08-.906-.314-1.798-.49-2.69-.204-1.146-.73-2.22-.358-3.492.132-.402.3-.387.76-.176.497.205 1.316.622 1.55 1.265.307 1.169.577 2.353.723 3.566.139 1.213.234 2.433.227 3.668 0 1.476.255 2.982.307 4.487.036 1.659.021 3.318-.147 4.977-.073 1.023-.248 2.039-.409 3.054a26 26 0 0 1-1.315 4.502l-.702 1.688-.424.818c-.138.278-.277.556-.482.797-.168.219-.321.438-.497.65-.329.395-.65.556-.928.607a1.1 1.1 0 0 1-.687-.059c-.102-.043-.204-.065-.278-.117-.248-.146-.175-.657.052-1.33.27-.394.423-.884.657-1.293s.424-.855.658-1.264q.285-.66.57-1.33c.146-.468.343-.914.482-1.396.439-1.41.702-2.916.899-4.443h.059zM199.778 89.645c2.426-2.368 4.231-5.386 4.86-8.652.299-1.623.292-3.31-.095-4.896-.388-1.594-1.14-3.128-2.134-4.524-1.455-2.046-3.45-3.712-5.583-5.137-1.893-1.257-3.976-2.251-6.139-3.004-2.163-.738-4.428-1.25-6.708-1.359-2.273-.11-4.582.066-6.723.775-2.134.694-4.115 1.863-5.591 3.544l-.497.555-.431.607c-.307.409-.548.804-.716 1.22-.351.84-.453 1.776-.329 2.704.249 1.864 1.359 3.617 2.836 4.816 1.936 1.498 4.501 2.324 6.986 2.273a12.8 12.8 0 0 0 3.675-.614c.585-.205 1.17-.439 1.71-.738.541-.3 1.104-.592 1.579-.994.606-.483.891-.702 1.016-.578.095.103.036.556-.329 1.243a6.75 6.75 0 0 1-2.149 2.426 9.3 9.3 0 0 1-1.951 1.052c-.365.154-.76.256-1.162.387q-.614.13-1.271.205c-3.106.307-6.256-.504-8.864-2.258a10.8 10.8 0 0 1-3.223-3.53 10 10 0 0 1-.928-2.265c-.198-.804-.314-1.644-.271-2.5.059-.854.22-1.717.578-2.513.16-.395.394-.797.606-1.125l.665-.936c.95-1.198 2.039-2.31 3.325-3.142 2.543-1.717 5.532-2.55 8.448-2.733 3.508-.212 7.052.292 10.421 1.359 3.376 1.052 6.591 2.711 9.361 4.962 1.513 1.242 2.901 2.675 4.026 4.319s1.995 3.508 2.412 5.51c.826 4.019-.205 8.184-2.273 11.531-2.579 4.151-6.599 7.184-10.998 8.981-3.354 1.33-6.949 1.996-10.516 2.098-3.573.08-7.125-.38-10.545-1.177-5.312-1.293-10.377-3.179-15.134-5.722-1.038-.577-2.09-1.088-3.106-1.717a84 84 0 0 1-2.353-1.52c-.643-.431-1.089-.87-1.476-1.22-.373-.358-.65-.665-.855-.958a4.7 4.7 0 0 1-.402-.87c-.087-.24-.241-.51-.277-.672-.169-.475 1.731-.058 4.435 1.564 4.034 2.383 8.295 4.575 12.774 6.285 4.472 1.703 9.193 2.945 13.958 3.193 3.537.227 7.081-.153 10.413-1.162 3.325-1.015 6.416-2.762 8.879-5.137l.059.044z"/><path fill="#12111f" d="M144.721 54.63c2.573-1.87 5.635-2.864 8.667-3.04a19.4 19.4 0 0 1 3.318 0c1.936.242 3.822.783 5.576 1.601 1.754.811 3.376 1.951 4.699 3.37 1.161 1.263 2.141 2.725 2.784 4.31.826 2.04.942 4.334.358 6.373-.168.643-.344.511-.607-.044-.139-.278-.277-.665-.482-1.103-.197-.439-.446-.936-.563-1.455-.182-.935-.57-1.783-.92-2.601-.366-.811-.753-1.622-1.309-2.331a14 14 0 0 0-1.812-2.01 13.6 13.6 0 0 0-2.229-1.703c-1.944-1.242-4.435-1.651-6.796-1.739-2.609-.066-5.269.417-7.593 1.622-1.425.746-2.711 1.762-3.712 3.019-1.549 1.995-2.894 4.23-3.347 6.671-.365 1.893-.146 3.793.409 5.576.11.395.278.768.388 1.17.219.745.38 1.234.402 1.622 0 .402-.073.68-.227.942-.066.125-.117.264-.183.351-.116.146-.314.103-.606-.095-.285-.204-.731-.533-1.023-1.11-1.038-1.623-1.644-3.625-1.769-5.722-.153-2.105.271-4.268 1.053-6.22.584-1.454 1.359-2.798 2.229-4.04.416-.607.928-1.25 1.468-1.857l.863-.855.928-.774.044.051zM114.402 79.872c.753-2.872 2.28-5.59 4.494-7.607.804-.731 1.652-1.433 2.594-1.973a15.2 15.2 0 0 1 5.342-1.79c1.878-.25 3.815-.096 5.605.482 1.593.504 3.062 1.315 4.356 2.302.431.3.811.657 1.198 1 .395.344.746.724 1.067 1.133.336.395.577.863.855 1.294.066.11.139.219.19.336l.132.373.255.73c.198.614.03.6-.526.337-.541-.285-1.637-.644-2.375-1.36-.182-.146-.365-.285-.541-.438-.16-.16-.314-.329-.482-.475-.351-.278-.672-.6-1.038-.855-.365-.249-.708-.54-1.096-.738l-.562-.336c-.19-.103-.395-.183-.592-.278-.775-.395-1.601-.665-2.441-.899-.855-.175-1.725-.314-2.631-.292-2.17-.037-4.384 1.038-6.248 2.258-2.046 1.388-3.639 3.442-4.56 5.817a14.5 14.5 0 0 0-.994 4.611c-.124 2.397.271 4.881 1.294 7.052.796 1.688 2.024 3.084 3.405 4.195.322.226.621.46.957.672 1.162.87 1.52 1.184 1.542 1.892 0 .161.037.33.022.475-.029.249-.226.38-.577.41s-.862-.051-1.454-.315a9 9 0 0 1-1.286-.65c-.395-.27-.812-.54-1.184-.862-.775-.614-1.447-1.36-2.076-2.141a15.6 15.6 0 0 1-2.623-5.423c-.782-2.908-.797-6-.088-8.93l.066.015zM116.206 114.06c-.161 1.951.146 3.975 1.052 5.751q.275.47.57.928c.19.307.439.563.636.862 1.593 1.966 3.888 3.632 6.518 4.224 1.162.256 2.375.263 3.552.117.373-.08.745-.146 1.118-.234l1.096-.351c.358-.146.731-.255 1.111-.372.373-.125.731-.3 1.111-.446.467-.183.519-.022.292.424-.227.431-.694 1.264-1.557 1.87-1.585.892-3.456 1.418-5.334 1.396a11.45 11.45 0 0 1-5.335-1.476c-.957-.548-1.914-1.125-2.791-1.834-.863-.716-1.696-1.513-2.353-2.456-1.433-2.038-2.193-4.486-2.324-6.905-.015-.373-.037-.746-.037-1.118l.088-1.111a7 7 0 0 1 .153-1.104c.073-.365.125-.73.22-1.088.548-2.178 1.615-4.18 2.959-5.927.278-.329.541-.658.804-1.001.263-.336.585-.621.87-.943l.445-.468.49-.416c.329-.278.658-.563 1.023-.789.329-.19.636-.402.979-.585a3.24 3.24 0 0 1 1.44-.453c.343-.007.585.102.818.322.11.102.227.197.307.306.256.373-.109.936-.847 1.447a27 27 0 0 0-2.982 2.638c-.943.921-1.717 2.01-2.36 3.157a13.4 13.4 0 0 0-1.652 5.62h-.066zM162.04 171.584c1.235.482 2.514.877 3.822 1.133.482.08.965.109 1.44.19 1.681.277 3.427.365 5.086.022.738-.154 1.418-.468 2.031-.826.402-.234.731-.541 1.053-.862.307-.322.672-.644.906-1.075.175-.255.27-.204.358.117.037.154.11.402.102.687 0 .285-.029.636-.182.965-.293.555-.731 1.008-1.192 1.417-.467.388-.979.746-1.534.936-1.096.438-2.236.628-3.354.65-1.33.022-2.697.124-4.034-.014-1.462-.183-2.879-.534-4.268-.98-.855-.263-1.681-.606-2.506-.942-1.243-.534-2.441-1.177-3.589-1.856-.891-.534-1.812-1.009-2.667-1.63-.19-.132-.38-.263-.555-.417-.665-.562-.716-.906-.483-1.381.059-.109.103-.226.176-.329.234-.321.716-.328 1.22-.036 1.491.869 2.989 1.746 4.568 2.55 1.161.614 2.367 1.184 3.624 1.63l-.014.051zM128.168 225.853a89 89 0 0 1 2.317-5.722c.3-.687.555-1.396.884-2.068a82 82 0 0 1 3.859-6.935l.899-1.513c.292-.504.57-1.023.891-1.505.409-.629.789-1.272 1.206-1.893.475-.585 1.03-1.111 1.593-1.615.365-.307.606-.044.731.534.109.57.197 1.498-.11 2.28-1.359 2.601-2.945 5.027-4.575 7.541-.496.745-.906 1.557-1.278 2.397-.388.826-.731 1.681-1.097 2.521a134 134 0 0 0-2.323 5.576c-.424 1.169-.877 2.331-1.235 3.515-.585 1.79-1.133 3.603-1.528 5.437-.299 1.425-.416 2.857-.555 4.282-.029.314-.044.629-.095.936-.212 1.154-.548 1.483-1.155 1.651-.146.037-.285.095-.416.11-.446.051-.76-.49-.892-1.403-.102-.68-.058-1.352-.014-2.032.051-.68.117-1.359.226-2.039.19-1.366.49-2.726.819-4.085a79 79 0 0 1 1.79-5.977l.066.014z"/><path fill="#12111f" d="M132.467 210.483c.066-.651.198-1.301.351-1.937.066-.227.051-.468.139-.694.27-.789.628-1.52 1.001-2.214.176-.307.307-.622.453-.929.154-.409.344-.803.695-1.11.109-.095.321.029.518.248.198.219.417.548.388.797a9 9 0 0 1-.307 1.22c-.103.402-.293.76-.519 1.118-.27.431-.278.95-.373 1.425q-.155.788-.212 1.608c-.014.336-.022.679-.014 1.03.014.526.022 1.074.131 1.601.081.409.256.803.38 1.205a.9.9 0 0 1 .044.271c-.015.351-.146.482-.548.621-.095.029-.183.066-.27.088a.83.83 0 0 1-.812-.234c-.146-.168-.35-.322-.438-.504-.11-.176-.197-.359-.285-.541-.19-.373-.256-.768-.314-1.177-.073-.606-.132-1.242-.081-1.9h.052z"/><path fill="#12111f" d="M122.026 192.084c-5.255 7.724-9.968 15.85-13.892 24.327-1.418 3.099-2.66 6.27-3.822 9.456-1.016 2.814-1.893 5.664-2.558 8.558-.65 2.879-1.089 5.831-.928 8.681l.08 1.067.044 1.198c.044.344.066.687.124 1.031l.22 1.03c.372 1.359.898 2.697 1.629 3.946l.563.928.278.468.336.431c.453.57.891 1.155 1.352 1.725 1.045 1.03 2.002 2.156 3.2 3.04l1.528 1.25c.533.387 1.096.73 1.651 1.103l1.659 1.089c.556.358 1.169.628 1.747.95l1.761.928.877.46.913.395q1.833.779 3.654 1.556c3.201 1.148 6.416 2.288 9.734 3.106l2.47.68c.811.263 1.644.46 2.477.658l4.984 1.22c2.068.526 1.754.687-.073.621a78 78 0 0 1-3.778-.241c-1.564-.146-3.42-.256-5.342-.811-6.884-1.571-13.702-3.822-20.008-7.337-3.077-1.878-6.154-3.881-8.653-6.636l-.489-.489c-.161-.168-.293-.358-.439-.541l-.869-1.096c-.614-.702-1.053-1.542-1.557-2.339-.117-.204-.256-.394-.358-.606l-.3-.643-.584-1.294c-.3-.906-.629-1.805-.79-2.762-.138-.555-.175-1.147-.24-1.725l-.023-.438c0-.153-.014-.307-.007-.351v-.117l-.022-.212-.036-.423c-.037-.563-.132-1.14-.11-1.703l.015-1.688c.153-2.229.445-4.443.928-6.606.913-4.334 2.309-8.536 3.909-12.599 3.566-8.915 8.083-17.378 13.14-25.482 3.127-4.976 6.474-9.821 10.077-14.469a128 128 0 0 1 8.718-10.15c3.091-3.223 6.365-6.27 9.96-8.923.578-.409 1.133-.833 1.71-1.235.643-.409 1.279-.826 1.908-1.228.219-.08.409-.248.657-.248.241 0 .468.058.702.131.226.081.46.183.679.278l.475.219 1.827.877a45 45 0 0 0 3.647 1.542c2.455.906 4.976 1.586 7.549 1.849 1.417.146 2.806.153 4.231.044 2.631-.219 4.311-.709 5.517-.994 1.213-.27 1.951-.424 2.587-.475.292-.022.651-.11.841-.102.314 0 .021.365-.819 1.001a13.7 13.7 0 0 1-4.319 2.163c-3.946 1.235-8.316 1.169-12.43.234-2.068-.453-4.078-1.155-6.014-1.995a64 64 0 0 1-2.85-1.323l-1.345-.65c-.051-.015-.037-.008-.058 0l-.022.022-.322.204-.672.431c-.453.271-.884.607-1.323.921l-1.308.957-1.272 1.023c-1.702 1.367-3.325 2.865-4.918 4.4-6.657 6.504-12.474 14.001-17.757 21.799l-.066-.03z"/><path fill="#12111f" d="M147.058 259.344c2.054-2.996 4.473-5.656 7.06-8.111l.92-.884.147-.139c.051-.044.058-.059.087-.095.059-.059.066-.154 0-.205-.102-.08-.234-.117-.38-.153-.058-.015-.022-.015-.19-.037l-.387-.058-.818-.103-3.347-.343c-2.251-.227-4.517-.49-6.767-.884-1.995-.351-4.012-.753-5.963-1.367-1.257-.387-2.507-.862-3.669-1.542a12.3 12.3 0 0 1-1.666-1.154 3.8 3.8 0 0 1-.702-.738 11 11 0 0 1-.591-.834c-.424-.745-.183-.752.526-.504.365.11.855.263 1.447.388.555.16 1.103.423 1.702.73 2.105 1.075 4.443 1.886 6.899 2.434 2.455.562 4.991.942 7.571 1.293 1.541.219 3.135.344 4.764.497.409.037.811.081 1.25.139l.402.059c.168.029.336.051.497.087.328.066.65.146.935.256.577.219 1.001.511 1.242.994.117.256.117.555.059.782-.073.234-.132.467-.351.672l-1.345 1.352-.321.321-.234.227-.475.446a62 62 0 0 0-1.856 1.834 47 47 0 0 0-3.42 3.924c-1.301 1.688-2.492 3.471-3.413 5.371-.679 1.44-1.257 2.953-1.454 4.48-.088.753-.095 1.542.139 2.148.117.3.285.541.489.665.205.125.432.154.76.088 1.133-.226 2.229-.76 3.208-1.432.987-.672 1.893-1.469 2.726-2.331.366-.38.694-.782 1.06-1.162.679-.716 1.089-1.213 1.432-1.528.373-.299.636-.453.906-.555.125-.044.263-.124.358-.139.161-.029.19.168.125.578a4.8 4.8 0 0 1-.643 1.731q-.449.779-.972 1.513c-.358.49-.775.928-1.199 1.367a16.5 16.5 0 0 1-2.894 2.346c-1.081.679-2.28 1.256-3.675 1.541-.095.015-.161.037-.278.052l-.387.029a3 3 0 0 1-.819-.088c-.577-.131-1.081-.504-1.432-.899-.68-.825-.848-1.68-.928-2.419-.103-1.118.051-2.111.27-3.069.227-.95.534-1.863.906-2.726.738-1.739 1.652-3.347 2.668-4.881l.043.022zM207.174 190.746l-5.926-7.103-2.222-2.529a291 291 0 0 0-3.843-4.509 120 120 0 0 0-3.947-4.399c-1.198-1.271-2.492-2.455-3.8-3.573-1.71-1.425-3.5-2.646-5.152-4.151-.526-.468-.401-.533.256-.497.322.022.819.022 1.381.11a5.8 5.8 0 0 1 1.747.65c.256.154.519.292.775.453l.708.534c.475.35.928.723 1.382 1.103a42 42 0 0 1 2.608 2.339 67 67 0 0 1 4.772 5.086c1.791 2.126 3.778 4.216 5.627 6.357l6.022 7.111a267 267 0 0 0 3.734 4.333c1.915 2.156 3.837 4.326 5.89 6.307 1.593 1.542 3.31 2.886 5.035 4.172.38.293.775.519 1.155.812 1.461.957 1.732 1.534 1.834 2.141.022.139.066.292.066.409 0 .197-.205.256-.585.241-.373-.029-.972-.088-1.593-.409-3.676-1.944-6.774-4.925-9.69-7.958-2.17-2.266-4.224-4.633-6.27-6.986z"/><path fill="#12111f" d="M237.129 218.932c-1.52 1.666-3.142 3.259-4.918 4.706-1.783 1.44-3.734 2.74-5.97 3.61-.819.3-1.674.555-2.558.701-.439.095-.906.088-1.352.125-.453.022-.862-.044-1.294-.073-3.018-.263-5.831-1.235-8.469-2.441-2.646-1.213-5.108-2.719-7.461-4.363-2.083-1.461-4.129-2.996-6.051-4.626-2.477-2.068-4.933-4.267-6.643-7.081-.541-.862-.394-.789.314-.277.351.255.863.606 1.499.986.599.417 1.3.906 1.995 1.491 4.801 4.282 9.96 8.199 15.594 11.327q.646.32 1.294.65l.657.322.68.27q.678.261 1.366.533c.461.154.936.278 1.404.417.928.314 1.892.409 2.842.607.475.051.95.065 1.425.102.234.015.475.044.709.044l.672-.044c.249 0 .49-.051.738-.102.242-.052.49-.081.739-.154.482-.161.979-.278 1.446-.504.965-.373 1.871-.921 2.77-1.491 1.783-1.169 3.42-2.616 4.962-4.158 1.893-1.907 3.647-3.975 5.298-6.124a104 104 0 0 0 6.899-10.216c1.622-2.74 3.003-5.539 4.384-8.36.3-.621.57-1.242.921-1.849.314-.562.585-1.03.818-1.418.249-.38.483-.664.68-.906.402-.467.702-.708 1.016-.869.139-.073.292-.183.402-.219.336-.117.182.986-.344 2.864q-.37 1.007-.752 2.024c-.264.673-.585 1.323-.892 1.988a93 93 0 0 1-1.988 3.946 100 100 0 0 1-4.574 7.754c-2.463 3.763-5.152 7.417-8.185 10.815l-.044-.036zM232.018 181.275a71 71 0 0 1-2.528 4.304c-.344.504-.614 1.052-.972 1.535-1.235 1.746-2.704 3.296-4.107 4.852-.629.687-1.206 1.418-1.805 2.112-.797.877-1.462 1.863-2.536 2.492-.402.139-.409.066-.46-.387-.03-.234-.015-.512.014-.833.022-.161.037-.337.088-.49.058-.154.132-.307.227-.446 1.308-2.046 2.945-3.778 4.574-5.532.987-1.045 1.769-2.309 2.594-3.493a41 41 0 0 0 2.5-4.092c.453-.877.898-1.761 1.3-2.675.614-1.374 1.213-2.769 1.696-4.194.358-1.111.599-2.244.899-3.355.065-.248.109-.497.182-.738.3-.899.585-1.125 1.17-1.147.131 0 .27-.022.394-.015.424.044.636.527.599 1.25-.087 1.067-.314 2.127-.592 3.186-.285 1.052-.701 2.09-1.096 3.128a59 59 0 0 1-2.09 4.553l-.051-.022z"/><path fill="#12111f" d="M253.436 186.341c-2.104-.731-4.019-1.711-5.861-2.799-.672-.402-1.359-.76-2.002-1.199-2.265-1.549-4.355-3.339-6.27-5.291-.833-.877-1.703-1.732-2.477-2.667-.965-1.206-2.002-2.441-2.39-3.997-.139-.475.161-.548.687-.38.263.08.592.212.928.394.176.088.366.176.526.3.154.124.293.263.417.431 1.878 2.229 3.807 4.414 5.992 6.511 1.301 1.265 2.923 2.251 4.494 3.223 1.732 1.067 3.53 2.054 5.401 2.814 1.14.467 2.346.869 3.471.986.27.029.526.037.775-.08.248-.147.226-.468.212-.717-.008-.073 0-.124-.03-.219l-.058-.321c-.059-.212-.11-.431-.183-.643a10.5 10.5 0 0 0-.519-1.272c-.628-1.293-1.564-2.39-2.528-3.413-.212-.226-.453-.423-.665-.65-.811-.818-.884-1.264-.687-1.863.044-.139.073-.285.131-.395.095-.197.293-.27.585-.241.285.029.702.124 1.089.416 1.155.833 2.141 1.937 3.003 3.157.848 1.243 1.564 2.602 1.988 4.224.117.431.358 1.739.073 2.624-.051.102-.044.241-.139.321l-.16.322c-.044.117-.139.19-.22.277-.087.081-.16.183-.27.234-.205.124-.387.278-.629.344-.226.08-.445.175-.708.19-.249.022-.497.08-.753.08l-.65-.037c-.307-.043-.636-.08-.921-.146a14 14 0 0 1-1.681-.445l.015-.059zM181.865 229.461c.146-2.324.387-4.633.636-6.943.095-.84.131-1.688.241-2.521.417-2.952.913-5.89 1.527-8.791.271-1.294.483-2.594.724-3.88.161-.826.234-1.667.475-2.478.212-.811.467-1.622.76-2.411.19-.49.482-.351.752.153.264.504.556 1.396.49 2.353-.11 1.703-.453 3.354-.694 5.028-.263 1.673-.548 3.34-.943 5.006-.453 1.995-.57 4.121-.782 6.197-.248 2.28-.453 4.567-.599 6.862-.08 1.41-.161 2.82-.168 4.231-.029 2.134-.059 4.289.139 6.394.146 1.637.511 3.215.877 4.772.095.336.212.665.263 1.008.102.651.182 1.06.131 1.382-.058.328-.204.555-.431.774-.102.102-.197.219-.299.3-.176.124-.38.08-.629-.11-.241-.19-.533-.526-.76-1.008-.687-1.418-1.03-2.967-1.308-4.517-.27-1.556-.417-3.142-.512-4.735-.138-2.353-.087-4.721.03-7.066h.08M170.291 189.341a17 17 0 0 0 .629-2.784c.051-.351.036-.709.08-1.067.175-1.257.292-2.543.417-3.837.051-.577.051-1.154.043-1.724a6.5 6.5 0 0 1 .22-2.207c.065-.227.343-.198.65 0 .3.197.687.548.782.972.197.745.183 1.483.212 2.236.015.745-.007 1.498-.154 2.258-.153.906-.058 1.856-.124 2.799-.087 1.037-.204 2.082-.438 3.12a9 9 0 0 1-.234.957c-.08.315-.168.636-.278.943-.299.95-.796 1.827-1.22 2.711-.19.329-.344.672-.504 1.023-.19.329-.38.651-.6.958-.095.138-.19.27-.307.387-.438.438-.665.504-1.03.358-.08-.037-.168-.059-.241-.095-.241-.139-.278-.482-.146-.914.102-.314.212-.628.285-.95l.314-.898q.173-.426.38-.841c.11-.285.227-.562.343-.84.139-.424.329-.833.439-1.272.058-.219.161-.424.226-.643l.19-.665h.059zM117.677 280.083c-.03-1.308.065-2.608.204-3.895.066-.467.059-.942.132-1.41.299-1.644.76-3.237 1.271-4.794q.339-1.041.643-2.082c.125-.446.256-.892.41-1.33a3.15 3.15 0 0 1 .869-1.148c.3-.182.468-.066.79.322.16.197.336.446.511.731.154.277.241.555.241.818-.204.862-.475 1.695-.723 2.536-.11.424-.293.833-.453 1.249-.154.417-.336.833-.505 1.25-.409 1.008-.482 2.134-.621 3.215a35 35 0 0 0-.336 3.61c0 .746-.044 1.498.037 2.244.036.563.073 1.133.16 1.695.066.563.161 1.126.315 1.674.197.855.614 1.637.935 2.433.088.176.161.344.227.519.219.672.138.943-.3 1.279-.102.08-.197.161-.3.226-.343.212-.767.052-1.118-.409-.241-.343-.548-.687-.723-1.074a16 16 0 0 1-.519-1.191c-.175-.402-.285-.826-.409-1.25-.117-.424-.241-.848-.322-1.286-.124-.643-.256-1.293-.307-1.958l-.102-.987-.051-.987h.058zM177.175 332.294c5.788.862 11.576 1.746 17.356 2.528 5.781.804 11.576 1.535 17.327 1.944l3.142.161c1.045.029 2.054-.051 3.077-.066 1.015 0 2.068-.11 3.105-.219a73 73 0 0 0 3.092-.402c3.602-.556 7.117-1.506 10.238-3.208a22 22 0 0 0 4.297-3.084 22.5 22.5 0 0 0 3.346-4.114c1.864-3.033 3.019-6.512 2.872-10.07-.065-1.769-.336-3.552-.913-5.262a25.5 25.5 0 0 0-2.192-4.976c-1.586-2.836-3.603-5.459-5.832-7.885-2.221-2.434-4.64-4.692-7.14-6.833-6.401-5.532-13.541-10.202-20.271-15.427-2.09-1.644-1.739-1.527.321-.57 2.069.95 5.89 2.682 9.99 5.437 7.176 4.969 14.257 10.297 20.133 17.078 1.461 1.696 2.85 3.479 4.056 5.401s2.301 3.946 3.083 6.145c.775 2.185 1.272 4.517 1.33 6.884.052 2.361-.285 4.758-1.11 6.965-.958 2.645-2.375 5.086-4.173 7.278a22.9 22.9 0 0 1-6.511 5.422c-2.478 1.396-5.152 2.368-7.856 3.048-2.711.665-5.452 1.045-8.155 1.293-1.513.08-3.055.102-4.568.124l-4.479-.234c-1.491-.102-2.96-.27-4.436-.401l-2.214-.22-2.2-.27-4.406-.541-4.392-.599c-2.931-.395-5.847-.819-8.77-1.242l-21.543-3.135c-10.874-1.535-21.813-2.989-32.658-3.983-8.426-.819-16.727-1.125-25.065-1.308-1.834 0-3.632.007-5.488.014-3.435-.08-5.686.044-7.271-.102-1.593-.139-2.514-.38-3.274-.753-.344-.168-.797-.328-1.001-.496-.344-.278.175-.556 1.425-.834s3.222-.562 5.765-.701l1.418-.088 1.418-.029 2.857-.044c1.907-.014 3.837-.066 5.766-.029l5.817.175c.972.037 1.951.066 2.93.103.972.058 1.951.124 2.931.182 1.958.132 3.924.256 5.89.388 1.965.138 3.931.343 5.911.511 3.947.336 7.9.782 11.854 1.228 11.743 1.352 23.472 3.062 35.164 4.743v.08z"/><path fill="#12111f" d="M127.394 289.619c7.556.329 15.075 1.089 22.537 2.156 2.725.395 5.451.76 8.155 1.25 9.536 1.768 18.956 4.15 28.142 7.249 4.07 1.388 8.133 2.872 12.079 4.516 2.529 1.074 5.057 2.156 7.505 3.413 1.235.606 2.412 1.33 3.61 2.002.293.175.607.329.885.534l.811.65c.541.431 1.096.84 1.644 1.257 1.352 1.059 1.125.972-.285.541-.709-.205-1.717-.505-2.974-.76-1.228-.307-2.551-.855-3.954-1.513l-1.885-.833-1.863-.877-3.779-1.644-3.821-1.542-3.866-1.454a235 235 0 0 0-15.785-5.196c-6.401-1.878-13.256-3.106-19.986-4.217-7.41-1.198-14.886-2.09-22.384-2.572-4.611-.292-9.244-.46-13.841-.322-1.724.073-3.5.154-5.115.432-.402.08-.68.146-1.096.336-.387.153-.767.321-1.147.519-.768.358-1.499.803-2.229 1.249-2.901 1.834-5.561 4.078-7.915 6.584-3.61 3.939-6.547 8.339-8.886 13.067-.497 1.052-1.008 2.068-1.49 3.135-.87 1.995-1.491 3.281-1.93 4.201-.467.899-.891 1.374-1.322 1.725-.19.161-.395.395-.534.475-.241.146-.27-.226-.212-1.059.015-.424.117-.943.249-1.557.139-.614.3-1.33.599-2.105.424-1.147.811-2.316 1.279-3.463.497-1.133.964-2.302 1.513-3.428 1.132-2.251 2.375-4.479 3.821-6.613 1.396-2.171 3.062-4.18 4.823-6.117 1.813-1.9 3.749-3.698 5.869-5.305a34 34 0 0 1 5.064-3.208l.687-.344.73-.307c.242-.102.468-.204.826-.299l.49-.132c.153-.036.27-.051.409-.073a19 19 0 0 1 1.549-.212c.505-.066.987-.088 1.484-.131 3.902-.249 7.717-.198 11.539-.081v.073"/><path fill="#12111f" d="M86.773 296.371c.307-.358.643-.687.972-1.023.373-.337.76-.702 1.155-.972.782-.6 1.615-1.045 2.455-1.484.621-.285 1.213-.643 1.871-.855 2.265-.833 4.765-1.016 7.147-.665.533.066 1.052.227 1.578.336.505.183 1.023.344 1.513.556a6.46 6.46 0 0 1 3.062 2.63c.227.351.015.446-.438.424a5.714 5.714 0 0 1-1.294-.226c-.161-.044-.329-.073-.482-.139-.271-.117-.556-.197-.789-.336l-.768-.314c-.241-.125-.519-.176-.782-.256-.263-.066-.519-.176-.796-.198-1.067-.277-2.214-.343-3.398-.358-.716 0-1.44.147-2.156.351-.35.11-.716.212-1.067.336l-1.045.402c-1.505.629-2.989 1.433-4.114 2.536-.731.723-1.41 1.513-2.024 2.368a32.5 32.5 0 0 0-2.522 4.114c-.57 1.125-1.052 2.28-1.63 3.413-.13.248-.24.504-.386.745-.585.855-.987 1.089-1.491.972-.117-.022-.241-.037-.336-.08-.168-.074-.249-.249-.27-.483-.023-.241.007-.497.123-.869.71-2.112 1.579-4.239 2.77-6.358.87-1.579 1.893-3.15 3.12-4.597l.052.037z"/><path fill="#12111f" d="M58.307 315.926c-.606.416-1.103.884-1.418 1.337-.306.468-.402.826-.306 1.213.058.358.38.775.928 1.082.54.307 1.213.541 1.914.679.256.059.512.095.775.125.27.022.577.036.862.051.577.036 1.155.066 1.74.08 4.106.241 8.33-.183 12.576-.679 1.885-.212 3.785-.519 5.678-.746 1.213-.161 2.44-.314 3.683-.329.614-.022 1.242-.022 1.864.059.62.073 1.235.234 1.841.394.76.212.621.519-.037.98-.328.226-.789.526-1.322.803-.27.147-.556.315-.862.417a5 5 0 0 1-.958.168c-2.36.27-4.757.431-7.19.724-2.434.263-4.919.533-7.447.643l-4.626.263c-.782.044-1.578.044-2.36.065-.797-.043-1.586-.036-2.375-.146l-1.301-.146c-.468-.066-.92-.161-1.374-.285-.899-.263-1.798-.628-2.623-1.228-.41-.314-.804-.665-1.133-1.118a3.7 3.7 0 0 1-.65-1.578c-.205-1.155.263-2.295.847-3.069.731-.994 1.66-1.637 2.543-2.244a20 20 0 0 1 2.814-1.578c2.938-1.381 6.065-2.09 9.054-2.901a50.5 50.5 0 0 0 6.665-2.302c.467-.198.898-.424 1.374-.621.423-.19.774-.359 1.074-.475.314-.103.577-.161.796-.212.446-.088.768-.037 1.104.109.153.066.329.11.446.19.197.132.168.373-.052.716-.11.176-.27.373-.475.6a4 4 0 0 1-.767.679 21 21 0 0 1-2.989 1.652 34 34 0 0 1-3.215 1.176c-2.17.68-4.363 1.191-6.482 1.776-3.142.848-6.146 1.9-8.58 3.727l-.043-.044zM236.213 282.316c3.143 2.068 6.205 4.312 9.011 6.892 1.03.928 2.053 1.885 2.981 2.937 1.623 1.856 3.07 3.917 4.122 6.19.263.57.526 1.14.716 1.732.102.299.219.584.314.884l.249.906c.182.599.27 1.22.387 1.834.066.621.154 1.235.168 1.864a20 20 0 0 1-.738 6.533c-.409 1.345-.95 2.667-1.725 3.851a11 11 0 0 1-1.315 1.659c-.124.124-.234.263-.365.38l-.417.329a8 8 0 0 1-.855.614c-.738.467-.679.321-.307-.322.198-.314.417-.796.658-1.359.117-.285.263-.57.416-.862.161-.293.3-.622.483-.929a16.7 16.7 0 0 0 2.082-7.293c.074-1.271 0-2.557-.211-3.829-.037-.321-.103-.636-.154-.95a7 7 0 0 0-.205-.943c-.08-.314-.146-.628-.233-.935l-.307-.928c-.526-1.469-1.316-2.894-2.266-4.224-.964-1.323-2.082-2.558-3.222-3.741-2.543-2.602-5.437-4.911-8.485-7.008a100 100 0 0 0-5.765-3.698 170 170 0 0 0-9.106-5.057c-2.389-1.228-4.794-2.317-7.176-3.53-.526-.27-1.045-.511-1.571-.796-1.922-1.082-2.426-1.63-2.55-2.324-.03-.154-.095-.322-.088-.446.007-.409.964-.27 2.419.373 4.297 1.944 8.827 4.063 13.285 6.467a142 142 0 0 1 9.807 5.7l-.029.051zM189.584 259.629c-2.762-.351-5.627-.388-8.521-.432-1.059-.021-2.119.022-3.186-.029-1.878-.087-3.778-.241-5.663-.555-.468-.088-.943-.168-1.411-.271l-1.395-.336c-.987-.292-1.827-.657-2.704-1.015-1.528-.629-3.062-1.265-4.582-1.893q-1.46-.581-2.931-1.162l-.73-.3-.709-.343c-.468-.234-.943-.461-1.411-.694-.584-.293-.445-.453.169-.527a9 9 0 0 1 1.242-.051c.256 0 .526.022.811.051.146.015.292.037.438.052.139.043.285.08.432.131 2.046.702 4.055 1.462 6.058 2.236.986.402 1.965.797 2.952 1.199.49.19.972.38 1.403.511l1.505.38c2.449.548 5.109.556 7.732.556 2.887.007 5.824-.022 8.777.16 1.819.125 3.646.359 5.444.768 2.718.592 5.378 1.673 7.695 3.281a25.3 25.3 0 0 1 4.794 4.311c.314.351.621.695.906 1.067.475.731.745 1.243.847 1.652.074.431.037.731-.087 1.023-.059.132-.088.285-.154.387-.109.168-.321.146-.643-.007a4.2 4.2 0 0 1-1.198-.884c-.314-.336-.673-.636-.958-.994-.299-.344-.591-.687-.891-1.03a34 34 0 0 0-1.856-1.959c-1.279-1.242-2.689-2.309-4.297-3.091a21 21 0 0 0-3.807-1.403 29 29 0 0 0-4.078-.753v-.051z"/><path fill="#12111f" d="m196.474 263.89.673.226c.387.234.482.314.665.446l.511.365.994.753c.285.227.621.395.899.643a30 30 0 0 1 2.799 2.726c.387.431.811.826 1.213 1.249.511.519 1.162 1.045 1.081 1.988-.014.278-.168.329-.562.351a64 64 0 0 0-.775.066c-.27 0-.475-.044-.65-.146-.519-.41-.885-.95-1.367-1.433-.446-.504-.921-1.008-1.352-1.586-.533-.672-1.301-1.132-1.98-1.673l-1.148-.87-.584-.423-.556-.388-.043-.029-.103-.044-.19-.066-.394-.131-.804-.249c-.87-.248-1.747-.511-2.631-.635-.687-.11-1.381-.066-2.046-.066-.146-.007-.292 0-.431-.015-.534-.073-.68-.204-.819-.679-.029-.11-.073-.212-.087-.322-.073-.351.16-.672.635-.833.344-.11.695-.205 1.045-.27a10 10 0 0 1 1.045-.044c.695 0 1.374.117 2.047.256.993.204 1.965.489 2.937.781l-.014.052zM196.98 275.997a42 42 0 0 0-1.754-.519l-1.337-.358a39 39 0 0 0-1.732-.417c-1.162-.248-2.324-.438-3.486-.511a9 9 0 0 0-1.235 0l-.241.022-.314.051-.658.095c-1.607.219-3.332.285-5.005.066-1.674-.227-3.325-.687-4.809-1.462-.343-.139-.65-.351-.972-.533-.314-.19-.658-.351-.95-.563l-.899-.643-.445-.322-.41-.365c-1.454-1.169-2.704-2.601-3.42-4.333-.212-.548-.087-.527.431-.322.256.11.658.219 1.024.439.387.197.767.482 1.176.767 2.507 2.397 5.225 4.384 8.557 5.174.994.212 2.047.314 3.113.226 1.082-.066 2.098-.277 3.289-.453.19-.014.395-.036.57-.051h.49c.328 0 .65.015.979.029.65.037 1.293.103 1.929.19a36 36 0 0 1 3.749.738l.212.059.124.036.263.081.548.175 1.191.395.505.168.263.08.131.037s.132.022.088-.03c-.11-.27-.241-.54-.439-.789-.336-.453-.818-.877-1.344-1.22-.212-.146-.446-.263-.665-.373l-.19-.08-.285-.139c-.19-.095-.388-.168-.585-.249a20 20 0 0 0-2.397-.789c-.358-.087-.716-.161-1.074-.263-.658-.204-1.096-.329-1.388-.526-.3-.161-.446-.395-.563-.687-.051-.131-.132-.256-.154-.365-.102-.322.563-.746 1.71-.695 1.703.03 3.391.527 5.028 1.214.205.087.409.175.607.277l.307.154q.262.13.526.285l1.023.65c.168.11.351.219.504.329l.431.358a10.6 10.6 0 0 1 2.558 2.799q.261.427.489.877l.139.394c.008.117 0 .234 0 .351-.007.11.015.241-.022.336l-.117.293-.058.146-.066.124a.6.6 0 0 1-.095.132c-.058.087-.182.138-.285.219-.182.175-.541.351-1.308.314-.402-.037-.994-.227-1.549-.395l-1.674-.518-.043-.074z"/><path fill="#12111f" d="M156.12 264.188c1.33.139 2.667.3 3.997.49.483.058.979.087 1.462.175 1.702.322 3.405.687 5.057 1.235.73.227 1.476.439 2.207.651.46.153.95.255 1.395.467.22.117.446.205.651.366.197.16.387.321.592.482.241.212.16.285-.161.402-.219.08-.446.161-.65.241-.132.044-.278.102-.417.124-.132.008-.27.008-.402-.014-.234-.059-.49-.052-.709-.117l-.687-.19c-.453-.139-.92-.234-1.374-.366l-1.381-.372c-.46-.132-.913-.293-1.381-.432-1.103-.372-2.324-.445-3.5-.613a75 75 0 0 0-3.924-.453 67 67 0 0 0-2.434-.183c-1.235-.066-2.477-.154-3.712-.154-.958.008-1.9.095-2.858.132-.211.007-.416.036-.628.029-.395 0-.65-.058-.826-.183-.175-.116-.27-.277-.343-.511-.037-.11-.081-.212-.095-.314-.059-.336.277-.636.847-.804a23.2 23.2 0 0 1 5.255-.351c1.33.037 2.674.132 4.019.227v.051zM313.046 223.061a404 404 0 0 0 8.368 1.483l3.069.453c3.595.599 7.198 1.162 10.801 1.71 1.6.249 3.215.453 4.808.65 1.023.117 2.054.242 3.069.417 1.023.146 2.039.373 3.048.628.621.19.54.183-.022.264-.336.043-.731.102-1.155.16a7.3 7.3 0 0 1-1.629.081c-2.112-.066-4.202-.351-6.3-.578a103 103 0 0 1-6.292-.891c-2.506-.424-5.144-.687-7.717-1.045a421 421 0 0 1-8.484-1.301l-5.21-.877c-2.624-.482-5.262-.957-7.863-1.432-2.024-.366-4.034-.629-6.044-.965-.445-.073-.884-.124-1.322-.219-1.645-.343-2.127-.636-2.375-1.162-.059-.124-.139-.248-.161-.365-.081-.38.658-.534 1.878-.424 3.61.424 7.344 1.169 11.115 1.841 2.799.512 5.612 1.031 8.418 1.542v.044zM310.168 232.377c2.623.49 5.247.972 7.885 1.396l2.893.424q5.086.833 10.195 1.6c1.505.234 3.032.424 4.538.607.964.109 1.936.226 2.894.387.964.139 1.922.365 2.872.607.584.19.504.182-.022.27-.322.051-.702.117-1.089.175a6 6 0 0 1-1.542.095c-1.995-.043-3.961-.314-5.941-.511a97 97 0 0 1-5.934-.826c-2.368-.395-4.852-.628-7.286-.965a324 324 0 0 1-8.009-1.213c-1.637-.277-3.281-.555-4.918-.825-2.478-.453-4.962-.914-7.418-1.367-1.914-.343-3.807-.585-5.7-.899-.416-.066-.833-.117-1.249-.204-1.549-.329-2.002-.614-2.222-1.155-.051-.124-.124-.256-.146-.365-.066-.388.629-.556 1.791-.468 3.412.373 6.935 1.081 10.486 1.717 2.638.49 5.291.979 7.929 1.469v.044zM307.061 251.975c2.404.461 4.816.906 7.242 1.294.884.146 1.775.234 2.66.38 3.113.504 6.24.986 9.361 1.454 1.388.212 2.784.38 4.165.548.892.102 1.776.205 2.66.358.885.124 1.761.336 2.631.57.541.183.468.175-.022.263-.307.051-.65.117-1.008.183a5.1 5.1 0 0 1-1.418.102c-1.834-.029-3.639-.278-5.459-.453a86 86 0 0 1-5.451-.753c-2.171-.365-4.458-.562-6.694-.862a248 248 0 0 1-7.359-1.111l-4.516-.767c-2.273-.431-4.553-.862-6.811-1.286-1.754-.314-3.493-.548-5.24-.826-.387-.058-.76-.11-1.147-.19-1.425-.3-1.834-.577-2.032-1.096-.043-.117-.109-.241-.131-.358-.059-.373.585-.548 1.652-.475 3.142.329 6.372.986 9.631 1.593l7.278 1.381v.044zM304.257 242.616c1.936.394 3.887.745 5.846 1.074.716.117 1.44.19 2.148.307 2.522.431 5.05.877 7.564 1.344 1.118.212 2.243.388 3.354.57.716.11 1.432.212 2.141.38.709.139 1.411.358 2.098.607.423.183.365.175-.037.263-.263.051-.548.11-.826.168a3.7 3.7 0 0 1-1.154.088c-1.484-.059-2.931-.314-4.392-.504a65 65 0 0 1-4.378-.739c-1.746-.343-3.588-.497-5.393-.738a211 211 0 0 1-5.955-.884 284 284 0 0 1-3.654-.636c-1.842-.321-3.683-.738-5.503-1.074-1.418-.256-2.828-.431-4.246-.643-.314-.051-.621-.08-.928-.139-1.147-.241-1.476-.497-1.615-1.001-.029-.117-.08-.234-.088-.351-.029-.372.505-.562 1.374-.533 2.558.204 5.167.738 7.798 1.257 1.951.365 3.902.796 5.86 1.147v.044zM296.106 267.006a180 180 0 0 0 3.837.797c.468.087.943.131 1.41.226l4.955.965c.731.139 1.476.241 2.214.336.475.051.943.109 1.41.212.468.073.929.241 1.389.424.278.146.241.146-.029.263l-.556.234a1.8 1.8 0 0 1-.767.182c-.987.073-1.944-.08-2.916-.168a24 24 0 0 1-2.894-.468c-1.147-.255-2.367-.328-3.558-.504-1.309-.19-2.609-.409-3.91-.628l-2.404-.409c-1.213-.205-2.426-.461-3.64-.644-.942-.146-1.885-.19-2.842-.336-.212-.029-.424-.051-.643-.102-.41-.088-.665-.256-.841-.431a.75.75 0 0 1-.19-.702c.022-.131.103-.263.22-.255h.043c.022 0 .044-.015.066-.03.022-.022.132-.095.212-.204.022-.022.037-.066.051-.073l.022-.015.037-.037q.052-.022.117-.043c.087-.022.197-.03.321-.03 1.535.095 3.296.373 5.013.673 1.286.212 2.573.489 3.866.738v.044z"/><path fill="#12111f" d="m278.993 250.675 1.827-8.995c.22-1.097.373-2.2.6-3.289.774-3.851 1.556-7.695 2.207-11.561.299-1.71.548-3.449.752-5.159.132-1.103.227-2.207.395-3.303.073-.548.153-1.103.241-1.651l.139-.819c.051-.27.161-.541.234-.811.226-.672.358-.57.614.044.306.621.628 1.739.57 3.032-.285 4.553-.899 9.084-1.908 13.571-.584 2.682-.979 5.51-1.498 8.265l-1.761 9.069a359 359 0 0 0-1.045 5.583c-.497 2.821-1.008 5.656-1.374 8.469-.285 2.193-.409 4.356-.57 6.533l-.088 1.433a6.2 6.2 0 0 1-.38 1.878q-.118.296-.27.482a2 2 0 0 1-.373.307c-.117.08-.226.183-.321.227-.271.146-.68-.629-.724-1.966-.043-3.954.483-8.082 1.089-12.197.453-3.062 1.038-6.102 1.593-9.142zM317.066 284.495l-9.865-1.578c-1.198-.19-2.412-.315-3.61-.505-4.231-.694-8.462-1.41-12.679-2.228-1.878-.344-3.763-.687-5.627-1.031-1.198-.256-2.397-.446-3.581-.811-1.169-.358-2.382-.658-3.456-1.33-.672-.387-.519-.446.183-.49.716-.073 1.885-.065 3.252.147 4.83.825 9.653 1.651 14.542 2.491 2.923.57 6.014.863 9.032 1.272l9.968 1.396 6.138.877c3.099.46 6.212.92 9.288 1.373 2.39.359 4.765.556 7.147.899.526.073 1.045.103 1.564.234.965.227 1.601.402 2.017.636.409.263.621.526.767.84.066.147.161.293.19.417.044.212-.146.358-.533.475-.387.11-.987.234-1.695.153-2.12-.131-4.275-.409-6.46-.694a176 176 0 0 1-3.296-.453c-1.111-.153-2.222-.3-3.333-.475-3.303-.512-6.62-1.03-9.938-1.549v-.059zM351.09 248.351l-1.82 8.726c-.219 1.059-.373 2.134-.599 3.193-.811 3.734-1.579 7.476-2.434 11.203-.365 1.659-.657 3.332-.979 4.984-.409 2.119-.826 4.253-1.381 6.343-.175.65-.343.533-.475-.066a10.6 10.6 0 0 1-.146-2.93c.212-2.2.409-4.407.782-6.585.351-2.177.687-4.37 1.213-6.533.606-2.594.972-5.342 1.469-8.016l1.68-8.821c.351-1.805.709-3.617 1.06-5.422.519-2.74 1.074-5.488 1.513-8.221.35-2.127.584-4.224.884-6.328.066-.468.11-.921.19-1.389.3-1.725.563-2.243 1.162-2.521.139-.066.278-.154.402-.183.431-.095.657.673.606 1.966a93 93 0 0 1-1.417 11.773c-.519 2.945-1.097 5.89-1.645 8.835h-.058zM328.197 217.644c-3.311-.541-6.643-.994-9.975-1.432-1.213-.169-2.441-.249-3.654-.417-4.29-.57-8.579-1.111-12.883-1.622-1.908-.227-3.83-.417-5.73-.592-1.22-.124-2.448-.212-3.668-.351a56 56 0 0 1-3.639-.592c-.753-.153-.614-.438.065-.687.68-.241 1.9-.489 3.311-.402 4.976.424 9.938.972 14.937 1.666 2.989.424 6.124.651 9.193 1.002 3.369.402 6.737.855 10.106 1.337 2.068.321 4.136.621 6.205.979 3.127.504 6.255 1.125 9.339 1.739 2.397.505 4.757.943 7.11 1.557.519.131 1.031.226 1.549.387 1.893.665 2.456.987 2.755 1.432.066.103.168.212.198.3.102.285-.738.256-2.163 0-1.06-.197-2.112-.431-3.194-.643-1.074-.227-2.148-.468-3.244-.658-2.185-.416-4.407-.84-6.629-1.271-3.31-.599-6.642-1.199-9.996-1.674v-.044z" opacity=".35"/><path fill="#12111f" d="M162.163 115.761c.702 1.615 1.754 3.12 2.952 4.399 1.199 1.279 2.792 2.514 4.626 2.726 1.637.197 3.289-.694 4.019-2.178.79-1.6.68-3.471.424-5.188-.263-1.732-.782-3.471-1.556-5.05-.278-.57-1.082-.723-1.601-.416-.577.336-.701 1.03-.416 1.6.058.11.11.226.161.336l.087.205-.007-.015c.11.3.227.592.329.892.226.679.424 1.373.57 2.082.27 1.25.431 2.77.146 3.888-.037.153-.088.3-.139.446-.058.182.132-.234-.014.044l-.088.175c-.059.11-.132.219-.205.322.146-.205-.124.116-.197.182-.219.198.117-.073-.051.037-.066.044-.124.08-.19.117a4 4 0 0 1-.241.124c.051-.022.19-.066-.015 0a4 4 0 0 1-.402.102c.249-.044-.197 0-.299 0-.066 0-.139-.007-.205-.014.241.029.007 0-.051-.015-.154-.044-.314-.08-.468-.132-.073-.021-.139-.051-.205-.08.176.073 0 0-.029-.022a7 7 0 0 1-.511-.278c-.614-.372-1.075-.767-1.63-1.337a13.6 13.6 0 0 1-2.77-4.121c-.248-.578-1.103-.709-1.6-.417-.599.351-.672 1.016-.417 1.6z"/><path fill="#12111f" d="M177.883 116.552c-1.257-2.024-2.507-4.107-3.508-6.387-.358-.833-.753-1.673-.994-2.587a11.5 11.5 0 0 1-.365-2.543c0-.884.146-1.819.511-2.674a8.1 8.1 0 0 1 3.435-3.75c1.279-.745 2.66-1.227 4.026-1.534.439-.11.885-.175 1.323-.256.446-.05.892-.095 1.337-.11.446-.014.885-.028 1.33.037.439.073.877.168 1.301.263.534.132.46.337.007.673-.226.168-.548.38-.92.62-.19.118-.388.25-.6.344-.212.08-.438.14-.665.176-.825.139-1.615.321-2.389.467-.782.168-1.513.41-2.214.687-.68.307-1.33.651-1.9 1.082-.549.446-1.075.928-1.506 1.527-.124.175-.285.365-.351.534l-.131.263-.088.292c-.124.387-.146.833-.146 1.279.037.906.3 1.863.628 2.806.739 2.09 1.893 4.129 3.121 6.124a174 174 0 0 0 2.36 3.676c.541.833 1.082 1.68 1.586 2.572.248.446.49.913.702 1.41.241.607.438 1.316.321 1.973-.022.161-.139.285-.226.41-.052.058-.095.124-.147.175l-.19.146c-.219.19-.504.322-.767.475l-.365.183c-.103.051-.205.095-.307.146-.409.19-.819.358-1.243.519a15.3 15.3 0 0 1-2.586.745c-.395.073-.79.154-1.199.176-1.542.102-2.061-.315-2.214-1.024-.044-.146-.102-.277-.117-.394-.022-.19.131-.329.402-.541.139-.131.292-.175.475-.248.183-.088.38-.095.599-.117a18 18 0 0 0 3.332-.76 15 15 0 0 0 1.63-.621c.124-.052.278-.125.358-.169v-.029h-.007l-.088-.182c-.402-.855-1.038-1.857-1.651-2.829l-1.944-2.974.051-.036z"/><path fill="#12111f" d="M177.869 116.332c.921 1.294 2.47 2.419 4.143 2.134 1.111-.19 2.112-1.052 2.631-2.031 1.038-1.966.753-4.356.431-6.46-.08-.505-.168-1.001-.256-1.506-.036-.226-.08-.445-.116-.672l-.022-.153c.029.219-.008-.088-.015-.147-.058-.628-.497-1.169-1.169-1.169-.585 0-1.228.534-1.169 1.169.065.709.204 1.418.328 2.12q.108.614.205 1.227c0 .044.044.329.029.212s.022.168.029.212c.03.234.052.468.066.694q.055.669.044 1.338c0 .226-.029.453-.044.679s.029-.131-.014.095c-.022.117-.037.227-.066.344-.044.19-.095.372-.154.555a1 1 0 0 1-.051.132c0-.008.088-.183.029-.066a3 3 0 0 1-.146.285c-.044.08-.102.153-.146.234-.102.182.11-.095-.036.051-.066.066-.125.131-.19.197q-.046.042-.103.095c-.117.11.154-.102.015-.014-.095.058-.183.124-.285.175l-.132.066c-.153.08.19-.051-.014 0-.227.066-.293.051-.541-.022-.438-.139-1.023-.607-1.272-.965-.365-.511-1.023-.76-1.6-.416-.504.299-.789 1.081-.416 1.6zM173.611 136.889c2.353 1.637 5.685 1.681 8.104.154.563-.358.84-1.155.46-1.747-.365-.562-1.147-.84-1.746-.46-.234.146-.483.263-.724.395.095-.052.154-.059.022-.008l-.241.088a4 4 0 0 1-.395.117c-.131.029-.263.066-.401.095-.066.014-.139.022-.205.036-.183.037.219-.022.036 0-.292.022-.584.044-.876.037q-.21 0-.41-.022c-.058 0-.153 0-.204-.022.08.037.197.029.036 0a8 8 0 0 1-.804-.19l-.387-.131c-.226-.081.11.058-.029-.008l-.183-.087a7 7 0 0 1-.753-.446c-.548-.38-1.446-.117-1.746.46-.344.651-.132 1.337.46 1.747zM168.07 100.517c-1.425-1.695-3.808-2.382-5.964-2.148-2.557.285-4.75 1.63-6.796 3.105-.555.402-.833 1.111-.46 1.747.321.555 1.184.862 1.746.46 1.652-1.191 3.457-2.455 5.525-2.755 1.491-.219 3.113.183 4.136 1.396.446.526 1.352.46 1.805 0 .526-.526.446-1.279 0-1.805zM182.34 78.185c.928-.27 1.651-.54 2.046-.708l-.197.102a7 7 0 0 1-1.849.606M236.28 185.453c.044-.176.117-.344.176-.512.022-.058.014-.124.036-.19.088-.219.183-.431.256-.65a1.4 1.4 0 0 0 .044-.3c0-.131-.037-.263.073-.38.066-.073.848.139.848.285 0 .263-.059.519-.205.767-.088.147-.066.315-.102.475-.044.176-.081.351-.139.519a4 4 0 0 0-.095.322c-.044.161-.095.321-.11.482-.014.124.022.256.029.387v.081c-.021.102-.087.124-.292.124h-.131c-.147-.015-.271-.073-.329-.153-.176-.249-.198-.497-.183-.731a4 4 0 0 1 .088-.526h.036M240.123 188.464c0-.117-.015-.241-.022-.365 0-.044-.037-.081-.037-.124-.022-.161-.044-.337-.117-.49a.5.5 0 0 0-.131-.175c-.073-.066-.168-.095-.183-.212-.014-.081.468-.534.599-.446.205.153.358.373.41.636.029.153.131.27.182.416.059.154.088.322.095.482q.014.156.015.3c.007.154-.015.3-.015.446 0 .109.03.226.022.343v.073c-.022.095-.073.117-.226.103h-.103c-.117-.03-.212-.088-.248-.146-.11-.183-.168-.344-.227-.49-.029-.11-.014-.227-.036-.344h.022zM243.572 190.009c.029-.088.08-.168.117-.248.015-.03.015-.066.029-.095.051-.103.117-.22.168-.315.022-.043.029-.095.037-.146.007-.066 0-.139.058-.19.037-.029.446.132.439.205a.8.8 0 0 1-.168.373c-.059.065-.059.153-.088.233s-.073.168-.102.256c-.022.051-.052.11-.073.154-.03.08-.074.153-.088.241-.015.066 0 .131 0 .197v.044c-.007.051-.044.058-.146.044l-.073-.015c-.081-.014-.139-.051-.154-.102a.75.75 0 0 1-.014-.38c.014-.088.043-.176.065-.263h.015zM139.994 265.424a7 7 0 0 1-.533-.176c-.066-.022-.132-.007-.197-.044-.212-.116-.417-.255-.614-.38a.8.8 0 0 0-.285-.095c-.125-.021-.278 0-.344-.168-.036-.102.526-1.118.629-1.096.204.044.38.146.54.358.103.132.249.103.373.146.139.059.278.125.424.176.088.029.183.066.27.087.139.03.285.066.424.066.11-.007.212-.087.314-.102.022 0 .044-.015.066-.015.088 0 .124.073.183.3l.036.153c.037.169.015.322-.051.417a1.3 1.3 0 0 1-.321.329 1.6 1.6 0 0 1-.373.124c-.19.015-.373-.015-.563-.037v-.029zM142.82 261.419a4 4 0 0 0-.271-.124c-.036-.015-.065.014-.102 0-.117-.066-.234-.154-.351-.212a.22.22 0 0 0-.153 0c-.066.029-.132.117-.197-.022-.044-.088.014-1.308.087-1.33.132-.029.271.015.402.19.081.102.168.044.249.073.087.029.182.073.27.11.058.022.11.051.168.065.088.022.168.066.256.044.066-.014.131-.102.197-.16.015-.015.029-.037.044-.044.051-.022.073.065.08.409v.234c.015.263-.007.482-.051.562-.117.234-.241.271-.358.278-.088 0-.183-.029-.278-.044v-.029zM167.71 186.56c-.329-.738-.336-1.659 0-2.39.11-.27.227-.533.41-.745.657-.753 1.571-1.009 2.389-1.038.366-.022.738 0 1.096.059.461.073.965.285 1.206.723.08.132-.139.285-.395.417-.255.124-.533.27-.665.248-.489-.102-.993 0-1.571.102-.35.088-.592.373-.752.614a1.16 1.16 0 0 0-.212.965c.036.219.131.46.299.665.241.307.585.599.987.694.314.095.614-.029.862-.073.059 0 .11-.036.161-.051.197-.051.365.11.57.314l.146.139c.132.139.146.387-.044.738-.351.351-.862.65-1.403.665-.541.059-1.059-.102-1.52-.343a3.68 3.68 0 0 1-1.615-1.681l.037-.022z"/><path fill="#12111f" d="M166.763 190.532c-.03-.855.299-1.571.701-2.134.146-.204.292-.416.482-.577.709-.585 1.535-.782 2.273-.855.329-.029.651-.066.965-.081.402-.021.811-.043 1.184.139.117.059.065.3-.059.534s-.321.489-.511.519c-.695.087-1.287.226-1.864.35-.373.081-.577.38-.76.651-.212.292-.394.628-.438.964-.022.205-.037.41.036.6a.88.88 0 0 0 .68.562.8.8 0 0 0 .636-.197c.029-.015.058-.044.087-.051.117-.029.234.014.585.175l.241.103c.256.102.424.372.27.752a1.9 1.9 0 0 1-.548.724c-.248.16-.533.292-.818.343-.585.146-1.177.015-1.71-.263a2.8 2.8 0 0 1-1.038-.957 2.95 2.95 0 0 1-.438-1.286h.051z"/><path fill="#12111f" d="M317.527 125.184s16.72 2.228 23.911 1.227c1.506-.212-1.827 18.671-.964 20.403.862 1.732-24.62 1.835-24.532-.095.087-1.929 1.585-21.535 1.585-21.535M256.055 93.833c.336-3.209.665-6.417.942-9.625.11-1.169.132-2.346.241-3.522.366-4.129.797-8.258 1.082-12.401.131-1.834.197-3.69.248-5.51.03-1.177.103-2.346.176-3.523l.058-.876.132-.877.285-1.754c.131-.731.27-.629.504 0 .117.314.27.76.446 1.293.087.27.168.563.248.87.044.153.066.314.124.475.015.16.022.329.037.497.044 1.206.102 2.404.11 3.61a197 197 0 0 1-.147 3.602 126 126 0 0 1-.548 7.22c-.292 2.887-.343 5.905-.584 8.857a546 546 0 0 1-.877 9.742c-.197 1.995-.402 3.99-.599 5.985-.3 3.018-.658 6.05-.921 9.054-.227 2.331-.249 4.64-.468 6.942-.051.504-.088 1.009-.153 1.513-.285 1.885-.578 2.462-1.045 2.821-.11.08-.212.19-.307.233-.307.147-.541-.657-.636-2.068-.066-1.045-.044-2.097-.066-3.164-.014-1.067.095-2.126.161-3.201.146-2.148.358-4.319.555-6.489.315-3.23.629-6.475.943-9.712h.059zM307.722 54.678a388 388 0 0 0-11.313-.65l-4.136-.096c-4.859-.168-9.719-.314-14.579-.343-2.155-.015-4.326.03-6.467.095-1.374.051-2.755.08-4.129.102h-2.068c-.687.015-1.381-.08-2.068-.124-.862-.088-.753-.256-.036-.563a24 24 0 0 1 1.483-.555c.621-.183 1.345-.3 2.141-.358 2.814-.212 5.627-.278 8.448-.292 2.821-.03 5.649 0 8.484.102 3.391.117 6.928.03 10.399.102 3.822.066 7.636.227 11.451.402 2.346.132 4.699.249 7.045.41 3.551.211 7.117.555 10.64.84 1.374.102 2.725.197 4.085.3 1.359.072 2.711.197 4.063.343.599.066 1.184.102 1.783.19 1.111.139 1.819.402 2.316.577.497.197.768.387.972.629.095.11.22.219.271.314.168.314-.775.468-2.426.511-4.86-.058-9.895-.635-14.989-1.03-3.778-.278-7.578-.643-11.378-.848v-.05zM334.621 95.2c.322-2.96.607-5.919.826-8.893.088-1.082.088-2.17.168-3.26.278-3.828.512-7.658.738-11.494.102-1.703.146-3.42.183-5.108.029-1.09 0-2.178.088-3.267.036-.54.08-1.089.131-1.63.044-.54.183-1.08.278-1.622.146-.672.292-.577.555 0 .132.293.314.702.504 1.199.168.497.271 1.074.315 1.703.08 1.11.073 2.221.058 3.332l-.058 3.332q-.047 1.664-.125 3.34c-.073 1.11-.16 2.229-.263 3.347-.248 2.674-.241 5.466-.409 8.206-.175 3.01-.409 6.029-.687 9.04-.168 1.849-.373 3.705-.563 5.546-.343 2.792-.687 5.598-1.023 8.375-.248 2.156-.416 4.282-.635 6.423-.052.468-.081.936-.176 1.403-.329 1.74-.57 2.266-1.14 2.558-.124.066-.248.161-.358.197-.343.117-.636-.657-.599-1.958.007-.482.014-.965.029-1.454.015-.49.073-.972.102-1.454.081-.972.176-1.959.285-2.945.19-1.974.468-3.969.702-5.971.373-2.967.723-5.956 1.023-8.937h.051zM296.833 143.092l-5.335-.453c-.65-.051-1.301-.059-1.951-.132-2.287-.248-4.568-.584-6.84-.928-1.009-.153-2.032-.241-3.026-.395-1.278-.211-2.623-.102-3.77-1.11-.38-.176-.329-.168.036-.263.176-.037.461-.256.789-.49.322-.19.68-.278 1.06-.329 1.308.095 2.609.168 3.902.373 1.294.197 2.587.424 3.888.672 1.557.307 3.208.322 4.816.453 1.776.139 3.551.278 5.334.38 1.097.066 2.193.139 3.296.183 1.666.066 3.34.168 5.006.197 1.293.022 2.572-.087 3.866-.109.285 0 .562-.037.855-.03 1.059.074 1.374.351 1.534.972.037.146.088.293.103.424.051.461-.424.833-1.191.972-2.266.256-4.612.102-7.001-.014-1.776-.088-3.566-.249-5.357-.329v-.052z" opacity=".35"/><path fill="#12111f" d="m303.051 69.591-8.309-.57c-1.009-.066-2.025-.08-3.033-.146l-10.684-.804a212 212 0 0 0-4.735-.314c-2.017-.102-4.041-.256-6.029-.716-.621-.168-.534-.168.007-.292.329-.074.716-.161 1.126-.256.233-.051.482-.117.752-.146.263-.03.548-.044.841-.052 2.068-.08 4.114.08 6.175.147 1.03.05 2.06.11 3.091.16 1.03.08 2.061.168 3.098.249 2.478.226 5.057.226 7.6.336l8.375.387c1.717.08 3.442.168 5.159.249 2.602.117 5.218.3 7.805.387 2.009.073 3.99.03 5.985.059.438 0 .869-.015 1.315.007 1.637.095 2.141.329 2.456.862.073.124.168.249.204.373.124.402-.563.701-1.768.796-3.559.168-7.286-.022-11.035-.19-2.784-.124-5.583-.314-8.375-.475v-.05zM290.348 90.93l-5.532-.424c-.673-.044-1.352-.044-2.024-.095-2.375-.198-4.758-.388-7.125-.585-1.053-.095-2.112-.153-3.165-.212-1.344-.058-2.696-.16-4.019-.555-.409-.147-.351-.147.015-.285.241-.088.504-.183.752-.27.315-.125.68-.22 1.067-.227 1.381-.124 2.741-.015 4.115.014 1.373.044 2.74.125 4.121.278 1.652.168 3.376.132 5.064.197l5.591.249 3.442.168c1.739.08 3.478.22 5.21.278 1.345.05 2.667-.015 3.997-.015.293 0 .585-.022.877 0 1.096.073 1.425.292 1.615.804.044.117.102.241.124.35.073.388-.402.68-1.205.79-2.375.204-4.853.066-7.345-.051-1.848-.088-3.712-.234-5.568-.351v-.044zM286.836 114.988a130 130 0 0 0-5.086-.394c-.621-.037-1.242-.015-1.863-.059-2.2-.146-4.392-.285-6.592-.431-.972-.073-1.958-.11-2.923-.153-1.242-.037-2.499-.125-3.719-.512-.38-.146-.322-.146.014-.285.227-.088.468-.183.694-.278.293-.124.622-.219.98-.233 1.271-.139 2.521-.044 3.785-.052.628.015 1.264.037 1.9.052.636.036 1.264.087 1.907.138 1.52.132 3.113.052 4.685.088q2.587.057 5.173.19c1.06.059 2.127.132 3.187.205 1.607.109 3.222.329 4.815.482.621.073 1.235.117 1.856.146l1.857.154c.27.022.54.036.818.087 1.009.19 1.286.446 1.389.972.021.124.058.249.065.366.008.387-.467.628-1.205.65-2.178-.058-4.4-.387-6.665-.599-1.681-.168-3.369-.358-5.072-.483v-.051M300.143 79.486l-7.768-.504c-.942-.059-1.892-.066-2.835-.132-3.332-.234-6.665-.467-9.997-.738-1.476-.124-2.967-.204-4.429-.3-1.885-.094-3.778-.24-5.641-.679-.577-.16-.497-.16.007-.285.314-.073.673-.16 1.053-.248a5.5 5.5 0 0 1 1.483-.19c1.929-.08 3.844.073 5.773.131.965.051 1.922.095 2.887.146.964.08 1.929.154 2.893.234 2.31.212 4.729.205 7.104.292l7.833.33 4.823.218c2.434.103 4.882.27 7.301.344 1.878.066 3.727.022 5.598.044.409 0 .811-.008 1.227.007 1.535.088 2.003.314 2.295.826.066.117.153.241.19.358.117.387-.526.672-1.652.767-3.332.168-6.81-.014-10.318-.16-2.602-.11-5.218-.286-7.827-.424v-.044zM299.322 104.714l-8.09-.541c-.986-.058-1.973-.073-2.952-.139a818 818 0 0 1-10.406-.774c-1.542-.125-3.084-.22-4.619-.307-1.965-.103-3.939-.249-5.875-.695-.599-.16-.519-.16.007-.285.322-.073.702-.153 1.096-.248.453-.117.98-.19 1.55-.19 2.009-.073 4.004.08 6.014.146l3.011.154 3.018.241c2.411.219 4.925.219 7.402.321l8.156.366q2.51.122 5.02.233c2.536.11 5.079.285 7.6.366 1.959.073 3.888.029 5.824.058.432 0 .848-.007 1.279.008 1.593.087 2.09.321 2.397.833.066.117.161.241.197.358.125.387-.548.672-1.717.767-3.471.161-7.096-.029-10.749-.183-2.712-.117-5.437-.299-8.156-.453v-.044zM292.468 123.487l3.837.285c.277.022.562.03.811.088.248.073.424.197.614.285.044.029.102.037.131.088l.066.153.124.3c.095.212.11.475.11.753v.789l-.022.46-.037.921c-.043.899-.029 1.79-.102 2.689a15 15 0 0 1-.139 1.279c-.051.336-.102.702-.182 1.023-.081.329-.256.57-.468.767l-.629.154c-.211.051-.467.007-.694.014-.548 0-.716-.029-1.037-.043l-1.732-.132-3.45-.263c-1.388-.117-2.791-.168-4.165-.292-.884-.073-1.776-.139-2.66-.241a14 14 0 0 1-1.323-.256l-.657-.154c-.22-.058-.432-.168-.643-.241-.527-.226-.453-.19.036-.314.497-.161 1.381-.439 2.404-.512 3.588.037 7.176.315 10.794.622.511.036 1.03.065 1.549.073h.577c.103.014.183.014.271.007.087-.037.058-.168.08-.249l.015-.197.022-.431c.036-.577.08-1.155.117-1.732l.109-1.82.073-1.439c0-.11.044-.3-.117-.271l-.394-.051-1.805-.146-4.516-.307c-2.28-.131-4.568-.277-6.833-.329-.439-.014-.877 0-1.315-.022-.439-.051-.87-.014-1.309-.021l-2.601.036c-.38.015-.753.022-1.14.037-.358 0-.651 0-.899-.015-.248-.022-.446-.08-.606-.124a1.44 1.44 0 0 1-.673-.38c-.08-.066-.161-.124-.241-.132-.044.015-.073.044-.088.015 0-.007-.014-.037.008-.081.029-.051.058-.058.058-.087.081-.088.168-.154.307-.249.27-.19.687-.307 1.22-.424 1.579-.16 3.187-.219 4.816-.277 1.637-.176 3.281-.066 4.933-.029 2.455.08 4.918.226 7.373.358v.043zM314.836 143.225c.388-4.166.614-8.331.87-12.496l.27-4.553.183-2.624.08-1.308.037-.665.044-1.103.292-.855v-.015c.212.212.059.059.11.103 0 0 .014-.022.022-.03l.036-.036.073-.066.154-.131c.109-.081.277-.103.453-.11.358 0 .738.036 1.111.066l.767.08 2.696.314c1.791.212 3.588.41 5.379.592 2.368.219 4.743.453 7.096.585 1.512.095 3.025.131 4.53.204.753.03 1.513.052 2.266.066.752 0 1.512.103 2.265.081.943 0 .826-.03.044.226-.446.146-1.001.336-1.63.548-.687.19-1.505.314-2.389.388-1.571.131-3.135.146-4.699.124a126 126 0 0 1-4.684-.139c-3.113-.197-6.219-.57-9.318-.957a71 71 0 0 0-2.177-.249l-.388-.044h-.087c-.037-.014-.059 0-.051.044v.176a377 377 0 0 0-.103 3.054c-.044 1.177-.087 2.353-.153 3.522-.11 2.105-.241 4.202-.431 6.3l-.475 6.299-.351 5.254c-.007.044 0 .081 0 .124.014.03.073.022.102.03h.234l.533.014c3.917-.044 7.871-.051 11.773 0 3.04.037 6.022 0 9.062.219.672.052 1.33.088 2.009.176 1.25.197 2.076.453 2.609.753.526.343.797.635.965.971.08.154.19.307.219.424.051.198-.19.278-.65.322-.461.036-1.17.124-2.032.029-5.13-.497-10.735-.658-16.347-.731-1.571-.014-3.143-.022-4.714-.036h-2.367l-.6-.008c-.343-.014-.774 0-1.132-.029l-.519-.095a.4.4 0 0 1-.219-.087l-.183-.117-.344-.212-.043-.03s-.154.139-.081.074l-.007-.015-.015-.022-.058-.073c-.044-.051-.073-.102-.124-.154l-.095-.665c-.03-.226-.081-.431-.052-.701l.081-1.228.117-1.578h.051z"/><path fill="#12111f" d="M343.586 138.031c.109-1.075.248-2.141.387-3.216.044-.394.037-.782.088-1.176.183-1.374.38-2.755.541-4.136.095-.614.131-1.228.168-1.835-.015-.789.212-1.563.431-2.338.08-.241.183-.205.351.015.153.211.445.613.577 1.074l.153.606c.052.205.03.402.044.607q.024.603.015 1.206c.014.803-.11 1.6-.249 2.404-.175.957-.131 1.966-.197 2.952a96 96 0 0 1-.278 3.252l-.19 2.002c-.08 1.009-.19 2.025-.204 3.026 0 .782.066 1.556.051 2.331-.015.168-.015.336-.037.504-.051.314-.109.519-.204.665a.9.9 0 0 1-.409.271c-.074.029-.147.058-.22.073-.117.022-.219-.037-.329-.161a1.35 1.35 0 0 1-.306-.548c-.534-1.418-.512-2.872-.446-4.334.051-1.081.146-2.17.226-3.252h.051zM324.711 134.113a70 70 0 0 1 1.71-1.658c.204-.205.394-.424.606-.622.746-.694 1.498-1.388 2.244-2.082.328-.314.643-.643.942-.972.388-.424.76-.87 1.228-1.213.292-.219.541.657.11 1.162-.775.877-1.579 1.732-2.463 2.514-.534.467-.987 1.052-1.476 1.578l-1.644 1.725-1.009 1.067c-.504.548-1.016 1.081-1.483 1.651-.373.439-.636.95-.994 1.381-.081.095-.146.198-.227.293-.146.182-.277.27-.416.292a.63.63 0 0 1-.366-.022c-.058-.015-.117-.029-.16-.051-.147-.066-.161-.329-.081-.702.402-.994 1.096-1.805 1.812-2.609a62 62 0 0 1 1.645-1.753zM327.683 136.883l2.287-2.017c.278-.248.519-.526.804-.767l2.989-2.529c.439-.38.848-.789 1.25-1.198.511-.526.972-1.118 1.622-1.498.402-.241 1.001 1.242.402 1.841a29 29 0 0 1-3.42 2.945c-.738.534-1.359 1.243-2.039 1.871l-2.251 2.061-1.373 1.279c-.687.658-1.389 1.301-2.025 1.995-.489.541-.935 1.111-1.403 1.666-.102.124-.197.248-.307.365-.445.395-.65.468-1.015.293-.074-.03-.154-.051-.212-.081-.161-.08-.256-.504-.03-.891.629-1.191 1.484-2.273 2.478-3.23.716-.724 1.476-1.418 2.214-2.127l.029.029zM333.766 139.249c.614-.534 1.228-1.067 1.827-1.63.219-.205.409-.439.621-.636.767-.723 1.549-1.432 2.302-2.178.336-.328.643-.679.95-1.03.387-.453.753-.935 1.235-1.301.3-.234.628.702.205 1.243-.768.95-1.564 1.863-2.485 2.703-.548.497-1.016 1.111-1.535 1.659-.577.6-1.162 1.191-1.768 1.769L334 140.907c-.563.534-1.155 1.045-1.703 1.586-.424.424-.789.899-1.184 1.345-.087.102-.161.204-.263.292-.19.154-.329.241-.468.249-.153 0-.292-.074-.445-.176-.073-.044-.139-.08-.198-.131-.095-.073-.131-.183-.153-.344a.77.77 0 0 1 .095-.504c.57-.935 1.41-1.622 2.221-2.36q.912-.811 1.835-1.623l.022.022z"/><path fill="#12111f" d="M47.215 174.191c.3-2.017-20.242 2.082-20.242 2.082l2.952 19.709 20.6-3.602s-3.968-13.702-3.31-18.189" opacity=".35"/><path fill="#12111f" d="M28.36 193.234c-.388-3.588-.921-7.147-1.418-10.705l-.556-3.895-.3-2.244-.153-1.118-.08-.577-.154-.936.102-.774v-.037c-.021-.014.205.139.11.073v-.007c.008-.015.015-.022.022-.037l.051-.065.102-.132c.074-.095.198-.153.344-.19.292-.073.628-.102.943-.139l.694-.066 2.338-.204 4.655-.424c2.04-.219 4.085-.438 6.095-.731 1.294-.182 2.58-.409 3.866-.614a55 55 0 0 0 1.922-.336c.635-.131 1.293-.168 1.929-.314.796-.161.694-.168.08.19-.358.212-.796.468-1.286.753-.548.285-1.22.533-1.951.745-1.308.387-2.623.665-3.954.921q-1.985.385-3.982.694c-2.668.373-5.357.592-8.046.797-.628.043-1.264.102-1.893.168-.175.029-.526-.037-.387.234.146.855.3 1.717.446 2.579.168 1.001.329 1.995.475 2.996.27 1.798.526 3.596.723 5.401l.68 5.4.607 4.48c0 .036.007.073.014.102.015.029.058.007.088.007l.197-.029.439-.088a431 431 0 0 1 9.953-2.031c2.572-.497 5.093-1.045 7.695-1.389.577-.073 1.14-.153 1.724-.197 1.09-.051 1.834.022 2.339.19.511.205.782.409.986.672.095.117.212.227.256.322.073.161-.117.278-.497.402-.387.117-.965.321-1.71.387-4.414.482-9.178 1.308-13.936 2.214-1.33.263-2.66.527-3.99.782l-2.01.402-.525.103c-.33.051-.666.138-.98.175h-.453c-.153 0-.24-.073-.372-.11l-.33-.124h-.021l-.008-.015c-.11.161-.029.044-.058.081l-.03-.029-.065-.052c-.044-.036-.08-.073-.131-.109l-.205-.541c-.066-.183-.146-.351-.16-.585l-.154-1.081-.176-1.352h.044zM65.562 130.661l-7.644.891c-.928.11-1.849.271-2.784.373l-9.844 1.067a167 167 0 0 0-4.355.519c-1.849.248-3.712.453-5.598.38-.592-.051-.511-.059-.044-.271.293-.124.629-.27.972-.423a5.7 5.7 0 0 1 1.41-.454c1.864-.423 3.75-.628 5.635-.913 1.885-.27 3.778-.497 5.693-.672 2.287-.212 4.64-.643 6.964-.972l7.673-1.06 4.728-.65c2.382-.336 4.787-.629 7.147-1.001 1.834-.285 3.625-.673 5.43-1.009.394-.073.789-.168 1.19-.226 1.499-.212 2.003-.095 2.383.336.088.102.197.197.256.299.19.344-.38.738-1.454 1.045-3.201.804-6.614 1.294-10.048 1.798-2.55.373-5.123.68-7.688 1.009v-.044zM68.046 140.066l-7.213.819c-.877.102-1.747.256-2.624.351l-9.288.972a182 182 0 0 0-4.114.475c-1.747.233-3.5.423-5.283.336-.556-.051-.483-.066-.044-.271.277-.124.592-.27.92-.416.38-.183.826-.351 1.33-.439 1.754-.409 3.537-.599 5.313-.869a92 92 0 0 1 5.371-.614c2.156-.19 4.37-.599 6.563-.906l7.234-.987 4.458-.606c2.25-.315 4.516-.585 6.745-.936 1.732-.27 3.413-.643 5.123-.964.372-.073.738-.161 1.118-.22 1.41-.204 1.885-.08 2.25.351.08.103.19.198.242.3.182.343-.351.731-1.367 1.03-3.01.782-6.233 1.235-9.478 1.71-2.404.351-4.83.629-7.257.936v-.052M70.545 156.44q-3.299.383-6.606.833c-.804.109-1.6.27-2.404.373-2.836.365-5.678.73-8.521 1.052-1.264.139-2.529.321-3.778.482-1.6.234-3.223.417-4.86.314-.511-.058-.445-.065-.044-.27.256-.124.548-.27.84-.409a4.4 4.4 0 0 1 1.214-.431c1.607-.402 3.237-.585 4.867-.863.81-.117 1.63-.241 2.448-.358l2.47-.285c1.98-.204 4.005-.643 6.007-.964q3.31-.537 6.642-1.031l4.1-.577 6.219-.767c1.6-.212 3.164-.497 4.75-.738.35-.052.687-.117 1.045-.154 1.308-.117 1.74.037 2.053.482.074.103.161.205.205.315.146.35-.358.708-1.3.95-2.792.584-5.745.898-8.711 1.278l-6.636.812zM73.205 148.104q-2.664.264-5.327.636c-.65.088-1.287.234-1.937.322l-6.876.942c-1.016.132-2.04.307-3.04.475-.643.117-1.286.234-1.944.293a12 12 0 0 1-1.98.073c-.417-.044-.366-.059-.052-.263.212-.132.439-.278.658-.417.27-.182.592-.343.957-.438 1.286-.409 2.602-.607 3.91-.87q1.962-.383 3.968-.614c1.6-.19 3.23-.584 4.852-.869 1.783-.307 3.581-.6 5.386-.848l3.325-.431c1.68-.219 3.376-.351 5.042-.563 1.294-.168 2.558-.424 3.83-.636.277-.043.555-.109.84-.138 1.06-.11 1.41.036 1.673.475.059.102.14.204.176.306.131.344-.27.687-1.03.921-2.251.57-4.656.826-7.06 1.096-1.783.198-3.58.388-5.371.585v-.044zM80.286 170.223c-1.169.131-2.346.277-3.515.445-.43.059-.847.168-1.271.227-1.513.197-3.033.387-4.546.585-.672.08-1.344.204-2.01.321-.423.08-.854.161-1.285.183-.432.051-.877.007-1.323-.066-.278-.08-.241-.088-.037-.27.146-.125.293-.256.424-.366.175-.168.38-.307.614-.38.826-.329 1.68-.453 2.536-.65a22 22 0 0 1 2.609-.409c1.06-.103 2.119-.41 3.186-.614 1.169-.227 2.345-.424 3.522-.629l2.178-.358 3.318-.504c.854-.139 1.688-.38 2.586-.504.205-.022.395-.066.614-.066.79.015 1.177.336 1.133.87a1 1 0 0 1-.08.328c-.08.161-.242.271-.337.388-.029.051-.117.109-.175.153a1 1 0 0 1-.249.11c-1.234.278-2.828.533-4.362.767-1.155.183-2.331.322-3.508.497v-.044z"/><path fill="#12111f" d="M95.041 178.475c.453-.175.877-.387 1.316-.57.233-.087.401-.219.599-.328.168-.103.438-.271.497-.285q.035-.031.058-.073c-.007.029.03-.088.044-.176.022-.088.037-.19.058-.292.066-.424.103-.906.117-1.396.03-.979 0-2.002-.05-3.018-.103-2.046-.293-4.107-.512-6.16-.205-1.886-.49-3.757-.724-5.635-.833-6.635-1.783-13.27-2.733-19.906-.431-2.945-.913-5.897-1.388-8.806a161 161 0 0 1-1.228-8.462l-.153-1.418c-.044-.475-.044-.95-.073-1.425-.03-1.191.094-1.045.482-.087.43.95 1.074 2.711 1.49 4.852.797 3.785 1.389 7.607 2.047 11.429.635 3.822 1.25 7.666 1.775 11.532.607 4.633 1.477 9.419 2.112 14.169.344 2.609.665 5.233.892 7.871.11 1.323.205 2.645.227 3.99a22 22 0 0 1-.044 2.053 10 10 0 0 1-.132 1.082c-.058.321-.212.928-.526 1.301-.102.087-.183.204-.292.27-.242.161-.417.27-.592.38l-.548.343c-.366.212-.746.359-1.126.541-.745.38-1.52.585-2.28.877-.767.241-1.542.453-2.309.672l-2.324.549c-4.845 1.015-9.741 1.629-14.579 2.192-3.756.468-7.439.921-11.151 1.388-.819.095-1.615.212-2.441.271-1.535.117-2.543.16-3.267.087-.723-.102-1.147-.263-1.498-.504-.16-.109-.365-.204-.46-.307-.16-.175.058-.365.6-.592.54-.226 1.395-.526 2.506-.687 3.296-.599 6.7-.964 10.143-1.388 3.442-.402 6.928-.819 10.399-1.272 2.58-.321 5.152-.701 7.687-1.176 2.536-.468 5.057-1.038 7.352-1.922l.03.051zM30.419 145.968c.27 1.936.519 3.88.818 5.817.11.709.278 1.403.38 2.112.358 2.506.76 5.006 1.06 7.527.139 1.118.343 2.229.504 3.332.22 1.418.417 2.843.49 4.275.022.446-.146.417-.395.073a5.9 5.9 0 0 1-.848-1.776 60 60 0 0 1-1.805-8.579c-.204-1.746-.657-3.53-.986-5.298-.358-1.951-.702-3.91-.987-5.875l-.511-3.64c-.227-1.841-.46-3.683-.687-5.51-.212-1.41-.424-2.798-.636-4.202-.036-.306-.095-.606-.124-.92-.102-1.162.007-1.542.438-1.827.103-.066.198-.146.293-.19.336-.139.672.307.891 1.14.578 2.47 1.06 5.057 1.36 7.68.24 1.944.504 3.902.789 5.846h-.052zM52.232 119.728c3.171-.468 6.343-.907 9.522-1.301 1.162-.139 2.31-.358 3.471-.468 4.1-.446 8.207-.76 12.32-1.016l2.741-.175 2.733-.153a62 62 0 0 1 3.508-.132c1.17-.022 2.346.102 3.508.205.723.08.613.38-.015.687-.629.314-1.747.65-3.062.738-4.692.16-9.39.453-14.148.745a88 88 0 0 0-4.318.424c-1.455.19-2.909.387-4.356.577a422 422 0 0 0-9.544 1.301q-2.936.427-5.86.921c-2.953.497-5.92 1.008-8.835 1.6-2.266.453-4.465 1.001-6.687 1.527-.49.117-.965.234-1.462.351-1.848.336-2.462.336-2.93.095-.11-.058-.241-.102-.307-.161-.226-.197.468-.584 1.783-1.052.972-.365 1.973-.643 2.982-.921 1.015-.277 2.039-.555 3.076-.804q1.557-.372 3.135-.745c1.053-.234 2.12-.431 3.186-.643 3.165-.607 6.365-1.133 9.552-1.644l.014.044z" opacity=".35"/><path fill="#12111f" d="m52.008 179.291.255 2.463c.044.3.11.592.132.892.066 1.066.131 2.126.234 3.186.029.475.095.942.16 1.403.096.592.19 1.184.183 1.797 0 .19-.146.19-.343.074-.19-.125-.46-.366-.592-.695-.431-1.162-.892-2.316-.935-3.559-.052-.738-.3-1.468-.446-2.214-.146-.818-.249-1.637-.373-2.462l-.227-1.513c-.124-.76-.219-1.535-.401-2.28-.132-.577-.41-1.126-.563-1.696-.037-.124-.088-.241-.117-.372-.051-.234-.022-.402.051-.534.102-.131.263-.234.453-.321.08-.044.154-.088.212-.11.11-.044.212-.029.41.022.204.051.38.154.482.314.175.234.285.483.416.731.124.249.234.504.307.775.154.526.263 1.074.366 1.622.146.811.248 1.644.372 2.463H52zM39.298 189.553l-2.221-1.213c-.27-.154-.556-.256-.826-.41-.943-.54-1.878-1.096-2.835-1.6a15 15 0 0 0-1.301-.599c-.563-.234-1.148-.431-1.652-.789-.321-.212.49-.885 1.17-.687 1.183.394 2.345.84 3.449 1.461.657.373 1.417.592 2.119.884.782.322 1.535.709 2.302 1.067l1.41.665c.724.314 1.41.716 2.134 1.001.563.227 1.155.366 1.71.578.124.044.256.073.365.153.424.263.52.439.497.768 0 .073 0 .153-.014.219-.044.226-.314.336-.71.343-.598.044-1.14-.095-1.702-.204a21 21 0 0 1-1.607-.541c-.804-.271-1.542-.694-2.302-1.067l.014-.044zM40.884 185.205c-.767-.555-1.513-1.147-2.258-1.724-.278-.205-.57-.388-.84-.599q-1.405-1.163-2.8-2.324a33 33 0 0 0-1.278-.972c-.548-.402-1.125-.775-1.586-1.294-.292-.314.716-.723 1.367-.307 1.147.768 2.265 1.55 3.332 2.448.636.541 1.403.95 2.112 1.418l2.346 1.535c.482.314.957.636 1.454.928.738.453 1.484.921 2.258 1.308.592.314 1.228.526 1.834.796.132.066.27.11.395.183.468.285.54.526.504.877-.007.08-.014.168-.03.241-.058.241-.364.351-.81.336-.65-.051-1.25-.233-1.85-.453q-.45-.164-.89-.35c-.293-.132-.563-.3-.841-.461-.826-.482-1.622-1.016-2.419-1.542l.022-.036zM40.974 181.024l-1.725-1.213c-.212-.146-.438-.263-.636-.424-.694-.57-1.388-1.147-2.082-1.717a11 11 0 0 0-.965-.68c-.424-.27-.87-.511-1.191-.928-.205-.248.79-.942 1.294-.679.87.497 1.717 1.023 2.484 1.695.46.409 1.052.643 1.586.95l1.74 1.067c.357.219.715.431 1.088.629.555.306 1.118.606 1.695.862.453.183.943.256 1.41.394.103.03.213.044.308.081.372.146.438.314.343.782-.022.109-.036.219-.066.321-.095.351-.358.57-.687.578a6 6 0 0 1-1.432-.139 7.5 7.5 0 0 1-1.337-.49c-.629-.314-1.235-.694-1.842-1.059l.022-.044zM203.645 50.95c.102.154-.095.3-.453.447-.117.043-.468.065-.519.021a2 2 0 0 1-.292-.27c-.044-.051-.344-.98-.453-1.308-.117-.314-.154-.629-.183-.943a21 21 0 0 1 0-1.922c0-.139.036-.285.088-.416.182-.468.241-.95.263-1.44 0-.08.029-.16-.037-.248-.051-.073-.036-.439.022-.804.073-.365.175-.724.227-.797.248-.38.431-.774.672-1.147.036-.051.036-.117.131-.146.234-.066.242-.197.3-.314.08-.161.175-.322.292-.475.059-.073.183-.125.285-.183.095-.051.322.066.337.095.051.102.19.073.292.095.036.007.08.022.109.03.037.028.3 1.117.3 1.22.022.036-.124 1.44-.088 1.607.008.088-.051.161-.095.234-.014.037-.036 1.162-.051 1.206-.066.226-.022.46-.234.665-.043.044-.036.088-.043.131-.022.395-.139.782-.22 1.177-.044.205-.029.41-.051.606 0 .037-.029.074-.044.11-.014.044-.044.088-.044.139.008.482-.168.965-.116 1.454 0 .11-.212.65-.19.782 0 .073-.256.322-.205.387zM213.5 64.518c-.146.132-.321-.03-.511-.358-.059-.11-.124-.453-.088-.519a2 2 0 0 1 .205-.314c.051-.044.84-.431 1.089-.6.241-.16.504-.248.76-.357.526-.198 1.03-.453 1.527-.702q.164-.09.351-.124c.431-.088.811-.3 1.154-.563.059-.044.125-.073.146-.168.037-.16 1.009-.782 1.162-.848.38-.124.738-.285 1.14-.409.059-.022.095-.066.183-.044.205.059.285-.029.395-.095.153-.08.307-.16.467-.226.081-.03.205-.022.307-.022.095 0 .198.175.19.212-.014.102.095.131.154.19.022.022.051.044.058.066.022.029-.431 1.044-.504 1.132a61 61 0 0 0-.512.621c-.285.278-.584.563-.657.636-.059.066-.161.088-.249.117-.022 0-.255.22-.497.431a9 9 0 0 1-.526.402c-.234.102-.424.292-.723.27-.059 0-.103.03-.146.052-.373.226-.804.358-1.213.49-.212.065-.41.175-.622.248-.036.014-.08 0-.124.007-.051 0-.109 0-.153.022-.49.197-1.009.27-1.491.475-.11.051-.709.015-.833.066-.073.029-.373-.161-.431-.11zM211.858 57.98c0 .168-.234.153-.592.044-.117-.037-.402-.234-.424-.293a2.5 2.5 0 0 1-.088-.358c-.007-.066.256-.877.336-1.17.081-.277.205-.525.358-.766a8.4 8.4 0 0 1 1.009-1.374.9.9 0 0 1 .299-.234c.395-.212.695-.512.972-.833.044-.051.103-.095.103-.198 0-.168.818-.95.986-.971.38-.117.702-.278 1.082-.388.051-.014.08-.066.168-.029.212.073.277-.015.372-.066a3 3 0 0 1 .432-.19c.08-.022.197 0 .299 0 .095 0 .212.198.212.234 0 .102.11.146.176.212.021.022.051.051.065.073.022.037-.285 1.009-.329 1.096 0 0-.051.08-.124.183-.073.102-.153.263-.263.395-.212.27-.424.555-.46.62-.037.066-.124.088-.198.118-.036.014-.657.796-.679.818-.168.117-.256.314-.519.322-.051 0-.073.036-.102.065-.22.264-.505.453-.775.68-.131.117-.234.263-.343.387-.022.022-.059.03-.088.044-.037.022-.088.03-.11.066-.277.307-.635.555-.855.92-.058.074-.497.33-.548.432-.029.051-.365.08-.365.146z"/></svg>