<svg xmlns="http://www.w3.org/2000/svg" width="380" height="380" fill="none"><path fill="#231f20" d="m290.505 88.454.46.914-2.528.993c.036-.05.021-.197-.234-.402-.249-.197-.636-.372-1.053-.496a3 3 0 0 0-1.03-.125.65.65 0 0 0-.475.227c-.161.168-.3.475-.38.818a4.3 4.3 0 0 0-.088 1.118c.022.395.073.833.154 1.243.139.745.416 1.454.745 2.133.205.439.446.856.702 1.272l.19.314c.044.117.102.227.146.351.095.234.219.453.307.709.029.395.095.285-.256.234-.183-.022-.402-.088-.68-.176-.138-.044-.277-.102-.431-.16-.073-.03-.146-.074-.226-.103-.051-.05-.117-.102-.168-.168-.753-.833-1.418-1.79-1.813-2.864a10.5 10.5 0 0 1-.482-1.652 5.7 5.7 0 0 1-.102-1.82c.087-.745.204-1.549.716-2.353.256-.394.65-.767 1.111-.986.46-.234.979-.285 1.395-.27.461.029.819.102 1.192.197.38.095.76.219 1.14.394s.76.41 1.11.76c.351.337.636.84.724 1.36l.913 5.064-2.521-4.436-.066-.117a31 31 0 0 1-1.242-2.382c-.585-1.264-.994-2.697-.855-4.246.146-1.162.468-2.346 1.345-3.34.19-.212.394-.43.643-.606.986-.621 1.512-.387 1.768.241.066.146.132.292.168.439.095.496-.146.971-.372 1.25-.366.408-.614.913-.797 1.49a4 4 0 0 0-.161.87c0 .146-.036.284-.036.416-.008.139 0 .322 0 .49.058 1.008.46 2.2 1.11 3.376l-.051.029z"/><path fill="#231f20" d="M292.082 79.312c.03.044.052.088.059.066.044.044.066.022.095-.008.014-.022-.007-.08.014-.102l.066-.088.117-.365c.088-.263.168-.526.256-.79.088-.233.08-.452.183-.723.058-.168.124-.336.255-.504.11-.175.358-.3.585-.27.146.022.11.117.095.27-.007.08 0 .183.037.278.043.102.109.168.109.204l.059.278c.007.058.022.11.029.168l-.029.212c-.052.285-.117.57-.22.855-.065.19-.08.314-.087.57 0 .314.036.672.014 1.009v1.98c-.073-.051-.109-.044-.16-.073l-.088-.03-.117-.094-.241-.19-.49-.373a14 14 0 0 0-.738-.519c-.226-.131-.519-.285-.701-.343-.264-.088-.563-.059-.841-.052-.058 0-.124.022-.183.015-.219-.022-.248-.153-.175-.665l.051-.35c.066-.395.241-.688.468-.746.329-.08.65-.066.957.015.154.036.307.095.453.153l.103.044s0 .044.043.102l.03.073zM292.014 122.777c.095.687.132 1.381.307 2.061.073.343.139.687.219 1.023l.315 1.001c.138.497.394.943.577 1.425.694 1.666 1.549 3.303 2.66 4.779.226.344.511.643.782.95.285.3.541.614.848.885.387.35.789.694 1.161 1.052.395.343.79.687 1.14 1.096.176.314.081.373-.299.417-.38.036-.979-.059-1.527-.395-1.827-1.315-3.442-2.989-4.604-4.962-.161-.3-.351-.592-.519-.891l-.504-.914c-.366-.592-.651-1.242-.936-1.878-.314-.702-.519-1.447-.767-2.17l-.27-1.118-.132-.556-.088-.57c-.065-.468-.153-.928-.19-1.396l-.08-1.41c-.022-.709.029-1.425.051-2.134.102-.701.139-1.41.256-2.104.102-.534.161-1.075.234-1.615l.336-1.601c.044-.241.117-.46.204-.687.322-.84.549-1.059 1.038-1.045.11 0 .227 0 .329.015.351.073.49.519.38 1.125-.197.899-.329 1.805-.541 2.704-.124.914-.314 1.827-.365 2.755-.102.687-.059 1.381-.095 2.075.014.695.066 1.389.131 2.076h-.043z"/><path fill="#231f20" d="M189.11 169.335c-7.14 5.831.621 21.185 10.012 16.098 7.307-3.96 6.226-9.887 5.612-11.312s-4.553-5.422-6.241-6.401c-1.9-1.104-5.641.065-7.578.752-.68.241-1.323.468-1.805.863M209.966 154.538c-7.14 5.831.621 21.185 10.011 16.099 7.308-3.961 6.226-9.888 5.612-11.313-.606-1.425-4.552-5.422-6.24-6.401-1.9-1.104-5.642.065-7.578.752-.68.242-1.323.468-1.805.863" opacity=".2"/><path fill="#231f20" d="M193.618 168.078c-.468.819-.79 1.703-.863 2.646-.087 1.074.453 2.229 1.44 2.726.219.109.46.219.702.27.431.095.701.08 1.132.015.461-.073.862-.337 1.213-.636.57-.482.914-1.221 1.162-1.915a6.1 6.1 0 0 0 .358-1.914c0-.395-.175-.819-.453-1.097-.278-.277-.709-.475-1.096-.453-.848.037-1.549.68-1.557 1.557 0 .139-.014.27-.029.409l.059-.409c-.066.46-.183.913-.366 1.345l.154-.373a3.2 3.2 0 0 1-.388.687l.242-.314a1.5 1.5 0 0 1-.3.306l.314-.241q-.119.088-.248.154l.373-.154a.8.8 0 0 1-.256.066l.409-.058c-.08.007-.168.007-.248 0l.409.058a1.4 1.4 0 0 1-.3-.08l.373.153a1.4 1.4 0 0 1-.322-.19l.314.241c-.073-.058-.138-.131-.204-.204l.241.314a1 1 0 0 1-.139-.241l.154.372a2 2 0 0 1-.095-.343l.058.409a2.2 2.2 0 0 1 .007-.614l-.058.41a4.4 4.4 0 0 1 .307-1.045l-.154.372q.143-.339.329-.657c.198-.351.263-.804.154-1.199-.103-.358-.38-.753-.716-.928-.359-.19-.797-.285-1.199-.153s-.723.358-.928.716zM215.76 154.084c-.417-.066-.731-.095-1.155.014-.241.059-.49.168-.694.315a3.7 3.7 0 0 0-1.104 1.183 4.6 4.6 0 0 0-.511 1.257 4.2 4.2 0 0 0-.059 1.681c.073.475.336.972.694 1.294.563.504 1.257.686 1.995.584a3.5 3.5 0 0 0 1.601-.614c.511-.372.986-.804 1.264-1.388.212-.446.322-.804.351-1.301s-.11-.891-.3-1.308c-.314-.709-1.023-1.264-1.717-1.571a1.1 1.1 0 0 0-.577-.183 1.2 1.2 0 0 0-.622.029c-.358.103-.752.38-.928.717-.19.358-.285.796-.153 1.198.117.358.351.767.716.928q.35.152.658.38l-.314-.241c.116.095.226.197.321.321l-.241-.314c.073.095.131.198.183.314l-.154-.372q.057.14.081.292l-.059-.409a1.2 1.2 0 0 1 0 .321l.059-.409a1.3 1.3 0 0 1-.103.373l.154-.373a2 2 0 0 1-.256.431l.241-.314a2.5 2.5 0 0 1-.424.417l.314-.242a2.6 2.6 0 0 1-.555.322l.373-.153a1.9 1.9 0 0 1-.526.146l.409-.059a1 1 0 0 1-.307 0l.409.059a.8.8 0 0 1-.212-.059l.373.154a.6.6 0 0 1-.154-.088l.315.241a1 1 0 0 1-.125-.124l.242.314a1 1 0 0 1-.11-.19l.153.373a1.4 1.4 0 0 1-.087-.336l.058.409a3 3 0 0 1 0-.548l-.058.409a3.4 3.4 0 0 1 .219-.811l-.153.373c.095-.22.211-.432.358-.629l-.242.314c.095-.124.198-.233.322-.328l-.314.241a1 1 0 0 1 .263-.154l-.373.154a.8.8 0 0 1 .219-.059l-.409.059c.066-.008.139 0 .205 0l-.409-.059h.021c.205.066.41.081.622.029.204-.007.402-.073.577-.182.321-.19.628-.556.716-.928.088-.395.073-.841-.153-1.199-.205-.321-.541-.65-.928-.716z"/><path fill="#231f20" d="M239.716 234.108c2.959-6.46.957-10.282-1.133-13.899-2.09-3.618-8.652-6.877-8.652-6.877s-4.611 7.067-5.079 8.894-.723 6.73-.723 6.73-26.652-7.417-33.521-4.918-10.545 3.661-10.355 8.448c0 0 .724 16.508 17.663 16.851 16.939.336 26.22-4.523 26.22-4.523s-3.179 11.546-2.631 15.777 3.194 8.163 3.194 8.163 6.489-2.01 8.557-5.861 6.27-19.906 6.27-19.906 4.348 2.784 6.949 6.124c2.149 2.762 2.397 6.065 4.29 7.103 3.376 1.848.753-10.326 0-11.393s-5.97-8.441-5.97-8.441l-5.057-2.258z" opacity=".2"/><path fill="#231f20" d="M110.639 144.677c-.446.124-.884.336-1.315.57-.161.08-.278.219-.439.307-.555.321-1.118.687-1.607 1.125-.22.197-.431.402-.643.607-.256.27-.519.548-.812.796-.095.081-.124.037-.124-.095 0-.124.008-.351.095-.563.168-.365.344-.73.556-1.074a4.4 4.4 0 0 1 .818-.884c.373-.307.672-.723 1.067-1.038.424-.35.899-.65 1.388-.92.307-.154.622-.307.95-.424.49-.205 1.024-.278 1.535-.395q.307-.044.614-.131c.205-.044.416-.074.636-.103a.8.8 0 0 1 .285 0c.343.066.438.198.409.607 0 .095-.007.182-.022.277-.051.3-.227.534-.431.622-.614.27-1.104.241-1.666.394-.402.11-.833.183-1.265.351l-.014-.037zM95.725 201.277a34 34 0 0 0 2.484-.57c.3-.081.585-.212.892-.3 1.067-.299 2.178-.511 3.266-.826q.726-.207 1.44-.416c.307-.088.607-.19.921-.263.314-.059.643-.095.964-.124.205-.008.212.117.103.321-.11.205-.322.541-.636.753-.555.351-1.133.628-1.71.921-.592.248-1.22.423-1.856.577-.767.183-1.498.555-2.273.782-.855.248-1.717.482-2.594.679-.534.132-1.082.22-1.622.337-.819.153-1.652.255-2.47.387-.636.11-1.25.278-1.893.409-.139.029-.278.066-.424.044-.533-.08-.701-.27-.818-.585a1.5 1.5 0 0 1-.073-.212c-.052-.219.16-.453.518-.694.263-.182.534-.285.804-.343.27-.073.541-.124.819-.176.548-.117 1.103-.182 1.651-.285a33 33 0 0 0 2.485-.467l.014.044zM118.838 202.248c.446.869.928 1.732 1.447 2.572.183.307.416.585.606.892.658 1.096 1.36 2.155 2.061 3.23.314.475.68.913 1.045 1.344.446.57.87 1.155 1.118 1.908.073.241.073.197-.131.124s-.709-.102-1.104-.322c-.314-.226-.643-.431-.935-.679a43 43 0 0 1-.753-.841c-.475-.577-.95-1.169-1.322-1.834-.461-.789-1.089-1.491-1.623-2.251a55 55 0 0 1-1.651-2.579c-.315-.548-.636-1.082-.943-1.637-.468-.833-.884-1.696-1.323-2.543l-.548-.972a9 9 0 0 1-.541-.994c-.073-.154-.16-.292-.226-.453a.95.95 0 0 1-.015-.694c.059-.168.212-.285.431-.395.095-.051.183-.11.271-.139.263-.109.723.037.979.373.694 1.008 1.206 2.134 1.812 3.281.453.848.892 1.725 1.382 2.58zM310.884 157.94a41 41 0 0 0 2.645-.27c.322-.044.636-.139.958-.183 1.14-.168 2.28-.329 3.412-.563a17 17 0 0 0 1.491-.358 7.9 7.9 0 0 1 1.951-.343c.212 0 .234.175.117.424-.11.248-.336.599-.68.789-.591.351-1.235.555-1.885.745-.643.205-1.323.3-2.002.387-.819.095-1.623.373-2.441.534a49 49 0 0 1-2.718.446c-.563.08-1.126.139-1.696.19-.855.087-1.724.117-2.587.168l-1.008.087c-.336.044-.68.059-1.038.059-.153 0-.307.015-.468 0-.57-.219-.708-.424-.708-.819q-.002-.142.007-.263c.044-.277.329-.475.701-.584.548-.19 1.053-.11 1.615-.183.563-.029 1.126-.051 1.696-.08a68 68 0 0 0 2.616-.22v.044zM336.459 158.213c.336 1.023.606 2.046.862 3.076.103.373.227.738.285 1.118a86 86 0 0 1 .526 4.012c.066.592.154 1.177.249 1.754.131.746.153 1.506.153 2.266 0 .241-.065.219-.204.036-.132-.175-.388-.504-.563-.906-.329-.716-.533-1.447-.731-2.185-.095-.365-.197-.731-.285-1.103a27 27 0 0 1-.197-1.126c-.132-.906-.482-1.798-.753-2.674a45 45 0 0 0-.862-2.931c-.205-.592-.409-1.184-.658-1.754-.365-.869-.774-1.732-1.279-2.528a9 9 0 0 0-.672-.848c-.241-.263-.504-.511-.753-.774-.109-.117-.233-.212-.343-.322-.205-.205-.3-.38-.278-.57 0-.088.022-.175.066-.27.051-.103.124-.212.197-.315.066-.095.11-.19.161-.255.124-.183.716-.366 1.125-.103 1.155.848 2.032 2.076 2.712 3.376.511.965.92 1.981 1.293 2.997l-.044.022zM184.584 339.661c.293-1.242.629-2.477.965-3.712.117-.453.19-.913.307-1.359.431-1.586.855-3.172 1.257-4.765.19-.701.343-1.417.497-2.126.102-.453.182-.914.299-1.359.125-.446.263-.899.41-1.338.095-.277.153-.226.219.037.058.256.168.738.168 1.279-.037.957-.168 1.892-.278 2.835a20 20 0 0 1-.541 2.799c-.285 1.111-.409 2.294-.621 3.442-.241 1.264-.475 2.521-.76 3.778l-.504 2.316c-.241 1.17-.511 2.346-.701 3.515-.139.914-.205 1.82-.329 2.726-.037.197-.066.395-.117.592-.183.731-.373.935-.753 1.03-.088.022-.168.052-.248.059-.256.029-.453-.322-.505-.892a38 38 0 0 1-.087-1.278q.02-.636.073-1.272c.051-.855.241-1.695.394-2.543.249-1.257.541-2.514.819-3.771h.044zM180.719 315.304c1.133.329 2.266.628 3.413.899.417.102.841.161 1.264.248 1.477.336 2.967.614 4.48.789.665.095 1.345.132 2.01.161.212.008.431 0 .643 0 .212.015.431.051.643.081.431.051.862.124 1.301.197.27.051.241.08.014.19-.226.095-.636.387-1.14.541-.899.321-1.805.204-2.711.212-.906-.022-1.798-.198-2.689-.373-1.06-.227-2.178-.336-3.267-.548a49 49 0 0 1-3.537-.87c-.716-.197-1.432-.424-2.141-.636-1.081-.328-2.141-.716-3.208-1.059-.818-.285-1.659-.468-2.47-.767-.183-.059-.358-.11-.533-.19-.651-.278-.826-.446-.848-.79 0-.08-.015-.16-.007-.226.029-.241.372-.307.877-.198 1.505.307 2.996.826 4.516 1.294 1.125.358 2.258.701 3.405 1.016v.036zM291.461 290.019c1.556 1.315 9.251-.826 11.071-2.397s-8.828 6.109-8.828 6.109zM242.818 226.583c.154-.607.183-1.228.278-1.849.051-.621.073-1.25.08-1.878-.022-.453-.08-.914-.095-1.367-.124-1.608-.409-3.223-1.008-4.743l-.446-.993c-.19-.307-.38-.614-.562-.921-.234-.402-.549-.738-.804-1.126-.263-.387-.607-.701-.899-1.067-.19-.226-.117-.255.124-.153.234.102.702.292 1.147.658l.541.526c.175.183.38.351.504.563.278.416.585.825.826 1.271.219.453.475.892.65 1.359.169.475.351.943.476 1.433.27 1.169.65 2.367.723 3.595l.073 1.008-.015 1.009c.008.672-.08 1.345-.146 2.01-.029.409-.124.818-.197 1.22-.088.402-.132.811-.256 1.206-.314 1.205-.716 2.397-1.242 3.515-.219.431-.373.884-.599 1.3-.227.417-.446.841-.695 1.257-.102.183-.233.344-.358.519-.489.621-.708.768-1.015.731-.073-.007-.147-.007-.205-.029-.197-.073-.146-.431.102-.921.402-.709.702-1.491 1.067-2.229.307-.767.621-1.534.906-2.324l.336-.869.264-.899c.197-.592.307-1.213.431-1.827h.036zM193.794 225.151c-2.265.314-4.538.782-6.511 1.739a8.7 8.7 0 0 0-1.892 1.308c-1.959 1.783-2.763 4.794-2.529 7.695.095 1.301.439 2.58.87 3.807.139.395.277.79.453 1.17q.241.58.526 1.14c.102.182.146.394.234.592.073.197.175.387.241.591.146.41.329.797.519 1.192.219.504.183.445-.205.168-.372-.293-1.257-.724-2.009-1.52-1.067-1.535-1.886-3.289-2.237-5.16-.38-1.856-.467-3.821-.014-5.729.241-1.14.665-2.28 1.235-3.347.278-.541.65-1.03 1.03-1.52q.309-.353.651-.672c.233-.19.467-.402.716-.57 2.185-1.52 4.64-2.178 7.052-2.638a41 41 0 0 1 4.487-.519c2.272-.146 4.545-.095 6.796.029 1.746.103 3.471.176 5.21.475a9 9 0 0 1 1.133.271c1.403.46 1.798.825 1.893 1.33.021.117.065.234.058.329-.029.314-.628.299-1.586.138-.709-.131-1.461-.153-2.207-.263a54 54 0 0 0-2.265-.234 62 62 0 0 0-4.662-.211c-2.332-.008-4.677.102-6.972.438v-.051z"/><path fill="#231f20" d="M207.32 222.908s16.311 9.778 16.801 6.051c.497-3.72 1.213-12.021 1.213-12.021s-14.44 7.614-18.014 5.97M217.652 151.823c3.273.402 6.101 2.178 8.126 4.531.343.453.723.87 1.015 1.359.154.234.315.468.461.709l.38.76c.826 1.805 1.249 3.793 1.154 5.751a12.2 12.2 0 0 1-1.607 5.532 12.5 12.5 0 0 1-3.354 3.778c-.87.636-1.82 1.17-2.843 1.535a6.1 6.1 0 0 1-1.579.365c-.27.03-.533.059-.803.052-.271 0-.534.029-.804-.044-.673-.212-.556-.271-.051-.665.248-.198.591-.424.971-.68.19-.139.395-.263.6-.395.102-.065.212-.138.321-.211.117-.052.227-.103.351-.154 1.688-.701 3.135-1.871 4.275-3.237.563-.702 1.045-1.44 1.381-2.288.395-.818.599-1.702.789-2.601a8.5 8.5 0 0 0-.219-3.347c-.292-1.111-.818-2.148-1.425-3.106-1.33-2.126-3.413-3.778-5.831-4.545-1.469-.475-3.062-.519-4.59-.176a4.4 4.4 0 0 0-.855.234c-.277.103-.57.176-.847.293-.541.263-1.096.489-1.593.84-1.045.614-1.944 1.469-2.719 2.39-1.184 1.468-1.863 3.244-2.178 5.013-.043.394-.116.774-.138 1.169-.139 1.454-.198 1.9-.965 2.295-.168.087-.329.204-.497.27-.548.226-1.096-.431-1.242-1.783-.176-1.988.248-4.092 1.14-5.992a14.1 14.1 0 0 1 3.946-4.992c2.492-2.024 5.897-3.135 9.208-2.74v.073z"/><path fill="#231f20" d="M204.828 161.041a17 17 0 0 0 1.382 6.211c.365.702.708 1.411 1.14 2.068l.533.907c.19.292.409.57.614.855.409.577.84 1.14 1.323 1.651a21 21 0 0 0 3.208 2.836c1.037.738 2.192 1.322 3.376 1.768.76.285 1.534.504 2.316.723.797.183 1.586.366 2.39.549.504.124.453.314 0 .591-.446.278-1.367.739-2.412.622-1.863-.11-3.653-.717-5.305-1.535-1.651-.826-3.179-1.9-4.45-3.245-.76-.796-1.55-1.593-2.251-2.477-.745-.84-1.389-1.783-1.98-2.74-1.257-2.141-2.054-4.546-2.375-6.986-.066-.753-.154-1.513-.161-2.266.029-.76-.022-1.513.095-2.258.204-2.273.811-4.501 1.673-6.57.139-.416.351-.796.512-1.198.182-.395.314-.811.519-1.191.402-.767.752-1.571 1.249-2.287.205-.322.388-.658.614-.98.884-1.132 1.374-1.322 2.075-1.067.161.059.337.103.483.183.475.278.453 1.009-.029 1.842-1.433 2.462-2.85 4.969-3.654 7.717-.614 2.024-.943 4.15-.819 6.27h-.066z"/><path fill="#231f20" d="M213.639 147.22s12.379-4.764 10.633-16.72c-1.886-12.905-13.432-15.287-18.657-14.308 0 0-7.841 2.411-10.939 5.861l-3.099 3.449s-12.927-3.676-20.001-.556c-7.067 3.121-15.434 6.84-19.563 12.577s-4.311 17.465-3.887 19.687c.423 2.221 2.185 9.061 2.185 9.061s-19.256 7.213-16.319 26.666c2.755 18.211 15.062 24.013 22.077 25.563 7.644 1.695 12.628.789 12.628.789s-3.588-.029-5.043-4.743c-1.461-4.713.994-7.337 2.624-8.338 1.629-1.001 7.68-1.688 7.68-1.688l-5.59-9.317s-1.14-8.368.336-10.458 5.568-4.633 5.568-4.633-1.015-6.613-.833-8.513c.183-1.9 3.026-9.054 4.955-10.721s8.294-3.668 8.294-3.668 8.477-.892 10.45-2.302c1.981-1.41 5.963-6.803 5.963-6.803l10.545-.87zM77.258 139.358c1.389.796 2.624 1.673 3.851 2.594.446.336.928.621 1.352 1.016.19.175.38.351.57.555.095.103.205.212.315.344l.233.307c.315.409.607.84.863 1.286.526.891.95 1.878 1.162 2.908.204.914.24 1.871.095 2.77-.154 1.162-.643 2.265-1.477 3.047-.248.249-.27.183-.292-.153a10 10 0 0 0-.08-.68c-.022-.139-.059-.292-.073-.438q-.002-.21.007-.432c.03-.248.03-.504.051-.738.037-.233.044-.467.059-.694a6 6 0 0 0-.11-1.33c-.088-.862-.387-1.71-.811-2.579a5.4 5.4 0 0 0-1.074-1.447c-.103-.103-.234-.242-.3-.293a5 5 0 0 0-.336-.255l-.775-.549c-1.147-.833-2.353-1.658-3.588-2.367-.753-.431-1.556-.863-2.273-1.082-.197-.058-.409-.131-.599-.022l-.19.081-.255.153c-.183.102-.351.249-.527.38a6.6 6.6 0 0 0-.928.987 7 7 0 0 0-.76 1.279c-.234.438-.43.898-.635 1.351-.088.205-.154.41-.249.607a4 4 0 0 1-.248.453c-.088.117-.19.197-.285.263-.198.132-.388.176-.643.183-.117 0-.234.029-.344.022-.343 0-.57-.475-.577-1.213.124-1.038.409-2.061.833-3.07a10.5 10.5 0 0 1 2.002-2.813c.234-.219.475-.438.753-.643l.446-.314.665-.373c.117-.029.219-.088.343-.095.117-.029.227-.08.35-.08q.365-.045.717 0c.241.022.475.08.709.131.219.073.343.11.497.168a14 14 0 0 1 1.549.709l-.03.066z"/><path fill="#231f20" d="M72.83 143.612c1.067.219 1.886.599 2.667 1.001.768.416 1.52.826 2.193 1.345.497.358 1.023.679 1.49 1.074.84.709 1.637 1.352 2.434 2.28.263.329.41.614.511.869q.176.393.308.797c.175.533.328 1.06.43 1.608.198.957.293 1.943.25 2.915-.03 1.243-.403 2.543-1.258 3.472-.256.292-.307.19-.35-.176-.03-.365-.205-1.023-.161-1.615l.014-.402c0-.131-.014-.27 0-.394.03-.256.015-.519.015-.782a9.4 9.4 0 0 0-.183-1.557 13.7 13.7 0 0 0-.847-3.047 2 2 0 0 0-.154-.3c-.044-.066-.175-.197-.278-.299a10 10 0 0 0-.789-.643 24 24 0 0 0-1.783-1.162c-1.337-.79-2.667-1.652-4.034-2.178l-.614-.197c-.182-.022-.409-.11-.562-.095-.08 0-.169-.022-.242-.015a2 2 0 0 1-.204.037c-.066-.008-.146.058-.227.08-.08.044-.16.051-.234.117-.496.292-.986.811-1.41 1.366a11.4 11.4 0 0 0-1.147 1.827c-.505 1.016-.84 2.09-1.22 3.157-.088.234-.147.475-.242.709-.183.431-.329.702-.511.862-.198.161-.41.212-.687.212-.124 0-.256.015-.373 0-.197-.022-.329-.153-.424-.372a1.6 1.6 0 0 1-.095-.892c.14-1.067.395-2.134.746-3.201a16.5 16.5 0 0 1 1.512-3.135c.49-.767 1.023-1.527 1.85-2.25.233-.176.46-.351.7-.519.3-.154.57-.315.914-.424.358-.095.76-.212 1.074-.19h.497c.161.014.285.051.424.073v.066zM92.064 149.243a12.4 12.4 0 0 0 3.5 3.209c.672.409 1.381.774 2.083.993.796.22.862.227 1.454-.058.526-.329 1.111-.884 1.63-1.52a34 34 0 0 0 1.534-2.068c1.009-1.447 2.003-2.967 3.194-4.421.862-1.06 1.812-2.127 3.098-2.975a6.8 6.8 0 0 1 2.2-.95l.621-.102.731-.022c.519 0 1.125.132 1.593.409.869.483 1.301 1.52 1.322 2.463.037.841-.102 1.469-.263 2.105-.35 1.235-.825 2.331-1.315 3.412-.994 2.142-2.105 4.173-3.215 6.19-2.207 4.027-4.546 7.98-6.278 12.124-.372.913-.709 1.848-.942 2.776-.117.468-.205.921-.256 1.389-.044.497-.095.986-.124 1.483-.125 1.981-.073 3.983.102 5.956.183 2.543.606 5.072 1.111 7.578.255 1.25.519 2.507.855 3.742.329 1.242.694 2.462 1.052 3.705.482 1.534.307 1.396-.548.27-.877-1.111-2.36-3.332-3.318-6.27-1.644-5.203-2.353-10.713-1.79-16.281l.051-.519.08-.578c.066-.38.147-.745.234-1.103.183-.716.402-1.396.643-2.061.483-1.322 1.053-2.579 1.637-3.807 1.191-2.455 2.507-4.801 3.837-7.125 1.586-2.777 3.193-5.62 4.501-8.528.322-.724.621-1.454.87-2.178.234-.716.438-1.454.49-2.031.014-.256 0-.322-.074-.453a.45.45 0 0 0-.321-.205c-.234-.044-.994.029-1.564.285-1.337.563-2.543 1.841-3.61 3.179-1.074 1.366-2.046 2.864-3.106 4.355-.533.746-1.081 1.491-1.724 2.214-.658.709-1.345 1.462-2.47 1.915-.27.117-.585.183-.9.227l-.481.014c-.154-.007-.285-.036-.432-.051-.548-.088-1.015-.241-1.483-.409a13.7 13.7 0 0 1-2.58-1.338c-.986-.657-1.863-1.454-2.674-2.301-.38-.454-.782-.877-1.111-1.367l-.512-.716-.445-.753c-1.177-2.024-1.893-4.268-2.258-6.533-.315-1.717-.351-3.471-.278-5.181.073-1.717.27-3.413.519-5.094.497-3.346 1.257-6.657 1.717-9.85.073-.614.132-1.243.073-1.761-.022-.256-.102-.475-.146-.527 0 0-.022.015 0-.029-.03.044-.015.022-.015.015-.036.014-.073-.015-.175.022-.08 0-.197.065-.314.117-.117.058-.227.087-.344.16-.226.168-.467.285-.68.483-.445.365-.854.804-1.249 1.249-1.535 1.871-2.66 4.107-3.442 6.424-.35 1.023-.592 2.053-.796 3.113-.125.489-.147.95-.22 1.359-.073.417-.11.797-.139 1.14q-.045.516-.102.943a19 19 0 0 1-.051.774c-.11.936-.212 1.484-.46 1.959-.11.219-.205.504-.315.643-.182.234-.409-.059-.686-.826a5.7 5.7 0 0 1-.337-1.498 27 27 0 0 1-.102-1.001c-.015-.358 0-.738 0-1.147.073-2.405.563-4.823 1.41-7.147.87-2.317 2.047-4.553 3.793-6.548.234-.241.453-.497.702-.731.263-.234.526-.467.803-.687.636-.424 1.206-.869 2.339-1.074.117-.029.343-.022.519-.007.19.014.365.029.599.117.453.131.826.438 1.103.774.103.146.205.307.293.468.087.168.11.27.168.409.102.285.131.483.175.716.124.855.08 1.513.044 2.178-.16 2.602-.753 4.911-1.154 7.279-.629 3.478-1.148 6.964-.972 10.311.029.84.153 1.644.306 2.462.066.41.14.819.264 1.213.116.395.197.804.336 1.184a14.4 14.4 0 0 0 2.221 4.297l-.044.044zM296.62 75.986l.307.176c.102.066.197.16.3.24.197.169.401.322.584.542.19.204.38.402.556.614l.263.321.168.22 1.067 1.468c.687.965 1.366 1.893 2.09 2.762.526.636 1.14 1.184 1.71 1.798 1.008 1.074 2.104 2.105 3.23 3.128.562.526 1.132 1.016 1.717 1.63.146.16.3.314.46.57.183.292.22.445.315.657.146.38.277.746.402 1.11.445 1.294.884 2.573 1.373 3.816.673 1.57 1.199 3.2 1.886 4.742.146.526.073.512-.402.271-.468-.249-1.213-.834-1.798-1.696-.256-.387-.489-.774-.723-1.162-.227-.394-.41-.804-.6-1.213-.38-.811-.73-1.63-1.066-2.448-.337-.811-.622-1.666-.921-2.419-.037-.095-.073-.19-.11-.263l-.08-.182v-.015s-.03.022.029-.03l.168-.13.168-.132.081-.066.043-.037.022-.014c-1.008.796-.277.219-.504.394l-.058-.073c-.03-.044-.103-.117-.161-.183-.256-.27-.57-.57-.884-.87-1.535-1.431-3.406-2.74-4.992-4.347-1.739-1.783-3.12-3.903-4.487-5.686a4.5 4.5 0 0 0-.431-.526c-.16-.16-.358-.35-.606-.365-.278-.022-.475.226-.512.482-.226.724.658 3.325 1.586 5.167.753 1.512 1.71 2.879 2.689 4.209.219.292.424.577.629.877.372.563.606.928.701 1.242.088.322.066.578-.022.855-.043.124-.058.27-.109.373-.088.175-.278.212-.585.131a2.7 2.7 0 0 1-1.111-.672c-.584-.555-1.183-1.125-1.666-1.776a24 24 0 0 1-1.388-2.01 29 29 0 0 1-2.288-4.457c-.19-.49-.38-.98-.533-1.49-.037-.132-.08-.257-.117-.388l-.132-.504c-.058-.234-.095-.475-.138-.71a4 4 0 0 1-.088-.7c-.088-.929.036-1.762.402-2.354.19-.292.387-.592.701-.796.147-.11.315-.212.483-.285.182-.059.35-.146.526-.19.343-.022.643-.044.943 0 .153 0 .306.08.453.117.153.036.307.117.46.204zM219.025 218.479c4.852-2.083 9.135-5.51 12.306-9.829.526-.811 1.111-1.6 1.571-2.448l.673-1.293c.219-.431.475-.848.65-1.308 1.491-3.106 2.433-6.49 2.916-9.946.489-3.457.526-6.994.182-10.501-.321-3.113-1.023-6.197-1.921-9.179l-.994-2.835a76 76 0 0 1-1.126-2.784q-1.215-2.763-2.44-5.525c-.446-1.198-.3-1.103.533-.343.417.372.987.935 1.673 1.622.636.716 1.243 1.651 1.842 2.689.278.46.482.95.723 1.425.234.482.468.957.68 1.447.446.972.76 1.988 1.147 2.989.395.994.643 2.039.958 3.054.329 1.016.518 2.076.76 3.121a43.4 43.4 0 0 1 .628 12.832c-.219 2.572-.716 5.159-1.337 7.739l-.585 1.907-.292.958-.373.928-.752 1.856c-.293.599-.614 1.184-.921 1.776l-.512.964c-.19.314-.402.614-.599.921-.409.607-.804 1.228-1.228 1.82-.453.57-.899 1.147-1.359 1.71-.49.54-.965 1.088-1.469 1.615a32.7 32.7 0 0 1-6.84 5.393c-1.527.935-3.164 1.666-4.816 2.338a37 37 0 0 1-5.115 1.535c-5.269 1.169-10.793 1.001-15.982-.168-4.041-.899-7.921-2.361-11.444-4.597q-.579-.373-1.147-.745a40 40 0 0 1-1.096-.833c-.673-.534-1.177-1.053-1.608-1.469-.402-.446-.709-.826-.928-1.162-.438-.68-.526-1.206-.482-1.703.022-.226.007-.497.08-.665.241-.584 1.403.176 3.164 1.637 5.269 4.297 12.124 7.081 19.271 7.6 5.29.417 10.72-.446 15.58-2.609l.036.059z"/><path fill="#231f20" d="M165.006 212.209c-.249 1.768.541 3.661 2.112 4.947.562.483 1.235.819 1.922 1.126 2.418 1.14 5.415 1.227 8.082.234a10 10 0 0 0 1.703-.804 5.2 5.2 0 0 0 1.337-1.162c.994-1.14 1.359-2.704 1.235-4.348-.044-.512.088-.505.431-.117.314.372.935 1.227.906 2.411a5.95 5.95 0 0 1-.869 3.018 7.3 7.3 0 0 1-2.302 2.127c-.833.468-1.703.913-2.638 1.176-.928.264-1.886.454-2.858.475-2.294.095-4.75-.153-6.898-1.278-1.169-.614-2.236-1.455-3.069-2.514-.841-1.053-1.44-2.331-1.63-3.683-.08-.417-.08-.833-.095-1.25.037-.416.044-.833.132-1.235.131-.811.416-1.578.738-2.302l.416-.796.475-.753c.351-.482.672-.943 1.133-1.41.891-.899 1.995-1.484 3.128-1.879 1.768-.599 3.661-.76 5.51-.372.394.109.811.161 1.198.336.731.27 1.155.585 1.403.862.219.322.263.614.197.965-.029.161-.036.329-.087.46-.176.446-.892.497-1.74.234a9.6 9.6 0 0 0-3.836-.475c-1.257.117-2.514.497-3.413 1.199-.182.116-.314.27-.475.401-.131.169-.256.264-.416.497-.315.41-.585.826-.833 1.257-.483.863-.782 1.761-.848 2.66h-.066z"/><path fill="#231f20" d="M169.182 187.911a9.5 9.5 0 0 0-.409 4.085c.058.512.233.994.365 1.484.234.876.555 1.746.979 2.586.227.41.453.841.709 1.206.263.38.577.753.906 1.133.585.672 1.242 1.359 1.834 2.156.76.986 1.235 2.484.746 3.705-.249.372-.219.299-.497-.015-.154-.153-.292-.358-.512-.563-.204-.212-.431-.409-.555-.628a4.5 4.5 0 0 0-.424-.541c-.073-.088-.168-.168-.248-.248a2 2 0 0 0-.22-.271 16 16 0 0 0-1.067-1.11c-.409-.373-.803-.826-1.205-1.316-.395-.475-.819-1.067-1.111-1.651-.731-1.36-1.564-2.763-1.937-4.341a12.7 12.7 0 0 1-.321-2.616c0-.877.08-1.754.241-2.602a13 13 0 0 1 1.008-3.011c.687-1.447 1.645-2.74 2.777-3.858.87-.87 1.805-1.732 3.062-2.287.271-.125.556-.242.863-.315.285-.065.54-.073.738-.073q.316.033.511.132c.263.139.395.394.439.76.022.168.051.336.044.497a1.14 1.14 0 0 1-.3.694 1.4 1.4 0 0 1-.592.387c-1.374.505-2.762 1.608-3.873 3.033-.811 1.06-1.498 2.28-1.856 3.603l-.066-.015z"/><path fill="#231f20" d="m177.912 163.663-.673.796c-.219.271-.387.578-.584.87-.417.57-.694 1.22-1.001 1.863a2.9 2.9 0 0 0-.256.731 10 10 0 0 1-.227.746 14.6 14.6 0 0 0-.752 5.495c-.015.424.117.833.19 1.242.095.409.146.833.321 1.213l.292.753c.095.248.154.519.256.767q.175.36.285.775c.073.27.168.533.219.833-.007.417.03.343-.314.212-.175-.066-.394-.183-.672-.329-.139-.073-.278-.161-.431-.256-.081-.044-.139-.102-.227-.153l-.175-.197c-.417-.475-.694-1.038-.972-1.601-.307-.555-.46-1.162-.643-1.768-.088-.307-.183-.607-.249-.914l-.117-.942c-.029-.315-.073-.629-.073-.943s.059-.636.095-.95c.052-.373.081-.753.103-1.133.044-.38.109-.753.153-1.133.059-.38.081-.767.168-1.14.095-.372.19-.745.293-1.11l.175-.607c.066-.197.161-.387.241-.577l.512-1.147c.175-.38.423-.724.628-1.089.227-.351.402-.731.68-1.045l.95-1.206c.343-.38.716-.731 1.067-1.096.138-.139.27-.278.409-.409l.46-.359.914-.708c.643-.424 1.3-.826 1.958-1.213a26 26 0 0 0 1.579-.848 48 48 0 0 1 1.666-.694c.248-.11.497-.198.76-.242.986-.175 1.33-.036 1.578.687.059.161.124.315.161.475.11.519-.219 1.089-.789 1.316-.87.292-1.674.723-2.507 1.037q-.591.331-1.206.607c-.401.205-.767.482-1.154.709-.3.161-.563.373-.826.592l-.811.628-.731.731-.365.365c-.117.125-.212.271-.322.41l-.051-.037zM134.28 194.707c.256 4.677 1.52 9.31 3.866 13.388.825 1.505 1.914 2.835 2.988 4.172 1.944 2.317 4.224 4.37 6.804 6.015a32.4 32.4 0 0 0 8.382 3.748c2.631.782 5.4 1.162 8.133 1.228 1.761 0 3.523-.014 5.291-.131 1.783-.044 3.522-.373 5.335-.461 1.132-.051.986-.058.109.388-.438.204-1.037.643-1.819.942-.782.293-1.703.702-2.755.906-3.691.921-7.578.965-11.378.417a28.2 28.2 0 0 1-5.62-1.33c-1.82-.665-3.588-1.454-5.269-2.426-3.99-2.317-7.863-5.306-10.706-9.113-3.12-4.173-5.071-9.142-5.846-14.221-.482-3.127-.526-6.306-.212-9.434.512-4.779 2.236-9.427 4.962-13.322 1.06-1.513 2.193-2.967 3.515-4.253.629-.672 1.345-1.257 2.046-1.856.351-.3.746-.548 1.118-.833.38-.271.753-.548 1.162-.775.702-.424 1.382-.869 2.149-1.191.351-.153.672-.3.972-.431.307-.11.592-.19.847-.27.519-.147.936-.256 1.301-.278.731-.029 1.177.109 1.564.402.175.131.395.256.504.402.19.248.015.562-.431.891s-1.169.651-2.083 1.082c-1.366.577-2.652 1.352-3.909 2.177-.592.468-1.235.863-1.791 1.382l-.862.738-.811.804c-2.17 2.141-3.932 4.75-5.218 7.57a26.1 26.1 0 0 0-1.973 6.621 32.5 32.5 0 0 0-.292 7.052l-.073.015zM112.014 269.851c2.594 3.31 5.378 6.467 8.206 9.573l2.185 2.265 1.096 1.126 1.14 1.088c1.528 1.44 3.011 2.931 4.619 4.275 1.169.994 2.294 2.032 3.515 2.96l3.617 2.828c4.326 3.223 8.806 6.241 13.505 8.901 4.72 2.616 9.617 4.925 14.666 6.854 4.509 1.637 9.142 2.997 13.804 3.969 1.498.299 3.011.533 4.517.796.752.146 1.512.205 2.272.314l2.273.307c3.04.351 6.08.629 9.142 1.082 1.907.124 1.659.387.029.665-.818.109-1.988.489-3.413.679-.708.088-1.483.176-2.309.205-.818.015-1.688 0-2.594-.037a176 176 0 0 1-4.779-.489c-1.586-.234-3.157-.534-4.736-.804-1.571-.3-3.127-.694-4.691-1.045-1.564-.358-3.091-.855-4.633-1.279-6.131-1.893-12.051-4.443-17.692-7.512-6.745-3.669-13.534-7.929-19.643-12.847-6.723-5.393-12.876-11.488-18.408-18.057-1.74-1.995-3.362-4.085-5.013-6.139-1.586-2.112-3.208-4.194-4.728-6.35-4.663-6.489-8.952-13.293-12.855-20.199-3.01-5.378-5.846-10.735-8.294-16.347-.519-1.242-1.11-2.426-1.564-3.712-.891-2.361-1.44-3.932-1.651-5.094-.241-1.147-.263-1.849-.125-2.448.059-.27.103-.621.19-.796.33-.592 1.28 1.242 2.558 4.625 1.944 5.013 4.297 10.019 6.833 15.01 1.25 2.507 2.63 4.97 3.99 7.454 1.425 2.456 2.835 4.926 4.355 7.337 2.214 3.61 4.582 7.132 6.994 10.626 2.477 3.449 4.984 6.883 7.673 10.165l-.044.043zM297.371 201.537c-.585 2.448-1.396 4.838-2.287 7.191-.504 1.162-.928 2.324-1.52 3.479a34 34 0 0 1-1.893 3.332c-1.001 1.556-2.039 3.091-3.245 4.48-4.231 4.918-9.397 8.908-15.075 11.882a49 49 0 0 1-7.863 3.318c-1.74.548-3.537.971-5.372 1.147-.453.058-.92.08-1.381.102s-.92.051-1.381-.007c-.46-.022-.921-.073-1.374-.146s-.913-.117-1.352-.263c-1.096-.41-.906-.453.066-.775a42 42 0 0 1 1.929-.555 13.3 13.3 0 0 1 2.617-.578 39.5 39.5 0 0 0 9.945-2.915c3.208-1.411 6.27-3.209 9.201-5.247 3.507-2.448 6.642-5.693 9.259-9.164 1.446-1.908 2.725-3.932 3.726-6.073.264-.526.475-1.096.709-1.651.227-.563.468-1.111.68-1.681.387-1.148.833-2.266 1.147-3.442.877-2.85 1.498-5.781 1.908-8.74.621-4.48.847-9.062.518-13.563-.226-3.501-.877-6.891-1.629-10.26-.154-.746-.358-1.462-.541-2.207a28 28 0 0 1-.365-1.754c-.095-.482-.161-.877-.161-1.22 0-.68.146-1.111.424-1.506.124-.175.234-.402.365-.519.227-.204.519-.051.862.402.344.453.775 1.206 1.104 2.229 1.929 6.08 2.974 12.84 2.894 19.643.007 2.529-.205 5.057-.468 7.586-.343 2.513-.738 5.027-1.359 7.497h-.066zM187.027 333.156l-.694 4.925c-.088.6-.095 1.206-.19 1.805-.315 2.112-.643 4.224-.899 6.336a47 47 0 0 0-.256 2.821c-.08 1.198-.022 2.419-.526 3.595-.168.366-.292.307-.57-.022-.285-.336-.789-.95-.855-1.651a57 57 0 0 1 .036-3.705c.052-1.235.242-2.463.446-3.698.256-1.469.256-3.025.388-4.538.146-1.666.358-3.325.555-4.991l.365-3.069c.168-1.55.388-3.099.49-4.648.08-1.198.015-2.39.015-3.588 0-.263-.03-.526-.015-.789.036-.98.278-1.272 1.023-1.403.153-.03.3-.081.438-.095.227-.022.417.073.651.277.248.205.365.497.409.863.234 2.155.059 4.377-.168 6.606-.168 1.659-.395 3.317-.585 4.976h-.058zM289.21 80.8l.336-.241.365-.205c.125-.03.242-.102.373-.102.132-.022.249-.08.38-.066.263 0 .519.03.76.124.249.073.475.212.694.358.205.19.432.344.614.563l.278.307c.11.11.117.146.183.22l.299.386.556.76c.708 1.002 1.388 1.973 2.112 2.923.285.373.562.717.847 1.038l.914.972c1.089 1.162 2.338 2.222 3.566 3.42.307.3.614.614.913.957.285.337.607.753.811 1.14.446.79.775 1.593 1.067 2.397.505 1.425.958 2.85 1.389 4.246.555 1.798 1.184 3.544 1.52 5.4-.066.651.014.549-.475.205-.256-.161-.526-.438-.841-.789a9 9 0 0 1-.46-.585c-.073-.109-.153-.219-.226-.329-.052-.124-.11-.241-.161-.372-.694-1.827-1.301-3.647-1.9-5.423-.3-.884-.614-1.76-.965-2.58-.175-.409-.365-.81-.57-1.168a5 5 0 0 0-.307-.497c-.124-.161-.248-.322-.394-.49-1.447-1.593-3.567-2.952-5.262-4.772-.965-1.03-1.695-2.083-2.477-3.15l-1.133-1.578c-.19-.256-.373-.504-.563-.738-.153-.19-.204-.256-.328-.365-.132-.132-.344-.212-.505-.096-.248.11-.438.38-.497.65-.102.44-.087.973-.014 1.506.146 1.096.489 2.236.906 3.34a25.4 25.4 0 0 0 1.498 3.23c.892 1.622 1.958 3.106 3.033 4.575.241.321.482.635.723.957.877 1.213 1.052 1.651.884 2.207-.036.124-.058.27-.117.372-.182.351-.847.066-1.636-.774-2.295-2.514-4.173-5.525-5.817-8.77-.6-1.22-1.17-2.47-1.542-3.894a7.9 7.9 0 0 1-.271-2.339c.037-.453.051-.826.315-1.542.153-.27.27-.562.453-.804.19-.234.38-.475.635-.628zM312.098 122.403c.687-3.917 1.637-7.71 2.507-11.495.314-1.381.57-2.77.862-4.136a58 58 0 0 0 .68-3.618c.066-.592.19-1.205.204-1.783l.052-.877c.007-.292-.022-.548-.03-.825-.036-1.009-.555-2.149-1.008-3.274a81 81 0 0 0-1.535-3.384c-.95-1.995-2.046-3.939-3.076-5.882l-.994-1.879a86 86 0 0 1-.935-1.914c-.592-1.294-1.228-2.572-1.696-3.924-.285-.848-.219-.746.285-.168.519.57 1.52 1.585 2.477 2.923 1.732 2.345 3.23 4.815 4.59 7.395a94 94 0 0 1 2.002 3.91c.636 1.337 1.228 2.682 1.703 4.194.131.417.285 1.009.329 1.498.021.49.095 1.016.065 1.484-.022.468-.029.95-.065 1.418l-.139 1.381a67 67 0 0 1-.899 5.378c-.811 3.866-1.805 7.651-2.58 11.473-.46 2.346-.899 4.706-.986 7.03 0 .431-.044.884 0 1.308s.058.841.124 1.279q.22 1.337.497 2.675a76 76 0 0 0 1.286 5.276c.767 2.696 1.747 5.276 2.74 7.863.227.57.446 1.118.68 1.695.402 1.067.643 1.776.716 2.317.059.541-.022.899-.212 1.235-.087.153-.161.336-.256.446-.168.182-.416.087-.738-.234-.321-.322-.723-.877-1.067-1.652-2.111-4.574-3.785-9.631-5.049-14.849a77 77 0 0 1-.643-2.93l-.278-1.484c-.073-.526-.124-1.111-.175-1.666-.066-2.178.219-4.18.511-6.182h.059z"/><path fill="#231f20" d="M286.76 56.987c-14.966-21.068-50.182-10.15-50.182 15.756 0 15.046 15.017 25.774 27.236 25.774 15.675 0 26.841-11.773 27.097-25.774.102-5.372-.68-10.86-4.151-15.756m-19.701 25.599c-6.212 0-11.24-5.035-11.24-11.246s5.028-11.24 11.24-11.24c6.211 0 11.239 5.035 11.239 11.24 0 6.204-5.028 11.246-11.239 11.246" opacity=".35"/><path fill="#231f20" d="M264.815 28.457c-.205.621-.051 8.667 2.243 10.932 2.295 2.273-13.088 4.458-13.088 4.458l-4.333-12.262 15.17-3.128zM227.728 54.867s10.173 6.606 10.852 5.167-3.851 6.708-3.12 10.019-13.307 1.483-13.066-.95c.241-2.434 5.342-14.236 5.342-14.236zM239.4 86.347l-9.99 7.388 8.543 12.672s10.179-10.677 11.159-10.012c.979.665-5.51-4.626-6.862-6.51-1.352-1.886-2.85-3.545-2.85-3.545zM264.818 103.04c-.658-1.176.409 12.591 1.235 12.957.826.365 13.446.409 15.85-.921s1.542-4.29.563-7.001c-.987-2.711-2.507-6.43-2.507-6.43s-13.701 3.968-15.141 1.395M298.145 39.248c-1.812 1.66-6.869 5.744-5.035 7.6 1.835 1.857 6.504 4.721 6.132 8.024-.373 3.303-3.589 1.345-3.589 1.345l-10.501-12.365 7.498-8.133 5.503 3.537zM310.701 80.727c.336-3.567-6.219-8.719-7.439-8.88l9.587 2.113z" opacity=".35"/><path fill="#231f20" d="M259.512 38.944a44 44 0 0 1 2.748-.307c.329-.037.658-.117.986-.132.585-.036 1.177-.029 1.762-.036l1.753.066h.775c.256 0 .511 0 .767.021.329.03.658.052.979.095.329.052.651.132.972.22.198.058.168.175 0 .343-.175.16-.489.431-.847.548l-.958.292c-.16.044-.314.103-.475.14l-.475.043c-.635.051-1.271.08-1.921.066-.782-.037-1.564.175-2.339.3-.855.131-1.71.27-2.565.445-.526.11-1.052.22-1.571.351-.789.205-1.579.41-2.324.73-.577.257-1.074.659-1.593.995-.117.066-.227.146-.351.212-.453.226-.687.102-1.038-.358-.08-.103-.168-.205-.233-.307a.95.95 0 0 1 .065-1.133c.212-.241.432-.475.665-.68.249-.175.512-.35.782-.497a12 12 0 0 1 1.718-.738c.877-.307 1.79-.533 2.696-.73l.015.058zM227.92 68.758c.621.16 1.265.307 1.908.439.233.05.482.05.716.102.84.175 1.673.46 2.506.716.366.11.746.205 1.118.292.227.095.468.161.687.293s.424.285.621.43c.125.103.081.154-.08.227-.161.066-.453.22-.738.256a4.3 4.3 0 0 1-.738.051c-.234-.014-.46-.066-.687-.11-.453-.087-.913-.19-1.374-.328-.555-.161-1.162-.154-1.754-.249a64 64 0 0 1-1.965-.321c-.41-.073-.819-.154-1.221-.227-.621-.11-1.228-.3-1.849-.424-.482-.11-.979-.131-1.476-.234-.109-.021-.226-.021-.321-.08a1.3 1.3 0 0 1-.227-.131c-.058-.059-.08-.132-.11-.198-.043-.139-.036-.277 0-.46l.044-.234c.066-.227.322-.402.658-.526.87-.073 1.615.146 2.441.278.606.102 1.22.27 1.856.394v.044zM291.62 40.14c-.461.388-.928.768-1.374 1.163-.161.146-.292.321-.461.46-.591.497-1.213.965-1.783 1.484a7.5 7.5 0 0 0-.708.73c-.329.285-.578.644-1.038.819-.139.058-.161.014-.168-.154-.015-.124-.022-.248-.029-.343 0-.132.029-.263.087-.38l.322-.6c.117-.19.27-.35.409-.526q.426-.506.928-.957c.409-.35.702-.833 1.074-1.227q.615-.658 1.25-1.294l.782-.79c.395-.401.804-.781 1.155-1.212.27-.336.46-.731.686-1.104.052-.08.088-.175.147-.248.204-.285.38-.278.774-.03.088.06.183.11.263.169.278.204.417.518.322.782-.278.774-.789 1.395-1.33 1.995-.402.438-.833.87-1.264 1.286l-.03-.03z"/><path fill="#231f20" d="M253.044 34.667c.124.614.256 1.236.402 1.842.051.227.153.431.204.658.176.789.315 1.6.527 2.382.087.35.219.687.358 1.016.087.212.146.438.197.657.022.117.058.22.051.351l-.044.388c-.029.16-.08.168-.27.11-.139-.045-.285-.081-.395-.118-.08-.029-.175-.05-.248-.088a.8.8 0 0 1-.161-.146c-.146-.197-.307-.387-.431-.592-.088-.219-.168-.438-.249-.665a9 9 0 0 1-.35-1.388c-.095-.57-.366-1.103-.519-1.666-.176-.621-.329-1.242-.482-1.864q-.143-.579-.285-1.147c-.147-.577-.271-1.17-.454-1.732-.146-.438-.372-.84-.57-1.264a1.4 1.4 0 0 1-.102-.285c-.095-.366.059-.526.38-.694.081-.037.154-.08.227-.11.248-.102.526-.015.76.205.307.336.489.709.635 1.103.154.387.271.797.388 1.206.168.606.299 1.228.46 1.834l-.036.015zM241.089 92.064l-1.345-1.294c-.409-.394-1.037-.906-1.008-.891-.051-.044-.11-.015-.154.022-.073.05-.065.044-.306.197-1.374.87-2.748 1.732-4.115 2.602-.614.394-1.22.796-1.841 1.176-.782.49-1.571 1.067-2.609 1.082-.314.014-.3-.059-.175-.358.058-.154.146-.373.233-.636.103-.241.249-.46.439-.636.694-.6 1.439-1.096 2.17-1.651.775-.49 1.571-.973 2.397-1.426.497-.27.965-.606 1.432-.95l.709-.526c.249-.182.431-.321.885-.592.102-.073.219-.124.336-.16s.234-.095.35-.117c.117-.052.242-.03.366 0 .124.022.241.05.358.11.234.109.446.24.665.394.168.117.278.212.416.322.519.423.994.855 1.462 1.286l1.732 1.585c.877.79 1.754 1.579 2.682 2.28.723.541 1.513.95 2.28 1.345.168.088.343.146.497.256.577.387.701.584.679 1.045 0 .102 0 .212-.014.307-.044.321-.453.475-1.067.365-.914-.139-1.696-.584-2.456-1.023a21 21 0 0 1-2.155-1.505c-1.001-.826-1.93-1.718-2.872-2.573zM264.076 105.624c-.029-.351.11-.526.183-.76.095-.219.132-.46.373-.628.38-.314.935-.468 1.571-.504h1.564l1.016.029c.489 0 .979-.073 1.461-.073 1.725-.015 3.449-.117 5.159-.402.76-.11 1.513-.307 2.237-.534.467-.146.92-.343 1.395-.467l.358-.103.38-.043.38-.037c.132-.007.307.088.439.095.358.058.314.044.153.351-.087.131-.124.548-.285.774a4 4 0 0 1-.248.402c-.044.066-.102.125-.146.198a2 2 0 0 1-.19.124c-.461.285-.95.497-1.447.687-.497.197-1.001.365-1.513.519-1.023.328-2.097.445-3.171.482-1.287.044-2.58.321-3.874.387-.708.037-1.417.051-2.119.051h-.256l-.116-.007-.227-.015c-.146 0-.329-.036-.482.03-.022.124 0 .263.007.409 0 .124-.007.241.007.387l.044.811c.066 1.316.066 2.638.088 3.961 0 1.03.08 2.054-.073 3.142a4.3 4.3 0 0 1-.132.724c-.153.438-.351.716-.541.855-.226.139-.438.153-.686.102-.117-.022-.234-.036-.337-.08-.321-.146-.453-.585-.438-1.096.11-1.484.153-3.187.073-4.962-.022-.651-.132-1.301-.205-1.959l-.138-.986-.044-.263a6 6 0 0 0-.088-.505l-.212-1.03v-.11l.066.022zM263.619 84.661c-1.783-.504-3.42-1.469-4.801-2.645-.256-.212-.511-.417-.774-.629q-.353-.35-.695-.709c-.782-.862-1.403-1.841-1.936-2.85-.563-1.015-.899-2.133-1.126-3.237a15.2 15.2 0 0 1-.27-2.989c0-.643.117-1.286.314-1.9a5 5 0 0 1 .979-1.659c.278-.285.234-.234.117.073-.146.3-.175.928-.153 1.594-.015.285 0 .584.022.87q.056.435.058.861c.037.57.103 1.148.212 1.71.249 1.126.461 2.273.914 3.333.584 1.271 1.505 2.477 2.572 3.427 1.155 1.089 2.572 1.842 4.063 2.382.234.08.46.176.694.241l.716.176c.475.139.972.183 1.462.256 1.491.153 3.033.124 4.523-.161 1.148-.263 2.229-.694 3.267-1.206.227-.11.453-.22.694-.307.439-.183.731-.292.987-.278.256.022.446.117.65.285.095.08.197.147.271.227.124.139.131.314.036.534a1.8 1.8 0 0 1-.599.723c-.906.723-1.981 1.242-3.113 1.644-.563.212-1.162.344-1.754.504-.599.11-1.213.227-1.827.293-1.834.19-3.727-.03-5.532-.512v-.051z"/><path fill="#231f20" d="M264.795 28.88c-2.295.153-4.64.504-6.942.964-.841.168-1.667.424-2.5.621-.994.234-1.98.49-2.937.782-.241.073-.475.154-.702.234l-.336.124-.146.059-.066.021c-.088.037-.183.074-.278.125-.043.029-.087.058-.117.102-.021.044 0 .095 0 .146q.024.14.059.292l.183.666.409 1.425c.372 1.308.826 2.608 1.286 3.88.27.826.533 1.659.804 2.485.131.416.248.833.365 1.257.073.204.095.43.11.657.022.227.066.439.095.658.073.555 0 .504-.38.16-.197-.167-.446-.423-.826-.7-.329-.3-.592-.695-.833-1.148a97 97 0 0 1-1.133-2.258c-.372-.753-.636-1.55-.942-2.332a64 64 0 0 1-.833-2.382c-.132-.402-.234-.81-.351-1.228-.051-.263-.366-1.198-.417-1.856.015-.182.037-.343.095-.511.059-.183.168-.336.285-.475.534-.629 1.688-1.06 2.076-1.213a39 39 0 0 1 1.622-.585 41 41 0 0 1 3.237-.972 65 65 0 0 1 7.235-1.352c1.505-.182 3.018-.328 4.604-.277q.449.012.92.08c.278.037.753.124 1.111.278.373.16.724.394.914.752.095.176.19.358.248.548.059.183.154.402.168.534.271 1.22.344 2.353.439 3.493.138 1.768.292 3.486.358 5.232.007.388.051.76.036 1.148-.014.716-.08 1.19-.248 1.512-.19.322-.439.49-.797.614-.16.059-.321.139-.482.16-.263.045-.49-.08-.687-.35a2.3 2.3 0 0 1-.424-1.191c-.168-1.52-.277-3.07-.38-4.626-.131-1.542-.095-3.135-.256-4.574-.029-.256-.058-.52-.102-.731l-.029-.16v-.03s-.168-.044-.256-.051c-.928-.125-2.112-.073-3.252.022v-.066zM268.674 115.959c2.302-.03 4.691-.285 7.037-.651.855-.139 1.696-.358 2.551-.519a41 41 0 0 0 3.164-.716q.385-.11.76-.219l.599-.197c.102-.037.205-.073.3-.132.043-.029.102-.066.117-.117 0-.051-.008-.109-.015-.161l-.051-.27-.154-.585-.35-1.278a51 51 0 0 0-1.272-3.925c-.278-.833-.548-1.666-.826-2.499l-.394-1.257a2.7 2.7 0 0 1-.132-.658c-.029-.226-.08-.438-.131-.657-.103-.548-.03-.512.365-.183.205.161.475.409.862.687.336.3.621.702.877 1.155.395.73.767 1.468 1.133 2.214.38.738.628 1.52.928 2.287.285.775.555 1.549.804 2.339.131.387.234.796.336 1.198l.19.724c.08.365.19.723.226 1.074-.014.285-.014.526-.153.789a1.9 1.9 0 0 1-.548.629c-.358.27-.797.482-1.228.65-.358.139-.584.212-.884.314-.555.183-1.103.351-1.659.512a43 43 0 0 1-3.31.84 61 61 0 0 1-7.374 1.052c-1.542.103-3.062.198-4.728-.051-.161-.029-.27-.051-.467-.095a3.5 3.5 0 0 1-.549-.182c-.343-.147-.679-.351-.891-.665l-.219-.424-.146-.453-.074-.227-.029-.183-.066-.358a16 16 0 0 1-.153-1.381 69 69 0 0 1-.132-2.675c-.095-1.768-.182-3.5-.277-5.254-.015-.38-.059-.76-.059-1.147 0-.716.044-1.177.198-1.505.175-.322.409-.512.767-.658.161-.066.314-.154.468-.197.263-.066.497.051.708.314.212.263.424.679.483 1.206.219 1.563.329 3.157.402 4.757.109 1.593.014 3.208.087 4.743l.03.65.051.614.066.453v.036c.021.008.058.015.087.022.059.015.124.03.198.037q.206.035.445.058c.629.066 1.323.073 2.025.051v.066zM303.028 47.068c-1.36-1.856-2.909-3.647-4.531-5.357-.592-.62-1.25-1.176-1.856-1.775a66 66 0 0 0-1.637-1.55q-.415-.373-.841-.723l-.423-.336-.212-.161-.103-.073-.036-.03c-.11-.08-.234-.182-.388-.219-.153.015-.233.169-.358.264a4 4 0 0 0-.131.138l-.19.212-.38.431-.767.863c-.907 1.015-1.762 2.09-2.595 3.164l-1.673 2.01q-.426.494-.862.979c-.132.168-.315.307-.497.438-.176.14-.337.293-.505.439-.431.358-.431.27-.336-.234.044-.256.117-.607.154-1.074.08-.439.27-.877.519-1.316.453-.774.92-1.549 1.395-2.309.49-.753 1.045-1.454 1.586-2.17.548-.71 1.096-1.418 1.695-2.098l1.024-1.11c.562-.607 1.103-1.148 1.87-1.002.811.117 1.798.863 2.134 1.111.475.351.921.702 1.359 1.06.885.716 1.74 1.447 2.551 2.221a66 66 0 0 1 5.013 5.386c.957 1.177 1.893 2.375 2.696 3.742.154.263.3.533.432.825.116.256.292.702.358 1.09.065.394.058.825-.154 1.176-.095.175-.197.35-.329.504-.124.146-.255.343-.365.431-.884.877-1.805 1.55-2.719 2.244-1.417 1.067-2.791 2.112-4.231 3.098-.321.212-.614.446-.95.643-.614.373-1.052.57-1.41.6-.373.007-.65-.11-.95-.344-.139-.11-.285-.205-.395-.322-.182-.197-.19-.46-.073-.767.124-.307.366-.687.775-.994 1.191-.957 2.448-1.878 3.705-2.791 1.235-.936 2.601-1.754 3.727-2.66.204-.168.402-.33.562-.483l.125-.11h.029s-.059-.16-.095-.248c-.395-.847-1.067-1.827-1.754-2.733l.051-.044zM231.765 97.243c1.264 1.892 2.74 3.741 4.29 5.495.57.643 1.198 1.221 1.783 1.834a41 41 0 0 0 2.199 2.178l.57.497.424.351c.081.066.161.124.263.175.051.022.103.044.154.022.044-.022.08-.058.117-.095l.212-.197.453-.49.942-1.038a48 48 0 0 0 2.595-3.127l1.644-2.003.84-.986c.132-.168.3-.314.475-.453.176-.139.322-.3.482-.453.402-.373.417-.293.351.212-.029.255-.087.613-.109 1.081-.066.439-.249.884-.49 1.338a63 63 0 0 1-1.272 2.148c-.423.716-.957 1.345-1.446 2.01-.505.65-1.016 1.3-1.557 1.929-.263.321-.555.614-.84.928l-.512.548c-.263.256-.511.548-.782.767a2 2 0 0 1-.584.263 1.5 1.5 0 0 1-.673-.014c-.811-.161-1.739-.936-2.075-1.191a41 41 0 0 1-1.316-1.104 43 43 0 0 1-2.462-2.302 63 63 0 0 1-4.787-5.554c-.906-1.213-1.79-2.44-2.514-3.865q-.12-.255-.241-.52l-.109-.277c-.03-.095-.088-.241-.11-.358-.132-.482-.183-.994.007-1.454l.205-.366c.08-.117.175-.219.263-.328.183-.249.336-.38.497-.527.321-.292.636-.555.957-.796.643-.497 1.294-.943 1.937-1.396 1.417-1.008 2.821-2.002 4.224-3.003.314-.212.599-.446.92-.65.6-.373 1.009-.585 1.36-.63.358-.021.643.081.95.3.138.103.299.183.416.293.19.182.219.445.117.76-.11.321-.343.716-.745 1.045-1.184 1.008-2.456 1.936-3.742 2.842-1.257.928-2.66 1.703-3.844 2.573a7 7 0 0 0-.402.3c-.124.102-.263.197-.358.292l-.153.131c-.066.059-.022.015-.037.03h-.007s0 .021-.022 0c.073.233.219.555.38.862.329.628.745 1.279 1.191 1.922l-.051.036zM311.14 74.59s-.022-.03-.029-.037c-.066-.022-.256-.066-.373-.102l-.826-.212-1.673-.402c-.409-.095-.826-.11-1.235-.212-1.44-.35-2.879-.694-4.319-1.008-.636-.154-1.293-.234-1.929-.307-.409-.08-.819-.14-1.228-.227a10 10 0 0 1-.614-.153c-.102-.015-.197-.08-.299-.154-.095-.066-.198-.11-.3-.168-.248-.153-.212-.205.022-.41.117-.109.285-.248.497-.489a1.44 1.44 0 0 1 .694-.321 29 29 0 0 1 1.323-.176c.438-.022.869.03 1.301.059.431.044.862.08 1.286.175.424.103.84.212 1.264.344 1.001.314 2.083.343 3.128.533 1.147.205 2.287.439 3.434.687l.702.146c.278.059.555.124.811.212.102.051.212.095.3.16.036.037.109.037.124.11l.131.117c.147.19.234.41.293.636.051.183.087.373.095.57.022.198.022.395.014.592v.292l-.029.227c-.015.146-.029.3-.051.446-.073.584-.205 1.147-.329 1.71-.19.87-.365 1.754-.68 2.601-.065.19-.124.38-.211.563-.169.336-.329.519-.549.585-.233.05-.482 0-.811-.132-.146-.058-.299-.11-.438-.183a1.25 1.25 0 0 1-.512-.519c-.117-.219-.204-.49-.139-.708.256-1.396.592-2.638.958-3.866.051-.205.095-.41.139-.6.014-.08.029-.24.029-.226h.014s.044-.058.022-.073c0 0 0-.015-.014-.015l.029-.058zM227.058 55.729c-.899 2.097-1.644 4.333-2.272 6.591-.227.826-.366 1.666-.57 2.5q-.264 1.095-.483 2.192c-.073.365-.131.73-.19 1.089l-.073.533-.044.446c-.014.139-.036.292 0 .446.022.087.103.102.176.117l.226.058.139.03.278.05.563.095 1.132.183a51 51 0 0 0 4.034.475l2.58.285 1.286.16c.212.016.424.081.636.154.211.066.423.11.643.161.533.132.467.19.007.41-.234.116-.563.255-.965.504-.409.182-.877.27-1.388.314a67 67 0 0 1-2.704.117c-.899 0-1.79-.088-2.682-.154-.891-.08-1.783-.16-2.674-.307l-1.542-.277c-.819-.117-1.513-.373-1.762-1.111-.306-.767-.168-1.966-.131-2.39.058-.577.124-1.14.204-1.702.161-1.118.344-2.23.592-3.318a64 64 0 0 1 2.047-7.037c.518-1.425 1.074-2.829 1.87-4.217.161-.263.322-.519.534-.796.263-.33.548-.622.906-.819.183-.088.365-.183.57-.175.197-.015.402-.044.599 0 .19.029.431.029.57.073l.461.11c1.169.328 2.207.774 3.266 1.19 1.622.644 3.215 1.272 4.823 1.908.351.146.702.263 1.045.424.636.3 1.038.526 1.264.796.22.292.285.585.271.965 0 .175.007.35-.022.504-.051.263-.249.431-.577.512-.329.08-.79.11-1.279-.059-1.491-.446-2.967-1.001-4.421-1.586-1.462-.548-2.88-1.3-4.246-1.82-.256-.109-.49-.175-.731-.262a7 7 0 0 1-.417-.125c-.007 0 0-.036-.043.015-.512.672-1.023 1.761-1.447 2.799l-.059-.022zM273.65 82.454c-.928.497-1.914.906-2.952 1.14-.511.14-1.016.19-1.527.278-.512.044-1.023.102-1.535.102-2.053.022-4.114-.38-5.977-1.257-1.36-.62-2.646-1.468-3.684-2.557-.906-.965-1.688-2.054-2.221-3.238l-.212-.438-.168-.453-.329-.914-.241-.935-.117-.468-.066-.482c-.431-2.543-.029-5.24 1.162-7.512a11.94 11.94 0 0 1 4.641-4.801c.606-.395 1.286-.636 1.943-.921.695-.19 1.382-.424 2.105-.483 1.432-.219 2.923.037 4.217.614.818.351.577.526-.183.621-.76.022-2.024.322-3.347.534-1.206.168-2.346.628-3.398 1.213-1.067.584-1.929 1.454-2.733 2.331-.804.899-1.359 1.973-1.805 3.084-.168.577-.373 1.147-.431 1.754-.139.599-.11 1.213-.139 1.827-.029.372.073.738.109 1.118l.073.563c.037.19.095.372.139.562.095.373.19.753.351 1.104.139.358.27.723.468 1.06a10.4 10.4 0 0 0 2.916 3.5c2.638 2.068 6.401 2.689 9.704 1.768 2.01-.57 3.844-1.827 5.181-3.486.519-.62.936-1.322 1.316-2.038.35-.731.643-1.491.825-2.28.366-1.579.337-3.223-.16-4.743-.76-2.375-2.558-4.29-4.633-5.408-.22-.146-.475-.22-.702-.329-.234-.11-.475-.19-.716-.278-.899-.328-1.491-.496-1.915-.694-.416-.226-.665-.423-.877-.81-.095-.169-.233-.337-.292-.505-.102-.278.066-.519.512-.702.445-.197 1.162-.277 2.068-.153 2.696.402 5.195 2.024 6.949 4.246 1.776 2.214 2.726 5.217 2.478 8.17-.366 4.355-3.033 8.243-6.745 10.333l-.037-.051z"/><path fill="#231f20" d="M234.367 73.742c-.271-4.64.613-9.332 2.382-13.6 1.798-4.275 4.553-8.09 7.885-11.24 2.455-2.272 5.159-4.289 8.148-5.794 5.261-2.645 11.166-3.975 17.02-3.785.73.014 1.461.094 2.192.138.731.074 1.454.19 2.178.278l2.155.417c.724.182 1.44.365 2.141.606 2.814.92 5.415 2.31 7.805 3.96 4.217 2.968 7.878 6.79 10.428 11.262a26 26 0 0 1 2.076 4.509c.548 1.564.979 3.186 1.205 4.838.22 1.651.234 3.332.088 4.976-.051.41-.095.826-.161 1.235-.073.41-.19.811-.277 1.206-.088.402-.205.796-.337 1.184-.138.387-.219.789-.394 1.162-.833 1.87-.782 1.564-.694-.146.021-.855 0-2.068-.154-3.472-.139-1.403-.292-2.988-.57-4.684-.395-3.01-1.447-5.897-2.879-8.586a30.6 30.6 0 0 0-5.459-7.36c-2.178-2.177-4.655-4.084-7.366-5.553a26 26 0 0 0-4.209-1.849 19 19 0 0 0-2.207-.614c-.76-.16-1.528-.35-2.302-.445-1.849-.315-3.756-.402-5.664-.322a29.2 29.2 0 0 0-5.714.79 31 31 0 0 0-5.51 1.826c-1.776.782-3.501 1.674-5.108 2.748-3.545 2.33-6.687 5.313-9.04 8.857-2.346 3.53-3.983 7.563-4.567 11.787-.746 5.181-.095 10.618 2.031 15.42a30 30 0 0 0 2.974 5.18 33 33 0 0 0 3.99 4.487 33.5 33.5 0 0 0 10.122 6.373 34 34 0 0 0 8.922 2.243c3.04.314 6.095.234 9.084-.248 1.315-.212 2.587-.534 3.873-.892.606-.139 1.133-.358 1.629-.504.497-.146.943-.307 1.345-.468.402-.153.775-.278 1.111-.395.336-.124.628-.24.906-.336 1.103-.365 1.79-.496 2.455-.445.3.021.673 0 .885.058.358.11.138.519-.585 1.199-.358.35-.855.738-1.505 1.118a47 47 0 0 1-1.053.621c-.387.19-.811.387-1.264.592-5.364 2.375-11.597 3.222-17.692 2.411-6.094-.796-12.087-3.127-17.166-6.832-3.756-2.763-7.022-6.285-9.339-10.407a31.4 31.4 0 0 1-2.733-6.525c-.68-2.273-1.001-4.626-1.147-6.957l.073-.015z"/><path fill="#231f20" d="M289.428 123.331v-1.14c0-.388.044-.702.066-1.053.044-.687.131-1.374.204-2.061a55 55 0 0 1 .717-4.07 64 64 0 0 1 1.008-3.983l.585-1.951.292-.957c.088-.292.19-.658.219-.804 0-.015.007-.029.007-.044.022-.044-.102-.504-.277-.855-.161-.38-.38-.774-.592-1.162-.446-.789-.936-1.578-1.425-2.382-1.264-2.075-2.602-4.144-3.815-6.336a37 37 0 0 1-1.666-3.442c-.117-.314-.241-.614-.329-.957a7 7 0 0 1-.234-1.184c0-.241-.014-.49.008-.723.051-.227.065-.468.153-.68.154-.438.402-.804.731-1.125.563-.497 1.374-.475 2.061-.183a6 6 0 0 1 1.015.548c.271.183.461.329.68.497.833.665 1.579 1.374 2.295 2.09 2.214 2.163 4.224 4.567 6.365 6.577l.109.095c.139.124.241.285.329.438l.139.234.088.168.329.673c.211.445.409.898.606 1.352q.568 1.359 1.038 2.762c.636 1.856 1.125 3.814 1.016 5.831-.11 1.265-.074 1.067-.49.095-.212-.482-.658-1.132-1.082-1.907-.226-.387-.489-.796-.716-1.242-.204-.453-.424-.936-.614-1.44a52 52 0 0 0-1.235-2.879l-.65-1.418c-.19-.416-.548-1.103-.453-.928a8 8 0 0 1-.329-.292l-.373-.351-.701-.694-1.337-1.389-2.602-2.747c-.855-.906-1.725-1.798-2.609-2.595a15 15 0 0 0-.994-.818c-.117-.088-.073-.066-.109-.088-.066-.058-.205-.168-.307-.095-.124.088-.168.205-.154.446.044.468.168 1.001.351 1.535.08.263.197.533.3.803.131.264.248.527.387.79.541 1.045 1.169 2.082 1.82 3.105 1.308 2.061 2.74 4.071 4.033 6.234.3.512.592 1.023.855 1.593.132.285.264.57.373.899.117.307.212.687.241 1.191-.036.482-.124.76-.19 1.023l-.226.789-.446 1.528a64 64 0 0 0-.804 3.04 54 54 0 0 0-1.103 6.175c-.103.804-.19 1.637-.234 2.426 0 .38-.022.767 0 1.147l.124 1.147c.256 1.528.87 3.004 1.674 4.378 1.235 2.09 2.871 3.953 4.589 5.795.431.475.862.928 1.279 1.498.431.584.679 1.198.942 1.783.512 1.184.943 2.375 1.352 3.566 1.272 3.712 2.331 7.425 2.974 11.29.132.848.285 1.681.366 2.551.314 3.223.022 4.282-.592 4.947-.139.154-.27.351-.395.431-.219.139-.402-.117-.592-.679-.102-.285-.168-.643-.233-1.075a19 19 0 0 1-.205-1.49c-.373-3.325-1.067-6.716-1.951-10.092a74 74 0 0 0-1.433-5.072 55 55 0 0 0-.855-2.492c-.299-.789-.65-1.673-.971-2.25-.205-.344-.695-.855-1.119-1.323l-1.395-1.484c-.943-1.015-1.871-2.09-2.697-3.266-.833-1.177-1.586-2.441-2.17-3.822a14.4 14.4 0 0 1-1.053-4.429h.059z"/><path fill="#231f20" d="M334.445 230.091c2.484-9.866 3.902-20.016 4.297-30.225.095-1.863.065-3.727.087-5.59l-.109-5.583c-.161-6-.643-11.992-1.469-17.933-.388-2.975-.936-5.927-1.52-8.865-.329-1.461-.643-2.923-1.031-4.362-.175-.724-.38-1.44-.599-2.156l-.314-1.06-.197-.606-.125-.38c-.109-.081-.255.007-.372.036a8 8 0 0 0-.373.139l-.599.256c-5.342 2.412-10.881 4.779-16.596 6.314-3.669.972-7.454 1.681-11.29 1.863-3.822.176-7.739-.146-11.378-1.388-1.119-.439-1.557-.753-1.477-.87.081-.139.68-.109 1.696-.139 1.015-.036 2.419 0 4.077-.051a253 253 0 0 0 5.642-.124c5.4-.175 10.735-1.432 15.945-3.12 2.602-.855 5.167-1.857 7.717-2.945 1.279-.541 2.543-1.111 3.837-1.688l.979-.432.753-.321c.307-.132.621-.249.928-.344.628-.204 1.191-.233 1.681-.058.292.066.423.314.599.519l.497.621.424 1.25.212.621.109.387.431 1.52c.285 1.016.512 2.032.768 3.047l.657 3.07.563 3.083c1.535 9.193 2.55 18.84 2.616 28.354.007 5.225-.197 10.458-.672 15.668-.526 5.203-1.228 10.391-2.266 15.514a136 136 0 0 1-5.151 18.591c-3.318 9.156-7.666 18.021-13.154 25.993l-1.608 2.31c-.541.76-1.038 1.556-1.63 2.28l-3.427 4.413-3.661 4.21c-1.242 1.381-2.587 2.667-3.888 4.012-1.125 1.198-2.346 2.25-3.581 3.354-1.161 1.001-2.104 1.863-2.959 2.506a42 42 0 0 1-2.178 1.498c-1.206.76-2.009 1.053-2.748 1.148-.336.044-.738.153-.964.131-.746-.051.869-2.024 4.275-4.786 4.881-4.326 9.602-9.047 13.921-14.243 4.29-5.218 8.126-10.918 11.437-16.925 2.506-4.435 4.581-9.12 6.474-13.877l1.33-3.603c.461-1.198.797-2.433 1.199-3.653.825-2.427 1.432-4.926 2.112-7.396h.073z"/><path fill="#231f20" d="M297.511 302.641a219 219 0 0 0 2.396 6.321c.3.767.666 1.505.965 2.265 1.052 2.704 2.112 5.408 3.252 8.068.49 1.191 1.045 2.361 1.593 3.515.344.746.738 1.469 1.067 2.222q.483 1.138.943 2.287c.182.482.087.453-.234.139-.314-.322-.921-.906-1.484-1.688-.935-1.411-1.717-2.901-2.528-4.385-.387-.745-.782-1.498-1.14-2.258a74 74 0 0 1-1.016-2.331c-.767-1.878-1.761-3.742-2.594-5.642-.913-2.09-1.79-4.194-2.66-6.299l-1.571-3.902c-.797-1.966-1.542-3.968-2.353-5.919-.629-1.513-1.381-2.953-2.054-4.443-.146-.329-.321-.636-.446-.98-.226-.635-.336-1.067-.306-1.403.036-.343.182-.577.438-.811.117-.11.219-.234.344-.314.204-.132.438-.102.701.058.263.168.57.461.797.892 1.417 2.536 2.44 5.371 3.536 8.214.804 2.112 1.579 4.253 2.405 6.365l-.051.022zM221.987 115.821c1.118.599 2.127 1.388 3.084 2.214.446.446.928.862 1.323 1.352l.614.716.555.76c1.513 2.068 2.375 4.502 2.806 6.898.315 1.762.505 3.545.351 5.32-.139 1.557-.373 3.114-.87 4.612-.467 1.49-1.088 2.959-1.965 4.282l-.315.504-.365.475c-.248.307-.475.636-.753.921l-.833.855c-.277.278-.592.511-.891.767a18.6 18.6 0 0 1-3.968 2.412 22.3 22.3 0 0 1-7.9 1.841c-1.725.051-3.464-.029-5.152-.372-.848-.139-1.681-.38-2.492-.658l-1.206-.453c-.394-.161-.752-.424-1.125-.629-.913-.57-.723-.606.227-.65.467-.015 1.154-.11 1.907-.088.38 0 .775.037 1.206.051.212.008.431.022.65.03.219.029.439.058.658.102 1.593.234 3.186.322 4.764.248a21 21 0 0 0 4.655-.65c3.011-.775 5.89-2.324 7.951-4.611 1.228-1.389 2.097-3.172 2.624-5.057.526-1.893.716-3.902.65-5.868-.08-2.156-.475-4.341-1.337-6.285-.234-.475-.431-.972-.724-1.41-.139-.227-.263-.453-.416-.672l-.483-.651c-.299-.446-.694-.818-1.037-1.227-.395-.366-.753-.768-1.184-1.097-2.017-1.71-4.546-2.813-7.191-3.31-4.026-.723-8.331-.234-12.189 1.242-3.004 1.14-5.686 2.916-7.936 5.057-.256.227-.483.483-.716.731q-.35.36-.687.753c-.855.935-1.382 1.564-1.849 1.958-.504.366-.863.541-1.308.599-.205.03-.424.103-.592.095-.285-.014-.373-.299-.293-.855.074-.555.322-1.373.921-2.258 1.725-2.645 4.217-4.801 6.979-6.511a28.1 28.1 0 0 1 9.186-3.529 24.5 24.5 0 0 1 7.454-.293c2.499.322 4.998 1.016 7.242 2.28l-.03.066z"/><path fill="#231f20" d="M151.334 138.036c1.235-1.857 2.704-3.515 4.224-5.101 1.549-1.601 3.317-2.967 5.152-4.18 1.344-.877 2.703-1.739 4.143-2.426 5.093-2.405 10.684-3.683 16.282-3.632 2.484.007 4.976.321 7.38.899a20.4 20.4 0 0 1 4.473 1.651c1.432.702 2.747 1.652 3.785 2.85.65.746.548.643-.256.366a22 22 0 0 0-.731-.22c-.314-.036-.606-.153-.957-.226-.336-.103-.723-.161-1.096-.271q-.548-.197-1.14-.416c-.687-.285-1.396-.504-2.105-.716l-2.133-.57a29 29 0 0 0-4.37-.716 38.2 38.2 0 0 0-8.989.277c-3.617.541-7.213 2.017-10.465 3.829-1.79 1.002-3.507 2.149-5.071 3.464-.775.673-1.535 1.338-2.229 2.112-.694.768-1.44 1.491-2.053 2.324a27.2 27.2 0 0 0-3.99 6.453c-.819 1.739-1.33 3.602-1.769 5.473-.314 1.893-.555 3.815-.438 5.737.102 2.981.811 5.853 1.746 8.637.212.614.424 1.214.665 1.82.212.57.373 1.045.49 1.454s.219.731.248 1.023c.059.585-.058.987-.263 1.367-.095.168-.161.373-.256.49-.16.197-.416.102-.818-.227s-.884-.913-1.301-1.761c-2.426-4.999-3.749-11.101-3.003-17.195l.248-1.688c.103-.563.256-1.111.38-1.666l.198-.833c.073-.278.175-.541.263-.812l.548-1.622.679-1.564.344-.782c.124-.255.27-.497.402-.752l.811-1.491c.292-.482.614-.95.921-1.418l.058.029zM198.345 155.939c-1.418.826-2.981 1.294-4.509 1.71-.57.11-1.125.271-1.695.366-1.016.087-2.017.19-3.026.117-1.001-.015-1.987-.205-2.959-.329a39 39 0 0 0-1.286-.256l-.643-.11c-.212-.051-.417-.116-.622-.175-.526-.161-1.074-.285-1.585-.49-.256-.109-.512-.211-.753-.35-.234-.146-.468-.293-.716-.439-.292-.19-.212-.256.124-.336.227-.051.46-.102.672-.153.278-.073.578-.095.877-.037 1.06.161 2.12.234 3.15.373.519.066 1.03.161 1.549.182.519.022 1.038.139 1.564.139 1.257.095 2.565-.117 3.8-.424 1.388-.255 2.697-.781 3.968-1.373l1.118-.651c.387-.204.702-.504 1.06-.752.548-.373.986-.863 1.469-1.309.453-.475.84-1.015 1.22-1.541.241-.446.453-.907.65-1.367.154-.482.271-.972.417-1.44.073-.204.08-.423.131-.635.183-.79.432-.972 1.199-.965.175 0 .351-.015.519 0 .577.051.921.519.869 1.228-.146 2.104-1.162 4.231-2.652 5.919-.249.343-.57.614-.87.906-.307.285-.592.592-.928.84-.68.49-1.323 1.024-2.061 1.404l-.036-.052zM173.375 196.526a90 90 0 0 0 2.39-2.031c.285-.256.512-.563.804-.811 1.023-.885 2.097-1.71 3.091-2.631.431-.409.848-.848 1.257-1.279.27-.27.475-.599.811-.811a7.5 7.5 0 0 1 1.023-.629c.234-.109.314 0 .366.307.043.3.146.885.014 1.36-.073.197-.109.431-.219.591l-.329.497c-.219.329-.453.651-.694.965a15 15 0 0 1-1.754 1.608c-.767.584-1.33 1.41-2.039 2.075a95 95 0 0 1-2.367 2.163l-1.477 1.308c-.738.665-1.505 1.301-2.199 2.01-.534.555-.958 1.198-1.454 1.783-.11.132-.198.27-.322.395-.453.431-.745.401-1.286 0-.124-.095-.256-.183-.366-.285a1.1 1.1 0 0 1-.285-1.287c.315-.643.724-1.213 1.162-1.753.453-.527.965-1.009 1.469-1.491.76-.716 1.564-1.396 2.339-2.105l.044.044z"/><path fill="#231f20" d="M203.849 180.367c.029-3.58-1.476-7.322-4.297-9.551-.482-.453-1.081-.723-1.651-1.052-.285-.154-.607-.241-.906-.373-.3-.124-.607-.256-.929-.321-4.421-1.389-9.909.343-12.678 4.377-1.25 1.768-1.827 3.931-2.039 6.146-.124 1.41-.044 2.82.256 4.158.277 1.352.752 2.609 1.366 3.939.161.438.234.657.197.672-.043.022-.219-.117-.628-.292-.409-.183-.935-.512-1.564-1.009-.585-.519-1.103-1.286-1.469-2.192-.299-.811-.453-1.659-.555-2.499a15.4 15.4 0 0 1-.088-2.514c.029-.833.124-1.652.256-2.456l.11-.606c.051-.205.116-.409.175-.621l.373-1.235c1.227-3.238 3.734-5.956 6.818-7.352 1.834-.855 3.829-1.418 5.89-1.542.519 0 1.037-.044 1.549-.014l1.549.16 1.52.366c.497.146.972.365 1.454.548 2.083.935 3.888 2.448 5.196 4.267 1.316 1.82 2.171 3.917 2.587 6.081.49 2.66.38 5.466-.599 8.031-.694 1.944-1.893 3.741-3.493 5.078-.183.19-.388.344-.607.49l-.636.446c-.211.139-.416.307-.643.431l-.687.351c-.906.489-1.856.869-2.842 1.118-3.055.826-6.343.731-9.347-.38-.329-.124-.65-.256-.979-.38-.314-.146-.636-.292-.957-.46-.57-.337-1.038-.629-1.374-.943a3.8 3.8 0 0 1-.782-.833c-.365-.505-.424-.95-.329-1.425.044-.219.066-.453.154-.629.314-.599 1.3-.226 2.689.526 2.068 1.14 4.355 1.9 6.679 2.003 2.309.109 4.677-.439 6.613-1.696a9.3 9.3 0 0 0 3.406-3.697c.782-1.535 1.176-3.318 1.162-5.123h.073zM99.332 114.656c-1.008-.182-6.16-4.107-5.371-5.853.789-1.747 3.142-2.061 3.142-2.061l4.604 5.298zM117.069 109.814c.198-.57 1.177-2.368 1.747-3.384.716-1.293-3.018-1.52-2.96-1.651l1.169-2.638 5.562 3.288-2.734 5.276-2.776-.884zM124.434 119.32h7.446l.409 1.922-7.095 2.361zM117.078 135.296c.409-.16 6.402 4.86 6.402 4.86l3.032-2.053-5.254-6.49-4.18 3.676zM104.046 133.598l-3.632 7.351 3.632 1.469 3.676-6.533zM96.307 122.047l-5.913 1.556.351 5.722 7.045-1.461z"/><path fill="#231f20" d="M109.935 112.027c-6.548 0-11.853 5.211-11.853 11.634 0 6.424 5.305 11.634 11.853 11.634s11.853-5.203 11.853-11.634-5.305-11.634-11.853-11.634m.76 17.276c-3.712 0-6.723-2.953-6.723-6.585 0-3.631 3.003-6.591 6.723-6.591s6.716 2.96 6.716 6.591-3.004 6.585-6.716 6.585M120.714 105.157c-.526-.555-1.491-1.089-2.433-1.461-.344-.132-.746-.19-1.053-.285a2 2 0 0 0-.343-.132c-.059-.015-.161-.037-.183.022-.029.044-.058.102-.095.153-.029.066-.066.11-.131.242l-.242.504-.496.957c-.293.577-.585 1.162-.877 1.732a15 15 0 0 1-.548 1.089 4.5 4.5 0 0 1-.329.526l-.183.256c-.066.08-.205.139-.292.219-.263.175-.256.146-.417-.139-.226-.307-.548-.869-.497-1.381.088-.899.322-1.754.585-2.55q.285-.561.592-1.089l.299-.519.147-.256c.051-.088.095-.146.168-.336l.219-.526c.08-.161.139-.366.234-.49.102-.124.182-.263.299-.38.132-.117.3-.182.461-.234.161-.058.336-.087.519-.095.372.015.752.022 1.132.073.424.059.636.11.877.176 1.199.329 2.331.796 3.42 1.505.336.219.658.475.965.789.292.293.658.775.782 1.272.117.365.08.818.029 1.125a4.5 4.5 0 0 1-.263.921c-.219.577-.504 1.074-.775 1.564-.424.753-.745 1.527-1.147 2.258-.095.154-.161.322-.27.468-.198.27-.351.431-.549.482-.219.029-.438-.015-.708-.124-.125-.051-.249-.088-.358-.146a.82.82 0 0 1-.388-.461c-.08-.204-.146-.489-.051-.723q.165-.549.373-1.074c.153-.337.321-.665.482-.987.336-.636.68-1.242.906-1.768.081-.198.154-.38.19-.534.022-.08.044-.146.059-.212.014-.036.014-.066.014-.087 0-.03.125.029-.19-.285l.037-.052z"/><path fill="#231f20" d="M102.06 140.409c.68.629 1.769 1.221 2.836 1.681.095.044.197.08.299.117l.154.051.058.015c.051.014.103.022.161.058.051.022.11.066.168.073.037-.029.081-.058.117-.102.044-.037.08-.088.132-.139l.263-.438c.394-.665.774-1.367 1.125-2.083.3-.643.592-1.294.884-1.929.176-.417.366-.833.585-1.235q.155-.307.365-.592l.205-.285c.073-.095.219-.154.314-.241.278-.19.271-.154.409.16.205.344.49.936.424 1.469a15 15 0 0 1-.599 2.755c-.395.855-.84 1.688-1.374 2.507-.161.248-.307.497-.453.76-.044.058-.051.131-.161.219l-.175.307c-.117.205-.227.416-.365.592-.132.19-.256.387-.424.489l-.117.095-.059.052-.029.022c-.11-.242-.029-.059-.058-.117l-.015.007-.263.088-.285.087c-.11-.014-.219-.014-.336-.044a11 11 0 0 1-.687-.182c-.585-.176-.775-.263-1.111-.388-.307-.124-.614-.248-.913-.387a15 15 0 0 1-1.783-.95 7.5 7.5 0 0 1-1.06-.811c-.41-.38-.775-.877-.899-1.418-.102-.424 0-.855.139-1.257a6 6 0 0 1 .212-.497q.1-.218.212-.423c.292-.548.592-1.067.884-1.586.453-.811.804-1.666 1.257-2.47.11-.176.19-.358.314-.526.227-.307.402-.49.621-.541.234-.037.461.007.731.124.124.051.249.095.358.154.183.102.292.263.358.489.066.219.11.512 0 .753-.131.38-.277.76-.424 1.125q-.252.539-.526 1.067a494 494 0 0 1-1.111 2.083c-.124.248-.255.504-.358.731-.051.102-.124.27-.102.212h-.015c-.014 0-.021.014-.021.029 0 0 .007.029-.008.014.022.03.117.125.198.19l-.037.052zM98.104 106.364c-.241.014-.73.234-1.17.526-.445.292-.89.68-1.315 1.081a6 6 0 0 0-.43.483l-.132.153s-.066.073-.088.088c-.059.051-.132.102-.197.175.007.081.05.168.094.278.008.029.022.044.044.08l.132.205.278.409c.372.548.76 1.089 1.169 1.608.453.548.92 1.089 1.396 1.593l.935.957q.228.243.446.497l.219.263c.073.088.102.234.168.344.139.307.117.299-.227.372-.153.022-.482.183-.745.161-.139 0-.285 0-.438-.022-.08-.014-.154-.029-.227-.036-.066-.029-.131-.051-.197-.088-.95-.453-1.761-1.06-2.507-1.717a16 16 0 0 1-1.732-2.397c-.087-.154-.19-.307-.285-.453l-.153-.227a3 3 0 0 1-.212-.336 5.4 5.4 0 0 1-.73-1.447l.167-.468c.066-.16.103-.321.227-.475.212-.321.438-.599.657-.869a14.5 14.5 0 0 1 1.455-1.469c.526-.453 1.074-.892 1.76-1.25.359-.175.688-.328 1.192-.423.241-.074.482-.015.724-.03.24.015.467.103.694.154.19.102.373.219.54.358.344.278.519.482.746.731.212.233.409.482.599.723.38.482.753.965 1.133 1.44.584.738 1.257 1.381 1.856 2.119.124.168.263.314.38.49.205.336.314.562.285.789-.051.234-.175.424-.38.636-.095.095-.183.197-.278.277-.16.132-.358.168-.584.154-.234-.022-.519-.088-.709-.285a25 25 0 0 1-.906-.833c-.278-.293-.548-.6-.819-.907-.519-.621-1.037-1.249-1.564-1.885l-.81-.95a7 7 0 0 0-.373-.409c-.074-.073-.044-.051-.052-.066v-.007c0-.022-.036-.037-.029-.037l-.014-.058zM123.025 138.881v.029c.037.073.125.11.22.103.007.007.08-.037.168-.074l.248-.16c.168-.125.344-.271.519-.431q.197-.196.373-.424l.175-.227.058-.058.095-.081c.271-.146.11-.314-.021-.555l-1.25-1.608a43 43 0 0 1-1.257-1.571 10 10 0 0 1-.753-1.045 4 4 0 0 1-.307-.577l-.131-.307c-.037-.102-.015-.256-.029-.373-.008-.321.014-.292.35-.263.388-.007 1.023.007 1.418.292a18.5 18.5 0 0 1 1.973 1.608c.526.65 1.031 1.33 1.513 2.068.051.081.102.154.168.241.102.125.205.249.3.373.182.256.365.504.518.745q.108.187.183.373a.8.8 0 0 1 .015.19c0 .037 0 .066-.008.102v.008h.066v.08c-.022.117-.044.241-.109.38a1.7 1.7 0 0 1-.19.395l-.432.621c-.138.212-.321.431-.394.526-.409.482-.848.95-1.396 1.374a3.5 3.5 0 0 1-.446.307c-.161.117-.394.212-.599.307-.424.16-.877.263-1.315.16-.132-.007-.256-.073-.38-.124-.125-.051-.249-.095-.358-.168-.395-.256-.549-.402-.79-.584l-.65-.534c-.862-.709-1.644-1.498-2.47-2.229-.636-.577-1.352-1.052-2.002-1.659-.139-.138-.293-.255-.417-.409-.226-.292-.351-.504-.336-.723.029-.234.146-.424.343-.643.088-.103.168-.205.263-.285.154-.139.344-.198.57-.205.227-.007.497.015.68.153 1.242.731 2.265 1.74 3.405 2.704q.626.537 1.25 1.096c.402.359.862.753 1.228 1.031l-.037.051zM91.075 123.63c-.118.98-.11 2.105.021 3.15.022.19.066.38.117.555l.073.263c.022.081.015.066.022.103a.9.9 0 0 0 .066.343c.022.059.073.124.124.124h.176l.219-.029.548-.124 1.125-.234c.658-.153 1.33-.285 2.003-.387a7 7 0 0 1 1.308-.132c.219-.014.446.008.672.044.11.015.22.029.336.059.11.029.227.138.336.19.27.175.227.182.015.438-.22.322-.563.833-.987 1.023-.752.344-1.505.636-2.272.914-.402.073-.804.153-1.213.226l-.621.102-.315.052c-.11.014-.182.021-.402.08-.424.102-.87.212-1.257.226-.365.044-.774-.102-1.074-.38-.292-.277-.519-.628-.709-1.015-.087-.198-.182-.395-.248-.614l-.102-.307-.059-.219c-.292-1.25-.387-2.456-.387-3.698q.002-.57.058-1.162l.044-.351c.015-.131.051-.263.073-.394a2.7 2.7 0 0 1 .263-.731c.205-.329.526-.577.892-.716.35-.132.804-.234 1.06-.263.584-.081 1.147-.125 1.695-.176.855-.08 1.68-.277 2.521-.387.183-.015.365-.058.548-.058.344 0 .57.029.73.16.162.161.25.366.322.651.037.131.073.255.095.38a.82.82 0 0 1-.146.584c-.124.19-.314.41-.562.468-.366.124-.731.241-1.104.336-.373.081-.738.139-1.11.19-.71.088-1.433.176-2.15.271-.123.014-.24.036-.357.058-.103.015-.27.058-.22.037 0 0-.007-.015-.021-.015h-.037c0 .015-.007-.015-.022.029-.015.11-.03.227-.036.351h-.059zM131.525 121.357s.029-.014.044-.044c.029-.073.051-.168.073-.27a3.3 3.3 0 0 0 .066-.687 7.3 7.3 0 0 0-.146-1.564c-.073-.387-.249-.738-.366-1.081-.029-.088-.058-.154-.051-.154 0-.029-.015-.051-.022-.08a.6.6 0 0 0-.073-.176c-.066-.138-.205-.124-.343-.131h-.059l-.139.015-.285.036-.577.073-1.162.176c-.687.131-1.366.263-2.046.394-.431.095-.87.176-1.315.227q-.33.044-.68.044h-.344c-.116-.015-.248-.095-.372-.125-.314-.117-.278-.131-.103-.424.154-.365.461-.942.921-1.191.819-.453 1.666-.796 2.529-1.089a21 21 0 0 1 2.747-.343l.212-.015c.073 0 .132-.007.263-.029.234-.036.468-.051.695-.066a1.75 1.75 0 0 1 1.242.388c.343.285.614.672.848 1.074a5.713 5.713 0 0 1 .438.965c.431 1.315.665 2.623.497 4.099-.051.417-.219 1.074-.555 1.513a2.3 2.3 0 0 1-.614.57c-.241.131-.526.219-.775.299-1.242.3-2.389.337-3.551.483-.899.102-1.769.336-2.675.446-.197.014-.395.058-.599.058-.373 0-.621-.037-.789-.183-.169-.168-.256-.372-.322-.665-.029-.131-.066-.255-.08-.38-.022-.204.043-.394.182-.577s.336-.387.592-.446q.561-.177 1.133-.321c.38-.081.76-.146 1.147-.212.768-.124 1.549-.219 2.324-.322l1.652-.248q.096-.013.182-.037c.059-.014.125-.022.125-.022h.065l.059.03zM115.448 129.542c-.643.38-1.345.614-2.046.789-.694.168-1.425.205-2.134.227-1.447-.022-2.872-.49-4.056-1.25-.46-.241-.825-.599-1.242-.906-.351-.366-.745-.702-1.03-1.118a9 9 0 0 1-1.762-4.911c-.095-1.768.461-3.493 1.469-4.94a5.7 5.7 0 0 1 1.769-1.549 8.7 8.7 0 0 1 2.097-.804 9.6 9.6 0 0 1 2.799-.256c.935.051 1.871.292 2.689.76.504.307.344.387-.153.387-.249 0-.592.022-.98.059l-.621.066-.672.044c-1.644.073-3.296.613-4.428 1.512-.3.198-.549.431-.768.68-.117.117-.19.263-.292.387-.088.146-.168.336-.256.497-.365.665-.548 1.418-.672 2.185-.256 1.871.614 3.924 2.009 5.262 1.506 1.527 3.771 2.185 5.89 1.563a5.33 5.33 0 0 0 3.135-2.287c1.097-1.703 1.272-4.048.461-5.963-.614-1.505-1.834-2.638-3.208-3.303-.3-.161-.629-.241-.928-.402-1.177-.475-1.564-.643-1.754-1.279-.044-.139-.117-.277-.139-.409-.037-.219.102-.387.402-.512.307-.131.767-.168 1.359-.087 1.754.204 3.515 1.184 4.787 2.638 1.286 1.454 2.068 3.376 2.192 5.349.095 1.462-.161 2.967-.826 4.326-.65 1.359-1.732 2.551-3.047 3.296l-.029-.044z"/><path fill="#231f20" d="M115.586 136.09c-4.596 1.243-9.566.417-13.468-2.192-1.418-.965-2.704-2.156-3.705-3.581-3.383-5.064-3.113-12.145.687-16.734a15.5 15.5 0 0 1 2.821-2.682 15.5 15.5 0 0 1 3.405-1.805c1.535-.585 3.172-.914 4.816-.892 1.637 0 3.274.344 4.728 1.031.906.431.723.467-.124.409-.848-.073-2.368-.008-4.027.139-5.919.489-11.217 4.662-12.24 10.501-.724 3.442.438 7.388 2.879 9.982 2.682 2.901 6.928 4.392 10.984 4.078 2.506-.154 4.947-1.096 6.854-2.682.183-.154.373-.292.548-.446l.475-.526c.314-.351.665-.68.899-1.096.256-.402.548-.775.775-1.199.197-.431.453-.833.599-1.293.701-1.776.994-3.72.891-5.627a13.3 13.3 0 0 0-.986-4.26c-.577-1.33-1.389-2.522-2.295-3.618-.445-.446-.847-.906-1.344-1.293-.22-.198-.417-.373-.6-.534-.197-.146-.372-.285-.54-.409a8 8 0 0 1-.775-.672c-.402-.409-.599-.731-.723-1.082-.059-.161-.154-.336-.176-.46-.036-.212.205-.271.709-.212.256.029.57.08.957.168.198.029.388.11.585.219.197.103.402.212.621.336.672.337 1.25.819 1.871 1.272.307.234.563.511.855.775.285.263.57.533.804.84.248.3.504.599.745.913l.629 1.002c.219.328.387.686.555 1.052.161.365.365.709.475 1.089a16 16 0 0 1 .555 9.478l-.226.877c-.095.285-.205.57-.307.855-.19.577-.482 1.118-.753 1.673-.621 1.052-1.293 2.09-2.17 2.967-1.703 1.783-3.902 3.047-6.219 3.712l-.022-.051zM74.932 176.1c-1.842-1.396-3.69-2.821-5.459-4.407-.877-.796-1.74-1.63-2.536-2.565-.789-.935-1.549-1.944-2.075-3.179l-.263-.694-.198-.738c-.05-.249-.073-.519-.11-.775-.028-.263-.028-.387-.05-.614-.08-.825-.132-1.695-.183-2.557-.058-1.535-.044-3.099.278-4.699.182-.797.402-1.615.833-2.404.431-.768 1.016-1.586 1.9-2.046 1.644-.98 3.654-.899 5.203-.307 1.578.584 2.886 1.527 4.041 2.579 1.023.95 1.93 1.988 2.697 3.194.19.299.365.621.526.957.153.358.307.687.365 1.235q.022.186 0 .373c-.014.124-.03.241-.073.365a3.7 3.7 0 0 1-.197.585 5 5 0 0 1-.534 1.023c-.54.833-1.315 1.498-2.2 1.951-.452.219-.913.402-1.505.46-.329.037-.635-.029-.92-.095-.293-.095-.607-.219-.855-.424-1.016-.855-1.097-1.79-1.44-2.382-.292-.636-.811-1.03-1.55-1.264-.92-.256-.876-.387.081-.636a3.1 3.1 0 0 1 2.163.373c.424.256.848.643 1.17 1.03.167.183.306.388.46.534.058.102.117.16.168.234.058.08.102.124.146.168.168.153.168.087.256.095.029 0 .066-.008.095 0 0-.066-.037.599-.022.307v-.015l.007-.073v-.139c.015-.139.007-.073.007-.088-.007 0 .022-.014.037-.014l.3-.095c.504-.19 1.008-.57 1.359-1.001.183-.22.314-.468.431-.717.044-.117.117-.292.132-.372 0 .014.014.029-.015-.044-.022-.051-.03-.095-.066-.168a4 4 0 0 0-.204-.409c-.161-.293-.366-.6-.578-.899-.891-1.199-2.002-2.339-3.215-3.216-1.213-.869-2.573-1.454-3.8-1.374-.366.03-.724.125-1.06.278-.139.095-.285.168-.424.256-.124.124-.27.226-.394.358-.505.555-.863 1.403-1.075 2.324-.401 1.871-.416 3.946-.248 6.007.044.548.08 1.249.132 1.629.095.453.233.921.475 1.374.445.914 1.11 1.791 1.848 2.609 1.484 1.644 3.252 3.106 5.057 4.516 2.23 1.739 4.553 3.391 6.833 5.13.862.665 1.732 1.33 2.565 2.061.833.738 1.652 1.498 2.353 2.455.344.468.665 1.089.84 1.579.22.511.402 1.03.592 1.549q.547 1.556.994 3.113c.928 3.237 1.805 6.416 2.412 9.719.139.724.278 1.44.373 2.178.277 2.77 0 3.727-.731 4.29-.154.131-.293.299-.417.365-.212.117-.394-.11-.636-.592-.248-.475-.416-1.206-.577-2.156-.49-2.813-1.03-5.729-1.71-8.652-.68-2.916-1.447-5.897-2.448-8.652-.095-.241-.197-.526-.285-.731l-.117-.241c-.044-.088-.11-.176-.168-.263-.234-.366-.555-.746-.906-1.126-.716-.76-1.55-1.498-2.419-2.214-1.746-1.432-3.64-2.769-5.51-4.158l.03-.051z"/><path fill="#231f20" d="M141.681 239.113c-5.357-5.481-9.888-11.634-13.9-18.042-1.469-2.339-2.93-4.677-4.253-7.096a167 167 0 0 1-4.114-8.046 174 174 0 0 1-1.937-4.078l-.913-2.068-.446-1.037-.241-.592-.102-.256c0-.059-.051-.073-.103-.059-.043 0-.087.015-.131.03q-.131.035-.263.08l-.307.11-2.536.993a305 305 0 0 1-5.13 1.981c-4.019 1.505-8.097 2.952-12.211 4.136-2.638.767-5.327 1.432-8.06 1.856-2.734.431-5.532.658-8.302.271-1.717-.271-1.454-.395-.015-.724.717-.168 1.718-.49 2.909-.782.592-.146 1.235-.336 1.914-.497.68-.146 1.404-.292 2.149-.431 5.24-1.008 10.42-2.514 15.529-4.326 2.558-.899 5.093-1.871 7.636-2.872l3.837-1.505.979-.373.548-.205q.44-.164.877-.307c.577-.19 1.162-.307 1.622-.175.059.015.125.029.176.051l.08.066.037.036s.044-.073.029-.036h.007l.015.029.241.3.482.592q.174.428.358.855l.563 1.344.497 1.155c.336.767.68 1.542 1.023 2.316a83 83 0 0 0 2.207 4.604c1.557 3.04 3.23 6.044 4.955 8.974 3.778 6.453 8.024 12.65 12.942 18.262a85 85 0 0 0 4.757 4.962c1.673 1.564 3.398 3.069 5.218 4.45 2.755 2.083 5.707 3.954 8.849 5.298 3.157 1.36 6.519 2.237 9.909 2.734 2.639.409 5.284.496 7.907.416 2.624-.066 5.225-.416 7.798-.884a49 49 0 0 0 3.347-.775c4.15-1.096 5.466-1.447 6.635-1.001.263.095.599.161.775.285.307.205.087.57-.6 1.074-.687.497-1.819 1.177-3.405 1.688-9.325 3.303-20.337 3.508-30.437.227-1.863-.658-3.726-1.352-5.495-2.309-.913-.439-1.717-.972-2.58-1.462-.825-.526-1.658-1.052-2.462-1.615-3.208-2.243-6.161-4.808-8.901-7.541l.044-.059zM211.435 252.417c-.811.219-1.63.394-2.441.592-.826.153-1.644.336-2.47.467-.607.088-1.198.241-1.805.329-2.156.212-4.312.314-6.467.132-.475 0-.958-.103-1.433-.132-.475-.058-.957-.051-1.425-.146-.599-.11-1.22-.161-1.819-.314-.578-.234-1.162-.461-1.666-.855-.264-.38-.234-.293.175-.512.402-.204 1.082-.526 1.717-.46.585 0 1.133.139 1.703.212.555.117 1.14.109 1.71.182.285.022.57.066.862.081l.87.029c.585.037 1.169.095 1.761.095.709.015 1.432 0 2.156-.124a37 37 0 0 0 2.163-.358 33 33 0 0 0 2.368-.468 38 38 0 0 0 2.353-.577c.964-.241 1.914-.57 2.864-.87 1.425-.504 2.865-1.008 4.217-1.673 1.052-.512 2.009-1.162 2.967-1.791.212-.139.409-.299.628-.424.826-.445 1.169-.453 1.637-.08.11.088.227.161.314.256.3.307.147.818-.38 1.352-1.615 1.498-3.661 2.506-5.736 3.412-1.542.687-3.164 1.199-4.779 1.688l-.022-.051z"/><path fill="#231f20" d="M220.92 253.972c0 .482.014.964.029 1.447 0 .482.022.971.051 1.454.015.358.088.701.117 1.059.088 1.25.227 2.507.453 3.742.08.555.212 1.096.351 1.637.183.687.394 1.366.541 2.068.043.219-.088.241-.293.117a2.04 2.04 0 0 1-.709-.767 22 22 0 0 1-.876-2.076c-.264-.701-.366-1.454-.475-2.192-.11-.892-.359-1.791-.505-2.697a32 32 0 0 1-.314-3.01c-.022-.622-.051-1.243-.058-1.864-.03-.943.022-1.885.029-2.821.014-.73-.059-1.454-.029-2.199 0-.161-.015-.329.007-.49.117-.606.321-.767.775-.782.102 0 .197-.022.285-.014.277.014.577.328.635.745.117 1.228.022 2.463 0 3.756 0 .957-.029 1.922.015 2.894h-.044zM252.473 247.476c.248.746.38 1.535.497 2.317.043.285.124.563.146.855.066 1.016.044 2.061-.161 3.069-.088.446-.161.899-.27 1.338-.139.555-.278 1.191-.914 1.49-.183.095-.212.044-.307-.175a5 5 0 0 0-.234-.446 1.2 1.2 0 0 1-.124-.468c.059-.489.197-.935.256-1.425.08-.482.117-.971.219-1.49.102-.621-.058-1.272-.161-1.908-.109-.701-.27-1.41-.445-2.112a14 14 0 0 0-.373-1.3c-.227-.651-.453-1.308-.745-1.937-.227-.482-.541-.921-.804-1.381-.059-.102-.132-.197-.183-.3-.197-.394-.183-.555.066-.789.058-.051.109-.109.168-.153.197-.154.468-.088.701.153.695.724 1.279 1.571 1.783 2.485.366.687.644 1.417.921 2.163l-.044.014zM233.086 263.517c-.629.702-1.272 1.381-1.988 1.995-.249.234-.482.49-.76.694-.957.753-2.046 1.33-3.142 1.813-.242.117-.483.219-.731.329-.241.109-.482.234-.738.314-.643.197-1.272.555-2.017.321-.249-.175-.205-.124-.095-.416.109-.3.292-.804.621-.921 1.111-.599 2.207-1.052 3.376-1.586.358-.146.665-.38.979-.621.322-.219.6-.504.914-.738a19 19 0 0 0 1.914-1.783q.56-.592 1.075-1.228c.519-.643 1.023-1.308 1.439-2.024.315-.563.57-1.133.841-1.703l.175-.38c.241-.46.387-.577.687-.562.066 0 .139 0 .197.007.205.037.271.307.183.702-.124.584-.3 1.176-.504 1.761-.212.584-.512 1.14-.819 1.688-.46.811-.994 1.6-1.578 2.346l-.037-.022z"/><path fill="#231f20" d="M225.166 246.402c-.38.717-.739 1.447-1.038 2.207-.117.278-.154.57-.271.848-.401.979-.767 1.988-.986 3.033-.102.46-.154.935-.219 1.403-.022.299-.044.599-.132.906-.058.3-.146.607-.226.913-.059.19-.117.169-.249 0-.117-.16-.373-.46-.511-.833-.263-.65-.234-1.308-.249-1.965a9.7 9.7 0 0 1 .38-1.93c.234-.752.307-1.571.534-2.338.263-.84.584-1.666.942-2.463.22-.497.461-.979.702-1.461.358-.731.804-1.418 1.184-2.134.299-.548.511-1.147.804-1.71.058-.124.102-.263.204-.358.358-.38.577-.417.979-.249.095.037.19.073.271.117.277.154.38.483.321.877-.051.607-.314 1.067-.533 1.557-.227.489-.49.964-.738 1.439-.366.716-.775 1.418-1.126 2.149l-.043-.015zM227.905 218.194c-.519.841-1.016 1.703-1.418 2.616-.153.329-.241.68-.387 1.016-.526 1.169-.972 2.39-1.206 3.661-.066.278-.088.563-.117.848q-.055.427-.088.855c0 .365 0 .731-.051 1.096-.014.366-.036.738-.16 1.133-.066.241-.125.226-.315.051-.139-.131-.285-.256-.409-.373a1.8 1.8 0 0 1-.373-.584c-.285-.797-.38-1.623-.416-2.456.08-.818.234-1.637.504-2.418.307-.936.475-1.93.797-2.872.38-1.023.862-2.003 1.381-2.953.321-.584.665-1.154 1.023-1.71.526-.855 1.147-1.651 1.703-2.47.453-.628.803-1.322 1.249-1.965.095-.147.176-.3.285-.432.439-.467.753-.445 1.206-.168.11.066.219.125.314.198.314.241.387.672.241 1.125-.548 1.22-1.381 2.222-2.119 3.332-.555.811-1.125 1.63-1.608 2.492l-.051-.022zM246.241 221.3a18.3 18.3 0 0 1-.518 5.992c-.095.351-.176.702-.256 1.052a12 12 0 0 1-.336 1.031c-.906 2.389-2.331 4.516-4.005 6.35-.365.409-.789.775-1.169 1.169-.395.38-.819.731-1.228 1.096-1.089.87-2.251 1.725-3.661 1.988-.431.102-.431-.051-.234-.446.095-.197.241-.467.409-.767.183-.278.402-.57.665-.833 2.032-1.637 3.654-3.566 5.24-5.62.935-1.257 1.483-2.82 1.9-4.348.468-1.68.731-3.434.702-5.188-.03-.534-.052-1.089-.117-1.608a8 8 0 0 0-.351-1.534c-.482-1.535-1.286-3.033-2.361-4.268-.833-.972-1.914-1.637-2.937-2.258-.227-.146-.475-.227-.694-.366-.855-.467-1.067-.708-1.053-1.41 0-.161-.014-.322 0-.475.051-.497.643-.76 1.542-.541 1.301.344 2.602.943 3.647 1.864 1.067.891 1.98 1.973 2.74 3.157 1.118 1.753 1.915 3.8 2.127 5.963h-.066z"/><path fill="#231f20" d="M224.338 266.506c.11.343.219.68.343 1.008l.183.483.095.234s0 .022.007.036c.015.051.03.11.052.168a.2.2 0 0 0 .058.081c.015.022.088-.022.132-.03l.314-.117.08-.029.044-.014.102-.066.446-.278.892-.548c.292-.19.555-.431.84-.643.409-.314.804-.643 1.147-1.045.351-.387.738-.731 1.075-1.14 1.264-1.352 2.309-2.938 3.317-4.553.943-1.659 1.798-3.398 2.492-5.21.314-.804.57-1.63.826-2.455.219-.841.46-1.667.628-2.507.22-1.082.49-2.156.76-3.23.271-1.082.468-2.17 1.038-3.215.336-.658.19-.585.336.029.066.307.278.76.461 1.301.146.54.197 1.154.19 1.819-.015.585-.066 1.169-.095 1.761l-.059.885-.175.862a43 43 0 0 1-.848 3.42 33 33 0 0 1-2.689 6.591c-1.359 2.507-2.865 5.145-4.962 7.301-.292.292-.57.592-.877.869l-.957.79c-.614.555-1.352.964-2.046 1.417l-.264.168-.131.081-.19.073-.767.292-1.52.585c-.242.175-.541-.007-.753-.139a2.9 2.9 0 0 1-.599-.57c-.358-.446-.643-1.001-.892-1.535-.818-1.878-1.323-3.77-1.739-5.692-.614-2.909-.833-5.89-.811-8.828.022-2.287.102-4.567.577-6.84.102-.497.197-.994.344-1.491.27-.921.562-1.491.884-1.834a1.41 1.41 0 0 1 1.052-.497c.19-.015.387-.044.555-.022.57.088.658.936.439 2.185a38.7 38.7 0 0 0-.862 11.429c.233 2.902.701 5.861 1.615 8.609l-.066.029zM253.511 246.678c.709 1.834 1.337 3.763 1.417 5.882v1.162a21 21 0 0 1-.175 1.191c-.022.168-.11.344-.168.519l-.256.738a2 2 0 0 1-.394.592c-.176.168-.395.278-.614.373-.461.161-.972.197-1.469.175a9 9 0 0 1-1.001-.124c-1.286-.227-2.463-.665-3.603-1.169a25 25 0 0 1-2.923-1.506c-1.147-.774-2.331-1.629-2.989-2.915-.205-.395-.124-.38.256-.249.19.066.46.146.789.234.154.051.344.08.512.146.16.073.321.154.475.249.555.343 1.132.643 1.717.913.577.285 1.14.585 1.732.84 1.169.519 2.397.936 3.617 1.272.366.102.738.168 1.104.197l.394.015c.066 0 .139 0 .205-.022s.139-.044.153-.117a1 1 0 0 1 .051-.168c.103-.292.066-.694.103-1.03.014-1.579-.329-3.325-.936-5.006-.387-1.031-.818-2.061-1.337-3.047-.775-1.506-1.659-2.989-2.696-4.327-.797-1.052-1.784-1.914-2.719-2.806-.205-.197-.431-.365-.628-.57-.358-.387-.585-.643-.651-.921-.051-.292.015-.562.168-.884.073-.146.125-.307.205-.431.131-.219.351-.321.643-.329.292-.007.68.059 1.03.3.527.351 1.031.738 1.52 1.147.461.431.936.877 1.36 1.359a26 26 0 0 1 2.382 3.092 33.4 33.4 0 0 1 2.806 5.195l-.058.03z"/><path fill="#231f20" d="M188.121 248.316c-2.828-1.476-5.13-3.756-6.796-6.38-1.651-2.63-2.689-5.743-2.565-8.973.029-2.324.87-4.86 2.572-6.658a12 12 0 0 1 2.5-1.936 16 16 0 0 1 2.777-1.228c1.892-.599 3.814-.921 5.714-1.06 3.807-.285 7.556 0 11.247.527a64 64 0 0 1 9.704 2.119 85 85 0 0 1 5.963 1.98c.98.366 1.952.716 2.909 1.126.95.416 1.922.767 2.806 1.366.533.446.76.665.716.731-.044.073-.358.036-.979.161-1.228.241-3.435.328-5.707-.432-4.063-1.249-7.937-2.755-11.927-3.58-4.004-.841-8.177-1.367-12.291-1.418-2.463-.015-4.984.27-7.271 1.06-2.288.767-4.275 2.148-5.24 4.121-.548 1.074-.796 2.324-.811 3.617a11.9 11.9 0 0 0 .621 3.859c.833 2.521 2.39 4.86 4.399 6.657 2.456 2.207 5.773 3.398 9.135 4.085 5.115.98 10.545.965 15.565-.409 3.939-1.045 7.644-2.645 11.079-4.64.373-.227.738-.453 1.111-.687q.539-.353 1.088-.716c1.345-.907 2.215-1.513 2.872-1.886.337-.175.636-.278.899-.358a3.3 3.3 0 0 1 .789-.051c.227.007.49-.029.651 0 .278.051.219.373-.051 1.008-.125.337-.366.68-.695 1.053-.314.387-.738.782-1.235 1.191-2.945 2.448-6.416 4.333-10.07 5.795a50 50 0 0 1-5.648 1.856c-1.908.512-3.976.914-5.993 1.082-3.01.255-6.036.182-9.039-.256-2.996-.453-5.993-1.221-8.806-2.667l.022-.066z"/><path fill="#231f20" d="M186.406 233.846c1.176 0 1.176-1.826 0-1.826-1.177 0-1.177 1.826 0 1.826M190.126 236.602c1.527 0 1.527-2.375 0-2.375s-1.527 2.375 0 2.375M187.648 239.487c1.177 0 1.177-1.827 0-1.827s-1.177 1.827 0 1.827M196.454 244.027c1.527 0 1.527-2.375 0-2.375s-1.527 2.375 0 2.375M201.263 241.527c1.527 0 1.527-2.375 0-2.375-1.528 0-1.528 2.375 0 2.375M205.806 246.504c1.527 0 1.527-2.375 0-2.375-1.528 0-1.528 2.375 0 2.375M191.777 243.886c1.176 0 1.176-1.827 0-1.827-1.177 0-1.177 1.827 0 1.827M192.464 230.272c1.177 0 1.177-1.827 0-1.827-1.176 0-1.176 1.827 0 1.827M226.574 253.659c1.176 0 1.176-1.827 0-1.827-1.177 0-1.177 1.827 0 1.827M226.435 261.5c1.527 0 1.527-2.375 0-2.375-1.528 0-1.528 2.375 0 2.375M231.937 259.71c1.177 0 1.177-1.827 0-1.827-1.176 0-1.176 1.827 0 1.827M230.286 255.996c1.527 0 1.527-2.375 0-2.375s-1.527 2.375 0 2.375M235.243 250.793c1.527 0 1.527-2.375 0-2.375s-1.527 2.375 0 2.375M212.413 200.376c3.982 1.133 8.418 0 11.392-2.886.585-.57.614-1.637 0-2.2s-1.571-.606-2.199 0q-.22.21-.439.409a5 5 0 0 1-.226.19c-.366.3.117-.08-.103.081-.328.234-.665.453-1.008.643a10 10 0 0 1-.599.307 4 4 0 0 1-.271.124c.154-.066.044-.022-.044.015-.401.146-.803.285-1.22.387a8 8 0 0 1-.585.131 4 4 0 0 1-.299.052c-.256.043.219-.022-.037 0a11 11 0 0 1-1.271.073 9 9 0 0 1-.599-.022c-.088 0-.607-.059-.337-.022a9.4 9.4 0 0 1-1.322-.285c-.782-.219-1.725.27-1.908 1.081-.182.812.249 1.674 1.082 1.908zM179.054 164.598c.197-.16.431-.27.657-.394.095-.051.205-.081.264-.19.102-.19.73-.117.701-.241-.058-.278 1.9-1.155 2.017-1.272.051-.058.132-.08.19-.132.058-.051.11-.116.175-.16a.5.5 0 0 1 .168-.073c.059-.022.139 0 .19-.044.11-.081.709-.336.797-.461.022-.022.066 0 .102 0 .271.03 1.681-.687 2.046-.701q.09.002.147-.073c.131-.234 2.316-.483 2.338-.629 0-.058.051-.073.088-.08a.4.4 0 0 1 .212 0 .26.26 0 0 0 .168-.015c.124-.058.292.022.438.103.029.014.081.109.103.168l.38 1.366v.029c.065.366.058.797-.095.768-.117 0-.819.351-.907.336-.138-.022-.76.424-.964.563-.029.014-.446.226-.884.445-.454.198-.921.439-1.024.548-.146.154-.591.373-.621.395-.044.015-1.6 1.125-1.702 1.25-.03.029-.073.036-.095.065-.227.256-.475.483-.775.622-.007 0-.022 0-.029.014-.124.256-.38.329-.57.49-.307.248-.592.519-.914.745-.087.066-.204.088-.314.139-.124.059-.263.102-.292.285a.05.05 0 0 1-.051.051c-.161 0-.176.183-.285.249-.139.08-.263.175-.395.27-.015.015-.037.015-.051.029-.146.168-.285.336-.446.49-.044.044-.124.044-.205.036-.109 0-.19.037-.219.139-.036.139-.182.066-.467-.241a4.5 4.5 0 0 1-.512-.628c-.197-.293-.409-.592-.607-.892-.219-.329-.928-1.337-.92-1.52 0-.044.007-.088.044-.088.27 0 .365-.226.548-.343.16-.102.27-.27.467-.329.132-.036.227-.131.263-.292.03-.146.738-.716.833-.797z"/><path fill="#231f20" d="M139.264 270.523c-1.206.577-2.565.855-3.939.708a6.1 6.1 0 0 1-3.625-1.775c-.687-.695-1.286-1.542-1.512-2.551-.402-1.79.204-3.522 1.249-4.757.534-.621 1.199-1.14 1.981-1.447.767-.314 1.71-.387 2.513-.11.709.234 1.382.68 1.798 1.36.205.329.351.738.373 1.14.029.402-.037.796-.168 1.154-.183.461-.475.899-.921 1.206-.424.307-1.03.468-1.593.329a1.97 1.97 0 0 1-1.25-.899c-.27-.424-.409-.965-.263-1.476.095-.314.256-.387.322-.336.095.051.124.226.241.416.11.198.292.38.526.497.124.059.241.103.365.132.066.007.117.029.176.022.044.022.095.022.131.044.161.029.183 0 .307-.066a.77.77 0 0 0 .278-.373c.066-.175.095-.38.058-.526a.85.85 0 0 0-.219-.424c-.241-.285-.738-.504-1.191-.504-.46 0-1.008.204-1.491.577-.584.439-1.015 1.169-1.162 1.922-.16.76-.036 1.484.307 2.119.38.709 1.06 1.308 1.835 1.623.76.314 1.673.372 2.55.168a5.25 5.25 0 0 0 2.843-1.754c1.11-1.316 1.644-3.274 1.059-4.882-.431-1.235-1.586-2.075-2.733-2.411a4.7 4.7 0 0 0-.767-.132c-.468-.066-.76-.08-.994-.182-.234-.103-.402-.3-.607-.614-.095-.146-.211-.278-.292-.417-.139-.234-.109-.489.102-.767.212-.285.651-.497 1.243-.577 1.768-.212 3.617.482 4.969 1.79.68.65 1.22 1.52 1.542 2.448a7 7 0 0 1 .351 2.835c-.103 1.403-.6 2.719-1.352 3.852a7.96 7.96 0 0 1-3.055 2.689l-.029-.051z" opacity=".65"/><path fill="#231f20" d="M230.004 305.359c-1.06.512-2.134.731-3.179.797a10.5 10.5 0 0 1-3.113-.249c-.731-.175-1.469-.358-2.149-.694-1.183-.614-2.25-1.483-3.01-2.587-.76-1.081-1.206-2.44-1.14-3.734a7.1 7.1 0 0 1 .877-3.252c.358-.621.803-1.22 1.395-1.666a3.85 3.85 0 0 1 2.025-.76c.453-.029.387.153.087.424-.314.234-.752.716-1.206 1.147-.847.76-1.395 1.856-1.585 2.996-.198 1.155-.03 2.273.519 3.281.328.614.855 1.148 1.461 1.557.614.409 1.308.702 2.017.935 1.557.505 3.303.578 4.867.095.943-.285 1.805-.818 2.265-1.549.351-.548.512-1.271.388-1.878-.125-.614-.519-1.067-1.097-1.22-.445-.125-.95-.03-1.271.197-.322.227-.453.541-.497.899-.022.161.015.321.029.468.073.54-.044.665-.562 1.293-.117.139-.212.3-.322.438-.19.234-.446.351-.797.256-.336-.095-.745-.438-.986-1.008-.358-.848-.365-1.834-.022-2.777.322-.943 1.169-1.856 2.178-2.258a4.38 4.38 0 0 1 3.062-.11c.497.161.986.417 1.417.775.439.365.797.818 1.038 1.293.731 1.469.57 2.996.022 4.224a5.4 5.4 0 0 1-1.169 1.652 6.2 6.2 0 0 1-1.52 1.067l-.03-.052zM296.24 253.168c.723-.504 1.147-1.279 1.008-2.193-.051-.336-.241-.643-.409-.957-.592-1.147-1.966-2.017-3.376-1.622-.621.161-1.184.555-1.637 1.037-.577.629-.936 1.411-1.14 2.259-.066.263-.314.255-.577-.022-.271-.263-.519-.877-.351-1.542.321-1.133 1.008-2.222 2.075-2.858 1.031-.657 2.412-.935 3.632-.555 1.418.438 2.733 1.323 3.449 2.66a4.57 4.57 0 0 1 .527 2.441 4.37 4.37 0 0 1-.877 2.331 5.06 5.06 0 0 1-2.346 1.747 4.5 4.5 0 0 1-2.244.219c-.38-.081-.745-.168-1.11-.351s-.739-.438-1.016-.855a2.62 2.62 0 0 1-.329-2.09c.095-.358.27-.716.555-1.03a2.36 2.36 0 0 1 1.067-.658c.351-.11.709-.154 1.06-.095.658.109 1.045.416 1.206.701.153.3.095.585-.117.863a1.7 1.7 0 0 1-.322.351c-.204.16-.453.226-.636.299-.19.073-.328.161-.423.205a.45.45 0 0 0-.169.131c-.043.037-.014.161-.051 0-.014-.044-.036-.08-.044-.102-.014-.022.022.029.044.051a.6.6 0 0 0 .234.132c.066.022.059 0-.014.014a.7.7 0 0 0-.264.081l-.036.029h-.007v.007l.168-.146.007-.007.037-.037s.058-.066.102-.109c.022-.03.007-.008.014-.008a.7.7 0 0 0 .169.081c.533.212 1.41.087 2.09-.446l.043.044zM324.409 214.321c-.986.73-2.17 1.008-3.259.971a5.8 5.8 0 0 1-3.055-.986c-.643-.446-1.271-1.038-1.629-1.717-.665-1.206-.841-2.565-.68-3.808a6.866 6.866 0 0 1 3.932-5.385c.621-.285 1.308-.505 2.031-.497.716.014 1.455.248 2.01.694.351.292.088.475-.336.599-.439.117-.979.336-1.469.431a4.6 4.6 0 0 0-2.543 1.221c-.716.643-1.162 1.534-1.491 2.535-.387 1.213.015 2.595.767 3.45.775.92 2.31 1.468 3.574 1.074.38-.117.738-.3 1.016-.577.27-.256.475-.592.577-.987.175-.592.124-1.286-.102-1.893a2.6 2.6 0 0 0-.512-.796 2 2 0 0 0-.745-.468 1.44 1.44 0 0 0-1.228.161.86.86 0 0 0-.336.365c-.059.11-.051.263-.007.241l.146.11c.102.117.124.153.102.27-.015.125.022.322.212.57.08.11.204.205.307.3.175.161.248.395 0 .687-.241.3-.95.482-1.579.212-.46-.197-.862-.49-1.147-.928a2.4 2.4 0 0 1-.38-1.674c.168-1.184 1.067-1.973 1.9-2.309a4 4 0 0 1 1.337-.292c.227-.008.468 0 .702.044.226.051.446.102.665.168.877.307 1.586.928 2.046 1.607.68 1.031 1.009 2.185.921 3.391a4.9 4.9 0 0 1-.49 1.791c-.278.584-.752 1.096-1.22 1.468z"/><path fill="#231f20" d="M272.877 333.07c.636.292 1.732-.03 2.346-.775.219-.27.351-.585.453-.884.197-.526.117-1.199-.219-1.798a3.33 3.33 0 0 0-1.608-1.388c-.614-.271-1.286-.271-1.922-.059-.811.3-1.578.811-2.309 1.433-.227.197-.322.08-.293-.242.03-.314.161-.884.585-1.366a4.32 4.32 0 0 1 3.223-1.491c1.308-.007 2.506.629 3.296 1.593.467.57.884 1.235 1.088 2.002.212.76.19 1.645-.109 2.383a4.49 4.49 0 0 1-3.961 2.718 3.6 3.6 0 0 1-2.784-1.271c-.504-.592-.841-1.389-.782-2.222.058-.869.555-1.615 1.213-2.068a2.8 2.8 0 0 1 .95-.438 2.4 2.4 0 0 1 1.147 0c.651.16 1.243.708 1.476 1.33.125.292.205.599.212.928.015.621-.285 1.037-.54 1.22-.264.183-.512.175-.739.037-.102-.059-.204-.117-.277-.198-.117-.131-.154-.314-.183-.467a1.4 1.4 0 0 0-.168-.41c-.095-.153-.168-.321-.292-.416-.117-.081-.154-.037-.198-.022-.022.015-.022.029-.043.044a.872.872 0 0 0-.454.438c-.043.095-.051.395.125.68.168.292.475.563.789.65l-.015.051z" opacity=".65"/><path fill="#231f20" d="M244.977 76.043c-.226.08-.46.168-.68.263-.08.036-.153.095-.233.124a8 8 0 0 0-.855.402c-.125.066-.234.153-.344.234-.139.11-.256.24-.438.3-.11.036-.329-.468-.183-.622.27-.256.57-.482.921-.628.212-.088.38-.256.577-.373.212-.131.439-.256.658-.373q.21-.111.409-.212c.205-.11.417-.212.621-.328.154-.088.285-.227.424-.344.029-.022.058-.058.095-.08.124-.073.197-.037.329.168l.088.139c.095.16.109.329.043.43-.204.286-.46.483-.752.63q-.331.142-.673.284l-.014-.022zM245.53 69.11c-.212.021-.432.036-.651.08-.08.014-.139.066-.219.08-.278.044-.57.088-.84.175a.9.9 0 0 0-.322.19c-.124.103-.212.256-.416.234-.132-.014-.687-1.067-.519-1.206a1.77 1.77 0 0 1 1.037-.387c.241-.007.417-.153.629-.226.234-.073.467-.132.709-.183l.438-.088c.219-.05.446-.073.651-.146.16-.058.306-.197.46-.292.036-.022.066-.059.102-.073.139-.051.197.029.292.409l.066.256c.066.292.051.548-.022.643-.219.3-.482.38-.752.453-.205.051-.417.073-.622.117l-.014-.03zM252.181 83.693c-.241.3-.475.614-.687.936-.087.116-.131.248-.219.365-.292.41-.577.826-.826 1.271-.124.19-.204.402-.292.607-.102.263-.183.54-.358.782-.058.073-.197.022-.329-.102-.131-.125-.263-.315-.241-.49.095-.607.234-1.213.614-1.717.212-.307.321-.673.497-1.001.19-.366.431-.702.657-1.045.147-.205.293-.417.439-.622.219-.314.468-.606.665-.928.161-.248.263-.533.395-.796.029-.059.051-.124.087-.176.132-.204.249-.212.541-.029.066.044.139.08.197.124.22.154.322.366.278.541-.139.526-.431.943-.723 1.367q-.34.462-.68.935l-.029-.015zM321.084 52.01c-.205.176-.3-.204-.336-.928-.015-.233.08-.913.146-1.008.124-.175.241-.343.358-.46.073-.073 1.081-.264 1.425-.358.336-.088.658-.074.972-.03.643.08 1.301.132 1.944.205a1 1 0 0 1 .416.146c.468.278.957.35 1.454.365.081 0 .168.03.256-.065.154-.154 1.491.022 1.652.124.402.263.818.446 1.227.658.059.029.132 0 .168.131.095.307.234.27.366.314.183.052.358.125.533.242.088.058.154.233.227.372.066.132-.037.548-.066.592-.102.124-.058.336-.073.512 0 .058-.015.139-.022.19-.022.11-1.176.716-1.293.701-.03 0-1.608.044-1.791.08-.095.023-.182-.058-.263-.109-.044-.022-1.315.073-1.359.066-.256-.066-.526.022-.745-.27-.044-.06-.095-.052-.154-.052-.446 0-.877-.16-1.308-.27-.219-.059-.453-.051-.68-.073-.043 0-.073-.051-.117-.073-.051-.03-.095-.073-.146-.073-.54-.03-1.052-.242-1.6-.176-.124.015-.672-.372-.819-.343-.08.014-.285-.483-.365-.41zM318.029 44.305c.139.278-.263.387-1.001.416-.234.008-.906-.146-.987-.24a3.4 3.4 0 0 1-.394-.527c-.066-.102-.037-1.556-.022-2.06 0-.49.124-.95.263-1.396.299-.914.592-1.827.957-2.719.08-.197.19-.387.329-.555.49-.585.796-1.235 1.074-1.908.044-.11.117-.212.073-.365-.087-.256.877-2.002 1.089-2.17.504-.446.943-.914 1.425-1.352.066-.066.088-.161.241-.161.351 0 .417-.183.541-.329.175-.205.373-.395.607-.555.116-.08.321-.088.504-.117.161-.022.475.285.489.343.044.176.263.22.41.314.051.037.117.073.153.11.073.08-.146 1.688-.226 1.82-.044.022-.936 1.922-.98 2.163-.036.124-.153.197-.248.285-.059.036-.599 1.622-.621 1.68-.183.293-.22.65-.6.855-.073.037-.087.11-.116.176-.198.563-.512 1.06-.79 1.593-.146.27-.204.57-.314.855-.022.051-.073.088-.11.132-.043.058-.102.11-.116.175-.198.687-.563 1.33-.629 2.06-.022.161-.526.848-.533 1.046 0 .11-.541.343-.483.453zM40.563 171.943c-.11.248-.373-.044-.745-.665-.117-.197-.344-.855-.329-.957.037-.212.073-.417.124-.578.037-.095.884-.745 1.17-.986.27-.234.577-.373.898-.482.643-.234 1.272-.497 1.915-.731.139-.051.3-.073.46-.066.563.029 1.053-.139 1.528-.365.08-.037.168-.052.211-.176.074-.212 1.404-.679 1.6-.665.498.044.965.008 1.448.008.066 0 .117-.059.219.036.227.227.344.132.482.11a2 2 0 0 1 .607-.037c.11.015.248.139.387.227.124.08.22.504.212.562-.036.161.102.329.168.49.022.058.051.132.066.175.03.103-.775 1.192-.884 1.228-.03.007-1.484.797-1.637.914-.08.058-.197.029-.3.029-.051 0-1.191.687-1.242.694-.263.066-.482.263-.819.117-.065-.029-.116 0-.16.029-.424.205-.892.271-1.352.373-.234.051-.446.168-.665.248-.044.015-.095-.007-.14-.007-.058 0-.123-.015-.167 0-.519.227-1.096.285-1.579.599-.11.073-.803-.014-.928.081-.073.051-.482-.293-.526-.198zM39.7 147.541c-.299-.074-.13-.454.337-1.016.146-.183.709-.585.826-.585.234-.007.453-.014.636.015.11.022 1.132.833 1.505 1.081.358.241.636.548.899.87.54.643 1.11 1.264 1.68 1.885.125.139.227.3.307.475.27.621.71 1.096 1.199 1.52.08.073.146.161.292.161.234 0 1.476 1.228 1.579 1.44.263.533.592 1.008.898 1.512.044.073.14.095.11.242-.066.328.095.409.212.54.16.183.314.38.438.614.059.117.044.314.052.497 0 .161-.322.453-.38.46-.176.03-.234.249-.344.388-.036.051-.087.109-.117.146-.08.08-1.666-.3-1.783-.417-.029-.022-1.768-1.264-1.98-1.417-.11-.066-.161-.205-.22-.322-.036-.044-1.424-1.074-1.468-1.133-.227-.27-.556-.453-.614-.884-.007-.087-.073-.124-.124-.175-.453-.409-.797-.928-1.155-1.418-.183-.248-.416-.46-.621-.694-.037-.044-.044-.11-.066-.161-.03-.066-.044-.146-.095-.197-.504-.534-.862-1.191-1.425-1.681-.131-.11-.38-.943-.533-1.067-.088-.073.073-.636-.051-.665z"/></svg>