<svg xmlns="http://www.w3.org/2000/svg" width="380" height="380" fill="none"><path fill="#12111f" d="m207.375 143.426 22.274-14.813 22.274 15.807s-25.168 22.661-44.548-.994" opacity=".3"/><path fill="#12111f" d="m34.748 253.145.277-14.184v-5.167c.103-6.08.256-12.153.278-18.225 0-2.697-.036-5.408-.131-8.083-.044-1.71-.168-3.434-.161-5.152 0-.862 0-1.724.036-2.587.037-.862.154-1.724.242-2.579.146-1.082.511-.95 1.06-.059q.538.894.956 1.849c.33.859.542 1.759.629 2.675.066.877.19 1.754.212 2.631l.073 2.638c.044 1.754.08 3.515.095 5.276 0 3.522-.088 7.052-.256 10.596-.197 4.246-.044 8.652-.088 12.986q-.117 7.146-.226 14.294-.066 4.385-.139 8.769c-.051 4.436-.131 8.901-.058 13.3.065 3.42.3 6.774.54 10.128l.183 2.193a12.7 12.7 0 0 1-.044 2.923c-.084.51-.315.985-.665 1.366q-.181.24-.402.446c-.226.161-.467 0-.73-.512a6.9 6.9 0 0 1-.79-2.309c-.277-1.527-.416-3.076-.548-4.626-.131-1.549-.212-3.135-.292-4.713-.139-3.172-.183-6.372-.197-9.58 0-4.765.05-9.552.087-14.323zM34.058 107.483c0-1.155.059-2.309.059-3.471 0-.417-.059-.84-.052-1.264 0-1.462.059-2.982.044-4.473a20 20 0 0 0-.124-1.98 11 11 0 0 1-.11-1.272 6 6 0 0 1 0-.643q.051-.336.183-.65c.11-.278.358-.241.73 0q.33.2.637.431c.199.161.342.381.409.629q.175.623.197 1.271c0 .431.059.855.073 1.294a18.5 18.5 0 0 1-.102 2.616 29 29 0 0 0 .058 3.201v3.522l-.036 2.192c0 1.096-.051 2.192 0 3.281 0 .841.168 1.674.248 2.507 0 .183.059.365.066.548.032.255-.025.513-.16.731a1.08 1.08 0 0 1-.541.314c-.11 0-.212.073-.307.095a.56.56 0 0 1-.468-.154 1.2 1.2 0 0 1-.41-.577 20.4 20.4 0 0 1-.445-4.596v-3.486zM218.141 90.27a6132 6132 0 0 0-44.409 0l-16.194.153q-28.559.081-57.102.27c-8.44.074-16.932.234-25.314.417l-16.165.387c-5.393.08-10.786.11-16.172 0-3.376-.175-2.923-.73-.087-1.417a73 73 0 0 1 14.242-1.79c21.982-.549 43.956-.878 66.135-.79 13.256.051 27.038-.3 40.616-.41q22.377-.182 44.752-.211h27.543c13.885 0 27.872.124 41.654.197 10.728.066 21.251 0 31.876.183 2.339 0 4.633.08 7.001.175 2.192.073 4.005.22 5.532.351a53 53 0 0 1 2.068.212c.606.08 1.191.175 1.695.285q1.243.252 2.441.665a8.2 8.2 0 0 1 1.578.884q.587.355 1.104.804c.336.395-.409.577-1.966.636-.767 0-1.776.051-2.989.058q-.913 0-1.951-.044l-2.236-.058c-9.398-.322-19.124-.365-28.982-.46l-29.881-.212c-14.894-.088-29.86-.161-44.797-.154zM336.684 257.786l-.131-13.11c0-1.593-.132-3.186-.146-4.779-.044-5.627 0-11.254 0-16.881 0-2.499-.088-5.006-.168-7.483a92 92 0 0 1-.095-4.779q.038-2.399.329-4.78c.109-.994.54-.862 1.045 0q.461.833.796 1.725c.139.358.27.731.387 1.162l.168.636c0 .219.052.438.066.672l.154 2.426.073 1.213v1.213l.044 4.867q0 4.867-.11 9.778c-.117 3.909.161 7.98.241 11.984q.095 6.577.205 13.213l.087 8.141c.044 4.114 0 8.243-.036 12.335 0 3.186.036 6.314-.212 9.5-.066.731-.095 1.396-.219 2.119q-.121.846-.358 1.666a4.6 4.6 0 0 1-.453 1.111 1.73 1.73 0 0 1-1.184.943q-.303.1-.621.124c-.307 0-.475-.314-.534-.797a5 5 0 0 1 0-.869c0-.336.073-.731.124-1.169.312-2.747.485-5.508.519-8.273.066-2.864.088-5.787.088-8.725q.002-6.577-.117-13.154zM336.407 121.307c.073-1.462.153-2.996.175-4.487 0-.548-.058-1.089-.044-1.63a53 53 0 0 0-.117-5.736c-.073-.855-.212-1.725-.329-2.594a12 12 0 0 1-.131-1.681 6.6 6.6 0 0 1 .256-1.681c.087-.351.424-.299.825 0q.34.263.622.585.168.181.307.387c.051.066.08.139.131.212q.035.108.059.219l.131.797.073.402.037.394.146 1.615a28 28 0 0 1 .131 3.428c-.051 1.388.154 2.806.147 4.202 0 1.541-.037 3.069-.095 4.596l-.117 2.814c-.037 1.425-.139 2.85-.132 4.253 0 1.096.139 2.192.212 3.259 0 .241.058.475.058.731 0 .891-.138 1.169-.781 1.337a3 3 0 0 1-.417.117c-.453.066-.892-.307-1.001-.957a30.3 30.3 0 0 1-.336-6.007l.131-4.538zM212.837 300.23l-40.609.366-14.813.197q-26.11.153-52.213.102H82.043c-4.925 0-9.858 0-14.798-.102-2.47-.051-4.947-.132-7.417-.278-2.5-.1-4.99-.369-7.454-.804a3.7 3.7 0 0 1-1.878-.811.36.36 0 0 1-.117-.285.35.35 0 0 1 .088-.161c.088-.065.153-.131.205-.175.05-.044.058-.08.065-.066.008.015.066.154.278.183a8 8 0 0 0 1.535-.037c4.313-.404 8.647-.56 12.978-.467 10.012.234 20.052.248 30.115.285l30.269.095c12.116.058 24.729-.278 37.123-.461l40.923-.592 25.167-.38c12.701-.211 25.468-.387 38.081-.686 9.799-.234 19.402-.658 29.099-.965 2.134-.066 4.224-.161 6.38-.197 7.98-.154 10.552.102 12.255 1.059.393.182.764.41 1.103.68.344.38-.263.636-1.695.862a61 61 0 0 1-6.577.519c-17.29.731-35.559 1.155-53.902 1.462l-40.967.665zM170.269 173.309l-.117-14.272c0-1.732-.102-3.464-.11-5.203l-.051-18.342c0-2.719-.066-5.444-.131-8.134a79 79 0 0 1 .248-10.42c.117-1.104.314-.914.592 0a26 26 0 0 1 .943 4.56l.19 2.638.087 1.322.044 1.323c.037 1.769.081 3.53.124 5.298.074 3.537.095 7.081 0 10.64-.073 4.261.147 8.689.212 13.044q.11 7.184.205 14.375.066 4.384.124 8.842c.081 4.465.124 8.952.271 13.38.109 3.442.358 6.818.54 10.231 0 .731.103 1.462.125 2.244.102 2.798 0 3.712-.658 4.318a3 3 0 0 1-.387.395c-.41.263-.899-.862-1.06-2.923-.548-6.073-.789-12.489-.965-18.927-.102-4.786-.204-9.595-.299-14.396zM187.171 161.698l-.169-14.483c0-1.762-.102-3.523-.116-5.284q-.045-9.317 0-18.627v-8.265c-.121-3.538.08-7.08.599-10.582.285-1.147.446-.877.599.044.102.475.212 1.125.365 1.922l.212 1.286.095.731.037.731.117 2.674.073 1.338v1.337q0 2.682.058 5.371c.037 3.581.051 7.176-.036 10.794-.088 4.318.131 8.813.212 13.234q.11 7.307.234 14.615l.153 8.974c.095 4.531.161 9.083.322 13.578.124 3.5.372 6.92.555 10.377.036.73.095 1.505.117 2.272.08 2.858-.051 3.778-.731 4.385a4 4 0 0 1-.402.395c-.416.248-.869-.885-1.016-2.96-.504-6.146-.774-12.657-.972-19.197-.116-4.853-.241-9.734-.358-14.616zM132.019 216.63l-14.746-.036c-1.798 0-3.589.073-5.379.051l-19-.205h-8.411c-3.58 0-7.169.073-10.757-.241-1.118-.088-.95-.431 0-.774a16.6 16.6 0 0 1 4.735-.731c7.308-.212 14.572-.241 21.923-.139 4.385.073 8.982-.124 13.483-.19l14.857-.117 9.142-.088c4.611-.051 9.251-.08 13.826-.197 3.566-.095 7.052-.343 10.574-.504.775-.037 1.527-.103 2.317-.117 2.923-.081 3.851.102 4.457.796q.224.218.402.475c.241.541-.906.95-3.011 1.126-6.27.519-12.905.731-19.57.833l-14.878.117zM264.275 203.05l-17.276-.124H240.7l-22.215-.212c-3.281 0-6.577 0-9.844.044-4.194.036-8.382.182-12.605-.103-1.33-.095-1.104-.526 0-.928a18.4 18.4 0 0 1 5.539-.84c8.535-.095 17.085-.168 25.701 0 5.159.102 10.523-.073 15.792-.11l17.4-.073h10.713c5.4-.036 10.83 0 16.193-.139 4.173-.08 8.258-.314 12.38-.475.906 0 1.797-.102 2.711-.124 3.391-.087 4.487.088 5.21.775q.27.207.483.475c.328.533-1.053.979-3.53 1.154-7.359.512-15.134.636-22.932.731l-17.428.051zM313.272 126.217c.168-2.47.336-4.94.467-7.41.044-.899.001-1.805.066-2.704.176-3.172.315-6.343.373-9.5 0-1.403-.044-2.813-.183-4.195a65 65 0 0 0-.73-5.166c-.095-.519.219-.629.73-.307.335.221.629.498.87.818.296.42.514.891.643 1.389.353 1.858.576 3.738.665 5.627.051.935.08 1.863.073 2.799s0 1.863-.088 2.798c-.146 2.229-.051 4.546-.117 6.819-.073 2.499-.19 4.998-.299 7.49l-.219 4.611c-.103 2.317-.242 4.655-.263 6.964 0 1.791.109 3.552.175 5.328 0 .387.058.767.066 1.162 0 1.461-.146 1.921-.833 2.192a3 3 0 0 1-.432.204c-.453.132-.942-.475-1.052-1.541a68 68 0 0 1-.27-9.895c.073-2.499.182-4.999.314-7.498zM217.512 105.773a26.53 26.53 0 0 0-13.373 19.496 25.82 25.82 0 0 0 3.449 16.202 24 24 0 0 0 5.115 5.999 27.5 27.5 0 0 0 6.804 4.085c.606.271 1.257.439 1.878.665l.95.322.979.226c.65.139 1.293.315 1.951.424l2.002.271q.886.105 1.776.102c.592 0 1.191.058 1.783 0a28 28 0 0 0 3.552-.373c.584-.109 1.169-.197 1.746-.321l1.718-.483.847-.241.826-.329 1.644-.65a26.2 26.2 0 0 0 7.359-5.159c.504-.556 1.053-1.067 1.528-1.652l1.359-1.79a23.5 23.5 0 0 0 2.265-3.888c.402-.848.672-1.191.87-1.089s.299.636.219 1.506a11.6 11.6 0 0 1-.935 3.449 13 13 0 0 1-1.17 2.104 12 12 0 0 1-1.651 2.193l-.87.913a7.3 7.3 0 0 1-.906.877l-1.936 1.608-2.105 1.388a8 8 0 0 1-1.096.614l-1.118.577a29.55 29.55 0 0 1-19.519 2.193 27 27 0 0 1-9.179-3.866 30 30 0 0 1-4.677-3.8 26.93 26.93 0 0 1-7.621-16.311 27.3 27.3 0 0 1 2.038-13.088 28.9 28.9 0 0 1 7.747-10.691 28.5 28.5 0 0 1 6.891-4.385 26.8 26.8 0 0 1 7.885-2.17 28.5 28.5 0 0 1 12.189 1.301 25.6 25.6 0 0 1 10.318 6.518 28.5 28.5 0 0 1 5.372 7.724 30.8 30.8 0 0 1 2.718 8.989c.08.694.153 1.381.234 2.068.08.687 0 1.381.036 2.083q.014.902-.102 1.797-.088.811-.153 1.462c-.176.891-.358 1.6-.527 2.192a5 5 0 0 1-.577 1.359c-.32.526-.725.995-1.198 1.389-.278.161-.358-.292-.249-1.191.037-.453.168-1.009.263-1.681s.183-1.462.307-2.338a29 29 0 0 0-2.879-15.61 25.07 25.07 0 0 0-11.159-11.509 26.5 26.5 0 0 0-11.846-2.616 24.7 24.7 0 0 0-11.692 3.149z"/><path fill="#12111f" d="M226.341 116.96c0-1.213.066-2.434.073-3.654 0-.446-.051-.892-.043-1.338 0-1.563.058-3.142.043-4.713 0-.731-.036-1.396-.087-2.083a12 12 0 0 1-.081-2.667c.044-.285.41-.27.797-.058a1.66 1.66 0 0 1 .869 1.125 25 25 0 0 1 .256 5.451c-.073 1.104.081 2.237.11 3.355.036 1.235.044 2.47.051 3.705v5.744c.037.891.19 1.753.292 2.63q.053.287.051.578a4 4 0 0 1-.043.46q-.054.168-.161.307c-.126.16-.296.28-.49.343a3 3 0 0 1-.277.103c-.278.065-.585-.227-.855-.731a9.2 9.2 0 0 1-.432-2.39 39 39 0 0 1-.124-2.448v-3.654zM231.916 115.767c0-1.176.044-2.353 0-3.537 0-.431-.051-.862-.051-1.293v-4.575c0-.679 0-1.359-.059-2.031a14 14 0 0 1 0-2.595c.066-.54 1.104.125 1.199 1.104.176 1.75.234 3.511.175 5.269-.044 1.059.088 2.192.132 3.244a120 120 0 0 1 .066 3.596v2.192c0 1.118-.044 2.236-.074 3.347 0 .862.059 1.71.074 2.572q.021.282 0 .563a1.4 1.4 0 0 1-.212.731.73.73 0 0 1-.388.292 1 1 0 0 1-.212.08c-.204.052-.409-.255-.562-.774a13 13 0 0 1-.154-2.309v-5.905zM216.649 128.818l-3.442-.037c-.417 0-.833.044-1.257.037l-4.443-.095c-.658 0-1.316 0-1.966.051a10.7 10.7 0 0 1-2.521-.066c-.263-.051-.227-.351 0-.665a1.67 1.67 0 0 1 1.096-.731 23 23 0 0 1 2.536-.139c.855 0 1.702 0 2.565.066 1.03.066 2.097-.044 3.149-.073l3.471-.036h2.142c1.081 0 2.192 0 3.244-.044.833 0 1.652-.161 2.485-.234.183 0 .358-.051.548-.051.68 0 .899.102 1.03.584q.051.159.081.322c.058.365-.227.672-.731.731a27 27 0 0 1-4.524.343h-3.456zM246.202 133.898l-3.142-1.944c-.387-.233-.782-.445-1.162-.686a209 209 0 0 1-3.975-2.639 68 68 0 0 0-1.776-1.161 15 15 0 0 1-2.192-1.586c-.417-.373.679-.665 1.541-.139 1.542.943 3.092 1.863 4.597 2.923.899.636 1.937 1.125 2.923 1.681 1.082.606 2.149 1.242 3.215 1.871l1.974 1.161c1.001.578 1.995 1.192 2.996 1.754.782.446 1.585.811 2.375 1.228.175.088.35.168.519.27.628.38.767.592.665 1.023 0 .095-.037.205-.066.293-.117.299-.519.365-1.009.153a40 40 0 0 1-4.304-2.265l-3.179-1.893zM234.336 133.381l-3.347-2.288q-.416-.286-.833-.541l-.212-.138s-.058-.052-.087-.052a.4.4 0 0 0-.095.052l-.3.175-.877.526c-.848.512-1.673 1.067-2.528 1.571l-9.018 5.35c-1.323.803-2.646 1.644-3.946 2.462a47 47 0 0 1-5.116 3.033c-.562.27-.614 0-.321-.504q.298-.512.679-.965a5.1 5.1 0 0 1 1.155-1.074c1.673-1.147 3.332-2.302 5.05-3.384a125 125 0 0 1 5.239-3.105c2.119-1.199 4.217-2.638 6.336-3.961l1.747-1.082.869-.54.665-.41.358-.197.088-.051.088.044.19.095c.241.124.489.241.73.38l.49.292c.307.183.592.38.884.563.585.372 1.155.73 1.732 1.14l4.187 2.872 6.292 4.384c1.63 1.126 3.289 2.134 4.918 3.23.359.249.731.475 1.075.731.474.34.899.743 1.264 1.198.186.269.269.596.234.921q.012.179 0 .358c-.044.154-.234.161-.563.11a3.7 3.7 0 0 1-1.25-.519c-2.923-1.79-5.955-3.888-8.981-5.978-2.243-1.549-4.494-3.135-6.759-4.662zM257.777 173.922h-9.172c-1.11 0-2.192.087-3.339.095l-11.795.08c-1.746 0-3.5.073-5.225.131a49 49 0 0 1-6.708 0c-.731-.065-.585-.445 0-.818a6.4 6.4 0 0 1 2.923-.782c4.509-.161 9.039-.351 13.621-.278 2.733 0 5.583-.168 8.375-.248l9.237-.219 5.693-.11 8.601-.175c2.192-.073 4.384-.256 6.577-.351.489 0 .964-.066 1.461-.073a5.8 5.8 0 0 1 1.929.19 1.326 1.326 0 0 1 .826.65q.138.197.234.417c.146.453-.606.818-1.907.95-3.873.292-7.98.387-12.109.438l-9.237.117zM118.55 258.625h-9.391c-1.14 0-2.28.088-3.42.088l-12.087.037c-1.783 0-3.58.065-5.356.131-2.29.165-4.588.165-6.877 0-.73-.073-.592-.504 0-.921a5.97 5.97 0 0 1 2.99-.898c4.618-.169 9.265-.366 13.957-.256 2.799.051 5.714-.168 8.579-.241l9.5-.205 5.846-.102c2.923-.059 5.897-.073 8.821-.168 2.265-.073 4.494-.285 6.752-.395.497 0 .986-.073 1.461-.08a5.5 5.5 0 0 1 1.981.204 1.4 1.4 0 0 1 .847.731q.137.224.234.468c.146.526-.628.942-1.958 1.096-3.961.343-8.163.438-12.423.489l-9.464.095zM259.479 181.522a259 259 0 0 0-4.743-.11c-.577 0-1.154.051-1.731.037-2.032-.037-4.071-.095-6.11-.095-.906 0-1.812 0-2.711.073a16.7 16.7 0 0 1-3.478 0c-.366-.059-.307-.446 0-.84.177-.241.401-.443.658-.594.258-.15.544-.247.84-.283a92 92 0 0 1 3.507-.234c1.177-.051 2.361 0 3.552.066 1.425.095 2.923-.066 4.348-.088h7.717c1.462 0 2.989.036 4.472 0 1.155 0 2.288-.161 3.442-.205q.384-.021.768 0c.964.081 1.264.293 1.395.841q.056.182.081.372c.036.417-.388.731-1.045.826a41 41 0 0 1-6.205.329c-1.585 0-3.178-.044-4.771-.051zM126.319 271.197a203 203 0 0 0-4.743-.109c-.577 0-1.154.043-1.732.036-2.031-.036-4.07-.095-6.109-.102-.906 0-1.812 0-2.711.08a17.3 17.3 0 0 1-3.478 0c-.366-.058-.307-.446 0-.848a2.2 2.2 0 0 1 1.461-.869 70 70 0 0 1 3.508-.234c1.176-.044 2.36 0 3.551.066 1.425.087 2.923-.066 4.348-.088h7.717c1.462 0 2.989.037 4.473 0 1.154 0 2.287-.153 3.442-.197q.365-.02.73 0c.965.08 1.272.292 1.396.84q.056.187.08.38c.037.409-.387.731-1.045.819-2.056.265-4.13.377-6.204.336-1.586 0-3.179-.051-4.772-.051zM292.152 104.304a366 366 0 0 0-5.751-.117c-.694 0-1.396.051-2.097.036-2.463-.036-4.933-.102-7.396-.109-1.096 0-2.192 0-3.281.08a25 25 0 0 1-4.209 0c-.438-.051-.373-.446 0-.84a2.84 2.84 0 0 1 1.82-.877c1.417-.103 2.842-.19 4.267-.234s2.858 0 4.297.066c1.718.095 3.508-.059 5.262-.081h9.376c1.805 0 3.653.044 5.414 0 1.389 0 2.763-.161 4.159-.212.306 0 .606-.036.92 0 1.155.066 1.542.3 1.71.848q.07.182.11.373c.051.416-.453.73-1.242.811-2.51.271-5.033.388-7.556.351l-5.781-.044z"/><path fill="#12111f" d="M291.64 108.621c.665.043 1.337.051 2.017.043.248 0 .497-.065.731-.065h2.674q.594-.007 1.184-.081a3.55 3.55 0 0 1 1.542 0c.161.044.131.402 0 .768-.132.365-.351.73-.621.73a11.6 11.6 0 0 1-2.996.161 12 12 0 0 0-1.878.146c-.695.044-1.404.066-2.105.081h-1.308c-.665 0-1.33-.073-2.002-.088-.519 0-1.045.044-1.593 0a2 2 0 0 1-.366 0c-.446-.08-.526-.321-.438-.826 0-.109 0-.219.058-.321a1.01 1.01 0 0 1 .658-.731 12 12 0 0 1 2.463 0c.635 0 1.286.08 1.958.073zM119.675 152.429c.665.044 1.345.051 2.025.044.248 0 .489-.066.73-.066h2.675q.598-.007 1.191-.08a3.5 3.5 0 0 1 1.535 0c.161.044.139.402 0 .767-.139.366-.351.731-.621.731-.986.182-1.99.238-2.989.168a11 11 0 0 0-1.886.139c-.73.044-1.395.066-2.104.08h-1.308c-.665 0-1.33-.073-1.995-.087-.519 0-1.053.051-1.593 0a2 2 0 0 1-.366 0c-.453-.081-.533-.322-.445-.826 0-.11 0-.219.058-.322a1.03 1.03 0 0 1 .658-.73 12 12 0 0 1 2.462 0c.643 0 1.294.08 1.959.073z" opacity=".4"/><path fill="#12111f" d="M113.18 118.627c-3.573-3.245-8.221 3.946-3.866 5.729 4.582 1.878 7.564-6.16 2.025-5.963"/><path fill="#12111f" d="M112.385 125.576a4.5 4.5 0 0 1-2.375.153 4.9 4.9 0 0 1-2.076-.964 3.5 3.5 0 0 1-1.11-1.411 4 4 0 0 1 .08-2.923 5.4 5.4 0 0 1 1.52-2.148 4.9 4.9 0 0 1 2.083-1.148 3.2 3.2 0 0 1 1.615 0c.513.143.967.448 1.293.87.205.256-.139.511-.57.731-.368.194-.77.318-1.184.365a1.98 1.98 0 0 0-1.403.278 4.9 4.9 0 0 0-1.41 1.322 2.05 2.05 0 0 0-.358 1.133c-.009.352.088.698.277.994a2.569 2.569 0 0 0 2.288 1.008 2.68 2.68 0 0 0 1.549-.73 3.16 3.16 0 0 0 1.089-2.434 1.33 1.33 0 0 0-.358-.818 1.5 1.5 0 0 0-.731-.358l-.373-.059c-.489-.095-.672-.168-.818-.782 0-.131-.081-.255-.102-.365a.808.808 0 0 1 .84-.914 3.3 3.3 0 0 1 1.571.19c.596.237 1.106.65 1.462 1.184.346.533.546 1.148.577 1.783a4.7 4.7 0 0 1-.219 1.674 5.34 5.34 0 0 1-1.184 2.039 5.05 5.05 0 0 1-1.988 1.352zM130.543 118.627c-3.573-3.245-8.221 3.946-3.865 5.729 4.582 1.878 7.563-6.16 2.024-5.963"/><path fill="#12111f" d="M129.754 125.576a4.5 4.5 0 0 1-2.382.153 4.9 4.9 0 0 1-2.076-.964 3.4 3.4 0 0 1-1.067-1.411 4 4 0 0 1 .073-2.923 5.4 5.4 0 0 1 1.52-2.148 4.94 4.94 0 0 1 2.083-1.148 3.2 3.2 0 0 1 1.615 0c.514.143.968.448 1.294.87.204.256-.139.511-.57.731-.369.194-.77.318-1.184.365a1.98 1.98 0 0 0-1.403.278 4.8 4.8 0 0 0-1.403 1.322 2 2 0 0 0-.366 1.133c-.009.352.088.698.278.994a2.58 2.58 0 0 0 2.294 1.008 2.7 2.7 0 0 0 1.542-.73 3.16 3.16 0 0 0 1.089-2.434 1.25 1.25 0 0 0-.358-.818 1.5 1.5 0 0 0-.694-.358l-.373-.059c-.482-.095-.672-.168-.818-.782 0-.131-.081-.255-.103-.365a.81.81 0 0 1 .496-.853.8.8 0 0 1 .345-.061 3.3 3.3 0 0 1 1.571.19c.596.237 1.106.65 1.462 1.184.346.533.545 1.148.577 1.783a4.7 4.7 0 0 1-.219 1.674 5.34 5.34 0 0 1-1.184 2.039 5.05 5.05 0 0 1-1.988 1.352zM73.581 148.595a40 40 0 0 1 1.754-1.462q.96-.718 1.995-1.322a64 64 0 0 1 3.924-2.12c2.616-1.337 5.233-2.587 7.761-3.924a39 39 0 0 0 2.66-1.564c.79-.48 1.526-1.046 2.192-1.688.154-.197.176-.204.198-.314s0-.278 0-.402a4 4 0 0 0 0-.431 1.8 1.8 0 0 0-.27-.731 3 3 0 0 0-1.514-1.038 13.3 13.3 0 0 0-4.8-.489c-1.71.095-3.406.34-5.072.731q-1.25.302-2.463.73c-.394.139-.79.293-1.154.453l-.52.264-.57.328c-2.922 1.681-5.89 3.26-8.915 4.641-1.95.891-3.924 1.732-5.934 2.462a45.4 45.4 0 0 1-6.19 1.703c-1.307.263-1.263-.299-.35-1.14a17.4 17.4 0 0 1 4.889-2.923 101.5 101.5 0 0 0 14.425-6.621l1.462-.804q.83-.43 1.717-.73a29.5 29.5 0 0 1 6.694-1.396 22.7 22.7 0 0 1 6.577.168 9 9 0 0 1 1.732.57 5.4 5.4 0 0 1 1.659 1.125 4.3 4.3 0 0 1 1.081 1.871l.117.519.044.519q.027.248 0 .497v.555q-.073.375-.212.731-.147.332-.365.621-.17.24-.373.453a4 4 0 0 1-.38.38q-.724.664-1.542 1.206a75 75 0 0 1-7.805 4.348c-2.608 1.33-5.261 2.602-7.673 4.07-.372.234-.73.468-1.06.731-.328.263-.657.526-.993.811q-1.021.853-1.944 1.761a12.5 12.5 0 0 0-1.63 1.93 24 24 0 0 1-1.63 2.258 34 34 0 0 1-2.922 3.025 21.5 21.5 0 0 1-3.464 2.514A35.4 35.4 0 0 1 57 164.759a45 45 0 0 1-12.635 1.988c-.935 0-1.864 0-2.814-.058a14.6 14.6 0 0 1-3.653-.651 2.73 2.73 0 0 1-1.462-1.052 3.5 3.5 0 0 1-.387-.555c-.22-.534 1.257-.855 3.654-.687 3.66.223 7.333.066 10.961-.468a36.7 36.7 0 0 0 10.553-3.237 25 25 0 0 0 3.493-2.068c.263-.198.533-.388.789-.592.256-.205.482-.395.73-.636.52-.482 1.031-.965 1.513-1.462a19 19 0 0 0 1.338-1.498c.409-.504.73-1.023 1.198-1.68q.694-1.036 1.55-1.944a26 26 0 0 1 1.695-1.645z"/><path fill="#12111f" d="M46.125 111.141a28.3 28.3 0 0 1 5.934-4.275 17 17 0 0 1 3.544-1.389 15.8 15.8 0 0 1 3.785-.497 32 32 0 0 1 7.177.826c2.309.504 4.501 1.038 6.76 1.586 3.266.804 6.576 1.578 9.784 2.528 2.858.841 5.7 1.747 8.514 2.814a51 51 0 0 1 4.172 1.761 20 20 0 0 1 4.041 2.441q.512.415.936.921c.339.388.602.837.774 1.322.201.568.217 1.185.044 1.761-.173.517-.454.99-.825 1.389a5.9 5.9 0 0 1-2.295 1.425c-.764.276-1.555.472-2.36.585a17.2 17.2 0 0 1-4.692.073 79 79 0 0 1-4.443-.643 26 26 0 0 1-4.553-1.184 26 26 0 0 1-2.148-.958l-1.93-.979a.67.67 0 0 0-.423 0l-.811.081a66 66 0 0 1-1.689.153c-1.125.08-2.25.132-3.383.132a40 40 0 0 1-5.758-.439c-.483-.058-.958-.146-1.462-.234-.504-.087-.95-.175-1.418-.292s-.942-.219-1.41-.358l-.73-.212-.344-.11-.176-.051s-.044 0-.05-.044a.73.73 0 0 0-.417.117c-.293.146-.614.336-.936.519-.643.358-1.315.731-2.01 1.03a13.7 13.7 0 0 1-4.442 1.192 4 4 0 0 1-1.199 0c-.248-.052-.358-.117-.343-.198.014-.08.548-.358 1.366-.73a18.3 18.3 0 0 0 3.091-1.645c.6-.394 1.235-.833 1.908-1.33l1.103-.782.35-.219q.292-.18.615-.299a.8.8 0 0 1 .329-.095q.166-.034.336-.044c.117 0 .226.051.343 0h.336v.058-.058h.088l.402.109.256.066.519.132c.343.087.73.16 1.045.219l1.045.241 1.052.19c1.404.245 2.822.406 4.246.482q2.141.116 4.282 0c.73-.044 1.461-.095 2.192-.168l1.111-.109h.3q.248-.029.497 0 .272.001.54.058h.198l.255.095 1.462.731c.424.219.84.431 1.25.621q1.186.57 2.44.965c1.766.499 3.566.865 5.386 1.096l1.41.19c.446.051.994.131 1.345.161.872.052 1.747.035 2.616-.052a11 11 0 0 0 2.463-.518q.503-.184.957-.468c.227-.19.46-.373.52-.548a.38.38 0 0 0 .058-.38 2.6 2.6 0 0 0-.578-.789 11.1 11.1 0 0 0-2.28-1.594 40 40 0 0 0-5.597-2.448c-3.91-1.417-7.973-2.55-12.014-3.653a257 257 0 0 0-6.701-1.689c-2.244-.54-4.502-1.088-6.716-1.527a26.4 26.4 0 0 0-6.577-.563 13.7 13.7 0 0 0-5.978 2.039 32 32 0 0 0-6.387 5.218 51.5 51.5 0 0 0-5.334 6.475c-4.977 6.971-9.544 14.359-14.25 21.521-3.654 5.576-7.17 11.107-11.408 16.267l-1.461 1.659c-.497.533-.987 1.081-1.52 1.607a21.5 21.5 0 0 1-4.64 3.654c-.293.154-.541.3-.79.409-.248.11-.475.176-.687.241a3.1 3.1 0 0 1-1.089.19 5 5 0 0 1-.833 0c-.3-.065 0-.394.811-.898a32 32 0 0 0 3.296-2.814 61 61 0 0 0 5.605-6.672c1.805-2.346 3.537-4.808 5.247-7.307 3.442-4.999 6.789-10.231 10.15-15.449 2.5-3.888 5.014-7.79 7.637-11.692 1.323-1.937 2.682-3.859 4.166-5.737a41 41 0 0 1 2.367-2.769 46 46 0 0 1 2.558-2.522z"/><path fill="#12111f" d="M89.533 124.961a2.704 2.704 0 0 0-2.295 2.923c.22 1.995 3.01 3.457 4.787 3.654 4.633.614 9.2-5.846-2.492-6.577"/><path fill="#12111f" d="M97.653 130.236a4.94 4.94 0 0 1-1.937 1.673c-.71.36-1.48.583-2.272.658a5.8 5.8 0 0 1-1.733 0 8 8 0 0 1-2.623-1.133 6.3 6.3 0 0 1-2.024-2.046 3.32 3.32 0 0 1-.35-2.704c.178-.554.489-1.055.905-1.462a2.4 2.4 0 0 1 1.63-.694c.402 0 .292.373.124.731q-.19.565-.46 1.096c-.19.235-.322.51-.388.804a2 2 0 0 0-.044.402q-.027.172 0 .343c.19.674.59 1.27 1.14 1.703a5.04 5.04 0 0 0 2.836 1.133 4.3 4.3 0 0 0 3.07-.979 1.72 1.72 0 0 0 .73-1.506c-.139-.789-1.184-1.498-2.258-1.798a9.3 9.3 0 0 0-2.667-.255h-.592a1.3 1.3 0 0 1-.731-.234 1.3 1.3 0 0 1-.307-.731c0-.139-.066-.27-.08-.402a.73.73 0 0 1 .204-.599c.184-.223.445-.369.73-.409a7.5 7.5 0 0 1 2.785.065 8.6 8.6 0 0 1 2.923 1.104 4.47 4.47 0 0 1 1.886 2.126c.21.529.28 1.103.204 1.667a3.75 3.75 0 0 1-.533 1.461zM119.845 146.154l-5.488-.132h-2.002c-2.353-.073-4.706-.153-7.059-.19-1.045 0-2.09 0-3.128.037a27 27 0 0 1-4.004-.037c-.424-.051-.366-.373 0-.731.484-.43 1.099-.687 1.746-.731 1.352-.095 2.711-.182 4.07-.226s2.719 0 4.093.073c1.644.088 3.347-.051 5.02-.073h8.937c1.725 0 3.45.036 5.16 0 1.322-.037 2.63-.197 3.953-.285.285 0 .577-.059.877-.059 1.089-.036 1.498.205 1.652.797q.07.2.102.409c.036.446-.417.811-1.155.906a57 57 0 0 1-7.227.344zM119.847 186.99a552 552 0 0 1-7.637 6.424c-.942.774-1.849 1.6-2.828 2.345a42 42 0 0 1-2.404 1.71c-.431.278-.84.534-1.374.812a2.44 2.44 0 0 1-2.192.292l-.636-.344c-.212-.131-.329-.226-.46-.314a7 7 0 0 1-.731-.562 38 38 0 0 1-1.396-1.162c-.899-.782-1.776-1.586-2.645-2.383l-4.275-3.807c-.892-.818-1.798-1.622-2.668-2.463a24.5 24.5 0 0 1-2.433-2.711c-.468-.614-.088-.826.73-.731a6.6 6.6 0 0 1 3.128 1.33c1.842 1.615 3.742 3.165 5.503 4.86a144 144 0 0 0 5.357 4.925c.233.198.475.41.73.578l.315.234.124.095a.25.25 0 0 0 .256 0 1.8 1.8 0 0 0 .387-.198q.715-.428 1.381-.928c.921-.679 1.834-1.461 2.748-2.192 2.579-2.068 5.115-4.224 7.629-6.409l2.324-2.024 1.169-1.016.731-.628c.258-.253.567-.447.906-.57a.55.55 0 0 1 .373-.066q.189.052.372.124.388.144.731.373c.563.336.789.504 1.14.73l1.929 1.345 3.815 2.689c1.98 1.367 3.997 2.587 5.985 3.91.431.292.877.555 1.308.862a6.8 6.8 0 0 1 1.571 1.381 1.7 1.7 0 0 1 .256 1.184 3.4 3.4 0 0 1-.044.512c-.073.241-.321.307-.731.292a3.46 3.46 0 0 1-1.607-.548c-3.654-2.127-7.308-4.699-10.962-7.264l-2.083-1.33-1.008-.731-.497-.336-.095-.066h-.036l-.227.198-1.929 1.666zM212.654 254.608l-.043-8.338c0-1.008-.088-2.017-.095-3.032v-10.692c0-1.585-.074-3.178-.139-4.75-.044-1.008-.117-2.016-.139-3.032a22.5 22.5 0 0 1 .153-3.048c.073-.628.475-.54.921 0a5.34 5.34 0 0 1 1.067 2.646c.227 4.099.373 8.214.27 12.372-.073 2.484.125 5.064.19 7.607l.154 8.382.088 5.166c.051 2.602.08 5.226.175 7.812.073 2.01.285 3.976.402 5.971 0 .446.073.877.08 1.323a4.4 4.4 0 0 1-.161 1.775c-.111.318-.341.58-.643.731a2.7 2.7 0 0 1-.402.219c-.445.132-.825-.548-1.015-1.717-.41-3.508-.621-7.242-.731-10.962-.059-2.791-.11-5.59-.168-8.389zM247.729 276.172h-7.608c-.928 0-1.848.08-2.776.087l-9.793.052c-1.461 0-2.923.095-4.341.182-1.845.19-3.703.22-5.553.088-.585-.058-.519-.497-.044-.965a4.2 4.2 0 0 1 2.397-1.118c.935-.109 1.878-.16 2.82-.204l2.829-.11a93 93 0 0 1 5.692 0c2.28.08 4.641-.117 6.972-.161 2.557-.044 5.115-.065 7.687-.08h11.89c1.842 0 3.654-.168 5.495-.205h1.214c1.52.051 2.009.249 2.265.899q.1.199.168.409c.102.41-.548.848-1.622.877-3.201.212-6.577.263-10.026.285l-7.659.051zM344.124 164.151a99 99 0 0 1-7.527-16.194c-.731-2.061-1.418-4.099-2.002-6.167-2.083-7.308-3.588-14.704-6.058-21.763a67 67 0 0 0-3.888-9.091 16 16 0 0 0-1.739-2.462 14.4 14.4 0 0 0-2.192-2.003 23.7 23.7 0 0 0-5.437-2.828c-1.221-.482-.936-.862.292-.993a9.6 9.6 0 0 1 2.485.131 10 10 0 0 1 3.383 1.22 14.6 14.6 0 0 1 5.079 5.116c.329.504.592 1.023.877 1.549l.731 1.505c.496 1.002.913 2.032 1.366 3.055a88 88 0 0 1 3.975 12.657 302 302 0 0 0 4.283 15.492 82 82 0 0 0 2.923 8.258c1.096 2.704 2.389 5.335 3.734 7.943 1.703 3.179 3.5 6.329 5.503 9.332a100 100 0 0 0 10.004 12.986c1.403 1.571 2.923 2.982 4.458 4.385a50 50 0 0 0 4.837 3.887l1.089.804c.373.249.731.483 1.14.731.731.46 1.279.862 1.747 1.22.467.359.884.592 1.191.841.478.335.86.788 1.111 1.315q.149.282.248.585c.11.541-1.323.212-3.654-.921a51.6 51.6 0 0 1-9.5-6.957 89 89 0 0 1-8.243-8.769 117.5 117.5 0 0 1-10.231-14.827zM312.131 163.825a16 16 0 0 0-5.445-4.239 26.9 26.9 0 0 0-6.92-2.119c-1.805-.336-3.654-.563-5.561-1.016a25.6 25.6 0 0 1-4.926-1.637 11.1 11.1 0 0 1-4.384-3.383 6.6 6.6 0 0 1-.731-1.272 4.2 4.2 0 0 1-.453-1.556 3.24 3.24 0 0 1 .373-1.856 3.8 3.8 0 0 1 1.198-1.279 7.6 7.6 0 0 1 2.653-1.075q1.277-.286 2.579-.394a63 63 0 0 1 8.923 0c1.878.139 3.749.307 5.62.584.928.147 1.863.293 2.784.527.46.117.921.241 1.374.38.453.138.891.394 1.352.57.57.226.818.518.731.687-.088.168-.468.277-.994.416a11.65 11.65 0 0 1-5.006.526 98 98 0 0 0-5.532-.548c-1.878-.131-3.654-.307-5.51-.343a29 29 0 0 0-5.298.277 6.6 6.6 0 0 0-2.061.658 1.2 1.2 0 0 0-.402.329c-.066.073-.102.219-.066.49.098.4.253.784.461 1.14l.387.57c.146.182.329.343.49.518a8.8 8.8 0 0 0 2.587 1.645 30.7 30.7 0 0 0 6.482 1.768l3.785.687q1.968.363 3.88.95a21.4 21.4 0 0 1 7.184 3.712 19.1 19.1 0 0 1 3.42 3.654c.248.329.46.687.694 1.031.11.168.227.358.336.562l.285.541c.366.731.731 1.41 1.089 2.09a33.2 33.2 0 0 0 8.769 10.815 25 25 0 0 0 9.544 4.385c.731.197 1.506.278 2.266.431.76.154 1.3.212 1.805.292q.62.103 1.227.271.426.098.819.292.298.185.548.431c.146.139.336.263.424.366s-.088.329-.651.577a6.8 6.8 0 0 1-2.609.373 24.2 24.2 0 0 1-10.267-2.361 28.9 28.9 0 0 1-8.725-6.577 38 38 0 0 1-4.772-6.533c-.68-1.154-1.301-2.353-1.886-3.485a14 14 0 0 0-1.936-2.858zM350.291 207.919a182 182 0 0 1-3.142-4.385c-.38-.533-.789-1.03-1.154-1.571-1.279-1.9-2.485-3.844-3.735-5.744-.555-.847-1.176-1.651-1.79-2.44a25.5 25.5 0 0 1-2.309-3.077c-.395-.731 1.585-1.016 2.579.132a50.4 50.4 0 0 1 4.619 6.474c.811 1.374 1.856 2.653 2.791 3.968 1.031 1.462 2.061 2.923 3.135 4.297.665.87 1.33 1.732 2.032 2.558a41 41 0 0 0 3.347 3.654c.475.416.972.796 1.461 1.176s1.038.731 1.542 1.053c.219.153.453.292.68.438.84.563 1.008.877.848 1.52-.044.139-.066.3-.117.431-.183.453-.731.526-1.462.176a20.7 20.7 0 0 1-5.788-4.443c-1.271-1.33-2.448-2.741-3.573-4.166zM30.004 178.949a156 156 0 0 1 4.209-4.552c.519-.548 1.001-1.133 1.542-1.659a57 57 0 0 1 6.124-5.21 46 46 0 0 1 2.967-2.061l1.023-.599c.358-.169.73-.366 1.089-.505a6 6 0 0 1 1.198-.336c.205-.036.416-.066.621-.088s.431 0 .65 0c.541.052.395.614.052 1.184a6 6 0 0 1-.621.826q-.17.191-.38.336a1.8 1.8 0 0 1-.454.256 18 18 0 0 0-3.58 1.98c-1.192.804-2.368 1.696-3.567 2.595a36 36 0 0 0-3.96 3.836 128 128 0 0 0-4.158 4.502c-.834.942-1.66 1.9-2.463 2.872-1.213 1.461-2.448 2.959-3.559 4.501-.877 1.191-1.578 2.47-2.39 3.698-.182.27-.336.548-.526.811-.73.986-1.103 1.198-1.76 1.001a2.6 2.6 0 0 1-.447-.139c-.445-.226-.46-.84-.065-1.622a41.4 41.4 0 0 1 4.465-6.855c1.256-1.644 2.594-3.244 3.939-4.837z"/><path fill="#12111f" d="M312.111 181.412v-2.835c0-.343-.073-.68-.066-1.03 0-1.221.102-2.448.124-3.654 0-.548 0-1.096-.036-1.63a6.1 6.1 0 0 1 .065-2.09c.059-.219.446-.19.841 0s.818.497.877.877c.109.68.197 1.367.255 2.054.043.701.023 1.406-.058 2.104q-.022 1.297.11 2.587l.051 2.857v1.769c0 .891 0 1.79.065 2.682 0 .687.205 1.374.198 2.082v.475a1.07 1.07 0 0 1-.219.636.8.8 0 0 1-.244.152.8.8 0 0 1-.283.046 3 3 0 0 1-.321 0 .86.86 0 0 1-.731-.658 13 13 0 0 1-.636-3.581c-.044-.935-.051-1.878-.087-2.821zM316.764 117.997l-.533 6.3c-.066.73-.073 1.534-.139 2.294-.227 2.704-.482 5.401-.687 8.104a84 84 0 0 0-.175 3.596 24 24 0 0 1-.315 4.574c-.087.475-.402.41-.73 0a3.64 3.64 0 0 1-.833-2.068c0-1.564.043-3.135.116-4.699.074-1.563.256-3.135.446-4.706.241-1.878.249-3.844.38-5.773.146-2.119.315-4.238.49-6.357l.321-3.91c.147-1.973.337-3.954.446-5.919.088-1.52.073-3.026.124-4.546 0-.336 0-.665.037-1.001.066-1.257.329-1.659.84-1.841a2 2 0 0 1 .337-.125c.175-.036.314.088.445.329.16.324.233.684.212 1.045.059 2.675-.08 5.518-.263 8.353-.153 2.112-.3 4.238-.453 6.35z"/><path fill="#12111f" d="M313.565 180.184c.037-.643 0-1.286 0-1.944 0-.241-.073-.475-.08-.731 0-.862-.051-1.732-.102-2.601a10 10 0 0 0-.154-1.14 3.8 3.8 0 0 1-.102-1.462c0-.153.307-.168.606-.08a1.037 1.037 0 0 1 .731.548c.262.952.397 1.935.402 2.923q.08.92.285 1.819.153 1.025.183 2.061v1.279c0 .643-.037 1.279 0 1.915q.073.737.234 1.461.036.16.051.322c0 .402-.11.519-.651.577a3 3 0 0 1-.372 0 .81.81 0 0 1-.855-.446 7.1 7.1 0 0 1-.285-2.609c0-.65.051-1.3 0-1.943zM232.879 102.892v21.843l21.273 12.971c2.112-6.007 6.145-22.471-9.844-31.204 0 0-7.147-4.457-11.429-3.61M265.924 204.404l-15.763.08-5.751.081-20.272.044c-2.996 0-6.006.058-8.981.109-3.822.059-7.665.176-11.487.044-2.375-.08.643-1.286 5.035-1.366 7.797-.132 15.594-.249 23.465-.212 4.706 0 9.602-.154 14.41-.227l15.88-.226 9.77-.132c4.933-.08 9.888-.139 14.784-.27 3.807-.103 7.534-.307 11.298-.468l2.47-.11c3.098-.095 4.092 0 4.764.526q.239.152.439.351c.292.395-.958.731-3.223.863-6.709.438-13.804.613-20.922.73l-15.909.22zM132.876 218.178l-13.555.125c-1.652 0-3.304.102-4.948.102H96.937c-2.58 0-5.174.044-7.731.102-3.289.037-6.577.11-9.88-.073-1.023-.058-.885-.358 0-.672a15.2 15.2 0 0 1 4.384-.731c6.694-.256 13.395-.351 20.162-.336 4.049 0 8.258-.19 12.423-.292l13.651-.256 8.404-.168c4.238-.095 8.499-.176 12.708-.322 3.274-.124 6.474-.372 9.712-.548.731-.036 1.41-.095 2.134-.124a17 17 0 0 1 2.835.066c.481.046.93.257 1.272.599q.21.18.365.409c.226.475-.819.819-2.755.994-5.759.497-11.86.731-17.977.914l-13.68.263zM171.563 173.322l.19-13.095v-4.779l.307-16.808c.044-2.485.044-4.991 0-7.461 0-3.172 0-6.365.271-9.537.073-.994.219-.862.431 0 .35 1.376.58 2.779.687 4.195.19 3.244.182 6.482.175 9.734a290 290 0 0 1-.168 9.77c-.132 3.91-.059 7.98-.088 11.977q-.072 6.577-.139 13.198l-.036 8.068c0 4.099-.088 8.214-.066 12.284 0 3.164.132 6.263.197 9.39 0 .687 0 1.36.059 2.054 0 2.572-.081 3.391-.548 3.946q-.13.195-.293.365c-.299.242-.657-.803-.73-2.689-.3-5.583-.344-11.48-.351-17.392 0-4.385.044-8.806.066-13.212zM353.815 196.686a20 20 0 0 0 2.426-2.155c.27-.293.475-.644.731-.943a22.5 22.5 0 0 0 2.535-3.464c.3-.559.545-1.147.731-1.754.124-.394.219-.789.344-1.176.093-.401.256-.782.482-1.126.146-.226.731-.044 1.198.322.468.365.907.95.775 1.461a13.7 13.7 0 0 1-2.492 4.86q-.514.651-.957 1.352-.436.716-.958 1.374a21 21 0 0 1-2.535 2.645c-.585.475-1.155.965-1.783 1.389l-.731.489-.731.439c-.475.314-1.001.54-1.461.833q-1.157.676-2.397 1.176a3 3 0 0 1-.556.198c-.731.131-1.001 0-1.227-.549a2.4 2.4 0 0 1-.147-.379 1 1 0 0 1 .505-1.111 48 48 0 0 1 3.588-2.105 20.4 20.4 0 0 0 2.587-1.805z"/><path fill="#12111f" d="M363.141 205.264a6 6 0 0 1-.643-.555l-.402-.388c-.219-.241-.46-.482-.672-.73-.439-.49-.841-.987-1.235-1.462l-1.118-1.462q-.495-.643-1.06-1.227a7.6 7.6 0 0 0-1.06-.936l-.146-.087v-.154c.044-.131.088-.226.117-.351l.073-.314v-.248c0-.315-.124-.322.044-.198.122.08.259.134.402.161q.359.103.731.132h.051v.131q.01.144.037.285.058.344.153.731l.051.19.051.132q.04.148.11.285.15.375.343.73c.731 1.462 1.805 2.887 2.712 4.385.643 1.125 2.755 4.268 2.63 5.846a3.1 3.1 0 0 1-.153 1.25 2.33 2.33 0 0 1-.731 1.162 2 2 0 0 1-1.242.409 3.8 3.8 0 0 1-1.264-.205 9.4 9.4 0 0 1-2.865-1.732c-.241-.19-.482-.387-.731-.592l-.351-.306-.175-.154-.117-.11-.796-.884c-1.126-1.118-2.193-2.265-3.267-3.413l-1.41-1.52-.344-.358-.168-.168-.073-.073.102-.139c.037-.043.081-.109.11-.138a.3.3 0 0 0 .088 0 .6.6 0 0 0 .153-.11.45.45 0 0 0 .146-.307v-.124c.219 2.082.059.577.11 1.038a.3.3 0 0 1-.044-.103.5.5 0 0 0-.051-.146c-.146-.226-.117-.095.066-.066 0 0 .153.051.219.051v.088q.027.16.08.314.148.402.358.775.467.84 1.038 1.615c2.01 2.726 4.516 5.196 6.628 7.921.65.834.292 1.104-.826.929a9 9 0 0 1-2.068-.68 8.7 8.7 0 0 1-2.309-1.681 34.6 34.6 0 0 1-3.654-4.246 19 19 0 0 1-1.6-2.535 6.8 6.8 0 0 1-.651-1.798 5 5 0 0 1-.073-.731c0-.161 0-.321.051-.489.052-.169 0-.154.044-.242.044-.087.066-.197.103-.299q.119-.305.299-.577.219-.278.483-.512.236-.194.511-.329a2.4 2.4 0 0 1 .49-.19l.424-.088h.219q.238-.027.475 0c.323.059.628.192.891.388l.081.065c.204.183.27.264.372.359l.49.518.921 1.002 1.805 1.958a64 64 0 0 0 1.827 1.893l.869.855q.094.141.205.27c.22.282.506.505.833.65a.38.38 0 0 0 .27 0 .301.301 0 0 0 .154-.189.66.66 0 0 0-.037-.497 6 6 0 0 0-.241-.475l-.139-.234-.197-.315-1.644-2.623c-.643-1.052-1.294-2.097-1.893-3.274a8.5 8.5 0 0 1-.731-2.017 7.5 7.5 0 0 1-.19-1.096 4.4 4.4 0 0 1 0-.687 2.34 2.34 0 0 1 .307-1.03 1.73 1.73 0 0 1 1.067-.819q.197-.052.402-.058c.347-.015.693.052 1.009.197.381.168.74.384 1.066.643q.787.635 1.462 1.389c.446.475.877.986 1.257 1.461s.731.943 1.118 1.396.935 1.089 1.462 1.586l.321.314q.093.097.197.183.2.192.432.343c.299.237.679.347 1.059.307a1.1 1.1 0 0 0 .504-.27.73.73 0 0 0 .19-.519 3.44 3.44 0 0 0-.73-1.586 31 31 0 0 0-2.098-2.521l-1.147-1.257a16 16 0 0 1-.599-.694 7 7 0 0 1-.541-.804 16 16 0 0 1-.855-1.6 11 11 0 0 1-.431-1.067 6.7 6.7 0 0 1-.3-1.133 3.9 3.9 0 0 1 0-1.673 1.97 1.97 0 0 1 .994-1.272 3.96 3.96 0 0 1 3.34.11q.817.387 1.564.898c.387.256.73.519 1.103.775.731.512 1.396 1.023 2.075 1.462q.843.568 1.762 1.001c.619.288 1.276.49 1.951.599.428.087.843.23 1.235.424.212.088.475.139.665.234.314.16.365.54-.044 1.125a2.6 2.6 0 0 1-1.096.84 4.1 4.1 0 0 1-1.93.373 7.7 7.7 0 0 1-2.82-.87 18 18 0 0 1-2.236-1.359c-.687-.475-1.323-.957-1.944-1.403l-.453-.321-.227-.154-.146-.095c-.117-.073-.073 0-.102-.044h-.037a.1.1 0 0 0-.043.014.1.1 0 0 0-.026.036.1.1 0 0 0-.001.045.1.1 0 0 0 .026.037l.073.139.227.46c.161.307.336.614.519.899l.204.307.307.351c.731.825 1.652 1.753 2.485 2.733l.628.73.307.395.154.205.087.109.132.183a9.9 9.9 0 0 1 1.578 3.025c.283.888.25 1.846-.095 2.712a3.6 3.6 0 0 1-.774 1.14c-.344.32-.736.584-1.162.782a4.08 4.08 0 0 1-2.697.248 7.2 7.2 0 0 1-2.842-1.542zM20.044 178.704a39.5 39.5 0 0 1-3.282-4.1c-.365-.511-.782-.994-1.11-1.527a57 57 0 0 1-3.15-5.846c-.424-.884-.884-1.754-1.279-2.653a16 16 0 0 1-.73-1.768 4.45 4.45 0 0 1-.249-2.098c.175-.665.585-.212 1.03.059.54.225.984.631 1.257 1.147.417 1.045.987 2.105 1.462 3.194s1.023 2.192 1.534 3.325c.7 1.333 1.52 2.6 2.449 3.785a44 44 0 0 0 3.069 3.895 25 25 0 0 0 2.14 2.192 13.6 13.6 0 0 0 3.742 2.47 7.67 7.67 0 0 0 3.852.351c.833-.044 1.132 0 1.52.424.087.088.19.168.255.248.212.249 0 .797-.774 1.25a6.07 6.07 0 0 1-3.873.533 9.6 9.6 0 0 1-3.654-1.344A21.3 21.3 0 0 1 20 178.77zM198.328 96.65l-34.068-.255h-12.423c-14.616-.11-29.231-.234-43.803-.27-6.481 0-12.993 0-19.423.116l-12.424.19c-4.136.037-8.272.088-12.422.044-2.58-.073-2.244-.373-.074-.818a69.4 69.4 0 0 1 10.962-1.096c16.88-.322 33.74-.351 50.745-.132 10.172.132 20.761 0 31.167.073l34.346.146 21.127.08c10.661 0 21.375.052 31.956 0 8.229-.065 16.289-.255 24.422-.43l5.35-.125c3.339-.066 5.546-.073 7.095 0a11.2 11.2 0 0 1 3.172.548q.483.148.95.344c.329.19-.19.372-1.403.57a46 46 0 0 1-5.569.467c-14.542.548-29.881.695-45.307.731l-34.39-.08z"/><path fill="#12111f" d="m198.593 290.759-32.416.248-11.824.117-41.654.073-18.474.081-11.81.051c-3.93 0-7.87 0-11.794-.168-2.455-.088-2.12-.431-.044-.782a65.6 65.6 0 0 1 10.414-.731h48.231c9.675 0 19.73-.168 29.64-.27l32.643-.366 20.096-.263c10.136-.16 20.33-.307 30.393-.562 7.819-.198 15.485-.512 23.216-.819l5.116-.204c6.357-.234 8.389-.161 9.77.321q.47.131.914.336c.628.388-1.959.804-6.621 1.053-13.819.73-28.405 1.096-43.05 1.395-10.874.205-21.799.351-32.702.505z" opacity=".4"/><path fill="#12111f" d="M42.382 252.246v-9.939l-.058-3.654v-12.781c0-1.885-.044-3.785-.102-5.663a48 48 0 0 1 .087-7.235c.08-.731.293-.658.614 0q.308.635.54 1.301c.197.609.317 1.24.359 1.878.292 4.918.278 9.829.139 14.798-.088 2.967.044 6.051.066 9.084l.044 10.011v6.16c0 3.114.036 6.241.116 9.325.066 2.397.227 4.75.351 7.118l.08 1.556c.074 1.951-.146 2.58-.526 3.004a2 2 0 0 1-.248.285c-.139.095-.27-.059-.41-.409a6.2 6.2 0 0 1-.38-1.615c-.416-4.239-.525-8.711-.628-13.198l-.131-10.026zM328.699 253.211l.204-9.412v-3.427l.315-12.109v-5.364a51 51 0 0 1 .226-6.855c.066-.731.314-.614.599 0q.27.605.453 1.243c.074.255.147.54.212.84 0 .146.066.3.095.453v.49c.125 2.331.095 4.662.059 6.993a208 208 0 0 1-.234 7.03c-.139 2.814-.066 5.737-.117 8.616l-.161 9.5c0 1.944-.065 3.895-.102 5.846-.037 2.923-.095 5.905-.08 8.835 0 2.273.124 4.502.197 6.752l.051 1.462c0 1.849-.088 2.433-.555 2.821q-.137.15-.307.263c-.329.168-.658-.592-.731-1.944-.292-4.027-.322-8.265-.314-12.518.036-3.157.066-6.329.095-9.5zM136.653 67.727c-.168 1.17-1.293 2.412-2.536 1.382-1.008-.834.183-2.997 1.382-2.924.979.03 1.286.768 1.154 1.542"/><path fill="#12111f" d="M96.907 80.669c-.168 1.169-1.293 2.411-2.536 1.38-1.008-.832.183-2.995 1.374-2.922.965.029 1.264.767 1.162 1.542" opacity=".6"/><path fill="#12111f" d="M289.384 311.009c-.161 1.177-1.294 2.419-2.536 1.389-1.009-.84.183-3.004 1.381-2.923a1.2 1.2 0 0 1 .954.484 1.21 1.21 0 0 1 .201 1.05"/><path fill="#12111f" d="M154.39 77.191c-.102.73-.818 1.528-1.6.877-.643-.526.11-1.9.87-1.863a.732.732 0 0 1 .73.986M241.373 308.136c-.11.73-.818 1.534-1.608.877-.643-.527.117-1.9.87-1.864a.77.77 0 0 1 .613.311.77.77 0 0 1 .125.676" opacity=".4"/><path fill="#12111f" d="M256.909 312.71c-.102.731-.819 1.535-1.608.877-.636-.526.117-1.9.877-1.864.607.03.797.497.731.987" opacity=".7"/><path fill="#12111f" d="M79.522 74.538c-.102.73-.818 1.534-1.608.877-.635-.527.117-1.893.877-1.864a.774.774 0 0 1 .731.987" opacity=".4"/><path fill="#12111f" d="M197.84 292.469q-15.937.24-31.869.336l-11.619.124q-20.461.05-40.974-.131l-18.167-.169-5.802-.058-5.803-.124a227 227 0 0 1-11.597-.504c-2.404-.161-2.06-.497 0-.782a42 42 0 0 1 4.231-.358c1.747-.059 3.8-.081 6.022-.044 15.748.38 31.503.489 47.405.643 9.5.08 19.401-.081 29.128-.183q16.033-.176 32.088-.431a4477 4477 0 0 0 19.731-.38c9.96-.227 19.979-.475 29.866-.833 7.688-.292 15.215-.731 22.808-1.147l4.991-.285c6.241-.359 8.236-.329 9.609.131q.465.123.907.314c.621.38-1.908.841-6.49 1.184-13.57 1.001-27.908 1.549-42.297 1.995a2931 2931 0 0 1-32.153.731zM207.828 114.058a35 35 0 0 1 3.829-4.297c.519-.468.994-.986 1.542-1.425a26.5 26.5 0 0 1 6.3-3.829c1.015-.402 2.024-.826 3.076-1.126a9 9 0 0 1 1.009-.277 7 7 0 0 1 1.023-.219l1.052-.088h1.052c.322 0 .373.358.044.731a3.96 3.96 0 0 1-1.637.964c-1.27.282-2.52.648-3.741 1.096a41 41 0 0 0-3.618 1.63 19 19 0 0 0-3.946 2.923 32.3 32.3 0 0 0-3.741 3.997 26 26 0 0 0-1.944 2.777 22.7 22.7 0 0 0-2.229 4.59 13.4 13.4 0 0 0-.68 3.756v.811q0 .54-.124 1.067a.98.98 0 0 1-.351.548 3 3 0 0 1-.234.212c-.138.087-.285.036-.453-.146a2.35 2.35 0 0 1-.46-.943 9 9 0 0 1 0-3.975c.25-1.306.663-2.575 1.228-3.779a28.6 28.6 0 0 1 2.974-5.049z"/><path fill="#12111f" d="m41.176 253.101.095-9.609v-3.501l.168-12.35v-5.473a44 44 0 0 1 .16-6.994c.096-.73.308-.628.615 0q.303.617.533 1.265c.181.589.294 1.197.336 1.812.227 4.75.16 9.5 0 14.294-.117 2.872 0 5.846-.036 8.769l-.066 9.675v14.959c0 2.317.175 4.59.27 6.877l.066 1.513c.051 1.885-.168 2.484-.555 2.923q-.12.143-.256.27c-.14.095-.27-.051-.402-.395a5.4 5.4 0 0 1-.358-1.563c-.38-4.093-.439-8.412-.483-12.752v-9.69zM329.92 253.159l.358-8.85.058-3.23c.139-3.792.307-7.585.395-11.378.044-1.68.036-3.376 0-5.049v-3.223c0-1.074.139-2.148.212-3.223.066-.672.314-.584.599 0q.272.568.46 1.17.124.357.22.789l.095.431.036.453c.139 2.192.103 4.385.066 6.577a156 156 0 0 1-.256 6.613c-.153 2.646-.102 5.401-.182 8.105l-.307 8.93c-.073 1.827-.139 3.653-.212 5.488-.095 2.769-.227 5.554-.271 8.309-.044 2.141 0 4.238.051 6.35v1.396c0 1.739-.124 2.287-.599 2.652a3 3 0 0 1-.314.242c-.329.16-.643-.556-.731-1.835-.226-3.792-.153-7.782-.051-11.78q.14-4.464.292-8.93zM198.981 97.923l-32.965-.409-12.014-.08c-14.126-.176-28.252-.366-42.385-.453-6.262 0-12.569 0-18.78.043l-12 .168c-3.997 0-7.994.074-11.984 0-2.492-.08-2.193-.38-.073-.825a66 66 0 0 1 10.581-1.082c16.333-.292 32.644-.248 49.093.037 9.836.168 20.074.124 30.137.204l33.206.307 20.462.161c10.311.058 20.673.132 30.904.088 7.958-.044 15.763-.22 23.626-.388l5.166-.117c3.238-.058 5.372-.058 6.87 0 1.044.036 2.078.223 3.069.556q.47.146.921.343c.314.19-.19.373-1.36.57a44 44 0 0 1-5.393.46c-14.06.541-28.902.651-43.795.615-11.064 0-22.171-.125-33.264-.205z" opacity=".4"/><path fill="#12111f" stroke="#12111f" stroke-miterlimit="10" d="m219.77 237.969.38 33.666h7.081v-33.666z" opacity=".3"/><path fill="#12111f" d="m233.27 245.078.387 26.359h7.074v-26.359z"/><path fill="#12111f" d="m245.934 255.309.38 16.128h7.081v-16.128z" opacity=".3"/><path fill="#12111f" d="M11.692 188.164a3.47 3.47 0 0 1-.424-2.338 6.9 6.9 0 0 1 1.104-2.755c.73-1.148 1.907-2.47 2.762-3.654l.512-.731q.082-.13.124-.278a.48.48 0 0 0-.073-.424c-.11-.117-.285-.073-.41-.051l-.233.059-.14.051c-.08.036-.116.044-.291.131-.556.271-1.133.578-1.732.885-.6.307-1.206.621-1.908.906-.47.197-.96.343-1.461.438-.495.072-1 .009-1.462-.182a3 3 0 0 1-1.483-1.36 3.5 3.5 0 0 1-.322-1.929 6.6 6.6 0 0 1 .388-1.644q.248-.661.562-1.294c.453-.913.95-1.783 1.462-2.63.511-.848 1.008-1.696 1.396-2.47a2.92 2.92 0 0 0 .058-2.558.92.92 0 0 0-.621-.504 2.2 2.2 0 0 0-1.155.168c-.562.234-.979-.285-.73-1.221a2.32 2.32 0 0 1 1.351-1.403 2.4 2.4 0 0 1 .731-.175q.212-.012.424 0c.146 0 .3.044.453.08.315.077.618.197.899.358.276.171.523.386.73.636a4.82 4.82 0 0 1 1.082 2.821c.028.454.003.91-.073 1.359q-.05.33-.146.651l-.088.321c-.044.117-.095.256-.146.358q-.227.522-.511 1.016l-.49.848-.92 1.542a20.4 20.4 0 0 0-1.543 3.025 4 4 0 0 0-.117.343c-.029.11-.065.256-.073.205a.5.5 0 0 0-.065.161.41.41 0 0 0 .116.402.36.36 0 0 0 .278.065.6.6 0 0 0 .16 0h.045l.102-.043q.12-.045.234-.103a22 22 0 0 0 1.944-1.067l1.037-.599.27-.153.38-.205c.25-.139.578-.292.863-.424 1.199-.504 2.353-.694 3.31-.161 1.111.651 1.33 2.003 1.22 3.274a5.5 5.5 0 0 1-.606 1.915l-.248.46-.197.315c-.037.065-.059.087-.066.109l-.051.059-.088.117c-.41.533-.994 1.081-1.462 1.819-.16.233-.27.497-.321.775a1 1 0 0 0 .197.789c.066.102.117.248.234.3a.39.39 0 0 0 .336 0c.217-.092.416-.223.585-.388.555-.504 1.067-1.11 1.695-1.732l.234-.226c.146-.124.285-.263.468-.417.412-.355.869-.655 1.359-.891.454-.218.96-.307 1.462-.256.503.072.96.333 1.278.731.251.31.455.654.607 1.023 0 .102.102.175.102.292q.075.135.132.278.108.285.117.592c.007.42-.05.839-.168 1.242-.08.205-.14.424-.227.629l-.241.577c-.504 1.176-1.074 2.258-1.542 3.303a9 9 0 0 0-.256.65 2.6 2.6 0 0 0-.117.468h-.263a1.2 1.2 0 0 0-.453.037.4.4 0 0 0-.197.065.3.3 0 0 0 .066-.19q.068-.184.08-.38a2 2 0 0 0 0-.19.5.5 0 0 1 0-.109h.628c.396-.01.783.117 1.097.358q.243.157.467.343c.212.219.19.526-.073.884a2.7 2.7 0 0 1-.584.556c-.36.253-.768.43-1.199.519a3 3 0 0 1-.373.051q-.268 0-.533-.044a2 2 0 0 1-.73-.343 1.9 1.9 0 0 1-.564-.731 2 2 0 0 1-.131-.388c0-.102 0-.19-.044-.285s0-.19 0-.277v-.198q.02-.348.102-.686.247-.95.636-1.849c.227-.541.46-1.06.687-1.564s.453-1.023.607-1.418c0-.08-.059-.08-.08-.073l-.19.183-.651.731-1.586 1.775a20 20 0 0 1-1.535 1.557 8 8 0 0 1-.68.548 7 7 0 0 1-.606.38 3.23 3.23 0 0 1-1.768.424 2.7 2.7 0 0 1-.87-.176 2.2 2.2 0 0 1-.592-.314 2 2 0 0 1-.277-.219.63.63 0 0 1-.234-.278 5 5 0 0 1-.79-.942z"/></svg>