<svg xmlns="http://www.w3.org/2000/svg" width="380" height="380" fill="none"><path fill="#12111f" d="M64.534 316.765s-10.019.007-10.633 2.375 18.372 7.257 18.372 7.257-7.49-3.786-8.075-6.263c-.629-2.638.336-3.376.336-3.376z"/><path fill="#12111f" d="M247.46 174.961c1.381-1.857 4.779-13.571 1.542-18.153-2.536-3.581-6.701-7.359-10.019-8.024-3.317-.665-5.071 3.34-7.037 5.861s-4.129 9.661-2.96 12.737c1.17 3.077 7.82 6.015 7.82 6.015s2.046-2.28 3.288-1.922c1.235.358 7.366 3.478 7.366 3.478zM242.913 191.39s-8.732 23.823-26.76 20.702c-4.144-.716-11.108-7.709-9.318-13.161.585-1.783 13.074-5.144 13.863-2.704.782 2.441.475 5.656 2.192 5.386s5.174-1.878 5.825-3.836c.65-1.959 2.375-4.889 2.375-4.889l11.823-1.513z" opacity=".6"/><path fill="#12111f" d="M210.381 195.51a24.5 24.5 0 0 1 3.281-.986c.409-.088.804-.212 1.221-.285 1.468-.19 2.959-.212 4.45.124.694.161 1.41.431 1.988.921.38.299.672.708.855 1.147q.063.165.117.329.021.175.021.351c0 .233-.014.46-.08.679-.08.278-.197.234-.468.073-.131-.08-.336-.182-.533-.292-.095-.051-.205-.102-.307-.154-.051-.021-.088-.051-.153-.073-.03-.029-.066-.058-.088-.087-.402-.417-.694-.665-1.169-.87a3.1 3.1 0 0 0-.848-.212c-.175-.022-.351-.066-.526-.109l-.548-.081c-.885-.146-1.82.073-2.733.256-1.009.183-2.01.468-2.989.833-.607.219-1.199.475-1.776.76-.877.431-1.71.95-2.485 1.535-.577.475-1.052 1.052-1.49 1.622-.095.124-.176.256-.285.38-.395.424-.68.446-1.053.365-.087-.022-.175-.029-.255-.058-.249-.088-.307-.431-.198-.987.234-.76.716-1.395 1.213-2.002.263-.292.541-.57.826-.848.3-.248.592-.519.921-.745.972-.658 2.009-1.177 3.069-1.652l.022.044zM229.097 161.075a27 27 0 0 1 1.396-3.697c.19-.439.373-.885.592-1.309a22.2 22.2 0 0 1 2.835-4.187 18 18 0 0 1 1.549-1.644c.366-.322.738-.636 1.177-.87.219-.109.409-.27.658-.329q.36-.075.73-.16c.3-.051.278.022.11.263-.183.226-.417.701-.789 1.023l-.497.424c-.154.16-.3.329-.461.475-.343.263-.628.621-.957.928-.307.321-.592.687-.899 1.023-.285.365-.57.723-.855 1.089-.657.899-1.184 1.951-1.68 2.989-.541 1.14-1.053 2.309-1.433 3.515a22 22 0 0 0-.606 2.25c-.22 1.148-.351 2.317-.066 3.42.205.855.65 1.615 1.191 2.251.117.146.256.263.38.402.212.27.358.446.424.614.058.183.073.314.058.468 0 .065 0 .138-.014.19-.022.087-.11.116-.285.102a1.36 1.36 0 0 1-.694-.219c-.797-.475-1.374-1.279-1.798-2.134-.424-.863-.643-1.834-.702-2.799-.044-1.454.256-2.784.6-4.078h.036M275.973 234.352a39 39 0 0 1-3.931 2.295c-.497.248-.965.533-1.469.76a42 42 0 0 1-5.459 1.98c-.818.249-1.659.46-2.492.65-.533.117-1.074.249-1.629.285a8 8 0 0 1-1.667-.065c-.343-.051-.292-.205-.014-.41.277-.197.752-.533 1.322-.738 1.009-.307 2.025-.57 3.026-.92 1.016-.307 2.039-.607 3.076-.921 1.243-.38 2.434-1.038 3.61-1.644 1.294-.673 2.58-1.374 3.808-2.171.76-.482 1.49-1.001 2.207-1.549 1.067-.84 2.104-1.739 2.952-2.777.672-.796 1.14-1.71 1.571-2.594.088-.197.168-.395.263-.592.146-.373.307-.592.461-.731a.93.93 0 0 1 .526-.248c.095-.015.19-.044.277-.051.271-.015.446.401.402 1.132-.182 1.031-.57 2.061-1.176 2.938-.585.891-1.279 1.703-2.024 2.455-1.111 1.111-2.339 2.068-3.603 2.953l-.029-.037zM205.235 154.008c.373-1.549.753-3.099 1.125-4.648.169-.694-.219-1.52-.957-1.688s-1.505.212-1.688.957c-.373 1.55-.753 3.099-1.125 4.648-.168.694.219 1.52.957 1.688s1.505-.212 1.688-.957M222.162 154.668q.549-1.785 1.096-3.581c.212-.687-.248-1.527-.957-1.688-.709-.16-1.462.227-1.688.958q-.548 1.785-1.096 3.58c-.212.687.248 1.528.957 1.688.709.161 1.462-.226 1.688-.957"/><path fill="#12111f" d="M181.357 184.285s-6.957.161-10.669 2.85c-3.705 2.682-8.463 7.176-9.215 12.686s1.929 12.657 7.161 14.923c5.232 2.272 10.37 2.996 10.37 2.996s-6.628 6.146-7.103 12.474-.3 9.683 1.432 9.675 6.153-2.433 9.785-5.729c5.247-4.757 7.936-13.395 8.543-17.275 0 0 7.008-4.18 7.972-9.164s1.593-10.947 0-12.262-10.165-.556-13.329-5.247c-3.164-4.692-4.955-5.927-4.955-5.927z" opacity=".15"/><path fill="#12111f" d="M173.566 221.994c.453-.687.943-1.352 1.476-1.958.132-.154.263-.314.417-.446.073-.066.175-.161.153-.139.03 0 .037-.022.052-.036a.22.22 0 0 0 .014-.242c-.036-.058-.102-.109-.175-.095-.008-.021-.008 0-.029-.014l-.095-.022-.19-.037-.388-.087c-.957-.227-1.936-.439-2.923-.724a13.6 13.6 0 0 1-2.857-1.191 15 15 0 0 1-2.266-1.513c-.935-.679-1.666-1.593-2.28-2.543-.197-.299-.116-.299.176-.168.292.139.826.373 1.381.702.227.161.49.292.702.46.219.168.423.351.643.504.438.322.884.622 1.344.892.921.541 1.886.957 2.923 1.301 1.243.438 2.675.57 4.071.84.036 0 .124.029.212.029.606.132 1.125.548 1.344 1.104a1.71 1.71 0 0 1-.204 1.681c-.205.292-.278.38-.395.533-.124.132-.234.278-.343.417-.234.277-.439.57-.658.855a16 16 0 0 0-1.389 2.375c-.592 1.264-1.096 2.601-1.403 3.975-.248 1.067-.314 2.156-.424 3.23-.029.241-.036.475-.073.709-.109.884-.35 1.147-.745 1.293-.095.037-.183.081-.27.095-.285.059-.505-.343-.6-1.037-.036-.505-.036-1.024-.036-1.542.036-.519.073-1.038.146-1.564.132-1.053.365-2.112.658-3.164.431-1.572 1.132-3.099 2.009-4.517l.044.022z"/><path fill="#12111f" d="M174.078 215.833c.738.147 1.52.161 2.309.088.293-.015.556-.146.848-.183a13.7 13.7 0 0 0 3.033-.898c.438-.19.862-.432 1.242-.709.541-.293 1.074-.607 1.615-.899.168-.095.241-.022.248.212 0 .234-.036.665-.241 1.03-.197.3-.394.614-.621.892-.234.27-.526.453-.811.657-.57.395-1.191.731-1.893.885-.402.117-.804.255-1.206.402a8 8 0 0 1-1.227.38c-.921.211-1.878.263-2.821.226-.292.007-.577-.066-.87-.095-.285-.051-.577-.051-.855-.146a15 15 0 0 1-1.257-.395 25 25 0 0 0-1.191-.519 13 13 0 0 0-.899-.431c-.306-.139-.621-.255-.891-.453-.124-.08-.256-.146-.373-.234-.431-.343-.467-.57-.27-.957.044-.088.088-.183.139-.263.182-.27.533-.351.899-.248.533.168.979.431 1.483.584q.36.144.709.3c.248.066.489.146.723.226.344.146.716.19 1.075.278.35.139.723.168 1.096.227v.051z"/><path fill="#12111f" d="M133.169 323.425c-.431.153-5.912 1.842-12.387 3.435l-1.644-3.092s-1.754-3.814-4.509-3.361c-2.762.453-3.697 8.367-3.697 8.367l5.561-.92c-4.407.964-8.872 1.739-12.241 1.863 0 0-20.483 2.404-25.13-.943-4.656-3.354-14.587-7.622-14.587-7.622l.175-9.909s8.463-4.772 10.794-9.799c2.324-5.035 10.655-24.094 10.655-24.094l4.815.197s.088 4.809 3.727.826c3.632-3.983 2.865-6.738 3.245-4.743.387 2.003-.636 11.51 1.87 9.676 3.64-2.66 3.611 3.369 7.374.007 1.425-1.271 3.259 2.441 4.107-1.849.848-4.297 3.917-5.787 3.917-5.787l2.872.35c-.709 1.469 1.988 29.991 15.083 37.35 0 0 .811 9.756 0 10.048" opacity=".55"/><path fill="#12111f" d="M97.808 277.917c-.293.475-.563.965-.943 1.403-.132.161-.227.351-.38.504-.52.541-1.126 1.067-1.915 1.338-.35.109-.73.16-1.096.102-.475-.059-.848-.38-1.074-.716-.073-.11 0-.154.146-.198.153-.036.402-.087.6-.102.167.022.335-.058.438-.036.117.007.219-.015.321-.037.205-.051.439-.168.709-.343.329-.205.533-.622.753-.994.248-.431.504-.863.752-1.286.147-.278.3-.556.431-.841.198-.438.41-.877.541-1.344.103-.366.095-.753.14-1.14.007-.088 0-.176.043-.256.139-.285.314-.366.753-.256l.219.044c.146.044.548.321.592.548.146.38.066.716.007 1.074a7 7 0 0 1-.314 1.038c-.19.511-.439 1.008-.694 1.513l-.037-.015z"/><path fill="#12111f" d="M98.208 284.904c-.577-.504-.92-1.154-1.147-1.783-.088-.226-.197-.453-.248-.679-.176-.797-.242-1.593-.264-2.375q-.019-.525-.029-1.038c0-.219-.022-.453.03-.672.065-.22.168-.431.3-.629.08-.124.19-.066.328.073.124.146.35.38.439.6.094.197.029.38.065.577.007.19.022.387.037.577.029.387.05.775.08 1.191.022.49.256.958.431 1.396.183.475.453.899.76 1.272.19.226.417.431.665.57.38.204.76.27.994.029.197-.19.241-.548.336-.95.022-.088.03-.19.066-.285a1 1 0 0 1 .117-.219c.051-.052.139-.073.212-.088a.84.84 0 0 1 .453.066c.073.029.146.051.205.087a.8.8 0 0 1 .248.249c.066.109.175.256.212.38a2.9 2.9 0 0 1-.263 1.191c-.197.475-.76 1.125-1.564 1.279-.57.117-1.067 0-1.469-.154a3.9 3.9 0 0 1-1.03-.635l.022-.03z"/><path fill="#12111f" d="M105.954 286.572a2.92 2.92 0 0 1-1.71.102c-.19-.058-.395-.073-.57-.168a3.05 3.05 0 0 1-1.337-1.381c-.11-.241-.22-.468-.329-.709a1.08 1.08 0 0 1-.029-1.023c.058-.11.212-.073.409 0 .19.08.475.153.599.234a.6.6 0 0 1 .219.248c.059.095.125.19.183.293.066.08.102.175.161.263.036.095.08.197.124.307.11.255.387.343.614.431.256.102.533.139.811.08.168-.029.343-.095.497-.212a1.6 1.6 0 0 0 .585-.694c.095-.241.087-.519.102-.797q.001-.088.036-.175c.037-.11.11-.168.234-.183.11-.022.227-.022.38 0l.198.03c.197.036.38.19.533.423.044.147.124.315.11.461q-.002.22-.059.453a3 3 0 0 1-.409.935c-.3.461-.767.884-1.33 1.118l-.015-.036z"/><path fill="#12111f" d="M112.153 282.975c-.278.534-.563 1.053-.95 1.557a5 5 0 0 1-.424.563c-.585.591-1.52 1.132-2.528.891a1.82 1.82 0 0 1-1.06-.775 1.88 1.88 0 0 1-.175-1.373c.036-.139.16-.125.343-.044.175.087.453.219.592.365.124.132.248.234.358.271.095.051.124.073.154.073s.036.014.109.058a.55.55 0 0 0 .307.044c.314.015.592-.307.84-.629.293-.35.57-.781.797-1.249q.22-.43.395-.892a11 11 0 0 0 .453-1.432c.095-.38.051-.782.139-1.169.014-.088.021-.168.043-.256.095-.314.256-.417.578-.387q.11 0 .219.022a.66.66 0 0 1 .468.46c.219.731.175 1.505-.022 2.251a13 13 0 0 1-.614 1.651l-.037-.014zM120.725 319.008c-1.842.366-3.683.717-5.532 1.009-.672.117-1.345.248-2.024.343q-3.585.495-7.191.717c-1.067.073-2.134.153-3.193.226-1.36.073-2.726.212-4.085-.11-.424-.087-.366-.138-.008-.306l.738-.366a3.7 3.7 0 0 1 1.045-.241c.68-.095 1.367-.132 2.054-.153.687-.03 1.366-.088 2.053-.125l4.129-.285c1.659-.109 3.354-.445 5.028-.723 1.841-.314 3.676-.658 5.502-1.045 1.126-.241 2.251-.49 3.369-.767 1.696-.417 3.391-.848 5.05-1.352 1.286-.395 2.521-.87 3.771-1.323.277-.102.54-.219.825-.285 1.06-.27 1.425-.292 1.754-.022.073.051.161.088.205.124.139.088-.175.57-.914.914-1.059.606-2.236.972-3.412 1.395a57 57 0 0 1-3.625 1.089c-1.819.49-3.668.914-5.517 1.323v-.029z"/><path fill="#12111f" d="M118.445 322.59s-5.437-3.12-5.232 6.183h-2.58s-.08-6.606 3.559-8.514c3.084-1.615 4.253 2.331 4.253 2.331M79.34 321.984s-2.228 6.205-8.886 1.908c-4.26-2.755 5.547 4.713 7.842 4.53s1.045-6.438 1.045-6.438M91.165 301.362c-.307.665-.636 1.33-.95 1.988-.343.65-.665 1.308-1.023 1.951-.263.468-.482.957-.753 1.425-.986 1.622-2.155 3.128-3.376 4.567l-.826.95q-.436.462-.862.914a10.6 10.6 0 0 1-2.558 1.944c-.292.16-.321.029-.197-.263.132-.3.395-.775.797-1.199.343-.395.657-.811 1.023-1.176.336-.395.694-.775 1.023-1.17.329-.402.65-.811.98-1.22.306-.424.635-.84.956-1.257.753-1.023 1.345-2.214 1.974-3.347a56 56 0 0 0 1.936-3.851c.38-.804.716-1.63 1.052-2.448.49-1.257.987-2.521 1.374-3.8.293-1.001.526-1.995.767-2.996.059-.22.096-.439.161-.658.27-.804.46-1.03.833-1.118.088-.022.176-.051.249-.059.263-.014.38.38.35 1.024a21 21 0 0 1-1.256 5.692c-.475 1.396-1.053 2.763-1.63 4.129l-.037-.015zM74.13 294.895l-2.551-.081c-.307-.007-.621.015-.928 0-1.09-.029-2.178-.139-3.267-.197-.482-.015-.965-.029-1.447-.051a23 23 0 0 1-1.849-.11c-.19-.022-.168-.066-.007-.146.16-.073.453-.212.811-.292.629-.117 1.25-.256 1.886-.314a18 18 0 0 1 1.892-.015c.76.022 1.55-.015 2.324-.022l2.55.015 1.572-.015c.789-.022 1.585-.029 2.367-.08.607-.037 1.199-.183 1.798-.242.132-.007.263-.029.395-.036.497-.029.665.095.796.292.03.044.066.095.088.139.066.146-.124.314-.475.49-1.052.445-2.207.555-3.354.672-.855.044-1.725.037-2.58.037v-.03zM136.455 293.556l3.486-.015c.424 0 .848-.044 1.272-.036 1.491.014 2.989.022 4.479.036.665 0 1.323-.014 1.981-.022.84-.051 1.688.037 2.536.132.263.036.226.095.007.204-.219.103-.621.293-1.104.395-1.71.336-3.42.351-5.152.314-1.037-.029-2.111.088-3.164.139l-3.493.146-2.148.103a94 94 0 0 0-3.245.212c-.833.08-1.644.241-2.463.372-.182.029-.358.059-.54.073-.68.066-.914-.102-1.082-.38-.036-.065-.088-.131-.117-.197-.088-.212.176-.446.658-.658 1.447-.467 3.011-.599 4.582-.738 1.169-.058 2.338-.08 3.515-.117v.037zM222.747 292.752q4.343.021 8.674 0l3.165-.066 11.166-.051c1.651-.015 3.31-.073 4.947-.139 2.105-.073 4.217-.263 6.351.139.665.124.555.212 0 .402-.278.095-.665.234-1.14.409a9 9 0 0 1-1.63.314c-4.282.234-8.579.3-12.92.263-2.594-.029-5.291.124-7.944.161l-8.754.073q-2.699-.002-5.386.007c-2.718 0-5.451-.014-8.148-.022l-6.233.11c-.461 0-.907 0-1.367-.029-1.71-.088-2.251-.219-2.602-.599-.08-.073-.19-.147-.233-.205-.154-.153.555-.497 1.797-.563.928-.058 1.864-.117 2.814-.168.95-.022 1.9-.036 2.864-.044 1.93 0 3.881-.014 5.839-.022h8.748v.037zM303.109 292.431c.95.029 1.907.051 2.857.066.351 0 .694-.037 1.045-.029 1.228.014 2.463.109 3.691.138.548.022 1.096-.014 1.636-.007.695.015 1.396.029 2.09.161.22.044.19.175.008.336-.183.161-.512.395-.914.475-1.403.358-2.813.314-4.246.256-.855-.044-1.739.058-2.616.066h-4.677c-.898 0-1.805-.037-2.696-.008-.694.015-1.381.125-2.068.117-.154 0-.3.015-.453-.007-.563-.088-.738-.197-.848-.497-.022-.066-.058-.124-.073-.183-.044-.182.197-.402.607-.519a8.7 8.7 0 0 1 1.863-.365c.628-.036 1.264-.036 1.907-.036.95 0 1.915.014 2.865.021v.037zM281.375 302.741s20.14-.226 22.047-2.031c2.887-2.748-11.845-4.37-11.845-4.37z"/><path fill="#12111f" d="M295.697 281.681c-.358 2.368-.869 4.721-1.6 7.016-.278.833-.519 1.68-.87 2.492-1.184 2.864-2.93 5.575-5.32 7.621a14.8 14.8 0 0 1-3.493 2.266c-.409.168-.804.38-1.228.511-.423.132-.84.285-1.271.395-.439.088-.884.124-1.315.175-.439.03-.885.015-1.323.022-.548-.007-.475-.146-.051-.409.212-.131.511-.292.862-.475.358-.161.745-.424 1.184-.585a16.25 16.25 0 0 0 8.038-5.444c1.279-1.578 2.178-3.544 2.894-5.517.797-2.178 1.367-4.45 1.776-6.76.241-1.425.446-2.857.57-4.297.197-2.185.314-4.392.278-6.577-.037-1.695-.176-3.354-.3-5.027l-.088-1.096c-.095-1.374-.022-1.82.278-2.149.066-.073.132-.168.197-.212.22-.153.505.388.687 1.403.263 1.498.461 3.055.607 4.633.117 1.586.124 3.194.087 4.809a61 61 0 0 1-.577 7.205h-.036zM284.59 250.457a42 42 0 0 1-1.893.936c-.226.109-.445.248-.679.35-.826.366-1.681.658-2.536.943-.38.124-.738.292-1.118.409-.482.161-.965.307-1.476.366-.161.022-.168-.081-.088-.249.088-.161.249-.416.497-.57.855-.606 1.776-.972 2.74-1.301.578-.19 1.126-.511 1.681-.796q.921-.45 1.82-.943c.373-.204.738-.409 1.096-.636a18 18 0 0 0 1.593-1.066c.395-.293.724-.658 1.096-.98.088-.065.168-.131.256-.197.336-.219.49-.234.709-.11.051.03.102.052.146.081.139.102.11.329-.044.606-.124.205-.241.417-.38.614-.153.176-.307.351-.475.519-.336.329-.687.665-1.089.921-.584.409-1.198.767-1.819 1.125l-.015-.029zM263.575 229.551s-11.904 7.242-9.522 10.34c1.71 2.214 10.421-.826 10.421-.826l-.906-9.514zM276.398 224.369s4.582-1.088 5.919-.818c4.414.884-4.041 7.673-4.041 7.673l-1.885-6.855zM201.538 204.446c-.242 1.396-.695 2.741-1.192 4.049-.182.475-.38.95-.599 1.417-.848 1.594-1.885 3.106-3.23 4.319-.263.3-.599.534-.884.804-.307.249-.57.556-.914.767-.431.278-.84.578-1.278.834-.483.19-.987.314-1.477.431-.306.065-.321-.088-.175-.395.154-.3.402-.833.789-1.198.373-.271.716-.592 1.075-.87.38-.256.694-.592 1.045-.884.168-.154.358-.285.518-.453l.475-.505.497-.496.453-.541q.276-.327.541-.665c.161-.241.292-.497.439-.753.138-.256.285-.511.416-.775l.351-.811c.548-1.169.921-2.419 1.242-3.683.132-.789.322-1.578.358-2.382l.073-.914.015-.913c.037-.614-.044-1.22-.11-1.82-.029-.475-.204-.913-.292-1.366s-.263-.877-.402-1.323c-.066-.19-.124-.38-.183-.577-.233-.716-.233-.987-.073-1.25.037-.058.066-.131.103-.175.131-.154.416.066.789.555.139.183.285.373.416.563.117.197.212.409.322.621.212.417.424.855.57 1.308.322.906.453 1.864.577 2.821.132 1.425.022 2.872-.226 4.282h-.044zM222.892 126.41s1.469 6.759 5.693 9.945 9.967 3.574 13.797 1.374c5.517-3.164 12.043-30.882-13.154-34.733 0 0-8.784.935-10.129 1.512-1.344.578-3.953-6.606-9.288-8.805-5.335-2.2-25.248-9.8-36.407 5.21 0 0-6.336 9.325-5.722 16.567.614 7.241-1.849 2.236-1.849 2.236s-12.656-4.809-19.957 1.132c-7.293 5.942-8.002 11.583-8.543 16.669s2.412 11.693 2.412 11.693-6.687 4.399-6.884 9.901c-.197 5.503 4.816 11.875 8.185 12.687s7.161 1.205 7.161 1.205-4.845 15.274 10.567 13.892c16.179-1.454 21.916-9.763 21.916-9.763l-3.193-13.658s-7.549.731-9.822-3.946-2.594-7.446-.921-10.742c1.674-3.296 3.683-3.406 5.481-2.909s5.919 4.246 5.919 4.246l1.739-10.289s7.944 4.881 16.677 3.274c8.732-1.608 22.536-12.876 22.536-12.876l3.793-3.83z"/><path fill="#12111f" d="M165.219 156.253c-.621-1.995-.753-4.209-.073-6.234l.372-1.089c.161-.358.351-.701.548-1.045.768-1.169 1.93-2.148 3.296-2.572 1.359-.438 2.799-.321 4.049.095 1.132.351 2.148.95 3.04 1.666a9.7 9.7 0 0 1 1.512 1.586c.198.307.351.643.512.965.139.336.234.687.343 1.03.125.431-.08.439-.482.241a8 8 0 0 1-.745-.409c-.263-.183-.629-.336-.892-.577-.855-.906-1.827-1.608-2.843-2.171-1.023-.54-2.155-.825-3.273-.73-.176 0-.329.043-.497.087-.161.051-.336.073-.49.146-.292.168-.621.3-.87.556-.124.124-.277.219-.394.358l-.329.424-.168.212-.132.248-.27.49c-.767 1.498-.987 3.252-.65 4.969.197 1.052.606 2.075 1.154 3.011a9.8 9.8 0 0 0 1.527 1.944 11 11 0 0 0 1.959 1.563c1.096.687 2.324 1.045 3.552 1.228.27.051.54.051.811.095 1.015.095 1.33.307 1.534.848.044.124.11.248.139.372.095.402-.38.768-1.264.841a10.05 10.05 0 0 1-3.976-.702c-1.3-.511-2.513-1.293-3.551-2.214-.76-.658-1.52-1.469-2.112-2.353a12.2 12.2 0 0 1-1.41-2.857l.044-.022zM116.031 321.114c-.585-.154-1.477.117-2.083.628-.219.19-.387.424-.563.694-.65.943-1.118 2.156-1.469 3.362a13 13 0 0 0-.336 1.652c-.044.358-.088.716-.161 1.066-.08.351-.117.709-.292 1.06-.11.212-.234.175-.431-.036-.219-.22-.46-.607-.46-1.038-.037-.775.131-1.52.285-2.273.168-.745.38-1.491.686-2.221.373-.863.629-1.813 1.25-2.675a4.37 4.37 0 0 1 2.96-1.754c.73-.088 1.571.102 2.163.621.446.388.709.811.979 1.235.256.424.482.848.709 1.272.351.65.76 1.264 1.111 1.907.08.139.168.278.241.424.095.285.131.482.087.65-.073.176-.168.3-.306.424-.066.059-.117.117-.176.161-.095.066-.212.066-.373.015-.16-.052-.394-.139-.518-.322-.242-.241-.41-.519-.57-.804a19 19 0 0 1-.475-.847c-.307-.57-.592-1.148-.899-1.689a9 9 0 0 0-.687-1.059 1.06 1.06 0 0 0-.658-.417v-.036zM96.942 279.298c.073-1.227.27-2.404.54-3.551.096-.424.169-.848.286-1.257a23.6 23.6 0 0 1 1.746-4.18c.307-.592.629-1.184.958-1.768.453-.717.891-1.513 1.71-1.93.241-.139.35.022.394.366.022.168.037.387.037.621 0 .117.007.248-.015.358a1 1 0 0 1-.139.3c-.409.679-.818 1.351-1.227 2.031-.402.694-.79 1.403-1.17 2.141-.46.884-.686 1.893-.935 2.872a18.6 18.6 0 0 0-.563 3.281c-.05.68-.058 1.36.015 2.01.058.497.168.979.35 1.396.19.409.468.723.775.76.483.095 1.082-.417 1.425-.928.081-.117.132-.249.205-.373.124-.227.219-.373.358-.446.153-.066.329-.088.585-.066.117.008.233 0 .35.022.19.03.337.125.432.307a.95.95 0 0 1 .036.746 3.84 3.84 0 0 1-1.863 2.228 3 3 0 0 1-.855.285 2.6 2.6 0 0 1-1.053-.036c-.738-.168-1.315-.694-1.622-1.177-.468-.738-.606-1.432-.709-2.09a11.4 11.4 0 0 1-.102-1.914h.036zM67.991 292.043a59 59 0 0 0 2.806.146c.344.007.68-.044 1.023-.036l3.662.131c.54.029 1.081 0 1.615-.029.686-.059 1.38 0 2.075.153.22.052.197.249.03.505-.169.241-.483.606-.87.745l-.52.168-.255.088-.263.036c-.35.051-.694.088-1.045.117q-.526.045-1.052.059a14 14 0 0 1-1.06-.073c-.855-.088-1.725.065-2.594.095-.958.029-1.915.029-2.88.014l-1.768-.036c-.892-.015-1.79-.081-2.667-.051-.687.014-1.36.19-2.04.226-.145.015-.291.044-.445.037-.555-.037-.73-.285-.84-.724-.022-.102-.059-.205-.073-.307-.044-.329.182-.636.592-.869 1.213-.527 2.477-.534 3.741-.527.943 0 1.878.052 2.82.081v.051zM138.106 291.87c1.513.022 3.026.029 4.538.007.556 0 1.096-.073 1.652-.08 1.944-.022 3.895-.044 5.839-.073.862-.015 1.724-.103 2.579-.154 1.096-.065 2.2-.131 3.311-.095.343.015.314.146.044.344-.271.19-.775.497-1.396.665-2.2.614-4.451.847-6.731.913-1.366-.014-2.769.183-4.158.256-1.527.08-3.062.132-4.589.168l-2.821.066c-1.425.029-2.857.014-4.267.088-1.097.051-2.171.226-3.26.336-.241.029-.475.065-.716.08a1.7 1.7 0 0 1-.95-.168c-.212-.11-.329-.278-.431-.519-.044-.109-.102-.212-.131-.314-.088-.322.27-.687.92-.906 1.93-.468 3.961-.512 6-.592 1.52-.051 3.04-.066 4.567-.073zM244.72 322.37c1.352.468 2.711.921 4.048 1.425.49.176.994.314 1.484.504 1.717.665 3.427 1.33 5.122 2.047.753.314 1.52.599 2.273.884.979.351 1.922.804 2.843 1.301.285.16.212.233-.095.27a5.3 5.3 0 0 1-1.447-.044c-1.06-.175-2.061-.497-3.069-.826-1.009-.321-2.003-.672-2.975-1.11-1.169-.512-2.448-.855-3.683-1.272l-4.063-1.381c-.833-.278-1.673-.563-2.514-.826-1.271-.402-2.55-.804-3.836-1.133-1.001-.255-2.002-.402-3.004-.599-.219-.051-.438-.088-.65-.146-.811-.219-1.038-.402-1.118-.804-.022-.088-.058-.168-.066-.241-.029-.212.38-.446 1.009-.402q.7.042 1.403.117c.467.073.928.161 1.396.263.935.197 1.87.439 2.806.702 1.388.38 2.769.818 4.143 1.249v.037zM206.605 320.773c2.075-.168 4.151-.307 6.233-.439.76-.051 1.513-.153 2.266-.182 2.674-.117 5.349-.161 8.023-.22 1.192-.007 2.383-.102 3.559-.102 1.513-.036 3.062-.175 4.56.402.468.146.395.205-.022.395-.416.16-1.14.701-1.995.818-1.512.059-3.032.219-4.56.249-1.527.022-3.069.051-4.618.029-1.856-.015-3.771.226-5.664.351-2.075.131-4.158.27-6.24.438q-1.918.151-3.837.336c-1.929.205-3.873.395-5.773.702-1.476.248-2.901.606-4.333.928-.307.08-.614.175-.928.248-.293.066-.534.11-.739.139-.197.037-.358.066-.504.051a1.2 1.2 0 0 1-.672-.277c-.088-.073-.19-.132-.256-.198-.102-.117-.058-.27.117-.46s.482-.446.928-.621c.643-.234 1.301-.475 1.966-.673.665-.19 1.345-.38 2.024-.54a65 65 0 0 1 4.173-.702c2.083-.292 4.18-.497 6.27-.709v.044zM254.98 179.213c3.143 3.836 5.583 8.016 7.915 12.233.84 1.542 1.717 3.062 2.506 4.633 2.77 5.525 5.269 11.166 7.637 16.859a471 471 0 0 1 3.12 7.578c.643 1.622 1.294 3.259 1.842 4.933.277.84.518 1.688.716 2.557.19.87.365 1.761.292 2.689-.234 1.184-.263.95-.738.103-.548-.841-1.425-2.258-2.09-4.093-1.155-3.273-2.572-6.496-3.953-9.755a865 865 0 0 0-4.005-9.866c-1.63-3.946-3.676-7.885-5.7-11.736-2.229-4.231-4.575-8.411-7.337-12.269a36 36 0 0 0-2.718-3.399c-.972-1.066-2.003-2.06-3.172-2.798-1.856-1.177-3.815-2.207-5.868-2.931-1.023-.351-2.075-.636-3.128-.767a2 2 0 0 0-.657-.015 6 6 0 0 0-.731.168 15 15 0 0 0-1.506.541c-1.549.651-3.032 1.476-4.435 2.382-1.396.914-2.741 1.922-3.866 3.055-.482.497-.906 1.038-1.147 1.542-.11.241-.11.256-.125.365a.47.47 0 0 0 .03.249c.109.263.336.307.518.402.315.08.622.182.885.329.16.087.365.146.482.226.19.139.051.387-.446.702a2.7 2.7 0 0 1-.46.226c-.095.029-.19.066-.3.095-.139.037-.292.051-.446.066-.621.044-1.461-.11-1.951-.826-.036-.058-.087-.117-.124-.182a2.65 2.65 0 0 1-.212-1.871c.168-.68.387-1.023.643-1.447.504-.775 1.089-1.396 1.703-1.981 1.22-1.147 2.558-2.104 3.953-2.981a33 33 0 0 1 4.414-2.324c.797-.329 1.571-.643 2.58-.848.124-.029.256-.051.409-.065.139-.015.292-.037.504-.022.088 0 .205 0 .271.014l.168.022.336.044c.446.066.877.139 1.308.241 2.565.592 4.896 1.659 7.074 2.909.548.321 1.067.621 1.615 1.001l.833.592.76.635c.972.87 1.856 1.798 2.66 2.756l-.037.043z"/><path fill="#12111f" d="M233.312 191.812c1.14-.073 2.346-.307 3.545-.57.438-.095.862-.255 1.308-.358l1.191-.263c.424-.08.767-.19 1.366-.219.57 0 1.009.102 1.44.226a10 10 0 0 1 1.235.446c.709.293 1.396.643 2.039 1.089.416.278.804.621 1.111 1.074.153.212.292.468.358.731.036.292.073.57 0 .84-.073.337-.146.256-.366.044q-.087-.075-.197-.16c-.088-.052-.197-.095-.3-.139-.095-.044-.226-.066-.336-.103-.102-.043-.16-.087-.255-.138-.622-.351-1.279-.746-2.025-1.082a12 12 0 0 0-2.229-.965 2 2 0 0 0-.285-.058c-.065 0-.131-.022-.255 0-.241.036-.519.11-.79.183-.548.153-1.103.336-1.666.475a30 30 0 0 1-3.822.73c-.811.088-1.629.147-2.492.059-.635-.081-1.381-.227-1.98-.819-.3-.299-.46-.679-.541-1.067-.065-.416.015-.869.212-1.198.629-1.023 1.506-1.491 2.346-1.944.19-.088.373-.19.57-.263.358-.161.643-.11.833-.088a.78.78 0 0 1 .446.249c.058.058.124.109.161.168.138.19-.103.49-.527.862-.314.271-.665.424-.979.651a9 9 0 0 0-.869.635c-.242.212-.424.446-.453.563 0 .022-.015.044 0 .051h.014s-.066-.007-.058 0h.073c.007.008.029.029.036.051.022.044.015.037.11.103.08.051.256.117.475.146.431.08 1.001.066 1.564.014v.044z"/><path fill="#12111f" d="M233.87 187.375c1.22-.351 2.455-.774 3.778-1.118l.753-.197c.27-.051.533-.124.818-.124.994-.044 1.878.109 2.748.328.862.227 1.695.505 2.484.87.702.336 1.404.65 2.069 1.038.431.241.833.533 1.213.855.19.16.38.329.526.533.146.212.263.446.38.665.139.285.066.292-.249.256a9 9 0 0 0-.643-.044c-.131 0-.285.007-.416-.015a1.6 1.6 0 0 1-.351-.131c-.402-.197-.819-.365-1.22-.541q-.594-.294-1.199-.555c-.409-.176-.826-.329-1.235-.505a23 23 0 0 0-1.25-.518c-1.015-.388-2.177-.453-3.127-.285-1.133.197-2.397.65-3.632 1.037a54 54 0 0 1-2.353.709c-.614.154-1.228.307-1.886.373-.65.066-1.337.117-2.068-.124a1.5 1.5 0 0 1-.416-.176c-.139-.08-.322-.16-.431-.277-.256-.22-.468-.497-.563-.826-.102-.329-.066-.687.036-1.031.052-.175.132-.336.22-.504.117-.153.175-.263.27-.38.154-.19.307-.38.497-.533.175-.146.329-.241.468-.314.153-.059.299-.052.409-.052.226 0 .38.052.526.154.066.044.132.08.175.124.147.154-.08.431-.285.957-.219.278-.409.592-.496.863-.03.08-.015.073-.015.095 0 .014.007.029.015.036a.1.1 0 0 0 .043.044h.044c.015 0-.007-.022 0-.022.022.015.044.029.11.029.051 0 .095.015.139.03s.131.007.19.014c.065 0 .131.015.204.015l.241-.015c.49-.022 1.06-.131 1.645-.27.584-.132 1.191-.329 1.79-.519l.015.044z"/><path fill="#12111f" d="M231.61 186.178c-.314.153-.629.314-.994.446-.373.131-.716.255-1.264.285a2.37 2.37 0 0 1-1.645-.534c-.453-.365-.672-.95-.672-1.527 0-.278.059-.607.139-.848.073-.212.153-.409.248-.584q.275-.537.614-.965c.439-.585.936-1.074 1.44-1.542.745-.672 1.513-1.293 2.346-1.82a21.2 21.2 0 0 1 4.699-2.133c.394-.139.869-.22 1.3-.329.446-.088.892-.11 1.338-.154.891-.007 1.775.044 2.63.234 1.52.307 2.975.826 4.334 1.484.869.438 1.71.913 2.499 1.49.775.57 1.557 1.199 1.98 2.149.264.592.147.533-.394.38-.263-.088-.716-.11-1.118-.249a6 6 0 0 1-.658-.212 4 4 0 0 1-.628-.365 23.2 23.2 0 0 0-4.736-2.419c-.826-.27-1.673-.526-2.521-.606-.424-.088-.848-.059-1.279-.095-.416.044-.855.014-1.264.117-.49.073-1.03.226-1.557.423q-.79.286-1.556.658c-1.023.49-1.988 1.096-2.909 1.732-1.001.709-1.951 1.527-2.645 2.448a4 4 0 0 0-.416.694 2 2 0 0 0-.103.278c-.014.066-.022.132-.014.197a.39.39 0 0 0 .226.322.5.5 0 0 0 .197.058c.074.008.132 0 .264 0 .621-.073 1.351-.394 2.016-.767.68-.373 1.36-.789 2.039-1.198 1.038-.629 2.098-1.25 3.245-1.754 1.14-.49 2.411-.899 3.763-.731 1.023.146 1.915.497 2.799.855.877.373 1.718.789 2.536 1.25.358.204.716.394 1.074.613.651.417 1.06.717 1.294 1.002.212.314.277.562.292.825 0 .117.037.242.029.329-.014.146-.182.168-.497.132a2.8 2.8 0 0 1-1.227-.424c-1.411-.797-2.858-1.608-4.334-2.265-.731-.315-1.491-.607-2.148-.702-.6-.088-1.308.022-2.032.263-1.074.358-2.17.95-3.266 1.586-1.104.636-2.193 1.344-3.442 1.973l-.022-.037zM163.744 187.149c-2.572.577-5.203.935-7.863.95-.972 0-1.951.014-2.923-.11-1.71-.212-3.435-.628-5.021-1.432a10 10 0 0 1-1.154-.658c-.38-.226-.724-.519-1.075-.796a8.6 8.6 0 0 1-1.739-2.054 10 10 0 0 1-.935-2.185c-.19-.767-.322-1.556-.314-2.338-.03-2.003.672-4.1 2.163-5.423.438-.424.526-.226.467.336-.029.278-.087.651-.124 1.082-.029.219-.051.438-.08.665-.037.227-.117.438-.168.672-.22.811-.38 1.615-.41 2.434a7.2 7.2 0 0 0 .344 2.389c.497 1.55 1.483 2.872 2.952 3.844.863.585 1.893.994 2.967 1.264 1.082.264 2.214.38 3.34.454 2.484.146 5.02-.095 7.512-.57a42 42 0 0 0 4.56-1.14c2.265-.717 4.509-1.572 6.599-2.668 1.622-.855 3.113-1.871 4.509-2.989.307-.248.599-.497.891-.76.556-.467.95-.738 1.272-.884.307-.153.563-.175.848-.117.131.029.277.037.387.081.358.138.168.84-.607 1.724-1.162 1.286-2.587 2.339-4.077 3.289a35 35 0 0 1-4.736 2.47c-2.433 1.067-4.976 1.885-7.563 2.514l-.015-.044z"/><path fill="#12111f" d="M134.353 161.571c.051 1.71.541 3.42 1.454 4.918.329.548.775 1.009 1.184 1.491 1.469 1.71 3.581 2.96 5.919 3.617 1.031.3 2.112.483 3.194.556.694.044 1.388.058 2.083.109.35.037.701.022 1.052.081.351.058.709.095 1.067.146.446.073.402.19.044.446-.183.124-.439.299-.76.489-.161.088-.336.19-.526.263-.19.066-.395.117-.6.154l-1.132.139c-.38.029-.76 0-1.14 0l-1.14-.073-1.14-.139c-1.52-.234-3.04-.687-4.436-1.433-1.652-.884-3.391-1.914-4.677-3.427a12.56 12.56 0 0 1-2.587-5.809c-.175-1.294-.212-2.609 0-3.881.27-1.944 1.016-3.778 1.988-5.422.76-1.279 1.593-2.492 2.616-3.596.234-.226.453-.467.701-.686.227-.212.432-.366.629-.454q.283-.144.511-.19c.293-.065.541.015.804.19.117.074.249.139.336.22.285.248.161.913-.38 1.505-.387.46-.782.892-1.176 1.33-.358.468-.76.899-1.082 1.389a15 15 0 0 0-1.754 3.025c-.672 1.586-1.081 3.31-.979 5.028h-.058zM160.621 206.449a16.76 16.76 0 0 1 .366-9.244c.365-1.067.76-2.134 1.322-3.121.987-1.732 2.258-3.266 3.698-4.596a21.6 21.6 0 0 1 4.808-3.289 28.7 28.7 0 0 1 4.772-1.885c2.098-.563 4.312-.965 6.468-.468.665.183.57.161.022.424-.556.292-1.528.884-2.66 1.177-1.016.19-2.003.511-2.975.803-.979.278-1.951.592-2.886.987a26 26 0 0 0-5.349 2.967c-1.995 1.476-3.567 3.603-4.634 5.868-1.191 2.492-1.695 5.32-1.359 8.097.081.855.285 1.695.512 2.528.117.417.277.819.416 1.228.183.38.322.775.548 1.14 1.243 2.265 3.333 4.078 5.598 5.4 1.79 1.009 3.727 1.637 5.693 2.025.431.102.862.124 1.301.197 1.622.161 2.119.446 2.484.848.081.095.19.182.241.27.081.139-.051.263-.372.402-.322.117-.841.329-1.506.314-3.924-.073-8.016-1.534-11.341-4.151-1.235-.971-2.375-2.111-3.289-3.463l-.636-1.053c-.19-.372-.358-.752-.533-1.125l-.409-1.118c-.124-.373-.219-.76-.336-1.14l.043-.015z"/><path fill="#12111f" d="M199.64 195.467c-3.968 5.043-9.573 7.798-14.981 4.458-8.403-5.189-3.142-20.878-3.142-20.878s2.309 6.219 5.386 9.222c3.076 3.004 5.941 4.999 9.434 5.664s3.31 1.534 3.31 1.534z"/><path fill="#12111f" d="M216.745 189.657c-2.616 2.514-5.963 4.326-9.5 5.174-.877.27-1.79.321-2.682.468-.445.08-.899.073-1.352.095l-1.352.043c-.898-.014-1.79-.109-2.689-.168-.446-.043-.906-.131-1.352-.197-.453-.08-.891-.205-1.337-.307-2.558-.709-4.984-1.907-7.03-3.551-3.654-2.872-6.328-6.731-8.214-10.852-1.9-4.129-2.996-8.558-3.61-13.008-.548-3.953-.679-7.973-.541-11.919.081-2.536.3-5.071.622-7.593.182-1.256.372-2.513.635-3.756.125-.621.249-1.242.388-1.863.16-.614.38-1.213.592-1.812.621-1.477.548-1.272.635.109.044.687.146 1.666.081 2.799-.03 1.14-.161 2.455-.322 3.88-.709 5.021-.986 10.085-.753 15.127.249 5.035 1.053 10.07 2.741 14.85 1.03 2.842 2.411 5.641 4.289 8.096a23.4 23.4 0 0 0 3.099 3.428 20.2 20.2 0 0 0 3.69 2.704 17.3 17.3 0 0 0 4.626 1.827c.402.109.811.175 1.22.233.402.081.826.11 1.25.132.84.036 1.688.153 2.529.08 3.361-.073 6.708-.928 9.573-2.696 1.775-1.067 3.332-2.47 4.757-3.998 1.418-1.534 2.594-3.288 3.698-5.086 3.222-5.532 5.239-11.765 6.767-17.977 1.176-4.852 1.929-9.69 2.718-14.578.175-1.075.329-2.134.519-3.223.175-1.009.336-1.842.519-2.529.168-.694.329-1.249.482-1.702.3-.906.607-1.403.957-1.769.161-.168.322-.394.453-.482.424-.292.388 1.388 0 4.333-1.249 8.718-2.608 18.065-5.532 27.141-1.096 3.362-2.411 6.694-4.092 9.873-1.688 3.164-3.785 6.189-6.46 8.718l-.036-.029z"/><path fill="#12111f" d="M250.017 112.354c.249.578.556 1.126.738 1.732l.57 1.798.344 1.863c.109.622.131 1.235.183 1.849a29 29 0 0 1-.585 7.257c-.373 1.732-.84 3.471-1.666 5.086-.314.731-.775 1.388-1.184 2.075-.205.344-.482.643-.724.958-.263.307-.467.65-.774.913-.577.563-1.126 1.155-1.805 1.6-.329.234-.643.49-.979.702l-1.06.563-.533.277c-.176.088-.373.139-.556.212l-1.125.395c-.366.153-.76.205-1.148.285l-1.154.226a12.2 12.2 0 0 1-4.743-.233c-1.366-.358-2.645-.958-3.836-1.681-1.162-.775-2.229-1.666-3.143-2.697-2.324-2.616-3.96-6.029-3.909-9.536.139-1.096.087-.928.519-.088.131.205.219.46.35.745.139.285.315.592.483.929q.13.252.263.526c.095.175.226.35.307.54.197.38.35.79.57 1.192 1.3 2.945 3.383 5.561 6.116 7.11 1.359.767 2.857 1.257 4.399 1.381.775.073 1.542.029 2.332-.08.781-.183 1.607-.234 2.345-.548l.687-.234.344-.117c.109-.051.212-.11.321-.168.424-.234.863-.446 1.272-.702l1.162-.891c.365-.329.687-.702 1.037-1.053 1.308-1.49 2.244-3.31 2.909-5.217.731-2.098 1.14-4.341 1.279-6.599a26 26 0 0 0-.022-3.384l-.081-.84c-.029-.278-.102-.541-.146-.818-.124-.541-.161-1.097-.365-1.615-.76-2.624-2.2-5.065-4.092-7.082l-1.111-1.11c-.395-.344-.819-.658-1.228-.987l-.621-.489-.672-.41c-.453-.27-.892-.562-1.352-.818l-1.433-.658c-.241-.102-.475-.226-.723-.314l-.753-.241-1.505-.475-1.549-.278c-3.223-.519-6.46-.146-9.581.629-.679.219-1.337.423-2.031.613-.322.088-.614.161-.885.234-.263.088-.504.168-.723.249-.438.139-.797.255-1.118.299-.629.088-1.045.03-1.418-.087-.168-.052-.372-.081-.482-.132-.183-.088-.044-.292.343-.672.38-.38 1.053-.855 1.988-1.301.672-.373 1.418-.607 2.149-.884.738-.256 1.468-.592 2.25-.738.782-.168 1.571-.329 2.361-.497.796-.161 1.622-.168 2.433-.249 3.281-.197 6.709.256 9.873 1.535l1.724.789c.57.271 1.089.643 1.637.965l.812.504.745.592c.49.409 1.016.76 1.461 1.213 1.879 1.71 3.384 3.807 4.524 6.065l-.051.03zM176.81 95.489c3.288-2.456 7.103-3.96 10.983-4.823 1.418-.322 2.85-.592 4.297-.716a31.5 31.5 0 0 1 7.644.3 28.2 28.2 0 0 1 7.315 2.199c2.054.943 4.027 2.126 5.766 3.573 1.111.928 2.17 1.937 3.076 3.084.848 1.177 1.63 2.426 1.959 3.866.234.877.088.797-.57.322-.658-.49-1.98-1.206-2.967-2.317-3.413-4.07-8.133-6.825-13.461-8.185-3.193-.818-6.708-.774-10.055-.307-3.683.512-7.337 1.63-10.538 3.515-1.966 1.155-3.756 2.638-5.32 4.334-2.353 2.565-4.282 5.62-5.364 8.923a20 20 0 0 0-.928 7.841c.073.57.132 1.132.183 1.71.38 2.104.263 2.842-.007 3.442-.066.131-.11.299-.176.394-.109.154-.277.022-.548-.336-.248-.358-.716-.928-.957-1.768-.797-2.47-.979-5.218-.614-7.915.351-2.703 1.22-5.363 2.455-7.819.439-.928.987-1.79 1.528-2.66.592-.84 1.176-1.681 1.849-2.455 1.322-1.564 2.784-3.018 4.421-4.26l.036.043z"/><path fill="#12111f" d="M136.959 131.299c1.082-3.405 2.953-6.584 5.496-9.113.943-.906 1.893-1.812 2.981-2.528 1.878-1.301 4.1-2.229 6.336-2.689 2.244-.483 4.553-.512 6.782-.212 1.98.27 3.946.709 5.787 1.439.592.242 1.184.468 1.747.775.577.27 1.133.599 1.673.95.278.153.519.38.768.585.241.212.497.409.723.643.453.467.855.979 1.184 1.534.424.687.205.687-.453.417a11 11 0 0 0-1.323-.482c-.504-.212-1.103-.417-1.666-.731-4.026-2.251-8.791-3.325-13.461-2.901-1.417.08-2.799.526-4.129 1.074-1.3.606-2.55 1.396-3.697 2.294-2.529 1.966-4.546 4.619-5.839 7.608a22.3 22.3 0 0 0-1.622 5.809c-.402 3.033-.234 6.19.628 9.12.658 2.28 1.805 4.341 3.186 6.175.322.395.629.782.972 1.155.614.709 1.001 1.198 1.228 1.6.248.38.321.68.314 1.009 0 .153.015.321-.015.446-.051.204-.27.233-.65.102-.38-.132-.921-.417-1.513-.906-1.761-1.462-3.149-3.428-4.238-5.554-1.067-2.141-1.769-4.502-2.105-6.899a24.9 24.9 0 0 1 .863-10.72l.058.015zM173.177 229.981a21.8 21.8 0 0 0-.673 4.494c-.029.753-.021 1.506.044 2.237.037.365.081.73.154 1.067.029.175.073.336.117.482q.033.12.065.197c.008.022.015.051.022.073a.24.24 0 0 0 .066.081l.037.021c.044.022.073.052.124.066q.131.043.263.095l.292.059c.402.058.855.022 1.33-.059 1.696-.343 3.413-1.425 4.911-2.66 1.52-1.249 2.865-2.74 4.063-4.34 1.074-1.418 1.959-2.982 2.704-4.582.475-1.031.862-2.098 1.272-3.157.401-1.06.76-2.134 1.264-3.194.446-.628.402-.555.621.124.117.344.219.819.3 1.404.058.577-.008 1.22-.169 1.9-.599 2.404-1.731 4.633-2.996 6.744-1.293 2.105-2.886 4.042-4.772 5.693-1.132.979-2.309 1.951-3.661 2.763-.665.409-1.388.767-2.163 1.037-.774.271-1.622.453-2.528.395a4 4 0 0 1-1.491-.366c-.124-.043-.234-.117-.351-.182-.139-.095-.314-.168-.416-.293-.11-.116-.234-.226-.315-.372-.087-.139-.182-.278-.226-.431-.205-.519-.271-.921-.358-1.367a15 15 0 0 1-.139-1.279c-.102-1.695.044-3.354.314-4.991.366-2.002.899-3.975 1.696-5.846 1.161-2.85 2.901-5.444 4.896-7.732 1.564-1.768 3.237-3.405 5.115-4.823.417-.307.804-.643 1.25-.913.804-.534 1.395-.797 1.841-.906.439-.125.76-.066 1.06.073.139.066.292.102.387.175.307.212-.161.979-1.257 1.739-3.23 2.317-6.409 4.97-8.784 8.324a24.7 24.7 0 0 0-3.873 8.243h-.044zM127.345 229.182c1.879-2.506 3.917-4.889 5.993-7.242.752-.855 1.505-1.724 2.287-2.557.68-.746 1.418-1.433 2.141-2.134.731-.694 1.433-1.418 2.207-2.068l2.273-1.995 2.36-1.886c.687-.57 1.418-1.096 2.141-1.622s1.418-1.089 2.149-1.593q1.423-.954 2.857-1.907c.972-.607 2.097-.965 3.186-1.316.702-.19.673-.014.307.578-.387.562-.972 1.724-2.039 2.397-3.792 2.396-7.271 5.232-10.822 8.111q-.787.659-1.564 1.359-.735.744-1.469 1.498c-.482.512-.979 1.009-1.454 1.535-.468.526-.943 1.052-1.411 1.571-2.09 2.273-4.048 4.67-5.985 7.089-1.154 1.52-2.345 3.018-3.427 4.589-.84 1.176-1.681 2.36-2.47 3.573a77 77 0 0 0-2.331 3.654c-1.162 1.915-2.112 3.895-3.15 5.846-.226.431-.431.863-.672 1.286-.431.804-.76 1.301-1.089 1.601-.314.307-.592.431-.921.475-.146.022-.307.066-.438.058-.417-.029-.373-.855.066-2.141 1.483-3.734 3.573-7.403 5.839-10.983.862-1.316 1.702-2.653 2.623-3.939l1.359-1.944 1.403-1.907.051.029zM92.97 269.104a38 38 0 0 1 2.74-4.472 31 31 0 0 1 1.608-2.083 18 18 0 0 1 1.863-1.907c.468-.438.936-.884 1.44-1.279.497-.402.979-.833 1.527-1.169 1.849-1.301 3.881-2.324 5.992-3.106 2.105-.774 4.283-1.352 6.504-1.644 1.966-.241 3.954-.402 5.927-.322 2.506.11 5.123.461 7.315 1.813.687.387.563.402-.132.438-.35.022-.84.059-1.425.124-.292.044-.599.052-.92.066-.161.008-.322 0-.49.008-.161-.022-.329-.044-.497-.081l-1.79-.204-.899-.044-.899-.088-1.798-.066c-.599 0-1.206.037-1.805.044a32 32 0 0 0-7.169 1.235c-2.828.804-5.524 2.375-7.892 4.202l-.972.767-.913.833c-.636.548-1.162 1.133-1.703 1.776a34 34 0 0 0-2.894 4.092c-1.067 1.769-2.01 3.618-2.638 5.554-.3.928-.519 1.878-.57 2.806-.022.461-.007.929.095 1.352.015.103.058.22.08.3q.031.1.073.197c.059.132.14.249.22.358.102.11.234.307.409.198.146-.081.248-.227.343-.358l.132-.212.175-.3.402-.753c.548-1.103 1.09-2.192 1.63-3.288.54-1.104 1.118-2.192 1.79-3.252.3-.46.592-.928.95-1.367 1.316-1.658 2.083-1.914 2.719-1.753.139.022.292.022.38.051.153.051.08.241-.073.606-.146.38-.475.797-.921 1.316-1.323 1.542-2.419 3.405-3.457 5.356q-.746 1.522-1.49 3.055l-.41.789-.11.197-.16.271a7 7 0 0 1-.475.701c-.336.431-.724.775-1.147.892a1.54 1.54 0 0 1-.687.044c-.227-.022-.417-.168-.621-.271l-.183-.102-.387-.424c-.066-.073-.132-.139-.19-.212l-.154-.263c-.102-.175-.212-.343-.307-.526-.087-.175-.168-.438-.204-.533a6 6 0 0 1-.256-1.564c-.037-1.009.124-1.951.336-2.843.446-1.783 1.147-3.413 1.922-4.984l.044.015z"/><path fill="#12111f" d="m107.444 280.894-.467 2.119c-.103.38-.19.76-.409 1.213-.052.11-.132.249-.242.373a1.3 1.3 0 0 1-.328.344c-.117.109-.271.175-.41.241-.16.029-.307.08-.467.102-.351-.022-.519-.007-.76-.08-.227-.037-.439-.139-.644-.242a2.76 2.76 0 0 1-.949-.884c-.556-.796-.753-1.637-.848-2.448a14.7 14.7 0 0 1 .219-4.18 19.6 19.6 0 0 1 1.177-3.931c.467-1.118.979-2.229 1.571-3.282a19 19 0 0 1 1.3-1.929c.242-.307.497-.599.804-.847l.446-.38c.154-.117.336-.212.504-.315.432-.241.417-.153.3.285-.117.453-.248 1.279-.665 1.988a22 22 0 0 0-1.133 1.871c-.365.628-.73 1.264-1.059 1.914a33 33 0 0 0-1.696 4.1c-.533 1.688-.752 3.639-.329 5.298.125.475.315.928.592 1.228.139.139.285.27.461.321.08.044.175.059.263.073.088.03.212.008.226.015.22 0 .315-.102.453-.541.117-.409.198-.884.271-1.352.19-1.257.394-2.565.716-3.844a21 21 0 0 1 2.258-5.539c.76-1.344 1.571-2.638 2.543-3.836.219-.256.409-.541.658-.768.46-.438.782-.701 1.074-.811.307-.095.541-.087.782-.007.11.036.234.051.314.095.146.08.161.248.103.504a2.3 2.3 0 0 1-.468.957c-.746 1.075-1.564 2.069-2.273 3.157a26 26 0 0 0-1.922 3.398c-.891 1.732-1.513 3.603-1.929 5.605h-.044z"/><path fill="#12111f" d="m112.486 280.118-1.155 2.324c-.212.395-.446.782-.723 1.191-.081.11-.146.205-.241.314l-.183.212a4 4 0 0 1-.219.183c-.139.124-.3.227-.468.307-.088.022-.19.015-.27.058l-.271.022c-.475-.051-1.001-.16-1.315-.394-.256-.139-.446-.351-.636-.563-.139-.226-.3-.46-.373-.687-.19-.468-.219-.906-.234-1.33.044-1.461.446-2.726.892-3.961a36 36 0 0 1 1.564-3.566 66 66 0 0 1 1.586-3.04c.358-.636.708-1.279 1.125-1.885q.32-.45.672-.877c.227-.292.563-.504.848-.745.387-.271.358-.205.248.197a7 7 0 0 0-.153.855 4.8 4.8 0 0 1-.387 1.059c-.68 1.265-1.396 2.514-2.032 3.808a60 60 0 0 0-1.885 3.902c-.344.789-.614 1.63-.789 2.477-.176.833-.256 1.718-.103 2.383.073.241.161.46.307.555.022.044.081.044.117.073.037.022.073.051.132.059.051.007.043.029.08.036l.095.015c.124.044.234-.051.307-.154.146-.204.292-.46.431-.73.27-.541.563-1.111.833-1.689.526-1.103 1.052-2.228 1.615-3.339a46 46 0 0 1 2.85-4.889c.811-1.22 1.615-2.433 2.609-3.537.212-.248.446-.468.694-.687.461-.409.819-.606 1.118-.679.293-.074.512-.052.731.036.102.044.212.066.285.117.249.168.015.658-.468 1.345-.409.453-.752.972-1.162 1.425a33 33 0 0 0-1.154 1.454 37 37 0 0 0-2.134 3.164 55 55 0 0 0-2.733 5.174l-.044-.015zM88.37 304.447l.65-1.315.578-1.359c.409-.899.716-1.842 1.06-2.77.248-.679.387-1.396.613-2.083.205-.606.366-1.22.548-1.834.176-.614.366-1.227.52-1.849.299-1.249.62-2.492.847-3.763.11-.563.204-1.125.3-1.688.065-.57.16-1.133.233-1.696a73 73 0 0 0 .285-2.17q.198-1.083.504-2.156c.14-.445.147-.387.242.015.102.395.35 1.133.453 1.995.022.76-.03 1.513-.073 2.265-.051.753-.08 1.513-.205 2.258-.241 1.498-.504 2.989-.899 4.465-.212.892-.424 1.798-.636 2.704-.182.921-.445 1.827-.708 2.719-.585 1.973-1.338 3.895-2.163 5.78l-.826 1.717c-.285.57-.614 1.111-.914 1.674-.453.848-1.016 1.637-1.527 2.448-.585.767-1.103 1.578-1.725 2.302l-.68.877c-.226.292-.482.562-.715.847l-.717.848-.774.789c-.234.234-.446.475-.694.687-.95.775-1.47.731-1.857.629-.095-.029-.197-.037-.255-.073-.11-.059-.095-.19 0-.431.095-.234.234-.592.511-.921.439-.453.833-.958 1.286-1.411.453-.445.87-.935 1.294-1.417.438-.468.84-.98 1.242-1.491.424-.497.804-1.03 1.177-1.564.592-.775 1.074-1.63 1.615-2.448.46-.87.994-1.695 1.388-2.609l.044.015zM81.212 292.804a72 72 0 0 1-4.706 7.622l-.957 1.33c-.33.438-.658.877-1.002 1.3-2.477 2.953-5.342 5.671-8.754 7.571l-.263.146c-.08.044-.08.051-.14.066-.028.029-.08.044-.116.066-.037.029-.03.08-.037.124l-.029.329-.073 1.096c-.03.738-.058 1.476-.095 2.214-.044 1.067-.051 2.142-.132 3.216a34 34 0 0 1-.409 3.208c-.131.665-.343.548-.555-.037a10 10 0 0 1-.563-2.857c-.058-1.337 0-2.667.008-4.012l.043-2.024.051-1.038c.03-.292.037-.658.14-.943.043-.058.08-.131.13-.182l.074-.081.022-.022c.051.03-.066-.058-.051-.043l.007-.015.044-.037c.117-.095.226-.204.358-.285.08-.065.175-.109.263-.16l.212-.117.263-.146c.175-.095.358-.183.526-.293l1.023-.643c.665-.46 1.338-.921 1.98-1.439 2.025-1.564 3.713-3.684 5.306-5.788a67 67 0 0 0 4.765-7.352 77 77 0 0 0 2.492-4.815c1.169-2.478 2.272-5.014 3.171-7.586q.316-.888.577-1.776l.592-2.06.19-.424c.037-.059.08-.11.117-.161l.015-.022h.007v-.014c.102.153.03.043.051.073 0 0 .03-.022.044-.03l.088-.051c.205-.182.548-.168.877-.153l1.483.058 1.36.022c.847.007 1.38.11 1.76.205.38.131.6.27.812.475.095.095.219.168.285.248.117.132.014.314-.314.512a3.65 3.65 0 0 1-1.513.482c-.862.124-1.717.088-2.58.088l-.643-.015h-.16c-.052 0-.118-.007-.11 0-.03 0-.037.007-.051.015-.044.007-.073.036-.059.087.08-.175-.175.636-.321 1.111-.168.534-.351 1.067-.534 1.601a83 83 0 0 1-1.184 3.178 90 90 0 0 1-3.77 8.192l-.044-.022z"/><path fill="#12111f" d="M73.165 325.017c1.11.541 2.258 1.067 3.413 1.6.424.19.862.336 1.279.541l.11.051.021.015.051.036.117.059.154.117c.043.022.131.124.146.051.036-.08.051-.175.073-.292l.03-.183.014-.11.022-.226.087-.979c.073-.724.088-1.462.198-2.185.066-.461.095-.936.226-1.396.154-.453.33-.899.592-1.316.168-.255.241-.19.373.095.131.285.38.782.468 1.308.014.117.036.234.043.344l-.014.336-.022.672c-.015.453-.008.899-.073 1.352-.117 1.096-.234 2.193-.351 3.318-.015.577-.227.943-.446 1.162a.2.2 0 0 1-.11.058h-.036l-.022.015.03.051h-.081l-.3-.022-.591-.029c-.38-.153-.76-.292-1.155-.438l-.746-.315-3.485-1.527c-.724-.314-1.44-.658-2.156-1.001-1.089-.526-2.141-1.147-3.172-1.769-.796-.489-1.644-.884-2.411-1.403-.168-.109-.35-.204-.519-.329a2.7 2.7 0 0 1-.358-.321.8.8 0 0 1-.16-.322c-.06-.204-.023-.394.072-.628.044-.102.073-.212.124-.307.154-.285.622-.365 1.17-.197 1.476.679 2.784 1.6 4.18 2.397a35 35 0 0 0 3.244 1.666l-.014.044zM70.594 314.384c.709.483 1.454.936 2.214 1.367.277.153.577.263.855.424a49 49 0 0 0 3.003 1.586c.453.212.928.387 1.396.577l.899.351c.307.095.555.35.833.533.168.132.11.219-.11.314a5 5 0 0 1-.438.176 3 3 0 0 1-.285.08c-.051.015-.095.015-.153.037a.5.5 0 0 1-.14-.022c-.643-.161-1.3-.285-1.921-.534a15 15 0 0 1-1.813-.855c-.701-.394-1.505-.643-2.25-.994a36 36 0 0 1-3.822-2.177c-.716-.453-1.403-.965-2.09-1.447-.541-.373-1.126-.687-1.666-1.074-.117-.088-.256-.147-.351-.263a3 3 0 0 1-.212-.278c-.044-.088-.051-.19-.059-.271 0-.168.044-.314.14-.482.043-.073.08-.153.124-.219.146-.205.49-.227.92-.146.563.197.98.533 1.447.847l1.367.994c.687.49 1.38.994 2.119 1.447l-.022.037zM127.609 296.123c-.87-2.39-1.52-4.852-2.134-7.308-.19-.906-.438-1.797-.621-2.704-.161-.796-.263-1.607-.395-2.411l-.182-1.206-.132-1.213c-.08-.811-.19-1.615-.248-2.426l-.081-1.213-.036-.607v-.299s0-.03-.015-.037c0-.088 0-.168-.007-.256-.008-.036.014-.102-.044-.109a.3.3 0 0 0-.124 0c-.168.007-.329.036-.505.066l-.993.146-1.06.139c-.928.102-1.878.211-2.843.124a8 8 0 0 1-1.439-.278c-.475-.124-.921-.409-1.33-.68-.497-.394-.315-.467.226-.54a6.6 6.6 0 0 0 1.052-.271 6.6 6.6 0 0 1 1.309-.212c.54-.051 1.088-.043 1.644-.087a28 28 0 0 0 1.695-.176l2.119-.299c.585-.073 1.162-.073 1.535.16.088.059.212.103.263.22.08.073.102.204.154.307.095.212.175.431.285.643.095 1.534.102 1.812.124 2.535.007.644.051 1.287.095 1.93.073 1.103.182 2.229.402 3.339.197 1.118.409 2.236.665 3.34.475 2.441 1.147 4.838 1.87 7.22.49 1.454.98 2.908 1.579 4.319.884 2.141 1.849 4.282 3.04 6.255.906 1.542 1.966 2.952 3.091 4.29.249.292.49.584.753.869.482.527.745.921.899 1.221.16.299.175.555.131.818-.014.117-.007.249-.036.336-.052.263-.775.139-1.652-.592-2.441-2.272-4.37-5.195-5.992-8.25-.621-1.125-1.14-2.309-1.681-3.471-.482-1.191-1.001-2.368-1.425-3.588l.044-.022zM115.993 319.096c-2.806.49-5.627.914-8.448 1.286-1.03.132-2.053.315-3.083.424q-5.46.59-10.962.731c-1.622.029-3.26.037-4.882-.015-1.037-.051-2.09-.073-3.12-.285-.519-.08-1.03-.211-1.542-.358-.504-.153-1.016-.321-1.454-.65-.548-.387-.468-.3.08-.212.563.073 1.564.037 2.704.102 4.078.242 8.25-.051 12.453-.212 2.521-.117 5.122-.526 7.68-.862 2.813-.373 5.627-.804 8.426-1.301 1.724-.314 3.442-.628 5.152-.993 2.594-.549 5.188-1.14 7.709-1.879 1.959-.577 3.837-1.293 5.686-2.053.402-.175.796-.358 1.205-.526.746-.329 1.257-.504 1.645-.563.38-.066.65-.007.913.132.117.065.263.117.351.182.292.22-.168.863-1.264 1.491-3.311 1.739-7.038 2.843-10.787 3.8-2.791.702-5.619 1.272-8.447 1.805zM106.934 328.758c3.23-.424 6.468-.891 9.661-1.549 1.169-.227 2.324-.512 3.486-.782 4.107-.884 8.17-1.966 12.167-3.266.877-.293 1.761-.563 2.616-.914l1.287-.504.643-.256.321-.124.124-.051c.037 0 .022-.059.103 0l.022-.022c.058-.037.073-.11.08-.176l.022-.263.066-.884.109-1.783c.073-1.191.154-2.375.227-3.566.051-.738.263-.643.497-.015.226.636.497 1.805.511 3.194v2.06l-.036 1.045-.015.337-.087.497c-.052.146-.176.241-.256.365l-.015.022h-.007v.014c-.066-.058.088.081.073.066l-.051.029-.103.052-.204.109c.095.124.022.037.044.066h-.03l-.036.022-.073.029-.146.059-.227.095c-.102.043-.204.095-.307.131l-.614.249-1.235.497c-.818.343-1.666.628-2.506.92-.841.285-1.681.585-2.536.848-.855.248-1.71.497-2.572.731-2.865.76-5.817 1.615-8.769 2.294-3.252.709-6.519 1.345-9.807 1.82-2.025.322-4.056.548-6.088.797-3.084.306-6.19.533-9.273.606-2.39.102-4.75.117-7.132-.058a29 29 0 0 1-1.564-.22c-.49-.087-.892-.146-1.22-.233-.337-.103-.6-.19-.812-.278-.431-.183-.657-.336-.826-.519-.073-.08-.182-.168-.219-.241-.124-.227.702-.263 2.068-.11.512.037 1.038.037 1.564.059.526.014 1.045.044 1.579.014 1.06-.014 2.119.03 3.2-.044 1.075-.043 2.156-.021 3.252-.095a70 70 0 0 0 3.281-.182c3.26-.219 6.533-.526 9.793-.943v.044zM232.99 150.727c.592-.658 1.22-1.308 2.01-1.82l.592-.38.65-.299c.424-.227.913-.3 1.374-.431.468-.088.964-.103 1.432-.117l1.345.131c.438.095.869.212 1.301.314.423.139.825.315 1.235.475 1.147.556 2.265 1.17 3.186 2.003 1.673 1.41 2.996 3.106 4.165 4.852a39 39 0 0 1 1.615 2.697c.249.467.49.898.731 1.388l.343.782.234.804c.453 1.914.424 3.829.249 5.671-.117 1.183-.278 2.367-.578 3.515-.292 1.147-.621 2.287-1.205 3.332-.505.606-.424.519-.563-.168-.081-.344-.117-.804-.176-1.359a8.7 8.7 0 0 1 .117-1.798c.176-1.14.373-2.265.512-3.391.124-1.118.205-2.243.146-3.332-.058-1.082-.241-2.134-.636-3.018-.073-.212-.226-.483-.365-.746l-.409-.774c-.278-.512-.563-1.016-.848-1.528-1.388-2.404-3.31-4.633-5.554-6.182-2.397-1.688-5.7-2.506-8.009-.694-1.432 1.081-2.543 2.689-3.42 4.392-.68 1.293-1.257 2.66-1.798 4.048l-.796 2.098a18 18 0 0 0-.658 2.068c-.263 1.074-.3 2.148.022 3.091.314.943.986 1.724 1.805 2.389.358.3.76.57 1.155.848 1.483 1.023 1.973 1.33 2.126 1.907.037.125.102.264.11.373.036.358-.819.322-2.105-.329-.957-.497-1.856-1.037-2.762-1.783-.892-.738-1.739-1.79-2.112-3.084-.38-1.286-.263-2.616-.007-3.763.248-1.162.665-2.244 1.023-3.23 1.103-3.025 2.258-6.204 4.494-8.989l.044.03zM213.742 216.438c-2.214-1.038-4.172-2.441-5.919-4.1-1.717-1.673-3.259-3.624-4.085-6.043-.292-.877-.482-1.82-.468-2.792 0-.964.227-1.958.658-2.828.753-1.549 1.98-2.696 3.259-3.603a17.8 17.8 0 0 1 4.151-2.082 20.4 20.4 0 0 1 4.465-1.067c1.527-.168 3.077-.256 4.692.19.445.153.855.285 1.322.672.154.139.293.307.388.497.102.183.168.409.204.555.081.337.117.643.139.936.044.592.037 1.162.044 1.71 0 .27.007.548.022.804.014.248.044.548.073.672a.9.9 0 0 0 .146.358c.08.102.227.139.343.102.074-.014.242-.087.351-.131l.19-.073.271-.117q.546-.232 1.059-.519a8.4 8.4 0 0 0 1.849-1.367c1.104-1.067 1.805-2.506 2.704-3.909.358-.409.533-.585.57-.548.044.036-.015.277.007.767s-.058 1.14-.226 1.944a6.7 6.7 0 0 1-1.301 2.528c-.731.899-1.674 1.645-2.653 2.207-.497.285-1.001.519-1.512.731-.322.117-.768.263-1.14.387-.417.125-.929.073-1.338-.124a2.14 2.14 0 0 1-.928-1.023c-.197-.438-.285-1.016-.314-1.293-.066-.6-.059-1.133-.073-1.645 0-.511 0-1.001-.044-1.432a4 4 0 0 0-.08-.541c-.03-.087 0-.029-.015-.058 0-.008-.007-.015-.007-.022.022.022-.073-.059-.161-.095-.073-.051-.197-.088-.3-.132a4.7 4.7 0 0 0-.782-.182 10 10 0 0 0-1.819-.095c-1.264.043-2.558.241-3.829.54-1.9.439-3.793 1.213-5.401 2.339-1.6 1.125-2.872 2.674-3.084 4.458-.263 1.973.68 4.07 1.959 5.824 1.308 1.768 2.974 3.317 4.823 4.574 1.133.775 2.353 1.44 3.624 1.915.644.227 1.265.424 1.944.482l1.009.125h1.023c2.068-.037 4.136-.519 6.094-1.279a24 24 0 0 0 5.518-3.018c2.66-1.893 4.881-4.253 6.803-6.826.409-.577.819-1.132 1.221-1.724.708-1.111 1.242-1.805 1.644-2.28s.731-.695 1.074-.833c.154-.066.322-.169.439-.19.35-.103.168 1.059-.746 2.879-2.967 5.21-7.636 9.975-13.497 12.825-2.178 1.045-4.531 1.812-6.994 2.068l-.92.095h-.936c-.621.022-1.249-.051-1.878-.124-1.279-.11-2.521-.556-3.639-1.053l.015-.044zM247.869 201.978c.818.87 1.695 1.74 2.762 2.361.366.263.797.416 1.191.636a18 18 0 0 0 4.553 1.658c.716.139 1.44.278 2.163.337.935.065 1.864.138 2.806.314.293.058.256.226 0 .431a2.9 2.9 0 0 1-1.286.555c-.497.081-.994.066-1.498.066a15 15 0 0 1-1.505-.08c-.249-.022-.505-.044-.753-.088l-.738-.183c-.49-.124-.979-.255-1.462-.445q-.43-.163-.869-.293l-.877-.321c-.599-.19-1.169-.453-1.732-.731-.314-.139-.607-.329-.899-.512-.292-.19-.592-.358-.862-.57-.541-.431-1.104-.833-1.571-1.344-.629-.57-1.14-1.25-1.659-1.907a19.7 19.7 0 0 1-1.849-3.311 44 44 0 0 1-1.177-2.66c-.065-.204-.146-.394-.182-.606a3 3 0 0 1-.073-.497c0-.139.043-.263.073-.366a.85.85 0 0 1 .336-.438c.073-.051.131-.117.197-.146.197-.11.534.146.906.621.694 1.498 1.228 3.054 1.995 4.501l.424.804.497.76c.307.534.738.958 1.111 1.44l-.029.029zM262.786 229.5a67 67 0 0 0-.862-4.217c-.117-.511-.3-1.008-.424-1.52-.453-1.819-.906-3.639-1.359-5.451a90 90 0 0 0-.651-2.412c-.285-1.023-.504-2.075-.592-3.149-.029-.337.117-.315.358-.081.227.234.585.673.804 1.235.424.994.767 2.003 1.111 3.018.351 1.016.68 2.039.921 3.106.299 1.272.811 2.529 1.198 3.815a70 70 0 0 1 1.155 4.282c.19.899.38 1.79.526 2.689.256 1.359.38 2.755.511 4.136.066 1.075.264 2.149.183 3.245-.022.241.007.482-.051.723-.19.892-.387 1.148-.87 1.221-.109.014-.226.044-.328.044-.359-.008-.585-.417-.629-1.023-.205-1.791-.168-3.574-.387-5.452-.183-1.388-.358-2.791-.665-4.195l.044-.014z"/><path fill="#12111f" d="M271.626 298.163c1.432 1.067 3.011 1.885 4.699 2.28.424.095.84.212 1.279.219.438.022.847.11 1.308.088a15.5 15.5 0 0 0 2.674-.212c1.747-.307 3.413-.943 4.845-1.951a11.8 11.8 0 0 0 1.995-1.725 14 14 0 0 0 1.652-2.119c1.439-2.229 2.346-4.816 3.025-7.454 1.191-4.684 1.557-9.624 1.549-14.55-.021-4.932-.438-9.88-1.103-14.79-.599-4.363-1.469-8.711-2.514-12.95a150 150 0 0 0-2.265-8.118l-1.199-4.042c-.409-1.344-.84-2.674-1.184-4.048-.38-1.725-.211-1.557.746-.322.979 1.221 2.455 3.64 3.551 6.745 1.798 5.54 3.187 11.203 4.253 16.932 1.045 5.737 1.762 11.554 1.879 17.444.08 3.515.051 7.11-.264 10.735-.314 3.61-.913 7.264-2.163 10.742-.694 1.9-1.593 3.764-2.791 5.452-1.191 1.688-2.711 3.193-4.509 4.297-.899.548-1.863.979-2.843 1.322-.994.314-2.009.556-3.04.673-1.03.116-2.046.168-3.084.095-.518-.059-1.045-.074-1.556-.176-.512-.117-1.023-.226-1.527-.358-2.463-.76-4.619-2.2-6.431-3.895-1.82-1.71-3.332-3.668-4.67-5.715-3.982-6.277-6.474-13.285-8.564-20.235-1.615-5.415-2.982-10.786-4.085-16.266-.249-1.206-.483-2.39-.695-3.61a75 75 0 0 1-.423-2.872 17 17 0 0 1-.095-1.981c.014-1.074.175-1.71.365-2.229.08-.233.146-.54.205-.679.109-.234.277.109.599.906.329.796.687 2.053 1.037 3.683.892 4.86 1.922 9.822 3.143 14.798 1.227 4.977 2.638 9.982 4.436 14.835 1.315 3.61 2.857 7.132 4.735 10.442 1.885 3.282 4.151 6.373 7.03 8.565l-.029.051z"/><path fill="#12111f" d="M281.107 251.722a53 53 0 0 1-3.559 1.71c-.439.197-.863.424-1.308.599-1.586.599-3.223 1.103-4.911 1.367-.745.116-1.498.248-2.258.292-.965.029-1.973-.059-2.879-.461-.285-.116-.19-.248.095-.365.138-.058.328-.117.54-.168q.33-.099.702-.132c.446-.029.884-.095 1.323-.175.438-.073.877-.124 1.315-.205.884-.16 1.761-.394 2.667-.606 1.089-.249 2.141-.789 3.179-1.272a49 49 0 0 0 3.398-1.739c.68-.394 1.367-.782 2.032-1.198 1.008-.636 2.024-1.279 2.952-2.017.716-.578 1.345-1.243 2.01-1.856.146-.139.27-.285.424-.417.606-.431.884-.482 1.256-.314.088.036.176.066.249.109.234.147.183.541-.11 1.06-.204.402-.482.731-.774 1.06q-.428.493-.899.964a23 23 0 0 1-2.076 1.652 40 40 0 0 1-3.346 2.148l-.03-.036zM284.6 234.022c.073.709-.183 1.432-.672 1.871-.169.161-.344.336-.563.416-.782.285-1.637.066-2.105-.584a1.56 1.56 0 0 1-.307-.892c-.029-.373.095-.84.497-1.023.124-.051.241.161.38.387.132.227.358.417.409.446.066.066.161.117.19.102l-.08.044-.029.022h-.007v.015c-.044.051.058-.073.051-.059 0 0-.022.052 0 .095.022.066.095.081.153.066.059-.014.102-.036.154-.051a.48.48 0 0 0 .292-.322.6.6 0 0 0 0-.343.7.7 0 0 0-.059-.124c-.014-.015-.036-.044 0-.081v.015c0 .044-.043 0-.095.058-.043.037-.036.095-.021.161 0 .073.007.154.014.227 0 .036.022.087 0 .117-.08.139-.241.175-.679.087l-.3-.058c-.322-.08-.585-.234-.68-.46-.168-.337-.102-.746.176-1.206.372-.468.928-.775 1.68-.724.278.022.592.125.848.307.146.11.183.139.249.219.065.066.117.139.168.212.197.307.336.658.387 1.016l-.044.015zM252.745 285.79a69 69 0 0 1-2.039-1.827c-.248-.219-.519-.416-.753-.643a44 44 0 0 1-2.418-2.535c-.359-.373-.709-.746-1.067-1.119-.453-.475-.899-.964-1.257-1.52-.11-.175 0-.241.234-.226.226.015.606.088.913.307.541.394 1.111.745 1.6 1.176.49.432.972.885 1.425 1.367.527.599 1.213 1.067 1.835 1.586a56 56 0 0 0 2.075 1.68c.431.337.87.673 1.315.994.673.49 1.345.987 2.061 1.396.563.307 1.155.548 1.732.811.124.059.256.103.38.168.46.234.534.453.431.877-.022.095-.036.198-.073.293-.109.306-.431.445-.84.38a9.6 9.6 0 0 1-1.739-.57c-.563-.242-1.082-.585-1.608-.914a27 27 0 0 1-2.229-1.637l.022-.036zM177.541 277.552a11.8 11.8 0 0 1 .607-5.663c.635-1.783 1.615-3.384 2.777-4.794 2.331-2.821 5.327-4.933 8.586-6.402 3.259-1.447 6.855-2.316 10.545-1.995 1.834.168 3.683.665 5.335 1.608 1.659.921 3.062 2.316 4.034 3.917.745 1.198 1.235 2.645 1.22 4.114-.007 1.462-.475 2.989-1.498 4.165-1.045 1.177-2.66 1.798-4.151 1.754-.373-.014-.731-.073-1.096-.109-.351-.081-.694-.183-1.038-.271-.329-.109-.635-.255-.95-.38a5.3 5.3 0 0 1-.913-.445c-2.105-1.155-3.844-2.894-5.035-4.897-1.213-1.995-2.01-4.202-2.419-6.46-.395-2.265-.446-4.589-.051-6.876a22.8 22.8 0 0 1 2.221-6.446c2.105-4.033 5.189-7.446 8.77-10.157 1.812-1.345 3.807-2.499 6.007-3.208 2.185-.716 4.647-.921 6.942-.212 2.097.694 3.771 2.258 4.735 4.143.49.943.826 1.973.943 3.055.11 1.081-.037 2.229-.526 3.252a5.7 5.7 0 0 1-2.273 2.441c-.972.555-2.061.833-3.12.884-2.127.117-4.202-.483-5.993-1.425-4.647-2.412-8.031-7.169-8.491-12.496-.088-1.338.036-2.653.299-3.932.278-1.271.644-2.536 1.25-3.69.585-1.162 1.279-2.273 2.119-3.26a13.3 13.3 0 0 1 2.953-2.513l.913-.497c.27-.11.49-.19.665-.249.351-.117.512-.139.512-.087 0 .058-.161.197-.453.416-.147.11-.329.227-.527.387q-.296.252-.657.57c-.958.87-2.09 2.31-2.975 4.232-.241.467-.423.993-.628 1.52-.175.54-.336 1.103-.504 1.673a17.8 17.8 0 0 0-.643 3.668 10.4 10.4 0 0 0 .299 3.325 13.5 13.5 0 0 0 1.235 3.172 14.4 14.4 0 0 0 4.56 5.013c1.878 1.264 4.107 2.054 6.168 1.885 1.008-.087 1.922-.438 2.565-1.052.643-.592 1.001-1.403 1.06-2.36.087-1.929-1.06-4.107-2.712-5.284-.409-.307-.862-.519-1.322-.687-.234-.087-.512-.138-.768-.212-.263-.051-.533-.087-.803-.131-1.082-.117-2.207-.022-3.318.241-2.229.534-4.385 1.695-6.336 3.128a31 31 0 0 0-5.334 5.042c-1.871 2.258-3.391 4.852-4.29 7.673a17.5 17.5 0 0 0-.555 8.755c.57 2.908 1.797 5.744 3.807 7.856a10.7 10.7 0 0 0 3.515 2.44c.329.132.658.293.986.358l.49.132.49.051c.16.029.321.037.482.015.153-.015.314-.008.468-.022.292-.081.606-.124.869-.271 1.213-.526 1.988-1.885 2.017-3.317a5 5 0 0 0-.351-2.134c-.102-.351-.314-.665-.475-1.001l-.665-.965a9.3 9.3 0 0 0-3.653-2.813c-1.433-.622-3.033-.914-4.641-.943-3.237-.044-6.511.891-9.456 2.382-2.938 1.498-5.612 3.625-7.498 6.285-1.154 1.637-1.951 3.508-2.199 5.444-.015.482-.095.972-.037 1.462l.044.73c.044.242.066.483.117.724.19.964.519 1.914.921 2.857.804 1.878 1.9 3.705 2.747 5.707.841 2.025 1.338 4.224 1.382 6.417.029 1.658-.125 3.332-.519 4.947a20.8 20.8 0 0 1-1.761 4.648c-1.586 2.908-3.917 5.473-6.848 7.088-5.846 3.274-13.3 2.93-18.89-.497-.541-.343-1.082-.679-1.571-1.089-.519-.372-.98-.811-1.447-1.249-.95-.87-1.776-1.973-2.134-3.347-.168-.687-.168-1.506.205-2.222.336-.694 1.015-1.279 1.819-1.454.804-.183 1.557.015 2.192.278a6.5 6.5 0 0 1 1.718 1.11c.497.446.957.994 1.293 1.564.336.556.636 1.14.87 1.754a11.3 11.3 0 0 1 .753 3.829c.065 2.624-.753 5.203-2.112 7.396a17.3 17.3 0 0 1-4.633 4.896 19.7 19.7 0 0 1-4.692 2.463c-1.374.489-2.507.782-3.464.913-.95.146-1.71.161-2.338.161-.629-.044-1.133-.095-1.571-.19-.402-.088-.929-.161-1.162-.234-.395-.139.233-.3 1.637-.636 1.395-.365 3.573-.847 6.182-1.885 1.922-.782 3.727-1.856 5.283-3.216 1.535-1.366 2.843-3.003 3.691-4.845.847-1.834 1.235-3.88.986-5.846a9 9 0 0 0-.833-2.82c-.212-.439-.475-.899-.723-1.214a5 5 0 0 0-.958-.928 3.7 3.7 0 0 0-1.088-.562c-.351-.103-.607-.073-.746 0a.9.9 0 0 0-.402.475c-.073.212-.087.519.029.891.103.373.3.782.556 1.162.27.395.541.738.935 1.096.395.351.76.724 1.191 1.031l.629.475c.219.146.446.285.672.424 3.581 2.258 8.104 3.01 12.262 2.214 3.092-.607 5.964-2.09 8.083-4.407a17.37 17.37 0 0 0 4.297-8.279c.329-1.542.46-3.135.343-4.699-.124-1.571-.497-3.091-1.067-4.568-.599-1.483-1.417-2.966-2.192-4.567-.775-1.586-1.513-3.332-1.798-5.269l.051-.029zM201.618 313.954c-2.2 1.498-4.385 3.04-6.489 4.677l-.768.636-.38.321-.087.074s-.015 0-.022.007c-.008.014-.022.022-.03.029l-.299.227-.168.131-.081.073s-.08.081-.029.066l.373-.037.343-.029 1.33-.153c2.346-.256 4.692-.556 7.038-.76 4.143-.373 8.286-.687 12.437-.936 4.151-.241 8.309-.445 12.489-.438.716-.007 1.432.022 2.156.044.358.007.716.014 1.081.051l1.038.08c.183.051.745-.292 1.206-.548.475-.277.943-.584 1.41-.884.936-.614 1.864-1.25 2.777-1.893 3.837-2.682 7.534-5.619 11.692-7.877 1.367-.6 1.155-.556.307.394-.416.483-1.03 1.133-1.761 1.944-.752.775-1.688 1.608-2.747 2.448-.483.373-.958.76-1.447 1.133l-1.491 1.074-3.004 2.134a134 134 0 0 1-3.062 2.083c-.518.343-1.052.672-1.607 1.001-.278.161-.556.321-.877.482-.168.08-.3.146-.57.249-.285.073-.577.16-.877.124l-.935-.081c-.278-.022-.549-.058-.841-.058l-1.717-.059c-1.162 0-2.324-.014-3.493.015-2.339.029-4.692.124-7.045.212-5.758.241-11.736.862-17.604 1.462l-3.771.401-1.944.227c-1.03.124-2.075.278-3.098.424l-.461-.015c-.146-.007-.343 0-.38-.036l-.445-.154-.227-.08-.109-.037s-.044 0-.052-.022a.2.2 0 0 1-.022-.073c0-.16.037-.292.103-.46.19-.336.365-.738.921-1.25a23 23 0 0 1 1.812-1.52l5.013-3.763c3.237-2.375 6.562-4.641 10.011-6.723 2.617-1.571 5.299-3.055 8.17-4.195a23 23 0 0 1 2.207-.745c.19-.059.38-.103.57-.146.19-.044.432-.066.643-.095q.592-.035 1.162-.059c1.528-.051 3.033-.044 4.546-.058 4.684 0 9.273-.037 13.906.044 1.023.029 2.017.021 3.048.065 1.907.066 3.164.19 4.041.402.438.095.782.19 1.059.3.278.124.497.263.687.394.176.125.41.234.505.329.328.271-1.243.534-4.012.534-4.107-.095-8.346-.139-12.635-.183-2.149 0-4.305-.015-6.475-.022-1.082.007-2.163.022-3.245.029l-1.607.044-.775.044c-.197.029-.3.007-.585.095-2.893.782-5.795 2.251-8.579 3.8-2.791 1.579-5.517 3.318-8.184 5.145l-.03-.03zM246.233 321.466l4.026 1.243c.49.153.994.248 1.477.409 1.724.541 3.405 1.22 5.115 1.798q1.142.383 2.273.767c.482.168.979.299 1.447.504.467.212.928.468 1.381.716.277.161.219.198-.073.227-.293.022-.841.117-1.447.095-1.045-.11-2.039-.388-3.055-.607a44 44 0 0 1-2.967-.964c-1.176-.424-2.455-.68-3.683-1.045l-4.048-1.177c-.833-.234-1.667-.475-2.5-.687-1.264-.329-2.535-.679-3.814-.913-.994-.19-1.988-.249-2.967-.358-.219-.022-.431-.03-.651-.066-.789-.139-1.015-.366-1.147-.789-.029-.095-.073-.19-.088-.278-.051-.285.322-.534.965-.643 1.885-.161 3.771.219 5.627.643 1.381.321 2.755.701 4.122 1.074v.044z"/><path fill="#12111f" d="M270.635 311.117a51 51 0 0 1 3.171 1.856c1.038.673 2.076 1.352 3.033 2.222.175.168.351.314.526.489l.146.139c.066.066.139.132.205.205.124.146.234.285.358.431.446.555.884 1.264.46 1.754-.095.241-.372.453-.635.65l-.41.293-.372.255-.965.643-1.922 1.279a113 113 0 0 0-3.771 2.631c-1.096.804-2.141 1.681-3.164 2.543-1.301 1.14-2.484 2.346-3.895 3.384-.424.343-.424.27-.307-.227.081-.321.168-.68.263-1.045.139-.416.38-.855.687-1.279 2.375-2.835 5.335-4.932 8.353-6.898a64 64 0 0 0 2.696-1.864l1.089-.796a2 2 0 0 0 .212-.161c.059-.066-.051-.153-.08-.227a1.5 1.5 0 0 0-.227-.263c-.19-.19-.409-.365-.628-.548-.439-.358-.914-.694-1.381-1.037a39 39 0 0 0-3.004-1.886 62 62 0 0 0-3.902-2.046c-2.01-.957-4.063-1.871-6.153-2.601-1.63-.57-3.274-.972-4.918-1.345-.366-.08-.716-.168-1.074-.263-1.345-.322-1.703-.738-1.922-1.162-.052-.102-.125-.197-.147-.278-.043-.139.088-.226.373-.321a3.4 3.4 0 0 1 1.264-.168c.782.08 1.586.138 2.375.314.782.168 1.572.365 2.353.592a55 55 0 0 1 4.655 1.6c2.28.899 4.509 1.944 6.702 3.077l-.022.044zM304.664 291.549c1.177.073 2.354.109 3.53.197.431.029.862 0 1.294.037 1.512.138 3.032.27 4.552.409q1.01.119 2.017.183c.431.043.855.058 1.286.124.424.073.848.168 1.272.277.263.074.212.183-.022.315-.241.131-.672.343-1.162.409-1.739.131-3.464.278-5.21.044-1.045-.117-2.134-.008-3.208 0-1.177.014-2.361-.022-3.545-.044l-2.185-.037c-1.103-.007-2.214-.051-3.31-.014-.855 0-1.695.146-2.543.139-.19 0-.373.022-.556-.015-.694-.11-.913-.263-1.045-.621-.029-.081-.073-.161-.087-.234-.059-.256.234-.482.738-.658.753-.285 1.52-.431 2.294-.504a16 16 0 0 1 2.354-.117c1.176 0 2.36.059 3.544.073v.051zM221.205 291.319l9.493.256c1.155.029 2.309 0 3.464.029 4.07.088 8.133.315 12.204.417 1.805.051 3.617.058 5.407.058 2.302 0 4.611.015 6.913.285.717.073.622.147.015.3-.358.088-.789.197-1.257.314a9 9 0 0 1-1.798.285c-2.353.19-4.698.22-7.052.241-2.353.022-4.713.008-7.081-.065-2.835-.073-5.78.022-8.681-.008l-9.566-.109c-1.958-.022-3.924-.044-5.883-.073-2.967-.022-5.955-.095-8.9-.059-2.295.022-4.539.168-6.804.256-.497.022-.986.036-1.491.036-.935 0-1.549-.058-1.98-.182-.431-.117-.68-.271-.877-.49-.088-.102-.212-.197-.263-.292-.175-.307.585-.614 1.944-.848 2.024-.263 4.107-.373 6.219-.424 2.112-.058 4.253-.073 6.394-.08 3.186-.015 6.387.058 9.58.11v.051zM203.949 154.251c.278-.161.628-.57.848-1.111.241-.534.365-1.147.489-1.754.073-.446.051-.906.037-1.33 0-.205-.059-.621-.081-.782-.007-.066 0-.066-.065-.197l-.212-.388c-.059-.073-.095-.16-.307-.263-.19-.102-.439-.182-.687-.263a10 10 0 0 0-1.681-.277c-.789-.059-1.593-.022-2.382.058l-1.528.124c-.504.066-1.037 0-1.549.03-.329 0-.314-.081-.088-.315.11-.124.278-.277.49-.46q.155-.141.344-.27c.065-.052.131-.081.197-.139.073-.022.146-.066.219-.081.526-.168 1.06-.35 1.6-.46a18 18 0 0 1 1.652-.168c1.118-.051 2.243-.037 3.471.351.263.073.563.219.855.365.154.095.314.197.475.322.146.146.278.299.409.46.125.205.212.329.366.592.073.131.153.314.197.468.044.153.066.27.088.38l.058.314.051.358c.037.241.037.475.044.709-.014.811-.117 1.607-.387 2.367-.263.753-.614 1.498-1.22 2.142-.366.387-.855.738-1.447.869l-.446.044c-.146 0-.278-.015-.417-.029a2.3 2.3 0 0 1-.833-.278 2.04 2.04 0 0 1-.84-1.016 3.6 3.6 0 0 1-.234-1.147 8.5 8.5 0 0 1 .205-2.134c.212-1.089.657-2.192 1.388-3.084.161-.197.307-.394.49-.57.672-.65 1.023-.643 1.447-.343.095.066.204.131.285.204.255.249.175.746-.205 1.17-.57.628-1.06 1.235-1.388 1.907-.169.336-.3.694-.402 1.082a8 8 0 0 0-.22 1.213c-.073.584.03 1.154.147 1.3.043.088.131.081.292.103.219 0 .299-.044.438-.11l.022.037zM220.041 155.559c.051 0 .022.051.175-.058a2.5 2.5 0 0 0 .461-.483c.307-.401.577-.913.796-1.432.154-.387.227-.796.329-1.191.088-.343.146-.694.146-.979.022-.256-.058-.512-.153-.746-.241-.46-.833-.855-1.535-1.067-.628-.204-1.322-.197-2.002-.211-.439-.008-.877.058-1.323.058-.453-.007-.913-.044-1.381-.029-.292 0-.285-.103-.095-.336.19-.227.563-.687 1.096-.965.117-.058.234-.124.358-.168l.373-.088c.248-.058.504-.095.76-.139.256-.029.519-.073.782-.073.263.015.526.015.796.051.534.052 1.082.19 1.623.388.541.226 1.089.533 1.542 1.023a3.74 3.74 0 0 1 .972 2.17 6.2 6.2 0 0 1-.227 2.024c-.19.68-.446 1.33-.782 1.959-.343.621-.731 1.235-1.388 1.761-.439.351-1.089.592-1.666.453-.592-.109-1.067-.57-1.36-.95-.482-.643-.577-1.483-.489-2.141.08-.672.234-1.264.416-1.878.293-.943.665-1.893 1.272-2.726.131-.183.256-.365.409-.533.592-.6.892-.651 1.352-.307.102.073.205.139.285.212.263.248.263.76-.044 1.14-.877 1.191-1.469 2.375-1.754 3.851-.102.533-.073.899.015 1.081.022.088.168.227.175.256q.002.024.037.037v.051z"/><path fill="#12111f" d="M209.337 149.93c.643-1.907 1.645-3.719 2.836-5.283.446-.563.84-1.177 1.344-1.688a22.9 22.9 0 0 1 5.963-4.619 37 37 0 0 1 1.513-.745c.534-.19 1.038-.446 1.586-.585a10 10 0 0 1 2.126-.475q.558 0 1.104.044c.183-.007.365.073.541.139l.526.19c.424.175.351.204-.029.402a6 6 0 0 0-.738.475c-.293.175-.614.358-.95.453-.6.241-1.221.292-1.805.548-.6.19-1.177.475-1.762.738-1.183.497-2.331 1.162-3.478 1.878-1.367.877-2.514 2.141-3.574 3.413-1.169 1.403-2.17 2.93-2.886 4.589a19 19 0 0 0-1.009 3.223c-.35 1.68-.548 3.42-.467 5.137.058 1.337.336 2.623.672 3.888q.12.414.241.818c.219 1.045.205 1.403-.153 1.769-.081.08-.154.182-.234.248-.263.205-.709-.124-1.111-.899-.599-1.14-.884-2.433-1.103-3.734a21 21 0 0 1-.22-3.997c.066-2.003.432-3.998 1.031-5.941l.051.014zM209.679 176.406c-.417.928-1.089 1.681-2.061 2.119-.351.154-.723.307-1.191.3a2.06 2.06 0 0 1-1.323-.504 2.42 2.42 0 0 1-.636-1.389c-.043-.263-.014-.46 0-.65.022-.198.052-.38.103-.563.117-.46.285-.906.526-1.279.292-.489.665-.906 1.147-1.169.154-.08.256.066.307.307s.088.585-.014.833c-.198.424-.278.848-.344 1.184a3 3 0 0 0-.058.504v.234c0 .08-.037.073-.052.131-.036.081-.014.19.044.242.081.102.22.095.344.087.321-.029.774-.336 1.045-.767a2.2 2.2 0 0 0 .321-.87c.03-.226.037-.511-.095-.745a.43.43 0 0 0-.27-.183c-.307-.058-.577.241-.658.446-.022.044-.029.102-.044.139-.007.036-.146.117-.285.117s-.292-.051-.511-.168c-.102-.051-.197-.095-.292-.154-.307-.19-.468-.504-.388-.884.008-.051.044-.161.088-.256.051-.08.088-.19.124-.292.11-.183.249-.351.402-.497a2.6 2.6 0 0 1 1.096-.621 2.34 2.34 0 0 1 2.309.65q.065.064.117.139c.41.497.57 1.206.614 1.893.022.774-.117 1.176-.292 1.688l-.051-.015zM209.842 138.672c-2.47 1.374-5.057 2.536-7.746 3.413-.497.154-.979.336-1.469.482q-.745.21-1.491.41c-3.551.796-7.249 1.023-10.83.467-1.593-.212-3.164-.599-4.698-1.03-1.93-.643-3.917-1.33-5.467-2.726-.496-.402-.38-.424.19-.351.344.037.739.081 1.162.132.242.029.468.102.724.161.256.051.526.124.789.212a28.4 28.4 0 0 0 5.634 1.812c.965.227 1.944.343 2.931.482.986.073 1.98.168 2.989.154 2.404.022 4.888-.497 7.249-1.191 2.609-.753 5.144-1.813 7.556-3.106 1.498-.775 2.93-1.674 4.341-2.609 2.119-1.44 4.172-3.003 6.05-4.728 1.455-1.345 2.741-2.806 3.99-4.304l.804-1.001c.505-.622.87-.994 1.206-1.199.168-.102.307-.175.46-.205.161-.021.322-.014.483 0 .146.015.292 0 .394.022.3.03.344.928-.35 1.937-2.083 2.967-4.823 5.649-7.798 8.038a55 55 0 0 1-7.066 4.787l-.029-.037z"/><path fill="#12111f" d="m202.789 138.496 1.973.701c.241.088.504.11.746.212.862.336 1.702.833 2.499 1.374.351.241.731.446 1.074.709.431.343.855.745 1.023 1.315.051.176-.204.329-.548.439-.336.102-.775.219-1.008.131-.855-.255-1.455-.709-2.251-1.257-.475-.321-1.074-.423-1.644-.621l-1.93-.657-1.198-.388c-.607-.182-1.213-.372-1.827-.446-.482-.043-.957.015-1.418.037-.102 0-.204.029-.307.007-.38-.058-.497-.19-.592-.606-.021-.095-.051-.183-.065-.278-.044-.3.117-.577.431-.745.935-.483 1.973-.519 2.945-.402q1.087.119 2.119.402l-.015.058zM275.121 235.704a51.4 51.4 0 0 1-8.674 4.172c-1.104.402-2.192.833-3.325 1.148-1.995.548-4.049.972-6.168 1.052a13.9 13.9 0 0 1-3.222-.263c-.541-.154-1.075-.3-1.594-.577-.263-.103-.504-.278-.745-.453l-.358-.264c-.124-.131-.263-.255-.365-.401-.388-.519-.497-1.148-.49-1.696 0-.563.146-1.067.307-1.549.358-.95.884-1.761 1.476-2.485 1.52-1.863 3.354-3.405 5.503-4.333.687-.263.643-.154.307.431a11.3 11.3 0 0 1-1.798 2.543c-.826.76-1.593 1.549-2.258 2.382-.643.833-1.242 1.681-1.491 2.492-.117.388-.124.738-.066.928.022.11.066.147.125.227.175.117.328.256.518.373.768.46 1.805.716 2.88.796 2.616.219 5.459-.533 8.111-1.388a43 43 0 0 0 4.348-1.666 45 45 0 0 0 4.18-2.083c1.674-.936 3.296-1.966 4.809-3.135 1.14-.884 2.236-1.834 3.193-2.887.943-1.052 1.783-2.243 2.119-3.515.052-.248.139-.489.132-.73 0-.242.044-.49-.022-.717-.044-.504-.219-.818-.519-1.096-.606-.548-1.644-.774-2.667-.862-.46-.037-.914-.037-1.389-.037-1.761-.087-2.353-.146-2.784-.621-.095-.102-.226-.19-.285-.277-.204-.271.512-.76 1.915-.98a10.8 10.8 0 0 1 3.274-.08c.57.066 1.162.197 1.775.424.6.219 1.257.584 1.798 1.206.139.146.256.321.366.504.116.175.211.365.27.562.175.417.183.739.241 1.104.073.358.022.701 0 1.052 0 .358-.102.673-.175.994-.344 1.272-.972 2.346-1.666 3.281-1.045 1.396-2.273 2.551-3.552 3.603a41 41 0 0 1-4.012 2.85l-.029-.037zM131.408 271.358c.292.168.585.358.892.563l.467.329.241.182c.059.051.242.183.337.278.467.409.818.906.95 1.461.065.278.073.563.036.848a3 3 0 0 1-.27.797c-.168.255-.344.497-.585.694a3.6 3.6 0 0 1-1.286.65 4 4 0 0 1-1.052.176c-1.17.022-2.222-.212-3.238-.526a14.5 14.5 0 0 1-2.857-1.294 14 14 0 0 1-2.236-1.615c-.431-.395-.862-.804-1.213-1.279a6.1 6.1 0 0 1-.789-1.578c-.117-.351.036-.366.365-.212.314.161.87.416 1.345.782a12.2 12.2 0 0 0 2.484 1.856c.884.526 1.805 1.023 2.792 1.41 1.169.475 2.579.541 3.654.329l.19-.036c.043-.015.087-.022.131-.044a.54.54 0 0 0 .234-.168.44.44 0 0 0 0-.548 1 1 0 0 0-.241-.242 10 10 0 0 0-.57-.394c-.768-.475-1.615-.979-2.434-1.527-1.242-.826-2.419-1.886-3.295-3.135-.68-.943-1.338-1.9-1.776-3.033-.095-.249-.198-.497-.256-.767-.124-.497-.073-.855.007-1.097.081-.241.256-.38.49-.467.102-.044.205-.095.307-.117.314-.051.628.307.848.833.314.796.701 1.586 1.198 2.353.241.387.512.76.789 1.125.285.366.548.673.877.98.95.906 2.134 1.644 3.493 2.375l-.022.051zM237.551 161.812c.278-.591.577-1.183.884-1.753.11-.212.205-.432.329-.636.431-.724.899-1.418 1.374-2.105.204-.307.409-.621.592-.935.256-.395.526-.789.884-1.111.11-.102.234.015.3.219s.109.505-.015.738c-.11.212-.205.424-.322.629-.124.197-.255.387-.38.584-.255.388-.526.775-.803 1.155-.344.453-.563 1.009-.826 1.52a39 39 0 0 0-.841 1.71c-.16.358-.321.716-.46 1.082-.219.555-.431 1.11-.585 1.688-.124.445-.182.891-.263 1.337l-.043.292c-.088.366-.198.461-.446.49-.059 0-.117.022-.168.022-.183 0-.307-.183-.329-.475-.022-.855.066-1.761.373-2.602.204-.628.453-1.249.716-1.856h.029zM120.921 327.122l-4.429.731c1.447-.314 2.894-.65 4.29-.994zM118.545 299.381a40 40 0 0 1-1.191-3.347 25 25 0 0 1-.394-1.228 54 54 0 0 1-1.053-4.421l-.394-1.973c-.154-.84-.307-1.688-.366-2.536-.044-.533.453.088.643 1.038.336 1.695.738 3.369 1.14 5.057.234 1.016.614 2.031.965 3.033a65 65 0 0 0 1.257 3.273c.278.665.563 1.323.877 1.973a32 32 0 0 0 1.527 2.887c.439.716.935 1.381 1.418 2.053l.314.446c.38.57.431.789.307 1.06-.029.058-.051.131-.088.183-.124.168-.416.029-.774-.344-1.082-1.089-1.952-2.455-2.697-3.888-.563-1.059-1.052-2.155-1.52-3.259l.022-.014zM103.469 324.097c.219-.205.453-.395.68-.592.08-.073.139-.168.219-.234.3-.241.636-.439.965-.629a3 3 0 0 0 .387-.307c.153-.146.285-.314.519-.358.139-.029.555.746.431.936-.249.321-.512.606-.884.804-.227.109-.366.328-.541.497-.197.182-.402.365-.599.562-.125.117-.234.241-.351.366-.183.182-.373.365-.504.577-.103.168-.146.373-.22.548l-.043.117c-.081.139-.176.146-.424.044l-.168-.066c-.183-.08-.3-.227-.307-.373-.029-.445.117-.833.299-1.191.139-.263.293-.526.512-.738l.029.022zM98.172 324.885q.32-.23.628-.46c.074-.058.132-.132.212-.19.27-.197.548-.387.811-.599q.174-.143.315-.307c.124-.139.234-.3.416-.38.11-.051.424.468.285.636a3.8 3.8 0 0 1-.855.774c-.197.124-.343.329-.511.49-.19.175-.388.351-.578.519-.117.109-.24.212-.358.321-.175.168-.38.307-.54.483-.132.131-.22.306-.337.445a1 1 0 0 1-.087.081c-.124.087-.205.08-.336 0l-.088-.059c-.088-.073-.117-.19-.095-.314.03-.11.051-.197.073-.285q.066-.118.132-.227c.094-.146.204-.285.321-.416.16-.205.38-.358.577-.526zM93.18 324.527l.57-.242c.066-.029.125-.08.19-.109.242-.102.497-.197.731-.314q.153-.08.285-.19c.117-.095.212-.212.38-.234.103-.015.395.606.27.723a2.2 2.2 0 0 1-.781.453c-.183.059-.315.198-.468.3l-.526.307c-.11.066-.22.124-.329.19-.168.095-.336.183-.482.299-.117.088-.205.212-.315.307-.022.022-.043.052-.065.066-.095.066-.161.037-.3-.117l-.095-.109c-.102-.125-.139-.263-.102-.358.117-.285.27-.541.504-.68q.252-.175.526-.307l.015.022z"/><path fill="#12111f" d="M174.758 193.792c0 .73-.884 1.213-1.491.782-1.607-1.148 1.491-2.682 1.491-.782M194.297 203.928c0 .731-.884 1.213-1.491.782-1.607-1.147 1.491-2.682 1.491-.782M168.427 201.386c0 .731-.738 1.191-1.337.76-1.608-1.147 1.337-2.199 1.337-.76M177.948 198.497c.343.607-.168 1.425-.877 1.352-1.871-.204-.015-2.93.877-1.352" opacity=".55"/><path fill="#12111f" d="M185.979 203.95c.343.607-.168 1.425-.877 1.352-1.871-.204-.015-2.93.877-1.352" opacity=".75"/><path fill="#12111f" d="M178.483 231.009c.343.607-.168 1.425-.877 1.352-1.871-.205-.015-2.93.877-1.352M175.538 208.138c.343.607-.169 1.425-.877 1.352-1.871-.205-.015-2.93.877-1.352M186.37 222.607c.343.606-.169 1.425-.877 1.352-1.871-.205-.015-2.931.877-1.352M181.144 202.863c.321.621.036 1.162-.665 1.089-1.871-.204-.029-2.426.665-1.089M181.889 209.583c.241.475.029.892-.511.833-1.433-.153-.022-1.856.511-.833" opacity=".55"/><path fill="#12111f" d="M175.377 211.63c.242.475.03.892-.511.833-1.432-.153-.022-1.856.511-.833M174.991 203.357c.241.475.029.891-.512.833-1.432-.154-.022-1.856.512-.833M183.905 227.775c.241.475.029.891-.512.833-1.432-.154-.022-1.856.512-.833" opacity=".75"/><path fill="#12111f" d="M185.198 216.638c.241.475.029.891-.512.833-1.432-.154-.022-1.856.512-.833" opacity=".55"/><path fill="#12111f" d="M173.424 196.95c.241.475.029.892-.511.833-1.433-.153-.022-1.856.511-.833M168.948 194.478c.241.475.029.891-.512.833-1.432-.154-.022-1.856.512-.833M177.678 188.208c.241.475.029.892-.511.833-1.433-.153-.022-1.856.511-.833" opacity=".75"/><path fill="#12111f" d="M168.561 205.63c.241.475.029.892-.512.833-1.432-.153-.022-1.856.512-.833" opacity=".55"/><path fill="#12111f" d="M182.042 221.941c.322.622.037 1.162-.665 1.089-1.87-.204-.029-2.426.665-1.089" opacity=".75"/><path fill="#12111f" d="M178.921 196.692c.168.475.373.95.636 1.403.109.161.212.315.314.476a9.8 9.8 0 0 0 1.271 1.585c.212.219.446.417.68.607.307.219.57.409.943.672.095.073.036.161-.103.219a.85.85 0 0 1-.613-.022c-.775-.358-1.484-.847-2.003-1.527-.314-.402-.701-.76-1.001-1.184a8 8 0 0 1-.869-1.476c-.161-.314-.271-.65-.395-.979a9.5 9.5 0 0 1-.365-1.549 21 21 0 0 1-.212-1.213c0-.088-.022-.183-.015-.271.022-.336.11-.446.358-.489.059-.008.117-.022.168-.03.19-.007.344.132.417.358.153.731.285 1.323.416 1.966.066.241.117.483.168.731l.227.723z"/><path fill="#12111f" d="M217.609 314.195c-.694 0-1.389 0-2.083.044-.256.007-.504.058-.753.073-.891.051-1.783.124-2.674.241-.395.051-.789.117-1.177.183-.497.095-.994.204-1.505.255-.161.015-.161-.073-.051-.197.109-.124.321-.299.599-.409a19 19 0 0 1 1.505-.468c.512-.131 1.038-.19 1.564-.241.629-.051 1.272-.197 1.915-.278a36 36 0 0 1 2.126-.19c.439-.029.87-.051 1.308-.065.665-.022 1.323-.008 1.981-.037.511-.015 1.008-.095 1.513-.131.109-.008.219-.03.336-.03.416 0 .548.066.628.351.015.066.044.132.051.19.03.219-.139.395-.445.446-.892.168-1.82.19-2.755.219-.695.015-1.389.044-2.09.051v-.022z" opacity=".25"/><path fill="#12111f" d="M228.803 308.838q-.867-.034-1.732-.058h-.629c-.745-.022-1.483-.044-2.229-.037-.328 0-.657.022-.986.037-.417.022-.841.058-1.264.051-.263 0 .051-.263.533-.329.855-.095 1.71-.168 2.58-.168.519 0 1.059-.051 1.586-.073a35 35 0 0 1 1.753-.022q.537-.002 1.075.007c.54 0 1.088.022 1.629.015.417 0 .833-.058 1.25-.058.095 0 .183-.008.27-.008.344.008.446.059.519.22.015.036.037.073.044.109.029.124-.11.227-.366.271-.738.138-1.519.131-2.294.116l-1.747-.043v-.015z"/><path fill="#12111f" d="m251.719 317.503 2.119.833c.256.102.519.183.775.285.899.38 1.776.804 2.667 1.198.395.176.797.344 1.192.497.511.205 1.03.395 1.505.672.3.169-.292.446-.884.249-1.053-.373-2.098-.753-3.128-1.213-.614-.278-1.293-.461-1.937-.702l-2.133-.774-1.323-.453a41 41 0 0 0-2.017-.621c-.526-.147-1.052-.227-1.586-.337-.117-.022-.226-.058-.343-.095-.417-.153-.534-.255-.585-.46-.007-.044-.029-.095-.029-.139-.007-.139.197-.212.533-.226.512-.037 1.009.036 1.506.138s1.001.198 1.491.366c.73.226 1.454.489 2.17.745v.022z" opacity=".65"/><path fill="#12111f" d="M161.493 106.533c-1.33.051-3.135-6.628-.752-8.22 4.655-3.114 1.637 8.184.752 8.22M161.419 110.822c-.402 1.176-11.386 1.761-10.904-.914.877-4.867 11.335-.358 10.904.914M289.749 142.99c2.353 0 2.353-3.654 0-3.654s-2.353 3.654 0 3.654"/><path fill="#12111f" d="M291.987 141.434c-.051.921-.803 1.842-1.695 2.105-.314.102-.628.183-.943.161a2.63 2.63 0 0 1-1.476-.585c-.431-.321-.679-.855-.76-1.337a2.8 2.8 0 0 1 .066-1.243c.131-.496.438-1.001.95-1.191.161-.058.226.146.263.38.029.234.095.519.037.665a1.5 1.5 0 0 0-.088.811c.044.256.117.417.234.614.146.278.577.322.877.278.358-.044.606-.205.76-.555.102-.212.146-.483.095-.731-.073-.373-.329-.702-.746-.753-.314-.051-.636.102-.855.278-.051.036-.087.088-.131.124-.205.102-.315.117-.585.059l-.183-.03c-.182-.036-.314-.263-.204-.643.175-.555.687-.928 1.242-1.132a2.3 2.3 0 0 1 1.893.168 2.5 2.5 0 0 1 1.03 1.14c.205.453.271.935.241 1.41h-.044zM235.424 50.978c-.328.606-.862 1.015-1.432 1.118-.073.014-.146.014-.212.036-.139 0-.277.008-.416-.029-.366-.095-.665-.365-.863-.672-.168-.358-.277-.716-.233-1.082.043-.16.043-.321.095-.467.029-.125.065-.234.109-.344.102-.278.205-.54.431-.716.139-.117.702.453.658.723-.059.22-.095.475-.117.563-.029 0-.088.044-.132.168-.036.168.088.212.191.249h.036c.117.036.249-.022.351-.125.036-.036.066-.065.102-.131.037-.073.073-.146.095-.22.073-.219.066-.453-.029-.518-.044-.037-.227.05-.205.131a.5.5 0 0 0-.044-.117c-.036-.065-.065-.08-.058-.073.044.022-.102-.058-.256-.095q-.11-.031-.219-.05c-.227-.03-.468-.235-.329-.666.117-.292.387-.49.636-.577.256-.088.526-.11.789-.066.271.051.548.168.797.402a1.85 1.85 0 0 1 .46.709c.132.365.139.716.095 1.016-.044.314-.117.54-.248.84l-.037-.015zM322.832 143.638s1.374-.139 1.79-1.447c.417-1.308 1.93-.182 1.374 1.009-.548 1.191-2.338 2.777-3.164.438"/><path fill="#12111f" d="M326.119 144.276c-.431.621-1.038 1.023-1.739 1.272-.256.087-.527.19-.833.182a2.04 2.04 0 0 1-1.447-.621c-.395-.38-.483-.899-.497-1.301a4.2 4.2 0 0 1 .095-1.023c.08-.409.233-.825.584-1.096.11-.08.263.066.402.263.132.205.292.446.285.607-.073.584.132 1.081.154 1.249-.015.088.051.139.124.154s.153 0 .256-.015c.241-.022.584-.204.825-.46.154-.146.3-.344.373-.541a1.2 1.2 0 0 0 .088-.431c0-.11-.081-.27-.117-.27-.044-.022-.124-.015-.197.022a.4.4 0 0 0-.147.124c.015.036-.007 0 0 0-.021-.037-.029-.059-.058-.088-.066-.088-.117-.095-.088-.088h-.014l-.095-.022a1.3 1.3 0 0 0-.249-.021q-.13-.002-.263.007c-.146 0-.27-.022-.38-.139-.109-.11-.19-.329-.124-.607.095-.416.431-.679.731-.862.314-.19.657-.241 1.015-.212a2.02 2.02 0 0 1 1.535.928c.102.154.183.322.241.49.183.511.161 1.008.066 1.41a3.6 3.6 0 0 1-.453 1.089l-.044-.022zM301.887 171.754a1.97 1.97 0 0 1-1.213 1.308c-.205.073-.402.168-.621.161-.38 0-.746-.153-1.009-.394a1.6 1.6 0 0 1-.46-.936 3 3 0 0 1-.029-.446c0-.073.014-.153.029-.212.015-.065.022-.124.036-.19.066-.306.264-.665.629-.745.11-.029.183.183.256.402.065.219.204.431.219.475 0 .044.015.088.022.139 0 .022.014.051.014.066 0 .014-.007 0-.014.014-.029.015-.081.059-.102.183 0 .161.138.146.226.146a.44.44 0 0 0 .365-.161c.066-.087.103-.153.095-.204.015-.081-.087-.234-.277-.249-.146-.007-.278.132-.278.219v.037s-.007 0-.022-.015c-.022-.014-.073-.051-.109-.073a4 4 0 0 0-.359-.153l-.211-.073c-.205-.066-.417-.256-.395-.629.073-.219.212-.431.395-.57.182-.131.394-.234.606-.277a1.85 1.85 0 0 1 1.294.182 1.815 1.815 0 0 1 .935 1.995h-.037zM275.747 84.461c-.036.892-.248 1.674-.709 2.075-.175.161-.416.293-.65.293-.87-.015-1.732-.753-2.017-1.674-.015-.05-.037-.095-.051-.146.014-.058-.015-.102-.015-.139-.014-.08-.036-.16-.044-.24a5 5 0 0 1-.036-.483c0-.402.109-.863.453-1.133.102-.088.234.066.358.249.117.19.27.394.278.518 0 .227.058.439.131.65.073.14.015.11.015.154q-.024.055-.015.176c.037.212.197.234.344.255.19-.007.219-.197.277-.38.015-.058.022-.131.03-.204 0-.095-.015-.22-.044-.322a1.2 1.2 0 0 0-.183-.43.6.6 0 0 0-.322-.242.57.57 0 0 0-.555.168q-.024.044-.036.066c-.015.022-.044 0-.154-.066-.095-.051-.212-.095-.387-.168l-.227-.08a.5.5 0 0 1-.285-.242.68.68 0 0 1-.036-.518c.292-.541.913-.812 1.447-.819a2.26 2.26 0 0 1 1.578.57c.351.322.526.636.672.994a4 4 0 0 1 .154.519c.022.088.029.168.044.256.014.087.029.219.036.328h-.044zM92.53 131.518c.14.205.278.409.41.621.058.11.139.19.234.256.087.08.19.139.314.161a.7.7 0 0 0 .365.014.6.6 0 0 0 .336-.109l.183-.147a1 1 0 0 0 .234-.401l.03-.242a.9.9 0 0 0-.125-.46c-.139-.205-.278-.409-.41-.621a.7.7 0 0 0-.233-.256.6.6 0 0 0-.314-.161.7.7 0 0 0-.366-.014.6.6 0 0 0-.336.109l-.183.146a1 1 0 0 0-.233.402l-.03.242c0 .168.044.321.124.46"/><path fill="#12111f" d="M94.825 130.465c.073.241.095.475.11.694l.014.358c.008.168 0 .329-.036.482l-.044.176c-.051.16-.11.321-.234.445-.548.629-1.673.475-2.097-.021a3 3 0 0 1-.453-.607c-.154-.263-.278-.526-.278-.818 0-.088.153-.139.336-.132.183 0 .41.058.497.168.146.205.292.38.417.49.058.058.131.095.168.139 0 .029.014.073.05.109.096.102.227.022.293-.058.015-.015.015-.03.03-.044.021-.066.043-.088.029-.205a3 3 0 0 0-.088-.409c-.051-.183-.102-.358-.19-.49-.117-.197-.307-.321-.365-.255-.11.029-.088.285-.103.263a.6.6 0 0 0-.175-.037c-.095 0-.059.015-.051 0h.007c-.044.044-.095.095-.153.161-.052.058-.095.131-.147.197-.08.11-.168.19-.3.212-.123.022-.313-.036-.452-.226-.22-.293-.22-.673-.154-.95.073-.278.19-.527.388-.709.19-.183.423-.336.723-.417a1.7 1.7 0 0 1 1.009.037c.365.139.68.394.87.65.196.263.32.526.401.767l-.036.015zM94.735 85.617c.059.35.08.73 0 1.14-.087.41-.314.833-.657 1.104-.241.204-.512.365-.782.416-.965.168-1.725-.263-2.266-.738a5.4 5.4 0 0 1-.65-.709c-.241-.321-.46-.701-.446-1.118 0-.131.212-.146.439-.11.219.037.49.096.584.22.344.467.782.752 1.213 1.067.256.182.636.095.79 0 .175-.08.277-.212.263-.57a1.65 1.65 0 0 0-.198-.658c-.175-.314-.416-.614-.665-.636-.11-.014-.131.037-.182.095-.037.059-.08.117-.095.161-.008.022.007.036 0 .036-.11-.043-.132-.036-.161-.036-.088 0-.212.044-.373.117-.073.03-.146.073-.212.11-.117.058-.234.087-.372.029-.132-.051-.278-.212-.33-.453-.08-.366.06-.716.22-1.002.175-.277.417-.555.767-.68a2 2 0 0 1 .57-.13c.227-.008.402.007.563.043.336.073.636.22.877.395.365.256.592.577.767.891.168.315.293.643.38.994l-.036.015zM68.48 193.419s1.732-1.498.84-2.667c-.89-1.17.805-.337 1.265.211.453.549-1.008 3.157-2.104 2.456"/><path fill="#12111f" d="M71.42 191.418c.007.701-.286 1.293-.687 1.739-.154.161-.307.329-.497.438-.702.424-1.572.337-2.17 0a3.3 3.3 0 0 1-.754-.533c-.284-.263-.548-.607-.577-1.016-.014-.124.168-.146.366-.109s.409.087.496.204c.315.446.797.76 1.323.884.329.081.636-.087.884-.299.278-.234.483-.592.534-.957.03-.22 0-.454-.095-.644a1 1 0 0 0-.819-.526c-.285-.022-.526.161-.68.278-.036.029-.058.066-.087.088-.102.095-.212.043-.519-.103l-.212-.087a.471.471 0 0 1-.212-.665c.242-.424.702-.782 1.192-.804.482-.051.971.051 1.395.299.322.168.614.417.826.746s.307.694.329 1.045h-.03zM114.365 147.463c.161.57.161 1.096.044 1.666-.044.205-.081.439-.198.658-.204.395-.643.738-1.118.804-.511.073-.935-.161-1.205-.38a6 6 0 0 1-.651-.629c-.241-.27-.489-.562-.533-.95-.015-.117.248-.212.533-.255.285-.037.592-.052.687.073.322.445.745.803.848.913.029.044.117.037.182 0 .059-.036.11-.117.176-.234.139-.263.19-.694.168-1.074a1.8 1.8 0 0 0-.154-.672c-.138-.293-.423-.534-.686-.453-.22.043-.41.285-.432.445-.007.037 0 .066 0 .081 0 .051-.051.058-.248.248l-.124.132c-.125.146-.395.161-.541-.205-.168-.57.139-1.059.482-1.352.351-.285.899-.489 1.498-.277.716.277 1.126.913 1.301 1.461zM212.989 200.312c-.512.139-1.023.351-1.52.577-.183.088-.344.205-.534.285-.643.314-1.279.65-1.885 1.045a9 9 0 0 0-.782.563c-.322.256-.636.519-.987.738-.219.139-.212-.366.132-.702.628-.57 1.279-1.11 2.024-1.549.439-.263.862-.599 1.323-.862a11 11 0 0 1 1.586-.746c.343-.124.679-.248 1.037-.328a6.6 6.6 0 0 1 1.644-.22c.432 0 .863 0 1.301.103.095.022.198.022.285.065.336.139.417.242.388.461-.008.051-.008.102-.022.146-.052.153-.234.219-.453.183a6.2 6.2 0 0 0-1.981-.044c-.504.066-1.023.139-1.534.321v-.022zM236.142 227.386c.862 1.118 1.717 2.25 2.535 3.398.3.416.629.818.914 1.249.511.753.994 1.528 1.483 2.295l1.381 2.353c.417.687.833 1.381 1.243 2.068l.774 1.33q.362.68.68 1.381c.131.292 0 .314-.263.154a3.8 3.8 0 0 1-1.001-.972c-1.199-1.688-2.456-3.318-3.61-5.05-.673-1.045-1.52-2.031-2.302-3.033l-2.587-3.317c-.541-.673-1.082-1.352-1.637-2.01-.848-1.001-1.688-2.01-2.587-2.952-.694-.738-1.454-1.381-2.178-2.083-.153-.161-.307-.307-.453-.475-.533-.628-.621-.906-.475-1.286.037-.088.059-.183.103-.256.146-.248.555-.168 1.074.168.387.256.774.512 1.154.789.358.3.709.6 1.06.921.343.322.687.643 1.023.979l.965 1.06c.942 1.06 1.849 2.17 2.747 3.274l-.029.029z"/></svg>