<svg xmlns="http://www.w3.org/2000/svg" width="380" height="380" fill="none">
  <path fill="#12111f" d="M176.742 134.586a3.785 3.785 0 1 0 .002-7.57 3.785 3.785 0 0 0-.002 7.57" opacity=".35"/>
  <path fill="#12111f" d="M188.978 134.565a2.41 2.41 0 1 0 0-4.823 2.412 2.412 0 0 0 0 4.823" opacity=".75"/>
  <path fill="#12111f" d="M161.287 49.89c.175-.57.329-1.089.636-1.68.285-.614.738-1.126 1.206-1.564.182-.147.35-.307.526-.453.182-.132.365-.27.562-.38 1.403-.746 2.865-1.016 4.283-1.192.628-.08 1.264-.117 1.885-.175.804 0 1.608-.03 2.397.307.248.095.212.066 0 .183-.102.058-.248.16-.424.306a2.5 2.5 0 0 1-.592.315c-1.542.584-3.032.65-4.538.862-.906.124-1.739.57-2.433 1.052-.205.125-.358.285-.541.432-.146.168-.329.314-.439.504a3 3 0 0 0-.343.57c-.102.197-.197.46-.285.694a12 12 0 0 0-.519 1.856 18 18 0 0 0-.365 2.945c-.029.767.058 1.527.109 2.287.015.169.03.33.03.505-.008.628-.103.833-.439.986-.073.037-.146.08-.226.102-.249.074-.475-.175-.614-.643a11 11 0 0 1-.409-2.148c-.074-.738-.117-1.498-.059-2.258a18 18 0 0 1 .548-3.413z"/>
  <path fill="#12111f" d="M213.238 94.273s-4.801-1.761-6.226 1.315c-1.432 3.07 1.863 6.504 3.515 7.41 1.652.914 3.771 1.71 3.771 1.71s3.793 13.593 8.477 17.049c4.684 3.457 12.262 4.714 14.637 3.727 2.368-.986 8.104-5.13 8.104-5.13s3.756-6.072 4.378-8.111c.621-2.039 2.491-7.673 2.491-7.673s4.064-.921 4.911-3.208c.848-2.288.76-6.555-1.059-7.586-1.82-1.03-5.269 1.25-7.776.504-2.506-.745-4.954-4.245-4.998-6.328s-5.138.365-6.65-.79c-1.513-1.154-5.642-3.639-5.642-3.639s-1.644 4.195-4.194 5.817c-2.543 1.623-4.48 2.485-7.747 1.615s-4.932-1.432-4.932-1.432l-1.053 4.75z" opacity=".15"/>
  <path fill="#12111f" d="M226.517 66.11c-1.512-1.426-5.904-3.983-10.384-.06-2.762 2.427-1.469 5.175-1.841 6.607 0 0-3.976-1.308-6.329 1.082-1.907 1.943-1.206 5.86-1.206 5.86s-6.292-1.293-8.228 3.91c-2.697 7.234 4.406 11.81 4.406 11.81s-2.828 2.199-3.303 4.603c-.482 2.426 1.294 4.648 3.413 5.364s3.72-.351 3.72-.351-.307 4.231 1.746 6.745c2.273 2.777 7.359 1.827 7.359 1.827l-1.571-8.806s-5.276-.387-6.329-3.354c-1.045-2.96-1.527-5.649-.453-6.774 1.075-1.126 5.73-.315 5.73-.315l1.052-4.75s7.001 2.602 9.346 1.535c2.346-1.067 7.418-4.377 7.155-5.444-.263-1.074.372-2.09.372-2.09s2.916 2.981 5.642 3.64c2.733.657 6.467 0 6.467 0s1.221 6.24 3.559 6.927 7.717-.746 7.717-.746 3.193.49 3.478 1.813.095 4.487 0 5.561-1.892 3.215-2.433 3.456-3.223.388-3.223.388l-2.09 8.301s4.538 1.454 6.161-3.332c0 0 4.984.212 4.567-3.128 0 0 3.654-2.484 2.514-5.042s-2.375-2.624-2.375-2.624 2.85-2.411 2.594-5.159-4.385-3.99-4.385-3.99 2.485-4.61.622-7.117c-1.864-2.507-6.197-2.85-6.197-2.85s.65-5.006-1.74-6.811c-2.579-1.944-5.846-1.367-5.846-1.367s.307-4.757-2.923-5.115c-3.369-.373-5.356 1.724-5.356 1.724s-2.054-4.399-5.386-4.815c-3.332-.41-6.014 2.886-6.014 2.886zm-47.369 69.232c-.752.351-1.585.548-2.44.504s-1.703-.321-2.368-.775c-.497-.321-.965-.686-1.308-1.154-.599-.819-.965-1.791-.994-2.792a4.47 4.47 0 0 1 .862-2.784c.241-.351.541-.65.855-.928.336-.248.68-.49 1.067-.65.49-.22 1.045-.285 1.579-.234.54.044 1.023.299 1.432.57.256.175.124.285-.161.358-.278.029-.753.241-1.125.409-.344.124-.614.351-.855.555-.263.161-.49.373-.694.6a2.9 2.9 0 0 0-.907 1.549c-.08.38-.014.811.154 1.206.175.394.438.752.731 1.052.65.687 1.563 1.016 2.528.775a3.13 3.13 0 0 0 1.586-.914c.665-.679.95-1.659.636-2.565-.249-.701-.863-1.213-1.455-1.491-.138-.058-.277-.095-.402-.138-.46-.205-.57-.337-.657-.95-.022-.139-.059-.278-.073-.41a.64.64 0 0 1 .219-.577c.183-.161.475-.248.84-.227 1.096.074 2.112.709 2.821 1.586a4.8 4.8 0 0 1 1.067 3.318 4.8 4.8 0 0 1-.943 2.521 5.54 5.54 0 0 1-1.958 1.637l-.029-.051zm12.629-.142a3.7 3.7 0 0 1-2.017.584 4.6 4.6 0 0 1-1.79-.38c-.395-.168-.789-.321-1.125-.592-.585-.46-1.118-1.14-1.33-1.9a3.4 3.4 0 0 1-.132-1.183c.037-.41.197-.79.409-1.126a2.36 2.36 0 0 1 1.666-1.052c.775-.102 1.484.073 2.12.343.197.088.16.132-.037.212-.19.073-.541.249-.891.358-.636.161-1.148.526-1.286.709-.132.19-.176.446-.22.848-.007.248.124.519.314.716.183.19.468.373.739.526.599.358 1.359.534 1.929.358.351-.08.65-.351.826-.665.255-.453.175-1.235-.256-1.688-.329-.358-.855-.424-1.359-.431-.11 0-.227.015-.344 0-.424-.037-.563-.219-.68-.797-.029-.131-.065-.263-.087-.394-.073-.439.146-.833.636-.994.716-.205 1.563-.168 2.404.256.848.402 1.586 1.271 1.871 2.207.226.701.263 1.49.022 2.265-.117.373-.329.789-.556 1.06q-.163.228-.38.424a2.7 2.7 0 0 1-.446.365l-.036-.044zm-5.68 8.364q4.124.197 8.258.263c1.008.022 2.009-.037 3.018-.022l10.654.183c1.579.022 3.165-.015 4.728-.066l3.018-.022q1.513.043 3.026.351c.628.131.548.139.022.343-.263.103-.636.271-1.089.49-.453.19-.979.358-1.557.475-1.023.139-2.046.219-3.069.314-1.023.08-2.046.11-3.076.154-2.054.065-4.115.109-6.19.021-2.477-.124-5.057.037-7.593.03a359 359 0 0 1-8.367-.139c-1.717-.066-3.435-.124-5.152-.19a116 116 0 0 1-3.902-.205c-1.301-.08-2.602-.16-3.888-.234-1.008-.043-2.002-.087-2.996-.131a52 52 0 0 1-2.996-.161c-.439-.036-.877-.044-1.316-.088-1.644-.241-2.141-.489-2.367-1.169-.051-.153-.125-.314-.146-.46-.059-.504.672-.789 1.841-.731 3.486.139 7.147.38 10.852.577 2.755.125 5.517.293 8.294.358v.059z"/>
  <path fill="#12111f" d="M260.468 46.214a2803 2803 0 0 0-47.683-.76c-5.802-.044-11.597 0-17.392 0q-7.664-.001-15.317.095c-2.55.037-5.101.088-7.651.168-1.272.044-2.543.088-3.815.154-1.264.058-2.535.139-3.77.307-.585.065-1.36.204-1.433.233a.3.3 0 0 0-.153.08.7.7 0 0 0-.059.169l-.036.175-.059.424c-.146 1.213-.212 2.485-.277 3.749-.125 2.536-.183 5.086-.241 7.636-.103 5.101-.132 10.21-.154 15.318-.029 9.068.059 18.188.154 27.184.051 5.78.109 11.575.16 17.37v8.689c0 1.447-.044 2.894-.095 4.341-.058 1.447-.087 2.894-.175 4.341-.27 3.603-.439 3.12-.906.066-.241-1.528-.497-3.691-.782-6.307-.241-2.616-.373-5.685-.409-9.018-.132-11.802-.264-23.61-.249-35.442 0-5.92.015-11.838.081-17.78.087-5.94.153-11.875.526-17.882.065-.906.131-1.805.263-2.747.022-.183.102-.621.19-.987.051-.182.109-.358.197-.518a6 6 0 0 1 .329-.432c.292-.219.658-.321 1.001-.46.183-.051.38-.08.555-.11.125-.014.249-.044.366-.05.95-.11 1.856-.147 2.777-.198l2.733-.154c3.639-.168 7.286-.263 10.939-.336 7.315-.146 14.667-.212 21.953-.212 16.026.015 32.051.212 48.07.505 9.858.19 19.723.416 29.581.745 2.675.088 5.342.19 8.017.322 1.337.065 2.674.131 4.012.219l2.009.153c.337.03.673.066 1.016.11l.271.036c.109.015.233.037.343.073.227.059.46.117.665.227.329.285.541.665.709 1.067.124.343.219.643.292.957.154.621.263 1.228.358 1.834.183 1.214.307 2.427.402 3.632.197 2.412.307 4.816.387 7.22.161 4.802.205 9.588.212 14.345.015 11.532-.117 22.83-.489 34.222-.088 2.507-.168 4.962-.256 7.491-.409 9.375-.797 12.357-1.52 14.323-.168.445-.344 1.037-.497 1.293-.519.848-.504-2.959-.285-9.807.358-10.157.534-20.607.658-31.196.153-10.582.285-21.339-.103-32.037a131 131 0 0 0-.394-6.38 42 42 0 0 0-.38-3.106c-.088-.496-.176-1-.3-1.432a3 3 0 0 0-.095-.314l-.066-.198-.299-.043c-.344-.037-.68-.073-1.038-.103a68 68 0 0 0-2.156-.153 281 281 0 0 0-4.362-.234 691 691 0 0 0-8.77-.336 1557 1557 0 0 0-17.575-.468l-.021-.058z"/>
  <path fill="#12111f" d="M250.178 93.287c.629-.096 1.337-.454 2.317-.834.489-.182 1.074-.358 1.724-.372a4.2 4.2 0 0 1 1.857.372c.796.366 1.476.819 2.009 1.418a6.3 6.3 0 0 1 1.14 1.805c.132.343.249.709.3 1.103.036.344.051.65.058.98 0 1.279-.161 2.55-.65 3.778a6.4 6.4 0 0 1-.884 1.571c-.359.453-.76.862-1.214 1.228a5.3 5.3 0 0 1-2.031 1.045c-.38.08-.775.16-1.162.095-.387-.073-.76-.146-1.089-.366-.372-.424-.277-.38.132-.738.204-.19.453-.365.694-.599.124-.102.241-.241.351-.322q.174-.11.358-.175c.438-.139.833-.38 1.22-.68.197-.146.387-.314.57-.489.176-.176.38-.402.483-.548.511-.687.84-1.842.971-3.011.044-.35.044-.716.015-1.074l-.029-.27-.029-.198a2.5 2.5 0 0 0-.132-.41c-.241-.562-.687-1.11-1.184-1.534-.555-.49-1.147-.76-1.732-.723-.621.014-1.395.409-2.302.767-.555.22-1.198.417-1.856.453-.329.015-.657.044-.979-.014l-.482-.052c-.154-.029-.307-.073-.461-.11-1.863-.467-3.383-1.702-4.436-3.207-.825-1.162-1.403-2.587-1.381-4.1.03-.329-.022-.665.073-.986a6 6 0 0 1 .22-.746 1.2 1.2 0 0 1 .321-.431.86.86 0 0 1 .344-.212c.146-.03.292-.036.431-.036.124 0 .241-.022.321-.015.198 0 .629.687.519 1.323-.102.993.051 1.9.344 2.747a5.7 5.7 0 0 0 1.578 2.251c1.038.957 2.499 1.49 3.661 1.264l.015.059zM206.5 100.93c-.614-1.125-.972-2.44-.921-3.741.015-.249.022-.49.029-.738a8 8 0 0 1 .139-.724c.534-1.644 1.783-3.025 3.42-3.508.716-.197 1.498-.306 2.251-.131.234.088.468.16.687.256.204.131.424.24.599.402q.233.272.431.555c.117.197.168.438.241.643.073.27-.058.3-.38.292-.321-.022-.906.051-1.242.008-.599-.117-.943-.059-1.374-.044-.109.022-.219.051-.336.066-.11.05-.234.073-.351.116-.117.059-.255.08-.38.14-.124.065-.263.116-.394.19-.643.372-.95 1.154-1.096 1.877-.059.205-.044.417-.081.622.007.219 0 .445.029.672.059.446.154.899.337 1.33.197.54.518 1.052.891 1.527.577.709 1.286 1.367 2.105 1.842.635.372 1.352.562 2.053.745.154.044.314.059.461.117.54.219.672.417.657.965 0 .124 0 .248-.014.365-.044.387-.395.65-.921.665-1.557 0-3.033-.731-4.363-1.688a9.7 9.7 0 0 1-2.521-2.799l.044-.029zm.719 11.623c.219.263.38.584.657.818.132.124.249.256.388.38l.445.322c.212.175.49.226.731.365.848.453 1.827.84 2.872.921.46.022.928.022 1.381-.059.292-.051.57-.146.884-.138.154-.015.3-.044.461-.03.161.015.329.037.504.051.219.03.212.066.11.271-.073.153-.154.314-.212.438-.088.205-.212.395-.388.519-1.242.767-2.791.855-4.187.461a9 9 0 0 0-.636-.154l-.635-.168c-.439-.08-.855-.256-1.257-.446-.446-.19-.841-.511-1.25-.774-.358-.337-.76-.622-1.06-1.023-.416-.446-.701-.98-1.001-1.491a8.3 8.3 0 0 1-.701-2.58 16 16 0 0 1-.22-2.046c.015-.146 0-.3.03-.446.109-.555.343-.679.825-.665.11 0 .22 0 .329.015.344.051.629.336.738.701.154 1.06.22 1.988.446 2.872.132.665.424 1.272.782 1.849l-.036.029zM194.034 87.85a11.5 11.5 0 0 1-.059-2.308c.066-.812.234-1.499.424-2.237.153-.519.263-1.06.49-1.564.76-1.768 1.973-3.376 3.558-4.48.724-.452 1.455-.898 2.251-1.176.249-.11.504-.19.767-.255.256-.073.519-.154.79-.161.27-.022.533-.044.804-.044.263.007.54.124.796.19.322.11.27.212.015.475-.168.175-.336.358-.49.526-.197.168-.416.336-.658.424-.847.344-1.644.65-2.353 1.147l-.519.38c-.175.124-.314.293-.504.402a9 9 0 0 0-1.03.855c-.811.753-1.272 1.864-1.659 2.938-.197.6-.38 1.213-.49 1.849l-.087.475-.044.453a8 8 0 0 0 0 .942c.029.79.168 1.594.365 2.376.307 1.183.738 2.36 1.425 3.34a5.16 5.16 0 0 0 2.003 1.65c.168.06.321.147.489.176.3.095.482.19.614.292.124.14.19.344.248.614.03.124.066.234.088.344.029.182-.036.329-.226.49-.183.16-.49.277-.863.24-1.118-.094-2.155-.694-2.959-1.425a9 9 0 0 1-1.893-2.557c-.716-1.374-1.118-2.843-1.345-4.356h.052z"/>
  <path fill="#12111f" d="M202.884 72.437a8.6 8.6 0 0 1 1.593-2.492c.256-.285.497-.577.79-.803 1.052-.775 2.272-1.155 3.485-1.272.271-.037.541-.044.811-.073.278 0 .548.014.826.058.68.088 1.491.307 1.82 1.045.102.212 0 .256-.256.344-.263.073-.716.365-.965.373-.131.029-.233.021-.35.029-.117.022-.227.014-.344.044-.234.029-.453.117-.687.124a13 13 0 0 0-1.505.19c-.636.124-1.191.548-1.652.957-.504.41-.994 1.06-1.337 1.717-.227.41-.387.855-.512 1.309-.168.694-.255 1.425-.116 2.126.124.54.38 1.023.643 1.476.051.103.146.183.175.293.153.409.132.591-.161.928-.066.073-.124.16-.19.226-.219.227-.562.22-.95-.03-.57-.372-.964-.942-1.279-1.556-.277-.635-.387-1.337-.423-2.024-.03-1.038.182-2.053.526-3.003l.051.014zm52.799-5.358a7.5 7.5 0 0 1 1.863 2.609c.139.35.336.68.417 1.044a8.5 8.5 0 0 1 .044 3.793c-.103.541-.227 1.09-.446 1.6-.139.33-.285.658-.504.95a2.1 2.1 0 0 1-.877.666c-.219.087-.256-.022-.3-.293-.022-.263-.19-.738-.168-1.045.117-.526.095-1.067.146-1.586.103-.518.146-1.052.263-1.622.117-.694-.146-1.38-.365-2.017-.256-.709-.607-1.337-1.125-1.885a6.2 6.2 0 0 0-1.119-.899c-.628-.387-1.322-.73-2.06-.855-.578-.102-1.155.022-1.688.11l-.344.073c-.431.022-.584-.124-.818-.643-.051-.117-.11-.22-.154-.322-.131-.314-.029-.804.395-1.067.614-.373 1.323-.526 2.024-.526s1.403.117 2.083.322c1.008.306 1.944.84 2.777 1.527l-.037.051zm13.32 33.444c.058.972-.139 1.856-.453 2.66-.117.292-.197.607-.373.87a6.36 6.36 0 0 1-2.368 2.192c-.409.234-.855.402-1.3.555-.556.176-1.235.358-1.783-.087-.169-.147-.11-.263.058-.527.08-.124.19-.336.285-.467.102-.132.197-.344.307-.344.38-.117.731-.299 1.067-.504s.716-.365 1.096-.606c.468-.285.702-.834.921-1.316.263-.533.453-1.14.489-1.732a3 3 0 0 0-.131-1.081c-.176-.526-.475-1.06-.936-1.47-.35-.328-.833-.481-1.256-.693-.095-.052-.198-.08-.285-.14-.168-.109-.264-.204-.285-.343-.015-.153.029-.329.116-.57.044-.11.074-.219.117-.314.073-.168.19-.3.337-.395.146-.095.343-.168.518-.131 1.089.117 2.039.796 2.814 1.776.577.716.964 1.695 1.081 2.66h-.051zm-16.589 15.064a8.5 8.5 0 0 0 1.717-.248c.198-.059.358-.176.548-.249.687-.248 1.323-.687 1.893-1.249.241-.256.417-.57.541-.892.168-.416.292-.833.519-1.271.073-.139.321-.117.584.044.263.153.592.475.614.833 0 .307 0 .628-.058.935-.081.3-.183.592-.322.877-.277.555-.636 1.081-1.169 1.432-.614.417-1.14.95-1.82 1.279a7 7 0 0 1-2.265.621 8.5 8.5 0 0 1-1.432.037c-.724-.037-1.433-.212-2.112-.409-.526-.161-1.096-.249-1.608-.505-.11-.051-.226-.102-.336-.175-.387-.263-.387-.497-.132-.928.059-.102.11-.197.176-.292.219-.3.57-.454.847-.41.863.103 1.477.329 2.185.439a6 6 0 0 0 1.601.066v.051z"/>
  <path fill="#12111f" d="M222.024 119.273c.314.394.716.694 1.067 1.052l.54.519.57.453c.782.585 1.608 1.118 2.514 1.527a16.5 16.5 0 0 0 5.744 1.52c1.454.132 2.931.029 4.363-.204 1.271-.205 2.506-.541 3.646-1.082a13 13 0 0 0 3.172-2.112c1.922-1.717 3.405-3.968 4.531-6.379.994-2.149 1.68-4.465 2.133-6.789.307-1.491.505-3.011.665-4.524l.11-1.14.139-1.14.132-1.14q.087-.57.263-1.14c.182-.475.285-.687.336-.672.058.014.109.248.329.658.482.818 1.023 2.389.913 4.231-.256 3.244-.833 6.482-1.929 9.602-1.082 3.106-2.638 6.146-4.977 8.638-1.388 1.476-3.032 2.813-4.932 3.749-1.908.928-3.969 1.425-6.022 1.578-4.502.322-9.149-.95-12.686-3.807-2.119-1.776-3.822-3.954-5.189-6.285-2.119-3.522-3.347-7.483-4.187-11.414-.636-3.07-1.001-6.146-.943-9.274.03-.687.052-1.36.095-2.053.293-2.565.622-3.355 1.25-3.771.124-.095.248-.234.343-.285.161-.088.242.139.351.621.154.49 0 1.17 0 2.075-.175 2.653-.08 5.386.249 8.119.307 2.733.782 5.488 1.607 8.148.636 1.966 1.345 3.91 2.31 5.73.204.475.511.884.767 1.33.263.438.526.884.84 1.278.307.41.592.833.907 1.228l1.001 1.14-.037.037z"/>
  <path fill="#12111f" d="M221.261 90.318a10.5 10.5 0 0 0 3.113-.665c.366-.139.702-.35 1.06-.519 1.249-.6 2.426-1.418 3.318-2.492.409-.475.657-1.045.92-1.593l.198-.548a2.5 2.5 0 0 1 .204-.548l.227-.563c.073-.19.219-.387.307-.592.146-.256.109-.226.248 0q.11.176.395.504c.146.22.234.483.285.775.022.249.058.519.022.767-.037.249-.11.49-.168.738a5 5 0 0 1-.249.717c-.102.233-.248.438-.373.65a7.9 7.9 0 0 1-1.995 2.134c-.92.68-1.826 1.432-2.857 1.951-1.125.57-2.346.943-3.581 1.155-.76.131-1.534.197-2.309.182a11.9 11.9 0 0 1-3.464-.577c-.869-.27-1.746-.577-2.55-1.082a3.5 3.5 0 0 1-.519-.343c-.321-.234-.424-.49-.46-.694-.037-.205.036-.402.19-.629.065-.102.124-.204.197-.292.227-.263.723-.322 1.14-.124.636.285 1.177.599 1.768.847.585.256 1.214.446 1.864.592.965.212 2.002.3 3.047.183v.051z"/>
  <path fill="#12111f" d="M234.679 85.703c.299.205.599.431.957.57.336.19.709.292 1.082.41.27.109.562.065.847.138.994.19 2.09.263 3.135 0 .241-.03.461-.132.687-.212.219-.095.453-.153.651-.292l.781-.475a1.8 1.8 0 0 1 .395-.241l.219-.103c.081-.029.183-.029.285-.036.285.022.271.029.315.329.073.329.08.87-.212 1.198-.548.504-1.162.972-1.857 1.286-.168.08-.336.176-.518.234-.183.051-.373.088-.556.132l-.555.11c-.19.021-.38.021-.57.028a5 5 0 0 0-.672.052l-.68.029a6.7 6.7 0 0 1-1.374-.015c-.504-.022-.986-.212-1.476-.329-.468-.182-.95-.358-1.389-.606l-.796-.482-.724-.585c-.358-.3-.65-.687-.957-1.03l-.387-.592c-.132-.198-.271-.38-.358-.6-.146-.328-.358-.628-.512-.957a33 33 0 0 1-.409-1.016 2.6 2.6 0 0 1-.117-.467c0-.6.161-.797.643-.921.11-.03.219-.066.329-.08.358-.052.716.16.935.482.073.124.176.234.212.358.044.117.095.234.168.343.132.22.234.431.329.65.263.395.453.805.731 1.17.161.307.431.519.643.804.117.131.27.226.395.343.139.11.263.241.431.322l-.029.05zm25.24 25.799c.366.066.826.051 1.184-.029.124-.029.219-.117.329-.161.394-.146.84-.453 1.14-.979a3.4 3.4 0 0 0 .27-.76c.059-.344.198-.694.395-1.082.066-.117.226-.109.438 0 .205.103.541.307.665.563.234.46.263.943.205 1.44a3.34 3.34 0 0 1-.731 1.359c-.424.475-.855 1.023-1.454 1.33-.68.329-1.301.416-1.937.446a7 7 0 0 1-1.169-.081c-.584-.095-1.14-.329-1.666-.563-.409-.19-.884-.314-1.264-.606-.088-.059-.176-.117-.249-.19-.146-.132-.182-.27-.131-.417.044-.146.153-.285.329-.453.08-.08.153-.153.241-.226a1.48 1.48 0 0 1 .906-.322c.329.073.621.103.833.19s.417.168.628.256c.315.11.658.227 1.038.241v.051zm7.842-20.672c.088.454.227.892.227 1.353l.036.672-.058.672c-.015.322-.037.65-.139.972a5.53 5.53 0 0 1-2.017 2.682l-.621.366c-.102.058-.197.131-.3.182l-.329.124c-.277.088-.548.249-.84.27-.3.015-.599-.014-.884-.072-.19-.117-.161-.139-.051-.373.117-.226.299-.577.526-.775.847-.496 1.461-.92 2.053-1.541.088-.095.161-.205.234-.307.059-.117.088-.256.124-.38.103-.249.073-.534.139-.797.073-.292.059-.6.081-.906-.044-.307-.015-.628-.125-.928-.051-.183-.073-.387-.153-.57l-.234-.54a16 16 0 0 0-.482-.76c-.212-.206-.388-.469-.658-.607-.205-.11-.402-.22-.628-.27-.227-.045-.461-.045-.658-.118-.088-.036-.197 0-.285-.029-.176-.03-.278-.11-.336-.248-.066-.125-.088-.337-.095-.6l-.022-.329c-.008-.3.226-.73.643-.825.292-.044.621-.124.928-.08.314.029.614.13.921.226.57.27 1.147.614 1.593 1.096.716.665 1.132 1.557 1.447 2.426l-.051.022z"/>
  <path fill="#12111f" d="M263.967 83.229a4 4 0 0 0-.183-2.032c-.095-.255-.249-.482-.365-.723-.402-.892-1.053-1.688-1.827-2.353a3.8 3.8 0 0 0-1.177-.614c-.263-.124-.541-.132-.811-.249-.27-.124-.555-.277-.877-.38-.205-.08-.183-.087-.029-.226.153-.11.46-.563.913-.746.103-.036.205-.087.307-.11h.292c.198.008.402 0 .6.037.402.03.767.198 1.125.351.694.344 1.33.797 1.783 1.41.548.71 1.184 1.36 1.608 2.178.46.877.738 1.893.738 2.923 0 .629-.102 1.235-.263 1.82-.249.884-.68 1.688-1.184 2.44-.402.578-.811 1.2-1.462 1.667-.146.095-.277.22-.445.278-.636.212-.899.058-1.089-.424-.044-.11-.088-.22-.117-.33-.08-.365.066-.737.263-.964.285-.38.548-.614.797-.942a6.7 6.7 0 0 0 .716-1.082c.314-.585.562-1.264.635-1.93zm-20.088-22.631c1.118.154 2.112.643 2.937 1.235.147.11.307.212.461.307q.22.165.416.351a7.6 7.6 0 0 1 1.908 3.179c.175.511.336 1.03.394 1.571.066.336.073.701.051 1.052-.036.183-.109.351-.168.52-.08.167-.19.32-.292.467-.139.183-.256.08-.431-.139-.11-.139-.219-.278-.307-.387-.11-.14-.27-.293-.336-.424a7 7 0 0 0-.57-1.374 31 31 0 0 0-.607-1.44c-.241-.628-.789-1.074-1.293-1.476-.556-.453-1.184-.81-1.856-.986a3 3 0 0 0-.636-.117 3 3 0 0 0-.665-.022c-.68.051-1.389.241-1.937.65-.431.314-.672.804-.818 1.235-.044.095-.037.205-.073.293-.059.175-.124.27-.278.314a3 3 0 0 1-.65.036h-.351a.76.76 0 0 1-.49-.226c-.138-.14-.336-.38-.299-.621.044-.739.358-1.477.84-2.076s1.118-1.052 1.791-1.38a6.3 6.3 0 0 1 3.266-.586v.059z"/>
  <path fill="#12111f" d="m236.264 61.502-.409-.373c-.139-.132-.307-.212-.46-.322-.307-.233-.658-.38-1.016-.548-.256-.139-.556-.124-.819-.226-.957-.263-2.016-.431-3.04-.22-.233.015-.445.117-.665.183-.212.088-.445.132-.635.263-.241.168-.519.27-.797.395-.248.168-.555.256-.921.329-.292-.022-.219.022-.234-.234a5 5 0 0 1 .015-.534c.007-.11.015-.24.044-.35.036-.103.08-.212.146-.3.102-.175.241-.307.373-.453l.204-.22.242-.16c.314-.241.679-.365 1.037-.519.183-.066.358-.16.548-.182l.578-.074.577-.05c.19 0 .387.021.577.043q.34.032.68.03l.679.065c.461.015.907.095 1.345.212.49.095.935.343 1.396.519.438.241.877.475 1.271.782l.709.584.621.68c.315.336.527.775.782 1.155.161.438.402.84.519 1.286.088.343.234.68.322 1.03.065.35.139.709.19 1.082.022.16.022.314.014.482-.109.592-.277.753-.825.738h-.329c-.315-.03-.716-.343-.797-.687-.036-.131-.088-.256-.095-.38-.014-.124-.022-.241-.066-.358a5 5 0 0 1-.138-.687c-.147-.431-.227-.87-.439-1.271-.095-.322-.343-.578-.497-.885-.102-.138-.234-.263-.343-.401-.117-.132-.227-.278-.38-.38l.029-.037zm-22.798.634a10.8 10.8 0 0 1 3.2-1.973c.424-.153.826-.387 1.272-.475 1.557-.38 3.201-.358 4.699.095.665.19 1.323.388 1.944.673.372.226.789.387 1.103.701.154.154.322.3.446.483.131.175.226.394.336.584.117.256.029.292-.285.329-.153.022-.373.051-.628.102-.234.022-.483.044-.709.015-.731-.19-1.381-.336-2.01-.563-.636-.22-1.301-.321-2.002-.468-.855-.182-1.747.088-2.587.351a8.6 8.6 0 0 0-2.631 1.345 7 7 0 0 0-1.33 1.286c-.577.738-1.089 1.579-1.308 2.492-.175.709-.102 1.432.029 2.097.037.146.095.285.095.431.051.541-.044.746-.519 1.023-.109.066-.204.14-.314.19-.351.183-.767.03-1.074-.475-.482-.738-.577-1.644-.563-2.528.03-.884.249-1.761.585-2.58.49-1.22 1.293-2.28 2.221-3.186l.044.037zm-16.047 37.618c-.227.57-.256 1.534-.059 2.324.044.146.103.285.154.431.066.139.146.263.19.416.365 1.023 1.103 1.973 2.104 2.668.432.336.943.548 1.462.73.343.095.672.22 1.023.3l.256.08q.122.076.256.132c.168.088.343.168.526.263.219.124.19.226-.029.416-.11.095-.264.227-.468.373-.103.073-.205.146-.322.212-.058.037-.117.051-.182.095-.059 0-.117.015-.176.015-.431.014-.862 0-1.301-.059a7.3 7.3 0 0 1-1.271-.351 5.6 5.6 0 0 1-1.206-.599c-.358-.277-.709-.57-1.008-.928-.709-.818-1.52-1.637-1.959-2.682-.475-1.154-.592-2.36-.46-3.588.109-.79.394-1.49.752-2.126.549-.972 1.33-1.769 2.244-2.39.694-.482 1.476-.95 2.412-1.103.204-.037.401-.096.613-.073.388.036.629.138.768.3.138.145.182.357.175.635 0 .124 0 .248-.015.358-.058.358-.416.716-.76.818-.526.234-.928.351-1.33.6a5.2 5.2 0 0 0-1.125.877c-.519.526-.987 1.198-1.198 1.885l-.059-.015zm25.933.621c-.241 2.718 1.309 7.081 4.765 6.394.965-.19 1.798-.87 2.434-1.578.35-.395.416-1.038 0-1.418-.38-.351-1.045-.417-1.418 0a7 7 0 0 1-.402.416l-.197.176c-.015.007-.125.102-.03.029s-.043.029-.058.044a4 4 0 0 1-.387.241c-.03.015-.066.029-.095.051-.132.073.036.008.051-.014-.022.036-.176.065-.219.073-.059.014-.125.029-.183.044-.022 0-.073 0-.088.014 0 0 .219-.014.117-.014-.124 0-.248.007-.38 0-.175 0 .212.051.044 0-.051-.015-.11-.022-.168-.044-.044-.015-.117-.059-.161-.051 0 0 .197.095.11.043a.6.6 0 0 1-.103-.051c-.102-.051-.197-.124-.299-.182-.088-.052.08.065.08.065-.014-.022-.051-.044-.073-.058a3 3 0 0 1-.161-.146c-.102-.095-.182-.205-.277-.307-.081-.081.065.08.058.073-.015 0-.051-.066-.058-.081l-.132-.197a4 4 0 0 1-.205-.358 3 3 0 0 1-.095-.19c-.021-.036-.116-.27-.065-.146s-.03-.08-.044-.117a3 3 0 0 1-.073-.212c-.051-.153-.095-.314-.139-.468a7 7 0 0 1-.117-.562c0-.015-.022-.11-.015-.117-.014.007.022.204 0 .036-.007-.087-.022-.182-.022-.27-.029-.38-.021-.76.015-1.14.044-.526-.497-1.03-1.008-1.009-.585.03-.958.446-1.009 1.009zm10.713.354c-.358 1.974-.585 4.378 1.272 5.686 1.761 1.242 4.092.263 5.356-1.221.811-.957 1.323-2.111 1.337-3.376 0-.526-.467-1.03-1.008-1.008s-1.001.438-1.009 1.008c0 .11-.007.212-.014.322 0 .022-.022.153 0 .022.022-.139 0 .029-.015.066a5 5 0 0 1-.153.57c-.015.051-.037.095-.059.146.066-.198.029-.066.008-.022-.044.08-.081.168-.125.248-.102.19-.226.351-.336.534-.058.095.029-.037.037-.044l-.103.124c-.065.08-.138.154-.212.234-.131.139-.292.256-.423.387-.095.095.138-.087.022-.014-.03.022-.059.043-.095.065-.081.059-.169.11-.249.161a2 2 0 0 1-.226.124c-.066.037-.373.147-.117.066-.154.051-.3.11-.461.146-.044.008-.087.015-.131.03-.146.036.022-.052.073 0-.022-.022-.227.014-.263.014-.073 0-.154-.014-.227-.007-.124.014.205.051.081.014a.5.5 0 0 0-.095-.014c-.081-.015-.161-.044-.242-.066-.051-.015-.117-.073.03.015-.044-.03-.095-.044-.139-.073-.088-.052-.168-.11-.256-.161.154.088.037.029-.044-.051-.058-.059-.109-.117-.168-.176.022.022.124.183.037.037-.03-.051-.066-.095-.088-.146-.022-.044-.124-.168-.11-.212 0 0 .081.234.022.051-.007-.037-.022-.066-.036-.102a5 5 0 0 1-.132-.556c-.029-.139 0 .19.008.051 0-.058-.015-.124-.015-.182 0-.103-.007-.205-.007-.3q0-.328.022-.658.012-.175.036-.35c0-.037.007-.081.015-.117.007-.132-.03.19 0 0 .036-.227.073-.461.117-.687.095-.519-.139-1.111-.702-1.235-.49-.11-1.133.146-1.235.701zm1.777-6.092c-.059.029-.183.073-.051.022.044-.015.095-.037.139-.052.109-.036.211-.073.321-.102a2 2 0 0 1 .292-.066c.059-.014.132-.014.183-.029-.051.022-.219.022-.066.008q.316-.033.643-.022.156 0 .3.022c.037 0 .212.029.044 0a4 4 0 0 1 .665.16l.321.11c.139.044-.19-.088-.051-.022.044.022.095.044.139.066.19.095.38.197.555.314l.125.088c.168.117-.11-.103-.015-.008q.133.108.256.227c.416.395 1.14.446 1.549 0s.446-1.133 0-1.55c-.811-.76-1.849-1.307-2.952-1.49a6.06 6.06 0 0 0-3.501.438c-.526.234-.687 1.038-.394 1.498.351.549.935.644 1.498.395zm-4.371 23.335c.957.57 2.207.738 3.259.344.972-.366 1.827-1.074 2.236-2.039.11-.256.183-.49.102-.775a1.02 1.02 0 0 0-.46-.599c-.431-.226-1.155-.153-1.374.358a2.4 2.4 0 0 1-.248.461c-.015.021-.088.095-.088.124 0-.029.139-.168.044-.059-.059.066-.124.139-.19.205s-.154.117-.205.183c.029-.037.168-.125.059-.044-.037.022-.066.044-.103.066q-.12.075-.241.138-.055.031-.109.052c-.11.058.241-.088.043-.015-.08.029-.16.058-.248.08-.059.015-.11.03-.168.037-.029 0-.19.029-.037.007.154-.022 0 0-.036 0-.059 0-.117.007-.168.007h-.271c-.036 0-.241-.021-.073 0 .154.015 0 0-.036-.007a2 2 0 0 1-.3-.08l-.131-.044c-.147-.051.029.029.051.022-.051.014-.249-.132-.3-.161-.453-.27-1.125-.117-1.374.358-.248.475-.124 1.089.358 1.374z"/>
  <path fill="#12111f" d="M231.587 99.405c-.029 1.388-.175 2.748-.336 4.07-.058.483-.058.972-.131 1.447-.249 1.681-.534 3.332-.651 4.984l-.014.446v.263c0 .146.08.307.241.321l.204.015c.059 0 .11.007.161 0l.329.022c.227 0 .46.036.694.066.468.065.928.102 1.396.277.307.263.278.168.044.497-.234.307-.709.76-1.294.87a5 5 0 0 1-1.081.124h-.314c-.176-.007-.344-.007-.519-.029a2.4 2.4 0 0 1-.943-.256c-.504-.256-.826-.84-.899-1.425-.022-.153-.029-.307-.044-.46l.015-.336.037-.505q.089-.997.277-1.973c.234-1.191.249-2.419.38-3.61.139-1.308.293-2.601.329-3.895.029-.782.029-1.607-.014-2.382-.037-.577-.11-1.133-.293-1.622a3 3 0 0 0-.358-.673c-.088-.124-.102-.131-.204-.212a2 2 0 0 0-.3-.182c-.724-.358-1.659-.41-2.441-.351-.175.015-.336.066-.497.08-.562.073-.628-.036-1.052-.438-.095-.095-.212-.168-.307-.256-.161-.146-.241-.336-.153-.584a.85.85 0 0 1 .248-.373q.186-.185.46-.314c.534-.263 1.082-.337 1.608-.366a6.6 6.6 0 0 1 1.564.14c.519.109 1.03.27 1.571.547.278.16.555.307.892.629.08.08.175.175.233.255l.147.19c.095.125.175.263.263.402.475.826.65 1.688.73 2.456.081.782.074 1.44.081 2.126h-.051zm-5.415 45.47a24 24 0 0 1 .512-1.557c.095-.263.205-.526.321-.789l.19-.402c.088-.154.19-.307.285-.461.293-.423.622-.796 1.009-1.059.665-.475 1.403-.687 2.097-.87.702-.161 1.389-.27 2.076-.351.606-.058 1.213-.124 1.805-.16a8 8 0 0 1 2.301.109c.234.044.205.088 0 .19-.197.088-.555.307-.964.453-1.476.439-2.894.841-4.29 1.162-.84.205-1.571.716-2.126 1.162-.285.285-.461.497-.658.972-.183.446-.351.914-.49 1.396a24 24 0 0 0-.482 1.827 53 53 0 0 0-.57 2.835c-.117.738-.124 1.476-.19 2.222-.015.161-.015.329-.036.489-.095.607-.249.79-.68.841-.095.014-.197.036-.292.036-.322 0-.541-.285-.592-.738a18.5 18.5 0 0 1 .051-4.172c.175-1.038.416-2.083.687-3.135h.051z"/>
  <path fill="#12111f" d="M357.58 152.936c-2.974-4.473-115.608-6.212-119.729-1.323-5.62 6.664-2.565 76.278-2.565 76.278s36.37-.227 36.472 3.164c.103 3.303.753 14.717.753 14.717s79.647-.752 81.349-1.14c4.334-.986 4.867-4.311 5.24-12.686s-.117-76.891-1.527-79.01zm-22.062 57.906c-.95 1.841-6.19 3.054-6.19 3.054s-3.544 1.747-5.831 3.15c-2.28 1.396-5.159-.811-5.159-.811s-4.794 1.469-7.118 1.249c-2.317-.226-5.846-3.588-5.846-3.588s-7.403 3.281-11.291 3.588c-3.887.307-12.079-3.588-12.079-3.588s-4.341 3.062-8.331 3.135c-3.983.081-6.058-4.377-6.058-4.377s-5.846 1.206-8.82 0c-2.975-1.198-.987-4.143-.987-4.143s-4.085-.081-6.328-.38c-2.244-.3-5.284-4.597-5.963-6.132-.673-1.527.964-6.299 3.544-7.541s4.377-3.778 4.267-5.978.95-4.26 2.522-5.32c1.578-1.052 5.722-4.114 7.687-5.349 1.973-1.242 4.633-8.864 6.27-11.51 1.645-2.645 5.715-5.926 7.637-7.008 1.922-1.089 8.521-.84 10.625 0 2.105.833 6.226 6.175 6.226 6.175s.972 1.001 1.55-1.586c.57-2.586 3.938-3.266 5.86-4.128 1.922-.855 8.222-.57 10.202 0 1.973.562 9.003 6.693 10.669 8.966 1.659 2.273 3.369 12.482 3.406 13.227s.095 8.324 1.476 8.82c1.374.497 7.768 8.93 8.74 11.232s.277 7.008-.68 8.843" opacity=".15"/>
  <path fill="#12111f" d="M313.179 187.143a27 27 0 0 0 1.652-.592c.197-.081.372-.205.57-.278.723-.256 1.417-.541 2.155-.789.322-.11.636-.249.936-.395.409-.168.782-.387 1.337-.351.168.015.124.19.051.402-.044.117-.08.227-.109.322a.7.7 0 0 1-.205.292c-.643.453-1.272 1.089-2.105 1.352-.497.168-.906.534-1.366.804-.504.292-1.031.563-1.549.84-.322.168-.651.329-.972.497-.49.256-1.009.468-1.491.753-.373.226-.694.563-1.118.84-.095.059-.19.139-.3.19-.175.095-.394.095-.526 0-.139-.102-.219-.299-.27-.621-.022-.146-.051-.292-.059-.446a4 4 0 0 1 .117-1.096c.322-.482.987-.818 1.652-1.118.504-.226 1.045-.424 1.585-.643l.03.044zm-23.486-6.85c-.913-.906-2.119-1.556-3.39-1.775-.322-.059-.622-.052-.914.116-.248.147-.482.424-.548.709-.066.307-.051.643.117.914.161.248.409.497.709.548q.622.11 1.213.351l-.285-.117q.623.271 1.169.687l-.241-.183c.175.131.336.278.49.431.219.212.533.351.84.351s.636-.132.84-.351c.432-.475.475-1.213 0-1.681"/>
  <path fill="#12111f" d="M275.568 185.659c-.205.219-.534 6.036.299 9.054s4.67 4.553 7.958 4.509 4.246-1.849 4.246-1.849 1.535-9.675 1.783-10.041c.249-.365-3.668-3.208-5.064-2.894-1.396.307-9.237 1.228-9.237 1.228zm18.729.981c.146.263-1.228 8.696 1.571 11.597 2.799 2.902 7.665 2.741 8.374 1.952.709-.797 3.135-3.34 3.61-4.363s2.222-6.497 2.222-6.497-2.039-2.367-4.706-2.682-11.079 0-11.079 0z" opacity=".25"/>
  <path fill="#12111f" d="M280.645 194.949c-.109.043-.233.08-.336.146-.007 0-.022.014-.029.022a2 2 0 0 0-.263.204c-.051.044-.095.117-.139.168s-.095.11-.131.176c0 .014-.015.022-.015.036-.044.095-.095.205-.132.307-.007.022-.014.051-.022.073q-.03.187-.051.373v.08c0 .125.03.256.051.38 0 .022.008.051.015.073.037.117.088.234.139.344.007.022.022.044.036.066 0 .007.015.022.022.029q.099.133.198.256c.014.022.036.036.058.051.227.182.351.277.643.365.015 0 .029.007.044.007.11.022.234.037.344.044h.095c.109-.007.233-.029.343-.044q.022.002.044-.007c.124-.029.241-.095.358-.146q.045-.022.08-.044c.11-.066.205-.153.307-.234l.066-.065.029-.03c.073-.087.146-.182.212-.277.015-.022.029-.052.044-.073.051-.103.095-.212.132-.315 0-.014.014-.029.014-.044.022-.073.029-.16.037-.233a1 1 0 0 0 .022-.249c0-.109-.03-.234-.044-.343 0-.015 0-.03-.008-.051-.014-.074-.058-.147-.087-.22a2 2 0 0 0-.095-.212c-.066-.109-.154-.212-.234-.307-.022-.021-.044-.051-.066-.073a2.6 2.6 0 0 0-.314-.241c-.029-.022-.059-.036-.088-.051a4 4 0 0 0-.358-.153 1 1 0 0 0-.102-.03c-.117-.022-.234-.036-.351-.051h-.153c-.139.015-.278.022-.41.059a.9.9 0 0 0-.402.212.85.85 0 0 0-.306.336.9.9 0 0 0-.139.438.86.86 0 0 0 .022.475l.117.285c.102.176.248.322.423.424l.285.117q.32.087.629 0a.2.2 0 0 0 .066-.015l-.315.044a.8.8 0 0 1 .183 0l-.314-.044a1 1 0 0 1 .175.052l-.285-.117c.059.022.11.058.154.095l-.241-.183q.063.053.117.117l-.183-.241c.029.044.058.08.073.131l-.117-.285a1 1 0 0 1 .036.132l-.043-.314v.116l.043-.314c0 .044-.021.095-.036.139l.117-.285c-.022.044-.044.08-.073.124l.183-.241a.4.4 0 0 1-.11.11l.241-.183c-.044.029-.088.059-.131.08l.284-.116c-.043.014-.087.029-.131.036l.314-.044h-.109l.314.044a.24.24 0 0 1-.102-.029l.284.117-.08-.044.241.183s-.051-.044-.073-.073l.183.241s-.044-.066-.066-.103l.117.285c-.022-.043-.029-.095-.037-.146l.044.314v-.146l-.044.315c0-.044.015-.081.03-.117l-.117.285s.029-.066.051-.095l-.183.241s.037-.044.059-.059l-.241.183.08-.044-.285.117h.007a.9.9 0 0 0 .402-.219.85.85 0 0 0 .307-.336.9.9 0 0 0 .139-.439.9.9 0 0 0-.022-.475l-.117-.285a1.2 1.2 0 0 0-.424-.424l-.285-.117a1.16 1.16 0 0 0-.628 0zm15.931 1.72-.051.073c0 .014-.014.022-.014.036a2.4 2.4 0 0 0-.132.322l-.022.088a3 3 0 0 0-.044.343v.132c.008.117.03.233.044.35q-.002.023.007.044c0 .029.015.059.022.088.037.102.088.212.132.307l.022.051a.3.3 0 0 0 .051.073c.073.102.146.212.241.3.007.007.022.014.029.029.081.066.176.139.263.205a3 3 0 0 0 .432.19c.117.036.263.043.394.058.161.015.329-.022.483-.044.029 0 .051-.007.08-.014.124-.037.241-.095.358-.147.029-.014.051-.022.073-.036.015-.007.022-.015.037-.029.087-.066.182-.132.263-.205.022-.022.044-.037.058-.058.066-.081.139-.176.205-.264.007-.014.022-.029.029-.043 0-.015.015-.022.015-.037.043-.102.095-.212.131-.314l.022-.088a3 3 0 0 0 .044-.343v-.125c-.015-.124-.022-.263-.059-.387a.2.2 0 0 0-.029-.088c-.044-.116-.087-.241-.153-.35-.066-.11-.161-.22-.227-.307a.2.2 0 0 0-.058-.059c-.008-.007-.022-.014-.029-.022-.088-.073-.176-.138-.264-.204a.24.24 0 0 0-.087-.044c-.124-.059-.256-.124-.388-.154a2 2 0 0 0-.423-.051h-.066c-.117.015-.241.03-.358.051-.183.03-.358.117-.519.19a1.6 1.6 0 0 0-.241.132.9.9 0 0 0-.336.307.9.9 0 0 0-.212.402.9.9 0 0 0-.022.475c0 .161.051.307.139.438l.182.241q.22.22.526.307l.315.044c.212 0 .416-.051.599-.161a1.6 1.6 0 0 1 .248-.138l-.285.117a1 1 0 0 1 .249-.074l-.314.044c.058 0 .109-.007.168 0l-.315-.044a.3.3 0 0 1 .132.037l-.285-.117q.065.023.11.066l-.242-.183s.066.059.088.095l-.183-.241q.043.057.074.124l-.117-.285a.6.6 0 0 1 .043.154l-.043-.315v.147l.043-.315a.25.25 0 0 1-.036.125l.117-.285s-.037.073-.059.102l.183-.241s-.058.066-.095.095l.241-.183q-.056.042-.124.073l.285-.117a.6.6 0 0 1-.153.044l.314-.044h-.161l.314.044a.26.26 0 0 1-.124-.036l.285.116a.4.4 0 0 1-.117-.065l.241.182s-.058-.051-.087-.087l.182.241a.6.6 0 0 1-.073-.132l.117.285a.6.6 0 0 1-.044-.16l.044.314v-.161l-.044.314c.008-.051.022-.095.037-.146l-.117.285c.022-.044.044-.08.066-.117a.9.9 0 0 0 .138-.438.87.87 0 0 0-.021-.475.9.9 0 0 0-.212-.402.85.85 0 0 0-.337-.307l-.285-.117a1.14 1.14 0 0 0-.628 0l-.285.117a1.2 1.2 0 0 0-.424.424zm-9.675.006c.315-.424.57-.921.782-1.439.088-.183.117-.395.19-.585.241-.687.497-1.396.643-2.127.073-.321.117-.657.154-.986q.031-.318.073-.636c.036-.212.102-.424.168-.636.044-.131.073-.102.124.015.044.117.146.329.198.585.021.869 0 1.768-.205 2.645-.117.526-.175 1.081-.344 1.615a10 10 0 0 1-.701 1.71c-.205.329-.387.665-.643.957-.19.227-.366.461-.614.643l-.336.293c-.117.095-.249.16-.373.241-.373.277-.796.467-1.242.636-.102.021-.197.051-.3.058-.387.051-.511-.022-.592-.307-.014-.066-.044-.131-.051-.197-.029-.219.102-.424.314-.519.161-.066.315-.124.468-.19.139-.088.278-.168.431-.219.154-.037.278-.154.417-.22.139-.08.285-.138.394-.263.19-.153.388-.292.548-.497.088-.095.176-.182.256-.285l.219-.328.022.014z"/>
  <path fill="#12111f" d="M293.973 165.849s-8.185-7.454-16.048-4.736c-5.24 1.812-7.797 4.589-9.551 9.23-1.754 4.64-2.2 5.481-4.092 6.927-1.893 1.447-5.313 3.165-6.431 4.1s-3.384 2.682-3.873 4.874c-.49 2.193-1.257 5.671-.651 5.993.607.321-8.104 2.214-8.097 7.943 0 4.341 5.057 8.791 10.217 7.944 0 0 1.885 6.869 9.726 5.765 0 0 3.289 1.747 7.344 1.352 1.849-.175 4.626-1.834 5.934-3.953 0 0-5.027-7.249-5.934-10.158-.913-2.908-1.805-6.694-1.805-6.694s-3.069-.387-4.392-2.784c-1.322-2.39-2.47-5.539-1.666-6.577s2.967-2.623 2.967-2.623 4.838.117 6.928-1.52 4.83-1.477 4.83-1.477 6.848-.708 8.689-2.36 4.392-4.545 4.392-4.545 3.084 4.37 5.415 4.165 4.619.015 4.619.015 4.435 5.495 8.14 6.686 10.114 1.666 10.114 1.666.051 2.09 0 4.232c-.051 2.141-1.396 3.69-2.477 4.516-1.082.825-3.471 1.936-3.471 1.936s-1.937 8.463-2.894 10.216-4.75 5.62-4.75 5.62 4.45 5.744 10.274 3.193c0 0 4.18 4.911 8.17.454.863-.965 6.102-1.674 8.185-2.697 2.477-1.213 3.347-4.64 1.44-12.854 0 0-7.33-6.051-8.185-10.165-.848-4.107-1.498-12.803-1.936-14.389-.439-1.586-3.684-8.777-5.62-10.516-1.937-1.739-9.573-7.023-11.736-6.613s-6.687 1.673-8.66 3.003c-1.973 1.323-5.123 4.831-5.123 4.831z"/>
  <path fill="#12111f" d="M325.208 217.775a7 7 0 0 1-1.125.394c-.373.125-.768.19-1.162.249-.278.058-.57.124-.863.131-1.037-.029-2.09-.321-2.945-.913-.358-.263-.752-.512-1.015-.855-.402-.387-.636-.935-.548-1.535-.03-.16 0-.146.153-.08.073.037.227.058.395.08.087.008.197.008.277.022.073.022.147.044.205.073.49.154.745.388 1.082.505l.204.153q.123.055.234.11c.073.044.153.087.227.146.087.036.175.066.263.109.102.044.212.095.328.11h.366c.241 0 .497-.073.745-.08.278 0 .563-.095.848-.132.278-.088.57-.161.848-.27.336-.146.687-.285.993-.497.483-.292.936-.658 1.265-1.104.234-.358.321-.796.35-1.169 0-.08.015-.168.015-.248.022-.285.19-.322.848-.307h.431c.46.022.87.256.906.665.132 1.206-.504 2.338-1.286 3.113a8.1 8.1 0 0 1-2.017 1.381l-.029-.051zm-54.143-2.308c.79.285 1.659.475 2.492.534.307.014.607-.037.914-.059 1.089-.051 2.236-.263 3.317-.709a6.8 6.8 0 0 0 1.352-.767c.57-.343 1.031-.818 1.725-1.045.241-.051.3.051.336.365a2.5 2.5 0 0 1 0 .578 1.02 1.02 0 0 1-.241.599c-.256.278-.526.548-.811.796a7 7 0 0 1-.95.629 8.3 8.3 0 0 1-2.127.855c-.891.212-1.79.563-2.755.628-1.067.073-2.097-.051-3.084-.277a14 14 0 0 1-1.79-.556c-.884-.343-1.717-.818-2.514-1.352-.614-.409-1.279-.803-1.827-1.381a2.3 2.3 0 0 1-.351-.394c-.197-.263-.241-.49-.204-.673.036-.182.168-.336.394-.504.103-.08.205-.161.315-.219a1.02 1.02 0 0 1 1.096.058c.46.315.811.629 1.206.943.402.3.818.607 1.271.884a10.5 10.5 0 0 0 2.251 1.016z"/>
  <path fill="#12111f" d="M259.049 212.707c.519.409 1.155.658 1.886.753.27.029.54-.008.818-.015a9.2 9.2 0 0 0 3.04-.563 7.3 7.3 0 0 0 1.25-.665c.255-.161.482-.358.73-.533.249-.168.534-.307.812-.475.182-.095.27.014.299.27.029.249.029.716-.183 1.089a7 7 0 0 1-1.578 1.44 6.9 6.9 0 0 1-1.966.818c-.833.183-1.681.475-2.587.526-.979.051-2.031-.117-2.952-.548-.57-.256-1.082-.628-1.535-1.045-.701-.636-1.169-1.476-1.512-2.324-.256-.665-.556-1.352-.6-2.097-.021-.161-.043-.322-.029-.482.037-.607.278-.76.848-.746.131 0 .27 0 .395.022.438.066.76.351.84.673.351.971.453 1.717.826 2.462.277.526.657 1.045 1.205 1.396l-.021.044z"/>
  <path fill="#12111f" d="M335.584 141.719c-15.617-.885-31.292-1.308-46.952-1.55-5.715-.08-11.437-.065-17.144-.087-10.07-.037-20.147-.008-30.195.329-2.507.087-5.021.197-7.513.38-1.242.095-2.484.197-3.697.365-.3.044-.599.088-.884.146l-.395.08c-.066.015-.124.03-.19.052-.059.022-.124.043-.175.08-.059.044-.059.117-.081.175-.022.066-.036.11-.058.198l-.081.402c-.402 2.367-.57 4.903-.738 7.395a325 325 0 0 0-.358 7.527c-.321 8.923-.394 17.918-.431 26.783l.022 17.122v8.564c0 2.85-.095 5.707-.175 8.557-.169 3.552-.461 3.077-.98.074-.263-1.506-.54-3.64-.818-6.219-.241-2.58-.387-5.613-.424-8.894-.095-11.648-.132-23.297.088-34.982.131-5.839.292-11.685.643-17.56.087-1.469.197-2.938.321-4.414.146-1.483.278-2.945.585-4.509l.066-.299c.029-.125.051-.285.109-.439l.366-.891c.314-.57.986-.782 1.615-.958.182-.051.27-.065.372-.087l.3-.059.585-.095c.387-.058.76-.102 1.14-.146a85 85 0 0 1 4.457-.336c7.06-.351 14.228-.468 21.441-.57s14.462-.139 21.653-.088c15.806.117 31.613.453 47.405 1.118 4.859.212 9.726.453 14.586.782 4.86.351 9.712.672 14.586 1.454.928.161 1.842.329 2.806.651.124.044.234.087.388.146.153.073.306.139.453.234.285.175.518.431.635.752.315.592.373 1.009.519 1.506.446 1.885.607 3.727.797 5.583.321 3.698.482 7.388.599 11.078.219 7.374.248 14.733.241 22.04-.022 11.371-.124 22.508-.416 33.74-.066 2.477-.117 4.896-.212 7.388-.38 9.244-.775 12.175-1.411 14.126-.146.446-.307 1.03-.438 1.286-.468.855-.541-2.916-.402-9.675.226-10.027.416-20.323.511-30.773.074-10.443.176-21.039-.014-31.635-.073-3.932-.176-7.87-.38-11.787a141 141 0 0 0-.409-5.847c-.103-.957-.19-1.936-.337-2.864a18 18 0 0 0-.233-1.381c-.044-.22-.081-.453-.132-.665l-.168-.6c-.161-.475-.117-.336-.132-.365-.021-.007.03.007-.043-.015a8 8 0 0 0-.87-.255c-.87-.212-1.82-.373-2.77-.512-1.907-.278-3.858-.482-5.817-.665-3.909-.358-7.848-.614-11.787-.833l-.014-.058zm-25.43 102.572c3.749.059 7.491.117 11.239.146 1.367.015 2.733-.058 4.1-.044 4.816.044 9.639.044 14.462.044 2.141-.007 4.29-.087 6.409-.175 1.359-.073 2.726-.117 4.092-.139q2.05-.057 4.1.117c.855.183.745.256.044.636-.351.197-.855.394-1.462.613-.607.22-1.323.41-2.112.483-2.777.329-5.561.453-8.353.541-2.791.08-5.59.153-8.403.065-3.362-.087-6.862.095-10.304.117-3.786.022-7.564 0-11.349-.044l-6.979-.087c-3.522-.044-7.067-.132-10.56-.132-2.718 0-5.385.124-8.075.19-.592.015-1.169.051-1.768.051-2.214 0-2.916-.16-3.376-.811-.103-.146-.249-.285-.307-.424-.205-.453.709-.884 2.324-.986 4.808-.336 9.858-.329 14.937-.307 3.77.036 7.556.066 11.334.102v.059z"/>
  <path fill="#12111f" d="M263.375 186.993c.073-.826.27-1.608.54-2.339q.207-.55.468-1.067l.139-.255c.044-.073.139-.249.212-.366.161-.263.336-.504.548-.687.139-.168.373-.16.563-.241.197-.08.402-.088.606-.102l.49-.037.365-.014a24 24 0 0 0 2.543-.183c.841-.095 1.688-.241 2.492-.49.724-.204 1.396-.548 2.024-.928.797-.511 1.484-1.089 2.434-1.542.343-.109.307-.102.299.242 0 .175-.021.416-.043.723-.022.146-.022.336-.081.482a2.7 2.7 0 0 1-.241.41c-.336.489-.789.833-1.235 1.205-.482.293-.972.6-1.491.811a11 11 0 0 1-3.186.907c-1.293.175-2.616.416-3.909.475h-.22c-.065-.015-.131 0-.16.058a1 1 0 0 0-.11.154c-.037.051-.139.248-.205.372a8 8 0 0 0-.665 1.761c-.182.746-.234 1.513-.073 2.222.278 1.133.833 2.265 1.652 3.157.621.701 1.432 1.176 2.221 1.491.176.058.351.102.519.153.629.175.767.292.914.833.029.124.08.241.102.358a.5.5 0 0 1-.205.519 1.2 1.2 0 0 1-.358.183 1.8 1.8 0 0 1-.497.036c-1.11-.073-2.126-.562-2.989-1.191-.862-.636-1.578-1.447-2.163-2.346a9.2 9.2 0 0 1-1.03-2.185 7.3 7.3 0 0 1-.285-1.264 7 7 0 0 1-.037-1.293h.052zm48.976-4.193c1.725.49 3.537.745 5.401.848.687.044 1.366-.008 2.097.022.782.029 2.273.087 2.353 1.249.073.241.19.453.227.709l.08.585c.044.343.044.687.051 1.03a9.8 9.8 0 0 1-.913 3.932c-.512 1.081-1.213 2.09-2.119 2.879-1.17.964-2.668 1.71-4.188 1.41-.475-.161-.394-.109-.08-.438.161-.161.358-.446.606-.658q.187-.195.373-.38c.066-.066.132-.117.197-.19l.227-.117c.256-.168.526-.299.767-.475.22-.197.483-.336.673-.563.431-.38.811-.803 1.14-1.286.657-.957 1.037-2.134 1.235-3.369.043-.372.058-.752.029-1.132 0-.19-.037-.38-.066-.57a1.2 1.2 0 0 0-.044-.241c-.022-.066-.022-.154-.102-.176a.7.7 0 0 0-.212-.029h-.402l-.65-.022c-1.937-.015-3.954-.124-5.912-.504a23 23 0 0 1-3.566-.972c-1.747-.636-3.457-1.52-4.933-2.755-1.147-.95-2.185-2.119-2.821-3.53-.124-.314-.292-.606-.373-.935-.336-1.22-.16-1.644.446-1.959.139-.073.278-.16.424-.204.497-.146.928.27 1.22.95.424 1.03.965 1.929 1.608 2.718a9.2 9.2 0 0 0 2.39 2.09c1.417.877 3.113 1.579 4.845 2.017v.059zm-66.192 16.447a5.3 5.3 0 0 0-.241 1.929c.037.651.241 1.206.585 1.878.102.249.27.446.409.665s.307.417.46.622a7.76 7.76 0 0 0 4.604 2.974c.841.197 1.717.168 2.572.124.278-.036.549-.066.826-.11l.819-.16c.54-.125 1.154-.03 1.761-.095.358-.081.351.014.109.255-.124.117-.277.337-.475.614a3 3 0 0 1-.336.424 3.5 3.5 0 0 1-.445.336c-.607.249-1.243.388-1.893.505-.651.109-1.316.175-1.981.116-1.33-.087-2.667-.445-3.851-1.11-1.403-.775-2.799-1.783-3.712-3.15-.234-.38-.497-.745-.68-1.147l-.292-.592a7 7 0 0 1-.248-.658 6.7 6.7 0 0 1-.227-2.755c.146-1.111.519-2.148 1.03-3.091.775-1.432 1.871-2.638 3.135-3.632.987-.753 2.047-1.476 3.384-1.768.292-.059.585-.132.899-.132 1.169 0 1.512.373 1.512.957 0 .139.015.278-.007.402-.095.439-.548.621-1.074.665-1.564.154-3.179 1.082-4.494 2.434-.958 1.001-1.761 2.221-2.12 3.515h-.051zm64.52 17.048a6.4 6.4 0 0 0 2.244.38c.27 0 .533-.088.803-.125.965-.131 1.9-.57 2.748-1.198.358-.292.665-.665.906-1.06.168-.248.3-.519.446-.782.073-.131.139-.27.219-.402.073-.138.212-.255.322-.387.153-.161.256-.117.438.11.088.117.205.277.336.489.095.198.117.417.081.629-.081.372-.19.745-.336 1.111a5 5 0 0 1-.6 1.001c-.475.614-1.052 1.184-1.775 1.512-.841.402-1.688.877-2.631 1.06-1.045.19-2.024.146-3.026-.036-.613-.11-1.198-.322-1.768-.563-.862-.38-1.622-.936-2.317-1.535-.533-.467-1.11-.906-1.578-1.469-.095-.124-.205-.241-.292-.38-.168-.248-.205-.453-.146-.628.051-.176.182-.314.409-.482.102-.074.204-.154.307-.22.358-.204.782-.16 1.103.059.877.679 1.462 1.381 2.244 1.929a6 6 0 0 0 1.9.935l-.015.052zm-19.373-30.391c.212.073.417.146.621.19.073.015.139-.022.212 0 .271.102.541.146.855.226.139.037.263.022.402.03.168 0 .344.036.519.139.059.029.059.109.037.226s-.059.322-.125.431c-.117.176-.219.366-.343.453-.124.11-.263.19-.453.132-.219-.044-.409.109-.614.146-.234.029-.468.022-.694.022-.139 0-.278-.015-.417-.007-.204 0-.416-.044-.614.007-.153.044-.292.205-.438.321a.2.2 0 0 1-.095.059c-.124.015-.183-.124-.249-.68l-.043-.35c-.037-.373-.022-.782.058-.929.117-.255.241-.365.373-.431.131-.065.263-.087.402-.095.197-.022.409.03.614.073v.052z"/>
  <path fill="#12111f" d="M301.762 217.056c-2.061.943-4.304 1.454-6.54 1.593-2.244.132-4.473-.175-6.599-.709-.782-.175-1.542-.489-2.317-.723-.19-.066-.387-.117-.577-.197l-.548-.256-1.096-.526c-2.521-1.345-4.728-3.179-6.584-5.284-.446-.548-.928-1.059-1.33-1.629l-1.206-1.718-1.052-1.812c-.351-.599-.614-1.25-.928-1.871-1.009-2.251-1.864-4.604-2.332-7.015-.204-.76-.27-1.557-.402-2.331-.153-.775-.131-1.579-.153-2.368-.051-.789.073-1.586.146-2.368.059-.782.249-1.556.453-2.316.387-.921.322-.79.512.065.109.424.161 1.009.248 1.696.124.694.278 1.483.314 2.331.439 6.007 2.397 11.941 5.993 16.917 2.177 2.953 5.269 5.364 8.681 6.818l1.447.497.724.249.752.182c1.002.256 2.017.41 3.04.527 2.047.182 4.107.043 6.088-.49a17.6 17.6 0 0 0 3.485-1.44c1.111-.613 2.134-1.366 3.114-2.177a23.4 23.4 0 0 0 3.873-4.312 24.6 24.6 0 0 0 2.674-5.144c.519-1.411.921-2.85 1.221-4.305.285-1.461.489-2.93.635-4.414.044-.657.095-1.3.139-1.958.161-2.448.351-3.23.899-3.742.124-.116.241-.277.351-.343.351-.234.753.797.789 2.667.015 2.763-.241 5.62-.87 8.485-.306 1.432-.745 2.85-1.249 4.26-.548 1.396-1.162 2.777-1.944 4.078a23.9 23.9 0 0 1-4.217 5.283c-1.644 1.549-3.529 2.887-5.605 3.859l-.021-.037zm-19.129-38.84a12 12 0 0 0 3.048-.906c.365-.153.679-.395 1.03-.57a13 13 0 0 0 3.347-2.514c.431-.453.76-.986 1.016-1.534.153-.359.314-.709.445-1.067l.11-.271c.037-.087.037-.182.11-.27.117-.176.219-.366.329-.563.153-.248.168-.226.35.007.088.117.263.293.417.527.066.117.168.248.219.387.037.139.059.278.044.424-.022.248-.037.511-.088.752l-.073.373c-.036.117-.088.234-.139.351-.182.46-.416.899-.679 1.308-.534.811-1.177 1.542-1.951 2.09-.914.665-1.769 1.44-2.755 2.01a14.8 14.8 0 0 1-3.442 1.417c-.738.205-1.498.329-2.258.424-1.155.117-2.332.044-3.479-.131-.884-.139-1.798-.249-2.675-.585a4 4 0 0 1-.57-.227c-.35-.16-.518-.372-.599-.562-.073-.198-.051-.402.059-.673.051-.124.087-.248.153-.365.212-.38.658-.519 1.111-.416.68.146 1.286.343 1.929.467.636.124 1.279.227 1.944.271.987.051 2.01-.015 3.04-.212l.015.051z"/>
  <path fill="#12111f" d="M295.546 174.818c.497.315 1.037.673 1.681.826.226.073.467.08.716.11.424.102.862.117 1.308.146.438-.022.899-.029 1.337-.124.409-.037.775-.22 1.147-.351.22-.132.446-.241.687-.336.125-.044.22-.125.358-.161.132-.037.271-.066.417-.102.183-.037.226.036.226.263 0 .117 0 .27-.029.467-.014.205-.073.402-.197.534-.227.212-.446.475-.724.643-.27.168-.555.307-.847.446-.578.263-1.221.365-1.856.35-.753 0-1.52.11-2.288.037-.84-.117-1.673-.329-2.433-.738-.482-.219-.899-.57-1.316-.892-.584-.562-1.081-1.205-1.425-1.922a11 11 0 0 1-.811-1.673c-.029-.132-.08-.256-.095-.395-.065-.504.066-.679.607-.782.124-.021.241-.051.365-.065.417-.037.782.131.936.394.431.819.708 1.469 1.096 2.083.263.475.687.833 1.147 1.191l-.022.044zm-.928 16.527c.131 2.383.774 4.838 2.265 6.489.541.6 1.213 1.024 1.937 1.338.628.277 1.366.431 2.09.489a5.6 5.6 0 0 0 2.126-.233c1.374-.424 2.558-1.469 3.464-2.748.819-1.133 1.381-2.485 1.871-3.815.307-.862.526-1.754.738-2.631.219-.876.409-1.761.482-2.645.103-.555.285-.548.68-.058.38.475.796 1.52.716 2.711-.022.256-.044.519-.08.774-.052.249-.103.505-.161.753-.117.497-.256.994-.409 1.476-.315.972-.665 1.922-1.162 2.836a12.7 12.7 0 0 1-1.791 2.623c-.723.804-1.585 1.542-2.609 2.032a8.3 8.3 0 0 1-3.938.847c-.673-.014-1.323-.124-1.988-.277-.65-.198-1.308-.432-1.878-.812-1.294-.789-2.251-1.987-2.894-3.251-.643-1.279-1.023-2.624-1.235-3.983a17 17 0 0 1-.037-5.028 8.6 8.6 0 0 1 .49-1.922c.154-.343.387-.811.76-1.001.387-.175.87-.248 1.147-.263 1.265-.117 2.492-.11 3.727-.088 1.908.066 3.8.125 5.715.541.416.117.84.168 1.257.336.782.263 1.264.578 1.556.841.271.314.358.592.351.869 0 .132.015.271-.022.373-.051.175-.256.219-.548.197a2.4 2.4 0 0 1-.497-.102c-.204-.029-.416-.11-.65-.19-1.403-.512-3.033-.724-4.662-.884a36 36 0 0 0-5.021-.081c-.314.015-.614.044-.906.073l-.358.044c-.007.015.022-.058-.037.088-.08.212-.153.468-.212.745-.233 1.104-.285 2.346-.204 3.545h-.051zm-18.482-5.19h-.022s-.044.029-.066.051a.6.6 0 0 0-.051.146l-.066.285c-.073.402-.124.855-.146 1.308-.051.914-.014 1.849.081 2.77.073.702.263 1.367.424 2.017.526 2.192 2.141 4.246 4.348 5.188.979.432 2.068.57 3.12.534.336 0 .665-.073 1.001-.117.322-.088.651-.139.95-.27.636-.19 1.221-.424 1.864-.724.438-.168.46-.131.409.365-.007.132-.044.278-.081.468a7 7 0 0 1-.204.578c-.088.226-.234.401-.402.57s-.365.372-.592.482c-1.652.804-3.508 1.016-5.225.599-1.725-.365-3.34-1.257-4.538-2.536-.738-.738-1.352-1.593-1.878-2.492-.548-.942-.87-1.958-1.067-2.93a18.7 18.7 0 0 1-.336-3.237c-.015-1.082.029-2.156.277-3.296.022-.11.059-.205.095-.344s.088-.277.161-.402c.117-.255.3-.482.512-.665l.446-.241c.153-.073.306-.109.416-.153.249-.095.482-.132.716-.19.468-.11.928-.183 1.389-.241 1.98-.256 3.953-.22 5.912-.059 1.512.132 3.032.271 4.538.738.329.117.665.19.986.344 1.206.57 1.462 1.037 1.323 1.622-.029.139-.044.278-.102.395-.19.387-.797.394-1.498.095-1.082-.431-2.28-.702-3.523-.892a27.6 27.6 0 0 0-6.745-.197c-.475.051-.95.117-1.403.204-.234.037-.431.103-.65.147-.117.022-.183.058-.271.087-.08.03-.073.022-.087.022l-.03-.044z"/>
  <path fill="#12111f" d="M290.026 193.079a46 46 0 0 0-.658 2.704c-.066.329-.073.665-.139.994-.117.577-.204 1.155-.292 1.71-.08.534-.102 1.169 0 1.381.212.395.526.731.914.972.248.161.526.271.811.38.277.146.562.285.855.563.19.175.168.139-.03.285-.197.161-.635.592-1.132.592a4.3 4.3 0 0 1-2.368-1.104 2.7 2.7 0 0 1-.453-.519c-.073-.116-.11-.153-.205-.328a2 2 0 0 1-.19-.475c-.138-.556-.102-.958-.073-1.367.103-.943.125-1.841.263-2.718.161-.965.38-1.908.607-2.843l.424-1.725c.212-.869.46-1.732.628-2.601.132-.673.154-1.367.234-2.046.015-.154.015-.3.044-.453.11-.556.285-.702.84-.673.125 0 .249 0 .373.022a.8.8 0 0 1 .702.782c.051 1.242-.19 2.477-.461 3.712-.212.914-.431 1.827-.643 2.748h-.051zm-25.508-18.41c.694-1.126 1.177-2.638 1.791-4.158.599-1.528 1.344-3.07 2.265-4.473.321-.526.701-1.001 1.045-1.505l.533-.746.614-.686c.38-.388.702-.819 1.118-1.17l1.213-1.081c.877-.643 1.74-1.294 2.719-1.791 1.907-1.03 4.041-1.695 6.226-1.797.482 0 .972-.044 1.454 0l1.447.153 1.411.358c.467.117.898.344 1.351.512a12.3 12.3 0 0 1 3.121 1.958c.256.176.438.424.643.658l.585.701c.087.125.211.22.27.366l.168.446c.117.292.27.548.402.811.321.672.205.614-.358.27-.292-.161-.658-.431-1.221-.599a6.3 6.3 0 0 1-1.49-.884 11 11 0 0 0-5.664-2.47c-2.046-.3-4.202.014-6.241.833-2.477.95-4.574 2.974-6.262 5.159-.446.621-.943 1.213-1.33 1.871-.402.65-.782 1.315-1.104 2.009-.672 1.382-1.169 2.858-1.775 4.4-.388.942-.834 1.929-1.506 2.798a10.3 10.3 0 0 1-2.302 2.215c-1.315.92-2.711 1.52-3.982 2.229a11.3 11.3 0 0 0-3.267 2.645c-1.41 1.659-2.207 3.763-2.083 5.751-.007.439.132.855.198 1.286.416 1.571.687 2.032.358 2.689-.066.147-.125.322-.205.446-.146.205-.387.198-.716-.036a3.6 3.6 0 0 1-.548-.505c-.19-.226-.351-.533-.541-.876-.482-1.045-.818-2.244-.804-3.472 0-1.22.263-2.448.716-3.58.943-2.258 2.543-4.166 4.531-5.569.366-.256.775-.504 1.14-.716l1.089-.592c.723-.38 1.418-.731 2.039-1.103a9.4 9.4 0 0 0 1.659-1.221 7 7 0 0 0 1.249-1.549l.051.029zm62.159 17.255c-1.395-2.411-1.695-5.086-1.812-7.512-.109-2.47-.073-4.772-.453-7.044-.27-1.659-.731-3.282-1.279-4.853a24 24 0 0 0-1.871-3.975 20.3 20.3 0 0 0-2.674-3.479 19.4 19.4 0 0 0-7.381-4.728c-2.441-.877-5.166-.913-7.651-.285-1.6.41-3.135 1.075-4.531 1.966-.175.117-.351.219-.526.329l-.512.358-.511.358-.482.395-.49.394-.46.431c-.147.154-.329.264-.505.402-.16.139-.321.285-.475.432-.796.723-.789.584-.46-.337.161-.46.358-1.169.811-1.892.227-.358.504-.731.811-1.118.315-.38.695-.738 1.096-1.104a15.4 15.4 0 0 1 5.16-2.601 16.2 16.2 0 0 1 5.787-.497c.972.087 1.93.292 2.865.548.46.161.935.307 1.374.482l1.301.57a21 21 0 0 1 4.728 3.128 24 24 0 0 1 4.45 5.196c1.235 1.943 2.156 4.085 2.77 6.277a31.6 31.6 0 0 1 1.103 7.351c.102 2.434.088 4.816.621 7.03.336 1.352.87 2.631 1.732 3.691.409.519.936 1.052 1.454 1.571l1.586 1.564c1.601 1.593 3.238 3.347 4.166 5.605.453 1.103.752 2.236.942 3.391s.278 2.331.168 3.529c-.307 3.822-3.566 7.184-7.556 7.447a7.4 7.4 0 0 1-2.609-.234c-.789-.256-1.425-.541-1.878-.884a3.9 3.9 0 0 1-1.037-.936c-.505-.555-.541-1.074-.49-1.52.029-.204.029-.438.095-.584.11-.249.438-.212.906 0 .249.095.468.292.789.453.307.168.614.409 1.009.584a5.62 5.62 0 0 0 3.603.578 6.3 6.3 0 0 0 3.266-1.762c.906-.891 1.418-2.06 1.593-3.31.146-1.315-.014-2.821-.358-4.231-.27-1.052-.621-2.054-1.155-2.916-.54-.913-1.242-1.776-2.016-2.616-.782-.848-1.637-1.673-2.507-2.543-.438-.446-.862-.855-1.315-1.374a11 11 0 0 1-1.235-1.688zm-36.213 17.728c1.762 1.001 4.261.628 5.54-.987.19-.233.321-.46.321-.774 0-.271-.117-.592-.321-.775-.395-.365-1.17-.482-1.55 0a2.7 2.7 0 0 1-.372.395 1 1 0 0 0-.11.095c.022-.022.205-.154.088-.066-.081.051-.161.11-.241.154a4 4 0 0 1-.227.124c-.044.022-.088.051-.131.058.065-.014.241-.095.073-.036a3.3 3.3 0 0 1-.526.146l-.117.022c-.212.036.219-.022.095-.015-.088 0-.176.015-.256.022h-.285c-.059 0-.344-.036-.139 0 .205.037.022 0-.022-.007-.044-.008-.095-.022-.139-.029l-.248-.066c-.044-.015-.088-.037-.139-.051-.117-.037.263.124.073.036l-.256-.131c-.497-.285-1.22-.132-1.498.394s-.139 1.199.395 1.498zm7.603-27.283s.051-.043.08-.065l-.241.182a5 5 0 0 1 1.111-.65l-.285.117a5 5 0 0 1 1.286-.351l-.314.044q.306-.044.613-.044c.622 0 1.214-.541 1.184-1.184-.029-.643-.519-1.191-1.184-1.184a6.1 6.1 0 0 0-1.98.344 6.6 6.6 0 0 0-1.951 1.111c-.219.175-.351.57-.351.84 0 .292.132.636.351.84.219.205.526.366.84.351l.315-.044a1.2 1.2 0 0 0 .526-.307"/>
  <path fill="#12111f" d="M152.658 325.863a3.252 3.252 0 1 0 0-6.504 3.252 3.252 0 0 0 0 6.504" opacity=".35"/>
  <path fill="#12111f" d="M164.89 326.81a2.841 2.841 0 1 0 0-5.685 2.843 2.843 0 0 0 0 5.685" opacity=".75"/>
  <path fill="#12111f" d="m137.43 322.565-.249-4.947c-.029-.599-.102-1.199-.131-1.798q-.068-3.178-.125-6.358l-.087-2.813a49 49 0 0 1 0-3.603c.014-.372.08-.329.182-.014.095.314.264.884.359 1.571.153 1.213.328 2.426.453 3.639.102 1.213.197 2.434.248 3.661.051 1.469.307 2.989.402 4.487l.351 4.955a58 58 0 0 0 .285 3.018c.197 1.505.453 3.018.964 4.414.41 1.074 1.023 2.038 1.783 2.777.176.153.351.299.527.453.672.518.877.679.855 1.162 0 .109.007.226 0 .321-.037.329-.548.409-1.279.044-1.067-.563-1.937-1.52-2.551-2.558-.621-1.045-1.015-2.192-1.308-3.325-.431-1.695-.577-3.405-.723-5.079h.036zm33.459-31.548-.256-1.228-.146-1.242c-.132-.826-.095-1.667-.132-2.492q.032-.912.095-1.813c.264-2.119.826-4.172 1.586-6.131l.563-1.279c.175-.431.365-.855.592-1.257.285-.518.511-1.066.84-1.563.344-.49.702-.958 1.053-1.433.226-.292.248-.212.175.11-.08.314-.212.899-.468 1.513-1.008 2.133-1.856 4.289-2.521 6.54-.168.68-.365 1.374-.416 2.09l-.117 1.074c-.03.358-.022.716-.037 1.074-.08 1.572.037 3.15.285 4.707l.314 1.425c.11.475.285.928.424 1.395.197.717.541 1.374.811 2.068.315.665.68 1.316 1.053 1.952.321.475.657.935.986 1.388l1.111 1.279c.153.19.336.358.511.533.644.665.746.972.658 1.345-.022.088-.029.183-.066.256-.109.241-.526.109-1.088-.344-1.615-1.374-3.07-3.157-4.078-5.195-.212-.366-.373-.76-.541-1.148-.161-.387-.343-.774-.49-1.169-.241-.811-.57-1.6-.723-2.433h.029z"/>
  <path fill="#12111f" d="M207.508 270.188s-13.555 14.988-15.214 17.297-4.947 6.27-3.895 11.02c1.052 4.757 7.666 15.784 11.604 17.896 3.932 2.105 10.567 3.552 13.768 2.112s7.622-4.596 8.916-6.16c1.293-1.564 5.064-7.841 5.458-8.916.395-1.081 1.732-8.462 1.732-8.462s-9.251-6.08-11.224-10.472-6.161-10.917-7.103-12.138c-.943-1.22-4.042-2.177-4.042-2.177" opacity=".25"/>
  <path fill="#12111f" d="M187.326 302.664c-.08-.468-.153-.936-.204-1.404-.022-.168-.066-.328-.081-.504a21 21 0 0 1-.051-1.783c.007-.263.015-.519.015-.774 0-.329.022-.658.095-.987.022-.102.08-.088.153 0s.183.241.227.424c.139.65.35 1.264.336 1.914.007.388.153.775.248 1.155.103.424.212.84.344 1.257.08.256.161.512.263.76.153.373.285.76.489 1.111.161.27.402.489.614.716.044.051.103.088.146.146.154.197.11.322-.19.585-.065.058-.131.124-.197.175-.234.19-.497.234-.687.11-.548-.366-.877-.928-1.14-1.513-.204-.431-.292-.921-.409-1.381l.029-.015zm23.896-31.553c.549.373.972.891 1.367 1.359.139.183.314.322.431.504.453.643.782 1.338 1.111 1.995.146.293.307.578.46.855.198.358.417.709.548 1.096.095.234-.372.132-.687-.211-.504-.658-1.132-1.192-1.593-1.835-.285-.38-.679-.687-1.045-.986a9.5 9.5 0 0 0-1.213-.921 5.6 5.6 0 0 0-.804-.475c-.423-.197-.876-.365-1.351-.395-.366-.014-.731.095-1.067.205-.073.022-.147.066-.22.066-.277.022-.38-.103-.533-.599l-.102-.337c-.103-.372-.022-.723.233-.913.768-.548 1.754-.57 2.631-.314.665.175 1.286.497 1.842.855l-.022.044zm1.441-15.593c-.022-.416-.015-.825-.125-1.191-.095-.38-.285-.774-.504-1.14-.087-.131-.19-.256-.285-.387a8 8 0 0 1-.321-.365c-.746-.899-1.747-1.637-2.806-2.28-.475-.278-.994-.497-1.499-.724l-.986-.431q-.505-.184-1.03-.336c-.22-.066-.183-.088.014-.124.197-.03.577-.11 1.009-.088.387 0 .796-.022 1.191.014.387.059.789.095 1.154.234.731.271 1.469.592 2.09 1.096.746.585 1.586 1.133 2.251 1.893.724.819 1.294 1.871 1.447 3.026.095.694.022 1.366-.066 2.009-.139.987-.438 1.915-.738 2.821-.234.701-.424 1.418-.738 2.083-.066.146-.124.299-.204.438-.285.534-.483.65-.804.607-.073-.008-.154-.015-.22-.037-.226-.073-.277-.38-.16-.789.314-1.228.716-2.441.993-3.669.198-.906.351-1.827.286-2.667h.043z"/>
  <path fill="#12111f" d="M217.125 263.25c.402.533.796 1.06 1.14 1.622.124.205.277.388.402.592.409.738.782 1.484 1.14 2.229.153.336.314.665.453 1.001.197.424.314.892.365 1.367.015.146-.022.139-.124.044s-.3-.249-.482-.453a9.3 9.3 0 0 1-1.528-2.28c-.248-.497-.643-.921-.986-1.367-.38-.482-.753-.979-1.155-1.447-.241-.292-.504-.57-.767-.833-.409-.395-.833-.782-1.308-1.082-.38-.211-.797-.321-1.199-.387-.087-.014-.175-.036-.263-.036-.307-.066-.358-.205-.336-.665 0-.103 0-.212.015-.315.036-.343.255-.584.592-.592 1.001 0 1.9.519 2.608 1.111.541.446 1.002.95 1.447 1.462l-.022.029zm.834-5.482c.431.402.848.826 1.242 1.264.139.168.322.285.446.468.475.606.811 1.308 1.118 1.988.146.299.263.606.402.898.066.198.175.38.197.592.029.212.037.424.037.636 0 .132-.066.132-.198.059-.124-.074-.365-.198-.518-.373a1.9 1.9 0 0 1-.344-.482c-.088-.169-.204-.322-.292-.483q-.285-.46-.592-.964c-.227-.402-.629-.687-.957-1.023a16 16 0 0 0-1.177-1.046 11 11 0 0 0-.796-.591c-.417-.278-.834-.578-1.294-.797-.358-.168-.76-.241-1.14-.358-.088-.022-.175-.037-.256-.066-.299-.124-.329-.285-.16-.752a6 6 0 0 1 .116-.322c.154-.351.417-.563.68-.548.782.036 1.476.358 2.105.804.475.321.935.694 1.388 1.067l-.022.036z"/>
  <path fill="#12111f" d="M169.625 280.731c.891-2.529 2.053-4.889 3.347-7.155a67 67 0 0 1 4.26-6.547c1.125-1.52 2.258-3.048 3.508-4.48 2.221-2.499 4.596-4.867 7.227-6.957 2.609-2.105 5.459-3.946 8.55-5.313 1.389-.57 2.792-1.132 4.268-1.483 1.483-.417 3.069-.541 4.582-.46 1.944.131 3.924.489 5.736 1.417.914.439 1.732 1.111 2.434 1.878.168.205.336.41.489.614.139.227.256.468.38.694.132.227.212.475.293.731l.117.373.058.183s.044.051-.015.102v.102c-.073.68-.146.936-.219.928-.08 0-.212-.292-.584-.672-.395-.365-.855-.848-1.469-1.25a25 25 0 0 0-2.098-1.22c-1.403-.753-3.062-1.242-4.757-1.389a13 13 0 0 0-2.536-.014l-.621.066-.599.109c-.409.088-.848.219-1.272.322-3.398.994-6.65 2.74-9.704 4.845-3.669 2.528-6.899 5.977-9.807 9.529-3.179 3.924-6.014 8.185-8.141 12.759a31.5 31.5 0 0 0-1.651 4.312c-.424 1.469-.724 2.945-.585 4.399.3 4.597 2.58 8.996 5.905 12.189a27.4 27.4 0 0 0 8.973 5.642c.724.27 1.447.489 2.193.694 1.374.387 2.294.541 2.93.731.643.182 1.009.402 1.315.709.139.146.329.285.417.423.307.417-.979.965-3.325.673-3.449-.461-6.774-1.893-9.763-3.837a31 31 0 0 1-4.231-3.347 23.6 23.6 0 0 1-3.523-4.26c-1.49-2.324-2.55-4.962-3.01-7.732a22 22 0 0 1-.234-2.082c-.022-.358 0-.76 0-1.133l.102-1.096c.205-1.425.577-2.741 1.009-4.027l.058.015z"/>
  <path fill="#12111f" d="M200.89 315.662a16.9 16.9 0 0 0 4.728 1.9c1.659.38 3.442.57 5.101.416 1.227-.11 2.426-.468 3.602-.899 4.166-1.542 7.732-4.779 10.341-8.564 1.169-1.688 2.09-3.552 2.821-5.452.46-1.22.818-2.485 1.103-3.749.08-.314.139-.636.197-.957.103-.314.183-.629.263-.943.161-.636.359-1.271.483-1.929.182-.818.256-.723.511 0 .212.702.892 2.134.68 3.771a25.5 25.5 0 0 1-2.872 8.089c-1.388 2.507-3.157 4.816-5.276 6.767-2.507 2.324-5.488 4.524-8.974 5.54-1.893.54-3.961.701-5.875.504a19.4 19.4 0 0 1-5.664-1.367c-2.229-.891-4.253-2.221-6.021-3.8-2.682-2.404-4.699-5.451-6.168-8.652-1.14-2.492-2.061-5.057-2.477-7.79a16 16 0 0 1-.22-1.812c-.065-1.14.03-1.908.19-2.427.139-.518.424-.796.768-.979.153-.087.314-.204.445-.241.454-.117.768.804.834 2.28.306 4.429 1.79 9.04 4.275 13 1.819 2.945 4.26 5.54 7.242 7.228l-.022.051zm-45.828 11.492c-.752.351-1.585.548-2.44.505s-1.703-.322-2.368-.775c-.497-.322-.965-.687-1.308-1.155-.599-.818-.965-1.79-.994-2.791a4.47 4.47 0 0 1 .862-2.784 5.2 5.2 0 0 1 .855-.929c.336-.248.68-.489 1.067-.65.49-.219 1.045-.285 1.579-.234.54.044 1.023.3 1.432.57.256.176.124.285-.161.358-.277.03-.752.241-1.125.41-.344.124-.614.35-.855.555-.263.161-.49.373-.694.599-.453.417-.775.928-.907 1.549-.08.38-.014.812.154 1.206.175.395.438.753.731 1.052.65.687 1.564 1.016 2.528.775a3.1 3.1 0 0 0 1.586-.913c.665-.68.95-1.659.636-2.565-.249-.702-.863-1.213-1.455-1.491-.138-.059-.277-.095-.401-.139-.461-.205-.57-.336-.658-.95-.022-.139-.059-.278-.073-.409a.65.65 0 0 1 .219-.578c.183-.16.475-.248.84-.226 1.097.073 2.112.709 2.821 1.586a4.8 4.8 0 0 1 1.067 3.317 4.8 4.8 0 0 1-.943 2.522 5.55 5.55 0 0 1-1.958 1.636l-.029-.051zm12.629-.142a3.7 3.7 0 0 1-2.017.585 4.6 4.6 0 0 1-1.79-.38c-.395-.168-.789-.322-1.125-.592-.585-.46-1.118-1.14-1.33-1.9a3.4 3.4 0 0 1-.132-1.184c.037-.409.197-.789.409-1.125a2.36 2.36 0 0 1 1.667-1.053c.774-.102 1.483.073 2.119.344.197.088.161.131-.037.212-.19.073-.541.248-.891.358-.636.161-1.148.526-1.286.709-.132.19-.176.445-.22.847-.007.249.125.519.315.717.182.19.467.372.738.526.599.358 1.359.533 1.929.358.351-.081.65-.351.826-.665.255-.453.175-1.235-.256-1.688-.329-.358-.855-.424-1.359-.431-.11 0-.227.014-.344 0-.424-.037-.563-.22-.679-.797-.03-.132-.066-.263-.088-.395-.073-.438.146-.833.636-.993.716-.205 1.563-.169 2.404.255.848.402 1.586 1.272 1.871 2.207.226.702.263 1.491.022 2.266-.117.372-.329.789-.556 1.059a2.5 2.5 0 0 1-.38.424 2.6 2.6 0 0 1-.446.365l-.036-.043z"/>
  <path fill="#12111f" d="M138.716 321.811c.16 2.887.321 5.817.738 8.557.065.307.124.673.19.929l.051.16.014.081s.022.044.044.058a2.5 2.5 0 0 0 .497.263c.263.117.563.219.877.314 1.272.38 2.682.644 4.085.863 5.671.847 11.502 1.184 17.312 1.49 4.246.205 8.499.278 12.745.388 14.988.387 30.005.409 45.008.204 6.657-.08 13.351-.27 19.957-.518 4.246-.147 8.492-.388 12.745-.512 4.253-.161 8.499-.263 12.752-.205 2.652.03 2.302.132.087.57-1.11.212-2.682.57-4.596.892-.958.161-1.995.351-3.099.49-1.103.131-2.28.241-3.5.321-2.17.139-4.334.314-6.504.409l-6.511.271q-6.51.252-13.03.416c-8.696.234-17.414.278-26.169.198-10.471-.095-21.367 0-32.088-.315-5.89-.182-11.787-.431-17.677-.906-2.945-.248-5.897-.541-8.85-1.038-1.483-.27-2.952-.533-4.479-1.154-.197-.088-.38-.154-.592-.285l-.322-.19c-.117-.08-.212-.183-.321-.278-.234-.168-.366-.438-.519-.672l-.234-.702c-.109-.409-.161-.774-.248-1.169l-.161-1.125c-.446-3.669-.614-7.286-.782-10.918a607 607 0 0 1-.351-10.874c-.256-10.976-.27-21.996-.292-32.892-.015-8.469-.102-16.771-.022-25.146.015-1.841.022-3.646.066-5.51.182-6.898.489-9.09 1.257-10.53.175-.329.358-.76.519-.95.57-.621.811 2.192.767 7.22-.11 14.922-.161 30.678-.088 46.492.088 11.736.176 23.552.782 35.259l-.058.015zM273.6 268.439l-.022 14.36.03 5.239q-.11 9.24-.373 18.467l-.219 8.192c-.051 1.746-.117 3.486-.307 5.232-.095.87-.154 1.747-.292 2.609l-.534 2.587c-.234 1.067-.234.913-.329-.015a40 40 0 0 0-.256-1.922c-.043-.394-.146-.825-.197-1.286a22 22 0 0 1-.073-1.432c-.015-.884-.007-1.761-.051-2.653l-.044-1.33.029-1.323c.051-1.768.044-3.544.088-5.312.051-3.544.212-7.103.336-10.684.183-4.275.051-8.733.044-13.11l-.044-14.447c-.029-2.967-.051-5.934-.08-8.894-.066-4.487-.11-9.003-.263-13.453-.125-3.464-.38-6.855-.592-10.275-.044-.753-.117-1.491-.146-2.251-.073-1.41-.066-2.338.058-2.996.102-.658.3-1.038.585-1.352.131-.139.248-.329.365-.409.373-.285.884.848 1.14 2.908.607 6.11.84 12.57.994 19.052.117 4.815.153 9.66.219 14.483h-.058zm-85.513-42.158 20.096.249c2.448.014 4.889.036 7.33.051 8.615.212 17.224.446 25.84.811 3.822.161 7.665.322 11.458.475 2.441.146 4.882.19 7.322.468 1.221.131 2.441.241 3.654.424 1.213.197 2.426.504 3.618.774 1.49.358 1.235.534-.095.702-.665.08-1.593.183-2.697.256-.541.014-1.155.117-1.79.138-.636.015-1.308.015-2.003-.021-9.858-.446-19.782-.673-29.778-1.199-5.985-.3-12.226-.219-18.35-.292-6.738-.073-13.483-.139-20.228-.212-4.151-.022-8.301-.051-12.452-.073-6.285-.015-12.599-.051-18.839.014-4.853.052-9.603.256-14.404.373-1.059.022-2.09.073-3.157.088-3.953.044-5.21-.205-6.05-.877-.19-.154-.446-.3-.556-.453-.373-.483 1.242-.95 4.122-1.111 8.557-.431 17.597-.577 26.665-.628 6.738-.044 13.512-.022 20.272-.015v.066z"/>
  <path fill="#12111f" d="M238.481 265.424c1.783 3.719 3.113 7.629 4.034 11.612.329 1.461.687 2.894.921 4.362.402 2.587.672 5.225.599 7.893-.037 1.337-.153 2.682-.438 4.012a18.2 18.2 0 0 1-1.294 3.851 19.3 19.3 0 0 1-4.238 5.722c-1.104 1.023-2.273 1.98-3.545 2.755-1.249.804-2.594 1.447-4.033 1.841-.483.066-.687.095-.68.081 0-.03.197-.132.453-.468.256-.329.628-.775 1.074-1.301.227-.248.461-.555.731-.818.278-.249.585-.504.906-.753 1.133-.891 2.251-1.754 3.259-2.696a17.8 17.8 0 0 0 2.646-3.106 15.3 15.3 0 0 0 1.761-3.61c.431-1.279.753-2.616.906-4.012.395-3.376-.27-7.023-.965-10.538-.767-3.873-1.856-7.68-3.39-11.319a47 47 0 0 0-3.318-6.482c-.972-1.557-2.032-3.099-3.179-4.495-1.162-1.388-2.499-2.63-3.983-3.624-2.301-1.513-4.991-2.397-7.519-2.098l-.417.037-.402.095c-.263.073-.54.095-.803.183-.994.277-1.608.584-2.112.679-.475.161-.841.139-1.235 0-.183-.066-.395-.102-.534-.182q-.361-.209.044-.833a4 4 0 0 1 .599-.702c.278-.241.643-.468 1.06-.716 1.264-.658 2.726-1.169 4.246-1.228 1.512-.066 3.04.154 4.465.621a18 18 0 0 1 3.99 1.966 24 24 0 0 1 3.39 2.799 27 27 0 0 1 2.12 2.448 42 42 0 0 1 1.819 2.558 50 50 0 0 1 3.113 5.429l-.058.037z"/>
  <path fill="#12111f" d="M218.325 280.002c1.016 1.724 2.032 3.442 3.128 5.093.394.607.84 1.169 1.249 1.761 1.418 2.098 2.96 4.122 4.824 5.773a10.1 10.1 0 0 0 2.725 1.783l.468.205.49.153c.16.052.321.125.482.169l.49.124c.328.102.657.146 1.001.197.336.073.679.124 1.037.168.446.073.424.219.059.512a6.4 6.4 0 0 1-.811.54c-.358.132-.804.264-1.286.242-1.718-.015-3.304-.768-4.663-1.623-1.381-.869-2.528-1.987-3.515-3.2-1.184-1.447-2.47-2.865-3.573-4.385-1.206-1.666-2.273-3.413-3.34-5.152l-1.936-3.208c-.987-1.608-1.944-3.245-3.018-4.757-.841-1.17-1.805-2.222-2.785-3.187-.212-.226-.453-.394-.657-.606-.395-.387-.643-.629-.746-.892-.117-.233-.102-.489-.022-.811.037-.146.059-.299.103-.431q.12-.327.57-.336c.307-.015.694.11 1.088.38 1.177.811 2.149 1.834 3.033 2.901.884 1.074 1.674 2.222 2.426 3.369 1.126 1.71 2.156 3.471 3.223 5.188l-.044.037z"/>
  <path fill="#12111f" d="M193.837 283.451c2.221-2.484 4.552-4.823 6.847-7.161.833-.855 1.622-1.754 2.441-2.616 1.439-1.52 2.872-3.048 4.099-4.67.585-.789 1.169-1.695 1.732-2.58a62 62 0 0 0 1.622-2.674c.892-1.608 1.667-3.281 2.105-5.013.592-2.237.592-4.502.614-6.877.183-.782.051-.665.468-.102.409.562 1.103 1.695 1.213 3.186.022.65.095 1.315.007 1.966-.044.657-.175 1.3-.307 1.944-.27 1.286-.709 2.513-1.22 3.697-1.053 2.353-2.456 4.421-3.837 6.46-1.798 2.543-3.807 4.874-5.868 7.096-2.28 2.419-4.604 4.772-6.847 7.176a76 76 0 0 0-3.976 4.567c-.928 1.199-1.856 2.419-2.608 3.713-.183.321-.402.636-.556.972l-.475 1.001c-.321.679-.628 1.41-.921 2.097-.46 1.067-.891 2.141-.957 3.245a7.4 7.4 0 0 0 .395 3.179c.16.431.387.825.643 1.22.475.738.862 1.184 1.089 1.549.233.358.306.643.292.958 0 .138.022.299 0 .409-.051.343-.95.146-2.002-.987-.768-.84-1.44-1.863-1.798-3.076a8.8 8.8 0 0 1-.256-3.647c.037-.307.095-.599.154-.899l.102-.438c0-.154.044-.3.066-.446.109-.592.226-1.184.402-1.732.402-1.096.701-2.068 1.271-3.208.804-1.593 1.761-3.047 2.792-4.406a43 43 0 0 1 1.578-2.003c.534-.665 1.089-1.293 1.637-1.929l.044.029zm7.233-18.665a22 22 0 0 0-1.864 1.651c-.219.212-.394.461-.599.68a28 28 0 0 0-2.127 2.419c-.306.373-.511.804-.774 1.198a37 37 0 0 1-.979 1.572c-.117.16-.19.109-.249-.088-.051-.197-.139-.563-.088-.943.169-1.359.841-2.543 1.681-3.559.534-.592.958-1.286 1.476-1.9.578-.672 1.192-1.3 1.82-1.907.387-.373.789-.738 1.191-1.096.599-.556 1.264-1.038 1.864-1.579.475-.409.877-.906 1.337-1.344.102-.095.19-.205.307-.285.416-.307.636-.285 1.001.073.08.08.175.161.248.248.249.293.264.68.044.987-.628.943-1.505 1.593-2.345 2.331-.622.541-1.294 1.038-1.915 1.593l-.037-.029zm-.782 25.708c-.015 1.454.979 2.74 2.236 3.391 1.374.716 3.04.789 4.384-.029.446-.271.658-.914.358-1.374-.299-.461-.891-.651-1.373-.358-.059.036-.117.073-.183.102-.029.015-.285.132-.124.066s-.066.022-.095.029l-.22.066-.19.044c-.197.043.227-.015.008 0-.132.007-.256.021-.388.014q-.098.002-.197-.007c-.044 0-.088 0-.131-.015l.138.022c-.095-.058-.299-.058-.409-.08-.139-.037-.263-.081-.394-.124.19.095-.183-.066 0 0-.059-.03-.117-.052-.176-.088a9 9 0 0 1-.329-.19l-.153-.11c.146.132-.176-.117 0 0a5 5 0 0 1-.292-.27c-.044-.044-.081-.088-.125-.132-.168-.182.095.154-.007-.007-.066-.102-.132-.197-.19-.3-.022-.036-.051-.124-.08-.153.109.117.065.168.014.029-.036-.109-.058-.219-.087-.329-.044-.19 0 .256 0 .015v-.205c0-.526-.468-1.03-1.009-1.008s-1.001.438-1.008 1.008z"/>
  <path fill="#12111f" d="m213.458 291.539-.015.022c-.036.051-.08.095-.117.146-.058.073-.124.139-.182.204a5 5 0 0 1-.454.432q-.063.055-.138.109.13-.099 0 0c-.073.051-.139.103-.212.146-.161.11-.336.205-.512.3l-.219.11c-.102.043-.102.043.015 0-.052.021-.103.036-.154.058a5 5 0 0 1-.526.161c-.073.014-.146.036-.227.051l-.146.022q.2-.024.081-.015c-.168 0-.344.03-.512.022-.08 0-.168 0-.248-.014-.146-.015-.161-.03-.008 0-.153-.037-.314-.059-.46-.11-.066-.022-.329-.146-.073-.015l-.176-.087c-.065-.037-.131-.081-.197-.117-.212-.124.11.117-.029-.015a7 7 0 0 1-.322-.321c.176.197.037.051 0-.008-.043-.073-.087-.161-.131-.234-.117-.175.058.19-.007-.014-.03-.095-.066-.183-.088-.278-.022-.073-.029-.146-.051-.219-.022-.11-.015-.102 0 .036 0-.051-.008-.109-.015-.16-.044-.541-.431-1.009-1.008-1.009-.512 0-1.045.461-1.009 1.009.117 1.571.979 2.85 2.492 3.369 1.389.482 2.996.131 4.246-.585.855-.49 1.549-1.177 2.134-1.966.321-.438.073-1.118-.358-1.374-.512-.299-1.053-.08-1.374.358zm-3.852-7.994c.307-.073.614-.139.921-.19.073-.015.146-.022.212-.037.212-.036-.212.022.058 0 .154-.021.314-.036.468-.043a11.3 11.3 0 0 1 1.878 0c.526.036 1.03-.49 1.008-1.009-.029-.577-.438-.964-1.008-1.008a13.5 13.5 0 0 0-4.078.35c-.511.125-.862.731-.701 1.235.175.534.687.834 1.235.702zm-3.691-2.495a7.4 7.4 0 0 0-3.91-1.008c-.526.014-1.03.453-1.008 1.008s.438 1.016 1.008 1.009c.344-.008.68.007 1.023.051l-.27-.037c.409.059.811.146 1.198.285.095.029.19.066.285.102.073.03.168.11-.043-.021.043.021.095.043.138.058q.287.13.563.292c.453.263 1.118.117 1.374-.358s.124-1.096-.358-1.374zm-2.068 25.479c1.205.79 2.725 1.038 4.121.709 1.315-.307 2.441-1.154 3.193-2.258.3-.438.095-1.133-.358-1.374-.511-.27-1.059-.102-1.373.358l-.103.146c.059-.08.044-.051-.014.015a4.6 4.6 0 0 1-.519.519c-.059.051-.095.073-.008.015-.051.036-.094.073-.146.102a4 4 0 0 1-.628.358c-.073.037-.102.037-.007 0l-.169.066q-.197.066-.394.109c-.059.015-.124.03-.183.037-.014 0-.212.029-.109.022.102-.007-.095 0-.11 0q-.1-.002-.197.007-.197.002-.395-.007c-.015 0-.212-.022-.11-.008.103.015-.095-.014-.109-.021a5.5 5.5 0 0 1-.76-.212c-.154-.059.117.058-.037-.015l-.175-.088c-.132-.065-.256-.146-.38-.226-.439-.285-1.133-.103-1.374.358a1.03 1.03 0 0 0 .358 1.374z"/>
  <path fill="#12111f" d="M207.318 293.509c-.249.482-.482.972-.702 1.483-.08.19-.117.38-.212.57-.328.651-.665 1.308-.993 1.951-.147.285-.249.6-.395.885-.088.182-.168.372-.27.555-.081.19-.293.314-.453.468-.117.087-.198.029-.3-.139q-.078-.132-.19-.329a2 2 0 0 1-.095-.205c-.015-.036-.022-.065-.044-.102q-.002-.043.007-.088c.081-.402.11-.811.263-1.176a9 9 0 0 1 .527-1.089c.248-.424.314-.943.467-1.425.183-.526.395-1.052.607-1.579.139-.321.278-.65.409-.971.205-.49.446-.965.636-1.462.139-.387.19-.804.285-1.213.022-.088.029-.183.058-.27.11-.322.329-.329.782-.169q.163.054.314.117c.344.147.57.417.6.695-.022.76-.293 1.403-.585 2.053-.212.482-.46.957-.672 1.462l-.044-.015z"/>
  <path fill="#12111f" d="M140.819 144.13c-5.876-5.905-118.684-5.079-120.614-.519-1.242 2.938-.117 60.829-.117 60.829s.468 27.17 2.207 29.45c1.74 2.287 24.181 5.854 31.49 5.371 7.307-.475 56.378.534 56.378.534h26.096l.299-5.284c.227-4.048 2.068-7.234 6.124-7.315l1.264-.036s2.324-77.549-3.12-83.03zM39.644 228.168c-1.44.731-2.55 2.616-4.487 1.528-1.93-1.097-2.368-3.705-2.368-3.705s-.453-3.596 4.217-3.391c4.677.204 4.085 4.83 2.638 5.568m11.012.49c-.708.731-3.493.913-4.04.497-.549-.417-1.367-1.812-1.367-1.812s.204-1.893 3.58-2.083 2.544 2.66 1.827 3.398m68.59-45.944c-.131 2.273-1.571 7.067-3.062 7.798-1.483.731-4.779 2.55-4.779 2.55s-1.9 12.131-4.589 14.835-8.77 9.12-11.502 9.149c-2.74.022-9.413.205-12.036-.818-2.63-1.031-9.347-4.794-11.853-8.331-2.5-3.545-7.41-12.672-7.41-12.672s-6.964-.665-8.594-5.13-2.331-8.513 0-9.668c2.331-1.162-3.398-.672-2.96-5.473s1.586-9.632 5.291-10.107 6.263-1.535 6.263-1.535 2.06-5.838 5.883-7.958 10.37-5.268 14.703-5.246 12.357.021 15.799 1.541c3.449 1.513 8.849 3.128 9.924 7.213 1.074 4.092 2.747 5.576 2.747 5.576s4.816 3.281 5.62 6.657c.811 3.384-.526 7.447-.526 7.447s1.213 1.907 1.081 4.172" opacity=".15"/>
  <path fill="#12111f" d="M48.32 229.959a2.616 2.616 0 1 0 0-5.232 2.616 2.616 0 0 0 0 5.232" opacity=".75"/>
  <path fill="#12111f" d="M35.858 229.06a3.07 3.07 0 1 0 0-6.138 3.07 3.07 0 0 0 0 6.138" opacity=".35"/>
  <path fill="#12111f" d="M20.66 222.536a167 167 0 0 1-.343-6.292c-.029-.767-.095-1.527-.117-2.287a186 186 0 0 1 0-8.068c.015-1.191 0-2.39 0-3.573q0-2.28.11-4.56c.022-.475.088-.41.19-.015.095.395.27 1.133.365 2.01l.212 2.316.124 2.324c.08 1.549.14 3.098.161 4.655-.007 1.863.154 3.8.263 5.7.117 2.09.256 4.18.446 6.263a75 75 0 0 0 .431 3.836c.256 1.929.548 3.866 1.06 5.715.402 1.432.964 2.791 1.695 3.975.168.249.358.475.519.724.665.847.877.942.92 1.454.015.11.052.226.052.321 0 .168-.117.249-.417.256-.146 0-.336-.022-.533-.102a5 5 0 0 1-.621-.365c-1.242-1.002-1.9-2.39-2.456-3.735-.533-1.366-.913-2.777-1.205-4.194-.453-2.105-.716-4.231-.906-6.343h.036zm97.368-45.066h-7.87s-3.968-7.571-4.823-8.93c-.417-.665-.461-1.184-.3-2.309-2.93 1.929-9.434 4.83-13.183 5.817-4.312 1.147-21.076 1.929-21.521 2.93-.446 1.009-3.976 7.68-5.737 7.739-1.761.058-4.633-4.48-6.84-3.449-2.66 1.235-3.829-6.212-1.147-9.31 3.58-4.129 6.438-3.128 6.438-3.128 1.951-12.957 18.949-16.691 24.283-16.72 16.669-.095 22.837 10.172 22.837 11.824 0 0 4.626 3.595 7.454 7.424 4.019 5.445.409 8.105.409 8.105z"/>
  <path fill="#12111f" d="M56.269 167.378c-.753.577-1.41 1.257-1.893 2.068-.168.299-.263.635-.402.957-.518 1.118-.789 2.426-.781 3.771-.023.599.058 1.198.153 1.79.073.38.132.76.197 1.14l.051.292v.307l.022.614c0 .263-.058.249-.27.103a9 9 0 0 0-.453-.307 6 6 0 0 1-.293-.22c-.05-.036-.087-.087-.153-.124l-.095-.153a7.34 7.34 0 0 1-.906-5.101c.197-1.052.285-2.185.716-3.23.49-1.133 1.25-2.149 2.12-2.967.547-.497 1.125-.95 1.753-1.323a9.9 9.9 0 0 1 3.084-1.235c.84-.19 1.746-.372 2.675-.197.204.022.402.066.599.146.373.117.555.322.65.504.095.19.095.38.037.607-.03.102-.044.212-.08.3-.117.285-.534.453-.95.46a35 35 0 0 0-1.689.102c-.54.051-1.096.198-1.658.395-.826.307-1.674.753-2.398 1.359l-.036-.036z"/>
  <path fill="#12111f" d="M79.26 149.808c3.361-.731 6.796-1.133 10.237-1.103 1.257.014 2.514 0 3.771.153 4.407.497 8.791 1.9 12.496 4.385a23 23 0 0 1 2.39 1.783c.731.687 1.462 1.374 2.061 2.199.774 1.031 1.469 2.2 1.761 3.53l.139 1.001c0 .336-.015.672-.029 1.009-.008.336-.132.657-.212.972-.073.321-.234.613-.366.906-.372.716-.431.548-.57-.139-.036-.183-.08-.38-.124-.592-.066-.227-.168-.468-.263-.724-.066-.124-.066-.248-.117-.38-.051-.124-.095-.255-.146-.387a4 4 0 0 1-.117-.394c-.051-.132-.11-.264-.153-.402a3.7 3.7 0 0 0-.285-.709c-.103-.234-.176-.475-.322-.694-.234-.461-.541-.885-.862-1.309-.665-.84-1.491-1.585-2.375-2.272-1.71-1.469-3.756-2.682-5.912-3.654a17.8 17.8 0 0 0-4.151-1.257c-1.447-.285-2.923-.424-4.4-.512-1.622-.116-3.258-.095-4.888 0a41 41 0 0 0-4.889.57 43 43 0 0 0-5.897 1.433c-2.872.942-5.656 2.367-7.827 4.421-1.703 1.578-2.879 3.566-3.573 5.663-.19.453-.227.943-.373 1.403-.373 1.776-.533 2.332-1.206 2.712-.146.087-.3.204-.438.255-.234.088-.431-.073-.592-.46-.088-.19-.146-.438-.19-.738a3.6 3.6 0 0 1-.03-1.03c.169-2.302.987-4.663 2.34-6.709 1.373-2.031 3.222-3.727 5.246-5.071a25.2 25.2 0 0 1 4.801-2.419c1.688-.636 3.347-1.082 5.043-1.491l.021.058z"/>
  <path fill="#12111f" d="M117.113 166.545c.724.877 1.33 1.834 1.827 2.828.183.365.402.709.541 1.089a9.8 9.8 0 0 1 .599 4.231c-.051.628-.117 1.264-.314 1.87a6 6 0 0 1-.46 1.119c-.19.358-.505.643-.826.884-.249.109-.263.051-.329-.241a4 4 0 0 1-.08-.519c-.015-.19-.103-.439-.022-.599.182-.636.204-1.272.219-1.893.051-.621.029-1.272-.015-1.944-.058-.811-.438-1.608-.818-2.368a12.7 12.7 0 0 0-1.513-2.397 10.5 10.5 0 0 0-1.22-1.271c-.658-.599-1.396-1.14-2.214-1.469-.636-.263-1.323-.307-1.966-.314-.139-.008-.285.022-.424.014-.519-.036-.665-.226-.789-.818-.029-.132-.066-.263-.088-.395-.066-.416.19-.825.709-.994 1.527-.336 3.179.147 4.538.936 1.023.584 1.915 1.352 2.682 2.214l-.037.044z"/>
  <path fill="#12111f" d="M119.662 179.377c.19.336.293.702.439 1.052.088.359.19.702.248 1.067.125.753.103 1.44.051 2.112-.051.49-.043.98-.16 1.447a10.8 10.8 0 0 1-2.193 4.531c-.504.563-1.008 1.147-1.68 1.535a3.5 3.5 0 0 1-.643.358c-.227.102-.446.219-.695.263a4 4 0 0 1-.73.095c-.249-.029-.49-.015-.724-.103-.3-.255-.241-.175-.022-.496.212-.322.556-.651.892-.921.65-.322 1.169-.76 1.629-1.308.483-.526.921-1.155 1.338-1.842.489-.84.657-1.885.782-2.872.058-.541.109-1.096.073-1.622 0-.27-.052-.512-.081-.76-.073-.249-.124-.512-.212-.745a4 4 0 0 0-.994-1.572 4.6 4.6 0 0 0-2.616-1.286c-.789-.117-1.593.051-2.367.198l-.512.109c-.643.11-.877-.036-1.147-.563-.059-.116-.132-.233-.183-.358-.161-.394.044-.825.57-1.118 1.564-.767 3.522-.855 5.459-.212.716.242 1.41.643 2.039 1.133.599.534 1.132 1.155 1.498 1.849l-.051.029z"/>
  <path fill="#12111f" d="M108.732 205.99a28 28 0 0 1-2.141 3.661 22 22 0 0 1-2.748 3.289c-1.03 1.001-2.141 1.929-3.376 2.689a18.8 18.8 0 0 1-3.924 1.827 21.8 21.8 0 0 1-6.146.994c-3.647.058-7.293-.841-10.501-2.47-3.223-1.63-6.03-3.954-8.338-6.643-2.032-2.404-3.771-5.072-5.094-7.892-1.724-3.596-2.901-7.564-2.828-11.561.058-1.25.241-1.074.702-.095.226.489.54 1.184.884 2.002.387.811.753 1.754 1.052 2.799l.453 1.367c.168.445.336.898.49 1.351l.511 1.338.563 1.315a34 34 0 0 0 2.792 4.991c2.148 3.143 4.8 5.963 8.002 8.068 1.907 1.264 4.1 2.17 6.386 2.682 2.295.482 4.677.599 7.008.3 2.558-.278 4.999-1.089 7.118-2.522 2.141-1.395 3.91-3.347 5.349-5.517 1.762-2.696 3.011-5.744 3.859-8.886 1.279-4.772 1.768-9.836 1.279-14.725a37 37 0 0 0-2.916-10.874 52 52 0 0 0-1.082-2.192c-.701-1.359-1.205-2.222-1.498-2.879-.292-.658-.358-1.111-.307-1.564.022-.212.015-.461.073-.614.154-.512 1.382.212 2.763 2.214 2.039 2.952 3.486 6.431 4.355 10.041.439 1.812.76 3.639.965 5.524.197 1.886.248 3.779.182 5.664-.211 5.598-1.388 11.21-3.836 16.362l-.059-.022z"/>
  <path fill="#12111f" d="M61.056 182.179c-.139-.131-.3-.263-.27-.248-1.272-.767-2.887-1.118-3.954-.585-.453.22-.745.607-1.067 1.111-1.205 1.798-1.242 4.348-.087 6.467.482.972 1.227 1.688 2.104 2.302 1.133.804 2.405 1.221 3.661 1.995.183.234.278.351.264.388-.015.043-.125.051-.359.248s-.562.329-.986.475a2.8 2.8 0 0 1-1.374.022c-1.666-.453-3.215-1.388-4.385-2.821-.606-.745-1.008-1.483-1.352-2.316a8.6 8.6 0 0 1-.613-2.595c-.168-2.126.226-4.421 1.695-6.204.855-1.016 2.214-1.593 3.464-1.629s2.411.277 3.442.774c.226.103.438.227.665.351.372.227.548.417.752.607l.57.54c.359.336.79.702.958.782.131.073.3.124.438.029.11-.051.183-.058.314-.153.147-.102.3-.168.439-.292l.424-.344.402-.394c.511-.556.986-1.177 1.38-1.849.746-1.228 1.229-2.58 1.704-3.932.102-.299.175-.599.292-.899.387-1.11.701-1.388 1.366-1.425.147-.007.293-.043.417-.036.395.007.709.65.54 1.556a19 19 0 0 1-1.351 3.961 17.6 17.6 0 0 1-2.368 3.8c-.16.212-.358.409-.548.614a5.4 5.4 0 0 1-.628.585l-.337.285-.387.263c-.22.175-.73.394-1.14.584l-.38.088c-.139-.029-.263.051-.394.022a2.7 2.7 0 0 1-.782-.175 4.7 4.7 0 0 1-1.228-.739c-.519-.409-.943-.825-1.323-1.161l.037-.044zm43.84-53.263c5.429.08 10.851.219 16.281.424 5.43.212 10.859.475 16.296.95 1.988.175 3.968.358 5.963.614 1.995.27 3.976.548 6.029 1.176.453.139.914.307 1.396.548.248.132.482.242.76.468.307.197.519.541.745.826l.351.796.212.702c.153.475.219.906.329 1.366.351 1.791.541 3.537.723 5.298.322 3.508.505 7.001.643 10.494.256 6.986.329 13.965.329 20.937-.007 6.19.008 12.408-.087 18.554-.117 7.885-.139 15.821-1.104 23.67-.416 2.441-.424 2.104-.709.014-.351-2.097-.738-5.941-.752-10.472l.168-12.05q.053-6.028.117-12.058c.065-8.045.08-16.113-.052-24.203-.087-4.837-.307-9.777-.811-14.681a66 66 0 0 0-.482-3.639c-.11-.592-.205-1.199-.344-1.761a8 8 0 0 0-.219-.833c-.08-.271-.161-.548-.263-.738 0-.461-1.279-.87-2.382-1.162-1.14-.293-2.339-.505-3.544-.695-5.32-.774-10.772-1.11-16.202-1.403a532 532 0 0 0-16.34-.555 980 980 0 0 0-20.14-.227c-10.165-.014-20.388.052-30.48.293-7.848.19-15.536.555-23.282.913-1.703.088-3.376.168-5.094.256-6.38.27-8.41.212-9.807-.373-.321-.131-.738-.256-.928-.394-.636-.468 1.951-1.016 6.621-1.345 13.863-.979 28.5-1.425 43.203-1.659a1262 1262 0 0 1 32.848-.087l.015.058z"/>
  <path fill="#12111f" d="M48.18 239.952c-4.289-.139-8.578-.322-12.875-.658-2.149-.175-4.305-.38-6.468-.701a36 36 0 0 1-3.266-.622c-.556-.146-1.104-.292-1.681-.518a8 8 0 0 1-.877-.395c-.314-.183-.6-.351-.98-.723a3.4 3.4 0 0 1-.591-1.024c-.117-.299-.19-.57-.27-.84a19 19 0 0 1-.33-1.556 50 50 0 0 1-.416-3.026c-.416-3.88-.694-7.724-.87-11.575-.54-13.578-.562-27.134-.613-40.69a15355 15355 0 0 1-.103-18.028c-.014-7.665-.233-15.36.541-23.019.22-2.389.154-2.068.387-.044.117 1.009.366 2.448.614 4.18.124.87.293 1.813.395 2.814.08 1.001.153 2.061.19 3.164.416 15.653.234 31.284.234 47.054-.008 9.427.329 19.249.862 28.844.132 2.163.278 4.326.497 6.474.11 1.075.234 2.141.402 3.179.088.519.183 1.038.3 1.52.11.461.3.994.394 1.082.037.029.124.117.256.19.102.08.263.146.402.219.3.139.636.256.986.365.695.212 1.433.38 2.178.527 1.498.285 3.033.482 4.567.657 3.084.336 6.197.534 9.31.702 6.512.329 13.037.482 19.563.555 9.887.11 19.826.139 29.647.095 7.637-.073 15.127-.139 22.676-.212 1.666 0 3.289-.022 4.969 0 6.219.081 8.2.3 9.515.965.3.153.694.307.862.453.578.511-1.965.774-6.504.782-13.468.08-27.688.212-41.975.204-10.61 0-21.28-.08-31.942-.343l-.014-.058z"/>
  <path fill="#12111f" d="M38.262 230.529c-.753.351-1.586.548-2.441.505s-1.703-.322-2.368-.775c-.497-.322-.965-.687-1.308-1.155-.6-.818-.965-1.79-.994-2.791a4.47 4.47 0 0 1 .863-2.784 5.2 5.2 0 0 1 .854-.929c.337-.248.68-.489 1.067-.65.49-.219 1.045-.285 1.579-.234.54.044 1.023.3 1.432.57.256.176.124.285-.16.358-.278.03-.753.241-1.126.41-.343.124-.614.35-.855.555-.263.161-.49.373-.694.599-.453.417-.775.928-.906 1.549-.08.38-.015.812.153 1.206.175.395.439.753.73 1.052.651.687 1.565 1.016 2.53.775a3.1 3.1 0 0 0 1.585-.913c.665-.68.95-1.659.636-2.565-.249-.702-.862-1.213-1.454-1.491-.14-.059-.278-.095-.402-.139-.46-.205-.57-.336-.658-.95-.022-.139-.058-.278-.073-.409a.65.65 0 0 1 .22-.578c.182-.16.474-.248.84-.226 1.096.073 2.111.709 2.82 1.586a4.8 4.8 0 0 1 1.067 3.317 4.8 4.8 0 0 1-.942 2.522 5.55 5.55 0 0 1-1.959 1.636l-.03-.051zm12.636-.142a3.7 3.7 0 0 1-2.017.585c-.657 0-1.25-.154-1.79-.38-.395-.168-.79-.322-1.125-.592-.585-.46-1.118-1.14-1.33-1.9a3.4 3.4 0 0 1-.132-1.184c.037-.409.198-.789.41-1.125a2.36 2.36 0 0 1 1.666-1.053c.774-.102 1.483.073 2.119.344.197.088.16.131-.037.212-.19.073-.54.248-.891.358-.636.161-1.148.526-1.286.709-.132.19-.176.445-.22.847-.007.249.125.519.315.717.182.19.467.372.738.526.599.358 1.359.526 1.929.358.35-.081.65-.351.826-.665.255-.453.175-1.235-.256-1.688-.329-.358-.855-.424-1.36-.431-.109 0-.226.014-.343 0-.424-.037-.562-.22-.68-.797-.029-.132-.065-.263-.087-.395-.073-.438.146-.833.636-.993.716-.205 1.564-.169 2.404.255.848.402 1.586 1.272 1.87 2.207.227.702.264 1.491.023 2.266-.117.372-.33.789-.556 1.059q-.163.23-.38.424a2.7 2.7 0 0 1-.446.365l-.036-.043zm33.959-58.16 1.455-.19 1.44-.263c.964-.16 1.921-.38 2.871-.621.702-.161 1.367-.416 2.054-.621 2.433-.68 4.852-1.469 7.161-2.514 1.038-.438 1.995-1.045 2.945-1.615.592-.387 1.206-.76 1.769-1.176q.439-.295.898-.578c.264-.219.622-.35.936-.548.416-.212.424-.146.321.285-.073.3-.146.621-.226.943-.117.395-.366.731-.658 1.067-1.096 1.162-2.375 2.061-3.741 2.791a27.4 27.4 0 0 1-4.224 1.842c-1.732.606-3.493 1.33-5.284 1.871-.986.292-1.987.519-2.981.774-1.009.205-2.01.417-3.026.592-1.256.168-2.491.402-3.756.49-.95.095-1.907.19-2.864.204-.958.037-1.908.095-2.858.066-.738-.014-1.476.073-2.207.051l-2.214-.029c-.329 0-.65-.036-.972-.08-1.213-.168-1.564-.424-1.673-1.089-.022-.154-.066-.3-.066-.446 0-.475.563-.818 1.403-.811 2.485.08 5.057.139 7.666.051.972-.051 1.944-.058 2.916-.175l1.461-.132c.49-.051.972-.139 1.454-.212l.015.059zm-.759 19.002a1.72 1.72 0 0 0 .24-1.352c-.036-.183-.16-.322-.24-.475a2.3 2.3 0 0 0-.27-.38c-.045-.03-.103-.073-.147-.088a.7.7 0 0 0-.19-.037 2 2 0 0 0-.234-.029 7 7 0 0 0-1.045 0 9.5 9.5 0 0 0-1.279.176c-.54.102-1.089.285-1.702.095-.198-.147-.176-.205-.066-.497.117-.263.3-.665.592-.797 1.06-.351 2.155-.716 3.464-.606l.3.021c.109 0 .19.015.365.03.306.014.57.124.833.248.446.256.782.577 1.052.972.57.84.701 1.937.453 2.865a4.2 4.2 0 0 1-.782 1.542c-.124.16-.358.416-.687.555-.343.153-.818.117-1.118-.08a1.57 1.57 0 0 1-.606-.702 3 3 0 0 1-.205-.694c-.102-.68-.16-1.301-.102-1.929.014-.139.007-.278.043-.41.103-.511.373-.606.907-.489.124.029.24.044.358.08.19.059.343.168.475.292.124.132.234.285.248.432.051.431.095.847.14 1.257.021.182.05.343.087.445.022.051.022.088.029.103l-.38.175a.7.7 0 0 0-.139.088c-.146.095-.234.292-.226.307.014.014-.022-.198-.278-.439l-.102-.102-.059-.044-.03-.022-.087-.073.059-.058c.036-.044.073-.081.11-.125a2 2 0 0 0 .182-.285l.051.015zm12.749-.727c.227-.293.314-.943.263-1.44-.022-.19-.11-.343-.16-.497-.088-.256-.198-.431-.344-.49-.314-.08-.804-.073-1.25-.036-.41.029-.818.102-1.227.183-.527.102-1.068.277-1.652.065-.19-.153-.16-.212-.044-.497.117-.263.3-.65.577-.774 1.001-.322 1.995-.716 3.318-.607.212.022.417.03.709.088.336.073.54.19.774.343.446.3.746.709.929 1.104.197.446.3.891.329 1.345.021.431 0 .876-.096 1.33a3.3 3.3 0 0 1-.803 1.556 1.43 1.43 0 0 1-.84.468 1.26 1.26 0 0 1-1.016-.307 1.7 1.7 0 0 1-.468-.694 3 3 0 0 1-.176-.629c-.11-.628-.212-1.213-.197-1.834 0-.132 0-.27.022-.409.08-.512.35-.621.891-.505.125.022.242.044.359.081.19.058.343.168.475.285s.248.263.27.394c.088.41.154.812.22 1.162.029.176.072.337.109.461.022.058.03.117.044.153 0 .022.007.029.014.044v.015l-.35.16-.015.008-.066.036c-.139.073-.278.234-.3.322-.029.095.037 0-.124-.219a1.8 1.8 0 0 0-.336-.344l-.088-.073.008-.015.022-.021.043-.044q.08-.087.147-.205l.05.015zm-19.194-7.341c.957.131 1.914.022 2.88.007.226 0 .452 0 .679.015.05 0 .49.058.197.014q.153.024.307.059l.27.065c.059.015.11.037.168.052.125.043.11.043-.043-.022 0 0 .226.124.219.131q-.187-.153-.044-.022c.197.22.132.044-.197-.519l.16-.599c.161-.27.373-.409.644-.424-.052 0-.103.008-.154.015a5 5 0 0 1-.35.029 8 8 0 0 1-.607.022q-.689-.002-1.367-.08l.066.007c-.066-.007-.132-.022-.197-.029-.103-.015-.198-.037-.3-.051a11 11 0 0 1-1.944-.57c-.577-.227-1.33.248-1.461.825-.154.687.212 1.213.825 1.462 1.674.658 3.545.935 5.335.76.292-.029.577-.044.848-.161.394-.168.716-.475.833-.899.212-.767-.293-1.417-.892-1.819-.789-.526-1.863-.629-2.784-.636-1.03-.007-2.06.124-3.084-.007-.278-.037-.65.16-.84.35-.205.205-.358.541-.351.841s.117.628.35.84c.25.227.512.307.841.351zm19.297-4.27a10.7 10.7 0 0 0-3.442.27c-.585.146-1.242.307-1.68.745-.688.702-.512 1.835.313 2.339.483.299 1.126.365 1.681.343a7.5 7.5 0 0 0 1.623-.263c.467-.124.928-.285 1.403-.416a7 7 0 0 1 .709-.168c.058-.015.116-.022.175-.03q-.25.031-.051.008l.358-.022c.62-.015 1.22-.534 1.184-1.184-.037-.651-.52-1.206-1.184-1.184-.87.022-1.703.256-2.529.512-.372.116-.752.233-1.132.314-.088.022-.176.036-.263.051-.293.058.263-.015-.037 0q-.285.024-.57.015c-.044 0-.088 0-.132-.008.154.022.19.029.096.015-.044-.007-.234-.081-.27-.066l.153.059q.633.403.138 1.366c-.263.227-.058.066 0 .022q-.272.112-.05.037l.094-.03c.11-.036.227-.065.344-.102a9 9 0 0 1 .942-.205c.103-.014.3-.058.088-.014.227-.044.475-.051.709-.059a10 10 0 0 1 1.315.03c.621.051 1.213-.585 1.184-1.184-.03-.687-.526-1.133-1.184-1.184z"/>
  <path fill="#12111f" d="M93.67 196.325c-.168-.768-.3-1.52-.431-2.258-.052-.271-.14-.527-.19-.797-.154-.95-.315-1.9-.468-2.843a15 15 0 0 0-.285-1.235c-.146-.518-.307-1.03-.395-1.563-.022-.169.11-.198.3-.117.19.08.46.27.606.555.49 1.016.98 2.032 1.148 3.142.11.658.38 1.301.577 1.944l.621 2.127c.124.431.292.818.424 1.381.102.402.095.957-.132 1.41-.219.453-.57.775-.935 1.016a4.6 4.6 0 0 1-1.893.709c-.139.022-.277.051-.409.051-.497-.015-.606-.183-.606-.797v-.401c.022-.446.277-.819.584-.899.46-.139.819-.205 1.052-.285a1.8 1.8 0 0 0 .439-.205c.036-.015.022-.015.073 0-.022 0 .03-.007.037-.08.029-.146-.037-.439-.147-.833l.044-.015zm-6.385 9.982a5.08 5.08 0 0 0 5.641.68c.512-.263.702-1.023.395-1.498-.336-.519-.957-.672-1.498-.395-.073.037-.154.073-.234.11.036-.022.226-.088.088-.037-.052.015-.103.037-.154.051-.16.052-.329.095-.497.125-.036 0-.197.029-.014 0 .197-.022 0 0-.044 0-.088.007-.168.014-.256.014q-.276 0-.54-.022c-.14-.007.24.044.102.015a4 4 0 0 1-.373-.08c-.176-.044-.344-.117-.52-.168.037.014.22.102.089.036-.037-.022-.08-.036-.117-.058a4 4 0 0 1-.227-.125q-.12-.075-.241-.16c-.03-.022-.154-.117-.015-.008.154.11-.014-.022-.036-.036-.431-.373-1.133-.461-1.55 0-.38.409-.46 1.147 0 1.549zM303.774 46.098c-.139.058-.205-.168-.234-.497-.008-.11.044-.402.087-.453.081-.088.161-.176.242-.241.051-.059.694-.146.906-.234.204-.066.409-.08.606-.08.41-.015.811-.059 1.213-.117a.7.7 0 0 1 .271.029c.314.095.628.066.928-.022.051-.015.102-.015.146-.088.066-.11.87-.3.987-.285.285.066.562.059.862.095.044 0 .073-.03.131.037.139.16.212.11.293.095.124-.015.241-.022.38 0 .065.007.16.095.241.153.08.059.146.329.139.366-.022.102.065.212.109.321.015.037.037.08.044.117.029.066-.533.797-.621.819-.007.036-1.074.453-1.206.496-.066.03-.139 0-.212-.014-.029 0-.913.285-.95.278-.19 0-.372.087-.577-.059-.037-.03-.08-.015-.117-.007-.321.044-.65 0-.972-.044-.168-.022-.329-.007-.489-.015-.03 0-.059-.029-.088-.036-.037-.015-.073-.037-.11-.037-.387 0-.767-.117-1.154-.11-.095 0-.49-.226-.592-.219-.059 0-.205-.263-.263-.233zm-3.699-5.82c.095.154-.132.249-.548.314-.132.022-.526-.029-.578-.073a2.4 2.4 0 0 1-.27-.27c-.036-.051-.175-.862-.241-1.14a2.6 2.6 0 0 1-.051-.79l.058-1.592a.9.9 0 0 1 .081-.344c.168-.387.204-.79.19-1.198 0-.066.014-.14-.059-.205-.117-.117-.051-1.213.015-1.352.175-.336.292-.68.438-1.016.022-.05 0-.102.095-.138.234-.08.198-.198.234-.3a1.7 1.7 0 0 1 .19-.439c.044-.073.183-.131.285-.19.095-.058.417.015.453.044.095.08.256.037.387.044.044 0 .103 0 .139.015.073.014.6.942.57 1.037v.68c0 .344 0 .694.015.767s-.051.147-.088.22c-.014.036.015 1.06 0 1.096-.051.204 0 .424-.212.614-.044.036-.036.08-.036.124-.022.358-.139.709-.234 1.067-.044.182-.051.365-.073.548 0 .03-.037.066-.051.095-.022.036-.051.08-.051.124-.037.439-.19.862-.176 1.3 0 .103-.256.556-.241.673 0 .066-.292.249-.256.307zM137.113 339.772c-.066-.147.168-.263.438-.366.088-.036.344-.029.395.015.11.088.212.175.285.241.088.051.292.84.417 1.103.102.256.153.519.19.782.095.527.102 1.06.146 1.586 0 .117-.008.234-.044.351-.124.402-.117.804-.066 1.206.007.065 0 .139.073.197.124.11.19 1.198.117 1.337-.161.351-.263.702-.387 1.053-.015.051.007.102-.081.146-.204.109-.175.212-.19.321-.022.154-.058.3-.131.453-.037.073-.154.147-.241.22-.081.065-.38.029-.417 0-.095-.066-.234-.015-.358 0h-.131c-.074 0-.614-.87-.622-.965 0-.007-.051-.329-.109-.672-.066-.329-.124-.673-.146-.76-.022-.073.036-.154.065-.227.015-.036-.124-1.045-.117-1.089.03-.212-.036-.416.147-.628.036-.044.029-.081.029-.124-.015-.358.066-.717.117-1.082.029-.183.007-.365.014-.548 0-.037.03-.066.044-.102.015-.044.037-.081.037-.125.014-.438.153-.869.124-1.308 0-.102.212-.577.197-.694 0-.066.241-.278.205-.336zm-3.953-3.442c.154-.081.264.117.329.467.022.11-.022.439-.065.483-.088.087-.169.175-.249.233-.051.03-.775.205-1.008.322a3.5 3.5 0 0 1-.673.19 10 10 0 0 0-1.33.38.8.8 0 0 1-.299.044c-.366-.015-.702.109-.994.299-.051.03-.11.044-.132.139-.044.154-.833.614-.964.614-.329.015-.629.095-.95.168-.044.008-.066.066-.154 0-.204-.131-.263-.044-.351 0a1.6 1.6 0 0 1-.401.146c-.074.015-.212-.051-.337-.095-.109-.036-.314-.336-.321-.38-.022-.131-.168-.226-.271-.336a1 1 0 0 1-.102-.117c-.073-.073.307-1.103.409-1.154l.183-.146.395-.315c.292-.212.606-.438.679-.489.066-.059.161-.044.256-.051.022-.03 1.009-.563 1.06-.556.226-.051.431-.175.709-.058.051.022.095 0 .138-.015.373-.117.775-.124 1.162-.139.198-.007.395-.051.585-.066.036 0 .073.015.11.022.043.008.095.03.138.022.461-.051.928.015 1.382-.029.109-.015.606.19.723.183.066-.008.27.256.329.219z"/>
</svg>
