<svg xmlns="http://www.w3.org/2000/svg" width="380" height="380" fill="none">
  <path fill="#12111f" d="M199.07 159.04q.95-.28 1.93-.48a8 8 0 0 1 2.46-.16l.23.02.38.07a6 6 0 0 1 1.49.53c.58.32 1.42.16 1.74-.46s.17-1.4-.46-1.75c-2.63-1.47-5.68-1.03-8.45-.23-.64.18-1.11.91-.9 1.57s.89 1.09 1.58.9m-13-2.58a14.3 14.3 0 0 0-9.72-1.3c-.67.14-1.06.93-.89 1.56.2.7.9 1.05 1.57.9 2.57-.57 5.39-.2 7.74 1.05a1.3 1.3 0 0 0 1.75-.46c.34-.58.15-1.43-.46-1.75m-21.01 5.01 1.55.57c.2.07.39.1.58.18l1.96.93.85.44c.19.1.38.17.54.3s.29.35.46.46q.14.12-.1.21c-.13.04-.4.2-.67.3a1 1 0 0 1-.33.06h-.3q-.3.02-.6.01l-.3-.01-.25-.11q-.27-.11-.53-.27c-.42-.24-.92-.24-1.39-.36-.52-.13-1.02-.31-1.54-.46l-.96-.29c-.49-.12-.98-.28-1.47-.35-.4-.04-.8 0-1.2-.01h-.27c-.31-.12-.37-.31-.31-.82l.04-.33c.05-.34.27-.67.53-.8a3.2 3.2 0 0 1 2.16-.12c.53.1 1.05.28 1.57.42v.05zm52.97 6.97-1.82.31c-.22.05-.43.14-.65.17l-2.39.33q-.52.08-1.05.2c-.45.1-.9.3-1.46-.04-.16-.11-.1-.27.03-.55.13-.32.23-.7.44-.84.74-.31 1.6-.56 2.53-.55.55 0 1.07-.26 1.6-.39l1.8-.41 1.1-.26c.56-.14 1.13-.25 1.67-.45.42-.14.8-.4 1.2-.61l.28-.15c.36-.1.53.05.7.5l.13.32c.11.36.04.71-.15.93a5.4 5.4 0 0 1-2.17 1.06l-1.78.47zm-37.64 10.34s2.22.09 2.69.43c.63.46.3 1.1.56 1.58.78 1.44 1.65-4.08 1.65-4.08l-2.11.82z"/>
  <path fill="#12111f" d="M202.09 180.54a9 9 0 0 1-6.82-2.55 9.8 9.8 0 0 1-2.3-6.15 28 28 0 0 1 .11-4.57l.06-.43.14-.42q.14-.44.32-.84c.16-.34.22-.28.4.05.08.16.23.4.35.67l.19.44q.04.13.1.25v.24a25 25 0 0 0 .46 6.57 6 6 0 0 0 1.98 3.21 6.4 6.4 0 0 0 3.85 1.52c.88.06 1.8-.06 2.65-.33a7.3 7.3 0 0 0 3.35-2.3 9 9 0 0 0 1.41-2.81q.1-.33.18-.67c.23-.81.43-1.05.98-1.14q.19-.06.35-.08.27-.02.46.3.22.31.18.89a8 8 0 0 1-.96 3.32 10 10 0 0 1-2.33 2.81 9 9 0 0 1-5.13 2.07v-.05zm-22.62-2.92a10 10 0 0 1-5.32-1.53 6 6 0 0 1-1.53-1.52q-.27-.4-.46-.82l-.32-.82a12 12 0 0 1-.64-5.06c.08-1 .23-2.02.58-2.99l.39-.9c.17-.3.3-.6.53-.86.41-.54.97-.99 1.66-1.12.41-.11.4.01.3.41-.05.22-.13.47-.15.82-.03.31-.16.54-.28.8-1.2 1.62-1.4 3.95-1.25 6.23a7 7 0 0 0 1.48 3.74c.91 1.05 2.41 1.58 3.99 1.75.98.1 1.94.1 2.86-.12a9 9 0 0 0 3.84-2.09c.87-.78 1.55-1.72 2.24-2.66l.44-.64q.44-.55.75-.71.34-.14.67-.06.17.02.31.06.22.09.21.43c0 .23-.04.55-.22.87a15 15 0 0 1-4.64 5.2q-1.18.8-2.57 1.26-1.41.41-2.87.4z" opacity=".2"/>
  <path fill="#12111f" d="M176.55 164.4c-.4.32-.56.84-.6 1.32a2 2 0 0 0 .3 1.14 2.2 2.2 0 0 0 2.5.91q.65-.2 1.16-.66.23-.24.41-.5.12-.16.19-.34c.17-.4.31-.83.28-1.28a2.5 2.5 0 0 0-.82-1.75 3 3 0 0 0-.83-.49 2 2 0 0 0-1.34-.05c-.31.08-.61.31-.77.58s-.23.68-.13.99.29.6.58.77q.46.25.99.13l.13-.03-.34.04h.23l-.34-.04q.15.03.29.08l-.3-.13q.13.06.25.16l-.25-.2q.12.1.22.23l-.2-.26q.09.12.14.24l-.13-.3q.05.13.07.28l-.04-.35v.37l.04-.34q-.03.2-.1.37l.13-.31q-.1.2-.23.4l.2-.26q-.12.15-.27.27l.26-.2q-.15.12-.34.2l.3-.13q-.15.06-.33.09l.34-.05h-.26l.34.04-.25-.06.3.13-.16-.1.25.2-.12-.14.2.26-.11-.18.13.3-.07-.23.05.34v-.2l-.05.34.04-.14-.13.31.06-.12-.2.25.1-.1c.25-.2.38-.6.38-.9 0-.32-.14-.7-.37-.91a1.3 1.3 0 0 0-.9-.37l-.35.04q-.32.09-.56.33zm22.43 1.56c-.58.6-.75 1.41-.58 2.2a2.3 2.3 0 0 0 2.4 1.8c.44-.05.81-.13 1.19-.35q.52-.32.85-.83.17-.26.26-.55.1-.31.12-.63a3 3 0 0 0-.12-1.04 3 3 0 0 0-.7-1.12 1.3 1.3 0 0 0-.91-.38 1.28 1.28 0 0 0-.9 2.19l.16.18-.2-.26q.1.14.18.33l-.13-.31q.08.18.1.39l-.04-.35q.03.19 0 .37l.04-.34a1 1 0 0 1-.1.35l.14-.31q-.06.13-.15.25l.2-.25q-.09.1-.21.2l.25-.2q-.14.1-.29.17l.31-.13-.33.1.34-.05q-.16.03-.33 0l.34.05q-.14-.03-.27-.08l.3.14-.21-.13.25.2-.19-.2.2.26q-.09-.12-.14-.25l.13.3q-.06-.15-.08-.3l.04.34v-.3l-.04.35q.01-.16.07-.28l-.13.3.12-.2-.2.26.08-.08a1.3 1.3 0 0 0 0-1.81 1.3 1.3 0 0 0-1.81 0zm60.17 131.42s-3.86 11.43-2.06 12.8c1.55 1.15 5.57-2.05 5.57-2.05s5.52-5.33 4.62-6.19c-.9-.85-4.24-3.36-4.24-3.36zm11.78.53q.54-.89.97-1.82l.28-.7c.35-.8.67-1.65.76-2.5q.05-.58-.06-1.1c-.1-.48-.35-.79-.41-1.37 0-.22-.03-.18.19-.19.25-.06.7-.01.97.28.4.55.62 1.2.66 1.83q.03.94-.27 1.8c-.23.66-.35 1.36-.6 2.01-.26.72-.67 1.38-1.05 2.02q-.37.59-.75 1.15l-1.2 1.7q-.4.67-.87 1.29l-.23.26c-.3.3-.44.37-.62.35q-.08 0-.12-.02c-.11-.02-.1-.24 0-.54a9 9 0 0 1 1.23-2.63q.58-.9 1.1-1.82l.02.02zm-138.38 40.78a87 87 0 0 1-3.18-2.51q-.58-.46-1.14-.94a36 36 0 0 1-3.8-3.57c-.54-.54-1.03-1.15-1.52-1.73q-.47-.58-.9-1.18-.38-.64-.71-1.29c-.14-.27-.06-.27.18-.12.22.15.65.43 1.04.82.37.33.67.72 1 1.08l1 1.06q.96 1.11 1.98 2.18c.8.87 1.76 1.65 2.72 2.4a73 73 0 0 0 5.31 3.71c1.06.66 2.12 1.35 3.2 1.98.83.48 1.7.89 2.55 1.32l.56.28c.69.38.84.62.85.95v.23c-.04.22-.42.23-.98.05a35 35 0 0 1-4.79-2.41c-1.18-.67-2.26-1.51-3.38-2.29zm26.32-13.22c.14.2 12.3 10.48 17.77 7.3 2.43-1.4-3.85-14.32-5.19-14.32-1.52 0-10.07 5.09-10.3 5.17a38 38 0 0 0-2.29 1.85zm-6.87-4.79a22 22 0 0 1-1.56-2.14c-.16-.29-.38-.53-.52-.85a6 6 0 0 1-.53-1.81 4 4 0 0 1 .71-2.67q.29-.34.62-.56.42-.32.87-.5l.23-.09.25-.02.5-.05c.19-.01.18.04.08.2-.05.1-.12.2-.19.38l-.1.27q-.04.07-.05.15l-.08.09q-.32.3-.53.61c-.15.2-.2.42-.3.55-.22.27-.34.61-.42 1.12-.08.61.22 1.17.57 1.8q.56 1 1.34 1.97.46.6.99 1.16.78.87 1.64 1.64c.45.39.97.69 1.46 1.03q.16.1.31.25c.33.36.37.56.23.89l-.1.2c-.1.2-.42.27-.79.15-.58-.13-1.02-.46-1.5-.78q-.7-.48-1.35-1.07a28 28 0 0 1-1.81-1.87l.03-.03z"/>
  <path fill="#12111f" d="M148.88 316.8q-.11-.47-.13-.94c0-.12-.05-.23-.04-.35a2.4 2.4 0 0 1 .41-1.14l.25-.45q.16-.32.52-.4c.08-.01.16.13.25.3s.2.38.22.46c.02.16.01.25-.01.36q-.03.15-.14.31c-.09.14-.04.31-.03.47a2 2 0 0 0 .18.94q.08.3.26.58l.35.36q.04.03.07.08c.08.12.04.2-.14.39l-.11.13q-.22.2-.44.16c-.4-.07-.82-.19-1.05-.5q-.32-.3-.46-.75z"/>
  <path fill="#12111f" d="M268.33 286.86s8.47-6.05 10.12-7.92c1.66-1.88 5.73-29.86 5.53-31.76s-45.32 20.57-46.42 20.88-9.62 4.43-10.72 6c-.72 1.02 1.95 27.68.27 32.97-.6 1.91 27.02-11.29 27.02-11.29s-11.96.8-13.6.73c-1.62-.08-5.3-1.25-4.52-1.66s9.34-3.33 8.81-4.36-5.32-3.6-5.32-3.6-7.92-3.69-6.86-4.75.05-2.09 0-3.23 5.46-.77 5.46-.77 9.9 2.3 9.36 0-5.78-7.58-5.78-7.58-1.87-3.9 1.61-3.16 13.17 9.48 14.2 9.68c1.04.2 5.03-2.93 5.5-3.7.48-.8 4.13-6.3 5.34-6.08 1.2.22-.5 7-.5 7s-2.47 8.03-2.14 8.94 2.63 3.65 2.63 3.65zM127.7 272.9c-1.03 1.76 14.96 30 16.29 32.22 1.47 2.46 9.1 3.95 9.92 3 .84-.96-2.17-6.2-2.17-6.2s-8.19-6.53-7.75-8.37c.44-1.85 2.6-3.4 4.15-2.24s8.93 6.92 11.42 6.23c2.48-.7 8.46-5.05 9.39-6.23s6.68-10.24 7.38-8.56-1.4 8.93-1.4 8.93-2.3 7 1.04 5.87 11.46-11.74 11.5-9.5c.04 2.26 3.73 3.43 3.73 3.43l-1.73 6.07s-2.54 5.04-1.41 5.67c1.11.63 8.3-3.18 8.3-3.18s3.26-2.67 3.24-1.04c-.02 1.64-5.18 7.57-6.82 8.22-2.27.9-6.3 1.33-6.77 3.16-.48 1.82 20.04 1.7 23.55 1.17 1.1-.16 6.6.85 6.32 0-2.12-6.43-6.4-26.09-4.74-28.79 1-1.64-23.42-3.92-47.87-6.57-19.23-2.08-34.42-5.23-35.57-3.28" opacity=".15"/>
  <path fill="#12111f" d="M237.85 256.86c-.93.79-5.18 5.32-4.5 7.1.86 2.2 5.44-.94 5.44-.94l-5.44 3.14-9.8 4.37 1.62-3.51 5.08-4.14zm-61.75 12.58c1.08-.34 4.4 2.81 3.83 3.56-.56.74-1.99 1.74-1.99 1.74l14.27 1.1v-1.87l-8.58-1.8zm108.65 2.39q.56-2.71 1.1-5.45c.13-.67.22-1.34.36-2l1.47-7.04q.33-1.56.62-3.12c.25-1.33.5-2.67.99-3.95.16-.4.18-.34.23.04.08.38.15 1.07.1 1.84a83 83 0 0 1-1.4 8.17c-.37 1.63-.6 3.35-.89 5.03q-.51 2.76-1.05 5.52l-.68 3.4-.56 2.57q-.15.64-.33 1.3c-.07.21-.1.41-.22.67l-.16.35-.2.28a13 13 0 0 1-2.98 2.89l-.74.51c-.96.58-1.32.63-1.7.45q-.13-.06-.24-.14c-.22-.18.06-.59.7-1.07.95-.7 1.92-1.37 2.75-2.15q.63-.58 1.13-1.25l.12-.17q.08-.09.08-.14l.1-.24.23-.84q.63-2.67 1.16-5.45h.03z"/>
  <path fill="#12111f" d="M219.84 276.2a10 10 0 0 1 1.39-3.29q1-1.21 2.26-2.2.56-.43 1.14-.82.37-.25.78-.44.43-.17.88-.2c.2-.02.21.13.15.36-.07.22-.2.58-.42.8-.86.63-1.48 1.41-2.35 2.1-.5.42-.86 1.06-1.23 1.57q-.55.83-.85 1.92-.16.65-.28 1.35-.15 1.05-.19 2.14c0 .56.08 1.1.1 1.68q.03.19.03.37c-.01.47-.14.62-.53.68l-.26.05c-.3.01-.53-.2-.6-.52q-.38-1.46-.34-3.1.05-1.2.29-2.46zm29.68 19.55c.34.73 3.79-.9 3.79.73 0 1.41-4 4.44-4 4.44l7.77-4.82-2.47-1.24s-3.61.29-3.85 0-1.24.89-1.24.89m-13.01-10.52c.3.14 5.62 2.58 5.93 4.68.2 1.41-2.7 2.75-3.41 2.96-.73.21.93.69.93.69s6-2.53 5.78-3.1c-.23-.57-2-1.9-2-1.9s-4.4-2.71-4.6-2.71c-.22 0-2.63-.62-2.63-.62m7.23-11.89c.28.34 2.89 3.5 2 4.47-.52.57-4.06.3-4.06.3l.82.82s4.65.76 5.44.06c.8-.71.24-1.8.24-1.8l-3.36-3.85zm-36.77 27.2-1.53-5.99-.59-2.18q-.94-3.86-1.66-7.8c-.2-1.17-.47-2.3-.5-3.59 0-.18.04-.53.13-.72q.1-.3.3-.61c.25-.39.65-.69 1.07-.85a3.6 3.6 0 0 1 2.45.03c.45.17.37.26-.06.38-.41.13-1.17.35-1.7.64q-.36.19-.5.48l-.16.3-.1.25c0 .2 0 .57.05.93l.15 1.08c.22 1.47.52 2.97.8 4.48.32 1.8.85 3.64 1.31 5.47l1.53 6.02.97 3.7q.74 2.8 1.53 5.58l.31 1.07q.14.52.39.94a3.2 3.2 0 0 0 2.13 1.62c.51.14.87.16 1.13.22a1 1 0 0 1 .55.31l.19.21c.14.23-.34.54-1.34.53a4.5 4.5 0 0 1-3.88-2.4 6 6 0 0 1-.44-1.1l-.3-1-.6-2-1.67-6 .03-.02zm-6.52-18.07q-.46-1.04-1.08-1.97c-.14-.23-.33-.42-.49-.63a8.4 8.4 0 0 0-3.32-2.71l-.78-.35q-.4-.2-.77-.44-.22-.13.07-.18c.17-.04.5-.1.85-.06 1.16.32 2.35.78 3.35 1.57.58.49 1.22.92 1.78 1.47a9 9 0 0 1 1.48 2.08q.36.68.67 1.4.45 1.06.75 2.22c.15.6.36 1.18.39 1.81l.01.43c-.03.53-.2.69-.56.71l-.25.02c-.27-.02-.47-.26-.53-.56q-.18-.68-.4-1.34-.16-.69-.39-1.37c-.24-.7-.47-1.4-.8-2.08zm-11.03 26.48c-1.1 1.06-3.29 2.33-3.15 3.17.28 1.66 6.51 2.04 6.51 2.04l-12.85-1.23zm-15.22-15.51c-.13.32-1.37 4.04-.26 4.04 1.87 0 7.63-5.79 7.63-5.79v1.94s-6.83 6.44-8.47 7.01c-1.63.57-2.75 1.03-2.4 0 .34-1.03 2.4-6.33 2.4-6.33zm15.28 5.57c0 .68-1.42 2.94-.14 3.3 1.73.47 5.91-2.24 7.02-2.24 1.19 0-4 2.64-4 2.64s-5.15 2.17-5.83 2.18 0-1.75 0-1.75l2.95-4.15zm-55.73 4.38a228 228 0 0 1-4.3-8c-.51-.96-1.06-1.92-1.55-2.9q-2.6-5.21-4.98-10.5c-.7-1.58-1.48-3.12-2.15-4.7-.43-1-.89-2-1.28-3.03-.35-1.05-.7-2.1-.87-3.21-.12-.69-.08-.6.27-.1.36.48 1.07 1.33 1.75 2.4l1.52 2.95.77 1.48.7 1.5q1.45 3.01 2.83 6.09c1.07 2.46 2.45 4.9 3.72 7.33q2.08 4.03 4.28 7.98.69 1.22 1.4 2.4.35.6.72 1.17l.38.56.2.28.17.21c.32.46.95.75 1.52 1.06l.92.4.98.32q1.97.58 4.04.9c2.12.31 4.25.38 6.37.4q.7 0 1.4-.03c1.73 0 2.27.07 2.68.61q.16.18.27.35c.2.38-.52.82-1.85.94a40 40 0 0 1-12.21-.93 14 14 0 0 1-4.64-1.85c-.2-.14-.4-.25-.58-.43l-.74-.88-.17-.25-.35-.5c-.44-.67-.82-1.32-1.23-1.99l.03-.03z"/>
  <path fill="#12111f" d="M149.17 300.64c.35 1.17 3.48 4.1 1.86 6.12s-6.37 1.8-6.37 1.8l4.51 1.64s5.27-.1 5.85-.97-.33-3.05-.33-3.05l-4.53-6.13zm45.98-62.44.27-.09q.13-.01.24-.1c.05-.05.03-.12.06-.2q.11-.2.1-.48.01-.3-.17-.59-.2-.24-.48-.35c-.13-.05-.26-.06-.4-.11l-.42-.2q-.13-.08-.04-.37c.07-.18.24-.48.5-.57.85-.23 1.97.12 2.48 1.06.27.55.54 1.1.52 1.75a2.5 2.5 0 0 1-.89 1.82c-.3.26-.62.42-.93.56-.49.22-1 .3-1.5.4-.38.08-.78.25-1.22.29q-.15.03-.29.03-.26-.03-.32-.25-.04-.23.07-.67l.1-.39a2.4 2.4 0 0 1 .55-.94c.46-.36.73-.39 1.06-.46.22-.05.48-.1.66-.2zm1.52 9.39q.13.06.27.02c.05-.02.02-.05.07-.08.14-.13.19-.43.08-.67a.4.4 0 0 0-.24-.22c-.12-.04-.2-.15-.37-.28q-.08-.08-.01-.36c.04-.17.19-.43.38-.49.35-.12.68 0 .94.18q.4.28.58.73c.11.34.34.67.36 1.09.05.46-.18.92-.47 1.24q-.26.3-.59.47c-.32.18-.66.25-1 .32-.27.06-.57.22-.92.2h-.23c-.28-.06-.3-.28-.02-.77l.2-.34c.24-.36.49-.66.56-.77.21-.37.12-.38.2-.37l.18.07zm-33.57-33.78c.3-.2 6.07-3.8 10.01-3.51 3.71.27 11.45 5.99 18.67 5.99 9.4 0 15.06-6.29 17.44-7.02 2.96-.91 5.54-.03 6.4 0 1.97.08-8.75-2.91-8.75-2.91s-5.55 3.76-8.93 4.42-11.15.63-13.55.38c-2.4-.24-10.4-3.93-10.4-3.93l-3.05-.91-6.6 5.4-1.25 2.1m-3.5-26.77c-1.27 2.23-17.56 5.65-21.45-3.18l1.07-7.19s-9.1-5.73-10.27-9.28c-1.15-3.56-1.15-7.42 0-9.7 1.16-2.27 8.61-8.73 11.33-9.78s8.8-2.21 8.8-2.21-4.5-10.83-3.3-14.3c1.2-3.45 4.98-10.62 9.1-12.27 4.14-1.66 9.46-2.99 12.8-2.83 3.35.15 14.69 2.58 15.94 3.52 1.26.95 9.82 7.17 9.82 7.17l1.14-.03s5.03-9.38 12.87-10.68 17.28.67 19.16 4.02c1.88 3.36 4.2 9.36 3.94 11.1s-1.78 8.35-1.78 8.35 14.71 1.12 18.02 4.69 1.84 10.82-.99 14.26c-2.82 3.43-3.61 5-4.06 5.68-.44.69 4.55 4.16 5.88 6.88s1.34 6.14-2.9 8.78-7.28 2.86-6.6 4.6c.7 1.75 4.04 4.95 4.09 6.54s-.97 4.27-6.7 6.08c-5.72 1.8-15.54-.41-17.6-4.96l3.03-8.44s4.63.26 6.67-1.41c2.03-1.68 4-3.8 4.4-5.88s.09-7.37.09-7.37-7.03-1.59-10.35-2.72-8.87-6.92-9.25-7.64-1.93-4.2-1.93-4.2-3.78.97-6.47 0c-2.69-.99-5.44-3.95-6-3.97s-2.07-3.34-2.07-3.34-3.22 4.78-7.94 6.2c-4.72 1.44-6.5 1.72-8.01 1.4-1.51-.31-7.52-4.26-7.52-4.26s-.73 2.3-3.31 3.96-7.27 2.14-7.27 2.14.41 2.12-2.29 2.1-8.74.38-8.74.38-1.39 3.06-1.02 5.13c.38 2.08 2.2 5.9 3.3 7.02s5.12 3.92 5.12 3.92l1.26 11.7z"/>
  <path fill="#12111f" d="M226.44 212.97q3.6 1.9 7.1 3.92c.86.49 1.75.92 2.59 1.44 2.97 1.8 5.89 3.7 8.78 5.6l1.95 1.25q.99.6 1.95 1.23c.8.55 1.66 1.03 2.44 1.63.82.56 1.38 1.49 2.15 2.09.46.41.35.43-.18.29-.27-.06-.63-.19-1.12-.23l-.8-.1-.44-.05-.4-.15c-3.61-1.73-6.83-4.04-10.15-6.3-1.96-1.38-4.2-2.5-6.32-3.72a237 237 0 0 0-11.5-6.2q-3.37-1.7-6.83-3.16c-1.8-.71-3.62-1.27-5.45-1.84l-1.2-.37c-1.5-.5-1.9-.84-2.02-1.55-.02-.16-.07-.34-.06-.48.01-.51.76-.68 1.91-.43 3.41.76 6.86 2.06 10.22 3.54q3.74 1.66 7.4 3.54zm-64.53 2.89a73 73 0 0 0-4 3.51c-.47.45-.89.94-1.35 1.4a114 114 0 0 0-4.81 4.95q-1.03 1.14-1.96 2.37a28 28 0 0 1-1.22 1.54c-.43.5-.85 1-1.55 1.3-.43.18-.32.2-.3-.22.02-.2-.07-.57-.04-.92 0-.17 0-.39.05-.57q.08-.26.2-.52l.51-.88.26-.45.29-.41q.6-.84 1.2-1.64a23 23 0 0 1 2.73-3.04c1.19-1.13 2.23-2.48 3.4-3.68a79 79 0 0 1 4-3.8q1.27-1.12 2.57-2.22l2-1.6q1.04-.79 2.03-1.57.79-.61 1.5-1.27l1.5-1.28q.33-.29.68-.55c.88-.62 1.26-.67 1.83-.2q.2.15.38.31c.35.37.25 1.03-.31 1.57-1.65 1.62-3.53 3.06-5.39 4.56q-2.1 1.63-4.14 3.36l-.04-.04zm60.76-50.06c2.22.8 4.73 1.12 7.29 1.46l1.51.18q.66.06 1.16.5.48.42.71 1.04.1.26.17.5l.08.4q.07.38.09.73.05.7.01 1.38a20 20 0 0 1-.95 5.15 9 9 0 0 1-1.19 2.5 15 15 0 0 1-3.34 3.2 9 9 0 0 1-2.76 1.2 8 8 0 0 1-2.94 0c-.59-.12-.5-.12 0-.25.5-.11 1.37-.56 2.25-1.04a10 10 0 0 0 2.19-1.32q1.02-.73 1.88-1.72.43-.49.82-1.02l.2-.26.13-.2q.14-.21.27-.48a15 15 0 0 0 1.23-5.76 7 7 0 0 0-.16-1.55l-.08-.3-.05-.14q-.06-.15-.19-.21l-.13-.03-3.52-.47c-1.23-.17-2.5-.39-3.73-.7-1.62-.4-3.23-1-4.68-1.9a25 25 0 0 1-5.54-5.07 19 19 0 0 1-3.05-4.95c-.14-.4-.32-.8-.43-1.22-.43-1.57-.17-2.14.32-2.53q.18-.16.36-.25c.42-.19.83.4 1.24 1.36a22 22 0 0 0 5.03 7.85c.84.84 1.78 1.65 2.73 2.33q1.38.97 3.07 1.54l-.02.06zm-70.92-4.97a8.6 8.6 0 0 0-.53 4.12c.06.53.21 1.04.34 1.58.33 1.74 1.55 3.45 2.8 5 .58.69 1.28 1.26 1.96 1.8.44.36.93.61 1.38.94.45.28.9.68 1.45.86.33.15.31.17-.02.3-.17.06-.43.17-.75.24s-.74.18-1.13.1c-.73-.06-1.3-.44-1.91-.74q-.43-.23-.85-.52-.39-.3-.76-.62a12 12 0 0 1-2.5-2.97q-.61-.99-1.21-2.08c-.19-.35-.39-.8-.51-1.18q-.21-.58-.33-1.16c-.4-1.73-.43-3.57.03-5.33a8 8 0 0 1 .7-1.83c.14-.23.31-.5.53-.68.29-.19.59-.39.87-.46.92-.32 1.76-.27 2.55-.23l2.31.19q1.76.13 3.37-.17c.24-.04.46-.12.68-.15.84-.18 1.1-.16 1.48.32q.15.16.26.32c.26.37 0 .88-.76 1.2a10 10 0 0 1-3.46.64c-1.16.03-2.28-.06-3.34-.1q-.87-.05-1.58 0c-.25.02-.42.06-.6.09l-.17.06h-.04l-.03.06-.2.42-.05-.02z"/>
  <path fill="#12111f" d="M171.28 203.42a28 28 0 0 0 8.47 5.08 31 31 0 0 0 9.78 1.92c1.23.1 2.44-.01 3.66-.07 1.2-.17 2.4-.28 3.58-.57 1.06-.17 2.06-.55 3.09-.84.98-.4 2-.76 2.92-1.28 1.9-.98 3.69-2.18 5.28-3.65a30 30 0 0 0 4.33-4.82 42 42 0 0 0 5.57-11.05 64 64 0 0 0 2.79-13.03q.48-3.72.74-7.49c.16-1.57.08-1.37.47-.06a23 23 0 0 1 .95 6.82 54 54 0 0 1-3.16 15.5c-1.82 4.97-4.42 9.79-8.13 13.76a30 30 0 0 1-7.8 6.01 27 27 0 0 1-9.5 2.92c-3.62.43-7.25.16-10.78-.57a30 30 0 0 1-10.01-4 32 32 0 0 1-9.44-9.22 38.4 38.4 0 0 1-6.35-18.68 47 47 0 0 1 1.22-15.12 37 37 0 0 1 .97-3.22c1.51-3.95 2.53-5.01 3.48-5.44.23-.1.49-.24.66-.26.62-.03-.12 1.43-1.18 4.12a45 45 0 0 0-2.87 12.86 41 41 0 0 0 1.08 13.4c1.66 6.48 5.13 12.6 10.21 16.93zm32.5-47.58a11 11 0 0 1-3.56-1.33 10 10 0 0 1-1.16-.73 10.3 10.3 0 0 1-3.28-4.72q-.18-.5-.28-1.01c-.19-.87-.3-1.86.35-2.63.17-.23.2-.18.38.08l.38.49c.15.19.31.38.36.58.2 1.41.78 2.63 1.52 3.96a6.4 6.4 0 0 0 2.04 1.88 9 9 0 0 0 4.76 1.54c1 .05 2.03-.01 3-.28a8 8 0 0 0 2.05-1l.4-.28c.51-.32.73-.32 1.17.1l.3.27c.3.33.28.79-.12 1.18a8 8 0 0 1-4.54 1.98q-1.89.24-3.77-.04z"/>
  <path fill="#12111f" d="M242.51 160.2c1.32-1.48 2.54-3 3.52-4.63a12 12 0 0 0 1.86-5.04 6 6 0 0 0-1.56-4.63 12 12 0 0 0-4.59-2.96c-2.6-1.03-5.48-1.53-8.36-1.97l-4.8-.67-.82-.12-.4-.07-.1-.01.02-.1.07-.2.54-1.55.52-1.47.06-.18.03-.1.06-.23.13-.45c.63-2.39.9-4.9.6-7.34a13 13 0 0 0-2.69-6.68 13 13 0 0 0-2.65-2.48 16 16 0 0 0-3.29-1.66 19 19 0 0 0-6.56-1.05c-2.24 0-4.48.38-6.6 1.02-2.75.82-5.36 2.1-7.6 3.83l-.84.66-.79.7a17 17 0 0 0-2.2 2.32q-.33.41-.63.85c-.18.31-.43.57-.61.88-.2.3-.35.62-.6.91q-.7 1.16-.73 1.1c-.04-.05.09-.48.17-1.3.14-.78.33-1.98.97-3.27a15 15 0 0 1 1.93-3.07l.96-.94a25.3 25.3 0 0 1 17.86-6.09c3.23.16 6.51 1 9.35 2.8a14.2 14.2 0 0 1 6.06 7.77 21 21 0 0 1 .16 11.65l-.2.7-.06.24-.05.15c-.07.24-.12.37-.17.5 0 .04-.05.1-.02.1l.11.01.23.03.72.09q2.8.33 5.63.88c2.05.43 4.1.99 6.1 1.86a13 13 0 0 1 5.32 3.92q1.05 1.41 1.49 3.13c.28 1.13.3 2.32.15 3.44a16 16 0 0 1-2.44 6.03 32 32 0 0 1-2.3 3.16q-.6.74-1.25 1.47l-.63.71-.54.59q-.16.16-.3.35c-.04.06-.12.13-.09.2l.14.19.34.32.62.55q1.42 1.24 2.84 2.56c.7.68 1.4 1.38 2.03 2.21a5.6 5.6 0 0 1 1.17 3.09 7 7 0 0 1-.7 3.14c-.45.95-1.05 1.8-1.7 2.56a18 18 0 0 1-4.7 3.67q-1.26.72-2.45 1.43a5 5 0 0 0-.8.57q-.15.13-.26.3c-.01.07-.08.13-.04.2l.11.16 1.06 1.38q.68.88 1.31 1.83.65.94 1.14 2.05.24.56.38 1.23.1.71 0 1.35a8 8 0 0 1-2.31 4.32 10 10 0 0 1-4.09 2.49q-1.92.7-3.92.98c-2.5.33-4.12.25-5.24.14a5 5 0 0 1-2.27-.73c-.24-.16-.54-.33-.67-.49-.45-.57 1.55-.87 4.96-1.12 2.52-.2 5-.62 7.22-1.6a7 7 0 0 0 2.61-1.96 4.7 4.7 0 0 0 1.23-2.65c.1-.53-.54-1.7-1.23-2.7q-.54-.78-1.16-1.55l-.63-.78-.57-.73q-.32-.4-.53-.84c-.17-.28-.14-.56-.15-.82v-.18s-.12-.02-.06-.02v-.01l.06-.22q.04-.23.13-.43l.19-.4.28-.38c.16-.27.46-.47.69-.7q.18-.18.39-.32l.4-.29.5-.3.93-.55c1.22-.69 2.37-1.32 3.4-2.04.76-.54 1.42-1.09 2.03-1.75a9 9 0 0 0 1.48-2.1c.37-.73.55-1.46.5-2.1 0-.3-.1-.61-.21-.9a5 5 0 0 0-.63-.92c-1.15-1.37-2.72-2.68-4.27-4.02l-.59-.5c-.26-.24-.72-.63-1.03-.97-.34-.35-.64-.73-.69-1.13l-.06-.3-.04-.16.02-.16q.06-.3.16-.6c.13-.4.45-.79.77-1.16l.48-.56.26-.29 1-1.12.06.03zM137.7 176.8l-.05-.04-.03-.02-.34-.18q-.7-.37-1.37-.78-1.35-.8-2.62-1.76a20 20 0 0 1-4.45-4.6 11.7 11.7 0 0 1-.75-12.62 19 19 0 0 1 5.51-5.92 33 33 0 0 1 6.1-3.5c2.72-1.2 5.64-2.25 8.71-2.02.96.16.79.23.04.54-.74.37-2 1.03-3.52 1.6l-1 .38-1.02.38q-1 .38-1.97.84a39 39 0 0 0-3.8 2.01 22 22 0 0 0-6.38 5.44 10 10 0 0 0-1.93 4.53q-.16 1.24 0 2.5.11.62.25 1.23c.07.4.26.79.39 1.19a13 13 0 0 0 3.17 4.63 24 24 0 0 0 4.69 3.49l.8.44.4.21.26.14.31.17c.2.12.43.22.59.34.14.14.39.22.4.42l-.01.59c0 .2-.11.43-.18.65l-.2.61-.15.43a20 20 0 0 0-.6 2.62c-.26 1.77-.2 3.6.44 5.22a8 8 0 0 0 3.34 3.88c2.37 1.43 5.18 1.9 7.92 1.9q.9-.02 1.8-.11c1.1-.11 1.81-.22 2.31-.25q.37 0 .64.06.28.06.5.17c.15.07.35.11.48.18.22.13.18.38-.22.78-.38.34-1.08.75-2 .94-1.35.33-2.73.45-4.13.45q-2.11 0-4.25-.53a15 15 0 0 1-4.14-1.67c-.65-.43-1.29-.86-1.87-1.41a9.7 9.7 0 0 1-2.97-5.12 13 13 0 0 1-.23-3.45 17 17 0 0 1 1.03-4.84l.02-.07.01-.03v-.03l.07-.03zm-3.32 68.74q-.9.98-1.78 2.03c-.22.25-.38.54-.6.8q-1.16 1.31-2.22 2.73c-.32.42-.57.88-.86 1.31l-.52.85q-.25.44-.75.72c-.21.12-.21.09-.29-.16l-.15-.5q-.05-.17-.06-.33.01-.15.07-.28.73-1.95 2.05-3.59c.53-.65.9-1.43 1.38-2.14.51-.78 1.11-1.5 1.7-2.23l1.12-1.32c.57-.68 1.19-1.3 1.74-1.98.43-.52.77-1.1 1.18-1.66q.13-.19.27-.35c.39-.41.62-.42 1.1-.06l.33.25c.34.3.44.73.26 1.1-.53 1.09-1.35 1.93-2.14 2.83q-.9.97-1.79 2zm55.02 61.57a42 42 0 0 0 5.85-3.27c.87-.61 1.68-1.3 2.33-2.09l.23-.3.11-.15.08-.1.1-.16q.1-.16.1-.38c-.02-.03-.01-.1-.07-.1h-.1l-.3.12-.8.38-2.4 1.21-3.78 1.87-.97.46-1.16.52c-.53.22-1.09.43-1.59.55q-.75.17-1.27.07l-.32-.1-.15-.08-.07-.05-.01-.01c-.01 0 .08-.08.03-.04l-.03-.05a1 1 0 0 1-.14-.57c-.01-.43.25-1.1.58-1.75l.46-.96.35-.68.62-1.2q1.25-2.4 2.36-4.8l.4-.96.15-.34.08-.25c.1-.32.25-.66.19-1a.2.2 0 0 0-.19-.16l-.25.06q-.23.11-.41.3l-.37.35-.52.56c-1.2 1.3-2.28 2.76-3.47 4.12q-.87 1.04-1.77 2.06l-.92 1.01c-.31.33-.7.6-1.03.92q-.65.55-.67.47c-.02-.04.15-.27.39-.7.25-.4.46-1.1.88-1.8q.59-1.12 1.46-2.44c.52-.76 1.02-1.55 1.6-2.28q.84-1.1 1.76-2.2l.47-.54.11-.13.16-.17.43-.45c.6-.6 1.33-1.3 1.94-1.56q.46-.2.85-.23h.38q.18.04.38.11t.4.24l.09.08c.06-.01.06.05.1.06l.15.15c.16.22.27.43.33.71.12.53.06 1.3-.2 2.13q-.18.61-.41 1.25l-.18.44-.15.32q-.58 1.32-1.23 2.56l-1.31 2.48-.67 1.23-.34.6-.16.3-.07.1-.23.37-.11.23q-.03.07.05.07h.11q.18-.02.37-.1l.19-.07.3-.13q1.17-.53 2.33-1.12c1.53-.81 3.07-1.67 4.63-2.47l1-.5.65-.32q.4-.2.83-.37a4 4 0 0 1 1.49-.33q.3 0 .57.12c.2.08.34.32.44.51.44 1.02.12 2.38-.67 3.6-.56.86-1.18 1.55-1.88 2.2-1.41 1.28-3 2.21-4.56 3.09a97 97 0 0 1-8.42 4.01l-3.23 1.35-1.57.71-1.52.78a74 74 0 0 0-5.9 3.64c-2.98 2-5.9 4.1-9.22 5.67-.73.33-1.44.7-2.22.95q-1.04.4-1.83.57-.77.18-1.29.22c-.72.01-1.15-.1-1.51-.33-.17-.1-.37-.2-.48-.32-.34-.4.77-.95 2.7-1.64a41 41 0 0 0 8.38-4.24c2.74-1.74 5.46-3.7 8.41-5.5q1.65-1 3.4-1.87l1.8-.8 1.75-.72q3.46-1.41 6.78-3.02l.03.06zm-53.8 32.31a40 40 0 0 0 10.72 4.26q.88.17 1.75.38c4.13.84 8.42 1.14 12.66.73a37 37 0 0 0 5.59-.97l1.74-.49.86-.28q.43-.16.88-.24c1.18-.27 2.4-.52 3.57-.87.75-.2.65-.17.12.23-.53.38-1.46 1.28-2.7 2.1-4.66 2.27-9.95 3.03-15.11 2.81a59 59 0 0 1-9.43-1 41 41 0 0 1-9.8-3.52 49 49 0 0 1-12.83-9.51 48 48 0 0 1-4.86-5.6q-.5-.65-.9-1.36-.39-.67-.6-1.14a5 5 0 0 1-.26-.87 2 2 0 0 1-.04-.62q.06-.27.14-.5c.05-.13.08-.29.12-.37.1-.25.97.23 1.82 1.37l.97 1.26.5.62q.27.3.5.63.47.64 1 1.25c.35.41.66.85 1.04 1.25a48 48 0 0 0 12.57 10.4zm104.92-41.88-.78.07-.6.04-.71.04c-.94.03-1.84.02-2.54-.12a3 3 0 0 1-1.45-.68 1.4 1.4 0 0 1-.41-.62 1 1 0 0 1-.06-.46l.05-.38c.13-.44.4-.81.9-1.22s1.26-.8 2.07-1.14l1.25-.5.44-.17.37-.13 1.45-.5q1.05-.35 2.06-.75l.98-.4.44-.19q.12-.05.2-.14.02-.12-.07-.23l-.2-.18c-.02-.02 0-.02-.07-.06l-.19-.13-.38-.24a43 43 0 0 0-3.4-1.75l-3.54-1.68a32 32 0 0 1-2.66-1.44 5 5 0 0 1-.54-.38q-.3-.22-.55-.48-.44-.44-.63-.97a1.2 1.2 0 0 1 .14-1.09c.42-.64 1.22-.98 2.08-1.08.49-.05.76-.03 1.09-.01a13 13 0 0 1 2.7.47q2.2.58 4.28 1.44c1.37.6 2.78 1.08 3.9 2.16.33.41.47.57.45.59s-.22-.07-.68 0c-.45.06-1.08.12-1.8.1a8 8 0 0 1-2.23-.57 60 60 0 0 0-4.1-1.48q-1.03-.32-2.01-.5a8 8 0 0 0-1.1-.12h-.03c-.03-.01-.11.01-.1.07q.01.04.05.07l.04.04.2.14.44.28c1.22.73 2.57 1.38 3.93 2.04 1.63.8 3.35 1.5 5.07 2.44a20 20 0 0 1 1.1.7q.25.16.45.36.9.75.93 1.78c-.14 1.3-2.38 1.98-2.94 2.23q-1.46.55-2.91 1.03l-2.17.75q-.3.1-.59.24c-.19.1-.41.2-.53.4-.06.1.02.21.11.26a1 1 0 0 0 .3.1q.3.04.63.05h.41l.5-.04q.93-.08 1.85-.2 1.86-.23 3.7-.53l5.63-.97 1.41-.25.74-.1c.13-.01.34-.03.48 0l.4.06q1.5.31 2.84.86a46 46 0 0 1 9.54 5.13 9 9 0 0 1 1.9 1.87q.24.39.32.68.04.34 0 .62c-.03.17-.05.36-.1.48-.1.2-.38.15-.76-.06a7 7 0 0 1-.66-.43l-.86-.67a44 44 0 0 0-6.5-4.04 44 44 0 0 0-3.56-1.64 17 17 0 0 0-1.78-.6q-.45-.14-.83-.18l-.17-.03-.43.06-6 1.05q-3.05.52-6.16.87l-.02-.05zm46.83 13.06a23 23 0 0 1-5.72 6.19c-.87.61-1.76 1.16-2.7 1.57a27 27 0 0 1-10.38 2.02 24 24 0 0 1-4.68-.4 11 11 0 0 1-2.9-.95q-.7-.34-1.3-.85-.3-.29-.55-.56a4 4 0 0 1-.38-.71c-.22-.65-.22-.5.3-.28.57.2 1.56.28 2.4.7 1.6.69 3.43 1 5.28 1.08a31 31 0 0 0 5.64-.29 20 20 0 0 0 6.55-2.21 17 17 0 0 0 5.54-5.1l.69-.97.62-1.02c.44-.68.78-1.4 1.15-2.12a32 32 0 0 0 2.47-6.87q.58-2.77.5-5.52c-.03-.4-.08-.78-.06-1.18-.06-1.45-.01-1.88.4-2.34.1-.1.17-.23.26-.3q.22-.2.57.18c.21.25.54.7.67 1.31q.4 1.36.43 2.75v1.4l-.11 1.39a29 29 0 0 1-1.15 5.49 32 32 0 0 1-3.5 7.63zm-89.13-69.5q-.84.76-1.96 1.06c-.74.2-1.57.16-2.28-.1q-.8-.27-1.37-.8a4.3 4.3 0 0 1-1.2-2.28 3.6 3.6 0 0 1 .44-2.47c.39-.62.91-1.08 1.48-1.41.72-.46 1.6-.55 2.38-.47.25.04.2.2.02.4a6 6 0 0 1-.78.7q-.81.62-1.18 1.25l-.15.31-.14.28q-.12.27-.16.62c-.06.6.47 1.2.96 1.47q.38.26.84.28.47 0 .95-.26c.38-.23.74-.57.92-.98.31-.61.26-1.35-.25-1.88a2 2 0 0 0-1.47-.52c-.11 0-.2.05-.3.05-.36 0-.47-.12-.79-.66l-.23-.36a.7.7 0 0 1-.08-.63q.12-.34.56-.57a3.5 3.5 0 0 1 2.88.16c.89.45 1.7 1.24 2.1 2.34.3.8.3 1.73.06 2.5a5 5 0 0 1-1.2 2l-.03-.04zm1.73 8.14c-.29.44-.67.84-1.14 1.12-.46.27-1.01.43-1.5.43-.37.01-.73 0-1.07-.11a3 3 0 0 1-1.45-1.04 2.5 2.5 0 0 1-.54-1.64q.04-.75.35-1.36c.24-.53.68-1.02 1.28-1.14.19-.03.22.18.2.43s0 .57-.1.74c-.16.3-.23.64-.21.93s.07.5.13.78c.1.35.58.5.93.54.42.05.78-.04 1.08-.38.17-.2.32-.47.36-.74.05-.43-.03-.86-.37-1.03-.26-.15-.66-.06-.76.09q-.03.05-.02.08c0 .03-.02-.02-.02-.03l-.02-.03q-.02-.04-.06-.06-.16-.13-.55-.3-.2-.1-.37-.16-.3-.12-.45-.4a.8.8 0 0 1 .07-.77c.3-.38.73-.63 1.14-.75q.65-.17 1.26-.06c.8.16 1.56.66 2.03 1.53a3.5 3.5 0 0 1-.15 3.35z"/>
  <path fill="#12111f" d="M334.88 156.42c.25.38 2.16 6.22 1.33 7.77-.82 1.55-10.93.4-11.86 0s-17.76-5.68-17.76-5.68-5.21-.74-3.68-3.82 7.82-10.93 9.17-10 4.82 7.11 6.75 6.35 5.53-1.9 5.53-1.9.08 5.86 1.8 5.56c1.74-.31 4.92-1.98 5.73-1.4.8.59 3 3.12 3 3.12z" opacity=".35"/>
  <path fill="#12111f" d="M305.66 149.74a39 39 0 0 1 2.66-2.99c.34-.35.66-.72 1.05-1.05a8 8 0 0 1 1.32-.92q.1-.06.23-.1.25-.1.5-.14c.17-.02.35.04.51.05l.49.17c.52.29.82.59 1.16.9q.46.49.88.99.7.9 1.36 1.82a7 7 0 0 1 1.34 2.56c.09.29.02.28-.23.14l-.52-.28a3 3 0 0 1-.65-.43 9 9 0 0 1-.97-1.04l-.93-1.05c-.65-.65-1.2-1.4-1.8-1.95-.08-.1-.17-.14-.24-.2l-.13-.07q-.07-.02-.13 0l-.19.1c-.4.27-.82.65-1.23 1.04a32 32 0 0 0-4.09 4.66c-.68.98-1.38 2-1.77 3.04q-.1.31-.13.58a.7.7 0 0 0 .1.42c.15.29.44.59.74.86l.43.35c.54.43.63.69.57 1.08l-.05.27c-.07.27-.5.33-1.08.08-.8-.46-1.62-.92-2.17-2.17a2.3 2.3 0 0 1-.13-1.14q.07-.48.2-.84.26-.73.6-1.36a26 26 0 0 1 2.26-3.4zm21.9 3.53q1.01-.23 1.97-.38c.23-.03.44-.13.67-.16l.28-.04.13-.02h.04v.03l.02.1a2 2 0 0 0 .32.58l-.48-.61h.03l.07-.06.16-.07q.15-.09.31-.1.34-.06.6 0c.7.16 1.03.52 1.34.87q.4.45.74.88.47.54.76 1.2c.05.14-.07.22-.27.22-.2.01-.53-.01-.76-.16q-.58-.39-1.14-.73c-.33-.24-.68-.41-.8-.6-.06-.1-.07-.02-.07-.14V154c0-.02-.03-.07-.02-.03l.02.03.02.02.04.05-.02.01-.05.03-.2.1-.08.03-.14.05-.22.06q-.23.07-.43.11-.94.18-1.83.39a7 7 0 0 0-1.03.32l-.3.15c-.08.05-.2.14-.27.22q-.26.23-.35.55c-.1.34 0 .77.03 1.2v.28q-.03.27-.16.38-.18.12-.43.17-.1.04-.21.05a.6.6 0 0 1-.34-.08c-.13-.06-.3-.17-.35-.31q-.15-.3-.28-.66a4 4 0 0 1-.07-.73 3 3 0 0 1 .56-1.77c.31-.41.58-.7 1.08-.98.42-.22.75-.33 1.1-.44l.01.05z"/>
  <path fill="#12111f" d="M334.31 144.68c.6.22 1.03.89 1.4 1.5l.19.34.14.29.27.56q.5 1.13.94 2.25c.21.54.5 1.06.67 1.62.66 1.95 1.23 3.92 1.8 5.89l.76 2.6c.15.56.36 1.11.44 1.7q.07.42.12.87c.03.3-.02.6-.03.9-.05.39-.13.35-.41.1l-.59-.5q-.33-.33-.55-.77a12 12 0 0 1-.67-1.6l-.61-1.62q-.54-1.66-.95-3.36c-.34-1.37-.97-2.7-1.5-4.01l-.86-2.19q-.23-.55-.47-1.06l-.25-.52-.2-.4-.18-.3c-.06-.1-.17-.22-.28-.15q-.16.07-.32.17l-.15.09-.27.19a41 41 0 0 0-3.42 2.75c-.84.77-1.58 1.63-2.34 2.45q-.24.29-.5.55c-.65.66-.94.76-1.47.51l-.35-.17c-.35-.22-.33-.75.08-1.32a28 28 0 0 1 4.42-4.59 45 45 0 0 1 1.9-1.54c.36-.27.52-.42 1.3-.94.66-.42 1.31-.65 1.95-.35zm-18.01 2.95q.75 1.18 1.43 2.34l.08.13.04.04s.04.07.07.06q.03.03.07.04.06.04.09.03c.03.02.19 0 .29 0q.36-.03.76-.13.79-.2 1.61-.52.73-.28 1.41-.65l.93-.4.24-.09.27-.03h.55c.24.01.22.14.12.39l-.2.46-.14.27-.09.14-.1.08-.83.52q-.44.24-.9.45-.9.45-1.96.74c-.42.1-.84.26-1.32.38l-.37.08c-.12.01-.37.04-.53.04a3 3 0 0 1-.98-.29c-.58-.63-.72-.91-1-1.32l-.73-1.16q-.44-.7-.93-1.4-.7-1.07-1.51-2.02a10 10 0 0 0-1.44-1.25l-.33-.22-.21-.2c-.05-.09-.04-.17-.05-.25q0-.24.1-.54l.09-.28a.5.5 0 0 1 .33-.29c.15-.04.44-.1.68-.03a9 9 0 0 1 2.87 2.56q.85 1.12 1.63 2.27l-.04.03z"/>
  <path fill="#12111f" d="m329.52 151.96 1.14-.5q.45-.2.87-.24c.14-.02.27.06.4.06q.18.06.35.2c.31.26.61.67.85 1.02l1.33 2.42q.3.54.62 1.05.2.33.37.68c.1.25.14.53.2.8.04.16.02.15-.12.07s-.47-.15-.77-.3l-.62-.5-.52-.58a7 7 0 0 1-.87-1.28 4 4 0 0 0-.54-.77l-.32-.36-.14-.16q-.01-.04-.04-.06l-.1-.17-.07-.1h-.1c-.13.04-.2.05-.6.23l-1.2.54-1.88.79c-.48.21-.94.5-1.47.7l-.36.12c-.48.07-.66-.08-.76-.54l-.07-.33a.9.9 0 0 1 .34-.83c.67-.49 1.42-.77 2.22-1.15q.9-.4 1.83-.85z"/>
  <path fill="#12111f" d="M316.15 179a35 35 0 0 1-12.3-6.3 29 29 0 0 1-8.55-10.86 27 27 0 0 1-1.63-4.82c-.23-.82-.32-1.67-.48-2.5q-.08-.65-.11-1.28-.07-.63-.07-1.27c-.06-3 .37-5.99 1.24-8.83a31 31 0 0 1 3.7-8.05 32.5 32.5 0 0 1 20.67-13.9c2.58-.48 5.21-.68 7.82-.42 3.31.3 6.62 1.1 9.69 2.49 1.52.7 3 1.55 4.35 2.55l.99.8.92.86q.88.91 1.65 1.91c.58.88.75 1.3.63 1.36-.13.06-.56-.25-1.29-.74-.75-.47-1.73-1.17-2.99-1.85a70 70 0 0 0-4.23-2.3 30 30 0 0 0-9-2.73c-3.13-.41-6.3-.28-9.4.44a31 31 0 0 0-16.12 9.84 25 25 0 0 0-3.29 4.8 29 29 0 0 0-3.26 11.36 24 24 0 0 0 .33 5.9 25 25 0 0 0 5.53 11.65 30 30 0 0 0 10.41 7.9 35 35 0 0 0 15.8 3.33c2.04-.04 4.05-.42 6.03-.96a27 27 0 0 0 5.6-2.44 29 29 0 0 0 4.85-3.73 29 29 0 0 0 3.88-4.7 27.5 27.5 0 0 0 4.43-17.76 38 38 0 0 0-.65-4c-.55-2.49-1.12-4.08-1.44-5.23-.29-1.16-.4-1.87-.41-2.5 0-.28-.06-.63-.03-.81.04-.31.36-.02.97.77q.44.6 1.04 1.58.56 1 1.1 2.4a30 30 0 0 1 2.01 8.8q.14 2.32-.1 4.66-.26 2.34-.86 4.63a30 30 0 0 1-3.9 8.64 30 30 0 0 1-6.48 7.02 27 27 0 0 1-6.15 3.65c-1.09.5-2.24.84-3.37 1.2-1.17.27-2.33.57-3.53.69l-.89.12-.9.05q-.9.05-1.79.06l-1.75-.05-1.75-.13a40 40 0 0 1-6.9-1.27v-.05z"/>
  <path fill="#12111f" d="M302.16 153.34a23 23 0 0 1 1.76-2.83 56 56 0 0 1 6.25-7.26q1.6-1.67 3.34-3.23 1.55-1.34 3.18-2.6.83-.61 1.68-1.2l1.16-.72q.18-.13.35-.18c.1-.03.24-.11.33-.11q.15-.04.32-.03t.34.12c.39.23.68.69.92 1.18l.16.37.11.28.19.5q.34.97.62 1.96.56 1.96 1.02 3.94.82 3.52 1.55 7.02l.45 2.25q.19 1.13.35 2.27c.22 1.53.35 3.06.3 4.6-.18.98-.14.84-.53.07q-.3-.58-.7-1.57-.44-1-.73-2.27l-.53-2.25c-.18-.75-.3-1.51-.46-2.27q-.46-2.25-.96-4.52c-.7-2.99-1.28-6.07-2.21-8.92l-.11-.3-.02-.09-.08-.19c-.07-.18-.24-.03-.34.02l-.4.24-.58.4q-.58.39-1.14.82c-1.5 1.14-2.88 2.45-4.26 3.75a74 74 0 0 0-8.22 9.36c-.37.55-.76 1.1-1.08 1.69a7 7 0 0 0-.75 1.65.6.6 0 0 0 .1.43q.15.26.44.54.61.54 1.37.96a32 32 0 0 0 5.32 2.26q2.77.95 5.6 1.69c2.91.78 5.83 1.36 8.76 1.97l1.93.4c2.4.53 3.16.84 3.55 1.44.09.14.22.29.26.41.12.43-.9.46-2.69.16a132 132 0 0 1-16.3-3.83 53 53 0 0 1-5.41-1.96c-.9-.4-1.8-.8-2.7-1.37a6 6 0 0 1-1.34-1.08 3 3 0 0 1-.65-.95c-.18-.42-.25-.9-.19-1.34.09-.36.17-.65.27-.96l.34-.74.04.02zm-150.12-34.18c3.57-2.29 7.5-3.4 11.47-3.83.72-.08 1.45-.1 2.17-.16l1.09-.08 1.08.03a40 40 0 0 1 14.73 3.36l1.54.7c.5.23.99.52 1.49.77l1.47.8 1.41.91.9.58.86.66.84.68q.44.32.8.72c.5.53 1.03 1.03 1.48 1.59q.32.44.59.92l.49.98c.37.82.3.7-.39.31-.34-.2-.9-.4-1.44-.74l-.42-.26q-.25-.1-.48-.25-.46-.3-.88-.66a36 36 0 0 0-6.78-4.46 47 47 0 0 0-7.66-3.1c-3.2-.99-6.71-1.3-10.1-1.2-3.74.09-7.5.8-10.82 2.44q-.77.38-1.52.78-.7.43-1.36.97c-.85.72-1.7 1.56-2.41 2.43a15.7 15.7 0 0 0-3.69 9.47c-.1 2.68.42 5.32 1.4 7.75q.31.8.72 1.56c.44.97.82 1.55.97 2.05.2.46.2.81.1 1.18-.06.17-.08.38-.15.5q-.18.34-.77-.03c-.4-.24-.9-.73-1.39-1.47a18 18 0 0 1-2.87-7.45c-.45-2.7-.37-5.56.38-8.3.53-2.03 1.43-4 2.68-5.75l1.02-1.24c.33-.4.67-.74 1.03-1.12a19 19 0 0 1 2.39-2.1zm16.89 37.43c-1 .58-2.12 1-3.28 1.23-.42.08-.84.2-1.28.2a8 8 0 0 1-2.26-.27 8 8 0 0 1-2.01-.98q-.81-.54-1.52-1.16c-.27-.3-.57-.57-.8-.91-.27-.3-.31-.75-.44-1.13-.06-.25.05-.28.35-.24q.3.04.57.1l.35.05.18.03q.07.04.12.09.42.33.83.61c.28.18.51.41.78.58q.78.54 1.65.94c.71.35 1.57.3 2.37.2q1.36-.16 2.65-.82a9 9 0 0 0 1.49-.96 8 8 0 0 0 1.83-1.98c.37-.6.54-1.28.69-1.93l.07-.43c.13-.52.33-.63.94-.63h.41c.46.03.78.37.81.9a7 7 0 0 1-1.78 4.27c-.75.91-1.68 1.67-2.68 2.3l-.03-.05z"/>
  <path fill="#12111f" d="M189.09 154.62c-1.53.7-3.16 1.19-4.8 1.38-.6.07-1.21.2-1.83.18a15 15 0 0 1-6.13-1.47q-1.26-.62-2.37-1.53c-.89-.79-1.67-1.91-1.64-3.16.03-.37.03-.31.29-.08l.51.43q.2.1.37.22.15.16.3.28.55.51 1.18.87.3.22.61.4t.65.35c.9.4 1.84.84 2.86 1.18a9.5 9.5 0 0 0 3.86.32q2.16-.18 4.22-.98a17 17 0 0 0 5.64-3.89c.73-.8 1.31-1.7 1.89-2.62l.37-.6c.51-.73.82-.85 1.43-.65q.22.06.42.14c.43.2.53.74.26 1.38a16 16 0 0 1-3.9 5.08 18 18 0 0 1-4.15 2.82zm25.01 123.97-.88.3q-.46.13-.91.23c-.6.18-1.21.26-1.83.37q-.66.15-1.34.2-2.41.17-4.74-.4-.52-.1-1.03-.26c-.33-.1-.69-.16-1.01-.27q-.65-.22-1.26-.49c-.2-.12-.4-.2-.56-.38l-.45-.55c-.16-.26-.1-.27.21-.36l.64-.18c.12-.03.27-.1.39-.1a1 1 0 0 1 .32.07c.38.13.78.21 1.14.38.37.16.77.22 1.15.35.38.14.78.19 1.18.28q.6.15 1.21.24.37.06.75.09.4 0 .77-.03c.51-.01 1.02-.12 1.54-.16.56-.04 1.1-.2 1.67-.28q.83-.2 1.65-.45c.67-.23 1.34-.46 1.97-.78q1.47-.68 2.74-1.65a11 11 0 0 0 1.94-2.22c.38-.53.6-.62 1.11-.42q.18.05.32.12c.31.14.46.6.19 1.09a10 10 0 0 1-3.47 3.6q-1.61 1.04-3.4 1.7z"/>
  <path fill="#12111f" d="M236.66 255.95q4.2-3.32 8.52-6.5c1.04-.77 2.05-1.6 3.11-2.34q2.8-2 5.64-3.94l5.71-3.82a279 279 0 0 0 5.02-3.44c2.13-1.48 4.24-3 6.62-4.09.83-.2.73-.15.37.54a9 9 0 0 1-2.32 2.69q-.78.62-1.58 1.19l-1.63 1.12-3.25 2.23q-3.26 2.23-6.6 4.42c-2.66 1.72-5.26 3.77-7.87 5.7q-4.29 3.2-8.5 6.52l-2.57 2.06-2.53 2.1q-1.91 1.6-3.8 3.25-1.87 1.64-3.69 3.34-1.37 1.35-2.69 2.71l-2.58 2.79-1.11 1.23c-1.49 1.47-2.09 1.8-2.85 1.7l-.44-.02c-.3-.01-.18-1.08.8-2.28q1.02-1.4 2.23-2.69 1.19-1.3 2.45-2.58 1.27-1.26 2.58-2.51 1.33-1.24 2.67-2.45 2.02-1.8 4.09-3.54 2.07-1.73 4.18-3.44zm-109.62 31.78q2.02 4.56 4.18 9.06c.53 1.1 1.11 2.16 1.65 3.24.93 1.92 1.88 3.86 2.86 5.7l.18.34q.08.1.13.21l.06.11.1.07c.07.04.1.1.21.15q.6.33 1.32.58 1.47.51 3.01.89 2.76.66 5.57 1.06l3.58.51c.6.1 1.2.17 1.8.31l.88.23q.22.06.44.17c.14.08.29.09.43.21q.51.35.49.39c-.02.04-.2.04-.55.2-.34.16-.83.43-1.41.55-.29.07-.6.16-.93.18q-.48.02-1.01-.03a66 66 0 0 1-11.1-2.13q-.93-.27-1.86-.62-.48-.19-.94-.4l-.5-.26-.23-.13-.28-.2-.32-.27q-.14-.16-.25-.32a6 6 0 0 1-.39-.62l-.56-1.03-1.08-2.04a158 158 0 0 1-2.12-4.1 388 388 0 0 1-6.85-14.82c-1.29-2.86-2.48-5.78-3.72-8.64q-.71-1.68-1.45-3.31c-.46-1.12-.97-2.2-1.4-3.32l-.59-1.48a6 6 0 0 1-.48-2.07c-.02-.48.1-.79.27-1.05.08-.12.15-.27.23-.34.23-.25.88.4 1.45 1.7 1.59 3.88 3.34 8 5.13 12.12q2 4.6 4.1 9.18l-.04.03zm62.14 25.21q1.97.15 3.96.19c.48.01.96-.04 1.44-.02l5.12.1q1.14 0 2.26-.07c.97-.06 1.95.06 2.92.16.3.04.27.1.02.25-.24.13-.7.45-1.23.65q-1.45.56-2.93.65-1.48.14-3 .08c-1.2-.08-2.43.07-3.65.1q-2.03.01-4.04-.04l-2.49-.1c-1.26-.06-2.51-.18-3.76-.25-.97-.06-1.94 0-2.93-.07-.22-.02-.43 0-.65-.03-.8-.14-1.03-.34-1.08-.88l-.03-.37c.02-.4.41-.67.97-.7 1.66-.05 3.38.05 5.14.13l3.96.17z"/>
  <path fill="#12111f" d="m236.62 262.95 12.84-6.44 4.66-2.4 16.55-8.2q3.67-1.84 7.26-3.79l2.3-1.24 2.34-1.2a29 29 0 0 1 4.82-2.05c1.06-.32.88-.34.19.3-.35.3-.8.87-1.4 1.4-.3.27-.62.6-1 .87q-.54.4-1.2.8l-2.3 1.36q-1.16.67-2.34 1.28l-4.72 2.49a354 354 0 0 1-9.6 4.78c-3.87 1.86-7.8 3.98-11.7 5.97l-12.93 6.52-7.94 4.03-6 3.08-2.99 1.55-1.47.8-.73.4q-.21.11-.4.24c-.05.33.01 1.39.05 2.2l.15 2.57q.17 2.57.22 5.16.04 1.13.03 2.27c-.05 2.86-.35 3.78-.95 4.33-.12.13-.24.3-.33.36q-.22.14-.4-.64-.2-.79-.22-2.33c-.09-3.02-.36-6.14-.49-9.32l-.1-2.4-.05-1.23v-.76q.05-.57.17-1.12c.02-.2.18-.3.31-.43q.21-.19.46-.35l.48-.34.3-.17 1.08-.59 2.15-1.15c4.27-2.26 8.6-4.45 12.9-6.66l.02.04zm8.5 41.05-5.25 2.19c-.63.27-1.25.58-1.9.82q-3.4 1.36-6.89 2.5c-1.03.32-2.05.7-3.09 1.03-1.31.4-2.7.74-4.13.68-.44 0-.38-.05-.04-.24s.92-.59 1.62-.96q.97-.37 1.9-.78c.65-.28 1.3-.47 1.94-.74 1.3-.49 2.59-1.01 3.91-1.45 1.6-.53 3.17-1.32 4.75-2l5.2-2.32 3.18-1.45q2.42-1.1 4.78-2.3c1.21-.63 2.34-1.38 3.52-2.04l.78-.43c1-.49 1.4-.5 1.82-.18q.16.1.28.23c.25.27-.02.76-.68 1.25-1.94 1.49-4.22 2.63-6.51 3.78q-2.56 1.26-5.18 2.45l-.02-.04zm44.41-44.45-1.62 8.56c-.2 1.03-.33 2.1-.54 3.13a163 163 0 0 1-1.21 5.5l-.35 1.38c-.15.49-.2.86-.49 1.53l-.1.22-.1.16-.23.3q-.21.33-.47.6-.5.59-1.07 1.08a19 19 0 0 1-4.4 2.71c-1.96.9-3.83 1.83-5.98 2.16-.7.07-.57.13-.17-.33q.3-.36.8-1.02.54-.6 1.35-1.08c1.93-.98 3.87-1.82 5.5-2.94.8-.54 1.57-1.11 2.2-1.8q.24-.25.45-.53l.21-.27.05-.07.03-.04.02-.01v-.02l.69.42-.04-.03-.64-.4v-.03l.02-.04q.02-.09.07-.16l.11-.37.23-.74c.68-2.46 1.01-5.16 1.5-7.76l1.62-8.6.96-5.31c.48-2.68.98-5.37 1.39-8.05.33-2.07.48-4.14.78-6.2q.08-.68.2-1.35c.14-.85.3-1.4.5-1.76s.4-.56.68-.7c.12-.06.24-.15.36-.18.37-.1.58.65.6 1.92-.1 3.74-.75 7.6-1.36 11.47q-.72 4.32-1.47 8.66h-.06zm-115.99 10.09q-5.31-1.65-10.69-3.17l-3.94-1.03c-4.6-1.32-9.2-2.62-13.84-3.78q-3.1-.75-6.2-1.4a64 64 0 0 1-7.9-1.95c-.82-.24-.7-.21.02-.29q.57-.06 1.54-.2.48-.09 1.03-.13.56-.02 1.15.01c5.58.5 10.96 1.9 16.36 3.38 3.21.93 6.62 1.6 9.93 2.5q5.44 1.46 10.86 3.06l6.65 2c3.35 1.03 6.7 2.14 10 3.22 2.59.85 5.14 1.61 7.67 2.6q.84.31 1.67.68c1.04.47 1.64.98 2.04 1.38.4.38.52.8.52 1.17 0 .17.03.34 0 .45-.04.2-.3.2-.7.14s-.96-.26-1.68-.51c-2.12-.81-4.39-1.63-6.71-2.4l-7.08-2.34a432 432 0 0 0-10.72-3.34zm38.3 5.49q-1.11.36-2.28.53c-.29.04-.57.12-.85.13a9 9 0 0 1-2.96-.48 9 9 0 0 1-1.22-.45c-.5-.23-1.03-.46-1.3-1-.1-.15-.03-.2.17-.25l.4-.1q.25-.08.44-.02.68.2 1.36.27l1.36.27c.56.1 1.16-.07 1.73-.13a10 10 0 0 0 3.07-.91c.57-.28 1.15-.56 1.68-.94.4-.29.72-.69 1.07-1.06q.1-.12.24-.23c.32-.25.51-.21.9.15l.26.25c.28.3.34.67.18.97a6 6 0 0 1-2.13 2.06q-.97.58-2.1.98z"/>
  <path fill="#12111f" d="M182.37 273.68c4.12.56 8.25 1.1 12.38 1.75a97 97 0 0 1 4.7.85l.44.1.66.21q.33.12.62.29l.22.24.05.06.02.04s.1-.07.05-.02v.01l.07.14q.27.56.46 1.15l.24.8.44 1.5.87 3.01c.84 2.92 1.73 5.82 2.55 8.75l2.7 9.75q.66 2.44 1.39 4.86l.72 2.41.38 1.19.09.3.04.12.1.06.22.1q.22.1.46.17.48.16 1 .25 1.05.18 2.13.13c.7-.01 1.43-.1 2.08-.28.32-.1.64-.2.89-.38q.2-.12.33-.25.1-.09.18-.21l.03-.13c0-.06.02-.08.02-.19l.04-.57.04-1.2c.12-4.72.06-9.5.1-14.2.04-6.05-.14-12.15.66-18.18.35-1.88.34-1.62.62-.01.3 1.6.82 4.55.87 8.02l.09 13.38q.01 3.36-.04 6.72l-.06 3.38-.05 1.7-.04.88c-.03.17 0 .25-.06.53l-.18.76c-.21.3-.38.65-.66.88q-.33.32-.67.53a8.4 8.4 0 0 1-3.99 1.28q-1.33.1-2.67-.1a10 10 0 0 1-2.01-.51c-.32-.1-.64-.28-.95-.43l-.3-.24-.07-.05V313l.05-.05-.02-.02-.03-.04-.12-.14q-.12-.14-.2-.32l-.15-.37c-.16-.45-.18-.6-.25-.85l-.2-.69-.36-1.37-.73-2.74q-.74-2.74-1.55-5.5l-3.18-11.03-1.72-6.03-.88-3.02-.44-1.48c-.1-.24-.11-.6-.34-.58l-.15-.05-.3-.07-.74-.16q-.76-.16-1.51-.28-1.54-.26-3.09-.5-3.1-.46-6.2-.88l-15.34-2.03c-7.75-1.02-15.52-2.1-23.2-3.2-5.97-.86-11.84-1.62-17.74-2.66q-1.94-.32-3.87-.7c-4.84-1-6.3-1.71-7.14-2.62-.2-.21-.45-.44-.54-.62-.16-.3.28-.4 1.18-.34s2.27.24 4.01.59c5.19 1 10.56 1.85 16.03 2.68q8.22 1.24 16.6 2.38 12.43 1.7 24.94 3.3v.06z"/>
  <path fill="#12111f" d="M173.68 291.18a38 38 0 0 0 1.64-4.66q.16-.58.26-1.14l.06-.33.01-.1c.03-.11-.04-.32-.2-.26l-.18.11-.1.1-.34.44q-.74.96-1.46 2.01a73 73 0 0 1-3.08 4.2c-1.6 2-3.46 3.92-5.75 5.3a14 14 0 0 1-4.06 1.63q-.37.09-.73.13c-.28.02-.59.06-.86.03a8 8 0 0 1-2.97-.89c-.87-.44-1.64-.95-2.4-1.47-1.5-1.05-2.88-2.17-4.35-3.04a9 9 0 0 0-2.2-1c-.7-.22-1.42-.1-1.66.06-.17.07-.3.23-.3.41q.01.26.16.53c.32.59.82 1.2 1.33 1.78 1.24 1.41 2.7 2.69 4.07 4.19a42 42 0 0 1 3.68 4.64q.8 1.18 1.5 2.48.34.65.57 1.43c.15.48.28 1.38-.16 1.98-.24.27-.32.4-.47.57l-.42.46q-.42.45-.87.85-.9.82-1.87 1.53-1 .7-2.09 1.23c-.72.37-1.57.56-2.42.56q-.31 0-.55-.07c-.16-.02-.27-.1-.36-.13q-.26-.14-.22-.16c.04-.04.43.15 1.05-.06 1.22-.47 2.83-2.2 4.74-4.08a15 15 0 0 0 1.26-1.44l.18-.24.07-.11h-.01q.01 0 0 0l-.07-.24c-.1-.28-.28-.64-.48-.98q-.6-1.08-1.38-2.15t-1.62-2.1a45 45 0 0 0-3.5-3.98q-.97-.97-1.96-2.02c-.65-.72-1.3-1.45-1.9-2.4l-.22-.37q-.16-.28-.27-.58-.25-.6-.26-1.23a2.4 2.4 0 0 1 1.1-2.08q.56-.32 1.16-.53l.32-.07.26-.05.5-.04c.66 0 1.26.13 1.8.3 1.07.37 1.96.9 2.77 1.45 1.32.91 2.53 1.88 3.8 2.74 1.23.86 2.52 1.7 3.8 2.07.3.08.62.16.9.16q.22 0 .43-.02l.5-.08a10 10 0 0 0 2.02-.66c1.31-.6 2.54-1.43 3.66-2.4 2.48-2.13 4.36-4.94 6.31-7.78q.73-1.06 1.58-2.14c.85-1.04 1.93-1.96 3.08-1.6 1.18.4 1.48 1.73 1.34 3.06q-.02.25-.06.49l-.06.34-.15.67q-.15.66-.36 1.3a63 63 0 0 1-2.32 6q-.63 1.46-1.3 2.9l-.77 1.62-.26.58-.12.3c-.04.1-.1.25.05.25.41-.04.74-.35 1.07-.59q.5-.4.98-.83l.75-.7.87-.82c2.31-2.2 4.55-4.48 6.94-6.63q.7-.63 1.43-1.23c.2-.16.62-.49.98-.7q.55-.38 1.11-.53c.36-.1.73-.15 1.08.05.32.23.5.58.59.95.11.35.1.77.08 1.2l-.1.66-.09.34-.08.28a21 21 0 0 1-1.48 3.5 44 44 0 0 1-1.86 3.23q-.84 1.38-1.79 2.71c-2.39 3.3-3.45 4.16-4.45 4.4-.23.06-.5.16-.68.16-.55-.03.3-1.41 2-3.75a78 78 0 0 0 3.59-5.43q.85-1.41 1.58-2.85.37-.73.67-1.46.16-.36.28-.72l.12-.36.05-.17c0-.05-.02-.1-.06-.06l-.02.02s.03 0-.04.04l-.15.12q-.63.5-1.24 1.06c-1.66 1.5-3.28 3.12-4.93 4.74l-1.84 1.81-.93.9-1.19 1.1c-1.24 1.15-2.62 2.32-3.62 2.73q-.74.3-1.22.23a1 1 0 0 1-.48-.12l-.27-.13q-.07-.03-.16-.1l-.04-.02-.02-.02.04-.05v-.01l-.04-.06-.37-.63c-.18-.2-.2-.66.08-1.39.27-.71.64-1.5 1-2.27l.98-2.13q1.08-2.33 2.05-4.68l.06.02z"/>
  <path fill="#12111f" d="M159.17 324.8a52 52 0 0 0 7.1 4.61c.9.48 1.86.86 2.79 1.28q2.46 1.11 5.03 1.75 1.29.3 2.56.35c.42-.02.84-.01 1.24-.1q.3-.02.6-.12l.28-.08.14-.03.07-.04c.33-.1.58-.74.62-1.47.04-.72-.06-1.5-.2-2.27-.19-1-.55-1.95-.8-2.94-.3-.98-.59-1.99-1-2.9-.2-.63-.28-.52.28-.24q.41.24 1 .79c.38.36.8.82 1.13 1.37.28.5.6.98.8 1.52q.3.8.53 1.64c.3 1.13.55 2.28.43 3.68q-.03.53-.25 1.12a3 3 0 0 1-1.74 1.85l-.24.08c-.32.09-.64.22-.96.26-1.29.27-2.51.2-3.68 0a30 30 0 0 1-7.92-2.45 51 51 0 0 1-7.67-4.57 63 63 0 0 1-10.22-9.14 46 46 0 0 1-4.05-4.93q-.4-.59-.78-1.19c-.8-1.58-.87-2.2-.44-2.77.1-.12.16-.27.24-.35.25-.26 1 .18 1.61 1.19a55 55 0 0 0 7.06 8.52 59 59 0 0 0 6.46 5.53zm82.31-53.65q-.27-.37-.53-.77l-.13-.2-.21-.34c-.14-.24-.23-.48-.35-.72a4 4 0 0 1-.33-1.38c0-.43.1-.8.23-1.24l.58-.35.27-.15q.16-.06.32-.08.64-.14 1.4.01c.24.02.5.15.75.23.24.09.54.19.7.27l.9.4c1.1.65 2.09 1.37 3.06 2.1 1.93 1.45 3.76 2.96 5.62 4.38q1.27.98 2.56 1.8.66.4 1.28.7.3.14.57.22.1.04.2.05c.04 0 .04.03.15 0a3 3 0 0 0 1.8-.95c.6-.55 1.13-1.27 1.65-2.03 1.04-1.51 1.94-3.2 3.24-4.8q.5-.6 1.18-1.12.35-.26.76-.44a4 4 0 0 1 1.07-.31c.72-.07 1.48.07 1.94.56.26.22.29.56.31.9q0 .52-.13 1.07c-.09.42-.14.57-.2.83l-.22.7-.45 1.36-.95 2.7q-.86 2.37-1.6 4.75c-.23.79-.46 1.6-.58 2.35-.1.68.05 1.34.34 2.03.37.87 1 1.68 1.68 2.42q1.03 1.13 2.27 2.06a40 40 0 0 0 5.22 3.37q.83.55.77.6c-.03.07-.35.02-.97.07q-.94.04-2.51-.29-.76-.18-1.6-.53l-.85-.38-.81-.54c-1.88-1.38-3.63-3-4.87-5.23q-.23-.43-.42-.89c-.1-.33-.23-.64-.3-1-.05-.36-.15-.7-.12-1.09.01-.38.02-.81.1-1.09.23-1.21.58-2.26.93-3.34.7-2.12 1.49-4.17 2.22-6.22l.53-1.52.24-.76.11-.37.05-.14.01-.04q.03-.07.04-.15.03-.1-.04-.15a.4.4 0 0 0-.35-.04 2 2 0 0 0-.56.29q-.3.22-.61.54-.6.64-1.14 1.45c-.7 1.08-1.34 2.28-2.09 3.46q-.54.9-1.24 1.77a8 8 0 0 1-1.7 1.6c-.33.25-.75.4-1.15.57-.45.1-.83.24-1.44.17-.98-.16-1.6-.54-2.25-.89a35 35 0 0 1-3.76-2.64l-3.5-2.76a64 64 0 0 0-3.51-2.62l-.9-.58q-.45-.3-.89-.55c-.3-.14-.62-.3-.95-.2-.05.02-.14.03-.14.1-.08.18-.02.39.06.57q.05.14.13.27l.07.13.15.24q.71 1.03 1.57 2.02c1.13 1.32 2.34 2.6 3.49 3.99a18 18 0 0 1 1.45 2.05c.25.49.42 1 .38 1.49a1 1 0 0 1-.08.36 1 1 0 0 1-.17.32q-.25.3-.57.47-.47.17-1.02.2h-.97l-1.55-.14q-1.52-.19-3.02-.4l-2.98-.41-1.48-.18-.74-.07-.54-.04a9 9 0 0 0-1.07-.01q-.24.01-.5.08c-.14.04-.33.13-.3.32.04.2.24.33.4.44q.27.16.54.28l.52.22.64.24q2.03.75 4.13 1.44 1.3.43 2.63.9c3.28 1.22 4.3 1.94 4.67 2.81.1.18.2.42.22.56 0 .24-.28.19-.87.04-.6-.14-1.49-.47-2.67-.88l-6.42-2.18-1.64-.6-.83-.3-.6-.26-.72-.31a9 9 0 0 1-2.45-1.5q-.2-.2-.32-.39-.14-.19-.2-.37c-.1-.25-.1-.48-.13-.88l.26-.66c.08-.2.27-.3.38-.45l.1-.1.16-.07.32-.15c.24-.09.46-.18.77-.24l.44-.1.5-.05q.53-.06 1.11-.05c.39-.03.75.02 1.13.05l.77.06q2.48.26 4.9.6l3.05.4q.75.1 1.46.16l.33.03h.01v-.02c-.01-.04.03 0-.13-.22-.45-.71-1.07-1.44-1.67-2.15-1.25-1.45-2.58-2.87-3.82-4.5l.04-.04z"/>
  <path fill="#12111f" d="M257.77 309.77c1.96-.4 3.95-1.7 5.7-3.19.65-.54 1.22-1.17 1.83-1.77a52 52 0 0 0 5.9-6.95 31 31 0 0 0 2.1-3.48c.43-.75.8-1.53 1.2-2.28l.64-1.12c.08-.2.22-.37.34-.55q.19-.27.34-.56c.31-.46.27-.43.4.09q.12.39.26 1.11.1.7-.1 1.52l-.2.68-.25.65q-.26.65-.55 1.29-.63 1.24-1.4 2.39-1.5 2.32-3.32 4.42c-1.47 1.65-2.87 3.47-4.52 5.05q-1.35 1.3-2.9 2.43a16 16 0 0 1-3.34 1.9 7.3 7.3 0 0 1-4.9.4l-.46-.17q-.23-.06-.48-.22a3 3 0 0 1-.82-.74 4 4 0 0 1-.7-1.9c-.14-1.25.04-2.43.25-3.58q.5-2.65 1.4-5.13.2-.56.42-1.1.21-.5.42-.82c.13-.21.31-.36.44-.48.29-.24.5-.33.76-.37l.33-.04c.3.02.24.65.07 1.69-.5 1.41-1 2.88-1.4 4.37a17 17 0 0 0-.7 4.39c0 .5.06.98.19 1.3.14.34.26.48.43.56.01.03.17.06.26.1l.3.1q.32.07.65.1c.44 0 .9-.01 1.38-.12l.02.05zm-56.09-29.66c.03-.27.11-.5.23-.78q.04-.15.1-.27c.21-.29.45-.55.8-.66l.38-.14c.16-.05.32-.13.5-.07q.06.05.01.23c-.03.1-.06.23-.1.27-.1.04-.13.19-.14.3-.03.1-.02.2-.11.23-.12.05-.12.2-.16.29q-.06.15-.1.38a1 1 0 0 0-.03.3q-.02.24.08.46c.06.12.19.21.29.31l.07.07c.06.1-.02.16-.35.32l-.24.1c-.26.13-.5.17-.62.13a.9.9 0 0 1-.57-.7 3 3 0 0 1-.07-.75h.04z"/>
  <path fill="#12111f" d="M219.71 71.89a17.86 17.86 0 1 1 3.4-12.36c-1.92-5.36-5.63-10.03-8.13-10.62-2.53-.6-10.6.64-11.74 1.46s-4.55 5.02-4.55 5.02c-.5 1.03-1.63 1.46-1.63 1.46s-4.78 1.4-6.7 4.17c-1.91 2.78-3.15 6.4 0 7.18 3.15.79 9.37.9 9.37.9s4.73 4.79 7.72 4.77c2.99 0 6.3-.47 9.23-1.6 2.15-.84 2.91-.28 3.03-.38" opacity=".45"/>
  <path fill="#12111f" d="M199.54 70.68a13 13 0 0 1-2.16-2.95 14 14 0 0 1-1.22-3.45c-.46-2.4-.23-4.88.58-7.13a15 15 0 0 1 2.46-4.57 14 14 0 0 1 7.67-4.85c2.95-.7 6.12-.56 8.94.63a17.4 17.4 0 0 1 6.2 4.9 13 13 0 0 1 2.35 4.54c.13.42.17.86.25 1.29q.03.66.02 1.3c-.06.44-.06.88-.18 1.3q-.19.62-.54 1.18c-.6.9-.45.76-.52-.13 0-.44-.29-1.1-.37-1.75-.12-.67-.34-1.4-.52-2.18-.3-1.4-1-2.71-1.89-3.9-.89-1.18-2-2.24-3.22-3.11a12 12 0 0 0-3.92-1.95 13 13 0 0 0-7.18.2c-.86.31-1.73.7-2.52 1.2a12 12 0 0 0-3.88 4.04 13 13 0 0 0-1.93 5.87c-.06.52-.02 1.03-.01 1.55.07.52.1 1.04.24 1.54.2 1.01.6 1.99 1.11 2.9a11.8 11.8 0 0 0 5.76 5.05c3.65 1.54 8.08 1.46 11.51-.55a12 12 0 0 0 5.51-6.88l.26-.95.2-.95c.34-2.42.49-3.21 1-3.78.1-.13.2-.3.3-.38q.26-.2.53.54.16.37.25.94c.05.38.12.84.1 1.35-.12 3-1.2 6.18-3.34 8.66a14.4 14.4 0 0 1-8.41 4.78c-4.83.84-10-.72-13.47-4.26l.03-.04"/>
  <path fill="#12111f" d="M209.75 89.2a34 34 0 0 1-12.95-3.09A29 29 0 0 1 186.25 78a24 24 0 0 1-2.7-4.1c-.41-.72-.71-1.49-1.05-2.23l-.78-2.33a28 28 0 0 1-.94-8.56c.17-2.87.79-5.7 1.74-8.38.92-2.7 2.34-5.22 4-7.53.82-1.18 1.8-2.21 2.76-3.27l1.57-1.46q.38-.37.82-.68l.85-.64.76-.57q.4-.27.8-.5.82-.51 1.63-.98c1.16-.54 2.28-1.14 3.48-1.54a33 33 0 0 1 7.33-1.7c3.19-.36 6.45-.27 9.64.4 3.15.7 6.31 2.13 8.5 4.6.6.83.82 1.2.74 1.24s-.5-.25-1.24-.64q-.56-.3-1.35-.65-.19-.1-.4-.17a2 2 0 0 0-.41-.19q-.45-.15-.91-.35a61 61 0 0 0-4.39-1.38 24 24 0 0 0-4.45-.77 29 29 0 0 0-4.58.01c-3.05.21-6.09.92-8.9 2.03-5.63 2.3-10.26 6.87-13.12 12.38a27 27 0 0 0-2.94 10.88c-.2 3.83.6 7.67 2.12 11.14a24 24 0 0 0 7.97 9.55 31 31 0 0 0 11.57 5.03c2.56.53 5.18.78 7.8.65 2.6-.12 5.2-.55 7.68-1.39a24.5 24.5 0 0 0 9.93-6.2 27 27 0 0 0 6.08-10.04 25.7 25.7 0 0 0-.34-17.64 22 22 0 0 0-1.78-3.44c-1.31-2.03-2.37-3.22-3.1-4.09a9 9 0 0 1-1.42-1.93c-.12-.25-.31-.54-.36-.73q-.1-.47 1.21.2c.86.44 2.13 1.3 3.47 2.74.52.5.96 1.1 1.42 1.67.4.6.85 1.2 1.2 1.85a22 22 0 0 1 1.87 4.03c1 2.82 1.45 5.84 1.44 8.87a29.5 29.5 0 0 1-5.72 17.12 26.6 26.6 0 0 1-10.62 8.54 30 30 0 0 1-13.33 2.43v-.05z"/>
  <path fill="#12111f" d="M217.79 66.32q-2.4.93-4.87 1.66c-1.65.49-3.37.87-5.04 1.14-1.23.2-2.46.43-3.7.57q-3.26.36-6.57.34c-2.2-.04-4.43-.15-6.64-.86a5.6 5.6 0 0 1-2.74-1.75 3 3 0 0 1-.41-.79q-.16-.4-.24-.82l-.06-.44.02-.42q.02-.44.14-.83c.07-.35.25-.65.37-.97.17-.28.31-.6.51-.86q.56-.82 1.26-1.48a11 11 0 0 1 3.14-2.08c.72-.3.6-.3.13.17q-.35.35-.83 1.09-.5.69-1.12 1.5-.54.7-.99 1.4-.43.72-.61 1.42l-.06.34c0 .11-.04.22-.02.32v.3q0 .15.04.29 0 .15.07.27l.1.28q.1.2.3.4c.55.57 1.68.95 2.78 1.2q1.72.37 3.55.48c2.93.21 6.02-.16 9.02-.58q2.5-.34 4.9-.9 2.4-.61 4.77-1.48 2.92-1.05 5.71-2.38 2.12-1.01 4.12-2.2c1.31-.8 2.61-1.7 3.59-2.76.34-.37.64-.77.78-1.16.16-.4.14-.64 0-.9-.12-.14-.21-.19-.45-.3q-.36-.15-.8-.25-.88-.19-1.82-.25-.75-.04-1.5-.03c-1.87.01-2.4.03-2.93-.47-.12-.11-.27-.2-.36-.32-.32-.36.45-1.02 2-1.25q1.8-.27 3.63-.11a10 10 0 0 1 2.43.54q.25.1.54.25c.2.09.42.28.64.46.23.16.37.4.54.63q.17.35.28.74c.05.25.12.51.09.78a4 4 0 0 1-.32 1.38 6 6 0 0 1-1.2 1.74c-.9.93-1.84 1.64-2.8 2.3a52 52 0 0 1-9.33 4.7l-.02-.05z"/>
  <path fill="#12111f" d="M217.89 65.9c.2 0 3-.88 3.1.48.13 2-1.93 3.58-1.93 3.58h1.2s1.55-.62 2.1-2.55 1-3.95 1-3.95zm1.85-2.44c.2-.1 1.48-.57 2.27-2.84.7-1.95-.78-5.23-.78-5.23l2.13 2.66s.32 1.98.4 2.68c.1.7-.4 2.07-.4 2.07l-2.73 1.17z"/>
  <path fill="#12111f" d="M207.46 58.94c0 1.87-2.39 2.8-3.66 1.43a2.2 2.2 0 0 1-.31-2.43c1-1.9 3.97-1.14 3.97 1" opacity=".35"/>
  <path fill="#12111f" d="M215 54.5c0 1.62-1.99 2.44-3.05 1.24a2 2 0 0 1-.25-2.12c.84-1.65 3.3-.99 3.3.87" opacity=".55"/>
  <path fill="#12111f" d="M214.51 61.3c0 1.36-1.71 2.05-2.62 1.04a1.6 1.6 0 0 1-.22-1.77c.72-1.4 2.84-.84 2.84.72" opacity=".75"/>
  <path fill="#12111f" d="M102.85 114.18q.46-1.08.88-2.2c.1-.27.16-.56.26-.83l.54-1.44c.15-.43.25-.9.26-1.33.04-.4-.1-.73-.2-.7-.2-.03-.48.02-.73.08-.27.03-.56.04-.83.12-.15.05-.18.03-.1-.15.07-.16.24-.52.56-.79.3-.17.6-.3 1.04-.36q.16-.03.4.02c.13 0 .43.14.51.23q.39.31.52.66c.39.87.2 1.54.03 2.2l-.19.58-.14.53-.27 1.07q-.35 1.17-.75 2.32l-.52 1.43c-.27.72-.6 1.42-.89 2.13-.23.56-.4 1.14-.67 1.71l-.2.38c-.28.45-.52.5-.96.22q-.15-.08-.3-.19c-.31-.25-.43-.61-.33-.9.3-.88.7-1.73 1.12-2.66q.49-1.03.92-2.13l.05.01z"/>
  <path fill="#12111f" d="m79.35 94.1 6.37 19.61s-2.94 1.08-5.49 1.85a17.7 17.7 0 0 1-4.42-11.73 17.7 17.7 0 0 1 3.35-10.38zm32.75 9.73c.35 7.48-3.57 12.5-8.87 15.36.12-.41 3.84-12.69 3.43-13.3-.42-.62-18.77 6.81-18.77 6.81l-.93-1.08s4.13-6.14 4.53-6.3c.39-.17 5.37-6.03 4.79-6.29s-13.66-9.2-13.66-9.2a17.7 17.7 0 0 1 10.96-3.78c9.82 0 18.02 7.4 18.51 17.78" opacity=".2"/>
  <path fill="#12111f" d="M89.05 96.86a53 53 0 0 0-2.5-1.69c-.3-.2-.64-.34-.95-.54a38 38 0 0 0-3.4-1.9q-.77-.39-1.59-.7c-.68-.26-1.4-.43-2-.98-.19-.17-.15-.18.08-.26l.5-.2q.3-.1.64-.07 2.3.45 4.31 1.68c.8.47 1.7.84 2.53 1.3q1.37.75 2.67 1.62.8.53 1.6 1.09 1.16.86 2.34 1.7c.6.45 1.25.8 1.87 1.22q.22.11.41.27c.25.19.4.32.44.48q.03.28-.1.55l-.11.26q-.11.18-.37.23c-.16.02-.41.05-.6-.07-1.16-.6-2.24-1.41-3.33-2.2q-1.21-.91-2.47-1.75z" opacity=".45"/>
  <path fill="#12111f" d="M91.83 94.6c.82.53 1.64 1.03 2.44 1.6l1.2.83.43.29.47.38.46.37c.16.13.24.26.36.38l.12.14.07.15c-.06.13-.04.22-.07.33q-.02.3-.13.7c-.12.24-.33.49-.52.73l-.29.36-.25.31c-1.64 1.86-3.3 3.69-4.86 5.58q-1.03 1.27-1.95 2.6-.58.88-1.19 1.72l-.62.83c-.2.28-.49.5-.72.77-.31.31-.45.16-.5-.3a7 7 0 0 1-.04-.94q.05-.55.33-1.1c.66-1.3 1.54-2.45 2.38-3.61a48 48 0 0 1 2.74-3.33q.87-.97 1.66-2.04l.8-1.05.37-.49.14-.17c.08-.1.34-.29.1-.37l-.2-.15-.11-.08-.28-.18-2.46-1.5q-1.5-.95-3.03-1.85c-1.55-.9-3.1-1.83-4.7-2.61-1.24-.6-2.52-1.07-3.77-1.6-.27-.12-.55-.2-.82-.34-1.01-.48-1.26-.78-1.27-1.38l-.02-.36c.02-.31.62-.56 1.46-.38 1.25.27 2.47.68 3.69 1.14 1.19.5 2.36 1.1 3.53 1.7q2.57 1.38 5.08 2.9l-.03.05z"/>
  <path fill="#12111f" d="m81.9 104.1-1.34-4.1-.53-1.48-1.63-5.29q-.36-1.17-.8-2.32-.27-.74-.45-1.5-.14-.78-.24-1.58c-.03-.33.02-.3.24-.1.22.22.68.59 1.08 1.09q.26.33.44.68.21.36.38.71.3.75.56 1.5.55 1.5.93 3.07c.32 1.25.85 2.47 1.28 3.71l1.4 4.09.88 2.5q.67 1.9 1.44 3.76c.41.95.92 1.84 1.4 2.75l.31.59c.36.76.37 1.05-.05 1.42q-.12.14-.25.24c-.26.2-.78.05-1.1-.5a29 29 0 0 1-2.5-5.16q-.79-2.03-1.5-4.08l.04-.02z"/>
  <path fill="#12111f" d="M105.98 129.46c-7.4 4.98-16.9 6.67-25.46 4.23a28 28 0 0 1-8.7-4.13c-4.62-3.26-8.4-7.87-10.18-13.31a30 30 0 0 1-.72-16.65 27.5 27.5 0 0 1 11-15.88q1.96-1.37 4.17-2.34a19 19 0 0 1 9.33-1.67c.98.23 1.39.32 1.36.35s-.51.03-1.32.23a48 48 0 0 0-7.55 2.56 25 25 0 0 0-7.58 4.77 25.8 25.8 0 0 0-8.1 15.73c-.35 3.02-.24 6.1.39 9.13.36 1.82.86 3.61 1.63 5.3a23 23 0 0 0 2.94 4.77 27 27 0 0 0 8.72 7.14c7.33 3.94 16.47 3.94 24.1.6a26.7 26.7 0 0 0 11.72-9.66 24 24 0 0 0 2.58-5.2 24 24 0 0 0 1.2-5.68c.11-.96.09-1.94.1-2.91-.07-.98-.1-1.95-.27-2.91-.1-.97-.36-1.91-.55-2.87-.1-.47-.27-.92-.4-1.4-.14-.45-.26-.93-.45-1.37a25 25 0 0 0-11.23-13.2l-.84-.48-.87-.4c-.59-.24-1.15-.55-1.76-.74-.57-.2-1.07-.43-1.55-.58l-1.33-.4c-.78-.28-1.46-.36-1.99-.56l-.72-.27q-.33-.1-.6-.21-.52-.22-.9-.45c-.23-.15-.54-.3-.68-.42q-.33-.29 1.11-.47c.94-.14 2.45-.18 4.34.21 2.8.55 5.57 1.6 8.08 3.18a27 27 0 0 1 6.65 5.92 29.2 29.2 0 0 1 6.26 16.8c.22 4.53-.71 9.19-2.84 13.24a28 28 0 0 1-9.03 10.04l-.04-.04z"/>
  <path fill="#12111f" d="m103.06 106.62 1.25-.54 1.59-.73 1.24.08c.1.02.21-.03.3.04q.12.1.18.21.14.22.21.56a5 5 0 0 1-.22 1.9l-.29 1.06-.23.81q-.72 2.35-1.52 4.65l-.72 2.02c-.26.68-.49 1.33-.91 2.07-.12.2-.29.46-.5.61-.2.15-.44.32-.57.38q-.46.26-.9.44-.87.4-1.74.74-1.72.71-3.48 1.36c-2.33.86-4.65 1.7-7.05 2.43l-.76.22-.4.1q-.25.06-.55.1c-.31 0-.6-.13-.88-.24l-.59-.28-1.13-.58-2.23-1.15c-2.47-1.3-5.05-2.34-7.34-3.97-.32-.37-.45-.52-.44-.54s.22.06.64 0c.87-.14 2.33 0 3.82.63q2.24 1.03 4.4 2.14l3.77 1.92c.03 0-.05.02.11-.02l.4-.1.86-.25 1.74-.54 3.5-1.15a60 60 0 0 0 4.86-1.86 29 29 0 0 0 2.53-1.23l.1-.06.06-.09.12-.23q.26-.53.5-1.14a80 80 0 0 0 1.86-5.4l.67-2.23.17-.62.03-.16c.01-.03.03-.15-.04-.1l-.28.12-.26.12-2.29.97q-1.5.62-3.03 1.22c-3.38 1.3-6.86 2.4-10.27 3.51-2.65.86-5.23 1.78-7.84 2.65l-1.7.58c-2.17.66-2.91.7-3.54.28-.14-.1-.32-.17-.42-.27-.32-.32.44-1 1.99-1.62 4.6-1.82 9.57-3.23 14.46-4.86 3.63-1.2 7.25-2.48 10.75-4l.03.04z"/>
  <path fill="#12111f" d="M86.29 99.3q-.28.2-.54.42-.08.1-.18.18-.38.26-.71.55l-.27.3q-.13.2-.37.35-.08.03-.19-.13c-.06-.1-.13-.25-.1-.36q.11-.55.54-.9c.17-.14.26-.35.39-.52q.23-.26.5-.51l.3-.3c.16-.17.34-.3.47-.48q.13-.22.23-.49.01-.06.04-.1c.08-.12.17-.1.42.11l.18.15c.19.17.3.36.28.47-.05.35-.24.58-.46.8l-.52.46-.02-.01zm2.1 2.34q-.35.26-.68.53l-.22.22q-.45.34-.85.7l-.34.35q-.2.24-.45.43-.08.06-.15-.1a.5.5 0 0 1-.02-.35c.17-.4.32-.8.66-1.08.19-.18.3-.42.45-.63q.25-.35.54-.66.16-.21.33-.4c.16-.22.36-.4.51-.61q.16-.27.26-.58.02-.07.06-.13c.1-.13.21-.1.47.07l.18.12q.3.23.3.5c0 .45-.2.77-.42 1.08-.14.24-.41.38-.61.58l-.02-.02z" opacity=".45"/>
  <path fill="#12111f" d="m96.36 121.39 7.06-2.76a17.5 17.5 0 0 1-7.06 2.76m7.1-2.79-.04.03z"/>
  <path fill="#12111f" d="M70.67 212.88s.51 5.78-1.14 9.34c-.96 2.07-1.47 2.93-2.53 2.68-1.05-.26-3.96.07-5.46 1.35s-5.97 5.3-5.97 5.3l-7.5-1.95-7.01 1.41s-2.7-2.15-1.6-5.65c1.08-3.5 4.5-10.38 7.08-10.81 2.57-.43 7.4-.45 9.36-.44 1.97 0 8.1 3.2 8.1 3.2l3.1 1.73 2.64-2.65z" opacity=".5"/>
  <path fill="#12111f" d="M47.53 223.53c.12.63-.19 1.28-.64 1.72q-.23.25-.54.42-.34.15-.7.16c-.55-.03-1-.31-1.23-.71-.13-.26-.2-.56-.14-.81.06-.32.3-.62.6-.66q.13 0 .07.12a1 1 0 0 0 0 .35c.02.18.16.32.24.28l.1-.02q.03 0 .05.1.03.08.1.06.09-.01.17-.05a.6.6 0 0 0 .3-.3c.03-.1.02-.23 0-.23-.04-.08-.2-.14-.22-.08-.05.05.03.22.12.27l.06.02h-.1q-.15.01-.5.14l-.34.12c-.37.15-.75.13-.9-.18-.2-.45-.14-1 .18-1.44q.23-.35.65-.57a1.9 1.9 0 0 1 2.09.26c.32.25.58.74.6 1.02zm-8.84 5.86c-.05-.49.01-.95.05-1.39l.01-.47q.12-.83.32-1.65l.1-.71c0-.31.14-.61.28-.9q.05-.11.17.03c.07.08.21.25.27.43.13.32.1.61.12.91q.01.45-.05.9c-.05.36 0 .74.03 1.1q0 .61.06 1.19.02.35.12.68c.1.32.22.64.44.86.18.17.47.2.68.34l.17.07c.17.14.16.32.07.6l-.06.2q-.13.31-.51.4c-.18.04-.35 0-.53-.01a1 1 0 0 1-.5-.19c-.32-.2-.6-.53-.8-.86-.3-.5-.4-1.05-.47-1.53zm36.16-17.89.85-.84c.1-.1.16-.24.26-.34.33-.37.64-.77.82-1.23.1-.19.16-.44.16-.6.02-.1-.04-.15-.02-.19 0-.06-.05-.18-.15-.2-.07-.02-.12-.02-.1-.16.02-.12.3-.42.7-.32q.11.04.24.12l.17.2q.12.22.17.42.06.4.04.65c0 .37-.17.72-.34 1.02-.23.37-.36.78-.58 1.14a6 6 0 0 1-.83 1.05l-.56.58q-.42.42-.8.87c-.18.25-.32.53-.5.78l-.1.17c-.2.16-.33.15-.6 0l-.17-.1a.6.6 0 0 1-.25-.56 2.7 2.7 0 0 1 .72-1.57c.27-.32.58-.62.84-.92z"/>
  <path fill="#12111f" d="M52.32 212.82c1.86-.15 3.76 0 5.56.45 1.82.45 3.53 1.2 5.11 2.11q1.74 1 3.27 2.2l.17.13.05.05.12.1q.12.13.23.07l.2-.12.04-.05.1-.12q.12-.13.22-.28a13 13 0 0 0 1.84-4.62c0-.1.02-.11 0-.18l-.08-.2-.17-.34q-.8-1.43-1.66-2.9l-.73-1.31-.37-.67c-.13-.25-.32-.63-.46-.96a3 3 0 0 1-.25-.99q-.01-.23.02-.44a.6.6 0 0 1 .25-.39c.5-.26 1.2-.36 1.95-.24.22 0 .49.09.7.14q.25.06.5.17.5.18.96.46a7 7 0 0 1 2.75 3.05q.36.98.38 2c-.13.86 0 .7-.4.11a8 8 0 0 0-.95-1.05c-.2-.2-.47-.36-.68-.57l-.59-.67q-.55-.6-1.2-1.05a5 5 0 0 0-1.35-.58c.02 0-.06-.05-.03.04v.02l.05.1.1.2.22.41.46.83.98 1.66q.49.83.98 1.72.12.22.24.5.21.38.24.83v.43l-.05.3q-.05.3-.12.55c-.21.84-.47 1.61-.78 2.4a14 14 0 0 1-1.15 2.3 6 6 0 0 1-1.12 1.26q-.4.29-.87.4c-.31.04-.66.06-.89-.15l-.77-.48-.3-.2-.23-.17-.95-.68c-2.75-1.97-5.85-3.45-9.2-3.62-2.04-.1-4.16.14-6.1.78-1.46.5-2.89 1.22-4.05 2.26a13 13 0 0 0-2.93 3.62 16 16 0 0 0-1.81 6.9c0 .52-.03 1.03 0 1.56q.02.74.06 1.23 0 .5-.05.85a2 2 0 0 1-.31 1c-.08.12-.14.28-.2.35q-.17.18-.52-.34a4 4 0 0 1-.65-1.7c-.4-2.32-.24-4.8.42-7.2a16 16 0 0 1 3.6-6.62c.34-.34.65-.7 1.02-1.01l1.12-.92 1.24-.77c.4-.27.87-.43 1.3-.65q.65-.31 1.35-.5c.46-.15.92-.32 1.37-.4q1.36-.3 2.78-.45v.05zm-6.02-9.29a4 4 0 0 1 .75-1.65c.2-.24.4-.41.6-.6q.32-.27.68-.49c.35-.18.7-.42 1.08-.5a5.6 5.6 0 0 1 3.77.43c.48.25.98.47 1.41.8q.2.16.4.36.18.18.33.41c.23.29.33.7.29 1.06-.01.24-.12.2-.34.1q-.16-.1-.41-.16l-.26-.06-.19-.09q-.3-.19-.66-.33c-.14-.03-.22-.11-.33-.16l-.35-.17q-.7-.3-1.47-.52a2.7 2.7 0 0 0-1.83.19 2.6 2.6 0 0 0-1.38 1.26 4 4 0 0 0-.24 1.3q-.01 1.12.25 2.3c.14.6.41 1.15.61 1.77q.08.21.12.42c.07.56-.08.8-.56.9l-.32.06a.9.9 0 0 1-.83-.44c-.51-.87-.84-1.98-1.08-3.2a9 9 0 0 1-.1-3z"/>
  <path fill="#12111f" d="M68.8 242.46c3.89-2 7.54-4.55 10.34-7.87a24.5 24.5 0 0 0 5.68-11.5l.2-1.18q.13-.58.16-1.17l.13-2.39c-.08-1.59-.1-3.18-.4-4.76l-.14-1.05-.07-.53-.13-.52-.5-2.06c-.14-.71-.39-1.36-.62-2.02l-.35-.98-.44-.94a23 23 0 0 0-4.9-6.76c-4.1-3.9-9.51-6.33-15.12-7.37a32 32 0 0 0-7.6-.48c-2.55.09-5.03.6-7.42 1.39a34.3 34.3 0 0 0-15.58 11.12c-1.24 1.6-1.22 1.34-.59-.34.35-.82.8-2.07 1.72-3.34.9-1.27 2.12-2.67 3.65-3.94a32 32 0 0 1 14.27-6.57 34 34 0 0 1 5.27-.45c7.02-.06 14.14 1.92 19.89 6.1l1.28.96 1.2 1.06.6.53.56.59 1.1 1.17a25 25 0 0 1 3.58 5.44c.54.96.86 2.01 1.24 3.04.35 1.03.57 2.08.85 3.12l.2.78.14.8.25 1.6c.2 1.06.2 2.15.27 3.22.12 1.19-.03 2.38-.08 3.56 0 .6-.11 1.19-.22 1.77l-.3 1.76q-.2.87-.47 1.73c-.18.57-.3 1.15-.54 1.7-.45 1.1-.86 2.23-1.46 3.26-.29.52-.54 1.06-.86 1.56l-1 1.48q-.24.37-.5.73l-.57.69-1.12 1.37a35 35 0 0 1-5.28 4.7 39 39 0 0 1-7.5 4.28 24 24 0 0 1-4.13 1.46q-2.13.5-4.3.7a37 37 0 0 1-12.98-1.35 34 34 0 0 1-6.1-2.34l-1.46-.77c-.47-.27-.92-.6-1.37-.9-.95-.57-1.75-1.31-2.6-2a26.6 26.6 0 0 1-8.66-17.75l-.06-.55v-.56l-.03-1.1q-.02-.56 0-1.11l.1-1.12c.23-2.78.8-4.55 1.27-5.74a6 6 0 0 1 1.45-2.23c.21-.2.45-.48.62-.56.28-.16.3.31.12 1.26-.22.94-.5 2.4-.87 4.25a26.5 26.5 0 0 0 2.43 16.5c1.28 2.55 3 4.87 5.12 6.79l1.64 1.36 1.78 1.19 1.9 1q.47.25.98.45.5.22 1.02.42a37 37 0 0 0 12.82 2.44q3.29.02 6.43-.7c.53-.1 1.03-.28 1.55-.42l1.5-.53 1.5-.68q.77-.33 1.5-.72l.03.05z"/>
  <path fill="#12111f" d="M45.58 205.05a3.5 3.5 0 0 0-1.8-1.28c-.29-.08-.58-.08-.86-.1a3.6 3.6 0 0 0-3.69 2.3l-.33.9-.08.23-.13.24q-.12.24-.22.5c-.08.22-.1.2-.24 0q-.13-.13-.33-.4l-.2-.31-.1-.18-.03-.18-.02-.66.03-.34q.03-.15.1-.31.2-.63.56-1.2a4.4 4.4 0 0 1 2-1.72 6.3 6.3 0 0 1 3.13-.66c1.16.12 2.27.6 3.13 1.39.53.5.93 1.1 1.21 1.7.43.92.65 1.87.89 2.8.18.7.43 1.4.6 2.1q.08.24.13.46.05.44-.1.63a1 1 0 0 1-.47.33l-.29.13a.6.6 0 0 1-.48-.06 1 1 0 0 1-.45-.45c-.34-.6-.44-1.21-.62-1.82q-.2-.9-.44-1.78a7 7 0 0 0-.94-2.24zm33.65 5.29-.54.78-.27.38q-.16.21-.26.3l-.74.8q-.77.75-1.54 1.42c-.37.32-.7.68-1.01.98q-.19.17-.32.32c-.05.06-.07.07-.1.14-.01.06-.02.05-.02.22l.02.46.07 1.02a20 20 0 0 1-.3 4.55q-.15.8-.6 1.5c-.12.25-.32.45-.5.66-.15.22-.4.37-.65.5-.3.16-.37-.01-.4-.4 0-.18-.04-.45 0-.66q-.02-.38.1-.7.37-1.16.46-2.46c.07-.89.02-1.8.02-2.79q0-.46-.05-.97l-.05-.52-.02-.36.02-.42c.1-.45.42-.95.62-1.15q.32-.4.65-.7c1.03-.94 2.04-1.8 2.85-2.75q.41-.42.73-1.06c.13-.25.45-.89-.05-.64a5 5 0 0 0-1.36.53l-.19.12-.3.19q-.6.36-1.1.78l-.4.36c-.45.45-.58.35-1.12.29l-.36-.02q-.3.01-.41-.38c-.07-.27 0-.64.2-.98a7 7 0 0 1 2.32-2l.32-.19.6-.3 1.24-.53a6 6 0 0 1 2.27-.54q.6.08.85.38c.02.03.06.03.06.09l.02.07.04-.03v.02l.02.02.12.2.12.2c.04.07.1.1.07.24l-.08.67-.02.17-.06.2-.15.39c-.14.51-.5 1.07-.8 1.61h-.06zm-27.76 19.54a8 8 0 0 0 2.48.7q1.14.08 2.2-.6c.51-.32.97-.81 1.46-1.3.89-.87 1.77-1.9 2.9-2.79a8 8 0 0 1 3.94-1.68 9 9 0 0 1 3.76.25q1.16.37 2.16 1.07c.68.43 1.11 1.2 1.4 1.93.15.47.14.38-.23.2-.37-.23-1.33-.24-1.96-.55a7 7 0 0 0-1.76-.7 7 7 0 0 0-1.82-.3c-1.24-.01-2.5.3-3.64.9-.67.37-1.3.96-1.9 1.64-.6.66-1.2 1.41-1.93 2.1a7 7 0 0 1-3 1.78 6.4 6.4 0 0 1-3.48-.15c-1.3-.39-2.43-.96-3.56-1.36q-.65-.23-1.28-.37l-.62-.09-.64-.01q-1.31.05-2.53.57a8.4 8.4 0 0 0-3.15 2.44l-.49.68q-.2.34-.4.52-.16.2-.33.32-.29.24-.71.25c-.13 0-.27.04-.38.03q-.3 0-.39-.43-.13-.45.12-1.18c.26-.71.7-1.35 1.17-1.93q.74-.88 1.68-1.57a10 10 0 0 1 4.32-1.82 9 9 0 0 1 2.8.05q.46.1.87.23c1.11.33 2.07.78 2.98 1.13l-.02.05zm-12.05-1.99q0-.1.07-.25zm149.35-54.82a38 38 0 0 0-1.57 2.55c-.17.33-.3.66-.48.98a35 35 0 0 0-1.67 3.46 8 8 0 0 0-.56 2.62v.48q0 .13.02.25t.08.24c.1.2.1.19-.11.12q-.18-.04-.48-.23-.15-.1-.28-.26-.11-.15-.16-.35a4.7 4.7 0 0 1-.05-2.52 9 9 0 0 1 .74-2.25c.42-.84.7-1.76 1.11-2.62q.67-1.41 1.43-2.77l.97-1.65q.75-1.23 1.6-2.45c.22-.3.37-.62.79-1 .29-.27.85-.68 1.47-.7.24 0 .56.04.73.08.6.17.66.3.65.9l-.01.38c-.03.4-.39.75-.9.7l-.47-.03-.1.08-.03.08c0 .02-.13.12-.2.17.07-.01-.16.24-.32.48l-.54.79c-.52.8-1.09 1.63-1.61 2.49z"/>
  <path fill="#12111f" d="M173.82 178.03a9 9 0 0 1-2.85-3.05 11 11 0 0 1-1.4-3.82q-.15-.72-.2-1.45a8 8 0 0 1-.04-1.46l.03-.63.08-.63c.08-.42.11-.84.22-1.25l.33-1.21.1-.32q.07-.21.18-.41.21-.4.5-.7a5.6 5.6 0 0 1 2.43-1.36q1.25-.37 2.5-.46a17 17 0 0 1 4.4.22q1.41.25 2.73.83a5 5 0 0 1 2.1 1.95c.3.54.25.44-.23.28-.24-.08-.65-.1-1.07-.13l-.69-.02q-.34-.03-.68-.1c-.76-.26-1.52-.52-2.33-.66a21 21 0 0 0-2.45-.28c-1.62-.07-3.37.08-4.67.7-.38.18-.67.43-.77.65l-.04.08-.05.19-.1.38-.2.76c-.1.52-.15 1.04-.24 1.56-.01.52-.06 1.05-.05 1.56.01 1.14.26 2.26.63 3.33a9 9 0 0 0 1.82 2.81 7 7 0 0 0 3.56 1.94c1.03.19 2.06.1 3.15-.17q1.62-.37 3.03-1.21a11 11 0 0 0 3.48-3.52q.29-.47.55-.95l.45-.76q.2-.3.38-.48.31-.36.7-.4c.1-.04.23-.08.3-.09.25-.04.4.67 0 1.72a14 14 0 0 1-2.7 4.37q-.95 1-2.1 1.77-1.2.73-2.52 1.18-.96.35-1.96.53c-.32.08-.71.1-1.08.14q-.55.06-1.11 0a8.6 8.6 0 0 1-4.13-1.39zm35.92-2.27a13 13 0 0 1-2.56 3.3 9 9 0 0 1-6.8 2.38 9 9 0 0 1-2.61-.63c-.42-.17-.84-.3-1.22-.55s-.8-.42-1.13-.73a9 9 0 0 1-2.98-4.33 14.6 14.6 0 0 1-.41-7.39q.06-.35.19-.7l.34-.66q.38-.64.83-1.21c.4-.46.32-.4.25.1l-.04.47.06.61q.04.33.11.71.02.19.08.38l-.04.36c-.16 1.74-.37 3.48-.08 5.19a9 9 0 0 0 2 4.55q.26.27.56.51.27.28.62.45l.68.4.74.27c1 .38 2.1.51 3.13.47 2.3-.07 4.44-1.46 5.82-3.43a11 11 0 0 0 1.86-4.05q.2-.83.23-1.64a3 3 0 0 0-.24-1.46 4 4 0 0 0-1.08-1.05q-.68-.48-1.46-.86a17 17 0 0 0-5.04-1.42l-1.13-.09c-.7-.05-1.14-.06-1.47-.18a1 1 0 0 1-.41-.18q-.18-.13-.31-.3l-.25-.28q-.14-.21.27-.51.4-.34 1.31-.46a14 14 0 0 1 5.32.58c1.74.59 3.4 1.3 5 2.66.14.12.3.3.44.45a3.7 3.7 0 0 1 .9 1.97c.13.84.06 1.6-.06 2.32a13 13 0 0 1-1.4 4.01l-.04-.01zm-24.44 19.17a8.4 8.4 0 0 0 5.85 1.06 6 6 0 0 0 4.28-3.84c.23-.6-.25-1.3-.83-1.47-.67-.18-1.22.23-1.46.83-.13.34.1-.18-.05.14l-.13.25-.3.5c-.18.27.14-.14-.07.09l-.17.19q-.18.2-.4.37c.2-.17-.05.03-.08.05l-.2.14q-.23.13-.47.24c.14-.07.08-.03-.03.01l-.28.1a7 7 0 0 1-.81.17q-.3.03-.62.02l-.52-.03c-.33-.02.24.06-.1-.01l-.31-.06a8 8 0 0 1-1.5-.47q-.3-.14-.6-.32a1.2 1.2 0 0 0-1.63.43 1.2 1.2 0 0 0 .42 1.62zm-51.49 29.54q4.88 3.2 9.54 6.73c1.13.85 2.29 1.68 3.39 2.58a108 108 0 0 1 10.95 10.26q1.15 1.21 2.26 2.45 1.14 1.22 2.17 2.5l1.32 1.67 1.27 1.7c.84 1.14 1.5 2.41 2.2 3.64.4.77.3.7-.26.2l-1.18-1.05-.8-.69-.43-.37-.39-.44q-1.4-1.6-2.87-3.14l-1.47-1.53-1.43-1.57q-2.87-3.11-5.94-6.12a85 85 0 0 0-8-6.78 155 155 0 0 0-9.42-6.75q-2.98-2-6.03-3.85a191 191 0 0 0-9.38-5.41c-2.47-1.32-4.96-2.46-7.45-3.66l-1.64-.77c-2.04-1.02-2.6-1.52-2.74-2.3-.03-.18-.1-.38-.09-.53.03-.53 1.04-.45 2.6.18 4.56 1.94 9.2 4.34 13.78 6.93a204 204 0 0 1 10.06 6.08l-.03.05zm-7.04-21q2.52 1.75 4.96 3.61c.6.45 1.22.86 1.8 1.32a134 134 0 0 1 6.04 5.05q1.31 1.16 2.64 2.27.84.71 1.66 1.47c.55.5.99 1.12 1.48 1.67.3.37.21.36-.18.22l-.8-.3-.54-.2q-.13-.07-.3-.12l-.26-.17c-1.27-.81-2.45-1.72-3.65-2.63l-1.78-1.37q-.88-.7-1.72-1.46c-1.35-1.2-2.94-2.22-4.43-3.3q-2.46-1.77-4.98-3.5a99 99 0 0 0-8-5c-1.3-.68-2.62-1.23-3.94-1.8l-.88-.37c-1.08-.5-1.32-.84-1.3-1.47q0-.23.03-.43c.1-.45.7-.57 1.56-.31a38 38 0 0 1 7.37 3.5c1.78 1.03 3.52 2.16 5.24 3.29l-.03.04m133.84 6.08c-1.06 1.3-2.13 2.6-3.1 3.98-.48.68-1 1.36-1.47 2.05l-1.4 2.1c-.7 1.01-1.26 2.1-1.9 3.15a94 94 0 0 0-6.07 11.55q-.59 1.32-1.1 2.69l-1.02 2.7c-.8 2.33-1.55 4.7-2.55 6.98-.46.67-.33.6-.4-.1a17 17 0 0 1 .21-3.38 75 75 0 0 1 2.28-7.32c.43-1.2.97-2.37 1.48-3.55q.38-.89.8-1.75l.87-1.73 1.03-2.09 1.08-2.1a70 70 0 0 1 2.25-4.18c.85-1.52 1.82-2.96 2.75-4.42l1.5-2.12q.75-1.07 1.55-2.1l1.97-2.52 2.07-2.44q.78-.92 1.62-1.8l1.66-1.77 3.43-3.4q1.36-1.26 2.68-2.58a126 126 0 0 1 3.99-3.53 8 8 0 0 1 1.82-1.16c.46-.16.8-.15 1.16-.01.16.05.35.1.47.18q.3.21.03.78c-.18.37-.53.85-1.08 1.33-3.18 2.92-6.62 5.82-9.79 9.07q-.9.88-1.76 1.81l-1.74 1.84-1.66 1.93q-.83.95-1.62 1.95zm-1.13-20.87q-.9.98-1.75 2l-.84 1.04-.8 1.06c-.4.51-.73 1.07-1.1 1.6a40 40 0 0 0-3.53 5.91c-.46.91-.83 1.87-1.22 2.8q-.3.93-.7 1.84l-.7 1.85c-.15.38-.17.32-.18-.04 0-.35-.06-1.03 0-1.8a19 19 0 0 1 1.33-4.98l.44-.93q.44-.94.97-1.83c.82-1.43 1.6-2.95 2.5-4.38q.77-1.16 1.59-2.28c.57-.72 1.11-1.47 1.71-2.18l1.1-1.3 1.14-1.26c1.15-1.28 2.4-2.47 3.59-3.7.94-.92 1.79-1.92 2.73-2.84q.3-.32.62-.62c.81-.71 1.17-.81 1.72-.5q.2.1.37.23c.35.3.25.86-.27 1.44-1.52 1.74-3.29 3.33-4.98 5.03-.64.6-1.25 1.27-1.89 1.9q-.91.97-1.81 1.97zm4.51-58.17q-1.14 1.2-2.19 2.53c-.25.32-.44.69-.69 1.02a32 32 0 0 0-2.38 3.65q-.48.85-.87 1.74-.23.58-.48 1.15-.28.56-.63 1.1c-.15.21-.3.13-.44-.16-.13-.28-.3-.78-.25-1.29a14 14 0 0 1 2.08-4.8c.6-.88 1.06-1.87 1.65-2.78a30 30 0 0 1 3.58-4.48c.75-.81 1.57-1.56 2.34-2.33q.46-.44.87-.94l.87-.93q.19-.22.4-.4c.53-.46.8-.47 1.27-.07l.31.28c.32.34.32.82.01 1.2-.9 1.16-2 2.13-3.06 3.18q-1.21 1.14-2.33 2.38l-.04-.02z"/>
</svg>
