<svg xmlns="http://www.w3.org/2000/svg" width="380" height="380" fill="none">
  <path fill="#12111f" d="M142.85 66.07s-11.6 7.96-13.79 17.73c-2.2 9.77.74 24.2 8.66 27.61s16.6-.73 16.6-.73 4.13-2.06 6-6.3c.7-1.6 0-3.05 1.32-3.84 1.3-.8 3.4-3.35 6.91-2.4 1.23.32 4.72-1.1 5.79-2.97s2.99-6.65 1.94-7.64c-1.04-.99-4.82-2.93-6.73-1.48-1.92 1.44-3.37 3.37-3.37 3.37s-10.18-4.75-12.73-9.37a790 790 0 0 0-8.04-13.98z" opacity=".4"/>
  <path fill="#12111f" d="M147.41 78.24q.66-.24 1.36-.33l-.27.03q.67-.09 1.35-.01l-.27-.04.42.08c.05.02.25.1.06.01-.2-.09-.01 0 .03.03.45.28 1.13.1 1.38-.36.25-.47.11-1.08-.36-1.37a3.6 3.6 0 0 0-1.89-.4c-.79.01-1.6.15-2.34.42q-.38.13-.6.46a1 1 0 0 0-.1.77c.15.49.7.9 1.23.7zm-12.87 4.61a10 10 0 0 0-.66 3.86c.07 1.22.5 2.61 1.7 3.18.47.21 1.1.15 1.37-.36.24-.45.15-1.14-.35-1.38l-.27-.14c-.16-.1.15.15.02.01l-.1-.1c-.12-.12.02-.02.02.04 0-.03-.06-.1-.08-.12-.03-.05-.12-.29-.16-.3.03.01.07.2.03.06q-.05-.1-.06-.2l-.08-.33-.02-.08c.04.15 0-.05 0-.08l-.03-.42q0-.39.03-.78l.02-.21c.03-.27-.03.21 0-.06l.08-.4q.16-.85.46-1.65c.19-.5-.2-1.13-.7-1.24-.57-.13-1.03.18-1.23.7m47.01 250.67q1.21.07 2.45.08l.9-.03 3.2.07q.7.01 1.41-.03l.9-.04q.47.03.92.13c.2.04.17.16.02.33-.16.16-.44.42-.78.53-1.2.17-2.42.34-3.66.27-.74-.04-1.5.07-2.26.11q-1.26.05-2.51.05l-1.55-.01c-.78 0-1.57-.08-2.36-.1-.61-.03-1.23 0-1.87-.08l-.43-.07q-.4-.09-.54-.3-.14-.17-.05-.46l.08-.27a.7.7 0 0 1 .7-.41l3 .1c.8 0 1.6.08 2.43.08z"/>
  <path fill="#12111f" d="m174.27 333.57-2.3-.12h-.85q-1.47-.09-2.96-.15l-1.31-.03c-.56.04-1.12-.08-1.68-.17q-.25-.05 0-.15c.15-.07.42-.25.73-.35a9 9 0 0 1 3.42-.22c.69.06 1.4-.01 2.1-.01h2.32l1.42.02q1.1.01 2.16-.03c.56-.03 1.1-.15 1.65-.23l.35-.05c.46-.04.6.05.7.43q.05.13.07.25c.05.3-.13.54-.46.62-.98.27-2 .3-3.05.29q-1.17-.01-2.33-.06v-.03z"/>
  <path fill="#12111f" d="M177.14 334.75h-2.36c-.29 0-.57.04-.86.04l-3.03-.08q-.67 0-1.34.03c-.57.03-1.14.13-1.7-.04-.18-.04-.17-.26-.03-.5s.4-.59.73-.61q.87-.1 1.73-.17.86-.04 1.74.05c.7.07 1.43-.05 2.14-.08l2.35-.08 1.45-.06c.73-.05 1.46-.08 2.18-.19.56-.08 1.1-.25 1.64-.4l.36-.1c.44-.07.6.01.76.42l.1.28c.09.32-.06.61-.39.76-.96.44-2.02.56-3.08.65q-1.2.09-2.38.12zm-66.34 5.56q-2.15-.05-4.29-.05l-1.56.05a200 200 0 0 0-7.98.15 33 33 0 0 1-3.13-.02c-.33-.01-.29-.04-.02-.13s.77-.26 1.36-.38a31 31 0 0 1 6.38-.6c1.28 0 2.61-.14 3.92-.2q2.17-.1 4.33-.14l2.67-.03h4.04c1.04 0 2.06-.1 3.1-.13.23 0 .45-.04.68-.03.85.01 1.12.13 1.27.54l.1.29c.06.31-.3.55-.91.6-1.83.16-3.73.14-5.66.13l-4.31-.02v-.03m1.69-2.94q.86.05 1.72.07l.64-.01 2.25.08 1 .08q.63.04 1.26.16c.13.03.1.08 0 .14s-.32.18-.56.23l-1.27.28-.31.06h-.32l-.65-.04c-.52-.04-1.05.04-1.57.06q-.88.04-1.76.05h-1.08l-1.64-.02c-.43 0-.84.08-1.28.1l-.27.03c-.36 0-.46-.1-.5-.43q0-.12-.03-.23c0-.25.15-.45.4-.5.73-.16 1.48-.16 2.24-.17q.86 0 1.72.04zm172.86-152.3c-.68-.1-2.22-2.93-.79-4.09 2.1-1.7 2.85.62 2.85.62s-1.03-2.25.3-2.49c1.56-.28 2.07 3.5 2.07 3.5s2.15-4.08 3.47-2.79c1.07 1.05-.12 2.5-.12 2.5s4.7-3.38 4.38-.72c-.3 2.67-3.4 3.77-3.4 3.77z"/>
  <path fill="#12111f" d="m244.14 77.96 5.36.1s1.97 21.13.14 21.47c-1.84.34-4.45 0-4.45 0zm26.93.36s4.45-.35 4.86-.35c.41.01-1.26 22.05-2.08 22.37s-3.4.29-3.4.29-.2-22.17.62-22.32" opacity=".3"/>
  <path fill="#12111f" d="M326.7 141.3v2.16l-.11 2.16-.05 1.59-.08 1-.05.53-.01.13c-.02.04.02.1-.05.1l-.29.08q-.56.18-1.12.3-.37.09-.73.13-1.43.2-2.85.19l-2.47-.1c-1.05-.05-2.09-.04-3.13-.27-.33-.06-.29-.09-.02-.2l.57-.25q.35-.19.8-.26c2.16-.28 4.22-.59 6.25-.6q.46-.02.91-.11l.23-.05.1-.02.15-.04c.07 0 .06-.08.06-.16v-.22l.04-.85c.07-1.42.06-2.86.14-4.3l.08-2.66.13-4.04q0-1.54.04-3.1l.02-.68c.08-.84.19-1.1.44-1.27l.17-.1c.2-.06.32.3.35.9l.33 5.67c.1 1.43.13 2.87.18 4.32h-.05zm-17.01-47.72c-.2.52 10.06 13.55 14.1 14.27 4.02.73-26.08.8-26.08.8z"/>
  <path fill="#12111f" d="M301.63 104.5q.76-1 1.5-2.02l.51-.76c.64-.86 1.31-1.71 1.9-2.61q.41-.6.77-1.22c.28-.54.69-1.01 1.05-1.5q.16-.22.1.03c-.04.17-.08.49-.18.84-.16.63-.51 1.15-.8 1.7q-.45.82-1 1.6c-.44.62-.8 1.32-1.25 1.95q-.72 1.06-1.49 2.07l-.94 1.26-1.43 1.89q-.52.74-1.01 1.51l-.22.34c-.3.4-.48.45-.73.39l-.18-.05q-.24-.15-.01-.68c.51-.95 1.2-1.85 1.87-2.75l1.52-2.02zm-91.26-2.27c-.38.56 6.98 12.46 11.63 13.6 3.87.94-25.3-.15-25.3-.15l7.54-7.26z"/>
  <path fill="#12111f" d="M201.39 111.46q.83-.72 1.63-1.47.29-.28.56-.57c.68-.66 1.4-1.27 2.09-1.93l.87-.91q.52-.6 1.1-1.18.17-.16.12.1a2 2 0 0 1-.29.69c-.61.91-1.25 1.81-2.02 2.62l-1.37 1.5q-.78.8-1.58 1.58l-1 .95q-.76.7-1.51 1.43c-.38.38-.7.8-1.06 1.2l-.23.26c-.31.3-.48.33-.75.16l-.19-.11c-.19-.15-.19-.42-.01-.7.54-.8 1.25-1.47 1.96-2.16q.81-.75 1.64-1.48l.02.02zm25.11 34.13q-.07 1-.2 2.02l-.12 1-.07.79-.12.37q-.02.1-.07.18l-.19.08c-.19.05-.35.15-.57.19l-.55.08-.75.1q-2.61.2-5.21.3l-2.31.14c-.99.02-1.98.1-2.98-.13-.3-.07-.25-.18.01-.35s.73-.44 1.29-.48c1.95-.27 3.93-.36 5.94-.44 1.2-.03 2.44-.25 3.64-.41l.25-.04c.07-.02.06 0 .1 0l.19-.04q.02-.06.02-.17v-.1l.01-.26c.05-.68.07-1.35.14-2.03l.21-2.5c.1-1.25.25-2.52.32-3.77.06-.97.04-1.93.08-2.9l.01-.63c.06-.8.14-1.04.41-1.2l.19-.12c.2-.07.34.26.39.84.15 1.73.18 3.56.17 5.39.01 1.36-.1 2.72-.18 4.08z"/>
  <path fill="#12111f" d="M209.75 124.75s2.74 5.88.81 9.5c-.46.86 5.65.83 5.93-.4.28-1.25-.27-8.63-.27-8.63z" opacity=".55"/>
  <path fill="#12111f" d="M243 149.97h-2.15l-.78.03q-1.39 0-2.78.03l-1.22.09q-.38.04-.78.05a2 2 0 0 1-.79-.08c-.16-.06-.14-.05-.01-.14l.27-.22q.16-.12.4-.16 1.57-.27 3.18-.29c.64 0 1.3-.1 1.96-.17l2.16-.15 1.32-.08q1.02-.05 2.01-.14c.52-.06 1.02-.18 1.52-.28l.33-.07c.43-.01.57.07.68.34l.08.18c.06.2-.1.4-.38.53-.9.33-1.86.38-2.83.46q-1.1.07-2.17.08v-.03zm36.69-.77 1.87.13.68.02c.8.04 1.6.16 2.4.2q.54.02 1.07 0 .68 0 1.37.08.2.03.01.2c-.12.09-.33.25-.58.33q-.35.1-.7.17-.35.04-.7.05-.7.05-1.41-.01c-.56-.04-1.15 0-1.72-.02l-1.9-.1-1.17-.08q-.87-.06-1.76-.1c-.45 0-.9.07-1.34.05l-.3-.02c-.36-.04-.48-.11-.56-.26l-.05-.1c-.04-.12.12-.22.39-.3.8-.3 1.66-.28 2.5-.3q.95-.01 1.9.03z"/>
  <path fill="#12111f" d="M260.19 134.23s2.86.7 2.94 1.23-2.59 3.15-2.59 3.15z" opacity=".55"/>
  <path fill="#12111f" d="m258.98 124.46.72 25.57-12.97-.48s-.97-9.16 1.6-15.65a15.6 15.6 0 0 1 10.64-9.44m-13.77-46.5s-1.96 10.33 1.46 21.42c.97 3.12-8.8 2.03-9.22-2.08s-2.51-18.32-.45-18.76 8.2-.58 8.2-.58m28.66 22.39s2.56-14.87 1.02-22.38c0 0 7.38-1.4 7.73.84.34 2.22.33 20.27-.78 20.8-1.12.52-8.77 3.47-7.97.74"/>
  <path fill="#12111f" d="M258.56 50.82c-.62.45-38.18 33.71-38.18 33.71s-1.78-4.01-.08-8.65c1.21-3.32 37.67-34 38.27-34.5.55-.46 42.3 38.39 39.92 39.82-.64.39.35 1.33-.15.95-1-.77-37.37-31.42-37.37-31.42z"/>
  <path fill="#12111f" d="M59.62 142.87c.1.03-4.96-3.12-4.96-3.12s-1.18.8-.3 2.36l2.46 4.33s-4.15-.27-5.27-1.6c-1.13-1.32-3.47-1.68-3.47-1.68s-.84 1.33 0 2.53c.85 1.2-2.5.24-2.57.99s1.16 2.83 1.16 2.83-2.08-.43-1.03 1.3c1.05 1.75 4.95 5.2 7.36 5.66 2.4.45 9.82.64 9.82.64s5-.32 6.33 1.8c1.34 2.12 14.6 22.53 15.74 23.78 1.13 1.26 7 6.5 8.98 1.92 1.97-4.59-2.1-16.09-3.16-17-1.06-.93-7.18-4.14-8.35-6.98s-7.01-11.71-8.82-13.18-6.03-4.7-7.68-4.58c-1.66.1-6.24 0-6.24 0M181.5 179l-6.34-12.38s-5.43-9.04-7.87-9.49c-2.43-.45-10.02 2.32-10.02 2.32s-8.73 6.86-4.15 6.72 5.73-1.82 5.73-1.82-1.68 3.29-.01 4.84c1.67 1.56 2.9 3.47 2.9 3.47s.82 2.88 2.35 2.67 5.09-1.15 5.09-1.15 2.73 2.71 4.11 2.53c1.4-.19 2.12 4.08 2.12 4.08l1.47 4.88zm-66.94 144.76 8.06.72s1.76-5.65-2.35-5.78c-4.1-.13-6.25-1.22-5.7 5.06m46.56-4.71s8.9 2.96 9.44 1.32c.55-1.64.88-6.83-4.58-6.32-3 .27-6.05 1.7-4.86 5" opacity=".4"/>
  <path fill="#12111f" d="M163.88 315.68q.67.1 1.35.08c.17 0 .32-.05.49-.06q.88-.04 1.76-.26.38-.1.75-.26c.31-.13.6-.3.96-.37q.16-.01.17.28c.01.29-.06.43-.22.57q-.45.36-.94.64-.51.22-1.09.3c-.44.08-.88.25-1.33.34q-.75.14-1.5.16-.47 0-.93-.02c-.47-.01-.93-.09-1.4-.11-.35-.02-.72.03-1.1.02h-.23c-.3-.06-.36-.19-.33-.57l.03-.27q.1-.46.44-.55c.63-.18 1.2-.07 1.8-.03q.65.06 1.32.1v.03zm-44.23 5.24-1.24-.35-.45-.11q-.79-.28-1.58-.53l-.71-.18c-.3-.07-.61-.1-.91-.19q-.13-.03 0-.1.16-.08.42-.12c.63-.03 1.29-.3 1.91-.16.37.07.78.01 1.16.03.43 0 .84.1 1.27.15l.77.11q.6.1 1.18.13c.3.02.61-.08.92-.12q.1-.03.2-.03c.25.03.32.16.33.57l.01.29c0 .31-.13.58-.32.69-.29.18-.57.22-.86.25q-.42.05-.85-.02-.63-.12-1.26-.27zm-5.09 2.84s3.36 2.26 5.7 1.5l2.35-.78s-.45 3.52-2.24 5.78c-1.79 2.25-6.7 7.25-11.03 8.08-4.34.83-9.53.43-7.76-1.97s8.64-3.51 9.95-6.11 3.03-6.5 3.03-6.5m46.92-5.83s5.29 2.64 7.3 2.18 2.52 1.2 2.52 1.2l10.37 8.45s5.98 2.55 3.13 3.5c-2.84.95-8.69.14-11.27-1.16-2.59-1.31-10.22-8.13-11.2-9.74-1-1.6-.84-4.43-.84-4.43z"/>
  <path fill="#12111f" d="M114.92 319.06a17 17 0 0 0 8.24.89zm45.6-3.3c2.43.93 6.75.33 9.15-.68z" opacity=".4"/>
  <path fill="#12111f" d="M108.24 314.53c.34.26.73.41 1.1.62.38.19.73.43 1.12.56.79.31 1.56.66 2.39.84l.9.22.9.13q.81.17 1.63.22c.55.03 1.1.1 1.64.1l1.66-.02 1.66-.16c.5-.03.98-.16 1.46-.27q.73-.14 1.44-.34l1.84-.5c.6-.22 1.24-.3 1.88-.45.4-.07.37 0 .1.26l-.55.52-.39.33-.22.18-.25.13a18 18 0 0 1-7.88 1.76h-1.24l-1.26-.07-.63-.02-.63-.08-1.25-.19a19 19 0 0 1-5.18-1.88l-.75-.4-.7-.46c-.46-.33-.97-.59-1.38-.97-.65-.56-1.33-1.07-1.9-1.7l-.9-.9c-.29-.3-.53-.65-.81-.97-.88-.96-1.63-2-2.4-3.02l-.44-.73c-.52-.92-.6-1.25-.47-1.58l.08-.22c.14-.18.5.1.98.7a43 43 0 0 0 4.44 5.19l.94.87c.3.28.66.52.99.79.64.56 1.36 1 2.07 1.46l-.02.04zm56.55.48q-.72.02-1.43-.1-.71-.06-1.43-.17l-1.4-.3-.69-.16-.68-.23c-.65-.24-1.34-.36-1.96-.68a23 23 0 0 1-6.05-3.91q-.6-.54-1.2-1.04c-.4-.36-.73-.77-1.1-1.15-.44-.5-.95-.95-1.34-1.5l-.6-.82-.29-.4c-.1-.15-.13-.33-.2-.48-.16-.4-.2-.31.12-.11.15.1.47.17.7.36q.4.25.81.65.7.7 1.5 1.33.75.65 1.5 1.27l1.5 1.3 1.57 1.2c.63.48 1.36.84 2.06 1.25q1.12.5 2.24.94l1.28.4q.3.11.63.2l.65.13 1.3.27 1.34.13c.55.08 1.1.06 1.64.05h.83q.42-.03.82-.1l1.24-.14 1.23-.27c.82-.14 1.6-.47 2.39-.73a21 21 0 0 0 4.08-2.25c.87-.6 1.22-.66 1.63-.5q.15.05.27.12c.24.17.02.6-.58 1.17a17 17 0 0 1-6.64 3.58l-1.41.32-.71.15-.73.08q-.72.1-1.44.16l-1.46.01zM118.2 184.12l.3-1.28.09-.47.38-1.64.16-.73q.08-.48.21-.94c.05-.19.21.09.2.46-.07.65-.1 1.3-.29 1.93-.1.38-.14.78-.22 1.18l-.25 1.29-.16.8-.22 1.2c-.05.32-.05.64-.11.94q0 .1-.03.2c-.05.26-.1.34-.23.37l-.08.02q-.13 0-.15-.3a6 6 0 0 1 .15-1.74l.27-1.3h.01z"/>
  <path fill="#12111f" d="M114.8 195.05q-.72 1.45-1.33 2.94c-.16.37-.27.75-.42 1.12q-.79 1.93-1.55 3.9-.33.86-.62 1.75l-.39 1.12c-.12.38-.33.72-.5 1.08-.13.22-.2.16-.23-.07s-.1-.67-.01-1.11c.44-1.55.85-3.1 1.46-4.63.36-.9.63-1.89.96-2.83a68 68 0 0 1 1.98-4.97c.43-.93.92-1.84 1.38-2.76.37-.71.67-1.44 1.05-2.15q.11-.24.25-.46c.36-.54.62-.62.95-.55l.22.05c.23.09.26.43.12.9-.52 1.27-1.26 2.48-1.9 3.77q-.72 1.43-1.4 2.9h-.03m55.01-.1q.62 1.32 1.14 2.67l.43.97 1.3 3.51.57 1.55q.4.98.64 2.02.07.28-.14.06c-.14-.15-.4-.4-.63-.75a22 22 0 0 1-1.85-3.87c-.3-.81-.73-1.6-1.11-2.4l-1.23-2.62q-.37-.82-.77-1.62-.59-1.22-1.25-2.4c-.35-.6-.77-1.14-1.15-1.71l-.26-.37c-.3-.49-.31-.69-.1-.96l.16-.19c.19-.17.49-.08.77.24.86.93 1.55 2.05 2.17 3.21q.7 1.3 1.33 2.63l-.03.01z"/>
  <path fill="#12111f" d="m117.44 185.2-2.13 6.66s11.27 6.3 19.57 6.13 22.7-1.86 22.7-1.86l10.88-5.29-1.67-5.34s-5 2.94-12.46 4.17c-7.45 1.23-13.54 1.84-20.52 1.53-8.24-.36-16.37-6-16.37-6"/>
  <path fill="#12111f" d="M150.14 164.54c-.17-.85-.13-7.36-.13-7.36l-2.75.9 4.51-4.91.66 11.49z" opacity=".75"/>
  <path fill="#12111f" d="m146.9 178.64 2.33-1.93 3.55 5.41-4.06.8zm44.52 13.58c-.29 1.2-.64 2.4-1.14 3.55q-.26.63-.56 1.25a8.6 8.6 0 0 1-3.3 3.53 6 6 0 0 1-2.08.65 5 5 0 0 1-2.67-.34c-.26-.1-.22-.11.03-.14l.5-.06c.2 0 .43-.13.67-.1q1.28-.01 2.39-.5a6 6 0 0 0 2.03-1.32 8 8 0 0 0 1.67-2.64 23 23 0 0 0 1.64-5.52q.3-1.65.42-3.34c.06-.87.01-1.73 0-2.58l-.01-.56c0-.7.07-.93.36-1.09l.2-.1c.22-.06.4.22.48.75a21 21 0 0 1 0 4.87 34 34 0 0 1-.59 3.68zm-10.61-10.8q-.6.82-1.25 1.58-.23.29-.47.55-.9.93-1.9 1.7-.46.34-.88.68l-.59.4q-.32.16-.65.3c-.14.07-.12.05-.04-.05s.2-.32.37-.53c.66-.68 1.28-1.38 1.98-2 .42-.37.75-.85 1.09-1.3q.56-.76 1.06-1.56.3-.5.57-1.01.43-.78.72-1.61.18-.66.27-1.31l.04-.3c.07-.36.18-.45.5-.47l.22-.02q.37.03.43.5c.05.88-.1 1.82-.48 2.66q-.4.95-.96 1.81z"/>
  <path fill="#12111f" d="M175.85 182.12s-5.1 4.66-3.86 5.9c1.23 1.23 4.87-2.34 4.87-2.34l-1.02-3.55m-76.16 10.86c.86-.14 1.74-.3 2.6-.58l.91-.34q1.64-.56 3.23-1.32.72-.34 1.4-.71c.55-.35 1.2-.58 1.81-.85.2-.08.17-.07.04.06-.13.11-.35.4-.63.66-.5.5-1.1.84-1.67 1.22q-.86.56-1.83.96c-.76.33-1.52.75-2.31 1.07q-.66.26-1.32.48c-.46.12-.91.28-1.37.37l-.86.17-.87.1c-.43.07-.88.06-1.32.09l-1.32-.04-1.02-.06-1.02-.13q-.23-.02-.45-.1c-.54-.16-.68-.3-.68-.63v-.22c.03-.25.32-.37.7-.33.56.08 1.12.11 1.69.2q.85.08 1.71.1c.43.03.87-.04 1.3-.04q.65-.06 1.3-.18v.03zm-7.43-25.98q.38 1.06.71 2.14l.28.77c.25.93.51 1.87.65 2.83l.22 1.27q.15.8.1 1.63-.03.23-.2.02a2 2 0 0 1-.37-.66c-.3-1.03-.78-1.97-1.02-3.02-.16-.62-.47-1.22-.73-1.82q-.43-1-.89-2l-.56-1.22c-.3-.62-.58-1.25-.94-1.83-.27-.46-.64-.85-.97-1.26q-.12-.13-.22-.27c-.26-.35-.2-.55.19-.86l.25-.21c.29-.2.67-.22.93 0a8 8 0 0 1 1.68 2.43q.5 1.02.93 2.05l-.04.03z"/>
  <path fill="#12111f" d="m92.68 172.92.38 1.73.3 1.74.22 1.27q.27 2.26.16 4.53c-.05.68-.06 1.35-.14 2.02a5.6 5.6 0 0 1-.7 2.5c-.16.23-.22.16-.31-.1a2.5 2.5 0 0 1-.18-1.18q.28-2.42.24-4.96c0-1.01-.17-2.07-.34-3.09a38 38 0 0 0-.66-3.38c-.14-.7-.35-1.38-.54-2.06a31 31 0 0 0-1.05-3.05c-.32-.77-.73-1.48-1.13-2.19l-.27-.46c-.32-.59-.32-.82-.08-1.12l.17-.2c.2-.17.54-.03.84.38.9 1.23 1.55 2.7 2.1 4.2q.58 1.7 1.03 3.42zm-6.73 11.72c-.42-.54 3.48 7.48 5.06 6.73 2.67-1.27 1.63-4.56 1.63-4.56s-4.26 1-6.7-2.17"/>
  <path fill="#12111f" d="M140.26 132.48c-4.92-3.81-1.28-11.44.52-12.19 0 0-6.54-3.3-6.33-7.16.22-3.86-3.92-1.25-5.4.9-1.49 2.16-3.4 6.54-2.12 10.72 1.3 4.18-.02 5.88-.02 5.88s-3.96 10.3-3.55 15.75c0 0-1.33 3.12 1.17 1.47s9.27-6.19 11.95-14.44z" opacity=".18"/>
  <path fill="#12111f" d="M132.36 145.58q-1.01.7-2.07 1.32c-.26.15-.5.33-.77.46a17 17 0 0 1-2.91 1.2q-.68.22-1.34.4-.44.12-.87.19c-.3.01-.6.04-.9-.03-.19-.04-.16-.07-.03-.2.14-.15.38-.4.68-.51.26-.15.53-.19.8-.28l.8-.29 1.6-.6c.65-.23 1.26-.63 1.87-1q1-.6 1.95-1.3l1.15-.89a20 20 0 0 0 1.63-1.5c.39-.4.7-.87 1.03-1.33l.21-.3c.28-.37.44-.43.76-.29q.13.04.22.1c.23.13.27.4.1.72-.5.93-1.22 1.77-2.01 2.54a23 23 0 0 1-1.87 1.62zm-1.14-32.4q-.78.5-1.48 1.14c-.18.16-.3.35-.46.51q-.89.85-1.58 1.92c-.22.3-.37.64-.54.97q-.13.33-.31.64l-.35.65q-.1.18-.14-.04c-.03-.14-.1-.42-.1-.72.01-.53.18-1.02.35-1.52q.26-.75.74-1.36c.37-.5.68-1.08 1.09-1.57a12 12 0 0 1 2.56-2.24l.84-.51.86-.45q.34-.17.66-.4l.67-.37q.15-.1.3-.15c.4-.12.57-.03.74.36q.08.14.12.27c.1.31.02.62-.21.8q-.52.39-1.05.63l-1.1.53q-.8.39-1.58.92l-.03-.03zm.36 17.9q.63.35 1.34.62l.53.15q.92.3 1.9.56.43.1.87.17.57.02 1.11.3c.1.11.1.13-.03.25-.12.12-.33.27-.55.31-.4.09-.78 0-1.17 0a6 6 0 0 1-1.16-.22c-.45-.15-.96-.18-1.44-.3q-.8-.2-1.55-.53-.47-.2-.92-.44-.66-.39-1.28-.84l-1.02-.62-.2-.15c-.25-.22-.26-.35-.05-.64l.14-.19c.19-.2.44-.26.64-.17.6.3 1.1.65 1.64 1q.6.37 1.22.72zm15.53 16.02q.3-.75.48-1.54l.11-.58q.24-1.02.43-2.07l.09-.94c0-.4.09-.8.1-1.2q.01-.16.09 0 .06.16.16.54.08.3.13.62a9 9 0 0 1-.04 1.87l-.17 1.53a16 16 0 0 1-.67 2.66q-.26.76-.63 1.5c-.19.38-.36.8-.77 1.12q-.12.12-.29.2c-.44.18-.64.05-.7-.22l-.02-.19c0-.22.13-.37.22-.47q.2-.23.4-.58a9 9 0 0 0 1.06-2.25zm8.43-30.86c.2.5.4.99.5 1.5q.1.27.16.54.15 1 .2 1.96l.06.85c.04.36.06.72-.02 1.08q-.04.15-.25.02a1 1 0 0 1-.37-.43 8 8 0 0 1-.49-2.04c-.03-.41-.24-.8-.38-1.2q-.24-.66-.52-1.28-.16-.4-.4-.76a5 5 0 0 0-.77-1.05c-.23-.24-.55-.39-.84-.55l-.2-.1c-.18-.2-.15-.36.05-.7l.14-.22a.7.7 0 0 1 .68-.32c.73.17 1.22.73 1.66 1.3.33.42.57.91.82 1.39zm-29.6-25.21c.41.12.83.26 1.26.57q.33.22.6.62.23.42.27.79.09.53.04.94l-.1.67c-.02.2-.03.37-.02.61q0 .66.1 1.32.09.58.24 1.16.23.72.4 1.47.02.25-.3.13a1.3 1.3 0 0 1-.63-.5 6 6 0 0 1-.98-3.13l-.02-.5-.03-.56-.02-.95q-.01-.47-.14-.65c-.08-.12-.3-.29-.58-.39a4 4 0 0 0-1.14-.26 3.4 3.4 0 0 0-1.76.22c-.43.19-.75.52-1.03.86q-.1.11-.17.23c-.22.27-.36.29-.76.09l-.27-.13a.6.6 0 0 1-.25-.82 3.9 3.9 0 0 1 2.75-1.92 6 6 0 0 1 2.55.1v.03m37.67 17.77a6 6 0 0 1-1.92-1.87q-.3-.38-.51-.82a5 5 0 0 1-.33-3.3q.16-.73.52-1.37.24-.4.59-.71.36-.29.79-.46c.17-.07.19 0 .16.2-.04.2-.07.53-.16.83-.19.49-.29.9-.43 1.31a5 5 0 0 0-.18 1.32c0 .58.26 1.14.56 1.66.33.57.77 1.1 1.31 1.49q.5.38 1.09.58c.6.21 1.24.3 1.87.16.5-.1.9-.4 1.3-.67q.12-.12.24-.2c.32-.24.48-.23.82.07l.23.2c.25.24.26.57.02.87a4.4 4.4 0 0 1-3.25 1.45 5 5 0 0 1-2.74-.7z"/>
  <path fill="#12111f" d="M135.33 109.54s-1.6 1.86-.46 5.57 5.69 5.63 8.55 5.1 5.66-1.4 7.17-3.6 1.65-4.91 1.65-4.91-9.63 2.82-12.52 1a71 71 0 0 1-5.05-3.44m-4.11-29.86c-2.56.38-7.56-13.3-4.13-20.4 4.25-8.75 13.44-11.78 14.92-12.1 1.5-.3 8.35-.6 13.24 1.5 4.89 2.09 9.12 7.33 9.12 7.33s4.08-1.82 8.35-1.55 8.67 3.85 9.9 5.77c1.24 1.93 2.6 10.32 2.6 10.32s5.11-2.07 8.55-1.52c3.44.56 8.16 4.1 10 7.14s2.48 9.01 1.8 13.45c-.66 4.45-5.2 9.19-7.53 10.47-2.32 1.28-6.98 2.88-11.25 1.65-8.43-2.4-9.31-13.7-9.85-13.18v-.76s-1.87-2.4-4.77-2.2c0 0-3.2 1.25-4.6 3.34-1.4 2.1-5.86-.93-8.45-3.34-2.6-2.4-11.16-11.75-11.91-15.06a37 37 0 0 1-.86-6.17s-2.65 1.96-4.99 3.32c-2.58 1.49-10.13 11.98-10.13 11.98zm188.31 45.9c-.15 1-.31 2-.38 3-.03.38 0 .75-.01 1.12q-.11 1.95-.04 3.95c.02.58.12 1.16.22 1.74q.1.56.14 1.12c.03.38-.02.77 0 1.15q-.04.35-.36.08c-.19-.16-.57-.46-.82-.87q-.25-.55-.43-1.12-.11-.58-.2-1.17-.17-1.18-.14-2.38c.03-.96-.06-1.95-.05-2.92q.06-1.62.28-3.21.13-.98.33-1.95.32-1.47.67-2.91c.18-.75.29-1.5.46-2.25q.04-.25.11-.5c.2-.6.38-.74.84-.7q.15 0 .32.03c.33.06.52.4.47.86-.17 1.32-.51 2.62-.79 3.95q-.33 1.48-.56 2.98zm-118.21-15.25 2.48-2.07.85-.8a66 66 0 0 0 3.12-2.75q.68-.63 1.28-1.31.38-.46.8-.85l.45-.4q.2-.2.5-.35c.23-.13.22-.1.2.16 0 .27-.02.74-.23 1.17-.34.77-.88 1.38-1.37 2.02s-1.1 1.2-1.71 1.74c-.75.64-1.38 1.43-2.08 2.14q-1.16 1.15-2.37 2.25l-1.5 1.35c-.74.69-1.5 1.35-2.2 2.08-.54.57-1 1.2-1.5 1.8l-.31.4c-.43.46-.68.5-1.15.22q-.18-.1-.32-.2c-.34-.25-.4-.68-.16-1.1a14 14 0 0 1 2.77-3.33l2.42-2.19.04.04zm75.54 32.93q.13.98.21 1.94c.02.23.1.47.1.7.06.84-.02 1.69-.08 2.52q-.04.56-.03 1.1-.02.36-.07.7c-.01.24-.2.47-.3.69-.08.13-.13.1-.27-.03l-.27-.27-.17-.17-.08-.1-.03-.1-.13-.66-.06-.67q-.04-.67-.01-1.34c.02-.55-.1-1.1-.18-1.66q-.11-.93-.25-1.84-.09-.57-.21-1.14c-.13-.57-.24-1.16-.42-1.7-.14-.44-.38-.83-.58-1.25l-.13-.27q-.08-.25.02-.42.14-.16.4-.3l.24-.13a1 1 0 0 1 .42-.03c.14.02.33.08.43.2.33.31.5.7.68 1.08a7 7 0 0 1 .41 1.21q.23.95.4 1.91zm-14.15-6.58c.2-.22.33-.43.34-.72q.01-.08-.04-.14l-.06-.13c-.11-.36-.6-.72-1.14-.75a1.3 1.3 0 0 0-.67.14c-.26.13-.45.32-.67.57-.07.07-.23.01-.35-.15-.12-.15-.23-.47-.07-.73.27-.44.72-.81 1.22-.91.5-.12 1.02-.08 1.47.11.53.22 1.13.52 1.47 1.1.36.63.38 1.43.09 2.03q-.26.55-.66.94-.62.58-1.42.88c-.4.15-.81.35-1.28.38l-.3.01c-.38-.04-.47-.21-.41-.63l.04-.3c.08-.31.27-.55.44-.62.52-.25.84-.38 1.22-.56.27-.13.56-.32.74-.55z"/>
  <path fill="#12111f" d="M260.67 131.88v4.61c0 .56.06 1.12.06 1.68l-.02 2.97-.09 2.97q-.02 1.33.02 2.63c.02 1.12.01 2.26-.2 3.37-.1.35-.18.3-.37 0-.2-.29-.49-.83-.58-1.47-.2-1.13-.26-2.27-.32-3.4a49 49 0 0 1-.08-3.44c.07-1.37-.07-2.8-.1-4.2l-.1-4.65-.05-2.86c-.04-1.45-.02-2.9-.1-4.33-.05-1.12-.2-2.2-.29-3.31q-.05-.36-.06-.73c-.04-.91.1-1.2.57-1.4q.16-.08.32-.12c.36-.1.68.28.8.94.34 1.95.45 4.01.53 6.09q.09 2.31.1 4.64h-.04zm-95.9 186.85q.66.38 1.44.6c.19.03.38.02.57.06a6 6 0 0 0 2.53-.07l.42-.2c.35-.18.67-.37 1.1-.52.18 0 .23.05.32.3.08.22.12.61-.05.9-.16.21-.33.47-.53.65q-.34.23-.7.42-.37.17-.76.26-.4.05-.8.05c-.63-.04-1.24.11-1.86.04a6 6 0 0 1-1-.16q-.49-.12-.98-.3a9 9 0 0 1-2.66-1.57q-.6-.42-1.2-.89l-.22-.23c-.23-.34-.18-.53.23-.87l.29-.21c.33-.23.7-.28.95-.18q.52.24.9.51l.4.26.37.3q.16.1.28.22l.3.2c.2.16.42.26.65.38l-.01.05z"/>
  <path fill="#12111f" d="M161.76 322.1q-.15 1.43-.23 2.86c-.02.35.02.7 0 1.04l-.1 1.85q-.06.91-.08 1.84 0 .83.06 1.64.14 1.05 0 2.1c-.04.22-.22.22-.44.05a2 2 0 0 1-.67-.88q-.16-.52-.22-1.06a18 18 0 0 1-.18-3.24c.04-.86-.06-1.76-.07-2.66q0-1.46.06-2.93l.09-1.8c.04-.9.12-1.81.12-2.71 0-.7-.1-1.4-.16-2.1l-.06-.45c0-.57.2-.74.74-.83l.37-.06c.41-.02.74.23.88.65.3 1.25.22 2.53.16 3.81l-.22 2.87h-.04z"/>
  <path fill="#12111f" d="M175.43 331.48q1.87.78 3.83 1.23c1.28.29 2.64.45 3.77.29a.6.6 0 0 0 .34-.15c.1-.1.02-.23-.04-.33l-.1-.14-.44-.43q-.47-.42-.99-.84-1.03-.82-2.13-1.6l-4.47-3.11c-.66-.48-1.34-.92-2.01-1.47a8 8 0 0 1-3.03-5 12 12 0 0 1 0-3.19c.15-.65.14-.56.42-.03.25.52.77 1.49 1.23 2.5.18.46.3.9.5 1.31q.28.62.65 1.14a8 8 0 0 0 1.8 1.92c1.58 1.17 3.4 2.34 5.1 3.6l3.16 2.32q.8.6 1.6 1.33c.7.68 1.48 1.65 1.14 2.6-.17.5-.58.89-1.07 1.15q-.37.21-.8.32l-.42.1-.32.05c-.82.1-1.59.06-2.35-.01-1.5-.17-2.94-.55-4.33-1a32 32 0 0 1-10-5.52c-.53-.41-1.07-.91-1.53-1.4a24 24 0 0 1-3.7-5.06q-.3-.63-.57-1.29a5 5 0 0 1-.35-1.87c.03-.43.15-.69.34-.88q.12-.16.24-.25c.29-.15.5.49 1 1.49q.53 1.14 1.26 2.24a25 25 0 0 0 3.2 4.21q.45.47.92.86.52.42 1.08.82a31 31 0 0 0 7.07 4.03l-.02.05zm-58.57-7.64q.55.25 1.21.33l.48-.02q.9.05 1.8-.16.4-.13.76-.34l.45-.28q.2-.17.54-.14c.15.01.31.25.43.6q.08.27.14.58.02.3-.12.42c-.34.28-.7.55-1.11.7q-.64.23-1.32.25c-.54 0-1.05.2-1.6.2a6 6 0 0 1-2.81-.64c-.51-.24-.94-.63-1.36-.99q-.22-.22-.49-.43-.24-.22-.45-.48a1 1 0 0 1-.16-.24c-.14-.33-.07-.5.32-.7l.26-.15c.3-.14.62-.12.82-.01.62.32.87.66 1.27.93.29.2.58.42.96.53z"/>
  <path fill="#12111f" d="M123.85 325.22q-.01 1.4.05 2.78c0 .34.07.68.08 1.01q.06 1.8.2 3.58.08.78.25 1.55.08.5.12 1.01l-.02.53c-.02.18.03.34.04.51.02.21-.05.2-.18.05l-.25-.32c-.1-.13-.3-.27-.44-.44q-.28-.47-.5-.96c-.14-.33-.19-.68-.28-1.03q-.22-1.02-.28-2.1c-.03-.84-.24-1.7-.33-2.55q-.15-1.42-.24-2.83l-.12-1.74q-.07-1.32-.2-2.62c-.08-.67-.29-1.31-.44-1.97q-.07-.2-.11-.43c-.1-.54.07-.73.59-.9l.36-.1c.4-.09.77.1.95.49.47 1.16.6 2.41.7 3.67l.1 2.8zm52.25-145.37q.22.79.41 1.58c.05.19.14.36.18.56q.21 1.02.31 2.08.06.45.15.91.14.59-.03 1.2c-.04.13-.13.11-.28.03-.15-.1-.38-.24-.53-.43-.14-.16-.19-.33-.25-.5l-.2-.53c-.11-.36-.23-.71-.26-1.1-.03-.47-.25-.91-.4-1.36l-.45-1.49q-.14-.46-.32-.9c-.19-.45-.35-.92-.58-1.34a4 4 0 0 0-.7-.84l-.16-.16c-.17-.22-.13-.33.17-.66l.2-.22c.23-.24.52-.3.76-.15.69.46 1.1 1.1 1.45 1.76.25.5.41 1.03.59 1.55l-.04.02zm-30.09-22.05q.03-.24.14-.55.16-.34.47-.75.64-.8 1.39-1.6l.74-.78.44-.43.45-.42c.23-.21.5-.46.76-.66.38-.3.76-.59 1.12-.72.36-.12.66-.2 1.03 0 .14.1.22.32.33.48.1.17.22.3.28.6l.12 1.09.05.53.03.35.07 1.27q.06 1.28.07 2.54c0 .9.06 1.81.04 2.7q0 .87-.03 1.74a5 5 0 0 1-.3 1.7c-.23.35-.25.3-.54-.02q-.21-.24-.44-.65a2 2 0 0 1-.24-.88c-.16-2.29-.17-4.55-.2-6.86q-.01-.63-.08-1.27l-.05-.32v-.11l-.04-.2-.04-.28c0-.13-.15-.06-.2-.03l-.31.22c-.07.05-.08.05-.23.2l-.42.39-.36.35-.18.16-.4.4a11 11 0 0 0-.63.74c.02.04.1.02.14.02q.15-.02.32-.08l.5-.18.27-.1.06-.02h.14q.16.11.24.34c.06.18.04.16.05.2v.08l.02.16c.03.78.01 1.5.02 2.25 0 1.14.1 2.26.1 3.4v.77c-.07.95-.26 1.26-.75 1.37q-.16.06-.33.07c-.36.01-.59-.38-.63-1.03-.15-1.94-.2-4.04-.3-6.1l-.04-.52v-.17q-.02 0 0-.01l.11-.02.21-.04q.07.01.12.04.1.03.23.03.24 0 .43-.11l.16-.15.03-.04-.8 1.07v.02l-.02.06-.04.2-.07.39c-.02.06-.03.03-.05.04l-.34.12q-.66.21-1.12.26-.4 0-.68-.03c-.36-.06-.46-.23-.57-.4l-.1-.15q-.09-.13-.1-.2a1 1 0 0 1-.09-.41l.07-.03z"/>
  <path fill="#12111f" d="M150.03 173.08a4.8 4.8 0 0 1-3.07-2.81 5 5 0 0 1-.37-1.48c-.05-.89.16-1.77.56-2.53a5 5 0 0 1 1.74-1.82c.63-.4 1.35-.65 2.07-.72.93-.1 1.92.17 2.57.81.15.29.1.26-.2.37q-.24.08-.53.12-.3.07-.6.09c-.69.03-1.3.1-1.85.4-.56.25-1.1.62-1.51 1.14-.53.61-.63 1.55-.5 2.35a3.03 3.03 0 0 0 3.23 2.53 4 4 0 0 0 1.3-.37q.56-.33.96-.94c.38-.6.47-1.35.44-2.03l-.06-.45c-.05-.55.07-.75.46-.99l.25-.16q.22-.12.46.02c.16.1.35.28.45.56a4.8 4.8 0 0 1-1.55 5.1q-.45.38-1.02.61a5 5 0 0 1-3.27.23v-.04zm-2.11 19.27q-4.09.31-8.17.24c-1-.01-1.99 0-2.97-.06-3.5-.23-7-.74-10.37-1.76q-2.27-.66-4.4-1.67c-.9-.44-1.81-.92-2.6-1.58a6.5 6.5 0 0 1-1.94-2.36c-.24-.6-.19-.52.35-.3.28.09.62.26 1.1.37q.34.1.65.29.33.15.66.36c3.06 2 6.73 3.07 10.55 3.84 2.29.5 4.75.52 7.16.56a79 79 0 0 0 12.85-.8c2.45-.36 4.9-.83 7.27-1.54a40 40 0 0 0 5.25-2.12q.54-.29 1.1-.56c.7-.3 1.17-.5 1.55-.54.38-.01.67.1.96.32.13.1.3.2.4.3q.25.3 0 .75c-.18.3-.5.69-1.02 1a35 35 0 0 1-10.19 3.95 66 66 0 0 1-8.17 1.36l-.01-.06"/>
  <path fill="#12111f" d="M147.88 198.89c-2.89.27-5.79.4-8.7.3q-.78-.04-1.58-.03l-1.58-.08a53 53 0 0 1-10.98-2.03 36 36 0 0 1-4.65-1.76q-1.47-.65-2.75-1.62c-.41-.35-.84-.67-1.21-1.06-.4-.37-.68-.84-.97-1.3-.34-.56-.27-.5.23-.21.25.13.6.33 1.08.47q.34.13.66.34.37.16.73.38 2.6 1.49 5.5 2.44c1.94.62 3.95 1.1 5.99 1.53 2.44.5 5.07.62 7.63.68a82 82 0 0 0 13.67-.89c2.6-.4 5.22-.93 7.74-1.68 1.95-.6 3.79-1.38 5.58-2.26q.59-.28 1.16-.6a5 5 0 0 1 1.63-.58c.42 0 .72.1 1.02.28.14.08.3.15.4.24q.26.22-.02.7c-.18.33-.5.79-1.03 1.15-3.22 2.03-7.02 3.3-10.86 4.2a73 73 0 0 1-8.67 1.44l-.01-.06zm-69.95-29.06c1.04 1.85 2.05 3.7 3.11 5.51.39.66.83 1.29 1.2 1.94a38 38 0 0 0 4.57 6.53c.8.84 1.72 1.55 2.7 2.02.62.34 1.3.44 1.95.5q.98.08 2.08-.16c.47-.07.47 0 .2.37l-.26.35q-.15.23-.4.41-.24.2-.56.39c-.22.13-.47.19-.74.26-.24.08-.48.07-.71.05l-.72-.05c-.45-.12-.95-.2-1.36-.4-.88-.3-1.6-.83-2.27-1.37a18 18 0 0 1-3.27-3.74c-1.08-1.62-2.26-3.22-3.28-4.88-1.12-1.83-2.15-3.7-3.2-5.54L75 168.63a60 60 0 0 0-3.2-4.95 27 27 0 0 0-2.98-3.32l-.69-.67a5 5 0 0 1-.83-.97q-.17-.39-.1-.75-.01-.19.05-.34.08-.24.48-.18c.27.05.67.15 1.06.43 1.2.8 2.23 1.83 3.18 2.93s1.8 2.3 2.62 3.5c1.2 1.79 2.3 3.65 3.38 5.5z"/>
  <path fill="#12111f" d="M57.98 158.26a27 27 0 0 1-5.2-.87c-.63-.17-1.27-.34-1.87-.6a12 12 0 0 1-2.98-1.84c-.45-.37-.85-.82-1.23-1.25l-.54-.7c-.19-.28-.4-.66-.6-.98q-.28-.44-.46-.9-.22-.46-.4-.9l-.06-.68-.04-.34a.13.13 0 0 1 .06-.15q.09-.05.14-.05.31-.08.7-.05.38 0 1.04.27.33.15.7.36l.36.23.17.12q.09.08.16.18l.51.61q.16.22.28.45.14.3.06.34-.07.03-.36-.03h-.36c-.14.02-.33 0-.36.03-.1.06-.1.16-.09.17.01.03-.01-.03-.07-.02q-.02 0-.03.03l.04.16.46.67.54.66c.9 1.05 2.28 1.67 3.63 2.17 1.5.55 3.13.85 4.78 1.03q1.53.15 3.09.16 2.36.03 4.73-.05c1.24-.05 2.44-.2 3.75-.12q.43 0 .88.1.83.18 1.15.53c.2.22.22.51.17.75q-.02.19-.09.32-.12.21-.46.27c-.2.04-.46.1-.71.03-.85-.13-1.89-.12-2.96-.1l-3.35.1q-2.56.08-5.19-.07z"/>
  <path fill="#12111f" d="M47.2 151.28a7 7 0 0 1-1.91-1.65 4 4 0 0 1-.79-2.23q.04-.45.11-.88c.1-.18.13-.4.29-.55q.2-.25.51-.36a3 3 0 0 1 1.47-.03l.4.1.23.07q.25.07.46.16c2.09.84 4 1.8 6.03 2.5q1.35.47 2.74.75l1.77.32.89.15c.3.03.6.16.9.2.38.1.33.1.01.26l-.68.37q-.45.19-1.02.23c-1.33.13-2.63-.19-3.88-.49-1.26-.32-2.46-.8-3.63-1.32a39 39 0 0 0-4.62-1.67q-.09-.01-.16.04-.06.06-.06.16a1 1 0 0 0-.02.3q0 .06.04.15.04.15.12.26.3.51.85.94a10 10 0 0 0 2.59 1.38c1.43.54 2.96.94 4.5 1.17 1.18.18 2.38.2 3.57.19q.38 0 .77.03.7.06 1.02.2.31.15.46.4.1.13.16.24.1.18-.19.38a2 2 0 0 1-.86.37c-.56.1-1.14.25-1.71.24q-.87.02-1.74-.04a25 25 0 0 1-3.5-.5c-1.73-.38-3.46-.9-5.15-1.81l.02-.05z"/>
  <path fill="#12111f" d="M50.1 144.68c-.4-.26-.8-.51-1.12-.65-.07-.05-.17-.08-.24 0l-.1.14a1 1 0 0 0 .02.36c.06.28.28.62.55.96.46.63 1.18 1.15 1.89 1.68q1.1.77 2.39 1.3 1.14.44 2.35.69c.51.12 1.04.14 1.55.27l.78.14c.26.05.53.16.8.22.33.1.3.13.01.31l-.6.39q-.38.22-.89.29-.45.07-.88.08-.45 0-.89-.04a10 10 0 0 1-1.75-.27 12 12 0 0 1-3.27-1.44c-.6-.38-1.24-.76-1.82-1.25a7 7 0 0 1-1.58-1.77 3 3 0 0 1-.44-1.59 3 3 0 0 1 .61-1.76q.25-.3.6-.47.38-.15.77-.1c.25 0 .52.09.74.17q.29.1.53.23c.9.46 1.64.98 2.43 1.44 1.18.7 2.38 1.34 3.67 1.67 1 .25 2.01.25 2.98.13.2-.01.41-.08.62-.1.4-.08.67 0 .87.04q.29.1.5.4.11.13.2.27c.17.29-.1.7-.76 1.02a7 7 0 0 1-3.25.44c-1.12-.1-2.21-.42-3.22-.86-1.5-.62-2.84-1.53-4.08-2.3zm74.06-.59c-.13 1.1-.12 2.17-.06 3.23l.1.77.06.34.03.12c.02.07.03.2.07.23q.08.05.19.04h.07l.15-.05.5-.19q.51-.22 1.04-.48a25 25 0 0 0 6.78-5.13q1.31-1.42 2.37-3.03c.9-1.38 1.59-2.85 2.6-4.21.42-.4.42-.32.55.22q.11.4.13 1.07c0 .42-.06.91-.24 1.39a21 21 0 0 1-2.69 4.65 23 23 0 0 1-3.85 3.78c-1.72 1.3-3.43 2.75-5.57 3.63q-.44.18-.92.32l-.25.07-.35.08c-.24.02-.47.08-.7.06-.46 0-.93-.12-1.23-.45-.2-.38-.3-.83-.47-1.23-.18-.46-.19-.72-.25-1.04-.04-.3-.12-.62-.12-.92-.04-.61-.1-1.23-.07-1.83 0-1.49.2-2.95.42-4.4.38-2.18 1-4.32 1.73-6.4a27 27 0 0 1 2.05-4.72c.2-.33.35-.69.62-1 .9-1.17 1.47-1.34 2.04-1.11l.4.17c.36.29.19.9-.32 1.62-.77 1.1-1.35 2.4-1.94 3.71a35 35 0 0 0-1.52 4.15 32 32 0 0 0-1.28 6.53zm33.24-24.48a10 10 0 0 1-.34 3.6q-.14.61-.33 1.23a13 13 0 0 1-2.3 3.81c-.44.5-.86.99-1.37 1.4a4.4 4.4 0 0 1-2.19 1.2c-.26.06-.3-.14-.22-.46q.05-.24.2-.54.1-.32.35-.52c.57-.45 1.03-1 1.54-1.52q.74-.8 1.4-1.72a8 8 0 0 0 1.03-2.55c.26-.97.42-2.02.42-3a9 9 0 0 0-1.38-4.53 8 8 0 0 0-1.5-1.64q-.17-.16-.36-.3c-.43-.4-.47-.58-.23-1.08l.16-.35c.2-.36.65-.46 1.1-.18a8.5 8.5 0 0 1 3.04 3.62q.78 1.65 1.02 3.51h-.04z"/>
  <path fill="#12111f" d="M127.02 120.56a9 9 0 0 0 1.33 5.23c.14.3.39.56.6.82.24.26.43.55.69.78.42.44.84.9 1.34 1.28.25.19.47.41.74.57l.78.53q.4.28.82.48l.85.45c.6.23 1.18.49 1.8.67 1.1.3 2.25.52 3.39.56l1.1.01c.37 0 .73-.07 1.1-.07.37-.02.75.02 1.12-.04q.54-.06 1.13-.07c.48 0 .44.06.1.33-.17.13-.42.37-.73.57s-.7.44-1.16.55q-.6.18-1.2.29l-1.24.1c-.84.1-1.67 0-2.5-.02-.42-.05-.83-.16-1.24-.24l-.61-.14-.6-.2q-.6-.2-1.18-.43l-1.13-.57a17 17 0 0 1-4.87-3.74 11.3 11.3 0 0 1-2.62-6.26q-.05-.53-.07-1.05l.08-1.05q.03-.52.14-1.03.08-.52.24-1.02a14 14 0 0 1 3.05-5.37 14 14 0 0 1 3.75-3.02q.47-.25.99-.45c1.3-.43 1.79-.26 2.12.27q.13.17.22.36c.15.41-.29.85-1.03 1.17a12.3 12.3 0 0 0-5.53 4.6 10 10 0 0 0-1.7 5.15h-.08"/>
  <path fill="#12111f" d="M144.88 121.38c-1.88.21-3.7-.1-5.38-.7a10 10 0 0 1-1.82-.8 9.5 9.5 0 0 1-4.07-5.42q-.38-1.48-.33-2.97a5.8 5.8 0 0 1 1.28-3.48c.25-.3.27-.22.28.13 0 .17.02.43 0 .7 0 .28.04.6 0 .91q-.04.85-.05 1.64 0 .8.18 1.57.35 1.53 1.16 2.94c.66 1.15 1.88 1.91 3.07 2.48 1.31.65 2.87 1.01 4.37 1.01a8.5 8.5 0 0 0 6.25-2.9 9 9 0 0 0 1.63-2.86q.13-.33.24-.68.12-.31.26-.5.1-.2.26-.32c.2-.16.4-.21.69-.22l.37-.02q.3.02.44.36c.1.23.17.56.11.94a10.5 10.5 0 0 1-3.78 6.01 10.5 10.5 0 0 1-5.15 2.23zm-22.1-28.03a7 7 0 0 0-1.38 2.6c-.08.34-.07.69-.07 1.02-.04 1.18.6 2.4 1.69 3.01.47.27 1.04.33 1.54.18.65-.2 1.2-.6 1.97-1.05.25-.13.3-.08.33.23.02.15.06.4.03.66q0 .2-.08.42l-.07.23-.14.18c-.37.4-.82.83-1.4 1-.57.2-1.22.27-1.82.19a4 4 0 0 1-2.85-1.8 6 6 0 0 1-1.19-3.66c.08-1.42.6-2.67 1.3-3.75q.67-1.04 1.63-1.8a6 6 0 0 1 3.45-1.35 3.7 3.7 0 0 1 2.89 1.15q.26.26.44.55.16.29.23.49.05.2.02.37-.05.29-.41.5-.16.11-.34.2a.9.9 0 0 1-1.07-.33q-.61-.7-1.15-.83-.53-.16-1.32.08a5 5 0 0 0-1.16.58c-.36.29-.73.58-1.02.97l-.04-.03zm83.45-10.68c.48 3.98-.2 8.05-1.96 11.6a18 18 0 0 1-2.32 3.67 17 17 0 0 1-6.06 4.52 15.5 15.5 0 0 1-13.72-.33 12 12 0 0 1-3.95-3.5q-.29-.47-.51-.95a7 7 0 0 1-.65-2.01c-.07-.89-.04-.74.28-.1q.28.48.92 1.15.31.31.7.64l.41.32.38.38a14 14 0 0 0 3.02 2.26 14 14 0 0 0 3.49 1.31 13.7 13.7 0 0 0 7.48-.45 14 14 0 0 0 4.14-2.26q1.87-1.52 3.2-3.53a18 18 0 0 0 2.9-10.05 18 18 0 0 0-1.22-6.43 15 15 0 0 0-6.21-7.52 11.5 11.5 0 0 0-7.19-1.35c-.53.06-1.04.2-1.56.31-1.91.52-2.51.73-3.24.3-.16-.09-.35-.15-.48-.24q-.3-.23.12-.8.42-.6 1.64-1.17a13 13 0 0 1 7.96-.73q2.06.45 3.92 1.5 1.85 1.08 3.33 2.56a19 19 0 0 1 5.25 10.9l-.06.02z"/>
  <path fill="#12111f" d="m129.59 88.53-.16 1.48q-.1.73-.1 1.48l-.04 1.48.06 1.49.04.74.1.73q.07.73.19 1.47c.2.95.36 1.93.7 2.86l.33 1.02.43.98.44.97.52.93a17 17 0 0 0 4.84 5.66l.76.53.82.45c.53.33 1.14.51 1.72.76 1.19.39 2.43.7 3.7.8 2.26.21 4.58-.08 6.74-.77 2.75-.95 5.32-2.4 7.49-4.42.75-.56.7-.47.36.3-.17.38-.44.92-.87 1.5-.22.29-.44.64-.73.93q-.44.45-.98.88a18 18 0 0 1-9.03 3.47 16.3 16.3 0 0 1-10.9-2.62l-.62-.42-.57-.48-1.15-.97q-.54-.53-1.05-1.08c-.73-.7-1.27-1.56-1.89-2.35-.28-.41-.52-.87-.77-1.3-.24-.44-.5-.87-.68-1.34l-.63-1.5q-.26-.79-.49-1.56-.13-.4-.23-.79l-.17-.8c-.1-.53-.24-1.05-.32-1.59a32 32 0 0 1-.31-6.43q.24-3.96 1.32-7.75c.29-.95.57-1.9.95-2.82.33-.94.77-1.83 1.19-2.73a29 29 0 0 1 3.18-5.02 43 43 0 0 1 7.76-7.87 11 11 0 0 1 2.3-1.36c.54-.23.94-.2 1.31-.08.17.05.36.08.48.16.37.22-.28 1.07-1.68 2.08a48 48 0 0 0-5.83 5.27 35 35 0 0 0-4.81 6.35 33 33 0 0 0-3.66 11.29z"/>
  <path fill="#12111f" d="M144.65 67.7c-.12.41-.14.87-.22 1.33-.02.17.03.33 0 .5q-.08.91 0 1.84.06.42.21.8.24.45.28 1.02c0 .12-.17.2-.4.2-.23.02-.57-.02-.73-.2-.29-.3-.46-.68-.62-1.04a3 3 0 0 1-.25-1.17c-.02-.48-.2-.95-.25-1.44a6 6 0 0 1 .02-1.62q.06-.51.17-.99c.09-.5.26-.98.4-1.48.12-.38.14-.8.3-1.2.04-.09.04-.2.1-.27.24-.27.43-.26.82 0q.14.07.27.17c.28.2.45.5.48.73.06.66-.12 1.06-.26 1.59-.1.39-.23.79-.28 1.23zm36.81-9.41a17.4 17.4 0 0 1 3.48 7.2c.2.93.46 1.86.52 2.81.34 3.35-.17 6.73-1.28 9.83-.26.68-.5 1.37-.82 2.03-.28.68-.64 1.31-.98 1.95-.2.42-.48.8-.74 1.18s-.52.78-.84 1.12q-.45.53-.94 1.04-.53.45-1.1.87c-.46.34-.5.17-.33-.34q.14-.4.38-.98c.2-.37.39-.8.67-1.22.97-1.47 1.83-3 2.45-4.63q.94-2.45 1.41-5.07c.38-2.1.27-4.35-.12-6.48a17 17 0 0 0-2.54-6.57 14 14 0 0 0-8.98-5.9c-1.7-.29-3.4-.1-5.03.27q-.53.12-1.06.3c-.66.16-1.1.26-1.44.25a1.2 1.2 0 0 1-.85-.4q-.2-.16-.35-.34c-.31-.41.12-1 1.16-1.52a14.5 14.5 0 0 1 10.63-.18c2.6.97 4.96 2.6 6.74 4.71l-.04.04zm-11.76 50.79q-.3.25-.63.42l-.65.36c-.46.14-.9.34-1.38.42a6 6 0 0 1-2.88-.1 6 6 0 0 1-1.9-.84 6.6 6.6 0 0 1-2.64-6.16c.08-.5.18-1 .42-1.49q.33-.71.85-1.27c.44-.48.97-.93 1.63-1.13q.5-.16 1-.15c.35 0 .68.13.97.28.36.21.23.29-.1.43-.16.07-.4.2-.59.37l-.58.42c-1.46.94-2.06 2.71-1.61 4.62.15.55.42 1.12.82 1.56q.62.66 1.4 1.09a4.2 4.2 0 0 0 5.57-1.66 5 5 0 0 0 .49-3.8 4.6 4.6 0 0 0-1.63-2.4q-.24-.2-.5-.34-.23-.15-.38-.29-.16-.12-.24-.24-.16-.25-.11-.7 0-.22.02-.43c.06-.46.57-.65 1.38-.4a5.6 5.6 0 0 1 2.82 2.46 7.3 7.3 0 0 1 .35 6.62q-.16.33-.36.66-.17.34-.42.63-.24.3-.5.59l-.57.5zm-19.86 35.6a22 22 0 0 1-.76 4.71l-.27.78q-.04.19-.22.48l-.3.54-.22.23c-.28.29-.7.35-1.1.35q-.3-.02-.6-.1l-.3-.06-.2-.07q-.79-.28-1.45-.64-1.34-.74-2.51-1.68a17 17 0 0 1-1.96-1.8c-.72-.86-1.47-1.8-1.6-2.98.09-.41-.01-.31.3-.13l.56.36q.18.1.35.24l.3.3a23 23 0 0 0 4.76 3.9q.72.44 1.53.66c.1.04.3.07.34.09l.15.02q.16.04.25-.1l.07-.12c.03-.05.1-.26.14-.4q.1-.22.16-.47c.07-.33.18-.66.22-1.01q.18-1.05.25-2.15.08-1.35.05-2.72a31 31 0 0 0-.3-4.14c-.16-1.06-.46-2.06-.76-3.07l-.2-.66c-.23-.83-.18-1.1.3-1.43q.15-.13.32-.23c.37-.21.81.05 1.1.68a20 20 0 0 1 1.44 5.96q.26 2.3.2 4.65h-.06zm34.61 14.22a87 87 0 0 1 6.16 14.8 52 52 0 0 1 1.48 5.71c.63 3.4.93 6.9.64 10.4-.15 1.75-.43 3.5-.98 5.19a14 14 0 0 1-2.55 4.73 8 8 0 0 1-2.46 1.91c-.2.08-.4.2-.6.24-.39.1-.77.25-1.17.32a9 9 0 0 1-4.81-.44 11.5 11.5 0 0 1-4.87-3.59c-.33-.39-.6-.8-.9-1.2-.24-.44-.51-.87-.72-1.32s-.44-.9-.6-1.36-.21-.98-.3-1.45c-.24-1.2-.24-1.02.3-.14.22.45.87.95 1.34 1.64.52.67 1.2 1.38 1.84 2.16.57.71 1.24 1.33 1.93 1.88.35.24.7.53 1.08.72.36.25.75.41 1.14.6 1.55.68 3.25.84 4.82.34q.31-.07.55-.19.25-.09.48-.25c.33-.18.63-.45.93-.71a9 9 0 0 0 1.52-2.05 18 18 0 0 0 1.75-5.18c.41-2.22.45-4.58.24-6.92-.22-2.36-.65-4.7-1.2-7.01a75 75 0 0 0-5.47-14.72 124 124 0 0 0-12.88-20.81q-3.48-4.5-7.44-8.45c-.58-.58-1.17-1.12-1.76-1.7-1.1-1.05-1.85-1.67-2.32-2.19-.47-.5-.68-.82-.83-1.22-.07-.16-.21-.35-.26-.5q-.07-.21.14-.27c.13-.04.46-.06.75.04q1 .23 2.45 1.33a58 58 0 0 1 7.52 7.4 115 115 0 0 1 6.63 8.48q4.67 6.6 8.48 13.73l-.04.03zm-27.57 9.86a4 4 0 0 1-.38-1.81 4 4 0 0 1 1.14-2.67c.9-.9 1.9-1.53 2.92-2.11q.7-.38 1.39-.73l.45-.21.49-.14a2 2 0 0 1 1.03-.03c.22.04.19.07.06.26-.14.17-.32.6-.6.8-.45.43-.97.68-1.46 1.05-.48.36-1 .65-1.53.97a6 6 0 0 0-1.53 1.53l-.3.41-.08.18-.07.24q-.13.49-.04.96.12.59.6 1.06l.2.16.13.1q.15.1.3.16l.18.04c.05.01.12.02.14-.05l.17-.3.23-.38.33-.44q.33-.42.78-.77.19-.16.38-.28c.53-.29.76-.22 1.03.2l.17.3a.8.8 0 0 1-.17.93 8 8 0 0 0-.93.98l-.18.25c-.05.09-.08.1-.26.43-.15.27-.28.54-.49.68l-.3.15-.08.04-.04.02h-.02v.01l.02.08-.18.05c-.74.13-1.65-.25-2.3-.71a4 4 0 0 1-1.2-1.4l.03-.03z"/>
  <path fill="#12111f" d="M168.17 159.06q-.74-.56-1.53-.93l-.4-.16-.2-.08-.14-.04a4 4 0 0 0-.79-.07c-1.2 0-2.49.27-3.7.68-.9.3-1.74.73-2.59 1.18q-.55.29-1.1.62-.5.3-.98.7a13 13 0 0 0-1.77 1.74 10 10 0 0 0-1.41 2.26l-.05.14q-.04.15 0 .3c.04.2.27.3.47.27q.14 0 .27-.06l.45-.2q.47-.26.95-.6.94-.66 1.88-1.38c.82-.6 1.66-1.2 2.6-1.67.92-.46 2-.87 3.1-.59.65.24.53.11.02.33-.25.13-.57.38-.94.62l-.56.41-.66.37c-1.67.87-3.1 2.22-4.87 3.47q-.34.24-.73.46c-.28.14-.47.28-1 .44-.94.31-1.95.03-2.45-.72a2 2 0 0 1-.3-1.28q.03-.34.13-.69c.06-.24.1-.33.17-.5q.35-.84.86-1.51a18 18 0 0 1 2.7-2.96c.5-.44 1.08-.86 1.64-1.2q.83-.51 1.74-.95a17 17 0 0 1 4.14-1.37 11 11 0 0 1 2.22-.2c.4.02.8.04 1.24.18q.55.2 1.06.43c1.69.82 2.99 2.1 4.13 3.43a39 39 0 0 1 4.24 6.62l1.41 2.64q.72 1.3 1.32 2.65l.53 1.18c.63 1.49.74 1.95.6 2.43q-.04.18-.1.33c-.12.3-.76-.18-1.4-1.21-2-3-3.45-6.36-5.32-9.46-1.38-2.28-2.93-4.52-4.9-6zM97.3 193.33l.94.07.96-.05.48-.02.48-.09.96-.16c.46-.13.91-.32 1.37-.44a23 23 0 0 0 4.76-2.13q1.04-.58 2-1.27l1.23-.88q.64-.41 1.31-.8c.29-.15.32-.04.2.26-.1.28-.33.8-.72 1.26-1.48 1.47-3.05 2.97-5.06 3.84-1.2.52-2.34 1.25-3.64 1.64-1.4.5-2.9.69-4.37.76l-1.37-.05c-.45 0-.9-.12-1.35-.18a18 18 0 0 1-3.9-1.18q-.76-.26-1.45-.58c-.47-.22-.98-.38-1.43-.64q-.3-.15-.6-.33c-.73-.45-.84-.77-.69-1.27q.05-.19.11-.34c.17-.35.65-.45 1.22-.26q.62.24 1.21.53c.4.18.81.32 1.21.5.78.4 1.6.66 2.4 1 .61.17 1.22.39 1.84.53.63.09 1.25.27 1.89.25v.05zm-22.36-41.91q-.6-.93-1.18-1.77l-.27-.35-.34-.38q-.34-.39-.72-.73c-.98-.95-2.1-1.8-3.3-2.47a17 17 0 0 0-2.76-1.2c-.83-.28-1.68-.5-2.5-.56l-.6-.01c-.18.02-.32.02-.63.07a6.8 6.8 0 0 1-4.62-1.09 16 16 0 0 1-2.3-1.87l-.38-.34-.23-.11c-.09 0-.13.1-.18.16q-.19.32-.12.68 0 .09.03.17l.08.3c.1.19.14.39.26.57a6.5 6.5 0 0 0 3.26 2.84c.23.08.46.19.7.23.24.06.48.18.73.2.63.15.59.21 0 .45-.29.12-.74.27-1.3.28-.54 0-1.2-.1-1.84-.41a7 7 0 0 1-2.82-2.43q-.27-.4-.48-.87l-.19-.48-.07-.26-.1-.38c-.02-.52-.07-1.07.1-1.51l.1-.35q.08-.15.18-.29.17-.28.38-.55c.17-.11.31-.28.52-.34q.3-.11.6-.07.57.07 1.19.6.3.25.59.52l.37.35.57.54a7 7 0 0 0 2.5 1.44q.8.25 1.65.18l.42-.05.49-.08q.62-.09 1.2-.07c1.53.06 2.94.44 4.28.97a19 19 0 0 1 5.88 3.78q.87.78 1.6 1.78c1.07 1.55 2.01 3.1 3.04 4.6a71 71 0 0 0 4.88 6.64q2.1 2.39 4.54 4.23.53.39 1.08.76c1.3.98 1.7 1.25 1.8 1.93q.07.22.1.4 0 .3-.55.3-.29.02-.68-.08a4 4 0 0 1-.87-.29c-.45-.22-.94-.41-1.37-.7l-1.25-.87c-.8-.63-1.6-1.28-2.31-2a43 43 0 0 1-4.05-4.6c-1.86-2.39-3.53-4.92-5.18-7.39l.04-.03zM92.8 290.4a78 78 0 0 1-.45-14.91 142 142 0 0 1 3.74-25.33 593 593 0 0 1 10.2-36.45 543 543 0 0 1 6.95-21.02c.6-1.68 1.18-3.38 1.89-5.03.67-1.66 1.34-3.32 2.1-4.94l1.13-2.44c.43-.79.8-1.6 1.26-2.37.6-.95.86-1.36.88-1.31.01.04-.2.55-.45 1.47-.23.93-.7 2.17-1.12 3.74-.43 1.56-1.01 3.34-1.63 5.3l-.86 2.57-.9 2.57c-.56 1.72-1.18 3.42-1.72 5.15l-1.68 5.18-1.62 5.2q-3.34 10.38-6.52 20.9a369 369 0 0 0-6.65 25.96c-.5 2.4-1.01 4.81-1.38 7.2-.38 2.42-.66 4.88-.92 7.3-.5 4.88-.79 9.79-.58 14.67.03 1.5.18 3 .3 4.5.2 1.48.36 2.97.66 4.44a43 43 0 0 0 2.46 8.59c.19.53.46 1.03.68 1.55q.35.77.73 1.53l.82 1.48q.4.75.88 1.45c1.2 1.9 2.67 3.63 4.29 5.16a19.4 19.4 0 0 0 11.84 5.48l1.28.05c.42 0 .84-.06 1.27-.09.85-.03 1.67-.27 2.5-.42 1.61-.49 3.2-1.1 4.62-2a22 22 0 0 0 7.15-6.98c.8-1.25 1.42-2.57 2-3.95 1.06-2.58 1.61-4.36 2.06-5.6q.33-.93.62-1.51.35-.57.65-.97c.2-.25.38-.58.52-.72.32-.5.68 1.97-.47 6.17a28 28 0 0 1-4.17 8.99q-1.5 2.08-3.44 3.8a25 25 0 0 1-4.24 3 19 19 0 0 1-10.26 2.42 20 20 0 0 1-10.04-3.4 27 27 0 0 1-5.83-5.22 35 35 0 0 1-4.22-6.5 47 47 0 0 1-4.34-14.6l.05-.03zm95.59-22.1c.24 5.82.14 11.7-.5 17.52l-.24 2.18-.35 2.18-.36 2.17-.47 2.16a40 40 0 0 1-2.69 8.49c-.92 2-2.09 3.92-3.55 5.61a20 20 0 0 1-5.1 4.26q-.62.38-1.28.71a22 22 0 0 1-4.04 1.7 19.3 19.3 0 0 1-16.75-2.87 28 28 0 0 1-7.6-8.52 50 50 0 0 1-4.57-10.33 90 90 0 0 1-3.86-19.5c-.7-8.43-.65-16.93.26-25.3.28-2.6.2-2.25.31-.03.06 1.11.17 2.69.36 4.6.13 1.9.2 4.13.28 6.54.1 8.54.67 17.05 2.48 25.32.9 4.13 2.04 8.23 3.66 12.12a43 43 0 0 0 2.78 5.63q1.58 2.72 3.7 5.03a20 20 0 0 0 5.93 4.46 16.8 16.8 0 0 0 14.55.05c2.34-1.1 4.5-2.47 6.27-4.26q1.47-1.45 2.58-3.23a23 23 0 0 0 1.9-3.72 43 43 0 0 0 2.33-8.19 91 91 0 0 0 1.74-17.16c.13-7.12-.45-14.25-1.4-21.3a234 234 0 0 0-6.63-31.71 348 348 0 0 0-7.66-23.6l-1.86-5.1a87 87 0 0 1-2.26-6.88 9.4 9.4 0 0 1-.2-4.32q.1-.26.32.07.2.3.62 1.14a51 51 0 0 1 2.24 5.19c5.36 13.79 10.34 28.7 13.92 44.04 2.66 11.4 4.6 23.06 5.17 34.84l-.06.01zm-85.33 68.76-.4.22-.06.03h-.04l-.12.06c-.12.07-.05.18.02.24.05.03.06.06.17.1q.35.1.77.18.81.12 1.71.11c.87-.02 1.75-.2 2.63-.38a21 21 0 0 0 8.69-4.08 16.5 16.5 0 0 0 4.37-5.47q.32-.6.7-1.19.43-.58.77-1.21c.3-.52.27-.46.32.08.02.27.1.67.16 1.17.02.25.08.53.08.81a6 6 0 0 1-.16.86c-.36.99-.88 1.9-1.47 2.78q-.86 1.32-1.97 2.42a20 20 0 0 1-5.04 3.6 27 27 0 0 1-7.07 2.58c-1.38.21-2.82.33-4.29.02q-.27-.05-.54-.14l-.28-.09-.35-.14-.69-.34-.58-.44c-.31-.33-.67-.64-.7-1.1-.07-.48.16-.87.45-1.21a6 6 0 0 1 1.43-1.07l1.1-.6q1.08-.55 2.12-1.15c2.1-1.2 4.12-2.56 5.72-4.3q.94-1.02 1.65-2.18c.44-.72.68-1.45.77-2.28.04-.37.03-.75.06-1.15.03-.76.2-1.29.35-1.64.16-.36.41-.54.73-.65q.2-.1.39-.15c.38-.08.74.6.81 1.7.07.82.07 1.7-.09 2.72a7 7 0 0 1-1.22 2.9 20 20 0 0 1-3.87 4.15c-2.17 1.77-4.7 3.07-6.99 4.27l-.02-.04zm141.43-273q-3.33 2.66-6.57 5.42c-.8.67-1.52 1.4-2.31 2.08-2.77 2.39-5.6 4.72-8.29 7.19-1.21 1.08-2.35 2.24-3.5 3.37l-2.2 2.19c-.75.72-1.48 1.46-2.43 1.97-.63.3-.57.23-.42-.38.15-.63.42-1.78 1.24-2.64a94 94 0 0 1 9.12-8.93c1.95-1.66 3.81-3.57 5.78-5.3q3.22-2.87 6.54-5.63l4.11-3.38c2.07-1.71 4.21-3.35 6.26-5.04 1.61-1.31 3.1-2.7 4.68-4.02q.5-.46 1.03-.88a6 6 0 0 1 1.54-.94c.4-.11.71-.06 1.06.11.15.09.33.14.45.24q.32.25.12.77c-.12.35-.4.79-.85 1.2-2.66 2.49-5.65 4.85-8.65 7.24-2.21 1.8-4.47 3.56-6.66 5.4z"/>
  <path fill="#12111f" d="M229.45 64.84c2.51-2.22 5.1-4.35 7.65-6.5.93-.78 1.83-1.62 2.77-2.39q4.98-4.08 10.02-8.1a193 193 0 0 0 4.38-3.65q1.37-1.2 2.8-2.33l1.44-1.12c.48-.38 1.02-.68 1.52-1.03.65-.4.66-.23.33.38q-.25.46-.7 1.22-.48.71-1.25 1.46c-1.76 1.75-3.66 3.33-5.53 4.96a172 172 0 0 1-5.74 4.76c-2.35 1.83-4.63 3.95-6.94 5.95A822 822 0 0 0 228 69.19c-2.3 2.12-4.59 4.26-6.65 6.55a25 25 0 0 0-2.64 3.46q-.21.36-.36.7c-.05.1-.03.12-.05.21l-.03.36q-.01.37.03.78.07.72.22 1.4c.19.88.37 1.4.43 1.8.08.4.03.7-.1 1.02-.05.15-.09.33-.16.45q-.18.34-.74-.03a4 4 0 0 1-1.1-1.52 10 10 0 0 1-.77-4.56c.02-.17.07-.46.17-.7.09-.22.16-.34.23-.5.31-.62.64-1.11.98-1.6a46 46 0 0 1 4.56-5.23 184 184 0 0 1 7.4-6.99l.04.04zm55.1 6.88q-3.06-2.82-6.2-5.56c-.78-.67-1.6-1.27-2.37-1.93a763 763 0 0 0-8.2-7q-1.85-1.54-3.7-3.02c-1.6-1.27-3.21-2.54-4.48-4.19-.4-.51-.28-.52.3-.37l1.18.3q.72.2 1.49.67c.43.29.9.53 1.31.84l1.25.92 2.49 1.86q2.43 1.93 4.77 4.03c1.88 1.67 4 3.18 6 4.8q3.28 2.67 6.49 5.44l1.96 1.72 1.94 1.75c1.96 1.77 3.84 3.63 5.76 5.42q1.1 1.05 2.24 2.04 1.13 1 2.23 2.06.5.43.96.92c1.14 1.22 1.35 1.74 1.03 2.48q-.1.27-.22.49c-.31.46-1.13.29-2.03-.5-2.7-2.33-5.32-4.93-8.07-7.47l-3.06-2.84-3.12-2.8.04-.05z"/>
  <path fill="#12111f" d="M289.14 67.2a778 778 0 0 0-7.29-6.52c-.9-.79-1.83-1.52-2.73-2.31a486 486 0 0 1-9.28-8.55c-1.35-1.3-2.75-2.55-4.11-3.82-1.78-1.58-3.5-3.3-4.64-5.49-.35-.68-.3-.6.31-.3.66.25 1.86.7 2.98 1.48q.72.56 1.4 1.13c.47.38.88.81 1.33 1.2l2.65 2.44 2.66 2.46 2.62 2.54c2.07 2.05 4.47 3.93 6.73 5.88l7.44 6.5 4.55 4.04c2.28 2.07 4.54 4.16 6.67 6.43q.63.67 1.22 1.4.3.37.57.82c.1.12.16.34.24.5l.12.28.06.22a12 12 0 0 1 .43 5.45 6 6 0 0 1-.78 2.08c-.3.4-.6.56-.98.62-.18.03-.37.08-.52.07-.54-.05-.55-.92-.36-2.19.27-1.89.2-3.7-.36-5.54-.04-.1-.06-.1-.08-.15l-.03-.06-.08-.12q-.13-.23-.36-.5c-.26-.36-.61-.74-.95-1.12a54 54 0 0 0-2.24-2.25c-2.32-2.21-4.77-4.4-7.24-6.56zm2.63 33.44c.1-1.53.15-3.06.25-4.6.03-.56 0-1.11.04-1.68q.22-2.96.38-5.9.07-1.33.08-2.63l.01-1.68c0-.55.14-1.11.22-1.67.07-.35.2-.3.41 0a5 5 0 0 1 .56 1.01l.09.23.03.23c.23 2.28.41 4.56.19 6.85-.11 1.38.01 2.81.01 4.21q0 2.33-.09 4.64l-.07 2.86c-.02 1.44-.08 2.89-.07 4.32.02 1.11.16 2.2.24 3.3.01.25.06.49.04.73-.02.9-.17 1.19-.64 1.38q-.16.08-.32.12c-.36.08-.67-.29-.84-.95-.49-1.96-.56-4.03-.65-6.11-.05-1.55.05-3.1.07-4.64h.05zm-76.32 13.81 7.4.2c.23.03.4-.01.68 0q.06.02.09 0l-.03-.04-.07-.11-.17-.26-.1-.14-.06-.09-.1-.14-.78-.95c-1.03-1.27-2.09-2.52-3.09-3.8a77 77 0 0 0-2.82-3.29q-.94-1-1.84-2.07l-.88-1.07q-.22-.27-.38-.59l-.36-.61c-.29-.52-.2-.5.3-.3l1.1.35q.63.27 1.26.8c1.47 1.22 2.75 2.61 4.05 3.99q.97 1.05 1.9 2.1c.63.72 1.18 1.5 1.76 2.26q.5.68 1.06 1.35l.67.8q.48.55.93 1.1l.88 1.07.1.13.02.09.02.17.04.35.03.18v.09l.01.04v.02l-.28-.12-.01.02-.17.21c-.13.13-.15.4-.56.46-.4.1-1.01.06-1.52.07l-1.57.01-1.98-.01-3.84-.04-4.72-.04c-2.38 0-4.77-.05-7.14.03-1.83.06-3.63.25-5.44.4q-.6.08-1.2.12c-1.49.1-1.96-.04-2.3-.65q-.15-.2-.24-.41c-.17-.47.43-.9 1.53-1.08 3.25-.53 6.69-.65 10.13-.7q3.85-.04 7.69.02zm-20.93 24.51.01-5.2c0-.62-.06-1.25-.05-1.88 0-2.23.1-4.45.1-6.68q0-1.47-.09-2.95c0-1.26-.14-2.51.14-3.78.17-.4.22-.34.51-.02q.23.25.48.67.27.42.35.97l.23 1.92q.07.97.08 1.92.05 1.92-.04 3.88c-.06 1.54.08 3.15.1 4.74l.04 5.22.03 3.22c.03 1.62.03 3.25.12 4.86.05 1.25.22 2.47.33 3.7q.05.4.08.81c.06 1.02-.06 1.35-.52 1.58q-.16.1-.32.16c-.35.1-.68-.3-.82-1.04-.42-2.2-.62-4.53-.7-6.87q-.07-2.61-.1-5.23zm97.53-10.49.01-3.37c0-.4-.05-.81-.04-1.23 0-1.44.08-2.88.08-4.32q0-.96-.07-1.92c0-.81-.12-1.63.1-2.45.15-.26.18-.22.42-.01q.18.15.38.43.22.28.28.63l.19 1.24q.06.63.06 1.25.05 1.26-.03 2.51c-.06 1 .06 2.05.07 3.08l.04 3.39.02 2.08c.03 1.06.03 2.11.1 3.16.04.8.18 1.6.26 2.4l.07.53c.05.65-.05.87-.42 1.02q-.12.06-.25.1c-.28.07-.55-.2-.66-.68-.34-1.42-.5-2.93-.56-4.45q-.06-1.7-.08-3.4zm7.12-20.56-.19.17q-.05.04-.04.05l.03.02.1.02c-.31.04 1.78.06 3.05.08.95.01 1.9-.03 2.85 0 3.36.06 6.7.22 10.04.23q2.24 0 4.45-.12c.94-.05 1.88-.15 2.82-.17l1.42-.03c.47-.03.96.14 1.44.23.6.16.53.16.05.47-.24.14-.57.42-.98.7a4 4 0 0 1-1.47.45q-1.46.2-2.91.24a98 98 0 0 1-8.78.03c-2.34-.1-4.77 0-7.16-.02l-3-.04-1.5-.01h-2.32l-.85-.32-.43-.14h-.02l.38-.2v-.06l.02-.07.03-.16q.05-.21.06-.47.02-.14.07-.3c.04-.1 0-.2.14-.33l1.22-1.44 1.53-1.88c1.54-1.9 3.1-3.8 4.57-5.73 1.14-1.5 2.17-3.05 3.22-4.6l.68-1c.88-1.26 1.26-1.57 1.86-1.55.13 0 .29-.01.4.02.42.09.33.8-.24 1.8a81 81 0 0 1-6 8.54l-2.46 3.09-2.05 2.54h-.05z"/>
  <path fill="#12111f" d="m318.57 98.03 2.18 2.49c.26.3.57.56.83.86a68 68 0 0 0 2.86 3.14c.44.45.93.85 1.38 1.27l.9.79q.41.44.77.95c.15.22.05.3-.24.33-.29 0-.8.03-1.28-.14-.7-.44-1.41-.89-2.03-1.45q-.92-.83-1.75-1.8c-.66-.75-1.47-1.4-2.2-2.11q-1.17-1.18-2.3-2.43l-1.4-1.52c-.7-.76-1.4-1.55-2.14-2.25-.57-.56-1.25-1-1.84-1.52l-.4-.33c-.47-.44-.52-.7-.27-1.14q.08-.16.18-.31c.23-.32.64-.36 1.07-.12 1.32.7 2.39 1.74 3.43 2.82q1.15 1.21 2.28 2.44zm6.68 36.69q0-2.92-.06-5.83c0-.71-.07-1.42-.07-2.13l-.06-7.52c-.01-1.11-.09-2.23-.13-3.33l-.07-2.13v-.53l.06-.54.14-1.06c.07-.45.13-.39.3-.03l.37.77.21.5q.05.15.12.28l.05.3c.38 2.88.44 5.76.44 8.68-.01 1.74.17 3.55.25 5.33.1 1.96.1 3.93.15 5.9l.04 3.63c.03 1.83 0 3.67.04 5.49.01 1.42.16 2.8.16 4.21q.02.45.02.92c-.04 1.16-.18 1.52-.6 1.75q-.15.1-.3.14c-.32.1-.58-.38-.67-1.22-.32-2.48-.32-5.08-.35-7.71l-.08-5.87zm-107.22-5.37a34 34 0 0 1-.14 3.47 5 5 0 0 1-.52 1.63q-.32.39-.8.57-.24.1-.49.16l-.4.08q-1.12.2-2.16.22a43 43 0 0 1-5.47-.33l-.46-.08-.23-.04-.33-.06a3 3 0 0 1-.62-.2c-.09-.07-.22-.08-.23-.21l-.12-.27-.1-.27-.04-.3-.03-.3-.01-.2-.06-.81-.1-1.59q-.1-1.01-.07-2.04 0-.51.04-1.02c.01-.34.12-.68.18-1.02.1-.42.16-.36.33 0q.13.28.39.73.21.45.3 1.03c.26 1.34.35 2.7.53 4.04.04.3.11.8.07.69q-.03.06.03.1c-.08.02.4.07.7.1l1 .12a26 26 0 0 0 6.05-.13l.33-.07q.12-.02.2-.1a1 1 0 0 0 .1-.32l.08-.72q.04-.76.04-1.53a59 59 0 0 0-.14-3.38l-.1-1.05-.03-.3c-.01-.1-.03-.22-.14-.24l-.41-.08-.69-.08-1.46-.1c-1.33-.04-2.64.08-3.94.18l-.86.1c-1.06.04-1.4-.08-1.67-.6l-.18-.34c-.14-.36.28-.8 1.1-.98 1.2-.25 2.46-.33 3.71-.35q1.89-.03 3.84.16l.3.04c.14.02.37.04.53.08l.55.12q.26.07.5.19.1.06.17.15l.05.04.02.02h.02v.01l-.06.06v.01l.07.1.28.38q.2.46.28 1.02l.08.66.07.57q.13 1.14.18 2.29zm20.14-39.08q.1 2.73.3 5.44c.09.88.19 1.8.3 2.6l.04.17.02.07q.04.05.12.09l.2.08.26.1c.16.08.38.1.58.17 1.18.3 2.5.34 3.8.4a53 53 0 0 0 8.68-.37l.5-.07c.17.02.13-.17.15-.27v-.23l.01-.44v-.88l-.01-1.77q-.06-3.15-.2-6.28-.07-2.01-.08-4.02a25 25 0 0 1 .25-4.03c.27-.83.18-.71.41 0q.19.54.41 1.45.13.45.22.97t.12 1.1l.27 4.07.15 4.09q.07 2.05.1 4.11v1.93q0 .24-.03.47c-.02.3-.07.6-.25.79l-.07.07-.02.01h-.01v.02l.04.03-.06.02-.2.08-.38.16c-.23.11-.6.17-.82.2l-.53.08c-3.36.35-6.78.68-10.25.5-.96-.1-1.9-.16-2.9-.42q-.37-.08-.75-.22c-.13-.05-.24-.07-.4-.16l-.48-.29c-.35-.15-.55-.48-.68-.82-.14-.39-.17-.59-.22-.85-.35-1.91-.44-3.75-.57-5.62q-.2-3.44-.26-6.87a74 74 0 0 1 .1-5.44l.08-.93c0-.13.07-.38.1-.57.03-.22.12-.4.16-.6l.14-.23c.1-.02.14-.09.23-.12q.22-.15.48-.22l.54-.14.43-.08 1.59-.24a56 56 0 0 1 9.78-.56c2.21.17 2.9.47 3.26 1.12.08.14.2.3.23.43.13.46-.8.69-2.34.6a66 66 0 0 0-10.24.37q-.87.1-1.71.26l-.42.09-.07.01v.07l-.04.3-.05.65q-.04.65-.06 1.33-.04 1.34-.03 2.72 0 2.75.14 5.5h-.05zm46.04.57q-.2 2.71-.51 5.44c-.12.92-.22 1.82-.48 2.8l-.06.2-.1.28q-.1.28-.25.52-.1.1-.18.24l-.25.15-.5.32c-.19.13-.31.14-.44.19l-.38.12c-.25.1-.5.12-.74.18-1.42.27-2.77.39-4.13.39a48 48 0 0 1-8-.7l-.57-.12c-.22-.03-.56-.12-.84-.18l-.38-.2-.1-.04c.03-.06-.04-.05-.04-.09l-.11-.18c-.1-.26-.1-.6-.11-.92v-.71l.03-.62.1-2.44q.14-3.09.19-6.15l.1-3.92q.03-1.97.24-3.92c.21-.82.13-.71.41-.03q.22.52.45 1.42.13.45.22.97.07.5.1 1.09l.1 3.86-.1 3.86-.13 3.85-.07 1.92-.01.47v.14l-.02.1c0 .04.05.03.08.06l.06.02.04.02.14.03c3.07.59 6.46.7 9.63.5a14 14 0 0 0 2.53-.4c.2-.03.37-.12.55-.17.23-.08.27-.1.34-.14.18-.08.17-.2.27-.68.28-1.7.46-3.52.61-5.3a135 135 0 0 0 .42-10.35q0-.91-.06-1.83l-.07-.89-.05-.33-.06-.25c0-.16-.16-.18-.28-.2l-.42-.1q-.64-.11-1.3-.2c-2.53-.3-5.07-.23-7.58.02-.55.05-1.08.15-1.64.21-2.05.27-2.71.29-3.27-.22-.12-.11-.28-.21-.36-.33-.29-.37.5-.96 2.07-1.3a32 32 0 0 1 10.32-.5q.9.1 1.78.26l.46.07c.2.04.55.08.79.2.26.09.53.16.7.35l.13.12.07.05.04.03s-.07.08.08-.06l.01.03.24.31c.07.27.21.5.25.79l.1.42.04.2.01.13c.24 1.98.18 3.78.17 5.64q-.07 2.76-.24 5.5zm-37.49 39.95a20 20 0 0 1 3.8-7.12l1.05-1.1c.33-.38.78-.66 1.17-.97a12.2 12.2 0 0 1 10.07-1.96c1.5.36 2.95.95 4.23 1.78.82.54 1.6 1.16 2.19 1.96l.45.59.35.64c.11.22.25.41.33.65l.18.72c.1.6.05.53-.4.22-.5-.3-1.32-.79-2.03-1.42-.32-.27-.63-.57-.99-.79q-.25-.17-.48-.38l-.52-.35c-.68-.48-1.44-.82-2.2-1.14q-2.37-.84-4.97-.73a8 8 0 0 0-3 .8c-.5.18-.93.51-1.39.77l-1.25.98a15.6 15.6 0 0 0-3.94 5.96c-.25.72-.55 1.42-.73 2.16l-.31 1.1-.24 1.13a38 38 0 0 0-.77 6.97c0 1.82.17 3.6.37 5.38.03.4.1.78.12 1.18.13 1.47-.1 1.96-.5 2.32-.1.08-.2.2-.29.24-.31.18-.7-.4-1.04-1.47q-.56-2.43-.69-5.03-.16-2.6.02-5.25c.18-2.62.6-5.26 1.35-7.85zm41.56 9.28q3.15.25 6.3.4c.76.04 1.53.03 2.3.08l8.12.48q1.8.12 3.61.19c.77.03 1.54.04 2.31.12a18 18 0 0 1 2.29.4c.47.12.4.22-.02.38a7 7 0 0 1-3.23.55l-1.17-.02-2.34-.04a60 60 0 0 1-4.7-.27c-1.88-.16-3.85-.11-5.78-.18q-3.19-.1-6.37-.28l-3.93-.23q-2.98-.2-5.94-.53c-1.53-.16-3.05-.27-4.6-.58q-.5-.1-1.02-.24c-1.27-.39-1.63-.83-1.6-1.38q-.01-.2.05-.37.1-.27.49-.28.36-.01.94.15c2.4.58 5.2.85 8 1.12q3.11.3 6.3.49zM299.8 175q.54-.06 1.06.16c.36.15.7.44.88.77.15.33.24.62.25.98-.01.36-.05.76-.3 1.22-.3.65-.74 1.32-1.13 1.84a33 33 0 0 1-3.17 3.18l-1.46 1.3a6 6 0 0 1-2.16 1.33c-.27.07-.26-.07-.14-.3.13-.22.33-.6.66-.9 1.19-1.05 2.25-2.3 3.38-3.48a8 8 0 0 0 1.31-1.8c.15-.27.2-.33.25-.4q.19-.23.36-.59c.05-.11.1-.25.06-.38-.03-.13-.13-.24-.25-.25-.28-.04-.56.14-.84.33l-.38.3q-.3.25-.58.52-.57.53-1.1 1.1c-.54.61-.96 1.31-1.54 1.91q-.17.2-.39.4c-.54.45-.84.49-1.24.2q-.14-.09-.25-.2c-.25-.25-.22-.62 0-1.03l.5-.95c.18-.33.4-.6.63-.91q.69-.88 1.53-1.72.3-.3.64-.6l.34-.32.54-.46c.86-.7 1.8-1.25 2.55-1.3zm-17.83.7c-.1-.72.01-1.26.53-1.73.13-.1.27-.14.4-.22l.46-.06c.33 0 .64-.01 1.01.1l.39.1q.2.07.4.18.4.16.77.4l.15.11.1.07.2.14.36.3.7.62q.67.64 1.24 1.38.51.63.96 1.3c.4.56.7 1.23.75 1.94.02.21-.1.2-.3.09a4 4 0 0 1-.73-.6c-.44-.45-.8-.94-1.26-1.37q-.67-.64-1.33-1.33a4 4 0 0 0-.9-.7l-.51-.29-.13-.06-.04-.03-.09-.05a2 2 0 0 0-.49-.23q-.15-.05-.31-.02c-.09.05-.1.16-.1.24q.03.33.22.74c.34.66.78 1.43 1.28 2.08.4.5.89.93 1.35 1.35l.3.27c.35.36.38.53.14.96l-.15.28c-.2.3-.58.38-.97.16-1.13-.66-2-1.6-2.74-2.67q-.4-.59-.78-1.24l-.24-.44q-.17-.3-.3-.6-.28-.6-.4-1.17h.05m-49.86-18.91 5.4.16c.65.02 1.3-.01 1.96 0l6.92.22q1.54.05 3.07.04h1.96q.97-.02 1.96.14c.4.07.35.2 0 .42q-.25.16-.7.38-.43.18-1 .23c-2.67.2-5.33.42-8.02.2-1.6-.1-3.28.02-4.92.03l-5.42-.03-3.34-.01c-1.69.01-3.38-.04-5.05 0-1.3.03-2.58.17-3.86.25q-.43.05-.85.07c-1.06.04-1.4-.08-1.63-.54q-.09-.15-.15-.31c-.1-.35.32-.65 1.1-.78 2.29-.36 4.7-.49 7.13-.55 1.8-.07 3.62.02 5.43.03v.04z"/>
  <path fill="#12111f" d="M245.91 165.7c1.99.02 3.98.07 5.98.06.73 0 1.45-.06 2.18-.05q3.86 0 7.73.1h3.42l2.18.01q1.1.05 2.19.15c.45.05.39.27 0 .48s-1.1.46-1.93.49c-2.95.11-5.9.3-8.88.28-1.78-.03-3.64.15-5.47.22q-3 .13-6.04.16h-3.73c-1.88 0-3.77-.09-5.64-.12q-1.1-.02-2.18 0-1.08 0-2.16-.04a7 7 0 0 1-.95-.06c-1.18-.15-1.54-.33-1.74-.8l-.13-.32c-.06-.35.45-.59 1.3-.65q1.94-.13 3.9-.11l3.98.1c1.99.03 3.98.08 5.98.06zm56.29 28.07q1.32.17 2.65.3l.96.07q1.7.2 3.4.37l1.5.09q.98.02 1.94.12c.2.02.17.09 0 .18a3 3 0 0 1-.86.22c-1.31.11-2.62.22-3.95.16-.78-.03-1.61.03-2.41.03q-1.34-.01-2.67-.04l-1.65-.05q-1.24-.08-2.48-.07c-.64 0-1.26.08-1.9.13l-.42.03c-.52 0-.69-.1-.79-.46l-.07-.26c-.04-.28.17-.53.55-.61q1.7-.4 3.52-.35 1.34.01 2.67.13v.03z" opacity=".55"/>
  <path fill="#12111f" d="M142.38 48.13a23.5 23.5 0 0 0-9.3 4c-.24.2-.5.35-.72.57l-.68.63-.68.64-.62.68a22 22 0 0 0-5.8 11.74c-.09.98-.2 1.97-.11 2.95-.03 1 .19 1.95.32 2.92l.52 1.8q.38.86.72 1.74.42.83.88 1.66l.95 1.68c.37.73.3.67-.32.3l-1.34-.8q-.22-.13-.38-.33l-.36-.39q-.37-.42-.72-.9a16 16 0 0 1-2.34-8.17c0-2.87.64-5.69 1.78-8.27 1.37-3.06 3.13-6.14 5.66-8.52l1.05-.96c.34-.32.75-.57 1.13-.87.75-.6 1.58-1.03 2.38-1.52l.61-.36.64-.3 1.27-.59c.86-.38 1.77-.64 2.64-.96 2.22-.6 4.5-1.02 6.81-1.05 3.49-.08 7 .7 10.11 2.25a19 19 0 0 1 6.39 4.89l.3.32.26.36.51.74c.3.48.59.86.72 1.22q.21.55.3.92c.11.51.04.86-.15 1.2-.09.14-.15.31-.25.42-.31.33-1.12-.26-1.84-1.52a22 22 0 0 0-4.4-4.77 19 19 0 0 0-5.9-2.93 21 21 0 0 0-10.01-.38l-.02-.06z"/>
  <path fill="#12111f" d="M150.63 75.4a31 31 0 0 0 3.23 4.2q.68.7 1.4 1.37a41 41 0 0 0 5.22 4.5 23 23 0 0 0 6.1 2.86c.33.14.41.22.07.58q-.13.14-.34.26-.22.13-.5.22c-.17.05-.4.12-.6.14q-.3 0-.63-.06-1.09-.27-2.1-.67-.98-.44-1.89-1a23 23 0 0 1-3.4-2.5c-1.27-1.12-2.64-2.19-3.85-3.4a35 35 0 0 1-5.52-7.27 25 25 0 0 1-2.06-4.88 21 21 0 0 1-.88-4.02q-.05-.45-.06-.91a3 3 0 0 1 .25-1.2 1 1 0 0 1 .56-.46q.16-.07.32-.1c.32-.05.63.44.7 1.17a24.6 24.6 0 0 0 4.04 11.14l-.04.03z"/>
  <path fill="#12111f" d="M176.54 86.19a5 5 0 0 1 1.02 3.14 8 8 0 0 1-.55 2.8q-.29.95-.76 1.82c-.57 1-1.24 1.94-2.12 2.72a9 9 0 0 1-2.9 1.8c-.96.35-2 .5-3 .44a6 6 0 0 1-1.88-.4 6 6 0 0 1-1.6-.99c-.26-.32-.19-.32.2-.37a8 8 0 0 1 1.64.02c.55.05 1.05.22 1.57.21a6 6 0 0 0 2.94-.66 9 9 0 0 0 1.36-.86q.8-.62 1.33-1.48c.37-.58.65-1.23.92-1.86.55-1.38.9-2.95.45-4.13a2.5 2.5 0 0 0-1.64-1.52 5 5 0 0 0-1.95-.33c-.66.02-1.33.21-1.92.52a6 6 0 0 0-2.17 2.23l-.35.6c-.43.73-.69.9-1.3.86l-.4-.02q-.32-.05-.44-.41c-.08-.24-.11-.59.01-.98q.25-.86.7-1.68.5-.8 1.22-1.5a7.3 7.3 0 0 1 3.61-1.92 7 7 0 0 1 3.17.11l.38.11.4.16c.25.12.5.2.75.37q.38.25.73.51.33.3.64.66zm-75.24 64.83q2.33-3.06 4.53-6.26c.53-.78 1.03-1.59 1.58-2.36 1.94-2.73 3.88-5.47 6-8.1.94-1.17 1.87-2.37 2.94-3.44a14 14 0 0 1 2.28-1.9q.3-.2.66-.37.37-.14.74-.23t.77-.12c.25-.03.52.05.77.06.62.13.51.05.03.2-.24.09-.53.38-.84.66q-.22.22-.46.5-.12.12-.23.28l-.28.2c-1.38 1.04-2.52 2.52-3.77 3.9q-1.8 2.16-3.57 4.46c-1.42 1.82-2.66 3.9-3.98 5.88a204 204 0 0 1-4.53 6.46q-1.44 1.96-2.98 3.85a45 45 0 0 1-5.12 5.37 17 17 0 0 1-4.86 3.24 9 9 0 0 1-1.28.41c-.83.17-1.4.17-1.8.06-.4-.09-.6-.3-.75-.59-.06-.13-.15-.26-.17-.37-.08-.4.55-.69 1.5-.87 2.87-.6 5.47-2.7 7.84-5.1a60 60 0 0 0 4.93-5.86z"/>
  <path fill="#12111f" d="M94.76 176.32q.4 3.04.26 6.12c-.03.74-.03 1.49-.14 2.23q-.24 1.97-.93 3.89a10 10 0 0 1-.9 1.86 5 5 0 0 1-1.5 1.59 3 3 0 0 1-2.07.38 5 5 0 0 1-1.74-.75 9 9 0 0 1-1.74-1.48 8 8 0 0 1-1.15-1.9c-.17-.44-.06-.43.32-.23s1.06.54 1.67 1.01c.5.46 1.02.89 1.56 1.2.52.3 1.15.54 1.51.53q.5 0 1.07-.57c.38-.38.73-.92 1.03-1.5.72-1.46.9-3.26 1-4.98q.18-2.88-.17-5.79a37 37 0 0 0-.57-3.54 30 30 0 0 0-1.58-5.21 27 27 0 0 0-1.99-3.65l-.5-.76c-.61-.95-.6-1.37-.3-1.86l.2-.33c.26-.3.82-.09 1.44.56a23 23 0 0 1 3.79 7.17 37 37 0 0 1 1.47 6zm57.94 5.63.47-.06.2-.02h.03l.18.01h.1v-.08l-.07-.18-.02-.04-.06-.09-.2-.28-.39-.58-1.3-2.09-.67-1.04-.11-.17-.07-.13-.08-.12c-.03-.05-.08 0-.13 0-.17.04-1.03.44-1.66.7q-.65.28-1.33.51-.69.2-1.44.22c-.34-.1-.27-.04-.1-.31.17-.25.48-.71.9-1.08.8-.48 1.6-.98 2.49-1.35l.17-.08q.15-.09.31-.15l.33-.14.31-.07c.21-.06.39 0 .56 0 .22-.1.34.1.5.21.15.13.27.33.4.5.13.19.28.38.32.46l.35.63c.56 1.02 1.31 1.97 1.95 2.97l.63 1.04c.27.44.53.9.56 1.27 0 .18.05.37-.07.5l-.5.26c-.12.1-.39.14-.65.17l-.75.1-2.47.31-1.82.26c-.46.13-.81-.24-1.08-.59-.26-.32-.4-.54-.6-.82-.54-.77-1.12-1.5-1.66-2.25q-.19-.24-.36-.5-.3-.46-.3-.76 0-.29.2-.53.07-.12.16-.22c.2-.2.61-.08 1.03.32q.82.95 1.53 2l.72 1.02c.21.31.58.8.47.65 0-.01 0 .03 0 0l2.98-.42v.04z"/>
  <path fill="#12111f" d="M151.36 169.87q.66.08 1.16.52c.48.5.67 1.33.67 1.73q.03.7-.05 1.33c-.07.4-.09.8-.2 1.17q-.28 1.02-.73 1.95a7 7 0 0 1-1.21 1.79q-.36.35-.87.62c-.34.17-.79.22-1.18.13a2.2 2.2 0 0 1-1.64-1.82c-.05-.25-.02-.22.21-.14s.74.14 1.06.29c.26.17.5.25.64.24.13 0 .14-.03.28-.12.26-.2.7-.7 1.07-1.26.44-.69.61-1.57.76-2.4q.12-.68.17-1.34c0-.2 0-.44-.02-.6a1 1 0 0 0-.1-.3l-.02-.02a.5.5 0 0 0-.4-.13q-.2 0-.53.24a5 5 0 0 0-1.51 2.07c-.28.64-.43 1.33-.59 2.02l-.1.45c-.13.56-.3.7-.67.75l-.26.02c-.26-.01-.45-.3-.43-.76.09-1.34.44-2.73 1.16-4.08a6 6 0 0 1 1.45-1.79c.14-.1.26-.21.47-.31a2.6 2.6 0 0 1 1.42-.29zm8.21 2.18a3 3 0 0 1-.17-1.76 5 5 0 0 1 .47-1.46c.17-.32.31-.64.54-.9a9 9 0 0 1 2.71-1.98c.44-.2.86-.45 1.32-.6.57-.2 1.2-.47 1.85-.12.2.11.17.19.04.44-.13.24-.32.73-.56.9-.46.2-.87.45-1.32.67q-.67.3-1.37.69c-.56.3-.94.86-1.27 1.35q-.28.4-.42.78-.16.5-.15.9c0 .3.17.6.33.77l.1.1c.06.04.13.16.22.11l.23-.1.27-.17.41-.26c.49-.32.92-.72 1.43-1.04q.17-.12.35-.2c.47-.2.7-.14.91.25q.09.12.15.26c.13.31.04.62-.18.84q-.5.5-1.1.94l-.6.45-.8.56c-.34.2-.68.45-1.01.42l-.24-.04-.12-.02h-.03v-.01l-.02.11h-.01l-.06-.02c-.16-.06-.32-.09-.48-.2a4 4 0 0 1-1.46-1.62l.05-.02z"/>
  <path fill="#12111f" d="M163.66 173.93q.25.23.96.23.72-.02 1.58-.27c.42-.11.82-.29 1.29-.41l.37-.1.44-.08c.2-.05.4-.02.59-.01q.28.01.55.1.3.17.52.4l.2.29.15.24q.2.34.4.63.43.6 1.06.97a3 3 0 0 0 1.79.35c.2 0 .4-.07.6-.09q.3-.02.63-.12c.41-.07.83-.2 1.29-.25.28-.04.26 0 .1.2-.17.2-.42.73-.93.96a4.4 4.4 0 0 1-5.84-1.12q-.26-.33-.46-.63-.05-.1-.13-.19h-.16c-.05.02-.06 0-.22.06l-.84.3q-.87.32-1.85.56c-.66.15-1.38.27-2.18.1a3 3 0 0 1-.72-.27q-.35-.2-.62-.46l-.26-.26-.21-.33q-.11-.15-.19-.34l-.1-.4c-.1-.4-.04-.84.11-1.2q.22-.53.58-.9.7-.74 1.52-1.18c.84-.47 1.7-.9 2.67-1.1q.32-.08.66-.1c.86-.04 1.15.23 1.18.74l.01.34c-.06.37-.39.63-.8.72a9 9 0 0 0-1.88.61c-.62.27-1.22.62-1.65 1a1.4 1.4 0 0 0-.45.62l-.01.01.01.02v.03q0 .03.04.06.01.07.09.12.05.08.12.11l-.03.05zm18.29 7.64a15 15 0 0 1-2.56 4.1q-.28.34-.6.68l-.66.6a9 9 0 0 1-2.78 1.5c-.5.2-1.02.23-1.52.36-.5.1-1.1.13-1.68.01a2 2 0 0 1-1.38-.98 2.7 2.7 0 0 1-.32-1.52q.05-.93.38-1.73c.2-.55.6-1.01 1-1.42.27-.24.3-.13.27.2l-.03.64v.62l-.04.2q-.18.71-.17 1.4c.02.42.16.77.29.85.07.08.27.17.66.18s.9-.15 1.4-.23a6.6 6.6 0 0 0 3.1-1.87 12 12 0 0 0 2.37-3.43q.27-.6.52-1.22.22-.63.42-1.27c.37-1.31.66-2.67.78-4.02.06-1.06 0-2.1-.07-3.14q-.05-.34-.06-.69c-.04-.85.1-1.12.66-1.33q.2-.09.39-.14c.44-.1.81.24.96.9.44 1.96.45 4.09.06 6.18q-.43 2.34-1.33 4.6zm85.08-30.08q-4.7-.11-9.39-.17c-1.13-.02-2.27.04-3.42.03l-12.08-.14q-2.7-.02-5.36.1-1.71.05-3.42.07c-1.14 0-2.28 0-3.43-.16-.71-.17-.62-.24-.03-.57q.46-.26 1.23-.56.77-.27 1.77-.37l3.49-.29 3.49-.14q3.49-.11 7.02-.04c2.8.1 5.72-.07 8.6-.1q4.73-.02 9.47.02l5.84.07c2.94.03 5.9.13 8.82.13 2.28.02 4.5-.1 6.76-.13.5 0 .98-.05 1.49-.03 1.85.03 2.43.22 2.8.87.08.14.2.3.24.44.16.5-.61.87-1.96.96-4 .26-8.22.22-12.45.18l-9.45-.1v-.07zm-41.31-27.23.25-10.52c.03-1.28-.02-2.56 0-3.83q.13-6.76.1-13.53-.01-3-.11-6c-.09-2.55-.24-5.11.02-7.67.07-.8.1-.7.29-.03l.43 1.37q.25.86.4 1.98c.3 2.6.4 5.21.53 7.82q.2 3.9.11 7.86c-.05 3.15.1 6.43.12 9.64q.02 5.31-.07 10.62l-.14 6.53c-.06 3.3-.19 6.6-.22 9.88-.04 2.55.04 5.05.06 7.57q.02.82.01 1.66c-.04 2.06-.2 2.72-.8 3.14-.14.1-.27.23-.4.28-.42.19-.8-.68-.86-2.19-.21-4.5-.12-9.23-.01-13.97l.24-10.6z"/>
  <path fill="#12111f" d="M213.06 151.7q-2.83.02-5.66.13c-.69.02-1.37.1-2.06.13l-3.64.15q-1.82.06-3.64.19c-1.08.06-2.15.24-3.2.34-1.37.17-2.71.45-4.13.35-.44-.05-.39-.05-.06-.29.32-.23.9-.76 1.68-1.01a37 37 0 0 1 8.44-1.22c1.7-.07 3.46-.28 5.2-.4q2.86-.17 5.74-.26l3.53-.1 5.35-.12c1.38-.04 2.73-.21 4.12-.24q.45-.02.91 0c1.14.01 1.54.27 1.7.82l.1.34c.04.33-.46.7-1.22.75-2.36.27-4.9.32-7.44.37l-5.7.12v-.06zm98.77-3.36q3.38 0 6.77.06c.83.03 1.64-.02 2.47.02q4.35.19 8.69.65l3.84.44c.81.14 1.64.23 2.45.4q1.2.3 2.38.75c.46.28.38.3-.1.46-.49.15-1.32.32-2.24.27-3.26-.33-6.53-.53-9.84-.93-2-.23-4.08-.16-6.12-.2q-3.37-.02-6.76 0l-4.17.08q-3.16.07-6.3.26c-1.63.1-3.21.33-4.82.5q-.52.07-1.07.11c-1.33.12-1.79-.1-2.06-.63q-.1-.17-.18-.35-.08-.3.29-.53c.24-.16.6-.32 1.07-.37a81 81 0 0 1 8.89-.82q3.38-.15 6.8-.22zm-20.62 27.23q.25-.33.54-.63l.3-.3.21-.22.26-.21a3 3 0 0 1 2.13-.78q.15.01.29.04c.04.02.1 0 .14.05l.14.05q.3.14.45.38c.37.46.51 1.2.4 2.02q-.02.26-.07.53l-.07.35-.16.62-.36 1.19a35 35 0 0 1-1.73 4.27 6.4 6.4 0 0 1-1.66 2.25c-.26.17-.28.05-.2-.2.06-.26.15-.7.33-1.16q.48-1.22.85-2.5.44-1.26.86-2.54a8 8 0 0 0 .45-2.37l.03-.28v-.3q-.01-.08-.09-.15-.07-.03-.14-.03a1 1 0 0 0-.37.14 3 3 0 0 0-.44.37q-.7.77-1.28 1.72c-.56.96-1.06 2-1.39 3.07-.24.83-.32 1.7-.38 2.53l-.01.55c-.05.67-.2.87-.7 1l-.36.1c-.39.08-.72-.25-.82-.84a11 11 0 0 1 .86-5.19 16 16 0 0 1 1.94-3.56z"/>
  <path fill="#12111f" d="M281.98 178.08a6 6 0 0 0-1.47-.72c-.13-.06-.28-.02-.3.22-.04.26.1.64.25 1.01a11 11 0 0 0 4.72 5.04q.62.33 1.26.61c.43.17.83.43 1.27.6.27.13.21.28-.09.42q-.23.14-.62.2-.2.06-.41.07h-.23l-.22-.05a10.3 10.3 0 0 1-5.22-3.47c-.8-.98-1.7-1.97-2.15-3.36a3 3 0 0 1-.13-1.3 2 2 0 0 1 .76-1.36c.43-.3 1.08-.28 1.5-.17q.6.16 1.07.4 1.19.62 2.2 1.4c1.04.75 2 1.62 2.93 2.47.73.67 1.5 1.26 2.21 1.97l.48.48c.52.66.5 1.02.15 1.42q-.11.16-.24.27c-.3.26-.74.17-1.17-.17-1.21-1.07-2.36-2.34-3.62-3.52a23 23 0 0 0-2.94-2.43z"/>
  <path fill="#12111f" d="M286.39 184.37q2.63.1 5.27.13.96-.02 1.92 0l6.8.2q1.5.04 3.01.05c1.28.03 2.58-.03 3.87.28.4.12.32.14-.02.22s-.96.26-1.7.3l-3.89.36-1.95.14q-.98.03-1.98.01c-1.58-.02-3.21.15-4.82.21q-2.66.07-5.33.08h-3.28l-4.97-.06c-1.28 0-2.54.14-3.81.12h-.84c-1.06-.08-1.38-.24-1.56-.75q-.08-.18-.12-.34c-.06-.38.38-.68 1.14-.77 2.25-.32 4.59-.32 6.95-.32 1.76 0 3.53.08 5.3.1zM140.56 85.18c-.76 1.52-1.7 2.8-2.5 4.1-.29.48-.51.98-.76 1.45q-.33.64-.58 1.27c-.13.44-.3.89-.32 1.24q-.04.55.23 1 .3.46.9.72c.7.31 1.54.3 2.36.16q.8-.14 1.6-.35l.83-.2c.27-.07.57-.06.86-.1.36-.03.35.06.13.35l-.45.58q-.3.32-.78.54c-.56.24-1.14.48-1.76.63-.62.13-1.28.22-1.98.16a4.5 4.5 0 0 1-2.1-.67 3 3 0 0 1-1.37-1.97 4 4 0 0 1 0-1.38c.07-.44.2-.78.28-1.17q.35-1.12.87-2.13c.76-1.46 1.67-2.75 2.41-4.1a10 10 0 0 0 1.07-2.52c.11-.33.14-.66.2-1q.04-.5.03-1a6 6 0 0 0-.47-1.92 3.4 3.4 0 0 0-2.15-1.71q-.27-.06-.53-.06c-.62-.01-.8-.05-1.17-.5q-.13-.13-.25-.28-.2-.26 0-.58c.13-.22.43-.44.88-.55.67-.16 1.4-.07 2.03.15q.97.36 1.71 1.06.75.69 1.2 1.62.12.24.2.48l.13.45c.08.31.2.6.22.92.06.47.13.95.1 1.42 0 .48-.08.94-.16 1.4q-.3 1.36-.88 2.52l-.04-.02zm4.07-.91q-.7 1.37-1.02 2.87c-.23 1.11-.3 2.3.2 3.37a3 3 0 0 0 2.75 1.65 6 6 0 0 0 3.4-1.3 7.4 7.4 0 0 0 2.59-3.04c.19-.45-.2-1-.64-1.12-.52-.15-.93.18-1.12.63.1-.26-.04.06-.07.11l-.13.23-.18.26c-.03.04-.13.16 0 .02l-.15.17a8 8 0 0 1-1.14 1.1c.1-.07-.12.1-.1.09l-.29.19q-.34.23-.72.42l-.3.14-.18.07q-.34.12-.7.19c-.25.04.13 0-.01 0h-.46c-.16 0 0 0 .03.01l-.16-.03q-.09-.01-.16-.04c-.06-.02-.24-.1-.04 0l-.23-.13-.1-.07c.18.12.05.05 0 0l-.17-.2c.16.18-.02-.04-.06-.11l-.05-.11-.07-.26-.04-.12c0-.02-.04-.23-.01-.08s0-.06 0-.08q0-.09-.02-.17l.01-.63.03-.33c-.02.23.02-.13.04-.2q.15-.75.4-1.5l.12-.32.06-.16.27-.6c.23-.44.12-1-.33-1.25-.4-.24-1.02-.11-1.25.33m2.1 16.55a4 4 0 0 1-.2.73c0 .03-.07.16-.08.19l-.2.33q-.08.18-.21.33c.18-.19 0-.03-.03.02l-.14.16-.26.25q-.06.07-.17.14l-.02.01-.34.21-.16.09-.1.04.08-.03c-.06-.02-.32.11-.38.13-.12.03-.28.09-.4.09h-.25q-.2 0-.4-.03c.26.05 0 0-.04-.01a3 3 0 0 1-.5-.14c-.03-.01-.27-.12-.08-.03-.48-.21-1.1-.15-1.37.36-.24.44-.16 1.15.36 1.37.75.34 1.57.56 2.41.47q1.16-.1 2.15-.74a5.3 5.3 0 0 0 2.3-3.4c.09-.52-.14-1.11-.7-1.24-.5-.1-1.14.15-1.24.7z"/>
  <path fill="#12111f" d="M117.16 236.05c-.01-.06.09-.46.31-.78q.18-.24.34-.37l.18-.13q.01-.03.15.08a2 2 0 0 1 .46.5l.03.14-.02.12c0 .03-.05.04 0 .1.09.06 0 .09.1.14.1.04.08.08.14.12.08.04.11.08.19.1l.1.01c.02.01-.02.05 0 .05l.1.03.08.03s.05-.03.06-.02q-.02.02-.02.05h.04l.03-.03.1-.1q-.02 0-.06.09v.03l-.02.02.05-.16.05.09c.06.05.2.13.2.11 0 0 .05.08 0-.1-.03-.06 0-.02 0-.01l-.02-.06q-.01-.06 0 0c.07.16.15.3.09.12-.02-.05.01.02.01 0-.01-.08.06.03 0-.13-.02-.06.05.05.07.08l.01.02q-.04-.14.02-.05c.05.06.03 0 .04-.03l.02-.04c.02-.02.06 0 .05-.04l-.02-.06v-.09l.05.03q.08-.02.2 0c.02 0 0-.04.05-.03q.12.04.13-.02c-.01-.03.1.01.15.01q.08 0 .15-.02a7 7 0 0 1 1.27.61c-.02.03-.03.29-.08.56-.03.28-.12.59-.17.61q-.16.13-.33.24l-.2.2-.26.13-.15.22h-.09q-.02.04-.05.06l-.02.03v.04c-.1-.1-.14-.07-.18-.03h-.04c-.09.12-.17.32-.33.2-.03-.01-.05-.02-.05.08q-.01.09-.04.04c-.1-.13-.14.06-.22.04s-.15.05-.23 0-.16.05-.24.02c-.08-.02-.47-.03-.58-.08q-.1-.03-.23-.1-.29-.12-.55-.28-.31-.19-.55-.44c-.06-.07-.3-.54-.35-1.01-.05-.48.08-.92.07-.97zm48.9-24.53s-.2.02-.34.1a1 1 0 0 0-.27.23h-.13a1 1 0 0 1-.35-.1q-.1-.05-.1-.08a.4.4 0 0 1 0-.21l.1-.25c.03-.07.09-.11.1-.2.03-.12.15-.16.19-.28.03-.14.14-.18.2-.28q.17-.16.36-.29.04-.07.1-.1c.07-.04.13-.02.2-.05l.22-.11.36-.1c.04 0 .08-.05.11-.05l.15.04h.22l.03-.03c.08-.1.16-.08.24-.07l.4.1a3 3 0 0 1 .79.6c.31.34.5.7.51.7l.02.02c.02.02-.03.08.1.02.06-.03.03 0 .03.02 0 .01-.03.04.06 0q.06-.02.02.02c-.1.11-.2.21-.03.16.04-.01 0 .03.02.04.09.02.02.12.18.1.06 0-.03.07-.04.1 0 .02-.03.04 0 .03q.13 0 .07.08c-.04.07.04.09.07.13l.07.11c.03.05.02.13.06.17.01.02.06.02.06.04q.06.06.1.13.01.04-.01.09l.01.36c0 .05.05.08.03.13q-.07.12 0 .23c.04.05-.05.12-.08.17l-.08.18c-.02.05-.41.06-.79.07h-.52l-.23-.01c.05-.07-.38-.56-.39-.6l-.03-.2-.07-.13c-.02-.04 0-.1-.03-.14-.02-.03-.1-.03-.13-.05v-.04h-.06l-.02.01c.08-.08.06-.1.03-.1v-.01c-.08 0-.2.04-.14-.07q.03-.04-.06 0-.05.04-.02 0c.08-.1-.06 0-.06-.04 0-.03-.05-.01-.03-.06.01-.05-.06 0-.07-.03 0-.02-.1-.05-.13-.07l-.03-.04q-.04-.03-.09-.04c-.04-.02-.1 0-.14-.02-.02 0-.13-.17-.32-.24-.17-.09-.38-.1-.4-.07z" opacity=".5"/>
  <path fill="#12111f" d="M166.73 245.7c-.03-.04-.1-.46-.04-.84q.05-.3.12-.5l.1-.21q.01-.03.14-.02a1 1 0 0 1 .5.19l.05.15.03.18c.02.06-.01.1.05.15.09.06.04.15.15.18.1.04.11.1.19.13q.13.08.25.13h.11l.06.06.13.02.15.04.06-.03c.01 0 0 .05.02.06q.04.01.07 0l.03-.03c.05-.12.06-.12.08-.12q.03 0 .05-.02c.01-.02.05.04.14.05.1 0 .25-.07.26-.08 0 0 .08.04-.05-.08-.05-.04-.01-.01 0-.01l-.04-.04q-.05-.05 0 0c.14.08.27.16.14.04-.04-.03.02 0 .02 0-.05-.06.07-.02-.06-.12-.04-.03.07.02.1.02h.03q-.1-.06 0-.05c.08.02.03-.03.03-.05v-.06c0-.02.05-.03.03-.06l-.05-.03-.04-.06.05-.02.13-.12c.02-.02-.01-.03.02-.05q.1-.06.06-.1c-.02 0 .07-.06.1-.1l.08-.12a5 5 0 0 1 1.12-.56c.02.04.24.26.4.56.18.3.28.65.26.7q-.04.27-.12.5l-.06.33-.16.31-.03.3q0 .03-.03.04l-.05.03-.01.09v.04s.04.04.02.04c-.14-.03-.16.03-.18.1l-.04.03c-.02.16-.03.37-.24.36-.04 0-.07 0-.03.1q.02.07-.02.05c-.15-.06-.12.13-.21.16s-.13.11-.24.11-.15.13-.24.14c-.1.02-.52.19-.66.2h-.28a3 3 0 0 1-1.37-.3c-.08-.04-.52-.4-.74-.84-.23-.45-.3-.9-.33-.95z"/>
  <path fill="#12111f" d="M170.62 276.6s-.15-.13-.3-.18c-.16-.06-.31.03-.31.04l-.1-.02a1 1 0 0 1-.26-.14l-.07-.1q.02-.13.09-.24.1-.15.24-.23c.08-.06.17-.06.24-.14.12-.11.27-.07.4-.16.14-.08.27-.04.4-.05q.28 0 .55.08c.06.02.14 0 .2.04q.1.07.18.16.15.08.29.2.2.2.32.4l.1.11q.03.09.03.18l.1.24.04.02a.3.3 0 0 1 .17.24l.06.44a4 4 0 0 1-.54 1.48l-.13.24v.01c0 .02-.1 0 .05.1.05.04 0 .03 0 .03-.02 0-.06 0 .03.05q.06.03 0 .02c-.15-.03-.3-.07-.16.05.04.03-.02.01-.01.03.03.08-.08.07.03.19.04.04-.08 0-.11 0q-.04 0-.03.02.08.1-.02.09c-.08 0-.03.06-.05.1q0 .06-.03.1l-.06.13c0 .02.04.05.03.07q.02.06.02.13-.02.02-.07.03l-.14.19c-.02.02 0 .06-.03.07q-.12.03-.08.1c.02.04-.1.04-.13.06l-.14.08a7 7 0 0 1-1.54-.3c.02-.03-.01-.3-.03-.57a2 2 0 0 1 .05-.58l.2-.3.08-.22.13-.18-.02-.2.02-.01q.02 0 .03-.03v-.07l-.03-.03c.13.03.13-.01.13-.05l.02-.01c-.03-.1-.12-.2.01-.22.03 0 .05-.01-.03-.05q-.06-.05-.01-.03c.14.01 0-.08.03-.1.04-.02 0-.07.05-.09s-.02-.07 0-.1c.04-.03.04-.17.04-.21l.03-.07.03-.16v-.14l.06-.1.02-.01c.13-.07.03-.02.06-.04h-.01q-.04.02 0 0l.04-.08c.03-.15-.12-.31-.15-.3z" opacity=".5"/>
  <path fill="#12111f" d="M101.52 282.25s.03-.16.1-.31a2 2 0 0 1 .75-.84l.21-.13q.03-.01.14.08a2 2 0 0 1 .36.49q0 .1-.03.16l-.07.17c0 .05-.07.08-.03.15.07.1-.04.14.05.23.07.08.05.14.08.2l.11.25.08.06c.02.03-.01.07 0 .1.02.04.08.07.1.1l.1.15q.04 0 .07.02v.07q.02.05.07.06l.03-.01c.12-.05.14-.05.16-.02l.1.05.04.08q.06.1.17.2c.15.14.38.24.39.22h.02s.02.08.04-.09c0-.06.01-.02.02 0 0 0 0 .05.02-.06 0-.05.01-.02.02 0 .01.16.03.3.06.13.01-.05.02.01.02 0 .04-.07.08.04.1-.12.01-.06.04.06.05.09q.01.04.02.01c.01-.1.03-.08.06-.03.04.06.06 0 .09-.01q.04 0 .08-.03h.1c.02-.01.02-.06.03-.06l.08-.08q.04.01.06.04h.25c.03 0 .04-.05.09-.03q.1.06.15-.03c.01-.04.1.03.15.04l.17.01c.1 0 .77 1.22.74 1.24-.05 0-.22.2-.44.4-.21.2-.46.37-.51.39q-.22.03-.42.1-.15.03-.3.09c-.1.01-.2-.02-.31 0-.08.01-.16.08-.25.11h-.04l-.04-.02-.07.03-.03.01s-.02.06-.03.04c-.05-.12-.1-.1-.16-.1h-.03c-.13.05-.29.17-.4.02q-.02-.06-.08.03-.03.06-.05.01c-.04-.14-.15 0-.22-.04-.06-.04-.16 0-.2-.08-.07-.07-.18-.01-.24-.06-.07-.04-.43-.18-.53-.25l-.2-.16q-.24-.17-.44-.41-.24-.28-.42-.58a3 3 0 0 1-.15-1.1c.02-.5.17-.94.17-1zm4.58-118.35c-.04-.04-.1-.39-.05-.7.04-.33.17-.6.17-.6q.01-.02.11-.01a1 1 0 0 1 .38.14l.05.13.03.15c.01.05-.01.09.04.13.08.05.05.12.13.15l.17.11q.11.06.23.1l.08.01.05.07.1.03.15.05.05-.01q0 .02.03.05h.07l.02-.02q.07-.1.08-.08h.1c0-.01.09.04.24.04s.31-.05.31-.06.05.03-.02-.1c-.03-.04 0-.01 0 0 0 0 .04.03-.01-.05q-.03-.04 0 0c.08.09.18.17.1.04-.02-.03.01 0 .01 0-.02-.06.06-.02-.01-.13-.03-.04.04.02.07.04h.02q-.06-.1.01-.05c.06.03.04-.02.05-.04l.03-.05q.05-.02.06-.06l-.02-.04v-.08l.05-.01q.08-.04.13-.12l.02-.06c.05-.02.1-.05.06-.08-.02-.03.08-.04.1-.06l.1-.08c.04-.05 1.19.1 1.18.13s.03.27.03.53c0 .25-.03.51-.06.56l-.2.32-.13.23q-.1.12-.2.2l-.1.21-.02.02-.05.01-.03.06-.01.02v.04q-.13-.06-.16.03l-.03.01c-.05.11-.1.27-.25.23q-.05-.02-.04.06 0 .07-.03.04c-.1-.07-.1.07-.17.08s-.12.07-.2.05c-.07-.02-.12.08-.19.08s-.4.08-.5.08l-.2-.03q-.27-.01-.5-.07-.3-.06-.57-.2a2 2 0 0 1-.6-.67c-.24-.33-.27-.74-.3-.77z"/>
  <path fill="#12111f" d="M134.36 175.58s-.15.14-.24.3c-.1.17-.13.35-.13.35q0 .02-.11.05l-.32.05q-.1 0-.13-.02l-.1-.16-.03-.23c0-.07.02-.13-.02-.2-.05-.1.02-.18-.03-.3-.05-.1-.02-.19-.02-.3q-.01-.2.04-.4v-.14l.1-.13.08-.21.19-.29q.01-.06.04-.1l.12-.06.13-.14v-.04q.01-.17.1-.2l.31-.22c.04-.02.48-.2.92-.19.44-.01.82.15.84.14h.02c.02 0 .03.08.09-.06.02-.06.02-.02.03 0 .01.01 0 .05.05-.04q.02-.05.02 0c0 .15 0 .28.09.14.02-.05.02.02.03.01.08-.04.1.08.2-.03.05-.05.04.06.05.1q0 .03.02.02.1-.08.1.02c.02.08.1.05.15.06l.13.04q.08.07.16.1h.07l.16.07.04.1.23.33c.02.04.08.06.09.11q0 .16.12.22c.06.04.01.13.01.2q0 .12.02.21c0 .06-.28.2-.57.32l-.56.26c0-.02-.12-.09-.26-.11s-.28 0-.3-.02l-.12-.09q-.05 0-.1-.03c-.03-.01-.05-.06-.09-.06s-.07.05-.1.07l-.01-.02-.01-.01-.03.02-.02.02-.01.03c.01-.12 0-.1-.03-.1-.06.06-.1.18-.12.07q0-.05-.03.05 0 .06-.01.02c-.02-.13-.04.03-.05.01s-.03.03-.05-.01-.03.03-.05.01-.09.03-.1.03l-.05-.02-.11.03-.12.08c-.02 0-.2 0-.36.07s-.35.19-.35.21z" opacity=".5"/>
  <path fill="#12111f" d="M166.2 146.89s.03-.12.01-.22c0-.1-.1-.16-.1-.16l-.01-.15q-.02-.24 0-.43.01-.12.04-.16a.4.4 0 0 1 .2-.06q.13 0 .26.05.1.06.2.09c.14 0 .18.13.31.15s.18.13.28.2q.17.13.28.31l.1.1.01.18.1.2q.03.16.04.34c0 .04.05.07.04.1q-.02.08-.05.13l-.02.2.03.03c.1.09.08.16.05.24l-.13.37c0 .01-.1.16-.2.27l-.43.34c-.32.2-.63.3-.65.3l-.01.02c-.02.01-.07-.04-.02.1q.02.03-.02.01c-.01 0-.03-.03 0 .05q.02.05-.01.01c-.09-.1-.17-.19-.13-.05 0 .04-.03 0-.03.02-.02.07-.1 0-.09.13 0 .06-.05-.03-.08-.05q-.02-.02-.02 0 0 .1-.07.05c-.06-.04-.07.03-.1.05l-.09.05q-.07 0-.12.04l-.03.05-.1.1-.06-.03-.26.02c-.03 0-.05.05-.09.03q-.08-.06-.15.02c-.03.03-.09-.04-.12-.06q-.08-.04-.14-.05a3 3 0 0 1-.17-.66l-.08-.44-.02-.2c.06.02.49-.39.53-.4l.2-.02.12-.07c.03-.02.08 0 .12-.04l.05-.12h.04v-.09c.06.09.07.06.08.03h.01c0-.08-.03-.2.05-.13q.04.04 0-.04-.03-.06 0-.03c.08.08.01-.05.03-.05s0-.04.05-.02c.03.01 0-.05.01-.05.02 0 .04-.1.04-.1l.01-.02c.02 0-.03-.03.04.02l-.02-.01c-.03-.02 0 0 0-.02v-.06s.12-.05.2-.17c.07-.1.13-.24.11-.24zm18.71 44.94c-.05 0-.38-.1-.64-.28s-.4-.47-.4-.47q-.02-.02.03-.07a.4.4 0 0 1 .17-.11q.05-.03.08-.02l.12.08.15.08q.06.05.13.06c.08-.02.14.04.22 0l.2-.05.24-.1.05-.07c.03-.03.06-.01.09-.03l.07-.1.09-.13v-.06l.05-.03.03-.09-.02-.02q-.06-.08-.02-.1.04-.07.04-.14c0-.02.1-.19.13-.4a1 1 0 0 0 0-.43c0-.01.04-.05-.06-.03-.04 0-.01 0-.01-.01 0 0 .02-.03-.04 0q-.04 0 0-.02c.08-.05.16-.1.05-.09-.03 0 0-.01 0-.02-.07-.01 0-.07-.12-.06-.03 0 .02-.03.04-.06v-.02q-.1.02-.05-.04c.03-.04-.03-.05-.05-.07l-.06-.06q-.02-.05-.07-.1h-.05l-.1-.03v-.06l-.14-.19-.07-.05q0-.12-.08-.14c-.04-.02-.03-.1-.03-.14l-.06-.15c-.04-.07.6-.79.62-.76.02.02.23.1.45.2.2.1.39.25.42.3l.2.3.15.2.11.24.15.16v.06l.03.05.02.03h.03q-.07.09-.01.15v.03c.07.08.19.18.12.3q-.03.03.04.06.05 0 .02.03c-.07.08.04.12.03.19-.01.05.03.12 0 .18s.03.13 0 .19c0 .07-.01.37-.04.46l-.06.18q-.06.22-.17.43-.11.26-.33.48c-.04.04-.44.32-.87.39-.41.07-.78-.02-.83-.03zM151.26 169c1.06 0 1.06-1.64 0-1.64s-1.06 1.65 0 1.65m-99.41-42.77c.05.15-.15.23-.48.28-.1.01-.4-.04-.44-.09l-.2-.28c-.03-.05-.14-.86-.2-1.15a2 2 0 0 1-.02-.78q.11-.79.24-1.56a1 1 0 0 1 .13-.33q.29-.55.35-1.15c.01-.06.04-.13-.02-.2-.1-.15.16-1.2.25-1.33q.33-.45.61-.9c.03-.05.02-.1.12-.12.24-.03.24-.14.3-.24q.1-.2.26-.38c.06-.06.2-.09.31-.12s.39.1.41.14c.07.1.23.1.35.13l.13.04c.07.04.35 1 .32 1.09l-.13.63c-.06.31-.12.64-.12.72q-.02.1-.13.18c-.02.03-.16.98-.17 1.01-.08.19-.07.4-.3.54q-.05.05-.05.1c-.07.34-.23.65-.36.97q-.09.25-.14.5-.01.04-.06.09t-.06.1c-.1.4-.25.8-.33 1.21-.02.1-.33.5-.34.61 0 .06-.28.22-.26.28zm-6.12 1.3q.18.14-.25.48c-.08.07-.38.19-.44.16l-.3-.1c-.05-.04-.5-.61-.67-.8q-.25-.27-.4-.58l-.74-1.23q-.09-.13-.12-.29a2.5 2.5 0 0 0-.5-.96c-.03-.05-.05-.1-.14-.13a3 3 0 0 1-.71-.95q-.14-.46-.3-.9c-.02-.05-.07-.07-.02-.14.08-.2 0-.24-.05-.32l-.17-.36c-.02-.06.02-.18.04-.29.01-.1.24-.27.28-.27.1-.02.17-.15.25-.24l.08-.09c.06-.06 1 .31 1.05.4.03.01.84.97.92 1.08q.06.09.07.21c.02.04.62.8.62.85.08.18.23.34.2.58q0 .07.03.12.25.46.4.95.1.24.23.47l.01.1q0 .07.03.12c.19.36.29.77.5 1.12.06.08.1.56.15.66.04.05-.1.33-.03.37zm-2.5 2.76q.2.1.1.5c-.02.08-.17.24-.23.24q-.16 0-.32-.03c-.03 0-.24-.1-.49-.22-.25-.1-.53-.2-.65-.28q-.38-.18-.72-.42-.7-.44-1.4-.79-.15-.06-.3-.17a2 2 0 0 0-1.04-.45c-.07 0-.13-.03-.2.02a8 8 0 0 1-1.22-.04q-.48-.13-1.02-.18c-.05 0-.1.03-.15-.04-.13-.15-.24-.1-.35-.1q-.22.03-.48.01c-.08 0-.18-.1-.27-.15-.1-.06-.13-.34-.11-.37.05-.1-.05-.22-.08-.33l-.04-.12c-.02-.08.87-.74 1-.74l.26-.06.55-.08c.42-.05.86-.08.96-.08.1-.01.19.04.28.07.03 0 .36.01.7.05s.66.12.7.12c.24.1.52.14.7.37q.07.06.14.08c.42.16.78.42 1.12.68l.55.36.08.09q.04.06.1.1c.41.3.76.66 1.17.93.1.06.38.55.49.63.05.05.1.35.17.38zm293.57-20.67q-.2.13-.46-.23c-.05-.07-.11-.31-.08-.36q.09-.14.2-.25c.04-.05.8-.44 1.07-.58q.38-.2.79-.3.82-.25 1.66-.45.2-.04.38-.02c.45.06.88.01 1.31-.06.07-.02.15 0 .21-.08a4 4 0 0 1 1.46-.16l1.13.31c.05.02.11 0 .16.08.1.2.22.16.34.19q.24.03.47.14.11.08.21.25c.07.09 0 .38-.02.4-.09.1-.04.24-.05.37v.13c-.03.07-.93.49-1.02.48h-.21l-.46.02c-.33.02-.68.05-.75.07q-.1 0-.23-.06c-.03-.02-1.03.12-1.07.12-.21-.02-.41.05-.63-.08q-.07-.03-.12-.02-.54.05-1.1 0l-.55.04-.1-.02q-.06-.03-.13-.02c-.43.05-.89.04-1.3.15-.1.03-.62-.02-.73.01-.07.02-.32-.12-.38-.07m-.95-5.7c-.01.2-.24.23-.59.18-.1-.01-.37-.17-.38-.24l-.06-.38c0-.07.3-1.04.4-1.38q.14-.49.38-.93.46-.9 1-1.74.11-.19.3-.35.57-.53.94-1.2.09-.09.1-.24c-.02-.19.8-1.31.95-1.42.4-.26.73-.56 1.12-.81.05-.04.07-.11.18-.1.25.05.31-.08.41-.17q.22-.19.48-.33c.09-.05.24-.03.37-.04.12 0 .32.24.32.29.02.13.17.17.27.26l.1.09c.05.06-.24 1.21-.3 1.3l-.15.21-.32.46c-.23.34-.48.68-.52.76q-.08.1-.22.17c-.04.02-.7 1.06-.72 1.1-.18.18-.28.42-.57.51q-.08.05-.11.11-.4.52-.86 1-.21.25-.39.54-.03.04-.1.08t-.12.1c-.3.43-.7.81-.94 1.28-.07.1-.53.5-.6.63-.03.07-.37.17-.37.25zm-40.28-43.78c.3.1.5.34.63.61.05.09-.04.24-.14.23l-.57-.09a12 12 0 0 1-2.5-1.1 4 4 0 0 1-1.46-1.62 4 4 0 0 1-.46-2.42q.08-.7.5-1.32A4.4 4.4 0 0 1 293.2 53q.32-.15.56-.3l.4-.32q.19-.19.34-.4l.26-.45q.09-.16.1-.35c0-.1.12-.62.21-1.14.05-.54.06-1.08.06-1.2q.12-.97-.17-1.93c-.02-.1-.1-.16-.06-.28.1-.29-.05-.45-.17-.62q-.23-.36-.5-.73c-.09-.12-.12-.3-.19-.47-.06-.17.17-.4.24-.4.18.02.17-.18.24-.3l.07-.13q.04-.02.37.1.35.13.76.4c.55.33 1.04.84 1.1.95 0 .02.15.2.31.52a7 7 0 0 1 .85 3.24q0 .32-.1.62c-.01.05-.04.77-.22 1.5-.18.7-.51 1.4-.54 1.45l-.51.76q-.31.35-.7.6-.16.08-.3.21c-.81.73-1.6.98-1.96 1.33-.2.17-.24.35-.34.57l-.07.13-.07.18c-.07.67.15 1.52.78 2.11.07.08.25.31.47.53a4 4 0 0 0 .58.49c.12.07.45.45.58.5z"/>
</svg>
