<svg xmlns="http://www.w3.org/2000/svg" width="380" height="380" fill="none"><path fill="#12111f" d="M143.71 302.76a998 998 0 0 1-22.97-6.12c-2.8-.77-5.6-1.46-8.37-2.3l-3.65-1.07-3.66-1.14c-2.43-.77-4.88-1.5-7.3-2.29-4.84-1.62-9.7-3.19-14.48-4.96-4.28-1.47-8.53-3.14-12.75-4.7-2.7-1.04-5.37-2.19-8.04-3.3-.67-.3-1.34-.56-1.98-.9l-1.93-1.03c-1.27-.73-2.55-1.39-3.79-2.2-1.46-1.04-1.05-1.3.64-1.25 2.57.22 5.09.9 7.42 2.01 10.57 4.81 21.6 8.72 32.73 12.66 3.32 1.21 6.78 2.23 10.23 3.26s7 1.99 10.48 2.99q11.48 3.27 23.05 6.28 7.11 1.88 14.25 3.66c7.2 1.8 14.45 3.6 21.63 5.3 5.59 1.3 11.09 2.45 16.62 3.76 1.22.3 2.41.55 3.66.86q2.43.56 4.74 1.5 1.13.42 1.91 1.32.28.28.51.6c.3.55-1.68.58-5-.15a2014 2014 0 0 1-53.98-12.7z"/><path fill="#12111f" d="M98.76 104.27c-1.68-1.04-3.6-1.38-5.33-2.25-2.92-1.46-4.28-5.59-3.66-8.77.33-1.66 1.88-5.07 3.66-5.53.53-.13 1.54.26 2.2.43 4.2 1.08 8.39 2.26 12.57 3.45q18.8 5.37 37.5 11.13 41.22 12.53 82.26 25.66c7.83 2.5 15.74 4.86 23.47 7.69 2.2.8 3.16-2.72.97-3.53-20.75-7.59-42.15-13.63-63.25-20.22-28.27-8.83-56.56-17.75-85.1-25.68-4-1.1-9.78-4.07-13.43-1.23a12.2 12.2 0 0 0-4.24 12.65c.57 2.19 1.8 4.8 3.58 6.22 2 1.57 4.8 1.8 6.95 3.13 2.01 1.24 3.85-1.93 1.85-3.16" opacity=".3"/><path fill="#12111f" d="M70.09 155.65c.28-5.33 1.03-9.28 5.36-12.76 1.98-1.6 3.88-2.99 5.49-4.99 1.5-1.87 2.7-3.95 4.13-5.84 4.11-5.5 11.07-7.2 17.25-9.45a332 332 0 0 1 21.44-6.95c2.26-.65 1.3-4.18-.97-3.53a350 350 0 0 0-23.95 7.88c-6.14 2.29-12.25 4.12-16.38 9.5-1.73 2.25-3.1 4.77-4.98 6.9-1.98 2.24-4.67 3.65-6.72 5.85-3.57 3.78-4.06 8.46-4.33 13.44-.12 2.35 3.53 2.34 3.66 0zM97.13 152.1l6.68-3.04s8.88 14.29 10.08 15.18.93 4.61 0 6.07c0 0 12.05 30.07 13 30.55s-7.3-1.82-7.3-1.82l-13.95-35.35s-7.94-9.75-8.51-11.58M136.83 115.36l-.5-8.45 2-.2 3.33 18.6-2.74 1.23-2.3-5.12s-5.95 1.17-6.58 2.55c-.34.73-1.04-1.25-1.1-2.47-.04-.95 4.1-2.74 6.3-4.14 1.73-1.17 1.6-2 1.6-2"/><path fill="#12111f" d="M110.98 147.82q-2.01.28-3.99.68c-.48.1-.91.33-1.39.42q-1.27.24-2.53.51c-.84.19-1.71.32-2.53.57q-1.1.32-2.08.9a7 7 0 0 1-2.55 1.25c-.33 0-.8-.73-1.06-1.6s-.29-1.94.22-2.34a13.6 13.6 0 0 1 5.9-2.6 27 27 0 0 0 3.7-1.15q2.04-.54 4.1-.96l2.52-.53c1.26-.29 2.55-.49 3.77-.9q1.4-.57 2.68-1.37.28-.18.58-.33c.73-.28 1.1 0 1.6 1.24q.17.41.33.83a2.3 2.3 0 0 1-.25 2.32c-1.46 1.34-3.23 1.86-5 2.32-1.31.34-2.67.56-3.99.85zM146.07 151.54q-2.66-.84-5.33-1.65c-.66-.2-1.32-.33-1.97-.53l-6.92-2.02q-1.54-.45-3.09-.82-2-.45-3.93-1.11c-.4-.15-.3-.34.12-.47.6-.18 1.25-.2 1.87-.09a110 110 0 0 1 4.08.81q2.04.43 4.04 1.06c1.6.5 3.32.83 4.98 1.27q2.75.71 5.45 1.5l3.34 1.01 5.03 1.56c1.3.38 2.6.67 3.9 1.04l.85.24c1.04.39 1.3.73 1.4 1.14l.05.3c0 .3-.5.4-1.33.32a53 53 0 0 1-7.17-1.87q-2.68-.83-5.37-1.64zM187.73 163.23q-1.42-.47-2.88-.94c-.35-.1-.73-.16-1.07-.27l-3.76-1.17q-.83-.24-1.69-.43-1.1-.22-2.13-.64c-.21-.1-.13-.3.11-.47.31-.23.7-.34 1.07-.3q1.1.12 2.24.33 1.12.18 2.2.56c.86.3 1.8.42 2.71.64s2 .51 2.98.8l1.83.55c.92.27 1.83.6 2.75.87.73.21 1.46.32 2.19.53q.24.06.47.14c.57.24.66.5.64.9v.28c-.06.29-.39.43-.85.46a16 16 0 0 1-3.9-.89q-1.41-.47-2.88-.9zM247 179.84q-.72-.24-1.46-.45c-.18-.05-.36-.06-.54-.12l-1.88-.63-.84-.22a3 3 0 0 1-1.05-.37c-.1-.07 0-.31.15-.55.15-.23.4-.46.61-.44q.54.04 1.07.14t1.04.32q.65.19 1.32.2l1.46.28.92.18c.47.07.93.2 1.4.24q.56-.01 1.12-.08h.25c.3 0 .36.18.3.73v.38a1 1 0 0 1-.48.85q-.48.16-1 .16a6 6 0 0 1-.97-.17c-.47-.1-.95-.26-1.46-.38zM164.82 188.21c-1.62 6.76-6.04 12.4-7.89 19.08-.62 2.28 2.93 3.25 3.53.98 1.84-6.69 6.25-12.32 7.88-19.08.55-2.3-2.97-3.27-3.52-.98"/><path fill="#12111f" d="M165.45 191.32c4.14.6 8.36.07 12.23-1.52 2.15-.94.3-4.1-1.84-3.16-3.25 1.42-6.94 1.47-10.4 1.03-2.32-.29-2.3 3.37 0 3.65M159.6 114.47c-1.86 4.3-4.96 9.75-3.44 14.55.92 2.92 3.18 5.15 4.33 7.95.78 1.91.93 4.06 1.2 6.09a471 471 0 0 1 2.92 26.4c.18 2.33 3.83 2.36 3.65 0a469 469 0 0 0-2.68-24.77c-.5-3.88-.73-7.74-2.73-11.19-1.57-2.72-3.8-5.07-3.27-8.4.49-3.02 2-6.02 3.21-8.78.93-2.13-2.19-4-3.16-1.85zM199.34 173.37a26 26 0 0 1-3.06-5.85l-.5-1.57-.24-.78-.17-.8-.32-1.6c-.09-.54-.12-1.09-.18-1.63l-.12-1.18v-1.2q-.05-1.19.09-2.36a27.8 27.8 0 0 1 6.44-14.94 29 29 0 0 1 5.28-4.98 19 19 0 0 1 4.1-2.3q.56-.23 1.13-.37l1.18-.24q.6-.07 1.19-.1.6 0 1.2.11c.98.1.8.43.06.91l-.65.45q-.36.32-.78.56t-.9.54c-.3.19-.64.33-.99.52a21 21 0 0 0-6.93 4.57q-1.55 1.5-2.88 3.19a30 30 0 0 0-2.39 3.65 21 21 0 0 0-2.52 10.23c-.08 3.97.9 7.88 2.85 11.34l.46.78q.2.38.49.73l1.07 1.46q1.16 1.4 2.53 2.62a21.6 21.6 0 0 0 9.7 5.12c2.73.63 5.57.65 8.32.07.59-.1 1.16-.28 1.75-.44a11 11 0 0 1 2.38-.48q.76.01 1.35.5.28.16.52.4.32.36-.19.98-.74.85-1.8 1.23a19 19 0 0 1-8.57 1.47q-2.24-.14-4.42-.7c-.73-.15-1.46-.43-2.15-.65l-1.07-.36-1.04-.47q-.77-.33-1.53-.73l-1.46-.85-.73-.43-.68-.5-1.28-.98a26 26 0 0 1-4.56-4.9zM203.03 183.42c-4.72 11.1-9.24 22.28-13.8 33.44-.88 2.2 2.65 3.12 3.53.98 4.44-10.88 8.83-21.77 13.43-32.58.9-2.14-2.24-4-3.16-1.84"/><path fill="#12111f" d="M203.37 184.56c3.03 1.65 6.58 1.74 9.95 1.71 2.35 0 2.35-3.65 0-3.65-2.7 0-5.67.1-8.1-1.21-2.08-1.13-3.92 2.03-1.85 3.15M182.24 183.71a20 20 0 0 0-5.27-5.84c-3.35-2.4-11.53-6.11-17.37-1.69-5.83 4.42-2.71 10.56 6 10.01q8.4-.7 16.64-2.48"/><path fill="#12111f" d="M118.99 224.79c4.87 1.81 10.08 2.85 15.15 3.95 4.73 1.03 9.58 2.2 14.42 2.5 2.35.15 2.34-3.5 0-3.65-4.8-.3-9.65-1.54-14.33-2.57-4.69-1.03-9.68-2.05-14.27-3.75-2.19-.82-3.16 2.7-.97 3.52M253.66 218.5c.09-.11.27-.23.33-.35q-.41.3-.14.13.29-.16-.2.07l.2-.06q.34-.05-.24 0c.53-.05-.37-.1-.06 0q.3.1-.22-.1.27.17-.19-.16.22.24-.12-.2.16.29-.07-.2.05.1.07.23-.07-.52 0-.17v.3q.06-.47 0-.15c-.05.21-.05.16.08-.18q-.18.28.16-.2a1.2 1.2 0 0 1 .96-.4c-.3 0 .6.18.11 0q.53.24.24.1l-.18-.12.17.14-.16-.16c.17.27-.4-.36 0 0 .06.31-.3-.45 0 0 0 .38-.15-.55 0 0a2.11 2.11 0 0 0-4.22 0 4.6 4.6 0 0 0 2.43 3.83 3.08 3.08 0 0 0 4.5-1.76 3.8 3.8 0 0 0-1.63-4.56 3.85 3.85 0 0 0-4.67 1 2.2 2.2 0 0 0 0 2.98c.73.74 2.24.93 2.97 0zM281.86 210.2q.02-.12.06-.25c.05-.28-.06.1-.08.18 0-.06.23-.37 0-.05s.14-.05-.18.18c-.1.06-.31.22 0 0 .23-.1-.49.18-.26.1s.05.12-.27 0h.18c.25 0-.56-.16-.13 0l-.26-.11c.3.2-.01 0 0 0-.44-.34.27.35-.08-.07-.22-.28-.1-.11-.05 0 .04.1-.19-.55-.1-.22 0-.03 0-.55-.04-.27-.03.27 0-.25.05-.26.04-.02-.22.57 0 .07-.16.32.23-.27.08-.11-.16.15.37-.26.17-.14q.23-.13.5-.15c-.21 0 .58.11.23 0-.36-.1.2.08.22.1-.23-.13.15.14.18.16l-.14-.14c.04.03.3.4.15.17.07.11.18.48.08.14s.07.48.05.2c-.03-.26-.11.55 0 .12a2.11 2.11 0 0 0-4.07-1.13 3.6 3.6 0 0 0 2.6 4.48 3.48 3.48 0 0 0 4.1-3.54 3.56 3.56 0 0 0-7.05-.58 2.1 2.1 0 0 0 4.06 1.12" opacity=".3"/><path fill="#12111f" d="M275.2 224.08q-3.12.85-6.26 1.54c-.73.17-1.46.43-2.26.57-2.7.55-5.42.89-8.12 1.27q-1.8.26-3.55.66-2.23.6-4.53.77c-.48 0-.55-.6-.27-1.26a2.7 2.7 0 0 1 1.75-1.64 78 78 0 0 1 9.22-1.7q1.41-.18 2.8-.53c.93-.23 1.85-.5 2.79-.73 2.04-.5 4.07-1 6.08-1.59q1.88-.53 3.7-1.17a54 54 0 0 0 5.43-2.18q1.97-1.06 3.8-2.35.38-.3.79-.58c1.03-.64 1.46-.63 2.2 0q.24.2.46.43c.46.53.3 1.27-.4 1.91-2.05 2-4.72 3.3-7.4 4.46-2.02.83-4.1 1.52-6.18 2.2zM260.78 135.92c-4.6 4.77-2.4 13.89-1 19.6.56 2.28 4.08 1.32 3.52-.97-1.03-4.16-3.34-12.51.06-16.08 1.63-1.7-.95-4.28-2.58-2.58z"/><path fill="#12111f" d="M43.91 171.58s44.58-15.27 47.12-16.86 11.6 9.84 11.6 9.84l13.15 33.02s-65.78-21.34-71.87-26M120.2 146.1h4.4l37.34 9.5 2.48 15.59s-9.08 2.92-9.8 8.97c-.73 6.46 4.09 7.58 8.04 8.03l-.66 4.57s-4.97 6.5-5.8 10.9l-.83 4.39-19.87-6.62-16-43.43zM171.48 158.39l19.98 5.84s2.64 10.96 8.64 15.92l-10.1 25a57 57 0 0 0-3.85-6.46c-1.74-2.5-4.26-5.9-4.26-5.9l-1.4-5.41s5.85-.45 6.34-4.39c.83-6.93-6.28-12.78-13.06-13.52zM206.3 219.3s11.38-31.84 12.06-32.3c.68-.44 11.36.56 19.39-10.43l9.98 3.58-5.5 33.49s-19.15 10.3-23.05 9.39-12.88-3.72-12.88-3.72M285.66 189.56l2.02 9.26 12.31-4.98z" opacity=".2"/><path fill="#12111f" d="m35.29 226.97.22-6.5q.1-3.25.28-6.48c.08-1.58.08-3.16.18-4.74q.57-8.34 1.3-16.67.32-3.71.56-7.39c.28-3.13.26-6.33 1.13-9.4.24-.96.67-.78 1.13.1q.45.87.73 1.8.28 1.23.17 2.47c-.52 6.37-1 12.74-1.64 19.17-.4 3.84-.38 7.87-.53 11.82l-.5 13.04-.27 8.04c-.1 4.06-.26 8.14-.3 12.17 0 3.13.08 6.2.1 9.31v2.04c-.11 2.55-.34 3.36-.98 3.88q-.21.2-.44.35c-.48.22-.86-.83-1.02-2.7-.1-1.38-.23-2.78-.28-4.2q-.06-2.13-.08-4.3c-.05-2.87 0-5.79 0-8.72.03-4.34.13-8.72.2-13.08zM144.65 300.35q-13.74-3.51-27.45-7.21c-3.33-.9-6.68-1.72-10-2.68a607 607 0 0 1-34.85-10.96 353 353 0 0 1-15.22-5.62c-3.2-1.29-6.4-2.64-9.5-4.23a36 36 0 0 1-8.77-5.9c-1.46-1.73-.87-1.77.9-1.1q.8.25 1.56.59.89.34 1.94.79c1.4.6 3.06 1.25 4.74 2.19a172 172 0 0 0 19.06 8.23 612 612 0 0 0 19.87 6.97c8 2.69 16.51 4.94 24.84 7.24q13.73 3.81 27.57 7.37 8.5 2.19 17.03 4.32c8.6 2.14 17.25 4.3 25.83 6.34 6.65 1.6 13.22 3 19.8 4.64 1.47.36 2.88.7 4.34 1.1q2.9.7 5.65 1.9 1.32.51 2.26 1.59.3.34.57.73c.3.6-1.92.23-5.85-.73-5.8-1.5-11.86-2.87-17.98-4.32l-18.56-4.39c-9.26-2.19-18.54-4.48-27.77-6.78zM220.1 262.57q0 6.88.15 13.78c0 1.68.18 3.34.22 5.02.11 5.9.15 11.83.33 17.75.07 2.63.24 5.27.42 7.87.22 3.34.6 6.7.3 10.1-.09 1.06-.84.9-1.6 0a7.6 7.6 0 0 1-1.66-4.35c-.45-6.78-.88-13.6-.86-20.51 0-4.14-.42-8.42-.55-12.64q-.2-6.96-.29-13.94.01-4.29-.05-8.57c0-4.34.07-8.69.07-12.99 0-1.67 0-3.33-.09-4.98s0-3.31.04-4.97q-.02-1.1.07-2.2c.32-2.72.61-3.57 1.46-4.08q.22-.19.47-.34c.38-.23 1.05.95 1.16 2.92.23 2.92.34 5.95.43 9s0 6.13 0 9.22v6.93q-.01 3.46.06 6.94zM148.08 209l-27.42-7.24c-3.33-.89-6.7-1.67-10.02-2.58a1025 1025 0 0 1-35.08-10.23c-5.11-1.63-10.36-3.18-15.45-4.9-3.26-1.12-6.57-2.24-9.77-3.6-.8-.32-1.61-.73-2.4-1.06-.8-.34-1.56-.84-2.32-1.32a16 16 0 0 1-4.27-3.52q-.45-.56-.59-1.27-.06-.47.13-.48c.26-.05.73.4 1.46.8q1.66.78 3.4 1.25 1.1.31 2.34.66.63.19 1.29.37c.44.1.87.33 1.3.51 3.15 1.29 6.43 2.42 9.72 3.52s6.58 2.25 9.92 3.31l4.98 1.65 5.01 1.6c3.34 1.09 6.71 2.1 10.07 3.2 8.04 2.54 16.6 4.62 24.97 6.83l27.6 7.26 17.09 4.41c8.6 2.2 17.2 4.5 25.75 6.65 6.64 1.68 13.2 3.14 19.78 4.8 1.46.37 2.87.7 4.32 1.1q2.9.68 5.62 1.88.75.34 1.4.82.5.4.86.92a8 8 0 0 1 .6.77c.34.66-2.08.82-6.05-.07a2031 2031 0 0 1-36.53-8.9l-27.72-7.02zM86.23 156.85l-10.66 4.06c-1.3.5-2.55 1.1-3.85 1.58-4.58 1.72-9.19 3.36-13.8 5.05-2.03.73-4.05 1.58-6.05 2.37a46 46 0 0 1-7.91 2.66c-.87.18-.96-.53-.5-1.46a6 6 0 0 1 2.93-2.62c5.11-2.2 10.4-4.14 15.8-5.92 3.24-1.06 6.44-2.57 9.66-3.88l10.65-4.27 6.57-2.64c3.3-1.34 6.64-2.66 9.88-4.1 2.52-1.1 4.92-2.34 7.4-3.5q.78-.42 1.64-.73c2.13-.73 2.92-.73 3.6-.28q.24.12.46.3c.38.37-.3 1.14-1.68 2.06l-1.55 1.03c-.52.35-1.08.6-1.62.92q-1.64.88-3.35 1.74c-2.25 1.16-4.6 2.19-6.96 3.22q-5.27 2.28-10.6 4.45zM298.32 197.25q-1.44.48-2.88 1c-.35.14-.66.33-1.02.46q-1.88.62-3.78 1.21-.83.29-1.62.67a5 5 0 0 1-2.13.73c-.49 0-.73-2.33 0-2.69a18 18 0 0 1 4.19-1.46q1.32-.4 2.56-1.05l2.85-1.14 1.78-.69c.9-.35 1.82-.66 2.69-1.07.68-.3 1.29-.78 1.96-1.16q.2-.15.43-.26c.58-.25.83-.12 1.18.63q.13.25.24.5a1.3 1.3 0 0 1-.2 1.47q-1.56 1.2-3.44 1.86c-.9.38-1.86.73-2.8 1.09z"/><path fill="#12111f" d="m235.42 219.88-4.14 1.54c-.5.2-.97.47-1.46.65q-2.7.95-5.41 1.83c-.8.26-1.58.6-2.35.94q-1.47.8-3.12 1c-.36 0-.5-.65-.42-1.38.07-.72.34-1.46.88-1.71a43 43 0 0 1 6.03-2.14q1.88-.61 3.65-1.52l4.1-1.66 2.53-1.03c1.26-.54 2.56-1.03 3.8-1.63.95-.47 1.82-1.12 2.75-1.66.2-.12.4-.27.6-.37.82-.39 1.16-.28 1.65.51q.17.27.32.54a1.35 1.35 0 0 1-.31 1.7 23 23 0 0 1-5.03 2.8c-1.34.58-2.7 1.1-4.08 1.68zM304.9 249.62c0-6.65-.12-13.3-.23-19.95-.05-2.42-.2-4.84-.24-7.3-.15-8.55-.33-17.1-.66-25.63l-.05-1.42v-.83c.05-.15-.14-.13-.22-.18l-.33-.1-1.2-.42q-2.68-.92-5.37-1.78c-4.6-1.46-9.26-2.79-13.84-4.32-1.46-.48-1.1-.93.27-1.13 2.19-.22 4.4-.05 6.54.5q7.23 1.84 14.34 4.09l.12.03.21.08.42.16.83.31.83.31.41.16q-.01.2.06.43.09.87.15 1.77l.08 1.14c.09 1.24.2 2.48.22 3.72q.13 3.74.16 7.48c.05 5.97.52 12.17.73 18.27q.33 10.05.51 20.12l.2 12.38.23 18.75c.08 4.83.36 9.56.48 14.36 0 1.05.06 2.09.05 3.15q.08 2.14-.4 4.2a3.2 3.2 0 0 1-1.23 1.79q-.34.3-.73.5c-.4.16-.73-.18-1.02-.9a9 9 0 0 1-.55-3.26c-.38-8.45-.5-17.4-.58-26.39-.09-6.69-.1-13.4-.23-20.11z"/><path fill="#12111f" d="m250.4 164.61.49-2.73c.03-.21.1-.48.12-.66l.04-.45q.03-.58 0-1.17c-.12-1.66-.46-3.5-.73-5.32a80 80 0 0 1-1.38-11.34q-.06-2.14.08-4.3.17-2.18.73-4.3a18 18 0 0 1 3.5-7.04q1.36-1.6 3.14-2.67a11 11 0 0 1 3.87-1.46q2.04-.36 4.07-.05 2.06.34 3.86 1.42a13.8 13.8 0 0 1 5.11 5.92 30.5 30.5 0 0 1 2.66 12.9 40 40 0 0 1-3.24 16.2c-.74 1.58-1.17 1.13-1.27-.4q-.11-3.61.5-7.15.66-3.88.63-7.83.02-1.95-.16-3.9a27 27 0 0 0-.62-3.8c-.49-2.42-1.49-4.7-2.92-6.71a8.2 8.2 0 0 0-5.58-3.45 9 9 0 0 0-4.14.53 8.5 8.5 0 0 0-3.38 2.58c-1.88 2.31-2.86 5.47-3.3 8.63-.4 3.58-.3 7.21.29 10.77q.39 2.74.87 5.52.55 2.86.73 5.77v.98c0 .35-.06.73-.12.99l-.31 1.7-.64 3.42-1.3 6.8c-1.32 6.86-2.73 13.74-3.92 20.56-.92 5.31-1.6 10.56-2.29 15.82q-.18 1.73-.42 3.47c-.58 4.32-.95 5.68-1.9 6.5q-.3.31-.65.55c-.69.35-1.02-1.5-.8-4.73.69-9.58 2.4-19.53 4.2-29.46 1.34-7.37 2.81-14.74 4.12-22.1zM282.55 189.4l-2.2-6.26c-.28-.73-.64-1.46-.93-2.25q-1.5-4.02-3.09-8.03-.74-1.78-1.53-3.5a28 28 0 0 1-1.84-4.53c-.14-.5.34-.62.96-.43.79.26 1.45.8 1.85 1.54q1.1 2.17 2.2 4.45c.72 1.54 1.24 3.09 1.79 4.67.65 1.91 1.6 3.76 2.4 5.66a207 207 0 0 1 3.9 10.23c.72 1.99 1.3 4.02 1.98 6q.39 1.16.82 2.3.44 1.14.79 2.31c.1.34.24.68.32 1.03.21 1.35.09 1.8-.5 2.2q-.18.14-.39.25c-.45.19-.95-.26-1.35-1.14-1.15-2.58-2-5.37-2.98-8.17l-2.2-6.3zM189.36 135.55q-1.87-.61-3.78-1.19c-.46-.13-.93-.2-1.4-.35l-4.87-1.55q-1.1-.33-2.19-.57c-.93-.25-1.93-.27-2.74-.97-.24-.24-.13-.48.24-.81a1.8 1.8 0 0 1 1.5-.68q2.87.66 5.6 1.75 1.72.59 3.5 1 1.9.53 3.83 1.14l2.36.73c1.19.37 2.37.78 3.56 1.13.93.28 1.87.45 2.8.73l.62.16q.42.11.73.43.17.3.13.66v.35a.6.6 0 0 1-.35.4q-.34.2-.73.14a39 39 0 0 1-5-1.29c-1.26-.36-2.52-.77-3.8-1.14z"/><path fill="#12111f" d="m128.14 92.67 31.17 9.5 11.38 3.4 40.01 12.37c5.92 1.83 11.9 3.62 17.78 5.38l11.37 3.37q2.85.85 5.66 1.8l2.81.94c.94.33 1.84.73 2.79 1.1 2.31.98 1.83 1.13-.29.96a40 40 0 0 1-4.38-.52 53 53 0 0 1-6-1.41 2545 2545 0 0 1-46.33-14.33c-9.25-3-19-5.8-28.5-8.67l-31.42-9.5-19.35-5.79A761 761 0 0 0 100.16 87l-3.66-1.04c-1.17-.24-2.37-.73-3.43-.5-1.12.2-2.17.7-3.03 1.46a9.5 9.5 0 0 0-3.1 5.32 9 9 0 0 0-.07 2.67q.4 2.77 1.7 5.26a6.8 6.8 0 0 0 3.65 3.43l5.58 1.67 4.9 1.46c3.05.95 5.05 1.6 6.42 2.2a11 11 0 0 1 3.41 2.18c.23.3-.3.33-1.46.17a37 37 0 0 1-5.23-1.15q-5.03-1.42-10.16-2.93l-2.57-.73-1.3-.38a8 8 0 0 1-1.46-.59 10 10 0 0 1-4.19-4.68 19 19 0 0 1-1.66-5.71 11 11 0 0 1 1.14-6.23 12 12 0 0 1 1.77-2.63q1.09-1.25 2.5-2.09c1-.6 2.12-.98 3.28-1.1a9 9 0 0 1 3.23.45c.78.18 1.36.37 2.04.55l2 .55q1.98.54 3.95 1.12l7.9 2.3 15.77 4.66z"/><path fill="#12111f" d="M79.95 105.1a57 57 0 0 0-1.97-5.49q-.55-1.5-.96-3.05c-.25-1.1-.41-2.03-.6-3.05-.27-1.46-.6-2.92-.73-4.47a28 28 0 0 1-.08-4.1q.16-2.12.85-4.15A11.7 11.7 0 0 1 82 74.42a8.7 8.7 0 0 1 7.57-.56q2.26.92 4.03 2.6a13 13 0 0 1 2.73 3.7c.4.88-.11 1.04-1.06.74a11 11 0 0 1-2.64-1.14q-.46-.32-.86-.68a12 12 0 0 0-3.1-2.1 7 7 0 0 0-1.59-.48q-.39-.06-.77-.1c-.26-.04-.53 0-.8 0-1.15.15-2.25.6-3.2 1.3a9 9 0 0 0-2.6 2.67 10 10 0 0 0-1.33 4.65q-.1 2.63.34 5.23.23 1.45.52 2.92l.3 1.47c.11.47.19.92.33 1.38q.88 2.85 2.05 5.59.73 1.82 1.11 3.76.39 2.02.08 4.06-.28 1.45-.73 2.86l-.78 2.73q-.8 2.74-1.55 5.43c-.73 2.8-1.37 5.6-2.05 8.4q-.22.93-.46 1.84c-.65 2.28-1.16 2.92-1.99 3.2q-.27.1-.57.18c-.6.06-.77-1.01-.53-2.74q1.53-7.86 3.85-15.52c.54-1.93 1.1-3.9 1.6-5.77a9.4 9.4 0 0 0-.05-5.01zM186.94 161.83c-1.04-.34-2.08-.73-3.14-1.08-.38-.12-.78-.18-1.17-.3-1.35-.47-2.72-.9-4.08-1.38q-.9-.3-1.84-.52a10 10 0 0 1-2.31-.78c-.24-.12-.12-.4.17-.66q.51-.47 1.22-.48 1.23.11 2.44.33 1.23.2 2.39.65 1.46.46 2.96.73 1.62.42 3.26.88l2 .61c1 .31 2 .68 3 .95.8.22 1.62.3 2.41.51q.26.06.53.13.22.06.37.23.12.1.2.27.13.33.05.68.01.2-.06.38a1.1 1.1 0 0 1-1.03.73 9 9 0 0 1-2.2-.22q-1.06-.25-2.08-.59c-1.04-.31-2.08-.67-3.14-.98zM145.42 150.17c-1.83-.6-3.65-1.23-5.5-1.8-.68-.2-1.37-.34-2.05-.55l-7.15-2.2q-1.59-.47-3.2-.86a29 29 0 0 1-4.06-1.23c-.41-.17-.28-.45.17-.67a3.5 3.5 0 0 1 1.99-.27q2.13.35 4.24.8 2.13.42 4.2 1.12c1.65.55 3.43.86 5.15 1.31q2.84.74 5.66 1.6l3.45 1.06c1.75.54 3.5 1.13 5.24 1.63 1.35.38 2.72.64 4.07 1q.45.1.9.24.35.09.66.3.23.14.41.33.28.31.3.73v.4c0 .42-.6.62-1.46.61a13 13 0 0 1-1.89-.27q-.93-.16-1.87-.4c-1.23-.33-2.47-.74-3.72-1.1-1.85-.56-3.7-1.17-5.56-1.72zM263.46 138.9a4 4 0 0 0-1.46-2.2 2 2 0 0 0-.48-.18q-.3-.03-.58.04-.26.02-.49.14-.22.14-.4.35-.63.96-.83 2.1a21 21 0 0 0-.54 4.63q-.07 2.4.32 4.77.36 2.1 1.16 4.08a13 13 0 0 0 2.76 4.19c.35.31.18.73-.54.92a3 3 0 0 1-2.83-1.12c-1.17-1.75-2-3.7-2.44-5.75-.23-.99-.4-1.93-.54-2.92q-.17-1.5-.13-3.03 0-1.78.13-3.66.1-1.92.68-3.75.38-1.13 1.14-2.04.45-.51 1.06-.84.6-.27 1.24-.37c.85-.12 1.72.02 2.5.38q1.06.6 1.76 1.59c.95 1.45 1.58 3.09 1.85 4.8q.6 3.72.33 7.45a21 21 0 0 1-.88 5.76q-.2.66-.51 1.27a3 3 0 0 1-1.33 1.46q-.27.14-.59.14a1.4 1.4 0 0 1-.54-.18 2 2 0 0 1-.4-.26c-.17-.16-.15-.42-.12-.73q.02-.24.1-.48t.18-.55q.76-2.05.96-4.22.35-2.38.36-4.78c.04-2.34-.28-4.68-.96-6.92zM276.23 221.34q-3.63 1.02-7.3 1.91c-.9.22-1.75.54-2.64.74-3.13.73-6.3 1.29-9.43 1.9q-2.1.42-4.15.94-2.65.8-5.41.98c-.64 0-.55-.6-.18-1.27a3.4 3.4 0 0 1 2.06-1.67c3.53-.9 7.08-1.77 10.73-2.38 1.1-.2 2.2-.48 3.28-.73 1.08-.26 2.19-.65 3.27-.92 2.4-.66 4.8-1.29 7.17-2l2.2-.66 2.18-.74a52 52 0 0 0 6.38-2.55c.39-.21.73-.43 1.13-.66q.56-.3 1.05-.69a5 5 0 0 0 1.35-1.62q.17-.38.28-.79c.29-1 .43-1.4 1.35-1.67q.3-.12.62-.2c.65-.15 1.32.43 1.3 1.82a6.4 6.4 0 0 1-.92 3.08 7 7 0 0 1-2.3 2.31q-.34.23-.61.38l-.58.32-1.16.62c-.8.4-1.59.73-2.38 1.08q-1.8.73-3.6 1.37c-1.21.44-2.43.8-3.66 1.17zM280.62 306.7q-5.62 1.57-11.25 3.26c-1.37.42-2.7.93-4.08 1.32-4.85 1.4-9.73 2.74-14.67 3.91l-6.57 1.64c-1.4.31-2.8.66-4.21.96a32 32 0 0 1-4.31.48c-.9 0-.88-.73-.24-1.62a5.7 5.7 0 0 1 3.42-2.16l4.16-.95c1.39-.3 2.77-.73 4.17-1l8.48-1.97c3.4-.73 6.8-2.06 10.23-3.14q5.63-1.8 11.3-3.53l3.5-1.05 3.52-1c1.77-.53 3.58-.96 5.37-1.46 1.78-.5 3.6-.86 5.37-1.34q2.1-.48 4.14-1.07c1.37-.4 2.76-.68 4.15-1a16 16 0 0 1 3.31-.53q.53 0 1.03.14a2 2 0 0 1 1.19.96q.21.3.38.65c.27.73-.61 1.52-2.2 2.03-4.78 1.22-9.79 2.19-14.85 3.51-1.87.45-3.75.97-5.64 1.46a144 144 0 0 0-5.65 1.6z"/><path fill="#12111f" d="M309.03 283.54s25.36 1.04 32.88 8.77c7.8 8.04-13.48 15.39-42.84 21.55-52.01 10.96-62.64 2.92-62.64 2.92l71.06-18.63zM221.94 184.67q-1.35.3-2.72.43-1.37.15-2.75.13a22.2 22.2 0 0 1-14.9-6.08 26 26 0 0 1-4.93-6.1 29 29 0 0 1-3.1-19.84 28 28 0 0 1 2.12-6.44q1.33-2.71 3.18-5.12a35 35 0 0 1 4.07-4.38q2.87-2.6 6.3-4.39.87-.41 1.78-.73.91-.31 1.85-.58c.63-.19 1.27-.27 1.91-.37q.49-.05.98-.03h.98c1.62.06 1.34.42.1.95-1.25.54-3.26 1.77-5.56 3.02a29 29 0 0 0-10.78 8.95 24 24 0 0 0-3.32 6.18 27 27 0 0 0-1.54 6.98 24.3 24.3 0 0 0 8.22 20.13 19.6 19.6 0 0 0 8.49 4.36l.58.14.6.09q.6.1 1.2.17 1.2.11 2.4.07a24 24 0 0 0 11.42-3.42 23 23 0 0 0 6.58-6.26 27 27 0 0 0 3.97-22.12c-.12-.49-.3-.95-.43-1.46-.14-.5-.34-.93-.51-1.4-.67-1.74-1.25-2.8-1.53-3.65q-.18-.54-.23-1.12-.08-.45 0-.9.03-.42.14-.82.22-.54 1.24.16a8 8 0 0 1 2.37 2.7 25.4 25.4 0 0 1 3.23 13.93 31.6 31.6 0 0 1-4 14.03 27 27 0 0 1-7.27 8.37 24 24 0 0 1-4.85 2.78c-.82.4-1.71.66-2.56 1s-1.77.56-2.68.73z"/><path fill="#12111f" d="m230.07 154.45-.98 2.32-1.26 2.84-.42.52-.23.3c-.1 0-.1.08-.16.1l-.18.08q-.35.12-.73.14-.85 0-1.65-.28l-.34-.11-.22-.08-.43-.16-.83-.35-1.62-.73-3.18-1.46q-1.4-.67-2.83-1.24a18 18 0 0 1-3.57-1.67c-.34-.23-.09-.73.44-1.05a2.5 2.5 0 0 1 2.04-.4q3.84 1.19 7.37 3.09 1.05.57 2.2.95c.37.13.72.26 1.13.37l.56.16q.15.06.3.06c.08-.05.1-.15.15-.23l.08-.15.13-.26.36-.86.73-1.73q.62-1.55 1.2-3.13.9-2.38 1.87-4.75.36-.93.69-1.87a13 13 0 0 1 1.14-2.61q.19-.3.41-.57.21-.16.45-.28.35-.16.73-.13.18 0 .33.03c.1.04.23.2.28.45q.04.51 0 1.02-.21.84-.4 1.68-.09.42-.24.83l-.27.82-1.11 3.33-1.93 5.04zM212.6 145.33a74 74 0 0 0 1.55-2.79c.19-.33.29-.73.47-1.06l1.99-3.65q.42-.81.73-1.67.31-1.16 1.04-2.12c.17-.19.64.05 1.06.45.41.4.78.96.67 1.39a13 13 0 0 1-1.87 4.38q-.74 1.3-1.25 2.68-.7 1.47-1.46 2.93l-.93 1.78q-.72 1.35-1.46 2.7-.27.55-.47 1.09a6 6 0 0 1-.75 1.53q-.15.17-.3.3-.16.1-.35.12a1.3 1.3 0 0 1-.64-.07q-.16-.02-.28-.1a.6.6 0 0 1-.32-.37q-.14-.36-.18-.73c.13-1.4.53-2.78 1.16-4.04l1.46-2.79zM193 201.39l2.6-6c.32-.73.54-1.46.86-2.19l3.38-7.7c.5-1.13.91-2.31 1.32-3.47q.66-2.31 1.93-4.34c.26-.43.57-.27.84.26a9 9 0 0 1 .57 1.73q.03.35-.06.68-.25 1.2-.57 2.38c-.22.79-.53 1.54-.81 2.3a36 36 0 0 1-1.96 4.49c-.89 1.74-1.46 3.7-2.19 5.55l-2.52 6.09-1.55 3.74c-.77 1.9-1.6 3.78-2.28 5.7-.53 1.45-.9 3-1.33 4.5-.1.33-.16.66-.27 1q-.18.68-.65 1.2-.44.33-.98.28h-.55a.9.9 0 0 1-.65-.54q-.24-.59-.11-1.19.86-4.28 2.48-8.33c.73-2.05 1.62-4.08 2.45-6.12zM206.53 205.16c.73-1.9 1.5-3.8 2.2-5.71.25-.73.43-1.43.72-2.12.95-2.46 1.84-4.93 2.8-7.39.43-1.09.78-2.2 1.14-3.32q.58-2.22 1.83-4.16c.28-.4.55-.19.73.33a5 5 0 0 1 .25 2.17c-.08.35-.12.73-.23 1.1l-.31 1.08-.65 2.2q-.63 2.2-1.55 4.3c-.73 1.68-1.2 3.54-1.8 5.32q-1.03 2.93-2.11 5.84l-1.34 3.58c-.68 1.81-1.42 3.6-2.08 5.4-.48 1.4-.87 2.82-1.31 4.24q-.13.46-.3.92c-.46 1.13-.84 1.39-1.53 1.37h-.47c-.44-.06-.73-.73-.56-1.6q.9-3.98 2.36-7.76c.66-1.93 1.41-3.84 2.13-5.76zM158 199.35l1.9-3.4c.21-.42.36-.86.58-1.27.38-.73.78-1.4 1.1-2.06l.22-.5.15-.47.27-1.24c.14-.73.29-1.46.35-2.2.05-.43.04-.87.06-1.33a7 7 0 0 1 .35-1.39c.1-.28.46-.24.87 0q.78.45 1.13 1.29.14 1.53-.1 3.04-.1.69-.25 1.38l-.16.73c-.08.28-.16.6-.27.88-.52 1.26-.91 2.41-1.46 3.49l-1.9 3.42-1.08 2.1q-.81 1.59-1.37 3.3-.34 1.3-.45 2.67l-.06.58c-.1.73-.3.91-1.09.94h-.46a1.06 1.06 0 0 1-1-1.03c-.05-1.82.28-3.63.98-5.3a41 41 0 0 1 1.65-3.66zM246.58 178.53q-.75-.3-1.57-.57c-.2-.07-.4-.07-.6-.14q-1.03-.4-2.04-.83-.45-.17-.92-.29-.62-.08-1.13-.46c-.1-.1 0-.42.24-.73.23-.3.5-.63.72-.61q.6.03 1.16.14.57.15 1.1.41.68.24 1.41.27l1.61.3 1 .22q.76.17 1.53.25a8 8 0 0 0 1.52-.2c.34 0 .4.21.3.99q-.01.26-.05.52a1.6 1.6 0 0 1-.58 1.18q-.53.25-1.11.27-.53-.03-1.04-.18c-.52-.12-1.03-.3-1.55-.46zM160.98 147.4l-.57-5-.3-2.49v-.22l-.2-.4-.57-1.12c-.56-1.1-1.2-2.14-1.74-3.24l-2.88-5.8-.5-1q-.16-.28-.28-.58l.2-.63.59-1.8 1-3.08q.88-2.73 1.57-5.52l.58-2.2.19-.72c0-.16.16-.11.27-.15l.34-.05q.34-.07.73-.1l.73-.05 1.11-.05h.94q.94 0 1.86.16c.77.3.65.66 0 1.46-.78.96-1.9 1.6-3.12 1.77h-.16v-.12l-.05.19-.14.45-1.11 3.57a87 87 0 0 1-1.22 3.55l-.64 1.77-.33.88c0 .06-.07.19-.08.2l-.03.04-.08.1c-.04.04 0 .09 0 .14v.07l.06.15.5 1.03c.34.68.73 1.36 1.06 2.04l2.2 4.09 1.14 2.26.58 1.12.2.39.11.23q.03.13.04.25l.1.78.6 5.04q.34 3.1.73 6.21c.37 3.14.66 6.3 1.04 9.4.31 2.43.74 4.79 1.05 7.2.06.53.16 1.05.2 1.59q.08.63 0 1.28-.02.46-.17.88-.2.61-.73.95-.2.16-.43.27-.33.11-.65-.44-.43-.74-.6-1.58c-.78-4.14-1.36-8.62-1.92-13.1l-1.25-10.04zM168.6 149.33l-.84-9.02-.1-.82-.13-.93q-.1-.37 0-.73l.15-.57.22-.8 2.92-9.42-.1-.34-.22-.67c-.56-1.63-1.24-3.22-1.83-4.83-.39-1.02-.83-2.02-1.2-3.06q-.51-1.56-.93-3.15c-.17-.62.17-.73.84-.4a6.6 6.6 0 0 1 2.3 2.2q.66 1.11 1.19 2.3l1.07 2.35c.34.79.6 1.61.9 2.42l.42 1.22.2.63.41 1.14-.4 1.32-.26.73-.54 1.52q-.68 1.92-1.21 3.94l-.54 2.02-.27 1-.14.5-.07.25v.08l.84 8.77.53 5.6c.28 2.82.52 5.67.85 8.47.26 2.19.67 4.29.97 6.45q.12.71.2 1.42c.17 1.8 0 2.43-.77 2.83q-.24.14-.49.24c-.54.15-1.07-.53-1.3-1.78-.73-3.75-1.27-7.78-1.73-11.84l-.97-9.07z"/><path fill="#12111f" d="M158.66 187.25a7.3 7.3 0 0 1-2.92-2.24 6 6 0 0 1-1.22-3.73 8 8 0 0 1 .82-3.33q.67-1.43 1.69-2.63a14 14 0 0 1 2.42-2.3l.87-.62a18.62 18.62 0 0 1 14.18-2.1q3.12.8 5.85 2.52.86.57 1.65 1.21c.49.48 1 .94 1.46 1.47l.62.8.56.84q.48.89.87 1.82c.32.77-.14.88-1 .63q-.75-.23-1.45-.59a6 6 0 0 1-1.66-.97 25 25 0 0 0-4.12-2.92q-.7-.42-1.46-.73a16.5 16.5 0 0 0-6.63-1.16q-2.16.1-4.18.86a18 18 0 0 0-3.74 2.1 9 9 0 0 0-2.76 3.4q-.42.9-.42 1.9c0 .57.21 1.13.58 1.56a4.5 4.5 0 0 0 2.14 1.3 13 13 0 0 0 2.92.52q4.77.2 9.46-.7c2.47-.44 4.85-1.12 7.35-1.63q.82-.2 1.66-.33a5.5 5.5 0 0 1 2.32 0 1.8 1.8 0 0 1 1.02.97q.15.25.24.52c.08.27-.12.5-.47.78q-.68.58-1.55.73c-2.05.45-4.25 1-6.51 1.46-2.27.45-4.62.92-7.03 1.23q-2.76.39-5.54.42c-2.07.05-4.12-.28-6.07-1z"/><path fill="#12111f" d="M183.84 202.1a66 66 0 0 0-2.73-3.93c-.35-.47-.77-.89-1.12-1.38a23 23 0 0 1-1.75-2.79l-.38-.82a8 8 0 0 1-.3-.92c-.1-.33-.1-.53-.16-.8l-.13-.78-.56-2.77q-.2-.89-.34-1.76-.09-.9 0-1.8c.05-.39.4-.4.87-.16q.9.47 1.38 1.37c.3 1.17.55 2.27.84 3.4q.2.87.36 1.76l.07.45c0 .15.06.31.08.38q.04.31.16.63.16.45.42.85.27.45.6.85l1.34 1.73q1.47 1.95 2.92 4.02.87 1.28 1.67 2.6.62 1 1.13 2.06.52 1.06 1.02 2.12a34 34 0 0 1 1.73 4.14c.2 1 .09 1.35-.64 1.64q-.2.1-.43.18a1.2 1.2 0 0 1-1.32-.8c-.78-1.8-1.46-3.66-2.44-5.44a39 39 0 0 0-2.35-4zM103.2 162.16q-1.51-1.55-3.06-3.1c-.37-.37-.8-.68-1.17-1.06-1.3-1.34-2.52-2.78-3.8-4.16q-.85-.9-1.75-1.77-1.2-1.06-2.07-2.4c-.17-.3.18-.56.73-.67a2 2 0 0 1 1.69.29c.8.68 1.65 1.33 2.4 2.07q1.1 1.1 2.2 2.33c.83 1 1.94 1.76 2.91 2.68l3.16 3.03 1.94 1.87c.98.94 1.94 1.93 2.96 2.82.78.73 1.69 1.27 2.5 1.94q.28.21.55.45c.6.62.62.98.2 1.61q-.11.22-.26.41a1.2 1.2 0 0 1-1.5.22 21 21 0 0 1-4.5-3.5l-3.19-2.99z"/><path fill="#12111f" d="M100.8 143.54c4.12-1.31 8.27-2.47 12.37-3.74 1.46-.46 2.92-1 4.44-1.47 2.6-.85 5.2-1.73 7.75-2.74q.95-.38 1.88-.78c.63-.27 1.4-.66 1.51-.7l.1-.04v-1.21q.01-1-.05-2.03a62 62 0 0 0-.93-7.22c-.62-3.03-1.15-6.15-2.02-9.05-.31-.8-.05-.92.64-.29.95 1.1 1.66 2.39 2.07 3.79a59 59 0 0 1 2.04 9.5q.34 2.4.46 4.9v1.36l-.05 1.06v.52q-.22.16-.47.26l-.99.48-.6.27q-.53.25-1.13.48c-3.66 1.46-7.38 2.97-11.13 4.25-4.12 1.38-8.28 2.65-12.42 3.95-2.56.8-5.05 1.62-7.58 2.52a83 83 0 0 0-11.13 4.46 33 33 0 0 0-7.3 5.26c-.49.44-.9.93-1.38 1.4-.47.45-.73.8-1.06 1.1q-.5.42-.84.66a2.2 2.2 0 0 1-1.3.46q-.27.03-.55 0-.38-.08-.16-.82a7 7 0 0 1 1.02-2c1.82-2.31 4-4.34 6.44-6a44 44 0 0 1 8-4.19c2.04-.85 4.1-1.6 6.17-2.33l3.07-1.07 3.12-1.05zM79.46 133.14q1.49-2.93 3.4-5.6l.3-.34a7 7 0 0 1 .78-.73l.38-.27q.72-.5 1.46-.92 1.42-.81 2.88-1.5c1.4-.7 2.77-1.41 4.2-2.03 5-2.19 10.08-4.09 15.2-5.9l6.8-2.4c1.47-.5 2.93-1.02 4.4-1.47q2.25-.72 4.63-.92c.53 0 .78.14.73.32-.05.19-.29.41-.63.68a13 13 0 0 1-3.61 1.88c-5.85 1.9-11.6 4.3-17.54 6.3-3.54 1.26-7.08 2.93-10.54 4.53-1.89.9-3.8 1.8-5.54 2.85q-.33.2-.62.4a5 5 0 0 0-1.48 1.36q-.9 1.23-1.62 2.57c-.62 1.12-1.22 2.3-1.93 3.45-.2.47-.73.73-.92.93-.18.2-.54.41-.83.6q-.85.57-1.72 1.07c-1.76 1-3.53 1.83-5.08 2.92a6 6 0 0 0-1.86 1.85q-.69 1.2-1 2.52c-.74 2.82-.64 5.81-.62 8.77 0 .67.04 1.32 0 1.99 0 2.5-.33 3.33-1.07 3.8q-.23.17-.5.3c-.55.15-.86-.85-.97-2.63a69 69 0 0 1-.04-8.33q.12-2.25.67-4.48a10.4 10.4 0 0 1 2.28-4.55l.73-.73c.22-.22.46-.36.73-.53q.7-.51 1.47-.95c.96-.6 1.93-1.1 2.85-1.6a28 28 0 0 0 3.46-2.17l.14-.1.17-.3.38-.65z"/><path fill="#12111f" d="m117.28 155.29.27-4.33v-1.58c.15-1.87.26-3.74.45-5.6q.1-1.26.08-2.5-.07-1.61.24-3.19c.08-.33.47-.26.87 0a2 2 0 0 1 .88 1.42q.33 3.2.1 6.42a33 33 0 0 0 0 3.97q-.02 2.2-.11 4.39l-.11 2.7c-.05 1.38-.16 2.75-.16 4.1 0 1.07.13 2.13.1 3.19q.02.34-.07.73-.05.28-.14.55a1 1 0 0 1-.27.34q-.27.25-.64.33-.16.05-.33.07c-.33.04-.64-.36-.96-1a16 16 0 0 1-.47-5.68l.17-4.33zM113.2 186.35c-.73-2.04-1.46-4.08-2.28-6.1-.3-.74-.64-1.47-.92-2.2q-1.49-3.9-3.02-7.81a49 49 0 0 0-1.52-3.38 36 36 0 0 1-1.87-4.34c-.15-.47.1-.54.58-.33q1.1.49 1.8 1.46l.68 1.03.33.52.29.54 1.09 2.19a37 37 0 0 1 1.85 4.53c.62 1.86 1.55 3.65 2.3 5.53q1.22 3.04 2.42 6.12l1.46 3.78q1.08 2.87 2.26 5.68c.62 1.46 1.38 2.82 2.06 4.23q.2.46.4.94.3.64.31 1.34 0 .23-.1.43a2 2 0 0 1-.27.37c-.1.1-.16.22-.23.28-.16.2-.95-.05-1.46-.84q-.6-.9-1.14-1.82c-.37-.62-.65-1.29-.95-1.95a100 100 0 0 1-1.71-4.03q-1.22-3.06-2.4-6.12z"/><path fill="#12111f" d="m126.1 175.1 2.54 7.06c.32.86.73 1.7 1 2.55l1.59 4.57 1.52 4.6c.44 1.36 1 2.68 1.46 4.03q1 2.55 1.64 5.23c.12.55-.24.6-.77.28a5 5 0 0 1-1.72-1.93c-.74-1.7-1.64-3.34-2.26-5.12-.6-1.78-1.27-3.49-1.84-5.28-.68-2.13-1.63-4.26-2.46-6.39l-2.67-7.07-1.63-4.39-2.45-6.63c-.32-.85-.7-1.67-1.03-2.51a24 24 0 0 1-1.33-3.72c-.36-1.46-.15-2.12.36-2.47q.17-.14.35-.23c.4-.14.84.38 1.23 1.3 1.39 2.76 2.6 5.84 3.87 8.98.94 2.3 1.76 4.7 2.67 7.05zM139.75 106.44c.08.33.11.7.17 1.03l.12.79.15 1.1.3 2.19.61 4.38c.16 1.07.38 2.13.52 3.2l.81 6q.03.32 0 .65v.31a1 1 0 0 1-.18.27q-.5.46-1.19.6c-1.18.32-1.14.22-2.32.52l-.39.09h-.59c0-.07-.07.15.07-.16h-.04l-.25-.17a1 1 0 0 1-.45-.57l-.35-.73-1.08-2.3-.56-1.14-.24-.5-.14-.25-.16-.31-.56.3-.07.04-.16.07-.32.15-.64.3q-1.28.6-2.63 1.03c-1.29.4-.66-2.35 1.6-3.38l4-1.8 1.46 3.23.81 1.81.73 1.76c0 .05 0 .2.1.18h.19l.6-.1h.38c.16 0 .13-.11.13-.22a13 13 0 0 0-.16-1.3l-.28-1.71q-.3-1.73-.56-3.44l-1.28-8.85-.17-1.23-.04-.32v-.26h-.06q-.34-.02-.68.04-.53.1-1.03.3c-.15.08-.37.14-.42.32l-.13.73-.4 1.99-.33 2.05c-.1.73-.2 1.4-.32 2.1l-.17 1.27-.94.3-.8.28-1.29.46-2.56.94q-.66.24-1.31.47c-1.66.55-2.24.56-2.78.07a2 2 0 0 1-.36-.34c-.3-.41.27-1 1.47-1.5q1.8-.75 3.65-1.46l1.9-.66.96-.32.12-.88.29-1.9.34-2.18.17-1.11.12-.7q.07-.53.3-1 .3-.45.74-.74a6 6 0 0 1 1.6-.69l.32-.08.18-.05.27-.05q1.05-.2 2.1-.12h.78q.06.01.06.08v.12l.27.97zM96.06 146.76c2.78-.93 5.66-1.76 8.46-2.59 1.03-.3 2.04-.66 3.07-.95q5.47-1.53 10.85-3.16 2.4-.76 4.7-1.7 2.93-1.22 5.9-2.37c.62-.22.68.07.33.62a6.6 6.6 0 0 1-2.2 2.03 45 45 0 0 1-6.03 2.73 63 63 0 0 1-6.29 2.05c-2.55.68-5.11 1.64-7.68 2.45-2.82.88-5.64 1.74-8.41 2.7q-2.6.84-5.16 1.75a60 60 0 0 0-7.57 3.08q-2.73 1.46-5.11 3.41l-1.03.87q-.4.34-.83.64-.32.2-.67.32-.53.2-1.06 0l-.47-.14c-.42-.22-.2-1.03.63-2.1 2.72-2.87 6.4-4.99 10.13-6.58 2.79-1.2 5.64-2.15 8.43-3.11zM295.48 192.92l-2.5-.73c-.31-.09-.62-.13-.92-.23l-3.18-1.12q-.71-.23-1.46-.41a5 5 0 0 1-1.8-.7c-.18-.11-.05-.37.21-.6a1.4 1.4 0 0 1 .98-.47q.95.09 1.88.3.93.26 1.82.62a15 15 0 0 0 2.29.57q1.25.34 2.5.73.79.22 1.56.41 1.18.32 2.37.52a13 13 0 0 0 2.25.05c.48.06.6.2.67.73q.02.19.04.36a.8.8 0 0 1-.63.81 9 9 0 0 1-3.55-.15c-.86-.16-1.71-.39-2.56-.6zM152 223.78l.54-.4v.04l.06.08.1.16.23.34q.02.57.05 1.16c-.3.97-.61 1.96-.8 2.8l-.24 1.04q-.09.4-.22.8-.32 1.09-.92 2.02-.2.27-.44.55l-.53.5a5.5 5.5 0 0 1-2.32.97l-.5.07-.56.04q-.87 0-1.74-.13l-1.55-.22c-1.46-.25-2.92-.43-4.38-.73a243 243 0 0 1-14.97-3.7l-3.23-.86c-1.12-.33-2.2-.63-3.36-1.06a6 6 0 0 1-1.47-.8q-.31-.25-.46-.63a3 3 0 0 1-.16-.8q-.07-1.29.05-2.58.24-2.16.73-4.28c.1-.44.3-.56.57-.56a1.4 1.4 0 0 1 .89.66 7 7 0 0 1 1.2 3.94v1.07l-.04.84v.04h.06l.45.18.97.33q1 .32 2.03.62l8.43 2.39q5.22 1.35 10.57 2.11a94 94 0 0 0 4.34.6 6 6 0 0 0 1.18 0q.44-.04.84-.22.24-.17.32-.45.21-.53.29-1.1l.14-.67.1-.4q.09-.4.24-.83l.07-.22c0-.08.09-.17 0-.17l-.4-.12-.89-.23q-.9-.17-1.8-.38c-3.66-.81-7.31-1.74-10.92-2.5-2.84-.59-5.68-.89-8.54-1.5-.62-.14-1.26-.23-1.9-.42q-1.34-.3-2.4-1.18a2.1 2.1 0 0 1-.5-1.8q.02-.47.14-.95a1.7 1.7 0 0 1 1.05-1q.95-.36 1.94-.18c2.36.38 4.9.74 7.43 1.27q3.8.8 7.72 1.7l5.8 1.36 1.46.34.73.17.73.23.61.17.69.2.66.24q.33.07.62.27l.26.18.3.12c.1 0 .14.13.18.22l.13.27.45.9zM254.18 216.74l-.47.64q-.07.12-.15.25l-.62.82q-.15.2-.25.4-.11.27-.34.47c-.1.07-.53-.42-.42-.6q.3-.51.68-.93.23-.3.38-.6l.42-.68.28-.42q.2-.3.39-.63c.13-.22.15-.36.22-.54l.05-.12c.08-.14.16-.15.34-.06l.13.06a.34.34 0 0 1 .2.33q-.1.51-.4.96-.2.32-.42.65zM255.12 217.63l-.35.39-.11.15q-.23.25-.43.52l-.16.25a1 1 0 0 1-.2.33c-.05.05-.36-.23-.3-.37q.19-.36.47-.65l.3-.39.33-.41.21-.26q.16-.19.31-.39c.1-.13.12-.22.18-.34v-.07q.06-.14.22-.04l.08.04q.06.03.1.1.02.05 0 .12-.1.33-.34.61l-.33.4zM281.42 209.96l-.32.32c-.1.12-.05.1-.08.14-.04.04-.3.29-.43.44a1 1 0 0 0-.13.24c-.05.1-.06.25-.2.29s-.74-.52-.7-.62q.18-.32.48-.51c.13-.08.17-.23.26-.35l.33-.38.2-.22q.17-.17.32-.33c.1-.12.13-.22.2-.32l.05-.06c.08-.07.14-.04.28.09l.1.1q.12.11.14.3-.03.31-.21.56l-.27.32zM282.52 210.24l-.29.3-.1.13-.4.39a1 1 0 0 0-.14.2c-.05.09-.09.2-.2.25-.1.05-.44-.33-.38-.44q.15-.3.41-.5.15-.14.23-.3l.3-.33.18-.2q.14-.15.25-.3.07-.15.13-.3v-.07q.05-.09.22 0l.09.05q.06.03.1.09t.04.13q-.02.3-.2.55-.12.19-.25.35zM103.3 136.35a335 335 0 0 1 7.46-2.13l2.71-.78c3.2-.89 6.4-1.78 9.5-2.87 1.4-.46 2.76-1.04 4.11-1.58l2.55-1.19q1.25-.63 2.52-1.25c.52-.25.52-.1.15.27a9 9 0 0 1-2.05 1.46 64 64 0 0 1-10.81 4.18c-2.2.65-4.53 1.36-6.8 2.01-2.5.73-5.02 1.4-7.5 2.15q-2.3.68-4.58 1.46-1.72.6-3.42 1.22-1.7.63-3.34 1.37-1.28.58-2.52 1.18l-2.42 1.31q-.53.3-1.05.6c-1.3.78-1.75.97-2.14.95h-.26c-.22-.06.25-.49 1.19-1.11q2.13-1.41 4.43-2.56a84 84 0 0 1 12.24-4.68zM171.49 199.36l-.73.55q-.12.13-.26.23l-.96.73-.4.35q-.22.27-.54.42c-.14.05-.36-.55-.18-.73q.51-.45 1.07-.82.34-.25.64-.55l.73-.6.45-.36q.35-.27.73-.54c.26-.18.33-.3.52-.44l.11-.1c.16-.1.23-.1.35 0l.07.08q.06.06.06.16 0 .09-.06.16-.36.47-.83.87-.33.3-.73.58zM174.54 200.34l-1.11.85q-.2.18-.39.35-.7.56-1.33 1.22-.29.3-.51.61-.28.43-.61.82c-.15.15-.47-.37-.25-.73q.61-.92 1.46-1.63.48-.45.96-.92c.33-.29.73-.63 1.11-.93l.73-.54q.54-.41 1.07-.82c.33-.28.5-.47.73-.7l.17-.15c.2-.18.31-.2.48-.08l.1.08c.12.1.1.27-.03.43q-.65.71-1.4 1.27l-1.13.87zM221.27 78.61a19.6 19.6 0 0 0 17.33-2.92c4.9-3.78 5.23-12.1-.97-15.11-5.68-2.76-10.5 4.13-8.4 9.22 1.93 4.66 7.63 6.01 12.18 5.4a14.9 14.9 0 0 0 13.08-12.71c.17-1.03-3.1-.46-3.26.49-.83 4.88-3.66 9.8-8.97 10.66-4.07.65-8.93-1.38-10.05-5.62a7 7 0 0 1 .16-4.18c.97-2.59 3.35-1.6 4.73.19 1.6 2.1 2.58 4.94 1.72 7.54-1.95 5.85-9.7 7.25-14.9 5.6-.86-.27-3.81 1.07-2.65 1.47zM142.08 72.59c-3.32 1.11-5.18-.73-5.33-4.06a12 12 0 0 1 1.4-6c.06-.12.38-.42.39-.55 0-.68.06.5-.37-.1-.44-.58.08.37.06.3q.24.42.56.79a2.2 2.2 0 0 1 .5 1.61c-.3 1.1-1.64 1.35-2.6 1.47-3.76.32-5.78-2.3-4.5-5.85.4-1.07-2.69-.73-3.07.36-1.5 4.14 1.06 6.96 5.22 7.26 2.5.18 7.83-.6 8.03-3.95.22-3.17-3.42-4.63-5.75-2.97-2.51 1.78-3.23 5.92-2.93 8.77.45 4.89 4.65 5.93 8.82 4.53 1.8-.6 1.4-2.24-.44-1.63z"/></svg>