<svg xmlns="http://www.w3.org/2000/svg" width="380" height="380" fill="none"><path fill="#12111f" d="M187.707 339.582s3.033-3.705 6.621-2.076c2.134.972-6.212-4.151-6.212-4.151z"/><path fill="#12111f" d="M153.653 75.701c-.315.622-.446 1.455-.38 2.185 0 .14.043.264.095.373.043.117.073.241.131.344.234.818 1.067 1.425 2.149 1.797.482.154 1.008.197 1.527.183.672.022 1.345-.044 2.068.022.227.022.256.27.124.584-.131.307-.424.746-.847.907a9 9 0 0 1-1.17.336c-.402.08-.818.073-1.235.066-.833-.037-1.739-.212-2.514-.76-.233-.14-.46-.337-.694-.49a12 12 0 0 1-.657-.577c-.402-.431-.76-.928-.95-1.47-.11-.299-.198-.591-.234-.89l-.073-.447v-.43c-.044-.578.036-1.148.153-1.71a6.7 6.7 0 0 1 .811-1.945c.541-.913 1.316-1.593 2.046-2.236.285-.256.556-.511.833-.774q.428-.375.877-.695c.132-.094.256-.197.402-.277.256-.176.505-.117.68-.088.183.051.329.168.49.35.073.081.153.162.211.242.198.27.132.665-.095 1.103-.372.57-.825.972-1.213 1.425-.431.388-.847.76-1.22 1.14-.533.57-.994 1.119-1.264 1.776l-.059-.014zM192.486 100.132c-.848-.994-1.404-2.382-1.345-3.698-.007-.241.022-.468.029-.701 0-.234.029-.468.11-.68.453-1.55 1.359-2.748 2.367-3.727.468-.424.929-.826 1.418-1.206.636-.46 1.359-.825 2.141-.95.241-.044.278.147.205.446-.073.307-.234.73-.482 1.06l-.344.394c-.109.14-.204.293-.321.41-.242.226-.446.496-.68.723-.387.534-.928.92-1.337 1.44-.534.599-.716 1.41-.797 2.119-.088.79.051 1.542.475 2.25a4.8 4.8 0 0 0 1.06 1.17c.636.49 1.425.833 2.287.899.672.073 1.337-.161 2.046-.234.154-.022.314-.059.475-.066.614-.03.877.183.972.782.022.139.051.27.059.402 0 .446-.22.826-.6 1.001-.592.249-1.264.541-2.038.563a7.4 7.4 0 0 1-2.449-.249 6.7 6.7 0 0 1-1.812-.818c-.57-.366-1.03-.826-1.491-1.286l.044-.044z" opacity=".35"/><path fill="#12111f" d="M94.35 47.502c2.462-.672 4.932-1.191 7.402-1.696.899-.175 1.791-.409 2.697-.57 3.186-.577 6.379-1.06 9.566-1.549 1.417-.219 2.835-.46 4.231-.701a115 115 0 0 1 2.704-.424c.898-.154 1.826-.154 2.74-.212.57-.022.511.117.066.38-.22.131-.541.307-.928.49-.198.095-.402.19-.629.285-.109.05-.234.087-.351.138l-.372.088c-3.632.804-7.293 1.389-10.998 1.93-2.215.32-4.48.869-6.709 1.358a152 152 0 0 0-7.315 1.754c-1.483.402-2.974.826-4.392 1.367l-.43.16c-.103.044-.213.081-.308.132 0 .358.095 1.55.168 2.463.08.957.183 1.914.292 2.857.22 1.79.578 3.53.965 5.255.088.38.168.745.256 1.125.285 1.41.307 1.841-.044 2.287-.08.102-.146.227-.234.3q-.22.186-.548-.154c-.22-.226-.453-.62-.65-1.147-.614-1.564-.98-3.208-1.272-4.882a53 53 0 0 1-.643-5.078l-.124-1.66c-.051-.84-.102-1.687-.146-2.528.314-.153.614-.314.935-.453l.475-.219c.146-.066.365-.139.417-.16.35-.14.701-.257 1.052-.373a46 46 0 0 1 2.097-.65l.015.043zM120.95 151.182c2.149 0 4.312-.029 6.468-.095l2.353-.132c2.77-.087 5.546-.197 8.316-.387 1.228-.073 2.455-.219 3.668-.38l1.162-.168 1.17-.124c.387-.037.782-.088 1.176-.088h1.191c.497.007.453.132.088.417a12 12 0 0 1-.782.562c-.168.103-.343.234-.541.329a4 4 0 0 1-.628.219c-.789.212-1.586.395-2.39.483-.804.109-1.607.212-2.411.292-1.608.175-3.23.256-4.86.278-1.951.029-3.961.255-5.941.35-2.185.103-4.37.169-6.555.212-1.345.022-2.689.037-4.041.037-.665 0-1.323 0-1.995-.029-.336-.015-.665-.022-1.009-.044-.285-.015-.825-.044-1.235-.234a3 3 0 0 1-.475-.592 7 7 0 0 1-.292-.504 31 31 0 0 1-.519-.957c-.738-1.411-1.491-2.777-2.053-4.268a20 20 0 0 1-.366-.987 8 8 0 0 1-.204-.811 3.4 3.4 0 0 1-.022-.584c.022-.322.124-.527.27-.687.066-.073.132-.168.198-.212.233-.146.526.314.928 1.125.518 1.228 1.169 2.455 1.819 3.698q.471.942.987 1.863c.168.307.343.614.519.906.08.132.197.322.241.388l.153.014.768.037 1.6.036c1.074.015 2.163 0 3.244-.014v.051"/><path fill="#12111f" d="M187.48 207.421s-10.106-.212-10.333.899c-.226 1.11.519 6.474-4.823 6.182 0 0-3.076-1.491-2.009-5.115 1.395-4.743 11.137-4.933 11.137-4.933l6.028-.556v3.53z" opacity=".3"/><path fill="#12111f" d="M231.689 318.63c.285 2.009.6 4.019.98 6.021l.475 2.178c.526 2.558 1.103 5.115 1.827 7.629a48 48 0 0 0 1.132 3.274c.249.694.548 1.367.833 2.039l.205.512c.051.182.117.35.175.526.117.35.234.694.358 1.052.139.446-.036.475-.423.241a6 6 0 0 1-.739-.548c-.138-.124-.292-.256-.438-.409-.08-.073-.139-.161-.212-.241-.051-.095-.102-.183-.153-.285-1.447-2.777-2.295-5.759-2.938-8.784-.373-1.812-.906-3.654-1.294-5.503a117 117 0 0 1-1.103-6.116c-.205-1.257-.365-2.521-.541-3.786-.256-1.914-.438-3.844-.643-5.744-.146-1.483-.38-2.93-.431-4.413-.015-.329-.058-.644-.051-.972.007-1.221.109-1.608.446-1.864.073-.058.153-.131.226-.168.249-.11.468.38.592 1.257.146 1.293.395 2.616.541 3.953.066.673.131 1.345.204 2.025.074.679.147 1.359.227 2.039.117 1.015.241 2.031.358 3.047l.424 3.047h-.037zM227.352 274.923l1.658 7.11.841-8.732zM162.851 292.316s-4.612-6.774-4.575-1.542c.015 1.681-.811-5.641-.811-5.641z"/><path fill="#12111f" d="M187.772 329.132s-1.761-13.292-2.156-15.689c-.394-2.397-5.561-32.322-3.938-43.708 1.615-11.392 2.331-13.614 2.331-13.614l4.83.943s.68 27.645 7.067 42.713c6.394 15.061 10.384 34.938 10.384 34.938s-6.584 2.77-8.579 2.792-6.636-1.031-9.69-7.512" opacity=".35"/><path fill="#12111f" d="M185.176 302.801c.38 2.996.804 5.985 1.25 8.966l.548 3.252c.606 3.83 1.257 7.659 2.046 11.452.168.847.358 1.68.563 2.513.204.841.394 1.667.716 2.412.767 1.951 2.229 3.654 4.172 4.56.6.248.512.336-.095.292a5.6 5.6 0 0 1-2.791-1.235 8.7 8.7 0 0 1-2.244-2.828c-.117-.278-.248-.555-.35-.833l-.285-.855-.439-1.644a73 73 0 0 1-.774-3.311c-.22-1.11-.417-2.228-.607-3.346-.431-2.682-1.03-5.445-1.483-8.178a375 375 0 0 1-1.404-9.039c-.255-1.857-.518-3.72-.774-5.576-.395-2.814-.702-5.649-1.067-8.448-.278-2.17-.629-4.297-.87-6.453-.058-.475-.109-.935-.168-1.417-.182-1.776-.102-2.353.124-2.763.052-.095.095-.211.147-.27.153-.183.445.519.672 1.798.329 1.907.687 3.866.994 5.853.292 1.995.592 4.012.891 6.036.461 3.004.833 6.029 1.257 9.047h-.036zM265.422 112.611q.603-.142 1.227-.22c.154-.021.293-.073.453-.095.541-.051 1.104-.087 1.659-.007.249.029.49.029.731.088.307.058.614.153.877.336.08.058.044.11-.051.161-.103.051-.263.139-.431.168-.578.095-1.075.197-1.645.19-.343-.029-.687.102-1.037.183-.388.08-.775.182-1.177.255-.241.051-.489.103-.723.168-.366.095-.731.183-1.089.307-.271.103-.519.256-.775.38a1 1 0 0 1-.175.066c-.234.051-.329.015-.453-.146-.029-.037-.059-.073-.081-.11-.073-.124-.036-.277.095-.431.38-.468.892-.687 1.396-.943.387-.16.789-.255 1.191-.38v.03zM264.802 108.365c-.687.022-1.381.073-2.068.183-.256.029-.497.11-.745.153q-1.338.222-2.653.585a10 10 0 0 0-1.155.358c-.489.161-.993.292-1.505.402-.161.029-.161-.022-.058-.146.102-.117.277-.344.533-.519.227-.153.453-.307.694-.438.241-.11.49-.227.738-.322.497-.212 1.023-.336 1.557-.438.636-.125 1.279-.344 1.929-.483.716-.146 1.44-.256 2.17-.321.454-.044.899-.059 1.352-.073.687-.008 1.374.029 2.054.095.526.043 1.059.051 1.586.175.117.022.233.037.343.066.212.058.336.146.402.256a.55.55 0 0 1 .102.314c0 .051.015.102 0 .146-.014.139-.234.234-.562.3-.461-.03-.899-.066-1.33-.095a20 20 0 0 0-1.338-.147 16 16 0 0 0-2.046-.036v-.029zM104.294 133.481c.65-.139 1.301-.322 1.944-.519.234-.088.46-.168.694-.256a33 33 0 0 0 2.441-.935c.358-.153.694-.343 1.045-.512.438-.219.884-.453 1.337-.643.146-.058.154 0 .081.132a1.9 1.9 0 0 1-.461.519c-.811.636-1.717 1.111-2.674 1.505-.57.234-1.133.541-1.718.789-.635.278-1.293.512-1.951.731-.402.139-.818.249-1.235.373-.628.168-1.271.307-1.914.424-.249.058-.497.109-.746.168a5 5 0 0 1-.767.153c-.117.015-.227.051-.344.044-.219-.022-.365-.058-.453-.139a.64.64 0 0 1-.153-.365c-.007-.066-.03-.132-.03-.197a.45.45 0 0 1 .125-.293c.08-.095.197-.204.336-.226.797-.227 1.615-.249 2.492-.402a24 24 0 0 0 1.951-.38v.029M254.965 137.553q.876-.196 1.754-.38c.212-.044.416-.132.628-.168.76-.117 1.535-.168 2.295-.263.336-.037.665-.125 1.001-.168.424-.066.848-.147 1.301-.081.138.022.153.219.08.453s-.227.534-.453.643c-.409.168-.797.402-1.22.475a9 9 0 0 1-1.294.154c-.526.014-1.03.248-1.549.351-.57.117-1.147.233-1.717.365a18 18 0 0 0-1.053.263c-.526.146-1.059.292-1.564.475-.394.154-.745.38-1.118.57-.08.044-.153.095-.248.117-.168.044-.285.058-.387.015a.8.8 0 0 1-.278-.249c-.037-.051-.081-.088-.11-.131-.051-.073-.051-.154-.036-.271.022-.109.058-.285.16-.372.563-.629 1.309-.958 2.047-1.294.562-.219 1.147-.373 1.732-.541l.014.037zM121.557 153.417c.519 0 1.03 0 1.549-.015.19 0 .373-.051.563-.051.665-.022 1.337.029 2.002 0 .3-.007.592-.051.877-.095.373-.037.746-.102 1.133-.037.124.022.131.19.058.388-.073.197-.219.446-.431.526l-.555.19c-.19.051-.38.073-.57.102a7 7 0 0 1-1.169.059c-.468-.008-.943.102-1.425.131-.527.037-1.053.051-1.572.073-.321.015-.65.022-.972.037-.489.022-.979.022-1.468.08-.373.044-.746.132-1.118.19-.081.015-.161.037-.249.037-.314.014-.416-.088-.482-.395-.015-.073-.037-.139-.044-.212a.52.52 0 0 1 .307-.541 5.6 5.6 0 0 1 2.002-.438l1.549-.066v.029zM116.296 153.652s-14.499 8.141-12.343 10.033c4.158 3.661 16.004-1.257 16.004-1.257l-3.661-8.783zM259.59 150.839s11.546 3.83 13.512 1.966c2.324-2.2-10.392-10.399-10.392-10.399l-3.12 8.441zM257.993 200.246s5.875 13.578 15.112 19.212c0 0-4.955 17.597-16.121 24.408-11.159 6.81-13.687 2.682-13.687 2.682l8.754-23.926 5.934-22.369zM126.598 215.468l10.217 24.817s-14.842-6.884-18.153-16.786-1.746-5.239 2.353-6.197c4.107-.957 5.576-1.841 5.576-1.841zM166.346 174.434l8.572 3.843s-2.645 13.564-2.594 16.604 0 9.01 0 9.01-7.717 3.011-6.548 9.083c1.104 5.73 7.564 7.082 12.102 4.524 0 0 3.003 4.691 9.098 6.379 6.095 1.689 18.204-2.389 20.447-5.195s8.17-8.521 10.516-14.236c0 0 8.111.329 10.676-1.498s-8.294 22.493-11.195 26.885c0 0-11.429 12.277-16.917 14.703s-11.539 4.414-16.91 3.018-15.339-7.176-24.605-25.62-9.793-21.69-9.793-21.69 8.448-6.16 10.136-9.229 7.015-16.574 7.015-16.574zM166.343 148.242c-5.714-.54-12.335 20.506 5.978 28.442 0 0 12.825 3.698 21.587 1.184s16.362-5.167 19.804-10.165c0 0 1.79.226 2.2 2.696.409 2.47-.074 14.126 6.087 21.785 0 0 4.743-2.923 7.658-2.485s2.909 0 2.909 0 10.537-33.075 9.799-38.292c-.738-5.218-14.63-6.036-14.63-6.036s-10.018 1.666-13.402 8.053c0 0-6.453-8.36-12.416-9.172-5.963-.811-35.581 3.99-35.581 3.99z"/><path fill="#12111f" d="M179.712 183.1c.409 1.367 1.498 2.404 2.711 3.091s2.667 1.118 4.085 1.118c.526 0 1.03-.46 1.008-1.008s-.438-1.001-1.008-1.009c-.139 0-.27 0-.409-.014-.073 0-.154-.015-.227-.022-.124-.015-.131-.022 0 0a9 9 0 0 1-.862-.175 8 8 0 0 1-.855-.285c-.183-.066.088.043-.029-.008-.073-.036-.154-.066-.227-.102a6.635 6.635 0 0 1-1.147-.68c-.154-.109.073.073-.015-.007-.044-.044-.102-.08-.146-.124a5 5 0 0 1-.329-.314c-.088-.088-.161-.19-.248-.278.168.183.014.014-.015-.029-.036-.052-.066-.103-.102-.147-.066-.109-.124-.226-.19-.336-.11-.204.066.205 0-.014l-.066-.198c-.153-.504-.709-.869-1.235-.701s-.862.694-.702 1.235z"/><path fill="#12111f" d="M187.683 186.871c-1.008.826-2.016 1.674-2.923 2.565-.321.329-.599.702-.869 1.031-.241.292-.461.599-.578.833-.021.058-.043.095-.051.131 0 .015-.007.029-.014.051v.11c.007.161-.015.329.029.497.102.672.409 1.381.855 2.032.395.577.921 1.096 1.469 1.556.343.314.701.607 1.067.913.35.329.672.687 1.001 1.075.204.263.044.358-.3.394-.336.03-.935.073-1.483-.146a13 13 0 0 1-1.323-.818c-.424-.307-.796-.695-1.169-1.082-.724-.796-1.381-1.754-1.688-2.93-.051-.168-.073-.358-.11-.534-.029-.182-.073-.358-.073-.548 0-.197-.029-.358-.022-.592.015-.255.081-.504.154-.709.307-.767.708-1.278 1.125-1.775.935-1.06 1.922-1.973 2.93-2.88l1.857-1.629c.898-.826 1.826-1.644 2.44-2.624.49-.752.658-1.6.687-2.338-.014-.168-.044-.322-.036-.49a2 2 0 0 1 .073-.694c.08-.183.197-.321.358-.468.073-.065.139-.146.204-.197.117-.088.242-.073.432.022.168.102.453.278.592.607.263.467.387 1.023.394 1.593.022.562-.058 1.147-.27 1.651-.388 1.038-1.016 1.886-1.666 2.616-.98 1.096-2.061 1.944-3.055 2.814zM260.747 144.378c.373-.847.746-1.702 1.096-2.557.132-.314.205-.643.336-.958.461-1.103.987-2.192 1.484-3.288.212-.49.387-.994.577-1.491.132-.314.205-.65.388-.942.168-.3.365-.592.577-.87.139-.175.278-.088.424.153.139.242.35.673.35 1.082-.087 1.425-.613 2.689-1.249 3.939-.387.745-.599 1.586-.899 2.389l-1.045 2.617-.658 1.607c-.314.819-.687 1.623-.994 2.441-.241.636-.35 1.308-.613 1.922-.052.139-.095.278-.161.409-.124.249-.227.402-.358.49-.146.08-.285.095-.475.08-.081 0-.168 0-.241-.022-.125-.029-.212-.109-.285-.248a1.04 1.04 0 0 1-.11-.541c.066-.614.073-1.264.241-1.849.154-.599.336-1.191.534-1.783.285-.877.679-1.725 1.008-2.601l.044.014zM251.334 141.074c-.197.394-.402.789-.599 1.183-.066.147-.088.307-.161.446-.263.504-.526 1.009-.818 1.513-.125.226-.19.46-.271.694-.102.3-.182.607-.424.87-.073.08-.277.014-.489-.132-.205-.139-.446-.365-.461-.555-.065-.687.052-1.33.38-1.915.227-.343.249-.76.373-1.14.139-.416.3-.826.46-1.242.095-.256.212-.504.3-.76.139-.387.307-.767.387-1.162.059-.314 0-.65.044-.965 0-.073 0-.146.015-.212.051-.255.241-.285.709-.204l.314.051c.329.073.628.27.716.49.11.321.197.643.19.942a4.4 4.4 0 0 1-.175.863c-.125.416-.293.825-.439 1.235l-.051-.015zM256.009 109.606c1.813-.774 3.588-.986 5.298-1.227.629-.081 1.257-.212 1.893-.256 1.118-.08 2.243-.11 3.362-.102 1.125.014 2.323.065 3.515.482.533.197 1.066.482 1.52.972.46.482.686 1.235.613 1.841-.073.79-.38 1.44-.694 2.003-.329.577-.745 1.103-1.286 1.498-.431.168-.424.073-.475-.388-.037-.233-.022-.504 0-.818.015-.307.066-.621.197-.913.227-.519.41-1.06.402-1.411 0-.175-.036-.285-.073-.343-.029-.059-.08-.11-.183-.198a2 2 0 0 0-.467-.248 4.4 4.4 0 0 0-.673-.241 11 11 0 0 0-1.658-.293c-1.462-.138-3.026.081-4.531.249-1.652.197-3.362.416-4.889.884a8 8 0 0 0-.694.249c-.227.087-.453.19-.607.277a.616.616 0 0 0-.365.673.8.8 0 0 0 .102.299c.059.117.146.234.249.336.212.22.511.395.847.541.665.3 1.396.461 2.141.512 1.17.073 2.332-.161 3.545-.344.263-.044.526-.095.804-.124.511-.015.855.007 1.103.11.241.117.387.27.497.467.051.088.117.176.146.263.051.139-.029.271-.205.417a2 2 0 0 1-.796.402c-.519.168-1.052.27-1.608.365-.555.095-1.125.176-1.724.234-1.192.095-2.507.08-3.822-.321a6.6 6.6 0 0 1-1.447-.622c-.483-.292-1.038-.672-1.418-1.344-.424-.738-.504-1.674-.175-2.441.16-.387.445-.723.752-.979.293-.241.57-.388.804-.49l.022.044zM123.814 217.625a8.4 8.4 0 0 1-1.725.577c-.212.051-.417.131-.628.161a8 8 0 0 1-2.193-.146 6 6 0 0 0-.906-.095c-.387 0-.782.007-1.103-.322-.103-.095-.015-.446.153-.811.168-.351.417-.811.614-.841.694.015 1.308.022 1.958.271.198.066.395.066.585.029.197-.029.38-.088.563-.124.416-.073.818-.19 1.22-.373q.375-.162.738-.402c.366-.241.753-.482 1.067-.818.249-.263.402-.621.65-.899.052-.066.088-.146.169-.183.27-.161.453-.102.789.212.08.073.161.139.226.212.234.241.336.555.307.826a2.26 2.26 0 0 1-.343 1.023c-.198.27-.439.519-.702.76-.387.365-.884.694-1.403.986l-.029-.043zM237.009 171.6c.709-2.316 1.396-4.647 1.988-7 .219-.855.394-1.725.599-2.587a103 103 0 0 0 1.907-9.157c.227-1.366.336-2.755.475-4.121.081-.877.081-1.762.19-2.639.11-.876.263-1.753.446-2.638.117-.548.205-.475.395 0 .117.3.248.636.387.98.161.409.314.891.38 1.41.139 1.842-.015 3.683-.183 5.51-.117.913-.263 1.82-.409 2.733a86 86 0 0 1-.541 2.711 66 66 0 0 0-.65 3.296c-.219 1.111-.417 2.229-.665 3.325a127 127 0 0 1-1.893 7.176c-.409 1.462-.877 2.916-1.315 4.37-.702 2.192-1.403 4.392-2.098 6.562a67 67 0 0 0-.723 2.544l-.745 2.521c-.11.372-.212.738-.344 1.103-.27.672-.482 1.104-.701 1.374-.242.27-.446.402-.68.482-.11.037-.212.095-.3.11-.146.022-.219-.124-.27-.417a3.7 3.7 0 0 1 .015-1.264c.109-.789.299-1.556.482-2.338q.274-1.173.592-2.346c.453-1.557.964-3.12 1.447-4.692a300 300 0 0 0 2.17-7.015h.051zM220.795 225.544c-1.754 2.894-3.705 5.678-5.898 8.258-.818.928-1.585 1.9-2.477 2.755-3.069 3.098-6.643 5.663-10.443 7.739-.862.431-1.71.884-2.572 1.308-.884.38-1.739.811-2.631 1.147-2.258.928-4.603 1.732-7.066 1.893-.76.073-.68-.059-.124-.453.328-.227.716-.505 1.14-.804.475-.3 1.052-.578 1.673-.87 4.516-1.703 8.842-3.712 12.905-6.372 2.434-1.593 4.626-3.72 6.629-5.912a52.5 52.5 0 0 0 5.911-7.871c1.053-1.731 2.054-3.507 2.938-5.334a82 82 0 0 0 3.617-8.521c.819-2.251 1.425-4.516 2.127-6.796.161-.504.285-1.001.46-1.505.344-.921.629-1.52.921-1.9.336-.366.636-.527.95-.614.146-.044.292-.117.402-.132.19-.022.263.183.314.585s.059.986-.131 1.666c-1.031 4.07-2.309 8.404-4.071 12.613-1.315 3.12-2.82 6.197-4.545 9.149l-.051-.022zM187.222 257.362c-.373-.036-.746-.204-1.097-.328-.124-.052-.27-.059-.394-.125-.431-.241-.804-.562-1.133-.869-.139-.139-.307-.249-.446-.373a.77.77 0 0 1-.394-.636c0-.095.175-.248.416-.409.234-.146.556-.343.695-.343.255-.015.372.109.54.168.117.124.234.248.336.431.132.204.381.204.578.27.219.088.46.154.716.212.153.037.321.08.482.088.249.022.519.044.768-.029.19-.066.358-.22.533-.344.037-.022.066-.073.117-.073.168-.022.256.095.424.49l.117.263c.117.299.131.584.044.774-.263.548-.709.731-1.184.826-.358.073-.731.073-1.111.059v-.052zM193.648 335.591c.95.504 2.046.818 3.172.87.409.007.818-.052 1.22-.103a7.4 7.4 0 0 0 2.119-.519c.694-.277 1.403-.701 2.185-1.081.687-.336 1.44-.709 2.287-.855.541-.066 1.104-.066 1.652.095.548.153 1.089.489 1.41.986.198.329-.138.446-.54.534-.424.066-.87.27-1.184.27-.3-.014-.629.03-.95.125-.329.08-.621.116-.994.27-.723.27-1.535.738-2.492 1.133-1.155.489-2.411 1.037-3.712 1.147a9.6 9.6 0 0 1-4.195-.541 9.3 9.3 0 0 1-2.294-1.22c-1.06-.782-1.908-1.783-2.595-2.858-.533-.833-1.074-1.673-1.381-2.645-.073-.212-.146-.417-.183-.643-.095-.833.081-1.118.534-1.301.102-.044.205-.095.314-.117.351-.08.658.212.899.68.365.687.665 1.337 1.023 1.973.358.628.76 1.235 1.235 1.783a8.2 8.2 0 0 0 2.499 1.958l-.022.052zM102.746 132.117c2.046-.387 3.961-.665 5.824-1.403.687-.248 1.345-.562 2.039-.833l.921-.358.475-.175.548-.19c.263-.081.534-.154.797-.168.131-.022.255.029.387.058l.095.029c.051-.051.058.015.095.022l.168.11c.219.139.468.278.636.468.146.131.285.307.416.475.256.358.49.803.541 1.337a2.4 2.4 0 0 1-.336 1.41c-.46.775-1.082 1.199-1.681 1.586-1.089.658-2.214 1.111-3.361 1.476q-1.107.352-2.258.519c-.768.095-1.55.168-2.324-.066-.475-.321-.395-.255 0-.606.394-.344 1.03-.826 1.805-.987a19 19 0 0 0 2.031-.592c.673-.204 1.33-.445 1.951-.723.622-.278 1.206-.607 1.667-.972a2.5 2.5 0 0 0 .504-.519c.102-.161.131-.234.139-.343.022-.132-.154-.417-.38-.614a.44.44 0 0 0-.168-.139.8.8 0 0 0-.22.044l-.584.197-.651.241q-.659.243-1.33.475a41.6 41.6 0 0 1-6.072 1.593c-1.243.241-2.492.439-3.618.826-.197.073-.453.175-.518.205-.103.058-.256.095-.293.226-.036.124 0 .256.044.38.029.059.051.117.08.183.044.095.103.183.161.278.468.745 1.148 1.395 1.878 1.943 1.14.855 2.448 1.425 3.778 1.82.293.088.585.154.885.227.548.146.913.226 1.154.365.241.146.373.3.461.541.043.109.102.212.124.314.036.168-.081.307-.322.395-.241.095-.621.146-1.081.087-2.755-.372-5.525-1.754-7.571-4.055a9 9 0 0 1-.563-.687c-.087-.132-.175-.256-.263-.402a4 4 0 0 1-.314-.658 3.2 3.2 0 0 1-.16-.723c.014-.234.029-.468.116-.695.168-.46.6-.709 1.03-.964l.33-.154c.073-.036.138-.058.211-.087.139-.052.278-.11.41-.154.27-.095.54-.168.811-.241a27 27 0 0 1 1.564-.358l.014.036z"/><path fill="#12111f" d="M102.594 132.328a36 36 0 0 0 4.034-1.14c.489-.168.95-.402 1.432-.578a50 50 0 0 0 2.521-1.001c.417-.168.841-.336 1.235-.526.388-.19.811-.387.994-.599.249-.249.468-.534.555-.811q.144-.419-.029-.717c-.146-.263-.497-.453-.891-.57a3 3 0 0 0-.629-.138c-.219-.015-.46-.081-.701-.052-.315.008-.336-.051-.146-.35.095-.161.255-.351.504-.585.256-.19.614-.343 1.023-.351.365-.022.738.044 1.096.227a2.74 2.74 0 0 1 1.008.767c.278.366.497.855.505 1.323.036.475-.081.906-.227 1.264-.066.197-.168.336-.256.497-.087.168-.19.307-.299.431-.11.139-.198.249-.336.395-.183.182-.322.277-.461.38a9.5 9.5 0 0 1-1.542.847c-1.235.527-2.448 1.14-3.697 1.637-1.382.527-2.785.98-4.217 1.367-.884.234-1.776.431-2.689.585-.694.116-1.403.19-2.134.182a5.6 5.6 0 0 1-1.133-.109 3.3 3.3 0 0 1-.592-.176 2.8 2.8 0 0 1-.57-.314c-.533-.351-1.015-.928-1.169-1.659-.146-.716.044-1.483.468-2.068.197-.248.41-.49.672-.665.504-.321.906-.373 1.177-.307.27.059.416.241.526.453.051.103.102.198.124.293.066.306-.285.643-.57.92-.475.366-.533.914-.373 1.082.073.088.154.161.33.285.043.022.094.073.123.073.022.007.052.029.117.036.095.037.256.059.417.074 1.06.087 2.485-.154 3.807-.475l.015.051zM129.281 155.113c.088.322.183.643.3.95.043.11.124.205.153.329.11.424.219.863.387 1.265.073.182.183.336.3.489.146.19.336.351.373.629.029.168-.885.628-1.126.438-.387-.358-.723-.775-.884-1.293-.095-.307-.351-.534-.519-.812-.161-.314-.292-.65-.424-.979-.08-.204-.16-.409-.241-.606-.124-.307-.226-.614-.38-.907-.109-.226-.314-.409-.46-.613-.037-.044-.081-.088-.103-.132-.095-.183.015-.3.38-.49l.249-.131c.285-.132.57-.161.745-.08.453.27.76.599.936 1.001.131.299.226.614.35.92zM118.494 156.59q.273.866.577 1.732c.073.212.19.402.263.614.117.38.241.76.344 1.147l.263 1.184c.073.351.175.694.256 1.045.095.446.153.921.043 1.389-.029.146-.168.116-.336.007-.168-.11-.387-.285-.489-.504a15.7 15.7 0 0 1-.943-2.353c-.146-.505-.424-.987-.658-1.477l-.723-1.666a44 44 0 0 0-.446-1.037c-.234-.527-.424-1.075-.665-1.594-.175-.409-.49-.767-.665-1.191-.037-.095-.095-.175-.117-.277-.066-.38.095-.548.431-.709.081-.037.154-.081.234-.11.256-.095.541-.014.797.168.328.278.592.57.752.906.183.329.336.68.497 1.038.227.534.402 1.111.621 1.666zM229.798 299.016c.27 3.83.629 7.659 1.22 11.466.205 1.389.468 2.77.724 4.151.811 4.889 1.834 9.756 2.996 14.593.497 2.149 1.096 4.29 1.688 6.394.38 1.36.833 2.697 1.177 4.064.343 1.366.614 2.762.847 4.158.139.877-.065.811-.548.175a24 24 0 0 1-.928-1.33 10.6 10.6 0 0 1-1.045-1.988 120 120 0 0 1-4.384-16.807c-.337-1.71-.673-3.464-1.067-5.203a223 223 0 0 1-1.031-5.277c-.621-3.88-1.176-7.768-1.483-11.692-.088-1.206-.227-2.411-.271-3.617l-.16-3.625c-.059-1.827-.008-3.668-.022-5.502.102-1.835.146-3.662.27-5.474.132-1.41.219-2.806.314-4.209.161-1.389.351-2.777.541-4.166.044-.306.081-.613.124-.913.059-.3.132-.599.205-.906.285-1.126.497-1.856.731-2.346.256-.49.482-.745.738-.928.117-.088.234-.205.336-.248.161-.066.248.138.3.577a7 7 0 0 1-.037 1.929c-.336 2.433-.592 4.933-.877 7.461-.08 1.272-.197 2.543-.314 3.822-.11 1.279-.117 2.572-.183 3.866l-.066 1.44v4.34c.044 1.93.147 3.866.256 5.795zM158.702 300.798c-.022 1.484-.146 2.96-.212 4.436-.117 1.476-.219 2.945-.358 4.414-.117 1.067-.161 2.149-.292 3.208-.453 3.764-1.016 7.491-1.484 11.225-.226 1.659-.329 3.332-.504 4.976l-.263 3.179c-.117 1.06-.285 2.112-.446 3.172-.109.657-.234.57-.416 0-.168-.57-.483-1.623-.6-2.872-.043-4.399.497-8.74 1.14-13.081.395-2.594.563-5.32.797-7.98.248-2.93.512-5.853.614-8.791.051-.906.058-1.805.073-2.711.007-.906.044-1.805 0-2.711-.044-1.367-.037-2.741-.154-4.1-.087-1.367-.175-2.726-.372-4.07-.234-2.098-.753-4.107-1.14-6.154l-.329-1.33c-.344-1.673-.263-2.25.088-2.711.08-.102.153-.241.241-.307.285-.241.716.38 1.176 1.593.658 1.798 1.096 3.705 1.484 5.657.204.972.299 1.965.438 2.959s.249 1.995.314 3.004l.161 2.243c.044.746.051 1.498.073 2.251.059 1.498.037 2.996.022 4.494h-.051zM268.834 236.702c-.84.775-1.673 1.557-2.572 2.258-.446.351-.87.731-1.338 1.067l-1.388 1.001a30 30 0 0 1-2.046 1.411c-2.507 1.512-5.167 2.755-7.922 3.654-.599.241-1.227.394-1.834.599-.614.183-1.213.431-1.834.57-.797.183-1.593.387-2.397.548-.819.073-1.659.058-2.477.051-.512-.015-.446-.029-.052-.248.402-.205 1.097-.76 1.937-1.155l2.287-.789c.775-.219 1.52-.497 2.28-.746.38-.131.768-.233 1.14-.38l1.118-.438 1.133-.417 1.111-.475q.669-.286 1.337-.606c.431-.241.862-.49 1.294-.731.876-.475 1.688-1.067 2.513-1.608.468-.285.907-.606 1.345-.935l1.323-.972c.833-.709 1.702-1.374 2.499-2.134l1.476-1.396 1.389-1.483c.708-.745 1.33-1.564 1.995-2.346a51 51 0 0 0 1.805-2.492c.423-.672.811-1.359 1.191-2.039l1.045-2.104c.168-.3.299-.614.46-.921.292-.577.534-.928.789-1.133.249-.212.475-.292.753-.307.124-.007.263-.036.373-.021.365.036.416.657.175 1.629-.234.694-.468 1.396-.775 2.076-.321.672-.643 1.351-1.015 2.016-.38.658-.782 1.309-1.184 1.966-.417.651-.877 1.264-1.33 1.893-.665.935-1.447 1.79-2.171 2.682-.796.833-1.556 1.71-2.389 2.499l-.037-.036zM121.85 226.677c.526.76.986 1.571 1.564 2.302.584.723 1.132 1.483 1.79 2.163.475.497.935 1.001 1.447 1.461 1.688 1.74 3.617 3.274 5.649 4.67a38 38 0 0 0 2.791 1.732c1.243.65 2.427 1.425 3.603 2.221.365.256.263.315-.139.293-.402-.037-1.132-.095-1.922-.351-2.762-.943-5.342-2.404-7.644-4.275-.694-.555-1.388-1.125-2.126-1.666-.694-.592-1.418-1.155-2.075-1.783-1.433-1.396-2.763-2.909-3.866-4.589-.336-.519-.724-1.002-1.009-1.55l-.899-1.615c-.241-.394-.416-.833-.599-1.264l-.555-1.286c-.205-.417-.336-.862-.482-1.308l-.446-1.316c-.271-.672-.424-1.359-.629-2.038-.19-.687-.438-1.36-.533-2.068-.051-.307-.11-.614-.146-.929-.051-.584-.059-.971.029-1.249.131-.285.285-.446.475-.585.088-.058.161-.139.234-.175.124-.059.256.022.438.212.176.19.446.489.534.891.19.585.336 1.177.467 1.776.176.592.38 1.169.527 1.769.255 1.205.738 2.36 1.11 3.544.336.862.738 1.695 1.096 2.55.446.811.885 1.637 1.367 2.434l-.044.029zM157.21 191.689c.512-.592.928-1.265 1.403-1.9.41-.68.855-1.338 1.228-2.054.27-.519.504-1.052.76-1.586.943-1.849 1.805-3.778 2.638-5.729.365-.87.68-1.768.979-2.653.19-.577.38-1.154.643-1.702.132-.278.249-.556.439-.811.197-.249.409-.49.65-.717.307-.277.336-.204.468.198.066.197.197.497.292.833.044.161.117.351.132.526 0 .168-.015.336-.059.497l-.212.891c-.073.293-.197.57-.299.855q-.306.855-.643 1.71a44 44 0 0 1-1.491 3.406c-.672 1.344-1.177 2.821-1.871 4.209-.394.76-.774 1.52-1.228 2.243-.226.366-.431.739-.672 1.097l-.731 1.059c-.285.446-.628.848-.964 1.257s-.643.833-1.023 1.206c-.556.577-1.082 1.184-1.703 1.688l-.892.797c-.299.263-.628.489-.935.738-.935.803-1.915 1.512-2.916 2.236-.234.139-.453.285-.694.416-.906.446-1.279.417-1.681.015-.087-.088-.19-.161-.255-.241-.205-.249-.037-.841.504-1.286 1.666-1.221 3.354-2.427 4.918-3.808l.855-.789c.285-.263.533-.563.804-.848.548-.548 1.037-1.169 1.52-1.79l.044.029zM231.237 198.668l.394-.475c.117-.168.227-.344.344-.512.248-.336.424-.708.614-1.074.343-.753.65-1.564.738-2.324.073-.562-.022-1.096-.124-1.578-.183-.855-.738-1.557-1.637-1.915-.899-.365-2.039-.329-3.128-.051-.972.263-1.893.76-2.755 1.323a18 18 0 0 0-1.586 1.227 57 57 0 0 0-.774.651c-.256.219-.563.394-.855.592-.41.204-.475.08-.453-.409 0-.249.043-.57.131-.943.11-.351.3-.709.599-1.016 1.038-1.089 2.207-2.119 3.654-2.813 1.432-.673 3.106-1.111 4.853-.782 1.023.19 2.104.621 2.945 1.417.847.775 1.366 1.878 1.505 2.938.153 1.169-.022 2.295-.344 3.303-.168.504-.314 1.009-.555 1.476l-.336.716-.409.673a11.4 11.4 0 0 1-2.543 2.857c-1.491 1.228-3.23 2.083-5.021 2.631-1.388.453-2.821.753-4.289.774-.322.015-.644.03-.972-.014-1.228-.102-1.513-.629-1.652-1.052-.029-.103-.08-.205-.088-.293-.014-.146.103-.248.337-.365.233-.11.57-.263.957-.278 2.287-.183 4.531-.65 6.569-1.651 1.506-.731 2.88-1.747 3.859-3.07l.051.037z"/><path fill="#12111f" d="M211.637 215.547a42 42 0 0 1-8.155 6.256c-.563.299-1.097.643-1.674.913-.577.263-1.147.548-1.739.767-4.195 1.564-8.864 1.857-13.169.643a21 21 0 0 1-5.378-2.491c-2.061-1.425-4.056-3.274-4.787-5.752-.124-.818-.168-.657.468-.292.329.175.731.453 1.213.753l.738.504c.125.095.249.183.38.285q.167.163.322.358a17.5 17.5 0 0 0 5.495 4.049c2.09.964 4.407 1.505 6.789 1.622 2.865.183 5.846-.643 8.528-1.834.76-.293 1.447-.738 2.171-1.104a72 72 0 0 0 2.082-1.337c1.345-.957 2.646-1.981 3.851-3.113 1.52-1.359 2.872-2.887 4.144-4.48 1.893-2.433 3.551-5.086 4.823-7.885.979-2.178 1.688-4.421 2.236-6.708.139-.497.205-1.009.358-1.506.271-.928.431-1.542.643-1.958.234-.409.475-.621.746-.789.117-.073.233-.183.328-.22.161-.065.249.11.359.497.109.388.182.987.087 1.725-.511 4.363-2.199 8.784-4.472 12.869-1.725 3.018-3.902 5.787-6.343 8.265l-.037-.029zM171.35 195.414c.219-1.506.497-2.997.694-4.495.08-.54.109-1.096.197-1.637.314-1.907.68-3.8.972-5.692.132-.841.197-1.696.234-2.529.11-1.081-.102-2.148.511-3.208.337-.336.22-.292.556 0 .299.285.986.855 1.016 1.506-.015.57-.03 1.147-.073 1.71a27 27 0 0 1-.22 1.688 39 39 0 0 1-.694 3.317c-.329 1.308-.446 2.704-.658 4.056-.241 1.484-.475 2.967-.606 4.465-.11.914-.176 1.834-.241 2.755-.066 1.389-.154 2.784-.081 4.165.037.534.103 1.06.183 1.586l.314 1.549c.037.227.117.446.146.673.052.424.059.709-.029.928a1.35 1.35 0 0 1-.489.504c-.095.059-.176.132-.249.175-.131.066-.263.022-.475-.102a1.27 1.27 0 0 1-.555-.672c-.811-1.886-.877-4.027-.877-6.102.007-1.557.212-3.091.38-4.619h.044z"/><path fill="#12111f" d="M167.507 173.377c1.754 1.038 3.654 1.834 5.619 2.441.49.153.987.292 1.484.402q.745.184 1.534.314c1.038.19 2.083.387 3.135.497.768.102 1.535.19 2.302.219.768.037 1.542.117 2.31.132 5.422.255 10.939-.234 16.135-1.893l1.717-.585 1.659-.723c.563-.227 1.089-.512 1.615-.804s1.067-.555 1.564-.884l1.915-1.272 1.819-1.403c.592-.482 1.126-1.03 1.739-1.498.322-.227.592-.49.877-.745.285-.256.6-.497.899-.746.768-.606.819-.424.534.431-.146.424-.344 1.053-.68 1.747-.161.358-.38.701-.636 1.052-.27.336-.577.68-.913 1.016-2.448 2.309-5.379 4.07-8.455 5.364-3.084 1.301-6.336 2.134-9.624 2.572-3.932.512-8.046.819-12.08.556-.555-.044-1.111-.066-1.659-.125l-1.651-.197c-1.104-.11-2.193-.329-3.289-.504-2.207-.395-4.399-1.038-6.445-1.966a30 30 0 0 1-3.654-1.973 29 29 0 0 1-3.303-2.521 20.7 20.7 0 0 1-4.005-4.867 15.2 15.2 0 0 1-2.053-5.992c-.38-3.311.665-6.724 2.74-9.289.205-.299.461-.548.687-.825.234-.271.468-.548.746-.782 2.009-1.798 2.974-1.893 3.646-1.856.161.022.351.014.46.051.388.153-.372.935-1.585 2.251-1.878 1.848-3.472 3.99-4.129 6.423-.673 2.419-.322 5.028.767 7.395.804 1.769 2.01 3.398 3.413 4.838a23.3 23.3 0 0 0 4.852 3.69l-.022.059zM207.335 145.231q1.161.766 2.236 1.63c.256.212.555.38.804.606.891.79 1.688 1.681 2.389 2.631q.231.316.483.621l.467.629c.366.555.709 1.154.848 1.819.044.205-.146.256-.431.198-.278-.059-.658-.198-.884-.453-.424-.453-.848-.885-1.228-1.36-.212-.226-.402-.46-.607-.694-.212-.226-.409-.468-.606-.709-.475-.592-1.14-1.037-1.754-1.505a27 27 0 0 0-2.112-1.484c-.446-.292-.913-.548-1.381-.811-.724-.365-1.44-.767-2.2-1.023-.592-.197-1.205-.299-1.805-.438-.131-.037-.263-.044-.394-.081-.461-.226-.578-.416-.607-.767 0-.08-.022-.161-.022-.234 0-.241.263-.409.694-.497.322-.087.636-.08.936-.051.307.022.614.059.928.102.606.132 1.198.329 1.783.563.877.322 1.688.797 2.492 1.272l-.022.044z"/><path fill="#12111f" d="m224.142 144.687.65-.198c.219-.051.446-.073.673-.117l1.344-.204c.446-.088.899-.059 1.352-.088.453-.007.899-.029 1.345-.029.65.058 1.308.044 1.958.109 2.273.366 4.436 1.14 6.409 2.207a38 38 0 0 1 2.55 1.535c.512.38 1.045.723 1.484 1.206.219.234.46.445.643.716q.241.438.46.877c.168.372-.007.424-.438.365a17 17 0 0 1-.819-.131c-.153-.03-.321-.059-.482-.103a1.8 1.8 0 0 1-.431-.219 62 62 0 0 0-2.923-1.812c-.504-.271-1.038-.504-1.527-.819-.527-.241-1.045-.511-1.579-.774-1.301-.548-2.777-.79-4.209-.863-.395-.022-.789-.065-1.184-.08l-1.191.051c-.804-.014-1.579.205-2.368.314-.497.052-.95.256-1.425.38-.468.161-.964.242-1.403.483-.672.336-1.388.599-2.039.986a49 49 0 0 0-1.892 1.257 22 22 0 0 0-1.25 1.235l-.599.629c-.198.204-.366.453-.563.665-.168.197-.314.394-.497.584a4 4 0 0 1-.438.409 1.3 1.3 0 0 1-.402.19 1.17 1.17 0 0 1-.709 0c-.11-.029-.234-.051-.322-.087-.299-.124-.277-.629.015-1.367.285-.489.577-.986.899-1.476.292-.519.752-.884 1.162-1.315q.638-.625 1.308-1.228c.482-.358.994-.702 1.491-1.045.38-.241.73-.533 1.147-.723l1.235-.6c.804-.438 1.695-.694 2.565-.979l.022.059zM259.944 149.364c2.309.796 4.677 1.439 7.066 1.849.87.139 1.754.19 2.616.255.76.052 1.52.117 2.251.074.724-.03 1.454-.125 1.966-.359.263-.095.453-.27.57-.409.11-.146.168-.307.153-.57-.051-.533-.409-1.206-.847-1.797-.782-1.089-1.886-2.003-2.923-2.924-1.36-1.176-2.872-2.177-4.195-3.485-.416-.395-.307-.424.197-.322.315.066.68.146 1.053.219.212.052.46.103.694.183.226.095.468.205.701.336.826.468 1.645.958 2.449 1.491.401.27.803.533 1.183.84.373.307.738.643 1.104.98.709.701 1.41 1.439 1.98 2.418.278.49.548 1.045.643 1.762.117.701-.102 1.629-.614 2.199-.577.687-1.315 1.023-1.973 1.243q-.984.286-1.914.387c-1.25.146-2.47.131-3.661.007-2.617-.27-5.13-.869-7.6-1.593a57 57 0 0 1-4.487-1.556c-2.236-.863-4.4-1.93-6.497-3.07-1.622-.891-3.252-1.768-4.699-2.981a10 10 0 0 1-.942-.819c-1.053-1.169-1.184-1.724-.972-2.28.044-.124.073-.263.131-.358.198-.307.826-.036 1.659.578.3.233.643.431.943.657.299.234.636.439.95.658.643.438 1.337.804 1.995 1.235a48 48 0 0 0 4.231 2.331 52.6 52.6 0 0 0 6.803 2.755l-.014.059zM270.493 115.357a2.06 2.06 0 0 0-.789-.394c-.343-.081-.548-.103-.994-.044-.84.095-1.739.292-2.601.511-.636.168-1.25.41-1.864.614-1.074.366-2.177.804-2.974 1.403-.409.351-.511.468-.453.746a.6.6 0 0 0 .248.299c.183.117.424.212.673.285.913.263 1.973.256 2.981.198.658-.03 1.308-.117 1.959-.212.643-.132 1.315-.117 1.958-.241.395-.066.431.087.176.445a4 4 0 0 1-.607.621c-.139.11-.285.227-.453.337l-.263.16c-.095.03-.19.066-.292.095-1.418.373-2.858.622-4.385.475-.76-.08-1.542-.175-2.397-.606a2.8 2.8 0 0 1-.723-.526 2 2 0 0 1-.483-.797c-.212-.592-.058-1.242.285-1.754.395-.54.782-.811 1.184-1.103.395-.271.797-.504 1.199-.716a17.6 17.6 0 0 1 2.462-1.06c.921-.314 1.842-.57 2.792-.782.475-.102.95-.197 1.454-.263.249-.029.541-.058.848-.036.277.021.562.058.833.131.672.168 1.33.519 1.827 1.038a3.43 3.43 0 0 1 .942 1.907c.212 2.112-.738 3.829-1.666 5.357-.745 1.191-1.512 2.331-2.397 3.383-.197.227-.387.453-.599.672-.394.402-.694.614-.972.702-.27.088-.489.073-.738-.022-.117-.044-.241-.073-.336-.124-.314-.176-.205-.724.205-1.433.343-.482.687-.964 1.03-1.454.358-.46.716-.928 1.074-1.388.694-.936 1.345-1.886 1.812-2.865.337-.723.556-1.454.592-2.141.037-.577-.153-1.001-.577-1.337l.029-.044zM254.885 104.742a33 33 0 0 1 4.633-.775c.57-.051 1.132-.146 1.695-.168 1.995-.044 4.019-.015 6.051.57.884.278 1.805.687 2.514 1.447.431.482.789 1.125.833 1.798.022.328-.015.643-.073.942-.051.3-.212.563-.329.826-.175.322-.256.256-.424-.066a19 19 0 0 0-.365-.643 4.2 4.2 0 0 1-.3-.731c-.19-.745-.643-1.235-1.469-1.607-.811-.344-1.827-.621-2.886-.79-1.279-.211-2.675-.073-4.02.03a31 31 0 0 0-4.421.635c-.891.212-1.819.41-2.579.746-.578.256-1.177.643-1.433 1.052a.58.58 0 0 0-.029.577c.088.154.285.351.563.512.833.512 1.871.555 2.879.512.227-.008.446-.044.68-.037.855-.044 1.169.219 1.381.475.051.066.109.117.139.175.051.095-.015.183-.168.315a2.3 2.3 0 0 1-.731.416c-.979.292-2.068.351-3.245.154a5.6 5.6 0 0 1-1.746-.643c-.146-.088-.285-.154-.431-.278l-.22-.176-.109-.087-.117-.146c-.154-.198-.336-.38-.417-.629-.124-.226-.161-.482-.197-.731-.022-.19.036-.372.051-.562.044-.183.124-.358.183-.541.08-.154.168-.285.248-.431a4 4 0 0 1 .271-.336c.372-.395.767-.673 1.154-.921a8 8 0 0 1 1.221-.585c.453-.153.796-.248 1.191-.351l.014.044zM217.003 184.329a47 47 0 0 1-1.148-4.202c-.131-.511-.27-1.015-.372-1.534-.315-1.834-.556-3.676-.629-5.517a66 66 0 0 0-.19-2.441 11 11 0 0 1-.029-1.564c0-.519.19-1.045.3-1.564.087-.321.182-.278.394-.007a10 10 0 0 1 .651.921c.043.065.065.131.124.197l.051.212c.051.256.124.511.183.767l.095.38.029.38c.029.512.102 1.016.139 1.527.08 1.023.182 2.047.226 3.084.015.621.117 1.25.249 1.871.117.628.285 1.242.416 1.863q.45 2.042 1.075 4.049a32 32 0 0 0 .869 2.433 33 33 0 0 0 1.644 3.552c.505.877 1.104 1.666 1.696 2.463l.394.518c.424.702.453.994.198 1.396-.059.088-.103.19-.161.256-.19.234-.643.139-1.125-.285a6.6 6.6 0 0 1-1.002-1.023 19 19 0 0 1-.891-1.14c-.556-.797-1.104-1.622-1.535-2.521-.657-1.316-1.206-2.689-1.695-4.071l.044-.022zM183.079 284.643c.241 4.67.709 9.332 1.308 13.995.219 1.702.511 3.39.738 5.093.804 6 1.739 11.992 2.485 18.035.328 2.682.679 5.372.891 8.061.08.862.124 1.724.168 2.594.029.87.029 1.739.029 2.609-.065 1.739-.168 3.508-.782 5.174-.343 1.037-.365.877-.496-.059-.125-.942-.578-2.609-.57-4.523-.147-6.833-1.17-13.739-2.069-20.725-.54-4.187-1.381-8.506-2.009-12.788-.672-4.714-1.235-9.456-1.601-14.221-.211-2.93-.372-5.868-.401-8.813-.066-4.451.146-8.937.628-13.337.395-3.42.811-6.789 1.622-10.121.161-.738.38-1.439.592-2.17.797-2.711 1.411-3.449 2.061-3.844.146-.088.292-.227.402-.27.183-.074.234.182.241.723.022.541-.11 1.323-.38 2.287-.19.716-.329 1.462-.504 2.193l-.256 1.103-.205 1.118-.46 2.236c-.131.753-.256 1.513-.387 2.273-.468 3.047-.87 6.153-1.031 9.295-.292 4.663-.27 9.376.03 14.082h-.052zM149.152 197.548a181 181 0 0 0 6.694 14.696c.453.87.913 1.739 1.388 2.602.483.855.972 1.71 1.44 2.572 3.354 6.043 7.052 11.926 11.393 17.297a51.4 51.4 0 0 0 6.335 6.577 33 33 0 0 0 9.668 6.044c1.111.438.98.577-.131.738-.278.036-.629.102-1.031.117-.401.036-.833-.037-1.33-.066-.496-.029-1.001-.161-1.534-.322a13 13 0 0 1-.804-.292c-.263-.117-.519-.263-.782-.409-1.893-1.001-3.566-2.273-5.188-3.588-.782-.687-1.572-1.374-2.288-2.119-.73-.731-1.461-1.469-2.134-2.244-2.762-3.062-5.203-6.372-7.439-9.814-2.667-4.114-5.422-8.397-7.812-12.796a179 179 0 0 1-7.161-14.827c-1.308-3.113-2.587-6.241-3.756-9.405-1.798-4.787-3.377-9.668-4.838-14.528-1.155-3.771-2.236-7.483-3.208-11.268-.197-.833-.417-1.652-.607-2.5-.321-1.571-.453-2.63-.453-3.383.073-.767.183-1.22.307-1.593.059-.168.095-.387.139-.482.08-.169.219.058.512.591.138.278.321.622.526 1.024.226.409.329.913.497 1.476 1.827 6.664 3.712 13.665 6.014 20.593 1.695 5.144 3.537 10.267 5.619 15.28l-.051.029zM116.587 164.796c-2.536.307-5.086.49-7.659.453-.935-.007-1.885-.007-2.835-.117-.84-.117-1.673-.241-2.521-.49-.84-.226-1.695-.555-2.492-1.125-.797-.555-1.542-1.513-1.557-2.733.022-.614.242-1.118.49-1.542.256-.416.555-.767.862-1.089 1.111-1.111 2.332-1.951 3.581-2.711.819-.468 1.652-.906 2.521-1.264.899-.3 1.856-.468 2.865-.402.314.022.46.11.446.183-.008.087-.154.175-.358.35-.424.329-1.031 1.148-1.835 1.732-.76.417-1.549.804-2.287 1.265-.745.438-1.498.862-2.178 1.351-.672.483-1.315 1.024-1.702 1.542-.395.57-.417.651-.176 1.206.344.577 1.33 1.045 2.324 1.286 1.016.256 2.119.373 3.216.453 2.418.161 4.903.059 7.366-.233a56 56 0 0 0 4.53-.702c2.266-.46 4.539-1.016 6.687-1.812 1.666-.621 3.223-1.447 4.662-2.368q.459-.316.928-.621c1.17-.738 1.542-.906 2.163-.68.139.051.3.088.424.154.205.109.256.329.154.643s-.358.723-.782 1.125c-1.235 1.242-2.777 2.09-4.341 2.836-1.578.73-3.23 1.308-4.896 1.79-2.485.723-5.028 1.213-7.571 1.586l-.014-.051zM128.183 215.519l8.959 20.856c1.111 2.529 2.214 5.05 3.325 7.578 3.829 8.93 7.681 17.853 11.802 26.644a251 251 0 0 0 5.773 11.546c1.279 2.426 2.653 4.809 3.968 7.213.665 1.198 1.33 2.404 2.024 3.581.351.584.665 1.198.987 1.805l1.016 1.79c.826 1.498.555 1.418-.519.387-.526-.519-1.315-1.242-2.156-2.192a27.5 27.5 0 0 1-2.572-3.493c-1.542-2.382-2.909-4.86-4.224-7.352a242 242 0 0 1-3.851-7.541c-2.492-5.064-4.831-10.209-7.081-15.412-2.697-6.226-5.678-12.613-8.463-18.964q-4.54-10.49-9.068-20.98a1577 1577 0 0 0-5.635-12.883c-2.894-6.482-5.817-12.979-8.944-19.285a194 194 0 0 0-7.82-14.192 977 977 0 0 1-1.87-2.989c-1.155-1.885-1.966-3.069-2.426-3.99-.242-.453-.439-.796-.563-1.125a5 5 0 0 1-.234-.877c-.044-.241-.139-.541-.146-.702 0-.27.314-.095.986.424.344.249.731.621 1.177 1.082.416.475.899 1.037 1.41 1.695 3.004 3.91 5.488 8.287 7.907 12.745 2.404 4.472 4.663 9.083 6.862 13.724 3.259 6.905 6.351 13.906 9.427 20.9l-.051.029zM194.043 287.925c1.067 4.728 2.345 9.427 3.763 14.082.512 1.702 1.118 3.376 1.659 5.064a707 707 0 0 0 2.945 8.944 726 726 0 0 1 2.894 8.996c.833 2.675 1.666 5.364 2.375 8.061.424 1.739.891 3.485 1.103 5.283.139.892.154 1.805.22 2.704-.015.913 0 1.812-.117 2.718-.125 1.126-.278.943-.475 0-.146-.942-.607-2.616-1.031-4.56-.438-1.724-.745-3.471-1.264-5.188-.475-1.725-1.023-3.435-1.571-5.152-1.133-3.442-2.273-6.884-3.413-10.355-1.337-4.173-2.945-8.448-4.333-12.723-1.52-4.699-2.916-9.449-4.129-14.25-.716-2.959-1.418-5.926-1.98-8.922-.877-4.531-1.513-9.128-1.981-13.688-.387-3.544-.665-7.03-.789-10.559-.015-.775-.051-1.542-.029-2.324.065-2.909.35-3.822.906-4.414.117-.132.226-.314.314-.387.154-.132.278.102.46.635.198.534.285 1.352.315 2.397.219 6.212.635 12.708 1.52 19.205a157 157 0 0 0 2.682 14.396l-.052.022zM248.637 229.38c1.987-6.46 3.814-12.993 5.649-19.526.672-2.383 1.278-4.787 1.98-7.162a381 381 0 0 1 3.836-12.54 219 219 0 0 1 4.385-12.372 188 188 0 0 1 4.494-10.75c2.083-4.494 4.378-8.973 7.491-12.868.964-1.214.95-.965.511.299-.226.629-.511 1.542-.964 2.558-.453 1.023-.87 2.28-1.579 3.493-1.169 2.2-2.28 4.428-3.325 6.694-.555 1.118-1.059 2.258-1.571 3.398l-.767 1.71-.724 1.732c-1.936 4.618-3.705 9.324-5.378 14.104-2.003 5.714-3.639 11.816-5.313 17.794-1.841 6.577-3.639 13.176-5.554 19.745-1.191 4.041-2.419 8.075-3.763 12.073-2.01 6.065-4.348 12.057-7.059 17.808-2.112 4.465-4.385 8.777-7.162 12.84-.636.877-1.184 1.79-1.878 2.638-1.257 1.593-2.185 2.565-2.923 3.164-.738.592-1.221.877-1.674 1.038-.204.073-.453.197-.592.212-.467.073.41-1.352 2.149-3.647 5.254-6.759 9.515-14.768 12.978-23.187 2.551-6.263 4.758-12.723 6.723-19.256h.052zM113.343 121.032c.665.643 1.03 1.418.942 2.484 0 .264-.16.483-.234.724a6 6 0 0 1-.409.57c-.139.131-.292.278-.431.387l-.431.293c-1.125.643-2.178.979-3.23 1.337-.767.256-1.513.548-2.273.782l-1.001.314c-.263.073-.57.219-.884.358l-1.929.87c-1.301.57-2.624 1.125-4.02 1.542-.62.182-1.25.35-1.929.431a4.7 4.7 0 0 1-1.067.014c-.373-.051-.789-.168-1.133-.467-.46-.395-.613-.987-.642-1.447-.022-.402-.066-.797 0-1.301.029-.248.138-.541.292-.76a2.4 2.4 0 0 1 .533-.497 4.2 4.2 0 0 1 1.118-.577c.497-.161.431-.132.19.256-.117.19-.248.526-.43.833-.081.16-.176.328-.227.482a.6.6 0 0 0-.044.205c-.022.051-.022.087-.03.124-.029.117 0 .475.044.862l.037.3c.014.051.03.109.037.16.014.044.036.066.043.103.015.029.037.029.044.051.044.022.132.073.395.11.248.029.584.007.928-.052 1.403-.241 2.916-.84 4.399-1.425.899-.358 1.776-.803 2.682-1.264.234-.117.453-.234.716-.351l.219-.095.176-.065.358-.132c.475-.168.95-.343 1.418-.511 1.037-.366 2.075-.717 3.047-1.126.95-.38 1.958-.979 1.893-1.41-.015-.132-.081-.402-.212-.556a1.24 1.24 0 0 0-.512-.423c-.446-.234-1.074-.3-1.695-.3-1.908.036-3.917.585-5.781 1.286-1.454.57-2.806 1.294-4.143 2.039-.293.168-.57.336-.862.511-1.09.607-1.506.651-2.003.402-.102-.043-.219-.065-.292-.102-.117-.066-.102-.205-.015-.511.08-.322.344-.622.724-.95 1.14-.929 2.433-1.674 3.771-2.361 1.359-.658 2.806-1.169 4.304-1.586 1.118-.299 2.265-.548 3.5-.628a8.3 8.3 0 0 1 1.937.066c.672.117 1.447.321 2.141.928l-.029.036z"/><path fill="#12111f" d="M255.155 99.237a27.5 27.5 0 0 1 4.787-.833c.585-.051 1.169-.146 1.768-.146 2.083 0 4.268.263 6.197 1.396.424.255.833.533 1.199.884.365.336.738.76.921 1.352.255.782-.059 1.607-.395 2.104-.161.278-.358.49-.555.695l-.278.285c-.095.095-.212.153-.314.248-.234.197-.322.212-.461-.197-.16-.424-.139-1.243.117-1.747.11-.212.205-.416.234-.555.015-.146.029-.227-.015-.285-.021-.117-.248-.395-.599-.68-.679-.533-1.593-.935-2.609-1.213-1.213-.373-2.616-.321-3.968-.248-1.49.073-3.003.277-4.472.628-.906.212-1.805.468-2.66.804-.643.256-1.286.548-1.827.906-.124.095-.263.183-.365.285a1 1 0 0 0-.198.219.52.52 0 0 0-.095.293c.008.102.066.197.117.285.139.241.49.54.906.694.417.161.914.19 1.411.197.226-.007.446-.022.672-.029.862.037 1.206.153 1.403.555.044.088.103.176.124.256.052.271-.248.534-.92.731a5.6 5.6 0 0 1-1.63.226 5.7 5.7 0 0 1-1.885-.314 3.6 3.6 0 0 1-.994-.548l-.234-.204c-.073-.081-.205-.139-.263-.256-.139-.219-.322-.417-.424-.651-.205-.46-.416-.95-.27-1.454.131-.49.365-.935.76-1.323.175-.175.255-.255.358-.328l.307-.234c.197-.132.402-.271.592-.38.394-.227.789-.424 1.176-.592a21 21 0 0 1 2.368-.855l.014.051zM205.764 144.642l-26.761 3.216-9.756 1.227a2352 2352 0 0 1-34.456 3.764c-5.1.504-10.223 1.067-15.316 1.461a93 93 0 0 1-3.252.198c-.548.022-1.097.036-1.667.029-.153 0-.255 0-.467-.015s-.424-.044-.629-.073c-.402-.066-.811-.241-1.001-.599-.088-.19-.168-.395-.248-.592a2.4 2.4 0 0 1-.11-.3l-.073-.219-.248-.804-.461-1.593c-.307-1.059-.57-2.126-.84-3.193-.504-2.141-1.118-4.246-1.359-6.446-.059-1.037-.059-1.49.021-1.483.088 0 .293.468.768 1.235.46.767 1.118 1.863 1.666 3.252a47 47 0 0 1 1.681 4.808l.614 2.163.314 1.067.139.439c-.073 0 .19.014.336.014h.511q1.055-.001 2.141-.058c1.447-.073 2.916-.175 4.378-.292 2.93-.234 5.868-.505 8.813-.782 5.89-.578 11.794-1.155 17.721-1.732 8.002-.775 16.296-1.922 24.459-2.923l26.929-3.376 16.559-2.149c8.36-1.111 16.756-2.192 25.036-3.398 3.215-.468 6.402-.957 9.573-1.469 2.996-.489 5.978-.972 8.981-1.461l.351-.073-.131-.592-.015-.073-.029-.19-.066-.402c-.044-.271-.08-.541-.124-.811-.38-2.631-.563-4.385-.534-5.635.073-1.257.271-1.995.563-2.579.124-.271.256-.614.373-.768.212-.248.38.154.679 1.075s.702 2.375.979 4.275c.439 2.594.877 5.217 1.338 7.958q-4.242.681-8.572 1.374c-2.382.365-4.779.73-7.198 1.103-4.831.723-9.734 1.374-14.645 2.032-8.966 1.191-17.977 2.309-26.973 3.449l-.021-.059zM251.165 59.01c.489 2.77.986 5.547 1.542 8.339.204 1.016.453 2.024.643 3.047.643 3.61 1.169 7.257 1.534 10.903.125 1.622.366 3.245.483 4.852.197 2.061.35 4.151.029 6.227-.081.65-.219.562-.497.029-.139-.27-.329-.643-.534-1.104-.102-.226-.226-.475-.299-.738a7 7 0 0 1-.161-.84c-.088-1.038-.329-2.068-.402-3.106-.095-1.038-.19-2.075-.329-3.106q-.36-3.1-.73-6.233c-.293-2.507-.921-5.05-1.484-7.578-.599-2.777-1.228-5.569-1.783-8.382-.358-1.732-.636-3.479-.935-5.218a155 155 0 0 1-1.016-7.972c-.256-2.054-.504-4.07-.731-6.117-.029-.453-.088-.892-.08-1.345 0-1.688.175-2.228.745-2.587.132-.08.256-.19.387-.233.432-.161.819.518 1.038 1.724.073.446.154.899.234 1.352s.095.906.161 1.367c.117.913.219 1.834.307 2.755.073.928.212 1.856.307 2.791.095.936.197 1.871.328 2.806l.271 2.09.321 2.09c.19 1.396.475 2.785.724 4.173l-.059.015zM107.994 43.779c11.064-1.433 22.135-2.485 33.213-3.464 4.041-.35 8.082-.76 12.124-1.074a1709 1709 0 0 1 42.801-2.719c6.336-.329 12.7-.657 18.985-.986 4.041-.198 8.082-.439 12.138-.534 4.049-.11 8.104-.205 12.146-.015 1.264.132 1.812.227 1.775.307-.036.088-.65.183-1.71.432-1.059.255-2.565.504-4.384.803-1.82.27-3.954.49-6.278.629-4.114.263-8.228.46-12.342.658-4.115.212-8.236.43-12.358.643-4.121.226-8.25.445-12.386.672q-6.204.306-12.431.621c-9.931.497-20.242 1.41-30.378 2.25-11.144.936-22.288 1.952-33.388 3.246-6.826.825-13.673 1.658-20.352 3.032-1.257.263-2.522.556-3.705.943a10 10 0 0 0-.855.322c-.234.102-.337.153-.49.277-.066.059-.124.124-.139.212 0 .088.022.175.03.256.014.102.014.146.043.285l.103.467c.54 2.514 1.19 5.057 1.826 7.579 1.28 5.064 2.55 10.113 3.815 15.134 1.944 7.82 3.895 15.478 5.583 23.275.38 1.717.731 3.398 1.074 5.137.607 3.23.958 5.371 1.075 6.891.036.768.044 1.367.014 1.878-.051.512-.139.921-.212 1.287-.073.336-.109.767-.16.964-.095.329-.293-.161-.746-1.286-.482-1.125-.855-2.945-1.352-5.283-2.828-13.885-6.43-28.413-10.165-42.992-.687-2.71-1.38-5.43-2.068-8.148-.336-1.373-.68-2.718-.972-4.165-.095-.22-.11-1.03-.139-1.68-.058-.344.066-.651.249-.929.175-.27.402-.511.68-.709.27-.204.577-.372.884-.526.204-.102.387-.175.577-.256.373-.153.73-.27 1.096-.394 2.843-.9 5.612-1.396 8.419-1.871 2.791-.475 5.583-.877 8.374-1.257l.022.058zM265.415 210.132c.891 1.373 1.914 2.674 2.996 3.931.394.461.855.862 1.264 1.301 1.469 1.556 3.076 3.003 4.816 4.26.767.57 1.593 1.053 2.433 1.476 1.067.519 2.178 1.082 3.281 1.206.322.015.373.176.051.431-.314.242-1.074.49-1.841.351a11 11 0 0 1-1.973-.526 17 17 0 0 1-1.791-.87c-1.162-.628-2.221-1.417-3.193-2.302-1.162-1.052-2.455-2.038-3.588-3.164a32.5 32.5 0 0 1-3.406-4.012c-.643-.869-1.213-1.79-1.768-2.718-.833-1.411-1.52-2.916-2.112-4.436-.446-1.191-.877-2.368-1.14-3.625a8 8 0 0 1-.117-.833c-.066-.526.059-.877.132-1.125.095-.248.212-.387.38-.497.08-.051.146-.117.219-.146.234-.095.49.314.745.994.402 1.008.636 2.017 1.038 3.011.387.993.753 2.002 1.213 2.981a28 28 0 0 0 2.404 4.26l-.036.03zM187.356 265.378a6.1 6.1 0 0 1-.315 1.761c-.029.103-.087.256-.131.373-.051.11-.102.227-.183.336-.139.19-.321.38-.57.534a1.38 1.38 0 0 1-.891.197c-.629-.088-.965-.519-1.14-.935-.161-.41-.147-.775-.073-1.126.095-.438.292-.818.613-1.052.103-.073.263.073.388.278.124.204.248.467.212.621-.081.278-.059.489-.015.606.022.073.088.125.08.205 0 .015-.014.11-.007.102l-.015-.051h.015c.029-.022.095-.124.161-.256.124-.226.212-.716.226-1.132.008-.263.008-.541-.043-.738 0-.073-.059-.125-.015-.139.248-.227.139-.263.19-.103q.022.088.066.154c.014-.015-.008 0-.022.007a.2.2 0 0 0-.066.051.35.35 0 0 0-.088.132c-.058.19.015.49.051.848a1 1 0 0 1-.014.248c-.081.329-.249.453-.614.417a1.3 1.3 0 0 1-.241-.03 1.03 1.03 0 0 1-.585-.38c-.212-.27-.321-.555-.329-1.015 0-.227.022-.505.168-.819a1.97 1.97 0 0 1 .695-.833c.117-.095.738-.49 1.432-.234.146.059.292.146.417.241.095.081.153.154.226.242l.095.131.051.095.095.197c.183.468.183.768.205 1.089h-.044zM188.467 276.04a4.6 4.6 0 0 1-.461.716c-.102.125-.241.315-.496.49a1.37 1.37 0 0 1-.958.234c-.519-.073-.826-.336-.994-.563-.277-.416-.343-.804-.307-1.242q.08-.47.212-.906c.073-.256.147-.497.227-.753.095-.314.205-.643.497-.848.088-.065.285.081.46.278s.358.431.336.57c-.095.497-.102.935-.219 1.41-.036.183-.022.183.029.271q.035.054.059.088c.007.036.066-.037-.081.138-.102.125-.124.249-.124.249s0-.022-.022-.073l-.014-.029c.065.131.022.036.036.065v-.014a.3.3 0 0 0-.051-.066c-.029-.051-.212-.19-.153-.154.007 0 .029-.021.043-.051q.068-.098.125-.197c.102-.168.175-.351.219-.533.073-.271.102-.563-.029-.753-.103-.154-.315-.154-.475-.154-.03-.014-.073 0-.11-.022-.058-.029-.095-.087-.102-.226-.015-.117 0-.263.007-.453l.015-.249c.022-.255.168-.504.467-.679.205-.037.432-.081.665-.029.22.051.453.175.651.328.416.315.701.826.811 1.301.088.358.08.694.051 1.016a3.6 3.6 0 0 1-.263.87l-.044-.015zM195.956 186.819c1.228 2.127 3.493 3.135 5.868 3.318 1.703.132 3.786-.08 5.174-1.169.431-.336.351-1.067 0-1.418-.424-.424-.994-.336-1.418 0 .293-.226-.058.015-.146.066-.051.029-.109.051-.16.08-.161.095.211-.066-.037.015-.336.109-.665.212-1.008.285a14 14 0 0 1-.519.095c.226-.037-.103.014-.146.014-.11.015-.22.022-.337.03a10 10 0 0 1-1.3 0c-.103 0-.205-.015-.307-.022-.066 0-.139-.015-.205-.022q.118.01.007 0a10 10 0 0 1-.665-.132 6.5 6.5 0 0 1-1.147-.387c-.862-.424-1.454-.957-1.915-1.761-.643-1.118-2.382-.11-1.731 1.016zM205.003 177.52a7 7 0 0 1 1.06-.014c.183.007.358.022.541.044.058 0 .248.029.095.007.109.014.226.036.336.051q1.196.21 2.338.65c.19.073.168.066.402.168.183.081.358.169.541.264.365.19.724.401 1.06.643.182.124.241.175.329.241q.22.175.416.372c.146.139.278.285.409.439.022.022.161.212.059.073.066.088.124.175.183.263.328.49.971.702 1.498.395.489-.285.723-1.001.394-1.498-1.067-1.615-2.718-2.66-4.479-3.384-1.608-.658-3.428-1.052-5.167-.913-.592.051-1.096.467-1.096 1.096 0 .555.504 1.147 1.096 1.096zM188.925 207.861c-.49-.965-.745-1.944-.68-3.003.066-.994.512-2.017 1.089-2.894.271-.409.081-1.009-.329-1.25-.445-.263-.979-.088-1.249.329-.753 1.147-1.25 2.441-1.338 3.815-.087 1.373.307 2.711.928 3.924.227.438.841.57 1.25.329.446-.263.555-.811.329-1.25"/><path fill="#12111f" d="M172.843 207.073c-.19.109-.417.19-.578.314s-.329.226-.497.365c-.321.307-.628.621-.847.979-.468.695-.665 1.506-.6 2.353.044.622.3 1.243.585 1.776.519.914 1.469 1.732 2.55 2.061a5.5 5.5 0 0 0 1.74.234c.577-.037 1.074-.124 1.52-.475.796-.563 1.279-1.637 1.374-2.697a5.6 5.6 0 0 0-.147-2.039 7 7 0 0 0-.328-.942 1.6 1.6 0 0 0-.205-.461l-.124-.233c-.051-.074-.103-.132-.161-.205-.256-.351-.168-.482.336-.431.27.014.607.124 1.03.336.198.117.402.256.592.446.176.19.293.424.417.672.753 1.79.65 3.815-.314 5.568-.49.87-1.294 1.681-2.324 2.076-.249.124-.512.175-.775.226l-.394.073-.351.022c-.468.015-.943 0-1.411-.087-2.228-.41-4.37-1.827-5.188-4.078-.431-1.162-.519-2.485-.161-3.712a6.2 6.2 0 0 1 2.068-2.989c1.213-.957 2.587-1.337 3.903-1.681 2.009-.475 4.033-.65 6.007-.913a41 41 0 0 0 4.465-.848c.321-.066.613-.19.935-.241.585-.11.943-.212 1.242-.168.293.058.504.16.709.299.095.066.205.117.27.176.117.102.081.248-.087.482a4 4 0 0 1-.344.417c-.146.182-.35.233-.577.358-1.352.65-2.799.884-4.217 1.125-1.425.219-2.857.365-4.26.541-1.045.131-2.075.27-3.076.467-1.009.176-1.959.475-2.77.877l-.022-.043zM156.471 83.754c-1.345.11-2.799-.132-3.997-.753-1.155-.555-2.324-1.447-3.04-2.74-.519-.928-.789-2.01-.709-3.018.139-1.783.935-3.252 1.871-4.487a12.9 12.9 0 0 1 3.398-3.04c1.14-.695 2.36-1.33 3.705-1.637a7.7 7.7 0 0 1 2.66-.205c.453.037.891.197 1.308.344.416.182.782.475 1.111.774.409.387.19.548-.366.738-.27.095-.628.212-1.016.402-.365.124-.723.234-1.074.249-2.455-.059-5.166 1.169-7.271 3.171-1.264 1.191-1.966 3.025-1.754 4.45.095.79.519 1.47 1.199 2.025.175.131.372.255.555.387l.629.329c.416.168.847.329 1.3.38 1.111.16 2.324-.051 3.435-.563 1.688-.76 3.215-2.09 4.231-3.683a7.7 7.7 0 0 0 1.14-4.026c.007-.293-.044-.578-.073-.855 0-.526-.022-.863.051-1.148.051-.146.11-.27.183-.387.095-.124.204-.241.314-.358.102-.102.175-.227.249-.3.131-.124.292-.095.635.052.373.138.651.504.877 1.037.351.79.461 1.674.417 2.529a9.2 9.2 0 0 1-.483 2.52c-.548 1.63-1.49 3.077-2.66 4.312-.869.914-1.87 1.725-3.018 2.346-1.132.629-2.418 1.082-3.792 1.22zM196.263 103.712c-1.315.073-2.674-.088-3.96-.68a6.2 6.2 0 0 1-1.769-1.213 5.9 5.9 0 0 1-1.206-1.724c-.445-.906-.73-1.937-.672-2.945.095-1.79.913-3.303 1.871-4.524.979-1.22 2.163-2.2 3.456-2.974 1.148-.68 2.368-1.286 3.698-1.608.848-.197 1.754-.321 2.667-.226.227.014.453.073.68.139.226.058.446.138.65.24.103.052.212.088.315.154.095.066.19.146.277.22.183.146.358.292.504.467.38.439.132.57-.423.709-.271.058-.643.19-1.009.336-.19.088-.358.124-.526.16-.175.045-.343.081-.512.081-1.198-.066-2.491.322-3.77.84a12.6 12.6 0 0 0-3.559 2.31c-.629.584-1.147 1.315-1.44 2.09s-.402 1.578-.292 2.31c.058.408.19.803.38 1.176.095.19.226.372.336.548.117.16.256.314.402.453.599.555 1.469.899 2.404 1.016a6.97 6.97 0 0 0 3.508-.505c1.695-.723 3.252-1.987 4.209-3.624.767-1.257 1.082-2.711 1.133-4.093.029-.306-.022-.606-.022-.906.051-1.118.175-1.49.796-1.885.117-.088.212-.19.3-.249.154-.095.307-.029.614.168.321.198.57.578.701 1.104.271.775.293 1.608.249 2.433-.044.826-.219 1.652-.468 2.463a11.8 11.8 0 0 1-2.609 4.37c-1.775 1.856-4.187 3.223-6.898 3.435v-.066zM196.672 61.188l9.127-2.032c-5.97 6.073-29.442 28.098-49.955 56.043l-8.93 2.733c19.431-28.208 39.447-48.589 49.758-56.744M101.92 117.288c.921-.219 1.863-.409 2.843-.468a11 11 0 0 1 1.52-.007c.533.044 1.052.095 1.717.387.248.147.504.271.709.475.117.088.182.212.277.322s.161.234.22.365c.19.526.219 1.155-.081 1.674a2.5 2.5 0 0 1-.416.65 3.4 3.4 0 0 1-.417.439 4 4 0 0 1-.913.577c-.621.292-1.221.446-1.769.599a17.6 17.6 0 0 0-3.127 1.191c-.907.439-1.769.98-2.631 1.52-1.096.702-2.163 1.513-3.486 1.849-.424.088-.424-.036-.263-.438a3.5 3.5 0 0 1 1.081-1.55c1.097-.73 2.207-1.468 3.391-2.163 1.177-.694 2.463-1.308 3.822-1.702.826-.249 1.615-.439 2.214-.76.3-.161.548-.358.695-.556a.57.57 0 0 0 .131-.38c-.014-.16-.117-.277-.299-.343-.264-.102-.651-.154-1.045-.168-.804-.022-1.667.095-2.522.241-1.052.183-2.104.46-3.135.811-1.542.534-3.105 1.191-4.34 2.156-.46.38-.87.818-.994 1.235a3.2 3.2 0 0 0-.103 1.542c.044.212.125.387.205.555.336.548.555.658.629 1.14.021.102.065.197.08.278.022.139-.073.234-.344.321-.263.095-.68.022-1.147-.285-.694-.475-1.074-1.293-1.206-2.046a4.6 4.6 0 0 1 .176-2.309c.38-.921.906-1.483 1.454-1.937s1.11-.818 1.688-1.147c1.71-.972 3.508-1.615 5.357-2.119l.014.051zM176.428 276.209c.029-1.783.124-3.558.256-5.334.043-.651.08-1.294.146-1.944a81 81 0 0 1 1.023-6.782c.197-.993.394-1.987.592-2.974.241-1.264.599-2.514 1.015-3.741.132-.38.22-.3.271.058a6.6 6.6 0 0 1-.022 1.739c-.117.643-.146 1.301-.292 1.937-.132.636-.234 1.279-.351 1.922-.124.643-.227 1.286-.344 1.929s-.241 1.286-.358 1.936c-.285 1.55-.402 3.187-.519 4.787a86 86 0 0 0-.263 5.305 123 123 0 0 0-.007 3.274 86 86 0 0 0 .197 4.955c.103 1.271.278 2.514.41 3.771.029.277.065.548.095.825.095 1.038.058 1.374-.168 1.623-.052.058-.103.131-.154.16-.175.117-.38-.284-.526-1.037a51 51 0 0 1-.57-3.442 71 71 0 0 1-.307-3.574 83 83 0 0 1-.161-5.385h.029zM195.928 278.659q-.329-1.755-.614-3.508c-.073-.424-.168-.848-.226-1.279-.22-1.513-.358-3.033-.512-4.545-.08-.673-.153-1.345-.234-2.01a19 19 0 0 1-.146-2.579c0-.271.088-.242.219-.022.125.219.315.613.417 1.096.204.855.314 1.717.431 2.587q.176 1.293.329 2.609c.109 1.045.358 2.119.541 3.178.204 1.162.423 2.332.665 3.486a69 69 0 0 0 .467 2.134 59 59 0 0 0 .826 3.208c.249.819.555 1.593.855 2.382l.197.519c.227.651.227.884-.014 1.118-.051.051-.103.117-.161.161-.197.139-.468-.073-.687-.541-.658-1.381-1.162-2.908-1.578-4.472a80 80 0 0 1-.804-3.508h.029zM113.701 169.473c-.57 0-1.147-.022-1.717-.051-.205-.008-.417 0-.622-.015a35 35 0 0 1-2.177-.256 35 35 0 0 1-.958-.117c-.409-.051-.818-.095-1.213-.241-.124-.044-.087-.16.037-.27a.87.87 0 0 1 .577-.219c.826 0 1.637.08 2.456.219.489.08 1.008.051 1.512.058a41 41 0 0 0 1.674-.007c.343-.015.687-.015 1.03-.036.519-.03 1.045-.066 1.557-.154.394-.066.774-.175 1.162-.27.08-.022.168-.044.255-.066.322-.066.432-.037.541.139.022.036.059.073.073.117.066.131-.044.285-.27.387-.68.3-1.418.555-2.192.643-.57.08-1.148.124-1.725.161zM263.093 157.881c-.249-.058-.497-.124-.738-.182-.088-.022-.183-.03-.271-.059-.314-.095-.614-.204-.921-.314a4 4 0 0 0-.416-.11c-.175-.036-.365-.051-.519-.175-.095-.073.227-.585.417-.534.343.095.679.205 1.008.373.197.102.424.117.643.168q.353.09.716.168.218.047.446.081c.227.036.453.073.68.073.175 0 .35-.037.526-.051.036 0 .073-.015.117-.015.139 0 .19.044.219.205l.022.109a.246.246 0 0 1-.154.271 2.1 2.1 0 0 1-1.015.109 9 9 0 0 1-.76-.109v-.015zM328.621 212.66s5.123.153 7.695-4.59c0 1.177-1.038 5.298 2.273 8.521-.702.124-5.693-.226-7.527 4.363 0 0 1.483-5.554-2.441-8.294"/><path fill="#12111f" d="M301.676 84.322s3.383-3.96 1.264-9.017c.935.745 3.537 4.194 8.192 3.624-.351.636-3.8 4.363-1.337 8.74 0 0-3.457-4.706-8.119-3.347" opacity=".45"/><path fill="#12111f" d="M129.754 338.362s3.625-1.388 3.011-5.108c.511.65.972 2.638 4.187 2.996-.336.373-3.237 2.317-2.28 5.642 0 0-1.571-3.705-4.911-3.53z"/><path fill="#12111f" d="M283.101 309.823s2.338.365 3.785-1.659c-.065.541-.782 2.368.548 4.034-.328.015-2.594-.431-3.697 1.564 0 0 .994-2.456-.643-3.939z" opacity=".5"/><path fill="#12111f" d="M69.766 285.656s2.272.643 3.96-1.191c-.131.526-1.06 2.251.059 4.07-.329-.022-2.521-.738-3.859 1.104 0 0 1.287-2.317-.16-3.983" opacity=".55"/><path fill="#12111f" d="M69.125 113.056s2.36-.095 3.39-2.361c.045.541-.306 2.47 1.323 3.844-.321.081-2.623.081-3.317 2.251 0 0 .497-2.602-1.396-3.734M320.66 69.532s2.361-.095 3.391-2.36c.044.54-.307 2.47 1.323 3.844-.322.08-2.624.08-3.318 2.25 0 0 .497-2.601-1.396-3.734M82.438 270.152s4.72 1.235 8.118-2.609c-.248 1.096-2.097 4.692.278 8.389-.68-.036-5.232-1.432-7.914 2.434 0 0 2.565-4.831-.483-8.214"/><path fill="#12111f" d="M41.823 166.112s5.313 1.987 9.705-2.061c-.417 1.235-2.982 5.181-.665 9.741-.782-.117-5.883-2.273-9.449 1.878 0 0 3.537-5.291.41-9.566z" opacity=".55"/></svg>