<svg xmlns="http://www.w3.org/2000/svg" width="380" height="380" fill="none">
  <path fill="#231f20" d="M156.55 156.7a.6.6 0 0 1-.4.07h-.25l-.2-.02q-.24-.07-.56-.04-.16.01-.49-.04l-.62-.3c-.43-.22-.8-.5-.87-.53-.23-.13-.83-.62-.98-.65-.17-.02-.63-.47-.8-.54a.3.3 0 0 1-.17-.13c-.19-.23-.65-.2-.84-.44q-.2-.22-.4-.4-.07-.04-.11-.1c-.25-.43-.72-.66-.97-1.1l-.16-.25q-.03-.1-.1-.16c-.3-.22-.4-.56-.52-.9-.01-.04 0-.1-.06-.12-.27-.12-.27-.42-.42-.62l-.1-.22q-.02-.1-.07-.18c-.22-.2-.27-.5-.4-.74l-.01-.05c-.25-.21-.2-.57-.19-.9 0-.2 0-.37-.18-.5q-.07-.03-.06-.1c.05-.2 0-.37 0-.56l.02-.02c.01-.04.44-.22.52-.25s1.26-.34 1.31-.33q.07 0 .11.03c.07.05.17.08.4.04q.16-.02.17.04c0 .33.26.55.35.83.04.13.15.21.22.32.38.52.64 1.1 1.02 1.63q.08.14.11.32a1 1 0 0 0 .13.3q.16.22.36.41.24.3.46.62a18 18 0 0 0 .84 1.06c.34.03.83.67.88.7l.54.45q.28.21.53.48.22.22.47.4l.07.06c.1.15.45.4.74.75.27.38.59.63.65.7q.05.04.06.14l.05.15q0 .09.02.16t.08.11q.04.07-.02.15zm82.05 15.49q.12.15.08.3-.02.09 0 .18v.14q-.06.19-.03.4c.03.26-.3 1.48-.41 1.58-.08.17-.34.7-.34.8 0 .12-.24.53-.25.68q-.01.08-.07.14c-.13.18-.04.5-.17.69q-.12.18-.2.37l-.05.1c-.25.27-.34.64-.57.92l-.13.17q-.06.05-.1.11c-.07.26-.27.43-.48.6q-.04.02-.07.07c-.01.22-.22.3-.31.46q-.05.09-.13.13l-.1.1c-.08.21-.26.34-.37.51l-.02.04c-.06.25-.3.33-.52.42-.13.06-.26.13-.26.3q0 .08-.03.08c-.16.03-.25.13-.37.2h-.03c-.03 0-.36-.32-.44-.4-.06-.07-.84-1-.85-1.04l-.03-.1q.05-.06-.1-.32-.08-.12-.03-.14c.28-.06.38-.3.6-.42q.13-.1.2-.22.54-.54 1.03-1.12a1 1 0 0 1 .23-.17l.2-.16.25-.36.37-.49q.32-.4.62-.83l.03-.03c-.02-.25.38-.76.4-.8l.27-.5c.1-.16.16-.33.27-.5.1-.13.15-.28.25-.42l.03-.07c.2-.2.81-1.16.86-1.3q.01-.04.09-.05l.1-.05.13-.03.07-.07q.05-.05.13 0l.26.1m-12.39-9.14q.15.12.15.26 0 .1.04.17l.02.14a1 1 0 0 0 .02.39c.03.13 0 .49-.1.82-.1.31-.23.6-.26.66-.07.16-.31.62-.3.73.03.12-.22.49-.22.62q0 .08-.06.13c-.13.15-.02.46-.16.61l-.2.32-.04.08c-.25.21-.33.55-.55.79l-.13.14q-.06.04-.08.1c-.06.22-.27.36-.45.49q-.05 0-.06.06c0 .2-.21.25-.28.4l-.11.12-.1.07c-.06.19-.22.3-.32.45l-.02.03c-.04.23-.27.28-.48.34-.13.03-.25.08-.24.26q0 .06-.03.06c-.15.02-.22.11-.32.18h-.03c-.03 0-.38-.34-.46-.42-.07-.08-.9-1.06-.92-1.1l-.03-.1q.05-.06-.13-.3-.08-.14-.04-.15c.25-.03.33-.26.52-.36.08-.05.1-.14.17-.2q.48-.48.94-.97a.4.4 0 0 1 .2-.13.4.4 0 0 0 .2-.13q.13-.15.23-.3l.35-.41q.3-.34.57-.7l.02-.03c-.05-.25.36-.63.38-.66l.27-.4c.1-.12.15-.27.26-.4q.13-.16.2-.34l.04-.05.16-.23.23-.32c.14-.23.26-.46.27-.51q.01-.05.08-.06l.11-.05.13-.05q.05-.03.07-.07.05-.03.14-.02l.33.04zm-83.75.62q-.15.09-.25.06l-.16-.01-.12-.01a1 1 0 0 0-.33-.04c-.25.03-1.15-.5-1.22-.56-.14-.08-.52-.37-.62-.39-.12 0-.39-.3-.52-.32a.2.2 0 0 1-.1-.09c-.11-.15-.47-.1-.57-.25q-.1-.16-.23-.28l-.06-.06c-.1-.3-.4-.47-.55-.75l-.08-.18q0-.06-.06-.1c-.2-.14-.24-.37-.27-.59q0-.06-.03-.08c-.2-.08-.15-.28-.24-.4q-.04-.07-.06-.16 0-.06-.03-.11c-.14-.13-.15-.32-.24-.48l-.02-.03c-.21-.13-.12-.36-.07-.57.04-.13.07-.25-.09-.33q-.05-.02-.04-.05c.09-.14.05-.25.06-.36l.02-.02c.01-.03.51-.15.62-.17s1.42-.24 1.46-.23q.07 0 .1.02.04.05.35.02.17-.02.15.02c-.1.19.08.31.04.5-.01.08.05.13.08.2q.15.5.37.99.04.09.01.2-.01.12.03.2.07.13.17.25l.22.38c.13.22.27.4.4.63l.01.02c.22 0 .42.44.45.46l.26.3.25.35q.1.16.23.28l.04.04c.05.1.2.31.38.5.16.2.33.39.37.41q.03.04.02.1l.02.1v.13l.03.08q.02.05-.03.13l-.13.25zm28.15 31.76q.1.12.1.25l.02.15q.02.05.02.12-.01.16.04.33c.03.11.09.43.05.72l-.06.62c0 .15-.05.63 0 .7.06.1 0 .48.06.6l.02.12c-.04.19.2.38.19.56l.01.33.02.09c-.07.28.08.57.08.86v.17q-.02.06 0 .11c.12.2.05.4 0 .61 0 .03-.03.06 0 .08.17.15.05.3.1.45l-.02.15c0 .04-.04.08-.02.12.08.16.03.34.07.5v.04c.17.2-.02.38-.17.57-.09.12-.15.23-.03.37q.04.04 0 .07-.21.19-.36.38l-.04.02c-.03.02-.43 0-.5-.02l-1.15-.2-.1-.05a1 1 0 0 0-.38-.11q-.19-.04-.2-.08c.1-.16-.03-.38 0-.59l-.04-.27c.01-.46 0-.94.08-1.42q.02-.14.1-.26l.1-.24.02-.4q.03-.3.09-.59l.19-.96v-.04c-.12-.2.07-.8.07-.83l.1-.52c.05-.17.06-.35.14-.52q.08-.22.11-.44 0-.04.02-.07c.07-.25.55-1.2.58-1.3q.03-.05.08-.07l.08-.06.1-.04q.04-.02.06-.06.05-.04.1-.02l.23.07zm9.07 2.27q.12.1.13.2.01.08.04.14l.04.11q0 .15.1.31c.1.2.23 1.17.2 1.27 0 .14-.01.6.04.67.05.09.03.46.08.56q.03.06.01.12c-.02.18.2.35.18.53q0 .17.03.32l.01.08c-.06.28.04.56.02.83l-.02.17v.11c.09.2.02.4-.03.59 0 .03-.03.05 0 .08.11.14 0 .28.04.43v.14c0 .03-.04.07-.02.1.06.17.03.33.03.49v.03c.1.17-.04.33-.14.51-.05.1-.1.2 0 .3q.04.04.02.07c-.08.1-.07.2-.1.3l-.03.02-.47.03-1.09-.08q-.05-.02-.06-.05-.03-.07-.25-.12-.13-.03-.1-.07c.1-.2 0-.41.04-.63q0-.12-.03-.26c-.04-.44.03-.88.03-1.31q0-.12.07-.24l.07-.22v-.37q0-.27.03-.53l.08-.88v-.03c-.12-.18-.01-.72-.01-.76q0-.24.03-.48c.02-.16 0-.32.04-.48l.07-.41v-.06c.1-.23.31-1.16.33-1.27q0-.04.06-.07l.07-.06.09-.06.04-.07q.03-.04.1-.03zm20.48 1.39q.16.1.16.23.01.07.05.16.03.05.04.11 0 .18.1.34c.1.22.19 1.3.14 1.4 0 .16-.03.66.04.75.07.1.02.5.09.61q.03.06.01.14c-.04.19.23.4.21.58q-.01.19.02.36l.01.09c-.07.3.05.61 0 .91l-.03.19c0 .03-.03.08 0 .11.09.22 0 .43-.07.65 0 .03-.04.05-.01.08.13.16 0 .31.02.47q.02.07-.01.15c0 .04-.04.08-.02.12.07.18.01.35.03.53v.03c.15.2 0 .38-.16.56-.08.1-.15.22-.03.34q.03.03.01.06c-.1.11-.12.22-.15.34l-.03.01c-.02.02-.5.02-.6.02s-1.33-.13-1.37-.15l-.09-.05c-.03-.05-.1-.1-.32-.15q-.15-.04-.12-.08c.12-.22 0-.45.04-.68.03-.1 0-.19 0-.28l.12-1.44q0-.13.1-.25a.4.4 0 0 0 .08-.23q.02-.2 0-.41l.05-.58.17-.96v-.04c-.15-.2.02-.8.02-.83q0-.27.06-.53c.03-.18.02-.35.08-.52l.08-.45.01-.07a14 14 0 0 0 .41-1.37q0-.04.08-.08l.1-.06.13-.05.06-.08q.04-.04.13-.03l.34.03zm18.78 149.17q-1.27.37-2.56.67c-.32.08-.62.2-.94.25a19 19 0 0 1-3.43.32l-1.53.05c-.64-.03-1.34.1-1.91-.39q-.11-.25-.1-.28c.02-.04.07-.06.18-.22.23-.36.56-.66.9-.66l3.6-.02c.74 0 1.49-.26 2.23-.43a44 44 0 0 0 3.98-1.15c.76-.27 1.53-.52 2.27-.84.58-.24 1.1-.57 1.67-.86l.36-.2c.49-.18.7-.09.93.28q.09.12.16.25c.15.28.04.62-.25.87-.9.67-1.97 1.1-3.06 1.53q-1.21.47-2.47.87zm-61.4 2.16q-1.1.08-2.2.08c-.27 0-.53.05-.8.04q-1.43-.08-2.82-.34l-1.23-.21c-.52-.11-1.07-.2-1.53-.52-.14-.08-.07-.2.1-.3s.5-.27.77-.2c1 .2 2 .27 3.03.4.62.08 1.27-.02 1.9-.03a35 35 0 0 0 3.44-.25q1-.11 1.97-.31.75-.17 1.49-.4l.33-.07c.41-.08.56-.02.7.22l.1.16q.1.3-.34.55a8 8 0 0 1-2.74.95q-1.07.17-2.18.27v-.03"/>
  <path fill="#231f20" d="M161.93 203.26s-8.92 24.82-10.48 29.78c-1.55 4.95-16.24 46.45-19.57 66.27-3.32 19.82-4.19 34.02-2.58 39.1s11.58 7.53 13.51 7.96c1.94.43 15.57 2.34 19.84 2.27 4.28-.08 13.71 1.2 16.18-2.93s4.71-54.35 4.71-54.35l1.69-20.36s.9 45.85 2.95 54.7 4.92 18.84 9.76 20.2 19.07 2.74 29.59-2.5a116 116 0 0 0 17.8-10.91s-9.76-34.12-11.47-41.12c-1.7-7-11.47-50.5-11.47-50.5s-7.98-33.56-6.6-35.14c.74-.86-8.77.84-19.13 1.3-8.72.37-18.25-.46-20.76-1.3-5.5-1.86-13.97-2.48-13.97-2.48m113.02-95.34c-7.06-1.28-6.68-11.4-1.12-13.4 0 0 2.83-1.16 5.48 1.52 2.64 2.67 2.7 4.88 2.64 6.95s-3.55 4.75-3.88 4.88-3.12.05-3.12.05m28.75-30.83c5.04-5.16.05-12.89-5.31-11.66-4.42 1.02-4.23 5.78-4.23 5.78s.63 3.68 3.56 5.15c2.93 1.46 5.98.74 5.98.74zM263.53 63.4q.45-.59 1-1.09l.56-.49.6-.43.43-.33q.22-.15.46-.27a10 10 0 0 1 3.53-1.02l.8-.1.77-.06c.67-.08 1.34.02 2 .17.2.04.17.06 0 .14-.18.06-.5.25-.86.38-.16.05-.32.13-.48.15l-.48.08-.94.2q-.91.21-1.81.48-.27.08-.54.2l-.5.26c-.35.15-.64.41-.97.6q-.51.34-1 .76c-.28.3-.62.56-.87.9l-.5.61q-.24.31-.44.67l-.32.51-.27.55c-.16.37-.37.72-.47 1.12q-.25.92-.34 1.85l-.05.41c-.1.5-.24.64-.68.67l-.29.03c-.32 0-.52-.27-.55-.68a8 8 0 0 1 .7-3.72q.55-1.36 1.45-2.58l.04.03zm47.92 40.22q.37-1.55.44-3.18l-.04-1.17a14 14 0 0 0-.63-4.1c-.19-.59-.5-1.11-.8-1.65a8 8 0 0 0-1.53-1.8q-.26-.25.08-.13c.22.06.64.17 1.06.46.7.52 1.39 1.17 1.81 1.95q.65 1.18.91 2.48c.22 1.03.43 2.1.48 3.16a19 19 0 0 1-.66 5.58q-.45 1.58-1.2 3.03c-.4.75-.8 1.51-1.46 2.15q-.2.2-.46.4c-.65.42-.97.37-1.21.07q-.1-.11-.16-.22c-.13-.27.05-.54.34-.8a9 9 0 0 0 2.1-3.2q.58-1.46.88-3.03zm-46.09 37.86 1.18.96c.14.12.3.2.44.33q.74.64 1.5 1.25.35.26.7.48.49.27.86.72.1.14-.12.2c-.14.03-.38.1-.6.05q-.3-.06-.53-.22l-.48-.28q-.48-.3-.92-.66c-.35-.29-.78-.49-1.17-.74q-.64-.41-1.25-.86l-.77-.54c-.4-.26-.78-.55-1.19-.77-.32-.18-.68-.29-1.02-.42q-.12-.03-.23-.08c-.27-.13-.29-.26-.13-.62l.12-.25c.15-.27.39-.41.61-.37.68.15 1.25.5 1.8.89q.63.44 1.23.9l-.02.03zm-3.97.44q1.1.37 2.15.8.4.13.78.28a51 51 0 0 1 3.7 2.04c.46.27.99.54 1.26 1.15.08.2-.03.2-.23.2h-.37c-.15 0-.32.06-.45-.02q-.7-.29-1.45-.55c-.5-.18-.95-.45-1.43-.72-.56-.33-1.23-.46-1.85-.69a34 34 0 0 0-3.34-1.08 9 9 0 0 0-1.97-.28c-.5 0-.99.17-1.37.33l-.22.11c-.26.12-.33.06-.7-.22l-.26-.19q-.22-.16-.23-.4c0-.17.08-.38.25-.53a3 3 0 0 1 1.71-.78 7 7 0 0 1 1.69 0c.8.1 1.57.3 2.32.5zm-21.78 42.17-1.12-.43-1.09-.5c-.74-.3-1.42-.72-2.12-1.09a27 27 0 0 1-2.76-1.72q-.62-.44-1.23-.9c-.78-.64-1.6-1.24-2.33-1.92l-1-.89q-.5-.46-.97-.93c-.41-.4-.84-.77-1.22-1.2l-1.04-1.36c-.21-.29-.16-.28.12-.13.27.16.8.42 1.35.77q1.31 1.12 2.64 2.17c.45.34.86.74 1.29 1.11q.66.54 1.31 1.1.79.66 1.7 1.22c.57.4 1.2.72 1.8 1.08a35 35 0 0 0 4.12 2.05c.88.32 1.77.66 2.69.87.69.22 1.4.31 2.1.45q.52.07 1.06.1c.35.03.7.08 1.06.05q1.65-.02 3.17-.5.33-.12.66-.2c.81-.3 1.1-.3 1.43-.03l.22.18c.2.22-.07.57-.7.91a12 12 0 0 1-6.42.88 20 20 0 0 1-4.75-1.13v-.03z"/>
  <path fill="#231f20" d="M216.58 196.45s.53 5.55-.41 6.8c-.93 1.24-7.71 2.48-7.71 2.48l10.2-1.38zM159.6 179.8q.82-3.04 1.72-6.05.28-1.1.63-2.2 1.26-3.83 2.65-7.62.6-1.69 1.23-3.36.39-1.06.84-2.13.5-1.03 1.1-2.01c.26-.41.2-.37.11.03s-.13 1.18-.34 2.03c-.88 2.96-1.9 5.85-2.94 8.79-.63 1.75-1.09 3.64-1.62 5.47a285 285 0 0 0-2.65 9.8q-.7 2.85-1.27 5.71c-.29 1.48-.47 2.95-.67 4.42q-.08.48-.13.97c-.17 1.22-.33 1.58-.71 1.8-.1.04-.19.11-.27.13-.28.08-.43-.45-.38-1.36.17-2.69.58-5.5 1.18-8.28q.68-3.1 1.48-6.16h.03zm-33.66-4.91c.13-.72.24-1.45.46-2.16l.3-1.06.37-1.03q.24-.75.57-1.49l.3-.63.34-.62c.24-.4.45-.82.73-1.19l.79-1.15.85-1.09.79-.94c.27-.3.5-.64.8-.92q.52-.55 1.09-1.1.6-.5 1.25-.92c.27-.18.3-.07.22.24-.1.3-.25.85-.62 1.28-1.24 1.63-2.48 3.17-3.61 4.85q-.26.37-.5.78l-.39.83c-.28.56-.47 1.15-.7 1.72-.27.63-.44 1.29-.66 1.93-.15.67-.37 1.32-.46 2-.06.41-.16.82-.2 1.24l-.12 1.26q-.04.95-.03 1.92c.05.63.07 1.28.18 1.91q.14.74.33 1.44l.44 1.4.22.6c.25.76.21 1.04-.16 1.36q-.13.12-.26.2c-.3.2-.67-.04-.96-.6-.45-.82-.74-1.74-1.03-2.67a20 20 0 0 1-.37-7.38h.05zm29.22 17.22q-.16-.87-.37-1.75l-.2-.63a21 21 0 0 0-1.13-3.2c-.19-.41-.4-.8-.5-1.27q-.06-.18.11-.07c.11.07.38.18.57.37.59.72 1.21 1.47 1.45 2.39.18.54.47 1.04.67 1.58q.35.9.57 1.82.14.57.25 1.16.16.88.2 1.8c.04.47.1.97.04 1.5l-.1.36c-.15.44-.4.5-.72.35l-.22-.13c-.23-.16-.35-.43-.34-.6 0-.56.02-1.22-.05-1.98q-.06-.83-.25-1.7zm-2.61 7.99q.56-.29 1.13-.64l.38-.28 1.4-.95q.3-.23.57-.5.35-.31.75-.6.14-.08.15.13a1 1 0 0 1-.07.52q-.23.46-.57.86t-.75.68c-.34.22-.63.55-.96.8q-.54.43-1.12.8l-.72.45-1.15.61-.85.55-.2.11c-.26.11-.37.05-.52-.25l-.1-.22c-.08-.24-.04-.48.1-.61a7 7 0 0 1 1.38-.9q.57-.27 1.12-.58l.02.03zm50.84-74.93a5 5 0 0 0-.69-.24l-.25-.05q-.44-.14-.92-.2-.21-.01-.42.01c-.17.02-.34.08-.53.02-.12-.02-.07-.62.15-.69.37-.1.76-.15 1.15-.07.23.05.47 0 .7.02q.4.02.78.1l.47.1.7.15c.2.03.4-.01.6-.01l.13-.01c.15.02.17.11.1.45l-.05.23q-.13.4-.32.49a1.5 1.5 0 0 1-.94-.02l-.66-.24v-.03m-7.16.4 2.32.45q.43.07.84.16 1.5.37 2.91 1.03l.62.3.6.36c.47.36.98.79 1.12 1.42.06.19-.06.19-.24.11a6 6 0 0 1-.66-.35c-.79-.57-1.82-.87-2.86-1.25-.63-.22-1.33-.33-2.02-.44a47 47 0 0 0-3.7-.57q-1.07-.12-2.16-.2c-.55-.02-1.11.04-1.67.07l-.36.02c-.45-.01-.6-.12-.67-.5l-.04-.27c-.02-.3.18-.53.52-.6q1.51-.25 3.1-.07 1.17.12 2.34.3zm-.82-16.23s.78 1.93.4 3.23c-.27.9 1.84-4.11 1.84-4.11zM181.2 59.44c4.55.58 12.09-3.95 6.83-11.69 0 0-7-3.06-12.64-.38s-10.08 10.1-10.08 10.1-5.94-6.3-15.96-4.23c-7.16 1.47-13.9 10.04-7.26 21.36 0 0-1.68 2.23-4.23 2.59s-6.7 4.11-7.02 6.65c-.33 2.53.45 7.55 2.7 9.44s8.25 4.33 9.38 4.5c.88.14-4.27 7.9-1.7 14.44 1.68 4.23 7.09 6.86 12.6 5.3 6.63-1.86 8.89-5.81 8.89-5.81s4.85 4.99 8.33 4.9 8.34-1.61 10.48-4.4c2.22-2.87 2.98-11.96-3.7-17.02 0 0-6.35-.33-6.3-4.65.06-4.33.85-6.8 3.09-7.04s1.93-1.37 1.93-1.37-4.56-2.37-3.31-6.3c1.24-3.91 8.1-4.75 8.75-6.14.64-1.39 4.83-2.01 3.15-5.41s-5.53-4.52-5.53-4.52l1.58-.33zM189 75.8c1.1.5 2.3.87 3.54.86a5.2 5.2 0 0 0 3.53-1.42c.37-.33.34-.95 0-1.3a.93.93 0 0 0-1.3 0 3 3 0 0 1-.85.58l-.1.06c.08-.04-.07.03-.09.03a5 5 0 0 1-.73.19l-.17.01-.39.01-.34-.01-.18-.01c-.01 0-.19-.03-.1-.01.1.01-.07-.02-.09-.02q-.09 0-.17-.03l-.4-.08-.66-.2-.38-.15c-.01 0-.17-.07-.1-.03.1.03-.13-.06-.12-.06-.46-.2-.98-.13-1.25.33-.23.38-.13 1.04.33 1.25zm9.54 12.95c1.01.52 2.17.88 3.32.76a4.5 4.5 0 0 0 2.95-1.46c.32-.36.38-.94 0-1.3-.35-.32-.95-.37-1.3 0q-.1.13-.22.23-.05.07-.11.1s-.19.16-.08.08c.08-.07-.05.03-.06.04l-.13.08-.38.21c-.1.06.14-.05-.02 0l-.28.1q-.15.02-.28.06l-.15.02c.13-.02.09 0-.01 0h-.6q-.09 0-.16-.02c-.02 0-.19-.02-.08 0l-.11-.02-.16-.04-.64-.18-.2-.08c-.13-.05.11.06-.02 0l-.36-.18c-.42-.22-1-.12-1.25.33-.22.42-.12 1.01.33 1.25zm80.82 8.61a7.5 7.5 0 0 0-5.7-2.38c-.4 0-.77.11-1.15.19-.36.14-.73.22-1.07.4-2.52 1.05-4.04 4.03-3.61 6.9q.13.93.58 1.78.43.85 1.11 1.54a10 10 0 0 0 4.4 2.4c.53.15.46.23-.03.3a6 6 0 0 1-2.5-.09 7.4 7.4 0 0 1-4.7-3.7 7 7 0 0 1-.68-3.06c-.02-.52.07-1.03.11-1.54.14-.5.2-1.02.41-1.49a9 9 0 0 1 1.97-3.16c.9-.89 2-1.58 3.2-1.93a9.3 9.3 0 0 1 7.71 1.28 8.7 8.7 0 0 1 3.24 3.66 7.3 7.3 0 0 1-.73 7.22 8.5 8.5 0 0 1-4.56 3.4c-.41.11-.82.23-1.26.27-.4.05-.75 0-1.02 0-.28-.04-.5-.14-.68-.21a1.2 1.2 0 0 1-.64-.61q-.1-.17-.14-.33c-.05-.34.58-.44 1.5-.66 1.35-.2 2.55-.9 3.56-1.75q.78-.63 1.33-1.43a5.25 5.25 0 0 0-.67-6.95l.03-.04zm-4.52 21.94c.32.4.68.96.75 1.56.02.2.07.38.06.57a5 5 0 0 1-.5 1.68l-.26.67q-.19.42-.54.74-.1.08-.23-.13a1 1 0 0 1-.16-.49l.04-.42.09-.39q.09-.38.21-.75c.1-.3.02-.62-.04-.87l-.11-.37q-.08-.14-.24-.32-.2-.2-.46-.4-.39-.32-.9-.53c-.26-.1-.56-.08-.87-.12q-.1 0-.2-.03c-.22-.09-.24-.24-.07-.7l.11-.31c.15-.35.37-.59.57-.64.59-.15 1.09.07 1.62.35q.58.33 1.16.86z"/>
  <path fill="#231f20" d="M277.96 121.8c.22.54.19 1.11.13 1.55q0 .25-.05.48a8 8 0 0 1-.55 1.55l-.3.64a2 2 0 0 1-.53.73q-.1.07-.15-.12a1 1 0 0 1-.02-.42c.14-.53.12-1.08.3-1.59.1-.31.05-.66.03-.97a3 3 0 0 0-.14-.95 1.4 1.4 0 0 0-.25-.48 3 3 0 0 0-.73-.7q-.36-.2-.78-.37l-.19-.09c-.2-.14-.18-.28.09-.65l.18-.25c.22-.26.49-.41.67-.4.55.08 1 .28 1.42.72.31.31.66.73.9 1.27l-.03.03z"/>
  <path fill="#231f20" d="M279.25 131.62a32 32 0 0 1-2.04 2.83l-.75.98c-.94 1.1-1.91 2.17-2.8 3.3q-.59.73-1.09 1.54-.62 1.03-1.32 2.02c-.16.2-.32.08-.4-.21-.1-.29-.11-.77.09-1.2a19 19 0 0 1 2.81-4.2c.66-.76 1.22-1.65 1.8-2.47q.99-1.34 1.83-2.74.53-.87.89-1.77a5 5 0 0 0 .39-2.78 3.3 3.3 0 0 0-1.08-1.7l-.35-.28c-.43-.36-.5-.56-.22-1.12q.08-.19.19-.38c.23-.4.68-.52 1.18-.24a4.6 4.6 0 0 1 1.79 2c.42.87.56 1.9.45 2.82a9 9 0 0 1-1.32 3.62l-.04-.01zm-76.21 222.62a3 3 0 0 1-1.82-.4c-.18-.1-.17-.36.03-.43l1.16-.4q.11-.05.76-.19l1.55-.27c1.17-.2 2.5-.4 3.18-.43q1-.08 2.03-.04a14 14 0 0 1 1.65.2l.5.12c1.34.33 2.6.7 3.7.95a9 9 0 0 0 1.59.22l.79-.01.97-.07q.94-.04 1.83.05 3 .34 5.88.25c.31-.01.63 0 .9-.11.16-.05.35-.1 1.14-.18a40 40 0 0 1 5.51-.05l5.16.56c.24.03.5 0 .73.12.5.3 1.04.25 1.57.28q1.1.06 2.2.2c.36.04.71.2 1.06.32.31.1.17.53.06.58-.33.15-.05.34-.01.51q.03.1.01.18c-.07.15-4.32.85-4.78.84l-7 .2c-.37.02-.73-.06-1.1-.1-.08 0-1.37.02-2.6.1-.65.03-1.05.09-1.73.15l-.97.05c-1.07-.04-2.11.03-3.13-.25q-.3-.07-.62-.05c-.87 0-1.75-.06-2.6-.1l-1.26-.04h-.58l-.76.02c-1.04 0-2.1-.12-3.08-.37q-.27-.07-.5-.19l-.62-.24c-1.06-.34-2-.73-2.97-1.02-.83-.25-1.86-.36-2.88-.38-.46 0-2.75-.37-3.32-.34-.32 0-1.35-.28-1.64-.25z"/>
  <path fill="#231f20" d="M235.62 353.97a53 53 0 0 1-8.23 1.22c-1 .08-2 .2-3 .24-3.51.12-7.04.07-10.57-.44q-1.17-.16-2.35-.46a11 11 0 0 1-1.78-.63l-.29-.16q-.2-.12-.34-.28c-.48-.5-.7-.99-.91-1.5q-.31-.74-.47-1.5-.14-.78-.18-1.54a5 5 0 0 1 .1-1.55c.16-.65.33-.52.63 0a10 10 0 0 1 1.17 2.36q.24.66.43 1.29c.15.4.35.79.5 1l.09.09s.01-.03-.02.01l-.11.17-.03.04c-.13.23.18-.3.15-.23l.04.01.06.03.52.24q.6.21 1.27.36c1.8.42 3.79.63 5.76.8 2.38.2 4.88 0 7.32-.17a65 65 0 0 0 7.98-1c1.54-.3 3.49-.83 3.88-1.27.12-.1.19-.3.1-.45a1 1 0 0 0-.36-.33l-.22-.14-.31-.15c-.19-.1-.53-.22-.78-.34a29 29 0 0 0-3.57-1.08c-1.9-.47-3.8-.77-5.72-1.26q-.63-.14-1.27-.33c-1.55-.5-1.98-.86-2.07-1.55-.02-.15-.07-.32-.05-.45.03-.47.79-.6 1.88-.32l5.08 1.16c1.74.4 3.52.8 5.37 1.38q.52.16 1.03.36l.52.2.26.12.35.17q.36.17.7.38l.77.56c.52.37.76.85.9 1.39.2 1.17-.55 2.1-1.78 2.7q-.46.23-.85.39l-.54.19-1.06.32-.01-.05m-97.28.65c-.29.04-.57-.04-.8-.16-.24-.14-.45-.4-.62-.6-.11-.12 0-.41.15-.46.31-.08.62-.24.92-.3.1-.02.87-.1 1.77-.27l2.44-.45q1.51-.3 3.1-.4a19 19 0 0 1 3.47.18c.3.04.67.16 1 .24q.27.1.57.24l.28.13.17.09c.42.22.69.33.97.4l1 .21c1.4.26 3.05.24 4.58.17.26-.01.52 0 .76-.1.2-.1 1.34-.18 2.5-.27s2.35-.18 2.63-.15q1.02.06 2.09.1l.54.03a14 14 0 0 1 1.66.15c.2.02.41-.01.59.13.41.32.84.3 1.26.34q.87.09 1.73.24c.29.05.57.2.84.3.25.1.16.46.07.52-.25.13-.04.3 0 .45q.03.09.02.16c-.06.13-3.52.9-3.87.93-.02 0-.35.03-.82.04l-.79.05-.86.08a103 103 0 0 0-2.94.41c-.3.05-.6 0-.91-.02l-2.16.2c-1.06.1-2.12.16-2.2.15-.85-.03-1.65.07-2.48-.2-.16-.05-.33-.03-.5-.03q-1.07.01-2.24-.12-.6-.06-1.29-.25a6 6 0 0 1-1.3-.54c-.94-.54-.96-.54-1.6-.68l-.3-.1a2 2 0 0 0-.4-.11q-1.14-.1-2.39-.14-1.25-.08-2.51 0c-.4 0-2.3-.23-2.77-.25-.26 0-1.11-.37-1.35-.34"/>
  <path fill="#231f20" d="M162.02 354.98q-2.36.49-4.77.74c-.59.05-1.17.16-1.77.17a17 17 0 0 1-3.18-.19c-.53-.1-1.08-.2-1.6-.4a5 5 0 0 1-1.57-.9 4 4 0 0 1-.86-1.4 7 7 0 0 1-.35-1.43 7 7 0 0 1 .08-1.84c.09-.6.36-1.22.82-1.69.3-.28.32-.14.32.2q0 .26.1.66l.11.4.05.4q.02.77.23 1.5c.11.47.21.94.4 1.3q.06.14.13.25l.13.17c.04.07.07.06.1.1l.25.16q.57.3 1.32.54c1.2.37 2.63.24 4 .13a40 40 0 0 0 11.42-2.71 17 17 0 0 0 2.8-1.66q.29-.23.56-.42c.34-.25.56-.39.76-.43.23-.02.4.03.68.17q.18.07.36.17.3.17.26.55-.03.4-.43.84c-1.6 1.6-3.63 2.51-5.67 3.3q-2.29.82-4.67 1.37zm-6.96-139.68c-1.32 1.37-2.85 2.33-4.3 3.24-.52.33-1.01.7-1.5 1.02l-.44.3-.22.16-.22.21-.1.13q0 .08.06.13.23.13.55.08l.17-.02.24-.04q.37-.07.76-.17 1.37-.39 2.64-1.01c1.08-.55 2.06-1.2 3.06-1.87.31-.2.35-.14.28.25-.04.4-.32 1.09-.9 1.6a13 13 0 0 1-3.45 2q-.91.38-1.9.63l-.25.06q-.2.07-.43.1-.45.1-.85.12c-.55.04-1.05.02-1.39-.15q-.3-.14-.54-.35a1 1 0 0 1-.34-.63c.02-.21 0-.41.08-.64q.2-.35.44-.7l.58-.7.68-.62c.36-.29.66-.51 1-.75 1.44-.98 2.86-1.85 4.06-2.95q.56-.5 1.03-1.07.24-.27.46-.58l.22-.3.15-.26.05-.1c.19-.15.02-.36-.05-.55q-.24-.49-.53-.97-.56-.97-1.2-1.9c-.69-1-1.5-1.9-2.28-2.83l-.53-.59c-.62-.77-.7-1.09-.36-1.62q.1-.2.22-.37c.3-.36.86-.28 1.41.25a27 27 0 0 1 4.2 5.47q.38.62.75 1.3l.09.18.1.22q.18.32.28.65c.17.44.1.9-.04 1.3-.21.33-.43.74-.51.86l-.38.52q-.39.53-.82.98z"/>
  <path fill="#231f20" d="M150.68 224.3q-.11.03-.3.16-.09.05-.19.14-.12.1-.1.2c.03.09.2 0 .24.02q.14.03.45-.07a13 13 0 0 0 2.86-1.72q.86-.73 1.63-1.53.23-.24.25.16c0 .25-.09.69-.37 1.06a13 13 0 0 1-2.66 2.5l-.51.33-.7.4c-.7.4-1.46.77-2.14 1.03-.68.22-1.1.16-1.5.07a1 1 0 0 1-.62-.44 1 1 0 0 1-.14-.42l.08-.32q.03-.16.11-.34l.08-.18.11-.19c.24-.27.45-.54.73-.81.3-.34.7-.67 1.05-.98q.28-.24.57-.46l.4-.3c.8-.61 1.62-1.16 2.36-1.79.57-.49 1.05-1.06 1.52-1.61q.14-.2.29-.37c.4-.44.59-.5 1.06-.25l.33.17c.34.22.41.63.16 1.06a12 12 0 0 1-3.06 3.1l-1.27.94-.62.46-.06.02-.05-.02zm46.94-113.15q-.38.65-.63 1.38c-.07.18-.08.37-.14.54-.23.63-.38 1.29-.55 1.96-.07.3-.08.6-.12.9q-.06.57-.21 1.15-.06.18-.23 0c-.1-.1-.29-.29-.37-.51-.3-.8-.36-1.65-.16-2.46.13-.48.12-1 .2-1.51a12 12 0 0 1 .82-2.62c.2-.5.48-.95.7-1.43.19-.36.28-.79.46-1.18q.04-.15.12-.26c.2-.28.38-.28.81.02l.3.2c.32.25.5.57.46.8-.08.71-.41 1.2-.71 1.77-.23.4-.5.81-.7 1.26zm4.52-35.41a6 6 0 0 0-1.65-1.6q-.38-.22-.78-.4-.73-.38-1.53-.69-.79-.32-1.61-.62-.74-.25-1.48-.45-.48-.13-.95-.3-.47-.2-.9-.48-.25-.15.08-.2c.2-.05.57-.16.95-.17 1.3.21 2.62.38 3.94.82.77.3 1.63.47 2.44.85q.69.32 1.27.74.3.2.6.43.29.23.55.5c.45.43.87 1.03 1 1.76.08.27.03.56.02.84-.07.25-.13.53-.26.74-.2.48-.52.83-.8 1.19q-.66.81-1.32 1.56-.15.16-.31.3c-.42.35-.64.34-1.02.05l-.26-.2c-.26-.25-.28-.63-.07-.98.3-.52.7-.96 1.06-1.37.36-.4.71-.81.93-1.14.14-.24.26-.43.27-.56 0-.13.02-.33-.19-.6l.04-.02zm-29.87 12.73-.02.2.03.2.04.41q.1.4.23.82l.4.86q.23.39.5.78l.47.5q.25.2.51.44a7.2 7.2 0 0 0 4.68 1.55 10 10 0 0 0 2.32-.36c.97-.25 1.9-.65 2.9-.95.4.03.3-.04.17.27a3 3 0 0 1-.99 1.2 9 9 0 0 1-3.2 1.24 9 9 0 0 1-3.5-.09 9 9 0 0 1-3.95-1.85q-.44-.41-.84-.88-.35-.48-.68-.99l-.53-1.07-.2-.59q-.1-.3-.14-.6a5.5 5.5 0 0 1 .3-3 6.5 6.5 0 0 1 2.94-3.25c1-.55 2.14-.95 3.4-.8.25.04.55.03.8.15l.59.28q.21.16.31.32.2.3.07.65-.04.18-.1.32c-.19.31-.65.35-1.1.2-.7-.2-1.39-.15-2.08.05a5 5 0 0 0-2.9 2.41c-.1.26-.24.5-.27.76l-.09.4-.01.4h-.05zM77.72 67.9v.07l.04.26.02.04q.03.12.1.24v.02q.1.15.2.26l.02.02.31.22q.15.08.3.13h.05l.29.04h.06q.14 0 .27-.03l.04-.01h.02l.24-.1.03-.03.02-.01.2-.15.04-.04.17-.22.02-.04.1-.24v-.05l.04-.26v-.05q-.01-.15-.04-.29l-.01-.05-.07-.15-.07-.16-.03-.04-.17-.22-.04-.04-.23-.18-.05-.03-.03-.01q-.11-.06-.24-.1l-.05-.02-.27-.04h-.06l-.26.04-.06.02a1 1 0 0 0-.31.16 1 1 0 0 0-.23.25 1 1 0 0 0-.11.34 1 1 0 0 0 .01.36l.1.22q.12.21.32.33l.22.1a1 1 0 0 0 .49 0l.06-.02-.24.03H79l-.24-.03.09.02-.22-.1.1.07-.19-.15.1.09-.16-.18s.05.06.06.1l-.1-.22s.04.07.04.1l-.03-.23v.1l.03-.25-.02.07.09-.21-.04.06.15-.18-.06.06.18-.15-.06.04.22-.1-.09.02.24-.02h-.12l.25.02-.13-.03.22.1-.1-.07.17.15-.07-.07.15.18-.05-.08.1.22-.02-.07.02.24v-.08a1 1 0 0 0-.08-.35 1 1 0 0 0-.19-.29 1 1 0 0 0-.29-.19 1 1 0 0 0-.35-.08l-.24.03a1 1 0 0 0-.4.23l-.15.19a1 1 0 0 0-.12.46zm43.65 63.07q-.62-.15-1.19.17a1.7 1.7 0 0 0-.79 1.88q.2.58.7.92c.53.4 1.28.4 1.85.1.57-.32.95-1.01.94-1.67 0-.74-.46-1.31-.97-1.8a1 1 0 0 0-.64-.27.9.9 0 0 0-.91.91q0 .37.27.64.21.2.4.44l-.14-.18q.12.15.2.33l-.09-.21q.06.12.07.27l-.02-.25v.26l.02-.24-.08.27.1-.22-.13.22.14-.18-.17.17.18-.14-.17.1.22-.1-.21.06.24-.03h-.22l.24.03-.2-.06.21.1-.21-.13.18.14-.15-.15.14.18-.1-.16.1.22-.05-.18.03.24v-.17l-.03.24.05-.19-.1.22.11-.17-.14.18.13-.15-.18.15.17-.1-.22.1.19-.06-.24.03h.17l-.24-.03.05.02c.24.05.5.03.7-.1a.9.9 0 0 0 .32-1.25 1 1 0 0 0-.54-.41zm-66.49-13.5.18.06-.22-.1q.14.07.25.15l-.18-.15.2.2-.14-.17q.09.11.14.24l-.09-.22.06.19q.04.17.16.31.1.15.25.23.16.1.34.12.18.03.37-.02l.22-.1a1 1 0 0 0 .32-.32l.1-.22a1 1 0 0 0 0-.48l-.05-.17-.16-.34-.08-.13-.24-.3q-.15-.14-.3-.23l-.14-.1-.5-.2a1 1 0 0 0-.36-.02.6.6 0 0 0-.34.11 1 1 0 0 0-.26.23.6.6 0 0 0-.16.32l-.03.24q0 .25.13.46l.14.18q.18.17.4.24z"/>
  <path fill="#231f20" d="M204.65 84.88a28 28 0 0 1 1.73 3.94c.45 1.4.8 2.82.92 4.26.07.53.08 1.06.13 1.58 0 .54.02 1.07-.04 1.6a13.5 13.5 0 0 1-5.21 9.6 19 19 0 0 1-4.11 2.54c-1.86.84-3.86 1.63-6.02 1.25q-.48-.16-.44-.26c.03-.07.2-.09.46-.22.52-.28 1.35-.75 2.36-1.13 1.82-.56 3.6-1.38 5.16-2.45a15 15 0 0 0 4.1-3.88 11 11 0 0 0 1.79-6.64q-.04-1.95-.51-3.9-.5-1.87-1.4-3.69a37 37 0 0 0-2.48-4.32 64 64 0 0 0-4.58-6.1c-1.28-1.51-2.67-2.87-4.02-4.29q-.46-.45-.91-.93c-1.06-1.24-1.26-1.78-1.02-2.4q.08-.23.17-.43c.27-.38.93-.09 1.8.7a68 68 0 0 1 7.4 8.07 54 54 0 0 1 4.75 7.05l-.04.03zm-21.91-14.13c-1.06.53-2.16.9-3.19 1.22s-2 .62-2.84 1.06q-.9.48-1.52 1.18c-.7.77-1.1 1.95-.98 3.05.1 1.13.74 2.23 1.58 3.2.74.86 1.71 1.56 2.72 2.14q.98.56 2 1.03 1 .53 2.03 1c.42.27.4.21-.04.43a4 4 0 0 1-2.36.28q-1.25-.34-2.4-.9-1.14-.62-2.18-1.42a11 11 0 0 1-1.9-1.9 7.4 7.4 0 0 1-1.43-4.29q.01-.9.24-1.74a5.7 5.7 0 0 1 1.88-2.93 10 10 0 0 1 3.15-1.65c1.06-.37 2.1-.64 3.06-1.01a8 8 0 0 0 3.11-1.88c.6-.63.9-1.43.82-2.29a3.4 3.4 0 0 0-1.17-2.24c-1.03-.97-2.45-1.47-3.84-1.89l-.92-.25c-1.16-.3-1.47-.6-1.63-1.19-.03-.14-.1-.28-.1-.4-.05-.42.54-.72 1.56-.67q1.1.12 2.2.44a11 11 0 0 1 4.18 2.44c.62.62 1.2 1.41 1.51 2.4a5 5 0 0 1-.55 4.29 8 8 0 0 1-2.97 2.54zm-41.16-14.11a22 22 0 0 1 2.83-3.07 16 16 0 0 1 3.57-2.31q.69-.36 1.4-.63c.49-.18.95-.4 1.46-.49a17 17 0 0 1 5.33-.45c1.78.07 3.53.58 5.13 1.3l1.06.5c.35.18.67.42 1 .61.7.38 1.27.9 1.87 1.4.4.3.7.69 1.06 1.04l.5.55.42.62c.26.41.57.8.77 1.25s.32.95.48 1.4c.17.58.04.55-.42.22l-.93-.64c-.19-.12-.32-.3-.5-.46a5 5 0 0 1-.54-.52c-.3-.32-.55-.7-.9-.96q-.52-.43-.99-.89l-1.06-.76c-.33-.27-.75-.42-1.12-.65a19 19 0 0 0-4.94-1.64c-2.12-.38-4.42.04-6.47.77l-.85.3-.83.38c-.57.23-1.05.59-1.58.89-.26.15-.48.36-.72.53-.24.2-.5.34-.71.57q-.7.62-1.32 1.32a18 18 0 0 0-2.66 3.75 15 15 0 0 0-1.88 6.66 11 11 0 0 0 1.7 6 9 9 0 0 1 .7 1.33c.1.33.07.6-.06.91l-.16.43c-.23.4-.93.15-1.81-.73a11.5 11.5 0 0 1-2.4-5.07c-.4-1.9-.34-3.89.03-5.78.6-2.8 1.82-5.44 3.5-7.7zm34.38 57.98a10.6 10.6 0 0 0 4.62-2.64c.49-.46.84-1.03 1.26-1.54q1.06-1.43 1.7-3.15.6-1.72.7-3.6c0-1.1-.12-2.21-.45-3.25a6 6 0 0 0-.32-1c-.13-.32-.22-.67-.38-.98l-.45-.97a7 7 0 0 1-.44-.98c-.1-.49-.1-.42.3-.24q.3.14.8.44c.33.2.58.54.85.9a11.5 11.5 0 0 1 1.44 9.36 16 16 0 0 1-2.4 5.43 12.7 12.7 0 0 1-5.14 4c-1.23.55-2.55.86-3.87 1-2.01.24-4.05-.09-5.94-.7a15 15 0 0 1-4.15-2.06c-.28-.2-.57-.38-.8-.65q-.34-.34-.54-.6a2 2 0 0 1-.23-.52q-.14-.44.1-.82.07-.19.18-.35c.26-.32.86-.17 1.52.3 1 .68 1.96 1.34 3.03 1.85q1.58.78 3.34 1.09c1.74.26 3.56.2 5.26-.35l.02.05zm17.58 4.08q2.55.11 5.14.08c.63 0 1.27-.08 1.9-.07a21 21 0 0 1 3.22.26c.38.08.86.2 1.33.53.58.5.82 1.01 1.01 1.52.2.5.24 1.01.29 1.5q.08 1.62-.2 3.14-.13.97-.45 1.9-.17.47-.38.9-.1.24-.29.41l-.28.4c-.24.33-.24.27-.26-.1-.02-.17-.01-.43-.16-.77-.09-.33-.06-.65-.05-1.01.04-.62.17-1.22.2-1.81q.07-.9.03-1.76a8 8 0 0 0-.22-1.58q-.1-.37-.22-.63-.05-.16-.11-.24l-.07-.14q-.01-.04-.04-.07l-.12-.05q-.19-.06-.43-.09-.5-.06-1.07-.04l-2.34.06q-2.6.05-5.26.02a56 56 0 0 1-8.2-.69c-1.27-.2-2.56-.31-3.81-.72q-.42-.12-.83-.27c-1-.43-1.23-.78-1.16-1.36q.02-.22.06-.4c.13-.42.66-.53 1.34-.38 1.04.24 2.1.36 3.15.56a50 50 0 0 0 8.3.83v.05zm-64.41 46.45c3.53-4.64 7.6-8.64 11.75-12.53 1.51-1.42 3-2.86 4.56-4.22 5.49-4.8 11.13-9.39 16.76-13.97 2.5-2.02 4.99-4.1 7.39-6.2q2.32-2.02 4.59-4.07 1.13-1.03 2.23-2.1c.7-.71 1.47-1.39 2.06-2.17.36-.48.48-.7.57-.66.07.04.08.37-.1.92s-.54 1.29-1.03 2.12q-.8 1.25-2.04 2.57a135 135 0 0 1-9.27 8.63q-2.38 2.07-4.8 4.09-2.47 1.98-4.92 3.98a236 236 0 0 0-11.6 10.2 139 139 0 0 0-11.9 12.02c-2.2 2.64-4.32 5.43-5.6 8.51a9 9 0 0 0-.77 3.55q.06 1.87.56 3.74c.64 2.5 1.66 4.91 2.83 7.23a72 72 0 0 0 8.06 12.2c1 1.31 1.66 2.16 2.04 2.82.37.68.5 1.13.52 1.6 0 .21.05.46.01.63q-.1.4-.93-.12a9 9 0 0 1-2.15-1.9 72 72 0 0 1-6.7-9.04 55 55 0 0 1-5.32-10.45q-.4-1.04-.68-2.15c-.24-.72-.37-1.49-.52-2.25l-.1-.57-.05-.6-.08-1.2c0-.86.1-1.76.3-2.54a17 17 0 0 1 1.82-4.35 37 37 0 0 1 2.46-3.75zm24.85 34.51q-1.19 1-2.44 1.94c-.3.23-.57.5-.9.7a23 23 0 0 1-3.56 1.9q-.82.39-1.65.7l-1.1.33q-.28.07-.57.04-.3.01-.6-.08c-.24-.08-.21-.13-.07-.38.16-.26.4-.75.74-.93l.93-.46c.3-.16.59-.35.91-.47l1.9-.9c.78-.37 1.42-1.02 2.1-1.58q1.14-.92 2.24-1.92.68-.62 1.32-1.27c.65-.67 1.32-1.32 1.9-2.06.45-.57.8-1.2 1.21-1.82l.26-.4c.44-.41.7-.43 1.21-.14l.34.2c.36.26.48.7.34 1.15a9 9 0 0 1-2.25 3.33 42 42 0 0 1-2.23 2.15l-.04-.04z"/>
  <path fill="#231f20" d="M154.35 189.16q-.36-.97-.85-1.9l-.4-.67q-.61-1.26-1.42-2.43-.36-.52-.78-.99c-.35-.4-.73-.77-1.01-1.25-.04-.2 0-.21.23-.25.22-.03.56-.02.84.15.95.6 1.95 1.22 2.57 2.2.38.56.93 1.02 1.37 1.58.48.6.87 1.29 1.24 1.97q.33.64.63 1.3.42 1.02.78 2.05c.2.53.49 1.04.68 1.6l.13.36c.09.47-.08.64-.68.79l-.41.1c-.46.07-.9-.07-1.08-.33l-.38-.58-.32-.59-.27-.58c-.1-.2-.13-.41-.22-.62q-.29-.93-.68-1.87l.05-.03zm2.56-16.23q-1.13 1.23-2.32 2.44c-.28.3-.52.63-.82.91q-1.56 1.53-3.23 2.95-.72.65-1.48 1.26l-1 .73q-.53.32-1.1.57c-.25.1-.3-.05-.25-.34.06-.29.2-.75.5-1.1q.4-.49.8-.9c.28-.3.53-.62.83-.87q.89-.8 1.84-1.6c.76-.62 1.36-1.46 2.02-2.21l2.2-2.52 1.35-1.56q1.04-1.19 2.03-2.4c.5-.64.9-1.35 1.37-2.02l.3-.45c.42-.53.74-.52 1.2-.28l.32.18c.32.22.4.65.21 1.12a23 23 0 0 1-2.55 3.56l-2.17 2.54-.04-.03zm-5.96 176.19a74 74 0 0 1-10.28-2.07c-1.7-.48-3.39-1-5.04-1.71a19 19 0 0 1-4.76-2.75q-.55-.45-1.06-1-.24-.27-.48-.59-.25-.3-.42-.63l-.37-.64-.3-.66c-.2-.44-.32-.9-.47-1.34a24 24 0 0 1-.88-5.34 68 68 0 0 1 .26-10.5q.7-7.57 2.1-15a360 360 0 0 1 6-25.92 629 629 0 0 1 7.38-25.51q1.75-5.63 3.57-11.25 1.84-5.62 3.75-11.14c1.65-4.73 3.31-9.47 5.14-14.14s3.71-9.33 5.98-13.82c.74-1.38 1.12-1.95 1.15-1.88.05.07-.22.79-.61 2.06-.81 2.53-2.23 7.18-4.19 12.58q-2.58 7.18-5.03 14.44c-1.65 4.82-3.18 9.69-4.77 14.54a799 799 0 0 0-9 29.38 323 323 0 0 0-8.21 36.7q-.81 5.1-1.25 10.24a59 59 0 0 0-.06 10.2c.18 1.67.48 3.34 1.09 4.8a7 7 0 0 0 2.94 3.55c1.35.92 2.88 1.65 4.46 2.27q2.37.92 4.87 1.53a82 82 0 0 0 12.5 2.03c4.22.37 8.46.5 12.68.3q2.4-.12 4.76-.44c1.56-.24 3.14-.54 4.52-1.1a5 5 0 0 0 .92-.5q.19-.15.32-.3.06-.07.1-.15l.1-.22c.25-.62.4-1.42.53-2.19.26-1.56.41-3.16.54-4.76.48-6.42.77-12.87 1.04-19.27.43-9.96.71-19.74 1.38-29.59.16-2.17.3-4.3.5-6.48.36-4.05.74-6.71 1.13-8.56s.76-2.9 1.23-3.7c.2-.38.43-.87.6-1.07.58-.7.46 2.63-.06 8.5-1.62 17.48-2.06 36-3.11 54.67-.24 3.48-.51 6.93-1.08 10.5q-.1.66-.27 1.36c-.03.23-.12.48-.19.72l-.1.38-.19.44q-.09.21-.22.44a4 4 0 0 1-1.13 1.12q-.74.49-1.44.74a24 24 0 0 1-5.43 1.22c-3.56.42-7.1.49-10.62.4q-5.28-.14-10.52-.83z"/>
  <path fill="#231f20" d="M240.56 311.71q1.24 5.1 2.43 10.2c.38 1.71.8 3.41 1.1 5.16q.24 1.3.43 2.65l.08.7.07.72c0 .28.06.5.01.84q-.03.47-.14.9a7.5 7.5 0 0 1-1.56 2.79q-.96 1.12-2.04 1.99a32 32 0 0 1-4.54 3.04 61 61 0 0 1-9.76 4.33 66 66 0 0 1-15.13 3.49c-2.3.22-4.6.28-6.93.09a21 21 0 0 1-6.89-1.62 13 13 0 0 1-3.1-1.94 10 10 0 0 1-2.35-2.85 32 32 0 0 1-2.67-6.43 98 98 0 0 1-2.83-13.29q-1-6.7-1.54-13.42a323 323 0 0 1-1.09-23.9c-.05-10.17.27-20.45 2.05-30.48.54-3.13.55-2.69.46 0a166 166 0 0 0-.06 5.56l.01 3.71c-.03 1.33-.03 2.73-.1 4.19q-.5 15.46.22 30.96c.55 10.3 1.42 20.67 3.52 30.78a51 51 0 0 0 2.63 8.87c.6 1.4 1.32 2.74 2.22 3.82a10 10 0 0 0 3.53 2.46c2.74 1.17 5.9 1.47 9 1.45 3.13-.05 6.27-.47 9.35-1.1a69 69 0 0 0 9.97-2.85 55 55 0 0 0 9.35-4.4c1.47-.9 2.87-1.87 4.07-3.01 1.16-1.14 2.23-2.46 2.02-3.78a24 24 0 0 0-.4-2.48l-.56-2.56-1.16-5.12c-1.98-8.41-4.07-16.82-6.12-25.23a2009 2009 0 0 1-8.93-38.26 1183 1183 0 0 1-6.33-29.39c-.4-2.16-.86-4.27-1.25-6.47-1.45-8.12-1.64-10.75-1.25-12.59.09-.42.16-.96.28-1.22.4-.85 1.3 2.4 2.43 8.3 3.36 17.52 7.33 35.9 11.62 54.31 3.18 13.68 6.55 27.37 9.93 41.05zM255.55 182a20 20 0 0 1-6.49 3.79c-.58.24-1.22.36-1.83.53q-.47.1-.98.17-.5.1-1 .07c-1.33.06-2.61-.18-3.83-.5a23 23 0 0 1-5-2.08 53 53 0 0 1-7.6-5.39 125 125 0 0 1-6.83-6.17l-5.82-5.67c-2.46-2.42-5.04-4.7-7.34-7.22-.71-.8-.6-.77.34-.47.96.25 2.63.96 4.13 2.3 5.2 4.83 10.09 9.83 15.28 14.57a44 44 0 0 0 10.5 7.17c1.03.51 2.1.87 3.2 1.18 1.08.25 2.18.4 3.27.33.53-.07 1.05-.11 1.6-.29l.82-.22.8-.3c1.07-.38 2.08-.92 3.05-1.52a26 26 0 0 0 6.27-5.8 67 67 0 0 0 6.96-11.21c1.56-3.05 2.88-6.15 4.46-9.2.35-.67.68-1.34 1.08-2 1.46-2.47 2.35-3.06 3.14-3.14.18-.02.39-.07.53-.04.22.04.2.33 0 .79a16 16 0 0 1-1.08 1.98c-1.5 2.51-2.78 5.33-4.16 8.16s-2.8 5.74-4.42 8.58c-2.4 4.2-5.18 8.35-9.01 11.67l-.04-.04zm8.37-60.2c.06-.34.19-.84.34-1.2q.23-.58.5-1.05.53-.96 1.08-1.83t1.05-1.72q.53-.9 1.09-1.8c.55-.85 1.07-1.73 1.69-2.55q.8-1.08 1.7-2.1l.31-.38.38-.4q.38-.4.75-.74.39-.33.74-.56c.23-.13.47-.27.68-.33q.3-.11.63-.12c.2-.02.46.12.7.24q.34.25.4.57.11.3.12.66.03.74-.29 1.72-.15.48-.34.96l-.34.82q-.96 2.17-1.94 4.28l-1.21 2.72c-.46.87-.86 1.77-1.33 2.64-.29.55-.31.47-.36-.1a9 9 0 0 1 .22-2.76l.2-.75.27-.72.55-1.44 1.12-2.82.57-1.38.14-.34c.04-.1.1-.28.1-.24l.06-.08.16-.27c.05-.11.14-.33.04-.45s-.23 0-.36.09l-.2.18-.11.11-.15.17a41 41 0 0 0-2.2 2.93q-1.17 1.64-2.2 3.4c-.71 1.21-1.5 2.36-2.1 3.5a6 6 0 0 0-.64 2.19q-.18 1.23-.26 2.48c-.28 2.55-.3 5.1-.62 7.7-.24 2-.53 3.99-1.22 5.9q-.23.63-.48 1.25c-.72 1.5-1.18 1.85-1.7 1.96q-.18.06-.34.06c-.35-.02-.25-.72.1-1.82a38 38 0 0 0 1.93-10.2c.08-1.35.12-2.73.26-4.17.13-1.3.18-2.74.43-4.21z"/>
  <path fill="#231f20" d="M312.15 97.11a7 7 0 0 0-1.92-3.46l-.36-.3-.4-.28a4 4 0 0 0-.8-.4c-.6-.18-1.38-.33-2.13-.45-3.07-.45-6.25-.67-9.4-.84-2.32-.11-4.63-.14-6.95-.2q-6.13-.16-12.24 0-3.06.09-6.09.35c-2 .19-4.07.4-5.85.95-.17.07-.4.12-.52.21l-.2.11q-.11.08-.23.2c-.3.25-.6.5-.84.84l-.4.47-.3.54q-.33.52-.55 1.12c-.64 1.57-.9 3.3-.92 5-.03.56.04 1.1.06 1.65.1.54.11 1.1.24 1.63a12 12 0 0 0 .97 3.04l.36.68.43.6c.14.2.31.34.46.53q.12.14.23.22l.3.2q.66.38 1.46.69.78.31 1.57.66c1.3.64 1.19.48-.11.69-.65.08-1.59.2-2.74.05-.58-.09-1.2-.15-2.01-.6q-.5-.34-1-.73-.4-.45-.76-.96a14.6 14.6 0 0 1-2.04-7.63q0-.98.1-1.95c.09-.64.14-1.29.3-1.93.25-1.29.74-2.55 1.37-3.77l.55-.88c.18-.3.44-.56.66-.83l.34-.4q.2-.2.41-.36l.42-.36c.16-.11.24-.22.46-.34q.3-.17.61-.32l.52-.19c.36-.14.66-.18.99-.28a22 22 0 0 1 1.87-.33c2.45-.33 4.85-.43 7.27-.5 5.76-.13 11.71-.29 17.58-.12q4.83.13 9.68.53c1.61.14 3.23.3 4.86.58.81.16 1.64.27 2.55.7.8.4 1.55.95 2.16 1.61 1.5 1.66 2.18 3.8 2.44 5.84a19 19 0 0 1-1.79 10.58 8 8 0 0 1-1.43 2.03c-.8.68-1.57.86-2.33 1.1-1.53.39-3.04.58-4.55.73q-2.25.21-4.5.31c-4.65.19-9.2.24-13.78.1-1.01-.04-2-.05-3.02-.12-3.77-.22-4.98-.52-5.71-1.17-.17-.14-.4-.29-.5-.41-.3-.41 1.25-.62 3.98-.54a282 282 0 0 0 18.8-.23c2.1-.09 4.23-.2 6.28-.47q1.14-.15 2.2-.4.52-.13.97-.28c.11-.06.3-.11.37-.17l.14-.07c.05-.02.03-.03.05-.03s-.03-.05.12.08l.02.01h.01l-.12-.1.02-.04.04-.04.14-.17.29-.38q.27-.4.51-.88.49-.94.83-2c.89-2.78 1.2-5.94.47-8.7l.05-.02zm-11.42-32.36c-1.98.17-3.94 1.01-4.89 2.77a6 6 0 0 0-.65 2.03 6 6 0 0 0 .59 3.73 6 6 0 0 0 4.47 3.3 8 8 0 0 0 4.14-.16c.73-.23 1.49-.54 1.93-1.16q.38-.6.27.13a3.2 3.2 0 0 1-1.5 1.95q-1.25.75-2.67.91-1.41.2-2.85-.03a7.7 7.7 0 0 1-4.77-3.2 8.1 8.1 0 0 1-1.2-6.76 7.5 7.5 0 0 1 1.97-3.3 8 8 0 0 1 3.3-1.89 9 9 0 0 1 4.58-.22 7.5 7.5 0 0 1 5.31 4.32 7.8 7.8 0 0 1 .58 5.36q-.08.3-.19.6-.1.29-.25.56c-.37.7-.77 1.05-1.1 1.23-.31.19-.59.19-.84.13q-.19-.03-.33-.09c-.3-.16-.04-.71.25-1.52a5.6 5.6 0 0 0 .31-3.56 7 7 0 0 0-1.49-3.23 5.7 5.7 0 0 0-4.96-1.84z"/>
  <path fill="#231f20" d="M312.73 74.48c.85-2.94 1.07-6.25.16-9.06a6.3 6.3 0 0 0-2.85-3.6l-.22-.13-.2-.07q-.2-.08-.49-.15-.26-.08-.55-.12-1.15-.23-2.37-.38c-2.37-.3-4.79-.4-7.2-.55-8.5-.47-17.07-.62-25.54 0a40 40 0 0 0-5.53.77q-.34.06-.65.17l-.6.2-.27.12-.2.12c-.15.06-.32.24-.46.35a7 7 0 0 0-1.46 2.03 16 16 0 0 0-1.36 6.64q0 .87.06 1.72.03.87.13 1.72.11.86.33 1.67.21.82.54 1.58c.26.65.49.9.42.95-.05.02-.39-.1-.97-.5-1.2-.78-2.8-3.17-3.06-6.2a21 21 0 0 1 .54-6.03q.28-1 .7-1.97a10 10 0 0 1 2.6-3.59c.17-.12.3-.24.5-.36l.65-.37c.36-.14.76-.3 1.09-.38.7-.2 1.33-.31 1.98-.42 2.58-.4 5.08-.54 7.6-.62q3.75-.12 7.52-.05c5.99.1 12.22.07 18.35.5q2.53.16 5.06.49 1.27.14 2.58.45c.23.07.43.1.69.2q.38.13.69.3.65.32 1.2.77a9 9 0 0 1 2.93 4.66c.48 1.74.6 3.52.5 5.27q-.2 3.24-1.43 6.27c-.43 1-.93 2-1.69 2.88l-.14.16-.21.18c-.14.1-.3.25-.43.3-.27.14-.55.3-.81.37-.55.21-1.06.33-1.6.46-3.16.67-6.3.83-9.45.99q-4.71.17-9.39.15c-4.84-.05-9.59-.12-14.38-.47q-1.57-.1-3.15-.27c-3.94-.46-5.2-.94-5.89-1.7-.16-.16-.37-.34-.44-.48-.24-.45 1.32-.38 4.13-.1 8.4.76 17.38.63 26.3.63 3.32-.08 6.66-.19 9.88-.6q1.22-.16 2.31-.42l.54-.14.48-.17c.17-.05.25-.11.38-.17.1-.07.05-.02.15-.1a10 10 0 0 0 1.94-3.9zM234.7 25.24a2.8 2.8 0 0 1-1.66 3.07 2.95 2.95 0 0 1-3.57-1.64l-.12-.4q0-.21.06-.43c.06-.28.22-.57.48-.7.16-.08.17.03.17.2-.01.17.08.38.13.52q.06.1.17.19c.06.05.05.12.1.18q.1.2.25.33c.17.18.49.36.79.5.38.2.84.07 1.13-.12.32-.16.54-.56.55-.99q0-.4-.23-.66a1 1 0 0 0-1.08-.19c-.34.14-.6.44-.85.74l-.15.2c-.21.24-.37.22-.78-.08l-.28-.2c-.3-.25-.43-.58-.28-.88q.34-.65 1-1.1a3 3 0 0 1 1.77-.53c.54.01 1.12.22 1.55.57.47.37.77.9.87 1.4h-.04zm7.17 32.33c-.18.58-.55.94-1 1.18q-.23.14-.52.2a1.6 1.6 0 0 1-1.51-.8 2 2 0 0 1-.29-.59c-.08-.24-.13-.54 0-.8.03-.07.19-.04.36.02.16.07.38.14.43.21q.16.21.31.33.1.15.17.32.07.11.16.1.07 0 .13-.02a.6.6 0 0 0 .35-.28.4.4 0 0 0 .07-.22c-.02-.08-.07-.18-.23-.16-.11.01-.2.18-.17.27l.03.04-.06-.04q-.1-.05-.41-.11l-.3-.05c-.32-.04-.59-.23-.52-.54.09-.45.44-.8.82-.94q.61-.26 1.33.04c.35.15.65.47.79.81s.16.74.1 1.04zM106.09 37.14c-.31.35-.74.6-1.15.7q-.56.14-1.1.06c-.25-.04-.52-.08-.76-.2a2.2 2.2 0 0 1-1.25-2.16c.05-.4.24-.72.48-.97.3-.32.8-.52 1.22-.35.13.06.08.14-.02.25s-.22.3-.29.4a.8.8 0 0 0-.16.58c.03.09.02.1.02.17q0 .09.03.24c.07.23.39.36.62.42a1 1 0 0 0 .65.02l.16-.05a.5.5 0 0 0 .3-.33c.1-.2-.01-.57-.17-.57-.06 0-.19.18-.13.29 0 0 .03.04 0 0l-.07-.04-.14-.05h-.03q-.12 0-.31.05-.18.03-.34.1-.3.09-.54-.02c-.16-.08-.28-.3-.28-.56q.03-.62.42-1.02a1.9 1.9 0 0 1 2.2-.45q.6.29.9.8c.53.85.42 1.99-.21 2.7zM79.98 69.3c-.28.3-.66.46-1 .5q-.55.05-.94-.15c-.2-.09-.38-.16-.53-.3a2 2 0 0 1-.56-.92 2 2 0 0 1 0-.93q.08-.39.23-.73c.12-.28.26-.58.54-.74.08-.05.2.08.32.25.1.18.2.4.16.52q-.11.34-.17.63a3 3 0 0 0-.1.54c-.02.21.17.33.35.43q.32.18.52.08.11-.04.17-.22c.05-.17 0-.4-.16-.46-.11-.05-.28.07-.34.17l-.02.07c-.02.05-.08-.03-.44-.25l-.25-.14c-.28-.14-.45-.42-.26-.71.27-.4.74-.64 1.25-.63.5-.01 1.13.3 1.43.8.43.73.38 1.58-.18 2.22zm35.82 21.9a2 2 0 0 1-.9 1.78q-.28.2-.6.28a1.9 1.9 0 0 1-1.92-.7 2 2 0 0 1-.37-.78 1.2 1.2 0 0 1 .22-1c.08-.09.16-.02.26.1.09.11.23.26.29.37.25.4.35.6.6.78.17.14.43.06.6-.02q.15-.06.23-.16a1 1 0 0 0 .13-.28.5.5 0 0 0-.03-.32c-.05-.1-.22-.19-.41-.03-.16.1-.24.35-.33.57l-.05.15c-.09.17-.21.16-.6-.01l-.28-.13c-.3-.15-.5-.38-.47-.6q.07-.5.44-.97a1.87 1.87 0 0 1 2.65-.21c.38.34.55.8.57 1.17zm7.28 40.87q.04.57-.14 1.12-.2.52-.55.9-.24.3-.53.51-.55.35-1.17.45-.65.07-1.22-.12a3 3 0 0 1-.92-.5c-.35-.28-.63-.77-.52-1.25.03-.14.18-.1.36-.02.16.1.4.17.5.24.16.17.42.21.63.35q.36.19.76.22c.33.03.68-.21.93-.45.3-.26.5-.62.51-.98q.02-.36-.13-.7c-.17-.32-.45-.57-.79-.58-.27 0-.52.2-.62.37l-.06.13c-.06.12-.14.07-.57-.06l-.3-.09c-.33-.09-.56-.36-.4-.73.47-1.05 1.86-1.46 2.98-.85.8.46 1.19 1.26 1.28 2.01h-.03zm-14.75 18.28c-.23.34-.6.64-1.08.7q-.26.05-.46.02a1.5 1.5 0 0 1-.95-.84l-.22-.42c-.08-.18-.17-.4-.03-.6.04-.07.3-.02.54.03s.51.07.53.1c.08.09.12.17.12.34.01.1.1.06.12.06l.01.04q.03.01.08-.02a.2.2 0 0 0 .1-.12q.06-.14.02-.14l-.04.05.16-.28s.01.1.03.1h-.01l-.08-.03-.27.07q-.24.11-.46.04c-.13-.05-.24-.21-.22-.4q.02-.46.38-.75c.22-.2.63-.33 1.06-.2l.1.04c.36.13.68.5.78.85.18.57.02 1.02-.18 1.38zm-51.08-34.62q.33.56.35 1.22c.01.43-.1.9-.37 1.27a2 2 0 0 1-.65.64c-.91.48-2 .28-2.63-.37q-.44-.42-.63-.94c-.17-.43-.25-.94-.02-1.37.07-.14.3-.04.54.1.22.15.49.3.53.44q.12.38.33.61c.12.18.21.3.4.43.26.15.61-.02.77-.17q.15-.12.2-.29a1 1 0 0 0-.01-.44 1 1 0 0 0-.36-.49.55.55 0 0 0-.76.1c-.17.18-.15.5-.07.66.01.04.06.07.07.1.05.08-.07.1-.52.39l-.3.2c-.32.24-.74.26-.96-.14-.3-.57-.26-1.26.03-1.8a2.36 2.36 0 0 1 4.1-.16l-.02.02zm125.63-70.99q2.17.2 4.22 1.04c1.36.54 2.64 1.38 3.68 2.47a9 9 0 0 1 1.88 2.6c.4.87.69 1.83.68 2.87 0 .5-.09 1.08-.28 1.5-.17.46-.31.9-.59 1.3a7.7 7.7 0 0 1-4.25 3.28c-1.47.52-3.01.77-4.53.79a14 14 0 0 1-2.92-.24 10 10 0 0 1-2.73-1.03c-.52-.3-.42-.3.08-.18.49.15 1.42.25 2.47.33 1.85.23 3.75.14 5.54-.3 1.75-.49 3.45-1.27 4.5-2.62l.25-.29q.1-.16.18-.33c.1-.23.27-.44.32-.7q.12-.37.21-.74.06-.33 0-.68a6 6 0 0 0-1.33-2.74 8 8 0 0 0-2.6-2.36 12 12 0 0 0-3.37-1.3q-2.26-.47-4.6-.24c-2.32.23-4.66.92-6.64 2.16a12 12 0 0 0-3.7 3.72q-.31.49-.56.99c-.75 1.2-1.04 1.58-1.67 1.7-.14.02-.3.08-.42.08q-.3 0-.4-.5c-.05-.34-.04-.83.16-1.43q.17-.66.47-1.31c.23-.41.42-.84.7-1.24.5-.8 1.14-1.55 1.83-2.24a15 15 0 0 1 2.29-1.83q1.24-.8 2.6-1.35a19 19 0 0 1 8.54-1.26v.08m-49.67 37.15a8.4 8.4 0 0 0-1.45 5.47c.08.7.32 1.36.55 2.03a11.7 11.7 0 0 0 5.03 5.91 14 14 0 0 0 5.6 1.98c.77.12 1.55.25 2.35.26.5.03.44.1.03.28-.4.18-1.2.51-2.18.6-1.73.06-3.5-.21-5.16-.8a12 12 0 0 1-4.44-2.86c-1.5-1.5-3-3.27-3.63-5.46-.73-2.39-.43-5.02.59-7.19a13 13 0 0 1 2.48-3.61 11.7 11.7 0 0 1 5.75-3.15c1.66-.38 3.38-.54 5.08-.26q.56.1 1.11.22c1.36.42 1.68.84 1.68 1.47q.01.23-.02.44c-.1.46-.74.58-1.6.38a11.8 11.8 0 0 0-7.5.58 9.3 9.3 0 0 0-4.21 3.74zm8.32 31.19a11 11 0 0 0 5.05 3.3q.55.13 1.11.24l1.14.14a15 15 0 0 0 8.14-1.28c.57-.25 1.12-.57 1.67-.87a11 11 0 0 0 3.03-2.82 9 9 0 0 0 1.27-1.98c.2-.46.28-.4.44.08.14.47.37 1.5.02 2.6q-.29.7-.7 1.3l-.43.6q-.24.28-.5.52c-.69.67-1.46 1.28-2.27 1.74l-1.2.68q-.64.3-1.28.54c-.43.19-.88.3-1.32.43q-.66.21-1.35.32c-2.16.4-4.46.73-6.72.4a14 14 0 0 1-6.77-3.08 14 14 0 0 1-2.89-3.53c-.6-1.02-.97-2.14-1.22-3.25a17 17 0 0 1-.38-3.38c-.01-1.75.11-3.53.85-5.26.2-.37.33-.76.6-1.1.43-.67.92-.97 1.27-1.1.39-.1.67-.06.94.07q.19.08.35.18.2.2.08.62-.06.21-.17.44c-.08.16-.12.38-.23.55-.65 1-.99 2.24-1.17 3.54s-.13 2.7.1 4.05c.18.99.46 1.97.87 2.81.17.4.51.84.77 1.27.27.43.63.79.94 1.19zm72.03 21.24q4.57 3.08 8.79 6.56c1.02.86 2.08 1.66 3.08 2.53 3.54 3.07 6.93 6.29 10.3 9.49q2.27 2.13 4.6 4.13c1.99 1.72 4 3.42 6.12 4.85.66.45.55.52-.2.42a7 7 0 0 1-1.47-.38 10 10 0 0 1-1.87-1 54 54 0 0 1-6.4-5.07 213 213 0 0 1-5.98-5.45c-2.35-2.24-4.97-4.34-7.53-6.42a161 161 0 0 0-8.64-6.6 87 87 0 0 0-5.6-3.63 58 58 0 0 0-9.05-4.44q-3.64-1.33-7.41-1.93c-.55-.1-1.1-.13-1.65-.22-1.03-.19-1.7-.28-2.17-.43a1.7 1.7 0 0 1-.95-.64c-.09-.13-.22-.26-.27-.38-.19-.43.71-.68 2.33-.68 4.8.19 9.71 1.68 14.25 3.78a75 75 0 0 1 9.73 5.45zm39.41 11.18q.7-1.42 1.58-2.85.21-.36.47-.72.22-.35.54-.71c.22-.25.38-.48.7-.72.16-.12.35-.29.53-.4a3 3 0 0 1 1.54-.24q.36.03.68.08.65.12 1.22.3c2.7.92 5.11 2.23 7.46 3.66q1.56.96 3.05 2.02c.62.48 1.27.93 1.79 1.54q.4.46.7.98.34.5.5 1.1c.12.5.09.42-.25.16-.38-.26-1.08-.59-1.79-1.02-.29-.22-.61-.4-.89-.64q-.42-.34-.88-.66a38 38 0 0 0-1.86-1.25 70 70 0 0 0-3.96-2.25 20 20 0 0 0-5.19-1.81c-.44-.1-.99-.12-1.06-.1-.1.01-.13.1-.3.2-.14.12-.28.32-.44.48-.57.75-1.1 1.63-1.58 2.55a75 75 0 0 0-1.73 3.45l-2.53 5.35c-.65 1.38-1.19 2.8-1.91 4.17q-.22.45-.49.9c-.31.56-.65.84-.93 1.02-.27.17-.5.2-.79.15q-.2-.03-.37-.08c-.36-.15-.31-.76.04-1.55 1.07-2.34 2.25-4.81 3.41-7.4q1.29-2.85 2.67-5.76l.06.03zm-94.2 32.94q1.11-3.88 2.39-7.68c.3-.93.57-1.87.89-2.79 1.18-3.23 2.47-6.4 3.71-9.6l1.62-4.25c.68-1.8 1.32-3.64 2.27-5.35.3-.54.26-.46.21.06s-.02 1.53-.27 2.63q-.79 2.85-1.64 5.7-.94 2.8-2.02 5.58c-.88 2.21-1.5 4.61-2.25 6.91q-1.24 3.8-2.32 7.65l-.64 2.37-.58 2.4c-.3 1.2-.52 2.42-.8 3.63a82 82 0 0 0-.62 3.65q-.17 1.43-.28 2.84l-.13 2.83q-.03.61-.03 1.24c-.17 1.54-.4 2.02-.97 2.32q-.19.12-.38.2c-.4.13-.73-.53-.85-1.7-.29-3.47.19-7.11.8-10.7.22-1.34.54-2.67.83-4q.48-1.98 1-3.94zm34.45 27.32c4.84.11 9.7.06 14.52-.35 1.76-.14 3.5-.4 5.23-.67q2.3-.34 4.49-.95l.16-.04c.05-.02.16-.01.15-.09v-.18l-.02-.1-.03-.21q-.2-1.13-.43-2.3c-.61-3.08-1.2-6.18-1.63-9.32a108 108 0 0 1-.9-8.37c-.12-1.79-.17-3.6-.05-5.4.1-1.8.35-3.61.95-5.33.43-1.06.48-.86.55.1l.14 1.97q.07 1.2.02 2.72c-.18 7.08 1.02 14.2 2.28 21.37q.29 1.6.62 3.26c.1.6.2.95.33 2 .03.45 0 .91-.38 1.13l-.25.16-.13.09-.16.05-.68.22c-2.23.69-4.5 1.1-6.74 1.41-4.94.65-9.89.85-14.84.86q-4.56 0-9.12-.24c-4.6-.22-9.22-.67-13.76-1.27-3.52-.5-7-.95-10.45-1.93q-1.13-.3-2.26-.7a10 10 0 0 1-2.84-1.55 4 4 0 0 1-.6-.68 2 2 0 0 1-.22-.65c-.02-.19-.07-.4-.04-.54.05-.24.37-.22.82-.03l.85.36c.32.17.75.32 1.2.51a45 45 0 0 0 8.95 2.37c3.15.56 6.4 1 9.65 1.34q7.28.76 14.63.92zm-4.51-140.13c-1.67 0-3.25.55-4.44 1.75-1 1-1.62 2.27-2.27 3.5-.22.45-.1 1 .33 1.26.41.24 1.03.1 1.25-.33q.44-.85.91-1.68.22-.4.49-.77l.15-.2-.04.05.09-.1a7 7 0 0 1 .61-.66l.15-.13.11-.08q-.14.11-.02.01.38-.27.8-.46c.19-.09-.13.04.06-.02l.29-.1q.22-.08.46-.12l.29-.05h-.03l.17-.02q.32-.04.65-.03c.48 0 .94-.42.91-.92a.93.93 0 0 0-.9-.91zM314.2 53.94c.1.08 0 .22-.21.4a1 1 0 0 1-.34.15l-.27-.1c-.04-.01-.47-.5-.64-.66a2 2 0 0 1-.37-.52q-.32-.56-.62-1.14l-.06-.27a2 2 0 0 0-.18-.95c-.02-.06-.02-.1-.1-.14-.14-.05-.35-.9-.32-1.03q.07-.45.18-.9c0-.04-.02-.08.06-.13.18-.1.14-.19.15-.27q0-.18.07-.37c.02-.06.12-.13.2-.2.06-.06.33-.06.36-.05.09.05.21-.01.32-.03l.12-.02c.06 0 .65.56.67.63l.39.98q.03.07-.02.17c-.02.03.29.7.29.73 0 .16.12.28 0 .47q-.03.06 0 .1c.1.24.08.52.08.79 0 .14.05.26.07.4l-.01.08v.1c.07.3.08.65.21.94.02.07 0 .47.04.54.02.05-.1.28-.06.3zm6.02 5.79c-.07.14-.24.14-.44.1-.06-.01-.18-.13-.16-.18q.02-.16.06-.28c.02-.05.43-.77.54-1.03q.18-.38.44-.68l1.01-1.27q.13-.13.28-.23.53-.33.92-.82.08-.07.1-.18c.01-.15.8-.94.94-1q.5-.25.97-.52c.05-.02.08-.08.16-.05.2.06.26-.03.36-.1q.19-.13.42-.2c.08-.04.2 0 .3 0 .11.02.26.25.26.28 0 .11.12.17.2.25l.08.09c.04.05-.3.99-.37 1.05 0 0-.24.23-.47.48l-.52.55q-.08.08-.2.11c-.04.02-.71.77-.75.8-.17.12-.29.3-.54.33q-.06 0-.1.07-.4.37-.87.66-.22.16-.43.34l-.1.05-.11.05q-.52.4-1.02.83c-.08.07-.53.29-.61.37-.06.05-.32.1-.34.14"/>
</svg>
