<svg width="380" height="380" viewBox="0 0 380 380" fill="none" xmlns="http://www.w3.org/2000/svg">
<path d="M221.961 324.462C215.728 325.726 208.983 324.352 203.327 321.582C202.133 321.004 200.974 320.358 199.855 319.646C203.159 318.791 206.432 317.914 209.75 316.979C211.036 317.775 212.754 316.686 214.449 316.445C217.445 316.007 216.853 318.93 219.857 319.142C221.318 319.244 227.566 318.301 228.735 319.339C232.009 322.269 223.569 324.126 221.961 324.462Z" fill="#12111F"/>
<path d="M215.19 317.387C214.495 317.383 213.805 317.499 213.151 317.731C212.261 318.056 211.312 318.19 210.366 318.125C210.226 318.103 210.086 318.071 209.95 318.03C209.863 318 209.778 317.966 209.694 317.928C209.65 317.928 209.65 317.928 209.577 317.928L208.386 318.227L206.018 318.834L202.569 319.755L202.131 319.842C202.006 319.842 201.692 319.894 201.926 319.989C202.036 320.076 202.167 320.157 202.306 320.252L202.416 320.317L202.693 320.471L203.38 320.836C205.2 321.791 207.103 322.579 209.066 323.189C210.815 323.71 212.612 324.053 214.43 324.212C216.74 324.365 219.06 324.294 221.357 324.001C222.088 323.927 222.088 324.337 221.518 324.826C220.631 325.532 219.538 325.932 218.405 325.966C213.367 326.17 208.363 325.06 203.885 322.744C203.22 322.4 202.555 322.064 201.897 321.699L201.166 321.297L200.37 320.829L198.864 319.886L198.484 319.645L198.294 319.521L198.199 319.462C198.199 319.462 198.111 319.419 198.199 319.411L199.04 319.155C199.595 318.98 200.143 318.812 200.771 318.651L203.497 317.92L208.255 316.7L209.606 316.357C209.682 316.328 209.76 316.311 209.84 316.306L210.06 316.422C210.228 316.51 210.286 316.525 210.366 316.561C210.508 316.61 210.656 316.637 210.805 316.642C211.554 316.587 212.291 316.43 212.997 316.174C213.515 316.02 214.046 315.915 214.583 315.86C215.194 315.781 215.815 315.885 216.366 316.159C216.858 316.458 217.288 316.851 217.63 317.314C217.901 317.674 218.23 317.988 218.602 318.242C219.182 318.575 219.852 318.716 220.517 318.644C221.248 318.644 222.03 318.556 222.797 318.512C224.345 318.374 225.901 318.357 227.452 318.461C228.628 318.425 230.506 319.645 229.827 321.384C229.498 321.993 229.007 322.498 228.409 322.846C227.888 323.175 227.34 323.461 226.772 323.701C226.283 323.913 225.8 324.11 225.311 324.278C223.425 324.87 222.782 324.863 222.293 324.549C222.178 324.487 222.07 324.413 221.971 324.329C221.723 324.044 222.439 323.65 223.74 323.211C224.702 322.889 225.646 322.513 226.568 322.086C227 321.878 227.413 321.634 227.803 321.355C228.084 321.18 228.307 320.926 228.446 320.624C228.446 320.559 228.446 320.566 228.446 320.493C228.446 320.42 228.387 320.405 228.373 320.354C228.358 320.303 228.278 320.237 228.212 320.171L228.102 320.076L228.058 320.025L228.248 319.813L228.197 319.864L228.102 319.974H228.007C227.925 319.942 227.839 319.92 227.751 319.908C227.642 319.908 227.554 319.864 227.43 319.857C226.396 319.776 225.358 319.776 224.324 319.857L221.891 320.011C221.481 320.011 221.065 320.069 220.626 320.084H219.896C219.636 320.058 219.377 320.019 219.121 319.967C218.582 319.839 218.074 319.609 217.623 319.287C217.236 318.985 216.885 318.639 216.578 318.257C216.371 317.993 216.141 317.749 215.891 317.526C215.707 317.394 215.489 317.318 215.263 317.307L215.19 317.387Z" fill="#12111F"/>
<path d="M159.832 265.715C164.984 265.839 169.837 265.145 174.28 262.39C175.347 261.733 172.818 261.981 172.321 262.281C168.952 264.371 165.35 264.736 161.477 264.648C160.907 264.648 158.554 265.686 159.832 265.715Z" fill="#12111F"/>
<path d="M204.11 262.937C207.472 264.099 211.221 263.792 214.597 262.798C216.109 262.36 215.766 260.986 214.224 261.432C211.44 262.346 208.441 262.366 205.645 261.49C204.79 261.198 202.678 262.447 204.11 262.952V262.937Z" fill="#12111F"/>
<path d="M20.125 229.235C20.8558 230.945 20.7096 232.473 21.3673 234.197C23.0846 233.466 22.9823 230.887 23.5596 229.381C22.4775 228.887 21.2452 228.835 20.125 229.235Z" fill="#12111F"/>
<path d="M19.0651 229.52C19.6862 231.128 19.7301 232.86 20.3074 234.482C20.5193 235.067 21.6739 234.628 22.0101 234.482C24.0782 233.466 23.9466 231.15 24.597 229.25C24.6847 228.994 24.3705 228.914 24.2024 228.862C23.7041 228.694 23.1934 228.565 22.6751 228.475C21.7701 228.42 20.8624 228.524 19.9932 228.782C19.7155 228.855 18.9555 229.133 19.0651 229.513C19.1747 229.893 19.9932 229.761 20.2489 229.703C21.1265 229.506 22.0431 229.577 22.8797 229.907L22.4851 229.52C22.0393 230.828 22.1343 233.225 20.7239 233.905H22.4266C21.8493 232.29 21.7982 230.551 21.1843 228.943C20.9212 228.278 18.8312 228.914 19.0651 229.52Z" fill="#12111F"/>
<path d="M113.999 331.872C113.725 332.17 113.381 332.393 112.997 332.521C112.614 332.649 112.204 332.677 111.807 332.602C109.417 332.31 107.027 331.981 104.645 331.601C102.592 331.28 100.56 330.871 98.5138 330.527C94.9988 329.935 91.4765 329.365 87.9542 328.788C86.9165 328.612 85.8788 328.43 84.8338 328.269C83.7888 328.108 82.8315 327.991 81.8377 327.852C81.6671 327.845 81.498 327.818 81.3334 327.772C81.2445 327.751 81.1643 327.703 81.1042 327.634C81.0441 327.565 81.007 327.479 80.9982 327.388C80.9893 327.297 81.0091 327.205 81.0548 327.126C81.1005 327.047 81.1698 326.984 81.253 326.946C81.3334 326.888 81.4357 326.793 81.5088 326.8C82.2834 326.91 82.9704 326.501 83.7961 326.654C85.3015 326.924 86.8288 327.041 88.3488 327.231C88.9554 327.312 89.5546 327.414 90.1538 327.531C90.8846 327.684 91.6811 327.882 92.4484 328.035C94.5384 328.452 112.26 331.294 112.727 331.397C113.195 331.499 113.392 331.667 113.999 331.872Z" fill="#12111F"/>
<path d="M101.48 322.562C101.48 321.714 101.678 321.473 101.934 321.371C102.787 321.022 103.66 320.727 104.55 320.486C105.28 320.274 106.084 320.158 106.844 319.968C107.487 319.814 108.174 319.646 108.766 319.478C109.358 319.31 109.95 319.01 110.637 318.747C111.093 318.605 111.57 318.541 112.047 318.557C112.409 318.566 112.771 318.547 113.129 318.499C113.18 318.499 113.231 318.462 113.282 318.499C113.373 318.595 113.435 318.713 113.463 318.842C113.492 318.971 113.485 319.104 113.443 319.229C113.443 319.295 113.407 319.405 113.377 319.405C113.085 319.456 112.829 319.924 112.5 319.902C111.999 319.839 111.49 319.928 111.039 320.157C110.84 320.251 110.635 320.329 110.425 320.391C110.147 320.479 109.84 320.538 109.541 320.618C109.08 320.786 107.246 321.203 105.492 321.656C103.739 322.109 102.094 322.598 102.007 322.613C101.83 322.612 101.654 322.595 101.48 322.562Z" fill="#12111F"/>
<path d="M61.6992 330.804C62.05 329.993 62.43 329.817 62.7588 329.737C63.3508 329.635 63.8915 329.364 64.6661 329.196C64.8488 329.16 65.0608 329.13 65.2215 329.116L65.7111 329.057L66.6831 328.94C67.7938 328.794 68.9265 328.699 70.0373 328.502C71.9592 328.166 73.8592 327.713 75.7373 327.201C76.2927 327.048 76.8481 326.901 77.3961 326.719C77.9442 326.536 78.4338 326.353 78.9454 326.156C79.0253 326.107 79.1153 326.077 79.2084 326.068C79.4642 326.068 79.6323 326.405 79.5592 326.719C79.5592 326.792 79.5592 326.901 79.4861 326.916C79.0842 327.069 78.9015 327.647 78.4558 327.756C77.6373 327.983 76.8627 328.348 76.0515 328.619C75.7263 328.728 75.3943 328.816 75.0577 328.882C74.6338 328.969 74.1954 329.006 73.7642 329.086C73.1796 329.196 70.4611 329.817 67.7865 330.19C67.1215 330.278 66.4638 330.351 65.8354 330.409C65.3142 330.429 64.797 330.507 64.2935 330.643C63.8868 330.768 63.4716 330.863 63.0511 330.928C62.8674 330.96 62.6819 330.982 62.4958 330.994C62.2242 330.959 61.9571 330.896 61.6992 330.804Z" fill="#12111F"/>
<path d="M113.758 319.345C113.809 320.273 113.561 320.543 113.291 320.645C112.383 321.008 111.453 321.313 110.506 321.559C109.695 321.771 108.869 321.888 108.058 322.07C106.655 322.37 105.311 322.721 103.915 323.086C103.506 323.189 103.096 323.284 102.687 323.4C102.278 323.517 101.92 323.649 101.533 323.773C101.467 323.773 101.408 323.839 101.335 323.824C101.145 323.766 101.006 323.386 101.058 323.094C101.058 323.02 101.058 322.904 101.101 322.896C101.401 322.801 101.511 322.231 101.832 322.165C102.422 321.999 103.001 321.794 103.564 321.552C103.801 321.47 104.046 321.411 104.295 321.376C104.602 321.318 104.923 321.31 105.23 321.259C105.669 321.172 107.634 320.726 109.498 320.28C111.361 319.834 113.108 319.337 113.196 319.315C113.384 319.304 113.573 319.313 113.758 319.345Z" fill="#12111F"/>
<path d="M104.625 316.511C104.873 316.511 105.115 316.262 105.356 316.145C106.21 315.717 107.092 315.343 107.994 315.027C108.772 314.795 109.566 314.617 110.369 314.494C111.056 314.362 111.743 314.245 112.452 314.172L113.036 314.128C113.195 314.118 113.355 314.131 113.511 314.165C113.665 314.165 113.774 314.326 113.906 314.406C114.027 314.517 114.139 314.636 114.242 314.764C114.315 314.932 114.366 314.991 114.417 315.1C114.507 315.288 114.581 315.484 114.637 315.685C114.835 316.54 114.805 317.432 114.549 318.272C114.549 318.338 114.505 318.403 114.476 318.469C114.447 318.535 114.41 318.666 114.417 318.55C114.425 318.433 114.417 318.462 114.417 318.455C114.394 318.16 114.315 317.872 114.183 317.607C114.055 317.059 113.805 316.547 113.453 316.109C113.343 315.955 113.19 315.787 113.146 315.707C113.15 315.696 113.153 315.685 113.153 315.674C113.153 315.663 113.15 315.651 113.146 315.641C113.146 315.641 113.146 315.641 113.146 315.605C113.146 315.568 113.146 315.605 113.051 315.605C112.685 315.605 110.778 316.058 108.929 316.299C108.001 316.423 107.088 316.503 106.386 316.533C105.685 316.562 105.202 316.533 105.151 316.533C104.976 316.517 104.801 316.51 104.625 316.511Z" fill="#12111F"/>
<path d="M117.552 330.438C117.538 330.544 117.516 330.649 117.486 330.752C117.421 330.854 117.347 330.957 117.26 331.074C117.044 331.271 116.797 331.431 116.529 331.549C115.956 331.794 115.346 331.943 114.724 331.987C113.463 332.065 112.197 331.974 110.961 331.717C109.916 331.512 108.951 331.322 107.913 331.183L104.844 330.723L98.7055 329.773L86.4359 327.836C82.8844 327.281 79.4059 326.426 75.9348 325.644C74.1955 325.228 72.449 324.818 70.7171 324.336C68.9851 323.854 67.2678 323.393 65.5359 322.809C65.1559 322.677 64.7686 322.538 64.374 322.363C64.0413 322.241 63.7359 322.055 63.4751 321.815C63.3525 321.7 63.264 321.553 63.2194 321.391C63.2194 321.223 63.1828 321.069 63.2194 320.894L63.424 319.593C63.4824 319.228 63.5482 318.863 63.6432 318.475C63.7324 318.071 63.8621 317.677 64.0305 317.299C64.2261 316.829 64.541 316.418 64.944 316.108C65.0611 316.015 65.1917 315.941 65.3313 315.888C65.4624 315.818 65.6068 315.776 65.7551 315.764L66.1717 315.713H66.4786C66.8951 315.713 67.2605 315.764 67.6259 315.801C68.3567 315.881 69.0874 315.991 69.8182 316.1C72.6755 316.553 75.4963 317.109 78.3097 317.664L95.1978 321.004L100.532 322.063L105.852 323.189C109.258 323.919 112.634 324.65 116.032 325.432L116.712 325.586L116.887 325.622L117.179 325.739C117.282 325.769 117.381 325.814 117.472 325.871L117.545 325.914C117.603 325.871 117.596 325.914 117.625 325.914L117.749 326.024C117.9 326.207 118.028 326.409 118.129 326.623C118.531 327.573 118.334 328.18 118.188 328.326C118.042 328.472 117.844 328.253 117.574 327.749C117.442 327.515 117.238 327.31 117.114 327.098C117.071 327.021 117.022 326.948 116.967 326.879C116.902 326.748 116.734 326.777 116.624 326.733L116.178 326.653C115.871 326.594 115.579 326.55 115.279 326.514C114.687 326.433 114.103 326.367 113.511 326.302C112.268 326.184 111.033 325.991 109.813 325.724C104.698 324.511 99.5459 323.62 94.3867 322.677C92.3259 322.297 90.2651 321.888 88.219 321.457L80.3413 319.761C79.4059 319.564 77.5497 319.177 74.4951 318.578C72.9532 318.285 71.0897 317.927 68.8901 317.591C68.3421 317.518 67.7647 317.43 67.1874 317.379C66.8878 317.343 66.6174 317.342 66.3324 317.328C66.2155 317.328 66.1717 317.328 66.084 317.328H66.0036L65.9232 317.386C65.5874 317.775 65.3694 318.252 65.2947 318.76C65.2144 319.074 65.1559 319.403 65.0974 319.754C65.039 320.105 65.0097 320.339 64.9586 320.638C64.9586 320.638 64.9586 320.682 64.9586 320.711C64.9748 320.73 64.9947 320.745 65.0171 320.755H65.0901L65.419 320.894C65.8867 321.077 66.3982 321.245 66.8805 321.413C67.9401 321.749 69.0728 322.071 70.2421 322.385C72.5951 323.043 75.1382 323.627 77.7909 324.234C80.4436 324.84 83.1621 325.454 85.8732 325.922L93.9774 327.244L107.555 329.437C108.454 329.59 109.243 329.693 109.989 329.853L111.808 330.306C112.846 330.504 113.482 330.577 113.621 330.599C114.249 330.686 114.87 330.789 115.564 330.825C115.922 330.858 116.281 330.858 116.639 330.825C116.976 330.796 117.296 330.66 117.552 330.438Z" fill="#12111F"/>
<path d="M60.3477 327.969C60.3758 327.686 60.4655 327.411 60.6107 327.166C61.2213 326.392 61.998 325.765 62.8834 325.331C63.61 324.983 64.3687 324.707 65.1488 324.506C66.4627 324.117 67.8112 323.858 69.1754 323.731C69.5773 323.731 69.9865 323.687 70.3957 323.673C70.7876 323.651 71.1804 323.651 71.5723 323.673H71.7696C71.945 323.673 71.9815 323.673 71.8646 323.673H71.7769C71.5012 323.77 71.2405 323.905 71.0023 324.074C70.4542 324.286 69.928 324.586 69.4019 324.842C69.1932 324.943 68.9755 325.023 68.7515 325.083C68.4665 325.171 68.1742 325.2 67.8892 325.258L63.9796 326.347C63.1173 326.581 62.2842 326.808 61.6777 327.019C61.3213 327.127 60.9818 327.285 60.6692 327.487C60.5042 327.601 60.3891 327.773 60.3477 327.969Z" fill="#12111F"/>
<path d="M85.3585 326.258C85.2267 326.581 85.0133 326.863 84.7391 327.079C84.4649 327.294 84.1395 327.434 83.7947 327.486C81.9401 327.873 80.108 328.36 78.3066 328.947C77.5101 329.181 76.6916 329.393 75.8585 329.576L73.4032 330.073C70.6262 330.672 67.8347 331.366 64.9701 331.826C64.5462 331.899 64.1224 331.958 63.6985 332.009C63.2133 332.07 62.7223 332.07 62.237 332.009C61.6942 331.929 61.1864 331.693 60.7755 331.329C60.3969 330.976 60.0958 330.548 59.8912 330.073C59.8126 329.945 59.7581 329.803 59.7305 329.656C59.7305 329.269 60.052 329.071 60.4612 329.218C60.5416 329.218 60.6659 329.269 60.6951 329.327C60.9289 329.919 61.6085 330.109 61.9009 330.336C62.0886 330.462 62.3005 330.548 62.5231 330.588C62.7457 330.628 62.9743 330.622 63.1943 330.569C63.4428 330.533 63.7351 330.474 64.0347 330.409L64.9189 330.219C65.3939 330.124 65.8689 330.043 66.3805 329.97C66.9943 329.883 67.6155 329.831 68.2293 329.722C68.6459 329.656 69.8297 329.408 71.3862 329.057L73.9512 328.487C74.8793 328.297 75.7855 328.099 76.7135 327.844C78.5478 327.339 80.3674 326.777 81.8289 326.484C82.6659 326.291 83.5158 326.159 84.372 326.09C84.7047 326.12 85.0346 326.176 85.3585 326.258Z" fill="#12111F"/>
<path d="M98.2872 296.56C96.9877 296.277 95.8439 295.512 95.0864 294.419C92.2718 291.049 90.1487 287.158 88.8383 282.967L88.7652 282.697C88.7652 282.697 88.8164 282.617 88.6191 282.88L87.8006 283.991C86.7191 285.452 85.5352 286.972 84.3733 288.375C82.4159 290.809 80.6841 293.417 79.1995 296.165C77.6954 298.877 76.567 301.78 75.8452 304.796C75.4348 306.545 75.309 308.348 75.4725 310.137C75.6468 311.837 76.1141 313.494 76.8537 315.034C76.9903 315.271 77.1147 315.515 77.2264 315.764C77.4822 316.437 77.2264 316.809 76.7002 316.495C76.561 316.435 76.4382 316.342 76.3422 316.225C75.6918 315.004 74.7929 314.113 74.4348 312.615C73.7898 309.854 73.7574 306.986 74.3398 304.211C74.4714 303.67 74.5956 303.122 74.7491 302.581C74.9025 302.041 75.0925 301.522 75.2825 300.996C75.8009 299.679 76.3888 298.391 77.0437 297.137C78.1276 294.963 79.3632 292.868 80.7414 290.867C81.7352 289.406 82.9337 287.776 84.2783 286.197C84.9116 285.403 85.5425 284.573 86.171 283.706L88.4729 280.549L89.3352 279.401L89.4375 279.262L89.496 279.189C89.496 279.189 89.496 279.124 89.5398 279.189L89.6129 279.526L89.7737 280.212L90.0806 281.608C90.1318 281.857 90.1975 282.069 90.256 282.302L90.3583 282.69C90.6366 283.641 90.9684 284.575 91.3522 285.489C92.0425 287.109 92.8586 288.673 93.7929 290.166C94.7622 291.699 95.8162 293.178 96.9498 294.594C97.3225 295.113 97.666 295.69 98.2872 296.56Z" fill="#12111F"/>
<path d="M98.8856 322.883C98.8514 322.551 98.9003 322.215 99.0279 321.907C99.1554 321.598 99.3576 321.326 99.6163 321.115C100.981 319.991 102.175 318.674 103.161 317.205C104.036 315.978 104.705 314.615 105.141 313.171C105.494 311.949 105.581 310.666 105.397 309.408C105.171 308.138 104.728 306.917 104.089 305.798C103.722 305.109 103.306 304.448 102.846 303.817C102.401 303.211 101.911 302.634 101.385 302.056C101.287 301.975 101.205 301.876 101.144 301.764C101.117 301.687 101.111 301.604 101.125 301.524C101.139 301.444 101.173 301.368 101.224 301.305C101.275 301.241 101.341 301.192 101.417 301.161C101.492 301.13 101.574 301.119 101.655 301.128C101.736 301.128 101.867 301.128 101.904 301.128C102.306 301.581 103.007 301.632 103.365 302.159C104.096 303.131 104.863 304.051 105.492 305.118C105.751 305.543 105.967 305.994 106.135 306.463C106.349 307.067 106.515 307.688 106.632 308.319C106.877 309.409 106.944 310.532 106.829 311.644C106.617 313.489 106.025 315.271 105.09 316.876C104.221 318.398 103.124 319.778 101.838 320.969C101.234 321.544 100.575 322.061 99.8721 322.51C99.5578 322.67 99.227 322.795 98.8856 322.883Z" fill="#12111F"/>
<path d="M92.5291 319.902C93.2246 319.265 93.7304 318.448 93.9907 317.542C94.8018 314.735 92.8068 311.695 91.338 309.167C90.9726 308.524 86.9534 302.627 87.443 301.998C80.6395 310.928 84.5638 317.103 85.7622 318.616L92.5291 319.902Z" fill="#12111F"/>
<path d="M92.5599 319.929C93.1651 319.235 93.5538 318.379 93.6779 317.467C93.8336 315.949 93.462 314.424 92.6256 313.148C92.2529 312.476 91.8218 311.811 91.376 311.153L90.6964 310.144C90.4552 309.786 90.2726 309.523 90.0241 309.18C89.2056 308.04 88.4164 306.863 87.6856 305.628L87.4152 305.161L87.2837 304.927V304.868V304.773C87.2837 304.773 87.2837 304.693 87.2837 304.649C87.2837 304.605 87.2837 304.649 87.2326 304.686C87.1886 304.743 87.1495 304.804 87.1156 304.868C86.814 305.339 86.5407 305.827 86.2972 306.33L85.9245 307.061C85.8149 307.316 85.7272 307.579 85.6249 307.835C85.4217 308.352 85.2532 308.882 85.1206 309.421C84.5577 311.557 84.6391 313.813 85.3545 315.903C85.5687 316.522 85.8428 317.12 86.1729 317.686C86.246 317.832 86.3629 318 86.341 317.971C86.341 317.971 86.341 317.971 86.4579 317.971L87.4956 318.241C88.8183 318.592 90.1337 318.972 91.4418 319.374L92.0995 319.586C92.6476 319.805 92.7791 319.842 92.3552 319.791L92.041 319.747L89.0668 319.25L86.0049 318.687C85.9334 318.677 85.8626 318.662 85.7929 318.643C85.7431 318.59 85.6967 318.534 85.6541 318.475C85.5737 318.366 85.4933 318.271 85.4202 318.161C85.3472 318.051 85.1279 317.73 84.9964 317.503C84.7325 317.054 84.5029 316.585 84.3095 316.1C83.9904 315.326 83.7671 314.517 83.6445 313.689C83.4814 312.636 83.4642 311.567 83.5933 310.51C83.834 308.684 84.3956 306.915 85.2522 305.285C85.5664 304.686 85.9245 304.094 86.3556 303.392L87.0864 302.391L87.4518 301.872L87.5395 301.748V301.689V301.733C87.5395 301.733 87.5395 301.733 87.6052 301.733C87.671 301.733 87.6637 301.587 87.6564 301.843V302.34C87.7002 302.457 87.7295 302.581 87.7733 302.683C87.8172 302.786 87.9487 303.093 88.0437 303.29C88.2337 303.677 88.4676 304.101 88.6576 304.437C89.0522 305.168 89.476 305.833 89.9072 306.52L91.2006 308.559C91.6318 309.231 92.0045 309.903 92.3918 310.554C93.1036 311.732 93.6727 312.99 94.0872 314.303C94.3722 315.251 94.4199 316.255 94.226 317.226C94.1372 317.644 93.9896 318.047 93.7875 318.424C93.4728 318.996 93.0568 319.506 92.5599 319.929Z" fill="#12111F"/>
<path d="M68.2383 319.821C68.5363 319.568 68.8941 319.395 69.2776 319.318C69.6612 319.241 70.058 319.264 70.4306 319.383C72.6667 319.924 74.881 320.516 77.0879 321.137C78.9879 321.67 80.866 322.269 82.766 322.774C86.0313 323.618 89.3455 324.26 92.6898 324.696L95.6714 325.134L98.5433 325.521C98.7041 325.535 98.8632 325.565 99.0183 325.609C99.0945 325.631 99.1626 325.675 99.2135 325.735C99.2644 325.796 99.2958 325.871 99.3037 325.95C99.3116 326.028 99.2955 326.108 99.2577 326.177C99.2198 326.247 99.1619 326.304 99.0914 326.34C99.0183 326.391 98.9233 326.479 98.8502 326.464C98.1194 326.347 97.4544 326.72 96.6579 326.581C95.1964 326.333 93.7787 326.252 92.3317 326.084C91.7471 326.021 91.1698 325.933 90.5998 325.821C89.8691 325.682 89.1383 325.507 88.4075 325.353C87.9106 325.244 86.471 324.995 84.6075 324.564C82.7441 324.133 80.4787 323.512 78.2644 322.883L69.4221 320.377C69.086 320.26 68.7644 320.077 68.2383 319.821Z" fill="#12111F"/>
<path d="M116.317 327.509C116.244 327.509 116.252 327.67 116.222 327.736C116.151 327.975 116.099 328.219 116.069 328.467C116.032 328.6 115.988 328.732 115.937 328.861C115.926 328.953 115.926 329.047 115.937 329.139C115.937 329.256 115.937 329.409 116.003 329.577C116.069 329.745 116.003 329.789 116.047 329.906C116.058 330.028 116.058 330.15 116.047 330.272V330.308C116.047 330.374 116.047 330.374 116.047 330.352C116.003 330.293 115.879 330.301 115.784 330.264C115.689 330.228 115.433 330.118 115.258 330.016C115.192 329.976 115.137 329.921 115.097 329.855C115.049 329.765 115.012 329.669 114.987 329.57C114.909 329.392 114.862 329.201 114.849 329.007C114.837 328.674 114.94 328.346 115.141 328.079C115.308 327.862 115.53 327.693 115.784 327.59C115.906 327.545 116.034 327.516 116.164 327.502C116.215 327.507 116.266 327.51 116.317 327.509Z" fill="#12111F"/>
<path d="M70.0938 324.461C70.6126 323.73 70.9049 323.62 71.1388 323.686C71.9207 323.876 72.688 324.095 73.448 324.337C74.0984 324.541 74.7268 324.819 75.3772 325.009C76.5021 325.336 77.6438 325.601 78.7972 325.805C79.1407 325.864 79.4768 325.937 79.8203 325.974C80.1638 326.01 80.4853 326.017 80.8141 326.032C80.8726 326.032 80.9384 326.032 80.9822 326.032C81.0261 326.032 81.0991 326.551 80.9822 326.836C80.9457 326.902 80.9091 327.011 80.8799 327.004C80.6168 327.004 80.3464 327.479 80.0688 327.428C79.5447 327.369 79.0177 327.34 78.4903 327.34C78.2816 327.327 78.0754 327.287 77.8764 327.223C77.6207 327.143 77.3722 327.026 77.1457 326.945C76.9191 326.865 75.1214 326.441 73.5649 325.93C72.0084 325.418 70.5541 324.863 70.4884 324.826C70.3386 324.726 70.2055 324.602 70.0938 324.461Z" fill="#12111F"/>
<path d="M100.297 322.664C99.9829 321.809 100.027 321.568 100.158 321.451L101.43 320.252C101.803 319.916 102.219 319.617 102.577 319.258C103.189 318.633 103.758 317.966 104.28 317.263C104.433 317.052 104.594 316.854 104.733 316.635C104.872 316.416 104.967 316.197 105.076 315.977C105.076 315.941 105.076 315.882 105.142 315.875C105.426 315.9 105.689 316.037 105.873 316.255C105.924 316.306 106.004 316.379 105.997 316.401C105.902 316.577 106.253 317 106.114 317.132C105.902 317.479 105.714 317.841 105.551 318.213C105.471 318.352 105.373 318.48 105.259 318.593C105.113 318.74 104.93 318.857 104.777 318.995C104.623 319.134 103.724 320.201 102.782 321.056C102.159 321.646 101.481 322.174 100.758 322.635C100.607 322.669 100.451 322.679 100.297 322.664Z" fill="#12111F"/>
<path d="M34.8516 239.136C37.3508 238.581 39.9669 239.1 42.4223 239.808C50.7385 242.166 59.0449 244.583 67.3416 247.058C74.4739 249.184 81.5696 251.442 88.7019 253.598C100.959 257.305 113.219 260.998 125.482 264.676C129.135 265.765 132.723 266.869 136.348 267.95C139.819 268.981 143.305 269.975 146.783 270.983C147.368 271.158 147.997 271.297 148.53 271.509C149.992 272.094 150.152 272.73 148.939 272.81C148.651 272.857 148.358 272.857 148.07 272.81C145.373 272.021 143.027 272.079 140.192 271.195C134.96 269.58 129.647 268.184 124.378 266.672C122.273 266.072 120.169 265.429 118.079 264.771C115.404 263.931 112.752 263.032 110.04 262.185C102.733 259.883 41.0193 241.394 39.4043 240.868C38.1327 240.422 36.8831 239.911 34.8516 239.136Z" fill="#12111F"/>
<path d="M171.437 167.952C168.711 163.421 166.65 157.721 164.86 152.051C158.751 133.051 152.819 113.997 147.066 94.8899L145.085 88.2253L145.049 88.2837L144.084 90.286C143.353 91.901 142.433 93.3699 141.592 94.9045C140.752 96.4391 139.911 97.9737 138.998 99.4572L136.25 103.9C134.453 106.889 132.479 109.746 130.587 112.669C128.694 115.593 126.684 118.421 124.741 121.3C116.329 133.46 107.56 145.357 98.6595 157.151C89.7587 168.946 80.6168 180.594 71.4602 192.192C66.0525 199.042 60.6107 205.862 55.1348 212.653L39.4598 232.194C38.5756 233.283 37.6768 234.46 36.7998 235.453C34.4395 238.128 33.4894 238.42 34.8341 236.126C35.1345 235.556 35.4765 235.009 35.8571 234.489C39.9348 229.461 42.646 224.989 46.9648 219.705C54.9302 209.913 62.7129 199.974 70.481 189.97C73.5941 185.995 76.7291 182.012 79.8495 178.037C83.8468 172.965 87.8879 167.923 91.8195 162.808C94.6402 159.11 103.051 148.243 113.319 134.052L121.284 122.834L125.384 116.857C126.114 115.841 126.787 114.84 127.466 113.802C128.146 112.764 128.826 111.734 129.505 110.689C130.857 108.592 132.282 106.524 133.59 104.375L137.544 97.9372L141.198 91.3603C141.519 90.8195 141.782 90.2568 142.045 89.7014L142.849 88.028L145.524 82.4668L150.354 98.7337C151.721 103.25 153.043 107.642 154.315 111.888C156.902 120.291 159.262 127.964 161.272 134.541L168.338 157.122C169.252 160.133 170.063 163.144 171.437 167.952Z" fill="#12111F"/>
<path d="M348.168 219.23C346.838 221.35 344.711 222.789 342.512 224.039L320.472 236.572L301.406 247.204C290.513 253.357 279.639 259.552 268.784 265.788L259.16 271.298L250.004 276.676C249.506 277.001 248.991 277.298 248.462 277.568C247.08 278.204 246.503 277.904 247.263 276.99C247.423 276.755 247.621 276.548 247.848 276.377C250.215 274.988 251.757 273.278 254.279 271.853C258.941 269.222 263.501 266.394 268.112 263.661C269.963 262.57 271.827 261.508 273.702 260.475L280.915 256.544L314.231 237.69C328.941 229.388 343.104 221.613 343.842 221.211C345.011 220.597 346.239 220.085 348.168 219.23Z" fill="#12111F"/>
<path d="M145.473 84.0371C151.268 83.0725 157.991 83.0213 164.633 83.109C186.841 83.3648 209.093 83.036 231.243 81.4794C240.743 80.7486 250.28 79.901 259.699 78.4613C264.41 77.7549 269.087 76.878 273.73 75.8306C278.343 74.7745 282.867 73.3649 287.264 71.614L291.371 69.7871L292.218 73.9671L292.832 76.8902L294.111 82.7363C294.988 86.6338 295.894 90.5044 296.83 94.3483C298.686 102.09 300.678 109.785 302.807 117.433C307.046 132.779 311.745 147.965 317.174 162.902C320.492 172.029 324.036 181.069 328.048 189.896C331.839 198.357 336.147 206.576 340.946 214.509L342.188 216.526C342.605 217.183 343.043 217.826 343.416 218.455C345.47 221.824 345.528 222.913 343.584 220.698C343.086 220.18 342.625 219.628 342.203 219.047C338.293 212.981 334.844 208.283 331.38 201.443C325.111 188.771 319.546 175.763 314.711 162.478C312.746 157.18 310.955 151.801 309.216 146.401C307.024 139.517 305.021 132.597 303.056 125.654C302.325 123.024 300.79 117.689 298.481 108.92C297.327 104.535 295.996 99.281 294.513 93.0694C293.768 89.9661 292.988 86.6143 292.175 83.014L290.947 77.4602C290.62 75.8963 290.279 74.2789 289.924 72.6079L289.113 72.9733C288.455 73.251 287.805 73.5798 287.125 73.8283C285.751 74.3179 284.363 74.8806 282.901 75.3483C281.44 75.816 279.978 76.2837 278.421 76.6856C276.865 77.0875 275.316 77.526 273.708 77.8767C267.285 79.3383 260.357 80.5148 253.246 81.4356C238.967 83.2479 223.862 84.1613 210.021 84.651C182.318 85.579 159.65 84.819 158.071 84.7971C154.512 84.6583 151.041 84.4171 145.473 84.0371Z" fill="#12111F"/>
<path d="M280.77 47.916C283.218 50.6418 285.008 54.2956 286.616 57.9714C291.921 70.2678 297.224 82.5715 302.525 94.8826C307.092 105.471 311.55 116.075 316.168 126.671C324.082 144.838 332.15 162.961 340.539 180.916L344.273 188.867L348.117 196.752C349.323 199.28 350.638 201.75 351.932 204.235L353.868 207.954C354.504 209.204 355.228 210.395 355.9 211.608C356.368 212.419 356.886 213.26 357.266 214.056C358.311 216.198 358.114 216.979 356.901 215.642C356.584 215.341 356.303 215.005 356.061 214.641C354.994 212.741 353.868 211.126 352.75 209.467C351.632 207.808 350.616 206.062 349.579 204.008C347.62 200.23 345.771 196.408 343.857 192.608C341.942 188.808 340.101 184.979 338.252 181.15C336.79 178.095 335.329 174.997 333.962 171.898L328.715 159.972C326.296 154.557 314.918 129.046 304.359 104.434C293.799 79.8214 283.861 56.2029 283.378 55.0045C282.589 53.0606 281.917 51.0729 280.77 47.916Z" fill="#12111F"/>
<path d="M291.093 71.6515C290.413 70.5554 290.545 70.0073 290.83 69.5908C291.787 68.2169 292.795 66.8723 293.862 65.5862C294.776 64.4754 295.799 63.4596 296.749 62.3781L301.66 56.8388C302.149 56.2908 302.646 55.7646 303.121 55.2092C303.596 54.6538 303.983 54.1204 304.378 53.5869C304.451 53.4919 304.473 53.3823 304.575 53.3312C304.838 53.2142 305.306 53.47 305.533 53.8792C305.576 53.9742 305.664 54.1131 305.635 54.1569C305.313 54.6027 305.569 55.3919 305.175 55.8158C304.444 56.5977 303.888 57.5185 303.238 58.3515C302.98 58.6867 302.699 59.0041 302.398 59.3015C302.01 59.6742 301.579 60.0323 301.199 60.3977C300.673 60.9165 298.364 63.5035 296.208 66.0246C294.052 68.5458 292.065 71.0085 291.955 71.14C291.686 71.3406 291.397 71.5121 291.093 71.6515Z" fill="#12111F"/>
<path d="M218.887 217.943C220.495 218.602 221.818 219.808 222.621 221.349C225.583 226.128 228.506 230.929 231.39 235.752L238.742 248.256C243.019 255.388 247.355 262.481 251.749 269.536C253.05 271.618 254.344 273.708 255.674 275.769C257.004 277.83 258.261 279.693 259.576 281.615C259.812 281.929 260.027 282.259 260.219 282.602C260.657 283.515 260.321 284.012 259.576 283.618C259.408 283.53 259.174 283.457 259.072 283.303C258.056 281.791 256.667 280.958 255.644 279.321C253.752 276.295 251.691 273.38 249.74 270.391C248.965 269.2 248.205 267.986 247.482 266.737C246.576 265.158 245.669 263.573 244.756 261.994L231.653 240.239C225.902 230.6 220.458 221.334 220.195 220.845C219.786 220.063 219.471 219.23 218.887 217.943Z" fill="#12111F"/>
<path d="M128.16 57.1085C128.188 57.0511 128.234 57.0048 128.292 56.9769C128.35 56.9769 128.357 56.9258 128.431 56.9258C128.577 56.9345 128.72 56.9691 128.854 57.0281C129.16 57.1535 129.451 57.3102 129.724 57.4958C130.286 57.8776 130.805 58.3186 131.273 58.8112C132.225 59.8282 133.076 60.9343 133.816 62.1142C138.837 69.8531 143.411 77.8331 147.957 85.835C151.844 92.7262 155.571 99.7196 159.364 106.647C165.882 118.564 172.364 130.514 178.81 142.499L184.517 153.124L190.064 163.245C190.371 163.815 190.736 164.393 190.977 164.948C191.635 166.461 191.328 167.06 190.4 166.183C190.154 165.999 189.939 165.777 189.764 165.525C188.302 162.909 186.585 161.141 185.116 158.357C182.398 153.241 179.482 148.177 176.654 143.083C175.529 141.045 174.418 138.991 173.344 136.923L169.244 129.002C167.344 125.399 158.282 108.54 149.338 92.5289C144.88 84.4904 140.452 76.7077 137.01 70.8689C133.568 65.03 131.061 61.1715 130.806 60.8062L129.622 58.9062C129.402 58.57 129.169 58.1754 128.891 57.8392C128.752 57.6639 128.613 57.4812 128.467 57.3204C128.321 57.1596 128.314 57.1669 128.277 57.1304C128.263 57.114 128.244 57.1029 128.222 57.0989C128.201 57.0949 128.179 57.0983 128.16 57.1085Z" fill="#12111F"/>
<path d="M165.446 60.207C164.49 62.2624 163.338 64.2203 162.004 66.0532C160.66 67.9751 159.154 69.8605 157.62 71.702L126.789 108.701C117.924 119.297 108.943 129.813 100.02 140.365C84.6743 158.527 69.238 176.611 53.7116 194.617C49.1224 199.937 44.46 205.199 39.827 210.482L33.1404 218.046L29.7935 221.824L26.3954 225.566C25.6647 226.399 24.8681 227.312 24.1081 228.057C22.062 230.089 21.185 230.206 22.347 228.364C22.5915 227.905 22.8777 227.47 23.202 227.064C26.7097 223.205 29.0043 219.683 32.702 215.576C34.4022 213.691 36.0927 211.795 37.7735 209.891L42.7647 204.117L52.6885 192.52L60.6539 183.276L70.9285 171.547C75.6054 166.198 97.2362 140.701 117.866 116.125C138.495 91.5497 158.212 68.0482 159.308 66.8863C160.952 64.9643 162.713 63.1593 165.446 60.207Z" fill="#12111F"/>
<path d="M356.461 216.352C357.192 218.054 357.046 219.582 357.703 221.314C359.421 220.583 359.318 218.003 359.896 216.491C358.811 216.004 357.581 215.954 356.461 216.352Z" fill="#12111F"/>
<path d="M355.401 216.636C356.015 218.236 356.066 219.975 356.644 221.598C356.841 222.153 357.747 222.029 358.105 221.832C360.334 220.735 360.202 218.448 360.904 216.387C360.999 216.117 360.677 215.905 360.473 215.854C359.955 215.678 359.425 215.539 358.887 215.437C358 215.381 357.11 215.48 356.256 215.73C355.891 215.817 355.233 216.161 355.365 216.636C355.496 217.111 356.242 217.06 356.585 216.972C357.456 216.76 358.37 216.816 359.209 217.133L358.77 216.599C358.39 217.732 358.441 220.187 357.221 220.787L358.726 221.028C358.149 219.405 358.098 217.673 357.477 216.066C357.192 215.225 355.094 215.839 355.401 216.636Z" fill="#12111F"/>
<path d="M259.043 283.114C259.774 284.824 259.628 286.351 260.293 288.075C262.003 287.345 261.908 284.765 262.485 283.26C261.571 283.048 261.14 282.558 259.043 283.114Z" fill="#12111F"/>
<path d="M257.962 283.399C258.583 285.007 258.634 286.746 259.212 288.361C259.424 288.968 260.264 288.946 260.739 288.712C262.931 287.638 262.77 285.38 263.45 283.385C263.486 283.304 263.504 283.216 263.502 283.128C263.501 283.039 263.48 282.952 263.442 282.872C263.404 282.792 263.349 282.722 263.281 282.665C263.213 282.609 263.134 282.567 263.048 282.544C262.529 282.367 262 282.223 261.462 282.113C260.574 282.035 259.678 282.126 258.824 282.384C257.509 282.712 257.904 284.174 259.219 283.845C260.081 283.625 260.99 283.668 261.828 283.969L261.426 283.129C261.017 284.327 261.068 286.783 259.796 287.44L261.324 287.791C260.754 286.169 260.702 284.43 260.081 282.829C259.73 281.872 257.626 282.471 257.962 283.399Z" fill="#12111F"/>
<path d="M156.324 246.54C156.185 246.364 156.324 246.167 156.587 245.948C156.721 245.866 156.879 245.835 157.033 245.86C157.143 245.941 157.244 246.034 157.333 246.138C157.384 246.196 157.793 247.241 157.947 247.599C158.085 247.938 158.195 248.288 158.275 248.644L158.831 250.8C158.872 250.961 158.899 251.125 158.911 251.29C158.963 251.856 159.076 252.414 159.247 252.956C159.261 253.052 159.298 253.142 159.357 253.219C159.578 253.809 159.742 254.418 159.847 255.039C159.847 255.543 159.942 256.032 159.993 256.5C160.015 256.572 160.015 256.648 159.993 256.719C159.938 256.87 159.938 257.036 159.993 257.187C160.037 257.396 160.064 257.609 160.073 257.823C160.066 257.94 160.041 258.056 160 258.166C160 258.276 159.774 258.276 159.744 258.247C159.715 258.217 159.591 258.247 159.518 258.298H159.43C159.151 257.911 158.906 257.5 158.699 257.07C158.699 257.07 158.56 256.624 158.414 256.171L158.078 255.148C158.049 255.046 158.034 254.94 158.034 254.834C158.034 254.783 157.574 253.424 157.559 253.372C157.466 253.09 157.419 252.793 157.42 252.496C157.432 252.438 157.432 252.378 157.42 252.32C157.289 251.839 157.182 251.351 157.099 250.859C157.048 250.603 156.967 250.354 156.909 250.128C156.905 250.079 156.905 250.03 156.909 249.982C156.916 249.923 156.916 249.865 156.909 249.806C156.741 249.214 156.653 248.601 156.449 248.023C156.405 247.884 156.375 247.197 156.317 247.044C156.259 246.891 156.383 246.613 156.324 246.54Z" fill="#12111F"/>
<path d="M66.7109 245.231C67.8582 241.387 70.2844 237.733 72.8421 234.233C81.397 222.54 89.8203 210.755 98.1121 198.878C105.23 188.647 112.333 178.416 119.107 167.952C121.935 163.611 124.683 159.226 127.409 154.798L131.442 148.17L137.055 138.67L139.006 150.099L140.467 158.291L143.391 174.66C144.531 180.894 145.671 187.127 146.884 193.346C148.046 199.302 149.273 205.243 150.537 211.184C150.749 212.178 151.012 213.223 151.144 214.173C151.509 216.745 150.998 217.461 150.15 215.686C149.914 215.273 149.727 214.834 149.595 214.378C148.623 209.774 147.081 206.259 146.153 201.37C144.436 192.352 142.499 183.349 140.774 174.331C140.08 170.721 139.43 167.09 138.816 163.472C138.027 158.832 137.354 154.199 136.565 149.588C136.492 149.171 136.397 148.586 135.834 145.356L135.286 146.248C134.439 147.71 133.474 149.339 132.363 151.173C131.252 153.008 130.003 155.032 128.666 157.21C127.328 159.387 125.845 161.696 124.317 164.137C118.135 173.856 110.521 185.33 102.928 196.247C87.779 218.126 72.8275 237.901 71.9944 238.953C70.5621 240.744 69.0567 242.446 66.7109 245.231Z" fill="#12111F"/>
<path d="M140.043 263.719C131.376 261.235 123.499 257.457 114.729 255.038C105.96 252.619 96.4601 251.457 88.0782 248.205C87.077 247.825 83.8105 245.867 82.707 246.203L98.1993 247.723C110.944 252.334 123.886 256.251 136.93 259.978L140.043 263.719Z" fill="#12111F"/>
<path d="M140.167 263.28C137.756 263.522 135.147 262.842 132.669 261.98C128.511 260.518 124.434 258.962 120.297 257.595C116.176 256.192 111.974 255.04 107.714 254.146C104.06 253.342 100.34 252.589 96.6644 251.654C94.8229 251.186 93.0106 250.682 91.1763 250.09C90.2702 249.79 89.364 249.491 88.4725 249.147L87.7929 248.892C87.5298 248.789 87.3179 248.68 87.0621 248.57L85.7979 247.942C85.2571 247.678 84.7237 247.43 84.1902 247.211C83.9401 247.111 83.6838 247.028 83.4229 246.962C83.3124 246.935 83.2001 246.915 83.0867 246.904H82.926C82.926 246.904 82.926 246.904 82.926 246.86L82.7944 245.398L98.3817 246.933L103.102 248.607L107.758 250.192C110.866 251.23 113.984 252.241 117.111 253.225C120.765 254.372 124.419 255.498 128.073 256.572L132.589 257.865L137.354 259.21L138.545 260.628C138.947 261.103 139.385 261.578 139.729 262.053C140.649 263.324 140.569 263.858 139.604 263.163C139.358 263.013 139.129 262.834 138.925 262.63C138.545 262.17 138.194 261.746 137.77 261.337L137.193 260.737C137.01 260.555 136.762 260.306 136.681 260.24H136.506L136.228 260.189L135.673 260.087L134.54 259.86C133.809 259.707 132.984 259.517 132.151 259.276C126.831 257.697 121.459 256.236 116.139 254.613C114.013 253.97 111.894 253.276 109.782 252.567C107.092 251.654 104.425 250.675 101.743 249.717L98.0237 248.38L82.619 246.845L78.6875 246.458L82.4875 245.508C82.8548 245.419 83.2382 245.419 83.6056 245.508C83.9059 245.573 84.2014 245.658 84.4898 245.764C85.0452 245.968 85.586 246.21 86.134 246.495L87.771 247.306C88.0336 247.438 88.3046 247.552 88.5821 247.649L89.481 247.978C92.0827 248.896 94.7319 249.675 97.4171 250.309C103.059 251.683 109.241 252.765 114.853 254.336C120.466 255.907 125.413 257.895 129.096 259.261C132.779 260.628 135.198 261.453 135.505 261.585C136.849 262.031 138.114 262.564 140.167 263.28Z" fill="#12111F"/>
<path d="M82.8477 249.002C84.2199 248.664 85.6591 248.712 87.0057 249.141C91.5511 250.281 96.1404 251.253 100.737 252.196L106.671 253.445C108.644 253.869 110.624 254.278 112.619 254.768C119.445 256.471 125.934 259.153 132.35 261.791L138.043 264.144C139.87 264.874 141.701 265.586 143.538 266.278C143.852 266.379 144.159 266.499 144.459 266.636C145.19 267.03 145.255 267.44 144.583 267.469C144.424 267.498 144.26 267.498 144.101 267.469C142.639 266.928 141.368 266.913 139.877 266.3C137.122 265.16 134.323 264.107 131.553 263.04C130.443 262.602 129.342 262.149 128.25 261.681C126.847 261.089 125.466 260.468 124.056 259.898C123.091 259.525 120.343 258.436 116.66 257.274C114.826 256.704 112.751 256.113 110.551 255.645C108.352 255.177 106.013 254.702 103.718 254.227C99.1146 253.292 94.613 252.32 91.2296 251.494C87.8461 250.668 85.5588 250.033 85.3323 249.952C84.638 249.733 83.9511 249.426 82.8477 249.002Z" fill="#12111F"/>
<path d="M154.828 87.4141C157.408 88.2544 159.717 90.0302 161.88 91.9083C169.115 98.2002 176.393 104.441 183.905 110.375C190.358 115.49 196.935 120.445 203.826 124.939C215.665 132.671 228.322 139.226 241.731 143.639C245.683 144.964 249.703 146.076 253.774 146.972C255.718 147.432 257.684 147.754 259.62 148.104C260.6 148.287 261.586 148.389 262.544 148.536C263.501 148.682 264.517 148.835 265.51 148.916C266.175 148.981 266.884 149.018 267.505 149.128C269.179 149.434 269.537 149.968 268.236 150.202C267.931 150.284 267.617 150.326 267.301 150.326C265.752 150.165 264.334 150.202 262.916 150.121C261.399 150.112 259.886 149.973 258.393 149.705C252.359 148.627 246.401 147.162 240.555 145.32C238.216 144.589 235.922 143.713 233.642 142.814C230.719 141.623 227.905 140.322 225.092 138.963C223.162 138.042 217.66 135.404 210.79 131.377C207.363 129.346 203.592 126.993 199.734 124.384C195.875 121.775 191.937 118.932 188.107 116.031C180.442 110.229 173.273 104.149 167.909 99.4791C162.545 94.8094 158.972 91.5721 158.621 91.2506C157.561 90.2202 156.531 89.1533 154.828 87.4141Z" fill="#12111F"/>
<path d="M165.555 89.0137C167.721 89.5092 169.766 90.4335 171.569 91.7321C173.133 92.7625 174.711 93.7783 176.268 94.8452C177.05 95.3714 177.832 95.9414 178.584 96.4968L180.85 98.141C182.348 99.2591 183.89 100.333 185.424 101.364C186.959 102.394 188.523 103.446 190.087 104.462C195.452 107.983 201.002 111.215 206.712 114.145C211.652 116.602 216.719 118.797 221.89 120.722C227.075 122.583 232.368 124.128 237.74 125.348L242.527 126.283C244.127 126.561 245.742 126.751 247.35 126.977L248.512 127.131L249.674 127.226L251.997 127.401C252.772 127.452 253.547 127.54 254.321 127.554L256.652 127.591C257.174 127.582 257.696 127.599 258.216 127.642C259.539 127.803 259.853 128.3 258.867 128.643C258.635 128.75 258.389 128.819 258.136 128.848C255.71 128.789 253.751 129.418 251.135 129.126C246.362 128.73 241.615 128.072 236.914 127.153C235.044 126.714 233.173 126.283 231.324 125.764C228.993 125.033 226.647 124.303 224.36 123.462C222.789 122.899 218.258 121.387 212.572 118.836C206.043 115.931 199.709 112.606 193.609 108.883C187.796 105.325 182.169 101.471 176.75 97.3371C174.558 95.7221 172.599 94.4141 171.211 93.4933C169.822 92.5725 168.967 91.9441 168.814 91.8344C167.669 90.9637 166.581 90.0216 165.555 89.0137Z" fill="#12111F"/>
<path d="M106.438 248.57C106.951 248.667 107.472 248.716 107.994 248.716C109.799 248.877 111.597 248.994 113.394 249.243C114.946 249.479 116.479 249.821 117.984 250.266C119.288 250.623 120.574 251.048 121.835 251.537C123.115 252.058 124.339 252.707 125.489 253.474C126.161 253.905 126.804 254.358 127.454 254.804L129.318 256.083L129.632 256.302C129.895 256.506 129.976 256.514 129.756 256.426L129.596 256.368C129.062 256.134 128.558 256.105 127.959 255.907C126.884 255.491 125.766 255.103 124.714 254.709C124.29 254.548 123.874 254.373 123.472 254.183C123.07 253.993 122.471 253.664 121.959 253.452C121.623 253.306 120.563 252.948 119.16 252.516C117.757 252.085 116.025 251.603 114.301 251.15C112.576 250.697 110.873 250.215 109.602 249.791C108.33 249.367 107.483 249.016 107.409 248.98C107.117 248.863 106.861 248.724 106.438 248.57Z" fill="#12111F"/>
<path d="M96.5942 300.295C97.515 300.112 97.8219 300.704 97.7561 301.113C97.6634 301.777 97.3875 302.402 96.9596 302.918C96.5365 303.477 95.9445 303.885 95.2715 304.08C94.9415 304.171 94.5957 304.188 94.2585 304.13C93.9213 304.072 93.601 303.94 93.3204 303.744C92.837 303.39 92.4501 302.92 92.195 302.378C91.9826 301.958 91.8324 301.51 91.7492 301.048C91.6469 300.541 91.6644 300.018 91.8004 299.52C91.8837 299.234 92.0245 298.968 92.2143 298.738C92.404 298.508 92.6386 298.319 92.9038 298.183C93.3763 297.945 93.9032 297.837 94.4311 297.869C94.999 297.897 95.5567 298.03 96.0754 298.263C96.6128 298.483 97.0909 298.826 97.4711 299.265C97.5529 299.339 97.6155 299.431 97.6538 299.535C97.7123 299.849 97.3323 300.025 97.0034 300.025C96.9304 300.025 96.8134 300.025 96.7988 300.025C96.5942 299.732 96.068 299.951 95.8634 299.783C95.4077 299.494 94.8624 299.38 94.3288 299.462L93.7954 299.528C93.6142 299.541 93.4423 299.612 93.3057 299.732C93.226 299.823 93.1729 299.934 93.1523 300.054C93.1001 300.336 93.1001 300.626 93.1523 300.909C93.2765 301.64 93.8173 302.538 94.4238 302.633C95.0304 302.728 95.7757 302.144 96.09 301.61C96.281 301.348 96.3926 301.036 96.4115 300.711C96.4929 300.582 96.5544 300.442 96.5942 300.295Z" fill="#12111F"/>
<path d="M170.933 299.672C170.75 299.681 170.567 299.65 170.398 299.58C170.229 299.511 170.077 299.405 169.953 299.27C169.866 299.183 169.895 298.949 170.012 298.927C170.241 298.882 170.473 298.85 170.706 298.832C170.852 298.832 173.059 298.986 173.804 299.073C174.55 299.161 175.266 299.263 175.997 299.387C177.458 299.672 178.92 299.957 180.345 300.308C180.659 300.381 180.981 300.469 181.295 300.571C182.362 300.929 183.451 301.214 184.532 301.529C184.711 301.587 184.894 301.629 185.08 301.653C186.293 301.969 187.486 302.354 188.654 302.807C189.56 303.195 190.466 303.589 191.358 304.006C191.489 304.053 191.615 304.117 191.73 304.196C191.978 304.371 192.245 304.515 192.527 304.627C192.914 304.81 193.294 304.992 193.659 305.19C193.841 305.293 194.015 305.41 194.178 305.54C194.332 305.65 194.178 305.745 194.113 305.73C193.923 305.73 194.032 305.825 194.025 305.884C194.018 305.942 194.025 305.935 194.025 305.942C193.893 305.922 193.764 305.89 193.638 305.847L192.812 305.592L191.453 305.153L189.721 304.51C188.844 304.203 187.916 303.911 187.726 303.852C187.529 303.785 187.336 303.707 187.148 303.619C187.061 303.582 184.379 302.807 184.269 302.793C183.709 302.645 183.158 302.467 182.618 302.259C182.511 302.217 182.401 302.185 182.289 302.164L179.409 301.397C178.913 301.273 178.416 301.185 177.948 301.075L177.685 300.995C177.574 300.96 177.462 300.931 177.349 300.907C176.165 300.681 174.996 300.411 173.797 300.264C173.527 300.228 172.233 299.928 171.912 299.906C171.656 299.892 171.093 299.658 170.933 299.672Z" fill="#12111F"/>
<path d="M94.9463 299.359C94.2155 299.359 92.4251 299.542 92.6955 300.616C92.8662 301.113 93.1658 301.557 93.5638 301.901C93.9617 302.245 94.4438 302.477 94.9609 302.574C95.5894 302.64 97.3359 302.443 97.2336 301.507C97.1532 300.733 96.1886 300.046 95.5382 299.761C95.1959 299.69 94.8397 299.731 94.5225 299.878C94.464 299.878 93.7917 300.192 94.0328 300.287C94.5362 300.48 94.9763 300.809 95.3044 301.237C95.4358 301.396 95.5395 301.577 95.6113 301.77C95.6399 301.845 95.6547 301.924 95.6551 302.004C95.6551 302.231 95.4359 302.275 95.8598 302.092C96.2836 301.909 95.984 301.975 95.7355 301.851C95.5822 301.771 95.4376 301.676 95.3044 301.566C95.055 301.351 94.834 301.106 94.6467 300.835C94.4856 300.644 94.3639 300.423 94.2886 300.185C94.2886 300.09 94.2886 299.995 94.2886 299.9C94.295 299.841 94.3178 299.785 94.3544 299.739C93.6967 299.878 93.5578 299.951 93.9305 299.951C94.3237 299.955 94.7105 299.852 95.0486 299.651C95.2971 299.49 95.2825 299.366 94.9755 299.352L94.9463 299.359Z" fill="#12111F"/>
<path d="M179.77 204.652C179.896 204.705 180.031 204.733 180.168 204.733C180.305 204.733 180.44 204.705 180.566 204.652C180.671 204.597 180.769 204.531 180.859 204.454C181.312 204.109 181.617 203.605 181.714 203.044C181.771 202.755 181.796 202.461 181.787 202.167C181.787 201.78 181.787 201.385 181.787 200.976C181.787 200.873 181.787 200.852 181.787 200.976C181.787 201.078 182.013 201.224 182.137 201.436C182.411 201.806 182.595 202.233 182.676 202.686C182.757 203.138 182.733 203.603 182.605 204.045C182.447 204.662 182.127 205.224 181.677 205.675C181.395 205.913 181.061 206.081 180.701 206.166C180.342 206.251 179.968 206.251 179.609 206.164C179.177 206.053 178.79 205.814 178.498 205.477C178.139 205.018 177.902 204.475 177.811 203.899C177.725 203.51 177.681 203.113 177.68 202.715V202.459C177.68 202.145 177.731 202.028 177.724 201.955C177.716 201.882 177.724 201.918 177.724 201.911C177.724 201.904 177.76 201.999 177.914 202.211C178.067 202.423 178.301 202.868 178.498 203.19C178.655 203.473 178.828 203.746 179.017 204.008C179.142 204.156 179.276 204.295 179.419 204.425C179.511 204.499 179.615 204.559 179.726 204.6L179.77 204.652Z" fill="#12111F"/>
<path d="M189.444 203.599C189.57 203.676 189.71 203.726 189.855 203.747C190.001 203.768 190.149 203.76 190.292 203.724C190.405 203.678 190.513 203.619 190.613 203.548C191.127 203.251 191.507 202.766 191.673 202.196C191.761 201.908 191.82 201.612 191.848 201.312C191.907 200.917 191.929 200.508 192.016 200.092C192.016 199.967 192.016 199.982 192.053 200.092C192.089 200.201 192.243 200.377 192.345 200.603C192.572 201.018 192.702 201.478 192.726 201.95C192.75 202.422 192.667 202.893 192.484 203.329C192.245 203.935 191.846 204.466 191.329 204.864C191.01 205.077 190.644 205.21 190.263 205.252C189.881 205.294 189.495 205.244 189.137 205.105C188.71 204.943 188.345 204.651 188.092 204.272C187.784 203.761 187.61 203.18 187.588 202.584C187.544 202.176 187.544 201.764 187.588 201.356C187.588 201.268 187.588 201.181 187.588 201.093C187.632 200.764 187.69 200.654 187.69 200.581V200.537C187.731 200.652 187.782 200.762 187.844 200.866C187.99 201.217 188.15 201.597 188.304 201.941C188.427 202.253 188.568 202.558 188.728 202.854C188.833 203.024 188.953 203.186 189.086 203.336C189.172 203.432 189.276 203.509 189.393 203.563L189.444 203.599Z" fill="#12111F"/>
<path d="M217.805 186.046C215.174 175.53 199.835 164.503 186.915 173.279C186.754 173.389 178.687 169.626 172.102 171.474C163.26 173.915 158.715 181.384 156.625 189.868C155.615 194.081 155.311 198.432 155.726 202.744C156.135 207.304 158.51 213.041 155.032 216.958C150.771 221.759 146.92 229.271 149.536 235.709C152.737 243.609 161.959 246.115 169.998 244.529C171.112 242.337 172.39 240.231 173.82 238.23C179.812 230.009 187.295 225.961 197.204 230.513C202.722 233.042 205.82 238.859 208.115 244.924C220.348 241.76 216.314 230.236 216.314 230.236C213.829 222.489 214.743 215.116 217.147 207.538C219.281 200.561 219.508 193.14 217.805 186.046ZM200.486 205.346C200.182 205.456 199.913 205.645 199.707 205.895C199.501 206.144 199.366 206.444 199.316 206.763C198.337 212.609 195.991 220.648 190.752 223.863C177.985 231.646 172.212 204.344 170.846 194.282C174.273 194.494 181.719 194.406 187.025 188.202C187.025 188.202 190.949 199.638 197.511 198.433C199.579 194.947 205.206 194.099 205.55 199.163C205.776 203.022 202.269 204.746 200.486 205.346Z" fill="#12111F"/>
<path d="M179.294 194.385C177.806 194.822 176.274 195.099 174.727 195.211C173.996 195.276 173.185 195.284 172.418 195.276H171.972C171.972 195.276 171.892 195.276 171.899 195.276V195.459L171.965 195.927L172.133 197.016C172.25 197.746 172.367 198.477 172.505 199.208C172.764 200.669 173.056 202.109 173.382 203.527C173.857 205.624 174.449 207.685 175.07 209.724C176.096 213.323 177.608 216.765 179.565 219.954C180.516 221.501 181.802 222.815 183.328 223.798C184.072 224.256 184.906 224.546 185.772 224.65C186.639 224.753 187.518 224.667 188.348 224.398C189.882 223.901 191.272 223.038 192.397 221.884C193.531 220.708 194.482 219.367 195.218 217.908C196.174 216.019 196.931 214.035 197.476 211.989C197.775 210.973 198.017 209.936 198.258 208.898L198.594 207.334L198.674 206.939C198.674 206.815 198.725 206.684 198.777 206.494C198.874 206.153 199.046 205.838 199.281 205.573C199.487 205.326 199.766 205.149 200.077 205.069C200.275 205.069 200.377 205.069 200.384 205.149C200.392 205.229 200.107 205.602 199.946 206.099C199.852 206.364 199.824 206.647 199.865 206.925C199.865 207.334 199.865 207.794 199.865 208.291C199.803 209.439 199.624 210.578 199.332 211.689C198.762 213.89 197.976 216.03 196.986 218.076C195.979 220.201 194.552 222.1 192.792 223.659C192.334 224.054 191.845 224.411 191.33 224.726C190.812 225.032 190.275 225.306 189.722 225.545C188.568 226.034 187.321 226.265 186.068 226.224C184.818 226.139 183.607 225.745 182.546 225.077C181.527 224.445 180.619 223.65 179.857 222.724C178.954 221.663 178.158 220.515 177.482 219.297C176.793 218.094 176.176 216.852 175.633 215.577C174.547 213.039 173.639 210.429 172.915 207.765C172.111 204.842 171.453 201.919 170.934 198.996L170.569 196.804L170.393 195.642L170.152 193.895V193.786V193.654H170.43H170.869L171.702 193.691H172.103H172.995C173.726 193.691 174.457 193.647 175.187 193.574C176.968 193.398 178.716 192.98 180.383 192.331C182.019 191.68 183.539 190.77 184.885 189.635L185.352 189.218L185.601 188.999C185.732 188.875 185.827 188.765 185.937 188.648C186.375 188.195 186.814 187.684 187.23 187.289L187.691 188.561C187.764 188.773 187.852 188.977 187.932 189.174L188.151 189.701C188.385 190.234 188.634 190.76 188.882 191.272C189.399 192.303 189.995 193.292 190.665 194.231C191.318 195.159 192.095 195.992 192.974 196.709C193.811 197.408 194.821 197.867 195.897 198.039C196.326 198.099 196.762 198.099 197.191 198.039C197.308 197.944 197.33 197.841 197.534 197.564C197.739 197.286 197.907 197.125 198.104 196.913C198.932 196.094 199.964 195.511 201.093 195.225C201.679 195.085 202.285 195.05 202.884 195.123C203.51 195.214 204.101 195.466 204.601 195.854C205.072 196.251 205.455 196.744 205.723 197.299C205.991 197.854 206.139 198.46 206.157 199.076C206.28 200.132 206.102 201.201 205.646 202.16C205.273 202.899 204.759 203.557 204.133 204.097C203.72 204.455 203.263 204.759 202.774 205.003C202.252 205.299 201.655 205.434 201.057 205.39C200.866 205.387 200.677 205.36 200.494 205.31C200.282 205.208 200.494 204.988 201.005 204.645C201.784 204.169 202.517 203.623 203.198 203.015C203.798 202.452 204.246 201.745 204.498 200.962C204.715 200.177 204.728 199.349 204.535 198.558C204.477 198.209 204.342 197.878 204.139 197.589C203.937 197.299 203.673 197.059 203.366 196.884C202.692 196.593 201.935 196.562 201.239 196.796C200.45 197.033 199.736 197.468 199.164 198.061L198.762 198.521C198.555 198.85 198.325 199.165 198.075 199.464L197.381 199.551L197.03 199.595H196.796C196.497 199.625 196.196 199.625 195.897 199.595C194.725 199.463 193.604 199.038 192.638 198.36C191.73 197.747 190.913 197.009 190.212 196.168C189.287 195.061 188.484 193.858 187.815 192.58C187.472 191.959 187.157 191.316 186.865 190.673L186.675 190.241L186.551 190.351L186.068 190.782C185.423 191.353 184.734 191.873 184.008 192.339C182.563 193.273 180.994 193.996 179.345 194.487L179.294 194.385Z" fill="#12111F"/>
<path d="M177.936 234.905C175.605 237.292 173.6 239.978 171.973 242.892L171.359 243.995L171.03 244.609L170.753 245.135C170.694 245.216 170.68 245.34 170.592 245.376L170.3 245.42L168.699 245.676L167.377 245.808C165.602 245.939 163.819 245.88 162.057 245.632C158.467 245.158 155.098 243.633 152.374 241.248C151.041 240 149.955 238.513 149.173 236.863C148.36 235.221 147.921 233.419 147.887 231.587C147.875 228.964 148.429 226.369 149.509 223.98C150.03 222.802 150.63 221.662 151.307 220.567C151.988 219.482 152.735 218.44 153.543 217.446C153.718 217.22 153.908 217.015 154.091 216.796C154.274 216.577 154.464 216.365 154.603 216.182C154.91 215.806 155.175 215.397 155.392 214.962C155.833 214.048 156.082 213.053 156.123 212.039C156.136 209.901 155.908 207.768 155.443 205.681C155.235 204.576 155.084 203.462 154.99 202.341C154.91 201.223 154.866 200.105 154.866 198.987C154.869 196.749 155.06 194.515 155.436 192.308C156.175 187.872 157.76 183.62 160.105 179.783C161.318 177.86 162.819 176.135 164.556 174.667C166.305 173.218 168.296 172.09 170.438 171.335C171.169 171.13 171.805 170.867 172.543 170.706C173.265 170.548 173.998 170.441 174.735 170.385C176.199 170.287 177.668 170.341 179.12 170.546C180.549 170.746 181.963 171.044 183.351 171.437C184.082 171.635 184.725 171.846 185.405 172.073L186.413 172.424L186.778 172.548C186.817 172.555 186.857 172.555 186.895 172.548L187.005 172.475L187.59 172.102C187.826 171.953 188.07 171.816 188.32 171.693C188.81 171.43 189.292 171.167 189.782 170.962C191.961 169.982 194.314 169.448 196.702 169.391C197.99 169.364 199.277 169.462 200.546 169.683C201.807 169.925 203.047 170.269 204.251 170.714C205.446 171.176 206.604 171.728 207.715 172.365C209.926 173.657 211.925 175.281 213.642 177.181C215.375 179.074 216.752 181.265 217.705 183.648C218.267 185.154 218.267 185.877 218.121 185.841C217.975 185.804 217.595 185.11 216.945 183.999C216.052 182.472 215.019 181.031 213.861 179.695C212.223 177.823 210.357 176.163 208.307 174.755C205.292 172.623 201.757 171.346 198.076 171.057C196.265 170.951 194.448 171.141 192.698 171.62C191.822 171.863 190.966 172.176 190.14 172.555C189.723 172.723 189.336 172.972 188.927 173.169C188.722 173.271 188.532 173.396 188.335 173.52L187.546 174.01L187.29 174.112L187.158 174.156H187.1C187.1 174.229 187.1 174.068 187.1 174.09H187.049C186.961 174.101 186.873 174.101 186.786 174.09C186.692 174.103 186.596 174.09 186.508 174.053L186.23 173.958L186.033 173.893L185.755 173.79L184.659 173.403C183.928 173.162 183.198 172.935 182.467 172.738C181 172.33 179.502 172.047 177.987 171.89C176.506 171.73 175.01 171.764 173.537 171.993C173.172 172.058 172.806 172.139 172.463 172.226L171.388 172.563C171.027 172.667 170.673 172.796 170.329 172.95C169.985 173.096 169.598 173.213 169.298 173.388C167.941 174.035 166.667 174.845 165.506 175.8C164.344 176.771 163.297 177.872 162.385 179.081C160.554 181.564 159.144 184.332 158.213 187.273C157.212 190.206 156.597 193.257 156.386 196.349C156.281 197.879 156.264 199.414 156.335 200.946C156.399 202.484 156.58 204.016 156.875 205.528C157.204 207.094 157.448 208.677 157.606 210.27C157.786 211.954 157.568 213.656 156.97 215.24C156.635 216.038 156.173 216.779 155.604 217.432C155.1 218.009 154.61 218.601 154.142 219.208C153.218 220.428 152.395 221.72 151.68 223.073C150.13 225.996 149.122 229.343 149.487 232.573C149.68 234.194 150.213 235.755 151.051 237.155C151.871 238.576 152.967 239.818 154.274 240.809C156.958 242.804 160.159 243.986 163.496 244.215C165.168 244.359 166.851 244.325 168.517 244.112L169.569 243.944H169.642V243.878L169.708 243.754L170 243.206C170.417 242.475 170.848 241.686 171.293 240.941C172.403 239.094 173.661 237.342 175.057 235.701C176.443 234.036 178.026 232.544 179.77 231.258C181.542 229.958 183.55 229.015 185.682 228.481C187.823 227.977 190.046 227.925 192.208 228.328C193.02 228.475 193.821 228.678 194.605 228.934C194.992 229.066 195.394 229.161 195.767 229.321L196.907 229.796C198.441 230.438 199.859 231.329 201.102 232.435C203.504 234.692 205.43 237.408 206.765 240.422C207.116 241.153 207.445 241.883 207.752 242.614L208.183 243.666L208.322 244.032L208.395 244.207C208.395 244.207 208.395 244.295 208.438 244.273H208.519L209.308 244.017C209.683 243.915 210.047 243.778 210.397 243.608C211.11 243.312 211.789 242.94 212.421 242.497C213.693 241.643 214.732 240.486 215.444 239.13C216.156 237.773 216.518 236.261 216.499 234.729C216.534 233.534 216.406 232.339 216.119 231.178C216.053 230.885 215.973 230.6 215.885 230.33L215.615 229.424C215.425 228.825 215.293 228.218 215.132 227.611C214.584 225.178 214.314 222.689 214.328 220.194C214.371 217.714 214.643 215.243 215.14 212.813C215.388 211.6 215.673 210.395 216.009 209.203C216.345 208.012 216.74 206.843 217.01 205.688C217.524 203.642 217.873 201.557 218.055 199.455C218.204 197.793 218.26 196.124 218.223 194.456C218.223 193.075 218.128 191.965 218.063 191.051C217.938 189.793 217.877 188.53 217.88 187.266C217.856 186.874 217.856 186.481 217.88 186.089C217.938 185.68 218.245 186.25 218.662 187.675C219.241 189.88 219.574 192.142 219.656 194.42C219.869 198.953 219.313 203.489 218.012 207.837C216.635 212.05 215.912 216.449 215.87 220.881C215.885 223.096 216.15 225.302 216.66 227.458C216.791 227.991 216.915 228.532 217.083 229.058L217.317 229.848C217.42 230.162 217.5 230.461 217.573 230.768C217.864 231.965 218.011 233.191 218.012 234.422C218.017 235.683 217.833 236.937 217.463 238.142C217.281 238.757 217.036 239.352 216.733 239.918C216.59 240.206 216.432 240.487 216.258 240.758L215.68 241.533L215.388 241.92L215.045 242.263L214.314 242.928C214.092 243.149 213.847 243.344 213.583 243.513L212.794 244.054C211.726 244.705 210.579 245.216 209.381 245.574L208.161 245.968L207.547 246.173C207.547 246.173 207.488 246.173 207.474 246.173V246.107L207.415 245.968L207.313 245.691L206.889 244.595L206.568 243.783C206.246 243.001 205.917 242.227 205.559 241.467C204.866 239.944 204.055 238.478 203.133 237.082C201.397 234.312 198.821 232.169 195.782 230.966C195.022 230.653 194.247 230.382 193.458 230.155C193.063 230.052 192.661 229.979 192.267 229.891C191.871 229.793 191.467 229.727 191.061 229.694C190.261 229.597 189.455 229.558 188.649 229.577L187.458 229.694C187.056 229.694 186.669 229.848 186.274 229.913C184.698 230.285 183.191 230.904 181.809 231.748C180.421 232.635 179.133 233.669 177.965 234.831L177.936 234.905Z" fill="#12111F"/>
<path d="M132.092 295.187C131.454 295.784 130.633 296.148 129.761 296.217C129.706 296.227 129.65 296.216 129.602 296.187C129.554 296.158 129.518 296.114 129.5 296.061C129.483 296.008 129.485 295.95 129.506 295.898C129.527 295.847 129.565 295.804 129.615 295.779C130.039 295.457 130.434 295.106 130.843 294.756C130.974 294.661 132.049 293.82 133.269 292.768C134.364 291.788 135.562 290.931 136.842 290.21C138.435 289.48 140.058 288.829 141.687 288.171L146.642 286.162C148.237 285.467 149.762 284.62 151.195 283.633C151.845 283.217 152.488 282.778 153.139 282.347C155.353 280.839 157.453 279.171 159.423 277.356C159.764 277.067 160.086 276.757 160.388 276.428C160.629 276.165 162.083 274.798 163.515 273.359C164.948 271.919 166.365 270.436 166.694 270.099C168.346 268.441 169.912 266.7 171.386 264.882C171.583 264.614 171.795 264.358 172.022 264.115C172.518 263.598 172.954 263.026 173.322 262.412C173.882 261.6 174.371 260.742 174.784 259.847C174.992 259.446 175.133 259.014 175.2 258.568C175.2 258.181 175.427 258.327 175.464 258.495C175.573 258.955 175.632 258.59 175.705 258.495C175.778 258.4 175.763 258.451 175.785 258.495C175.853 258.849 175.838 259.214 175.741 259.562C175.581 260.278 175.335 260.972 175.01 261.63C174.497 262.699 173.906 263.73 173.242 264.714C173.242 264.75 172.899 265.211 172.394 265.89C171.89 266.57 171.203 267.461 170.472 268.346C169.011 270.114 167.418 271.883 167.089 272.241C166.76 272.599 166.358 272.971 166.007 273.322C165.92 273.41 164.699 274.696 163.435 275.946C162.171 277.195 160.863 278.416 160.753 278.503C159.712 279.472 158.614 280.378 157.465 281.215C157.231 281.377 157.006 281.553 156.792 281.741C154.884 283.291 152.864 284.698 150.749 285.95C149.683 286.62 148.563 287.201 147.402 287.689C147.19 287.777 146.978 287.843 146.766 287.916L145.977 288.208C143.273 289.319 140.533 290.356 137.851 291.504C137.166 291.787 136.513 292.14 135.9 292.556C135.248 292.979 134.619 293.435 134.014 293.923C133.649 294.208 132.392 294.931 132.092 295.187Z" fill="#12111F"/>
<path d="M119.413 289.443C119.413 289.501 119.325 289.56 119.347 289.633C119.369 289.699 119.413 289.755 119.471 289.793C119.561 289.873 119.656 289.946 119.756 290.013C119.858 290.086 119.968 290.173 120.121 290.268L120.794 290.619C121.086 290.773 120.991 291.072 120.596 291.05C120.406 291.05 120.216 291.05 120.026 290.992C119.748 290.952 119.472 290.896 119.201 290.824C118.693 290.718 118.222 290.481 117.834 290.137C117.764 290.073 117.707 289.996 117.666 289.91C117.598 289.79 117.565 289.654 117.571 289.516C117.593 289.29 117.691 289.079 117.849 288.917C118.115 288.646 118.434 288.434 118.786 288.293C119.138 288.152 119.516 288.086 119.895 288.098C120.051 288.087 120.207 288.087 120.363 288.098H120.684L121.349 288.142C121.795 288.142 122.306 288.259 122.708 288.31C124.25 288.401 125.795 288.223 127.276 287.784C129.539 287.185 131.741 286.376 133.853 285.365C136.024 284.303 138.141 283.132 140.196 281.857C142.293 280.608 144.368 279.343 146.393 278.013L149.075 276.23C149.842 275.719 150.595 275.185 151.34 274.645C152.058 274.109 152.742 273.528 153.386 272.905C154.666 271.619 155.819 270.212 156.828 268.704C157.18 268.205 157.505 267.688 157.8 267.154C158.026 266.738 159.473 264.385 160.781 261.929C162.09 259.474 163.368 256.916 163.705 256.339C165.232 253.482 166.701 250.573 168.206 247.687C168.4 247.268 168.618 246.861 168.856 246.466C169.392 245.617 169.88 244.739 170.318 243.835C170.954 242.593 171.611 241.351 172.313 240.182C172.662 239.587 173.043 239.011 173.453 238.457C173.804 237.945 173.804 238.333 173.716 238.53C173.453 239.107 173.789 238.713 173.884 238.705C173.979 238.698 173.965 238.705 173.965 238.705C173.92 238.818 173.869 238.928 173.811 239.034L173.402 239.875C173.066 240.569 172.627 241.504 172.174 242.462L170.186 246.802L164.421 258.736C164.121 259.357 163.77 259.971 163.441 260.585C163.354 260.731 162.287 262.916 161.066 265.057C159.846 267.198 158.531 269.281 158.414 269.442C157.326 271.12 156.041 272.66 154.585 274.031L153.7 274.849C152.408 275.955 151.052 276.982 149.637 277.926C148.249 278.876 146.831 279.782 145.406 280.666C143.981 281.55 142.483 282.464 141.021 283.333C140.758 283.494 140.488 283.633 140.218 283.787C139.947 283.94 139.538 284.152 139.202 284.357C135.698 286.511 131.907 288.157 127.941 289.245C126.88 289.515 125.796 289.686 124.703 289.757C124.013 289.8 123.321 289.776 122.635 289.684C121.992 289.589 121.59 289.501 121.32 289.479L120.158 289.326C119.911 289.274 119.653 289.307 119.427 289.421L119.413 289.443Z" fill="#12111F"/>
<path d="M208.27 247C207.535 245.181 206.973 243.297 206.589 241.373C206.48 240.833 206.794 240.789 207.086 241.373C207.641 242.528 208.168 243.705 208.672 244.918C208.825 245.283 209.995 248.418 211.281 251.97C212.567 255.521 214.204 259.365 215 261.309C215.833 263.159 216.778 264.958 217.828 266.695C218.892 268.419 220.094 270.054 221.424 271.583C224.055 274.77 227.014 277.751 230.8 279.008C231.267 279.176 231.75 279.293 232.225 279.425C232.7 279.556 233.189 279.636 233.686 279.68C234.171 279.746 234.659 279.788 235.148 279.805C235.645 279.805 236.149 279.841 236.697 279.841C238.837 279.852 240.975 279.992 243.098 280.258C245.011 280.499 246.894 280.935 248.718 281.558C250.32 282.105 251.83 282.891 253.198 283.89C253.546 284.143 253.876 284.421 254.184 284.723C254.501 285.02 254.797 285.34 255.068 285.68L255.339 286.038C255.448 286.191 255.573 286.345 255.675 286.491L255.916 286.937C255.962 287.056 255.998 287.178 256.026 287.302L256.216 288.033L256.311 288.391C256.369 288.53 256.311 288.588 256.223 288.705C256.09 288.846 255.916 288.941 255.726 288.976C255.456 289.034 255.177 289.034 254.908 288.976C254.557 288.903 254.21 288.811 253.87 288.698L253.03 288.442C252.262 288.201 251.51 287.967 250.75 287.755C249.253 287.32 247.723 287.007 246.175 286.82C245.149 286.707 244.115 286.677 243.084 286.732C242.675 286.732 241.301 286.798 239.43 286.973C237.559 287.149 235.206 287.478 232.685 287.595C230.298 287.628 227.924 287.255 225.662 286.491C224.339 286.057 223.053 285.514 221.818 284.869C219.262 283.543 216.915 281.846 214.854 279.834C212.807 277.855 210.955 275.684 209.322 273.352C208.845 272.706 208.406 272.032 208.007 271.335C207.188 269.822 206.311 268.324 205.544 266.746C204.455 264.553 203.688 262.288 202.658 260.169C202.168 259.095 201.722 258.013 201.269 256.939C200.816 255.865 201.269 256.391 201.459 256.712C201.985 257.655 201.686 256.829 201.708 256.712C201.73 256.595 201.708 256.617 201.773 256.654C201.886 256.833 201.989 257.018 202.08 257.209L202.811 258.671L203.863 260.71C204.243 261.44 204.594 262.295 204.996 263.128C205.679 264.699 206.443 266.233 207.283 267.725C208.014 269.011 208.635 269.961 208.84 270.275C208.891 270.348 209.571 271.466 210.733 273.023C212.164 274.933 213.747 276.725 215.468 278.38C217.241 280.116 219.243 281.603 221.416 282.801C222.678 283.507 223.995 284.108 225.355 284.598C226.442 284.993 227.553 285.32 228.68 285.578C229.572 285.759 230.476 285.872 231.384 285.914C233.267 285.91 235.147 285.773 237.011 285.505C239.094 285.263 241.206 285.081 242.857 285.051C243.854 285.021 244.852 285.046 245.846 285.125C247.562 285.296 249.259 285.619 250.918 286.089C251.736 286.316 252.547 286.571 253.336 286.82L253.636 286.922L253.782 286.966L253.906 287.032C253.972 287.032 253.906 286.93 253.855 286.886C253.723 286.701 253.577 286.528 253.417 286.367C253.183 286.14 252.956 285.906 252.686 285.687L251.897 285.081C251.634 284.883 251.327 284.73 251.049 284.547C249.86 283.871 248.594 283.338 247.278 282.961C244.575 282.21 241.795 281.774 238.991 281.661C237.53 281.566 236.149 281.602 234.607 281.529C233.102 281.422 231.617 281.114 230.193 280.616C229.669 280.437 229.158 280.219 228.666 279.965C228.347 279.821 228.037 279.658 227.738 279.476C227.438 279.293 227.131 279.14 226.846 278.942C223.733 276.962 221.424 274.229 219.231 271.532C217.026 268.77 215.186 265.734 213.758 262.5C213.385 261.769 212.596 259.577 211.748 257.385C210.901 255.192 210.185 252.92 209.863 252.057C209.541 251.195 208.599 247.863 208.27 247Z" fill="#12111F"/>
<path d="M248.693 301.668C239.039 307.974 227.113 312.585 216.166 315.947C213.923 316.641 178.005 325.337 174.315 326.397C168.074 328.209 158.121 330.453 152.567 325.732C146.604 320.675 160.979 323.657 164.625 320.419C166.752 318.519 169.865 319.002 172.086 319.689C172.998 319.982 173.97 320.042 174.911 319.862C175.852 319.681 176.733 319.268 177.472 318.658C178.079 318.161 188.974 309.436 194.163 305.731C196.07 304.372 198.014 303.042 199.972 301.755C205.27 298.306 216.78 292.475 216.934 292.409C227.354 287.812 238.316 285.328 249.57 286.76C250.565 286.868 251.53 287.171 252.407 287.653C253.285 288.134 254.059 288.785 254.685 289.566C258.478 294.499 252.42 299.234 248.693 301.668Z" fill="#12111F"/>
<path d="M186.989 312.411L179.952 317.885L178.205 319.273C177.557 319.821 176.814 320.245 176.013 320.523C175.194 320.807 174.327 320.926 173.463 320.874C173.031 320.844 172.602 320.773 172.184 320.662C171.731 320.538 171.453 320.435 171.109 320.348C169.819 319.945 168.45 319.859 167.119 320.099C166.51 320.233 165.936 320.497 165.439 320.874C165.126 321.145 164.791 321.39 164.438 321.604C164.068 321.813 163.679 321.984 163.276 322.116C161.781 322.571 160.238 322.848 158.679 322.942C157.174 323.073 155.683 323.139 154.243 323.293C153.739 323.342 153.239 323.425 152.745 323.541C152.56 323.579 152.379 323.635 152.204 323.709C152.138 323.735 152.084 323.784 152.051 323.848C151.839 323.892 152.738 324.886 153.513 325.419C155.173 326.611 157.114 327.352 159.147 327.568C162.801 328.05 166.586 327.516 170.262 326.698C172.118 326.296 173.916 325.733 175.808 325.236L181.399 323.863L203.746 318.462C207.049 317.666 210.359 316.847 213.655 316.014C214.473 315.802 215.299 315.59 216.088 315.364L218.507 314.633C220.115 314.107 221.715 313.573 223.301 313.003C231.46 310.158 239.332 306.547 246.81 302.217C249.097 300.829 249.002 301.348 247.299 302.911C246.083 303.948 244.799 304.902 243.456 305.769C241.536 306.992 239.539 308.091 237.478 309.057C233.429 310.95 229.293 312.623 225.099 314.121C222.999 314.867 220.887 315.576 218.763 316.248C217.689 316.577 216.673 316.928 215.533 317.213L212.296 318.024C203.673 320.136 195.028 322.174 186.339 324.213C183.744 324.82 181.121 325.448 178.49 326.099C177.182 326.428 175.845 326.756 174.559 327.107C173.273 327.458 171.906 327.838 170.554 328.152C167.826 328.814 165.037 329.189 162.231 329.27C161.5 329.27 160.813 329.27 160.111 329.219C159.4 329.164 158.693 329.069 157.992 328.934C157.285 328.805 156.586 328.629 155.902 328.408C155.218 328.171 154.555 327.875 153.922 327.524C153.217 327.137 152.553 326.679 151.941 326.157C151.628 325.889 151.337 325.596 151.072 325.28C150.905 325.089 150.763 324.878 150.648 324.652C150.507 324.385 150.427 324.091 150.414 323.789C150.434 323.491 150.536 323.205 150.709 322.961C150.882 322.717 151.119 322.526 151.393 322.408C151.613 322.296 151.843 322.205 152.08 322.138C152.285 322.079 152.482 322.036 152.687 321.992C153.451 321.853 154.222 321.755 154.996 321.699C156.509 321.575 157.999 321.502 159.468 321.341C160.883 321.243 162.269 320.901 163.568 320.333C163.708 320.258 163.843 320.172 163.97 320.077L164.145 319.946L164.394 319.748C164.723 319.481 165.083 319.255 165.468 319.076C166.222 318.719 167.039 318.513 167.872 318.469C169.449 318.417 171.021 318.665 172.505 319.2C173.153 319.375 173.829 319.418 174.494 319.329C175.159 319.24 175.799 319.02 176.378 318.681C176.679 318.511 176.962 318.313 177.226 318.089L178.11 317.359L179.879 315.963C182.802 313.676 185.725 311.396 188.648 309.152C190.109 308.034 191.571 306.96 193.098 305.834C194.626 304.709 196.16 303.737 197.688 302.685C199.999 301.081 202.394 299.603 204.864 298.256C207.312 296.883 209.789 295.56 212.274 294.266L216.008 292.337L216.483 292.103L216.739 291.979L216.98 291.877L217.952 291.46C218.588 291.183 219.245 290.927 219.896 290.671C222.502 289.637 225.163 288.749 227.868 288.011C232.034 286.852 236.311 286.137 240.628 285.877C242.777 285.749 244.931 285.749 247.08 285.877C247.621 285.877 248.154 285.972 248.695 286.016C249.236 286.06 249.762 286.104 250.339 286.221C251.473 286.438 252.551 286.881 253.511 287.521C254.372 288.087 255.098 288.836 255.638 289.714C255.924 290.155 256.157 290.628 256.332 291.124C256.485 291.641 256.566 292.178 256.573 292.717C256.582 293.209 256.53 293.7 256.419 294.179C256.3 294.59 256.154 294.993 255.981 295.384C255.674 296.042 255.288 296.66 254.834 297.226C254.191 298.053 253.456 298.804 252.641 299.462C251.774 300.205 250.785 300.793 249.718 301.201C249.401 301.334 249.073 301.442 248.739 301.523C248.366 301.574 248.739 301.165 249.711 300.339C250.186 299.93 250.8 299.404 251.501 298.753C252.305 298.019 253.039 297.212 253.694 296.342C254.783 294.924 255.374 293.214 254.892 291.687C254.826 291.497 254.724 291.314 254.651 291.124C254.578 290.934 254.578 290.934 254.527 290.846L254.344 290.591L253.993 290.064C253.862 289.898 253.72 289.739 253.569 289.589C252.962 288.986 252.238 288.511 251.443 288.194C251.041 288.03 250.625 287.903 250.201 287.814C249.755 287.723 249.303 287.662 248.849 287.631L247.387 287.492L245.926 287.412C243.978 287.315 242.025 287.332 240.079 287.463C232.181 288.08 224.454 290.092 217.258 293.404L213.311 295.436L209.343 297.54C206.705 299.002 204.082 300.412 201.546 301.961C200.296 302.692 199.069 303.606 197.834 304.439C196.599 305.272 195.349 306.105 194.136 306.974C191.724 308.728 189.335 310.555 186.96 312.397L186.989 312.411Z" fill="#12111F"/>
<path d="M199.975 301.807C198.016 303.093 196.072 304.423 194.165 305.782C188.977 309.487 184.007 313.404 179.294 317.226C169.107 316.605 159.066 314.135 150.114 309.297C144.078 306.038 130.932 297.437 137.837 290.633C140.892 289.172 144.239 288.338 147.337 286.906C163.495 283.004 193.595 297.882 199.975 301.807Z" fill="#12111F"/>
<path d="M145.964 288.529C144.166 289.223 142.361 289.779 140.637 290.429C140.206 290.59 139.774 290.758 139.351 290.933L138.729 291.211L138.423 291.35C138.423 291.35 138.423 291.35 138.364 291.386C137.786 291.944 137.335 292.619 137.041 293.367C136.798 294.147 136.734 294.972 136.852 295.78C136.971 296.588 137.271 297.36 137.728 298.036C138.668 299.571 139.83 300.958 141.178 302.151C143.198 303.937 145.375 305.539 147.681 306.937C155.892 311.951 165.096 315.116 174.654 316.211C175.714 316.35 176.781 316.452 177.84 316.54C178.276 316.596 178.716 316.616 179.156 316.598L180.288 315.685L185.316 311.665C187.508 309.963 189.642 308.275 191.893 306.638C194.144 305.001 196.409 303.495 198.711 301.997C201.598 300.17 198.821 303.839 193.705 307.434C189.204 310.715 184.812 314.143 180.434 317.628L179.762 318.169L179.66 318.25H179.536H179.28L178.805 318.213L177.745 318.125C177.014 318.067 176.335 317.979 175.626 317.913C174.216 317.745 172.813 317.548 171.409 317.307C168.601 316.824 165.824 316.173 163.093 315.356C156.377 313.438 150.014 310.453 144.247 306.513C142.66 305.409 141.158 304.188 139.753 302.86C138.293 301.522 137.071 299.949 136.135 298.205C135.655 297.283 135.369 296.274 135.295 295.238C135.234 294.171 135.464 293.107 135.96 292.161C136.091 291.942 136.208 291.701 136.354 291.489L136.815 290.868L137.356 290.29C137.409 290.218 137.473 290.154 137.546 290.1L137.801 289.991L138.13 289.837C139.014 289.435 139.913 289.106 140.812 288.763L144.123 287.601C144.663 287.404 145.211 287.206 145.745 286.987L146.541 286.666L146.885 286.461L147.133 286.351L147.396 286.293C149.732 285.817 152.118 285.632 154.499 285.745C158.069 285.917 161.614 286.426 165.088 287.265C168.552 288.061 171.95 289.092 175.319 290.188C180.508 291.949 185.55 293.878 190.461 296.093C191.549 296.582 192.616 297.057 193.698 297.554C197.703 299.513 198.886 300.353 199.508 301.208C199.654 301.387 199.786 301.578 199.902 301.778C200.092 302.275 198.441 301.544 195.518 300.141C191.199 298.066 186.675 296.1 182.028 294.295C177.355 292.429 172.581 290.831 167.726 289.508C165.914 289.033 164.073 288.595 162.253 288.251C160.424 287.886 158.578 287.618 156.721 287.448C154.883 287.259 153.032 287.227 151.189 287.353C150.729 287.353 150.276 287.418 149.83 287.477C149.378 287.521 148.929 287.592 148.485 287.689L147.82 287.813H147.667L147.367 287.945C146.914 288.149 146.461 288.332 146.008 288.507L145.964 288.529Z" fill="#12111F"/>
<path d="M216.935 292.439C216.767 292.504 216.584 292.578 216.416 292.658C210.705 295.275 205.208 298.334 199.974 301.807C192.922 297.627 185.509 294.088 177.824 291.233L179.644 291.657C184.84 292.424 191.438 294.58 196.269 294.163C198.001 294.01 206.96 290.933 208.129 290.422C208.37 290.319 209.54 289.603 209.795 289.691L216.935 292.439Z" fill="#12111F"/>
<path d="M185.215 293.725C183.3 293.287 181.437 292.848 179.515 292.527L177.754 292.096H177.702V291.935C177.746 291.767 177.768 291.657 177.797 291.518V291.314C177.922 290.956 177.534 291.993 178.112 290.408H178.163L178.375 290.488L178.784 290.649L179.617 290.978C180.713 291.416 181.807 291.869 182.898 292.337C184.36 292.958 185.821 293.564 187.239 294.237C189.762 295.425 192.245 296.69 194.685 298.029C195.906 298.694 197.119 299.381 198.339 300.098L199.238 300.638L199.881 301.04C199.947 301.121 200.013 301.04 200.079 300.989L200.378 300.806L201.262 300.251C203.36 298.958 205.479 297.664 207.605 296.436C210.306 294.805 213.128 293.383 216.046 292.183C217.909 291.504 216.185 293.82 213.02 295.421C210.2 296.882 207.423 298.395 204.682 300.01L202.636 301.238L201.613 301.859L200.21 302.736L199.969 302.882L199.728 302.736L199.245 302.436L198.573 302.019L197.565 301.391C196.885 300.967 196.198 300.565 195.504 300.149C192.099 298.207 188.591 296.453 184.995 294.894C183.49 294.212 181.972 293.557 180.443 292.929L178.141 292.015L177.849 291.906L177.71 291.847H177.637H177.578C177.578 291.314 177.578 293.031 177.578 290.656L177.922 290.605H177.973L178.601 290.751L179.77 291.043C180.764 291.204 181.795 291.409 182.789 291.621C185.412 292.191 187.999 292.848 190.608 293.287C192.544 293.67 194.522 293.79 196.49 293.645C198.432 293.198 200.347 292.644 202.227 291.986C203.689 291.499 205.15 290.975 206.612 290.415L207.671 289.998L207.912 289.889L208.124 289.772L208.636 289.479L208.906 289.341L209.052 289.268L209.264 289.18C209.4 289.115 209.548 289.078 209.699 289.071C209.85 289.065 210 289.09 210.141 289.143L211.303 289.56L213.218 290.239C215.593 291.131 216.309 291.518 216.667 292.103C216.762 292.224 216.84 292.357 216.901 292.498C217.018 292.885 215.951 292.761 214.182 292.183C212.872 291.755 211.549 291.304 210.214 290.831L209.769 290.678C209.769 290.678 209.725 290.678 209.71 290.678L209.505 290.78L209.074 291.021C208.895 291.13 208.71 291.228 208.519 291.314L207.985 291.533L206.962 291.928C204.244 292.936 201.489 293.879 198.632 294.697C198.098 294.851 197.557 294.989 196.973 295.114L196.469 295.187C196.308 295.187 196.169 295.187 196.023 295.187C195.73 295.187 195.438 295.223 195.153 295.187C194.016 295.188 192.88 295.107 191.755 294.946C189.563 294.646 187.37 294.164 185.266 293.696L185.215 293.725Z" fill="#12111F"/>
<path d="M175.443 273.132C175.144 270.764 174.815 268.397 174.442 266.036L173.989 263.457L173.894 262.887V262.748V262.623C173.894 262.51 173.876 262.396 173.843 262.287L173.448 262.485L173.346 262.536L173.171 262.616L172.623 262.865C171.175 263.527 169.654 264.018 168.092 264.326C166.723 264.621 165.332 264.804 163.934 264.874C162.138 265.041 160.328 264.89 158.585 264.428C158.029 264.246 158.234 263.88 158.753 263.595C159.472 263.237 160.276 263.082 161.076 263.15C164.483 263.449 167.914 263.028 171.146 261.915C171.621 261.725 172.104 261.513 172.608 261.301L174.873 260H174.939V260.088L174.976 260.256L175.041 260.592L175.173 261.272L175.429 262.58C175.524 263.128 175.626 263.668 175.721 264.209C176.123 266.599 176.452 268.996 176.803 271.393C177.015 272.854 177.197 274.316 177.38 275.828C177.665 278.065 177.855 280.323 178.111 282.559C178.271 284.291 178.498 285.993 178.608 287.725C178.608 288.113 178.659 288.456 178.673 288.873C178.673 290.334 178.535 290.773 178.118 291.065C178.029 291.138 177.93 291.199 177.826 291.248C177.504 291.357 177.256 290.773 177.205 289.786C176.985 286.775 176.686 283.589 176.342 280.381C176.072 277.999 175.809 275.602 175.473 273.22L175.443 273.132Z" fill="#12111F"/>
<path d="M204.694 274.038C204.417 271.897 204.153 269.763 203.927 267.622C203.839 266.84 203.715 266.065 203.635 265.29L203.152 260.153L204.818 260.723L205.549 260.957L205.849 261.045L206.09 261.11C206.74 261.279 207.398 261.417 208.056 261.52C209.215 261.686 210.393 261.654 211.542 261.425C212.968 261.083 214.322 260.489 215.539 259.671C215.926 259.43 216.153 259.766 216.065 260.336C215.979 260.732 215.802 261.104 215.549 261.421C215.295 261.738 214.972 261.992 214.604 262.163C213.009 262.923 211.253 263.279 209.488 263.2C208.635 263.174 207.786 263.069 206.952 262.886C206.311 262.766 205.684 262.58 205.082 262.331L204.826 262.207C204.828 262.645 204.867 263.083 204.943 263.515C205.038 264.34 205.14 265.174 205.235 266.007C205.469 268.148 205.71 270.289 206.002 272.423C206.173 273.738 206.363 275.049 206.572 276.354C206.901 278.335 207.237 280.322 207.72 282.252C208.106 283.723 208.58 285.17 209.137 286.585C209.269 286.885 209.408 287.17 209.532 287.477C209.703 287.87 209.852 288.272 209.978 288.682C210.008 288.805 210.014 288.933 209.996 289.059C209.977 289.184 209.934 289.305 209.868 289.413C209.82 289.517 209.763 289.617 209.7 289.713C209.481 289.99 209.013 289.654 208.48 288.807C207.187 286.188 206.27 283.401 205.754 280.527C205.301 278.393 204.965 276.23 204.628 274.082L204.694 274.038Z" fill="#12111F"/>
<path d="M125.992 290.115C125.904 290.502 125.716 290.859 125.447 291.15C125.177 291.442 124.836 291.657 124.457 291.774C122.304 292.588 120.136 293.36 117.953 294.091C116.075 294.726 114.168 295.267 112.282 295.881C109.045 296.926 105.808 298 102.578 299.067C101.621 299.374 100.656 299.681 99.706 300.003C98.756 300.324 97.8937 300.653 96.9875 300.974C96.84 301.042 96.6856 301.093 96.5271 301.128C96.434 301.153 96.3352 301.147 96.2456 301.112C96.1559 301.076 96.0803 301.012 96.0301 300.93C95.9798 300.847 95.9576 300.751 95.9669 300.655C95.9761 300.559 96.0163 300.468 96.0813 300.397C96.1252 300.309 96.1617 300.178 96.2348 300.156C96.9656 299.908 97.3383 299.228 98.0983 298.994C99.4867 298.57 100.831 297.986 102.198 297.481C102.748 297.277 103.304 297.094 103.864 296.933C104.595 296.729 105.326 296.561 106.056 296.349C108.015 295.786 124.274 290.378 124.713 290.261C125.136 290.187 125.563 290.139 125.992 290.115Z" fill="#12111F"/>
<path d="M122.769 293.923C123.116 293.709 123.48 293.523 123.857 293.368L124.142 293.273C124.318 293.273 124.267 293.221 123.989 293.192C123.93 293.265 123.938 293.506 123.901 293.601C123.657 294.22 123.271 294.773 122.776 295.216C122.166 295.832 121.483 296.372 120.744 296.824C120.668 296.863 120.602 296.921 120.553 296.991C120.504 297.062 120.473 297.144 120.464 297.23C120.455 297.315 120.467 297.402 120.499 297.481C120.531 297.561 120.583 297.632 120.649 297.686C120.84 297.788 121.056 297.832 121.271 297.813C121.486 297.795 121.691 297.716 121.862 297.584C123.232 296.79 124.393 295.683 125.253 294.354C125.633 293.704 126.086 292.527 125.158 292.125C124.23 291.723 122.849 292.461 122.023 292.944C121.029 293.514 121.935 294.405 122.754 293.923H122.769Z" fill="#12111F"/>
<path d="M124.515 295.347C124.785 295.149 125.143 294.967 125.399 294.755C125.691 294.674 125.713 294.623 125.457 294.587C125.403 294.552 125.339 294.534 125.275 294.536C125.275 294.536 125.165 294.894 125.15 294.923C124.872 295.492 124.51 296.017 124.076 296.479C123.492 297.18 122.873 297.851 122.22 298.489C122.16 298.547 122.117 298.62 122.095 298.7C122.073 298.781 122.073 298.865 122.094 298.946C122.116 299.026 122.158 299.1 122.218 299.158C122.277 299.216 122.351 299.258 122.432 299.278C122.642 299.34 122.865 299.343 123.076 299.286C123.288 299.229 123.48 299.115 123.63 298.957C124.73 297.943 125.699 296.796 126.517 295.544C126.824 295.054 127.248 294.272 126.795 293.746C125.91 292.731 124.142 294.075 123.404 294.609C122.469 295.274 123.857 295.822 124.515 295.339V295.347Z" fill="#12111F"/>
<path d="M126.421 295.494C126.509 295.414 127.24 294.8 127.152 294.763C127.276 294.844 127.152 295.231 127.116 295.326C126.929 295.798 126.656 296.232 126.312 296.605C125.734 297.15 125.222 297.761 124.784 298.424C124.419 299.155 125.515 299.805 125.888 299.067C126.228 298.55 126.631 298.076 127.086 297.657C127.662 297.068 128.101 296.359 128.373 295.582C128.494 295.258 128.512 294.904 128.423 294.57C128.334 294.236 128.142 293.938 127.876 293.718C127.028 293.185 126.078 294.047 125.523 294.617C124.967 295.187 125.844 296.079 126.421 295.516V295.494Z" fill="#12111F"/>
<path d="M121.832 292.672C122.088 292.621 122.132 292.672 122.015 292.818C121.863 292.984 121.694 293.133 121.511 293.264C120.508 293.953 119.46 294.576 118.376 295.127C117.374 295.69 118.273 296.662 119.106 296.18C120.1 295.624 121.109 295.069 122.073 294.448C122.582 294.158 123.037 293.782 123.418 293.337C123.552 293.18 123.647 292.994 123.697 292.793C123.746 292.593 123.748 292.384 123.703 292.182C123.425 291.24 122.241 291.298 121.467 291.452C120.4 291.678 120.736 292.913 121.796 292.665L121.832 292.672Z" fill="#12111F"/>
<path d="M185.375 249.434C185.375 248.235 185.375 247.044 185.294 245.86C185.294 245.429 185.199 244.998 185.148 244.574C185.043 243.062 184.776 241.565 184.352 240.109C184.14 239.466 183.884 238.838 183.584 238.231C183.145 237.469 182.78 236.666 182.495 235.834C182.342 235.301 183.833 235.374 184.271 236.287C185.14 237.935 185.737 239.711 186.04 241.549C186.178 242.66 186.434 243.741 186.544 244.903C186.653 246.065 186.697 247.373 186.712 248.593V250.851C186.712 251.991 186.712 253.131 186.712 254.25C186.712 255.126 186.88 255.974 186.99 256.822C186.99 257.012 187.055 257.195 187.077 257.385C187.15 258.115 187.077 258.313 186.734 258.495C186.657 258.542 186.576 258.584 186.493 258.62C186.222 258.722 185.967 258.451 185.835 257.933C185.499 256.34 185.332 254.716 185.338 253.088C185.338 251.875 185.338 250.654 185.338 249.434H185.375Z" fill="#12111F"/>
<path d="M193.968 247.81C193.968 246.517 193.968 245.245 193.909 243.966C193.909 243.506 193.836 243.045 193.807 242.578C193.743 240.944 193.594 239.315 193.361 237.696C193.247 236.981 193.089 236.273 192.886 235.577C192.638 234.685 192.28 233.838 192.119 232.924C192.009 232.347 193.515 232.588 193.858 233.655C194.444 235.528 194.785 237.468 194.874 239.428C194.932 240.605 195.115 241.796 195.188 242.987C195.261 244.295 195.291 245.596 195.305 246.897L195.342 249.286C195.342 250.492 195.4 251.698 195.539 252.874C195.665 253.775 195.853 254.666 196.102 255.542L196.27 256.112C196.445 256.842 196.438 257.069 196.116 257.325C196.054 257.391 195.983 257.447 195.904 257.493C195.656 257.646 195.349 257.405 195.13 256.864C194.526 255.221 194.174 253.497 194.085 251.749C193.982 250.433 193.968 249.118 193.931 247.825L193.968 247.81Z" fill="#12111F"/>
<path d="M186.734 258.319C186.481 258.314 186.231 258.369 186.003 258.479C185.901 258.529 185.814 258.605 185.752 258.701C185.69 258.796 185.656 258.907 185.652 259.02C185.652 259.671 185.835 260.482 186.566 260.657C186.809 260.717 187.066 260.69 187.292 260.581C187.517 260.471 187.697 260.286 187.801 260.058C187.913 259.8 187.936 259.512 187.867 259.239C187.814 259.054 187.721 258.883 187.595 258.738C187.469 258.592 187.312 258.477 187.136 258.399C187.009 258.345 186.872 258.318 186.734 258.319Z" fill="#12111F"/>
<path d="M188.09 261.067C187.831 261.264 187.524 261.39 187.201 261.431C186.878 261.472 186.549 261.427 186.249 261.301C186.025 261.228 185.82 261.106 185.65 260.943C185.407 260.676 185.25 260.342 185.197 259.986C185.168 259.839 185.153 259.69 185.153 259.54C185.142 259.365 185.142 259.189 185.153 259.014C185.174 258.697 185.312 258.4 185.54 258.181C185.692 258.036 185.871 257.921 186.066 257.844C186.17 257.808 186.278 257.786 186.388 257.779C186.483 257.778 186.577 257.795 186.665 257.83C186.892 257.918 186.505 259.24 186.607 259.255C186.709 259.269 186.607 259.255 186.57 259.255C186.534 259.255 186.461 259.211 186.424 259.511C186.404 259.6 186.409 259.694 186.44 259.781C186.471 259.868 186.527 259.944 186.6 260C186.662 260.061 186.74 260.103 186.825 260.123C186.911 260.142 186.999 260.138 187.082 260.11C187.204 260.077 187.308 259.998 187.374 259.891C187.44 259.792 187.479 259.678 187.487 259.56C187.494 259.442 187.471 259.324 187.418 259.218C187.367 259.145 187.3 259.084 187.221 259.041C187.142 258.997 187.055 258.973 186.965 258.97H186.87C186.804 258.97 186.775 258.882 186.76 258.517V258.268C186.76 257.991 186.848 257.742 187.126 257.713C187.559 257.71 187.977 257.871 188.295 258.164C188.614 258.457 188.81 258.86 188.843 259.291C188.882 259.615 188.842 259.944 188.726 260.249C188.605 260.577 188.401 260.869 188.134 261.096L188.09 261.067Z" fill="#12111F"/>
<path d="M195.905 257.04C195.652 257.033 195.401 257.088 195.174 257.2C195.07 257.248 194.981 257.324 194.918 257.42C194.855 257.515 194.82 257.627 194.816 257.741C194.816 258.399 194.999 259.203 195.73 259.378C195.973 259.438 196.23 259.411 196.456 259.301C196.681 259.192 196.861 259.007 196.965 258.779C197.078 258.521 197.101 258.233 197.031 257.96C196.979 257.775 196.887 257.603 196.76 257.458C196.634 257.312 196.477 257.197 196.3 257.12C196.175 257.067 196.041 257.04 195.905 257.04Z" fill="#12111F"/>
<path d="M197.263 259.789C197.004 259.986 196.698 260.112 196.375 260.154C196.052 260.196 195.723 260.154 195.422 260.03C195.199 259.954 194.995 259.832 194.823 259.672C194.582 259.396 194.43 259.055 194.384 258.693C194.355 258.546 194.341 258.397 194.34 258.247C194.329 258.074 194.329 257.901 194.34 257.728C194.358 257.411 194.497 257.113 194.728 256.895C194.877 256.745 195.056 256.628 195.254 256.552C195.357 256.515 195.466 256.493 195.575 256.486C195.67 256.485 195.765 256.502 195.853 256.537C196.079 256.625 195.692 257.947 195.794 257.962C195.897 257.977 195.794 257.962 195.758 257.962C195.721 257.962 195.648 257.925 195.612 258.218C195.591 258.308 195.597 258.401 195.628 258.488C195.659 258.575 195.714 258.651 195.787 258.707C195.85 258.768 195.928 258.811 196.013 258.83C196.098 258.849 196.187 258.845 196.269 258.817C196.391 258.784 196.496 258.705 196.562 258.598C196.617 258.501 196.646 258.393 196.649 258.282C196.652 258.171 196.627 258.061 196.576 257.962C196.525 257.888 196.458 257.827 196.379 257.784C196.301 257.741 196.213 257.717 196.123 257.714C196.092 257.706 196.06 257.706 196.028 257.714C195.963 257.714 195.933 257.618 195.919 257.253V257.005C195.919 256.727 196.006 256.478 196.284 256.449C196.717 256.446 197.135 256.607 197.454 256.9C197.772 257.193 197.968 257.596 198.001 258.028C198.037 258.365 197.989 258.707 197.862 259.022C197.734 259.336 197.531 259.615 197.271 259.833L197.263 259.789Z" fill="#12111F"/>
<path d="M251.238 284.7C251.656 284.908 252.054 285.152 252.429 285.43C252.576 285.517 252.715 285.615 252.846 285.723C253.299 286.111 253.726 286.529 254.125 286.972L254.658 287.535C254.884 287.78 255.085 288.047 255.257 288.332C255.316 288.397 255.309 288.419 255.257 288.332C255.199 288.266 255.016 288.222 254.848 288.127C254.252 287.833 253.696 287.462 253.197 287.024C252.883 286.776 252.556 286.547 252.217 286.337C251.852 286.095 251.487 285.847 251.114 285.606C250.887 285.467 250.646 285.328 250.383 285.204L249.828 284.934C249.638 284.846 249.44 284.787 249.25 284.714C248.944 284.619 248.637 284.575 248.33 284.488L248.125 284.444C247.991 284.414 247.859 284.375 247.73 284.327C247.73 284.327 247.818 284.327 248.015 284.276C248.634 284.12 249.279 284.095 249.908 284.203C250.381 284.289 250.84 284.436 251.275 284.641L251.238 284.7Z" fill="#12111F"/>
<path d="M173.617 196.211C176.971 194.347 181.926 194.384 183.695 198.403C185.039 201.458 183.556 207.633 180.771 209.679C179.909 210.315 181.217 210.753 181.809 210.322C185.31 207.757 187.217 200.34 184.593 196.744C181.97 193.149 176.555 193.354 172.952 195.371C172.01 195.897 172.872 196.642 173.632 196.218L173.617 196.211Z" fill="#12111F"/>
<path d="M186.849 218.258C186.614 218.354 186.369 218.423 186.118 218.462C185.874 218.474 185.63 218.462 185.388 218.426C185.213 218.401 185.039 218.364 184.869 218.316C184.372 218.067 183.938 217.71 183.597 217.271C183.458 217.096 183.305 216.935 183.173 216.767C183.01 216.546 182.884 216.299 182.801 216.036C182.801 215.978 182.801 215.949 182.801 216.036C182.935 216.076 183.072 216.106 183.21 216.124C183.708 216.21 184.18 216.407 184.591 216.701C184.933 216.851 185.295 216.952 185.665 217.001C185.791 217.023 185.92 217.023 186.045 217.001C186.22 216.981 186.39 216.934 186.55 216.862C186.823 216.735 187.07 216.559 187.28 216.343C187.456 216.175 187.587 215.971 187.763 215.788L187.887 215.664C187.98 215.589 188.077 215.52 188.179 215.459C188.174 215.539 188.174 215.62 188.179 215.7C188.179 215.956 188.179 216.248 188.179 216.541C188.122 216.829 188.029 217.109 187.902 217.374C187.777 217.569 187.635 217.752 187.478 217.922C187.294 218.091 187.09 218.239 186.871 218.36L186.849 218.258Z" fill="#12111F"/>
<path d="M188.048 196.731C189.555 195.819 191.273 195.316 193.034 195.272C194.795 195.227 196.537 195.642 198.088 196.475C198.717 196.804 198.213 195.13 197.745 194.882C196.122 194.008 194.301 193.569 192.458 193.608C190.616 193.646 188.814 194.161 187.229 195.101C186.725 195.393 187.573 197.008 188.048 196.731Z" fill="#12111F"/>
<path d="M194.997 284.803C194.072 284.891 193.151 284.934 192.235 284.934C191.899 284.934 191.57 284.978 191.241 284.934C190.072 284.934 188.917 284.81 187.77 284.759C187.264 284.73 186.756 284.73 186.25 284.759C185.609 284.854 184.96 284.876 184.314 284.825C183.904 284.752 184.314 283.422 185.096 283.363C186.444 283.286 187.798 283.338 189.137 283.517C189.946 283.586 190.759 283.601 191.57 283.561C192.462 283.561 193.346 283.561 194.223 283.466C194.771 283.429 195.304 283.356 195.838 283.268C196.247 283.195 196.642 283.1 197.044 283.012C197.446 282.925 197.833 282.786 198.206 282.625C198.578 282.464 198.768 282.355 199.039 282.201L199.821 281.697C199.937 281.624 200.032 281.529 200.149 281.456C200.566 281.171 200.749 281.164 201.048 281.405C201.114 281.463 201.187 281.514 201.246 281.573C201.443 281.777 201.384 282.084 201.085 282.369C200.139 283.218 199.012 283.838 197.789 284.182C196.879 284.455 195.948 284.65 195.005 284.766L194.997 284.803Z" fill="#12111F"/>
<path d="M194.989 289.749C194.158 289.78 193.325 289.755 192.497 289.676C192.197 289.676 191.905 289.676 191.606 289.625C190.568 289.486 189.559 289.274 188.551 289.121C188.111 289.053 187.666 289.021 187.221 289.026C186.662 289.084 186.099 289.084 185.54 289.026C185.365 288.989 185.357 288.638 185.489 288.295C185.538 288.112 185.637 287.946 185.775 287.817C185.913 287.688 186.085 287.6 186.271 287.564C187.506 287.555 188.736 287.72 189.925 288.054C190.627 288.202 191.341 288.293 192.059 288.324C192.833 288.408 193.611 288.444 194.39 288.434C194.878 288.429 195.366 288.397 195.851 288.339C196.573 288.258 197.283 288.099 197.971 287.864C198.48 287.667 198.969 287.423 199.432 287.133L199.739 286.928C200.134 286.716 200.302 286.731 200.565 287.009C200.623 287.074 200.689 287.133 200.74 287.199C200.908 287.425 200.842 287.71 200.557 287.93C199.67 288.622 198.646 289.12 197.554 289.391C196.727 289.599 195.883 289.731 195.033 289.786L194.989 289.749Z" fill="#12111F"/>
</svg>
