<svg xmlns="http://www.w3.org/2000/svg" width="380" height="380" fill="none">
  <path fill="#12111f" d="M221.96 324.46c-6.23 1.27-12.98-.1-18.63-2.88a34 34 0 0 1-3.48-1.93q4.94-1.28 9.9-2.67c1.29.8 3-.3 4.7-.54 3-.43 2.4 2.49 5.4 2.7 1.47.1 7.72-.84 8.89.2 3.27 2.93-5.17 4.79-6.78 5.12"/>
  <path fill="#12111f" d="M215.19 317.39a6 6 0 0 0-2.04.34q-1.35.5-2.78.4a3 3 0 0 1-.68-.2h-.11l-1.2.3-2.36.6-3.45.93-.44.08c-.12 0-.44.05-.2.15q.16.13.38.26l.1.07.28.15.69.37q2.73 1.43 5.69 2.35 2.63.78 5.36 1.02 3.47.23 6.93-.2c.73-.08.73.33.16.82-.89.7-1.98 1.1-3.12 1.14-5.03.2-10.04-.91-14.52-3.23q-.99-.5-1.98-1.04l-.73-.4-.8-.47-1.5-.94-.39-.25-.19-.12-.1-.06s-.08-.04 0-.05l.85-.26a32 32 0 0 1 1.73-.5l2.73-.73 4.75-1.22 1.36-.34.23-.05.22.11.3.14q.23.08.44.08a8 8 0 0 0 2.2-.47 9 9 0 0 1 1.58-.31q.93-.12 1.79.3.74.46 1.26 1.15.41.55.97.93c.58.33 1.25.48 1.92.4.73 0 1.51-.08 2.28-.13a30 30 0 0 1 4.65-.05c1.18-.03 3.06 1.19 2.38 2.92q-.5.93-1.42 1.47-.78.49-1.64.85-.73.32-1.46.58c-1.88.59-2.53.58-3.02.27l-.32-.22c-.25-.29.47-.68 1.77-1.12q1.44-.49 2.83-1.12.65-.32 1.23-.73.42-.27.65-.74v-.13c0-.07-.06-.09-.08-.14-.01-.05-.1-.11-.16-.18l-.1-.1-.05-.05.19-.2-.05.04-.1.11h-.1l-.25-.06c-.1 0-.2-.05-.32-.05a20 20 0 0 0-3.1 0l-2.44.15c-.4 0-.82.06-1.26.07h-.73l-.78-.11a4.3 4.3 0 0 1-2.54-1.71q-.3-.4-.69-.73-.28-.2-.63-.22zm-55.36-51.68c5.15.13 10-.56 14.45-3.32 1.07-.66-1.46-.4-1.96-.1-3.37 2.08-6.97 2.45-10.84 2.36-.57 0-2.93 1.04-1.65 1.06m44.28-2.77c3.36 1.16 7.11.85 10.49-.14 1.5-.44 1.17-1.81-.38-1.37-2.78.92-5.78.94-8.57.06-.86-.3-2.97.96-1.54 1.46zm-183.98-33.7c.73 1.7.58 3.23 1.24 4.96 1.71-.73 1.61-3.31 2.19-4.82a4.6 4.6 0 0 0-3.43-.14"/>
  <path fill="#12111f" d="M19.07 229.52c.62 1.6.66 3.34 1.24 4.96.2.59 1.36.15 1.7 0 2.07-1.01 1.94-3.33 2.59-5.23.08-.26-.23-.34-.4-.39q-.74-.25-1.52-.39-1.37-.08-2.69.31c-.27.07-1.03.35-.92.73s.92.25 1.18.2c.88-.2 1.8-.13 2.63.2l-.4-.39c-.44 1.3-.35 3.7-1.76 4.38h1.7c-.57-1.61-.62-3.35-1.24-4.96-.26-.66-2.35-.03-2.11.58M114 331.87a2.4 2.4 0 0 1-2.2.73q-3.57-.43-7.16-1c-2.05-.32-4.08-.73-6.13-1.07q-5.26-.89-10.56-1.74-1.55-.27-3.12-.52c-1.04-.16-2-.28-3-.42q-.24 0-.5-.08a.44.44 0 0 1-.28-.64.4.4 0 0 1 .2-.18c.08-.06.19-.16.26-.15.77.11 1.46-.3 2.29-.15 1.5.27 3.03.4 4.55.58q.9.12 1.8.3c.73.15 1.53.35 2.3.5 2.09.42 19.81 3.26 20.28 3.37.46.1.66.27 1.27.47m-12.52-9.31c0-.85.2-1.09.45-1.19q1.29-.52 2.62-.88c.73-.22 1.53-.33 2.3-.52.64-.16 1.32-.32 1.92-.5.59-.16 1.18-.46 1.87-.72q.69-.2 1.4-.2.55.03 1.09-.05c.05 0 .1-.04.15 0a.7.7 0 0 1 .16.73c0 .06-.03.17-.06.17-.3.06-.55.52-.88.5q-.77-.09-1.46.26-.3.15-.62.23l-.88.23c-.46.17-2.3.58-4.05 1.04-1.75.45-3.4.94-3.48.95q-.27 0-.53-.05M61.7 330.8c.35-.8.73-.98 1.06-1.06.6-.1 1.13-.38 1.9-.54q.3-.06.56-.08l.5-.06.96-.12c1.11-.15 2.25-.24 3.36-.44 1.92-.33 3.82-.79 5.7-1.3q.82-.22 1.66-.48a35 35 0 0 0 1.8-.65c.26 0 .43.33.36.65 0 .07 0 .18-.07.2-.4.15-.59.73-1.03.84-.82.22-1.6.59-2.4.86q-.5.16-1 .26-.64.11-1.3.2c-.58.12-3.3.74-5.97 1.11q-1.01.13-1.95.22-.79.03-1.55.23a9 9 0 0 1-1.8.35q-.4-.05-.8-.19"/>
  <path fill="#12111f" d="M113.76 319.35c.05.92-.2 1.2-.47 1.3q-1.36.54-2.78.9c-.82.22-1.64.34-2.45.52-1.4.3-2.75.65-4.14 1.02l-1.23.31-1.16.37c-.06 0-.12.07-.2.05-.19-.05-.32-.43-.27-.73 0-.07 0-.19.04-.2.3-.09.41-.66.73-.72q.9-.26 1.73-.62.37-.12.73-.17c.31-.06.63-.07.94-.12.44-.09 2.4-.53 4.27-.98s3.6-.94 3.7-.96q.27-.02.56.03m-9.13-2.84c.24 0 .48-.25.73-.37q1.28-.64 2.63-1.11 1.17-.35 2.38-.54 1.03-.2 2.08-.32l.59-.04q.23-.02.47.04c.16 0 .26.16.4.24q.18.16.33.35l.18.34q.13.28.22.58a5 5 0 0 1-.1 2.6l-.06.19c-.03.06-.07.2-.06.08v-.1a2 2 0 0 0-.24-.84 4 4 0 0 0-.73-1.5c-.1-.16-.26-.32-.3-.4v-.1c0-.04 0 0-.1 0-.36 0-2.27.45-4.12.69-.93.12-1.84.2-2.54.23s-1.19 0-1.24 0z"/>
  <path fill="#12111f" d="m117.55 330.44-.06.31-.23.32q-.33.3-.73.48a6 6 0 0 1-1.8.44q-1.9.1-3.77-.27c-1.04-.2-2-.4-3.05-.54l-3.07-.46-6.13-.95-12.27-1.93c-3.56-.56-7.03-1.41-10.5-2.2q-2.62-.6-5.22-1.3c-1.73-.49-3.45-.95-5.18-1.53a15 15 0 0 1-1.17-.45 3 3 0 0 1-.9-.55 1 1 0 0 1-.25-.42c0-.17-.04-.32 0-.5l.2-1.3q.09-.54.22-1.11.14-.6.4-1.18.3-.71.9-1.2.18-.13.4-.21.19-.1.42-.13l.41-.05h.3q.63.01 1.16.1 1.1.11 2.19.29c2.86.45 5.68 1 8.49 1.56L95.2 321l5.33 1.06 5.32 1.13q5.09 1.08 10.18 2.24l.68.16.18.03.29.12q.15.04.3.13l.06.04c.06-.04.06 0 .08 0l.13.11q.23.28.38.6c.4.95.2 1.56.06 1.7-.15.15-.35-.07-.62-.57-.13-.24-.33-.44-.46-.65l-.14-.22c-.07-.13-.24-.1-.35-.15l-.44-.08q-.45-.09-.9-.14-.9-.12-1.77-.2a31 31 0 0 1-3.7-.59c-5.11-1.2-10.26-2.1-15.42-3.04q-3.1-.58-6.17-1.22l-7.88-1.7c-.93-.2-2.79-.58-5.84-1.18q-2.32-.47-5.61-.99-.83-.12-1.7-.21-.44-.05-.86-.05H66l-.08.06a2.7 2.7 0 0 0-.63 1.37l-.2 1-.13.88v.07q.02.03.06.05h.07l.33.13q.72.28 1.46.52 1.6.5 3.36.97c2.36.66 4.9 1.25 7.55 1.85s5.37 1.22 8.08 1.7l8.1 1.31 13.59 2.2c.9.15 1.68.25 2.43.41l1.82.46c1.04.2 1.67.27 1.81.29q.92.15 1.94.22.54.06 1.08 0 .52-.04.91-.38"/>
  <path fill="#12111f" d="M60.35 327.97q.05-.43.26-.8a7 7 0 0 1 2.27-1.84q1.1-.52 2.27-.82 1.97-.6 4.03-.78l1.22-.06q.59-.03 1.17 0h.3-.1q-.4.15-.77.4c-.55.22-1.07.52-1.6.77q-.3.15-.65.24c-.28.1-.58.12-.86.18l-3.91 1.09c-.86.23-1.7.46-2.3.67a4 4 0 0 0-1.01.47.8.8 0 0 0-.32.48m25.01-1.71a2 2 0 0 1-1.57 1.23q-2.78.57-5.48 1.46-1.2.35-2.45.63l-2.46.5c-2.77.6-5.57 1.29-8.43 1.75q-.63.1-1.27.18-.74.09-1.46 0a3 3 0 0 1-1.46-.68 4 4 0 0 1-1.05-1.67c0-.4.32-.59.73-.44.08 0 .2.05.24.1.23.6.9.79 1.2 1.02a1.6 1.6 0 0 0 1.3.23l.83-.16.89-.2q.7-.13 1.46-.24c.61-.09 1.24-.14 1.85-.25.42-.06 1.6-.31 3.16-.66l2.56-.57q1.39-.29 2.76-.65c1.84-.5 3.66-1.06 5.12-1.36q1.26-.29 2.54-.39.5.05.99.17m12.93-29.7a5.3 5.3 0 0 1-3.2-2.14 33 33 0 0 1-6.25-11.45l-.07-.27s.05-.08-.15.18l-.82 1.11a104 104 0 0 1-3.43 4.38 52 52 0 0 0-5.17 7.8 34 34 0 0 0-3.35 8.63 17 17 0 0 0-.38 5.34 15 15 0 0 0 1.76 5.62c.25.68 0 1.05-.53.74a1 1 0 0 1-.36-.27c-.65-1.23-1.55-2.12-1.9-3.62a19 19 0 0 1-.1-8.4l.4-1.63q.25-.8.54-1.58.77-1.98 1.76-3.86a52 52 0 0 1 3.7-6.27c1-1.46 2.2-3.1 3.54-4.67q.94-1.2 1.9-2.5l2.3-3.15.86-1.15.1-.14.06-.07s0-.07.04 0l.07.34.16.68.31 1.4q.08.36.18.7l.1.38q.41 1.42 1 2.8 1.03 2.43 2.43 4.68a49 49 0 0 0 3.16 4.42c.37.52.72 1.1 1.34 1.97m.6 26.32a2 2 0 0 1 .73-1.76 18 18 0 0 0 3.54-3.92 14 14 0 0 0 1.98-4.03q.53-1.85.26-3.76-.35-1.93-1.31-3.61a17 17 0 0 0-2.7-3.74 1 1 0 0 1-.25-.3.5.5 0 0 1 .08-.45.5.5 0 0 1 .44-.18h.24c.4.45 1.1.5 1.46 1.03.74.97 1.5 1.9 2.13 2.96q.4.63.65 1.34.31.9.5 1.86.36 1.64.19 3.32c-.21 1.85-.8 3.63-1.74 5.24a17 17 0 0 1-5.22 5.63q-.47.25-.98.37"/>
  <path fill="#12111f" d="M92.53 319.9c.7-.63 1.2-1.45 1.46-2.36.81-2.8-1.18-5.85-2.65-8.37-.37-.65-4.39-6.54-3.9-7.17-6.8 8.93-2.88 15.1-1.68 16.62z"/>
  <path fill="#12111f" d="M92.56 319.93c.6-.7 1-1.55 1.12-2.46a6.6 6.6 0 0 0-1.05-4.32q-.57-1-1.25-2l-.68-1-.68-.97a48 48 0 0 1-2.33-3.55l-.27-.47-.14-.23v-.28c0-.04 0 0-.05.04q-.06.07-.11.18-.45.7-.82 1.46l-.38.73-.3.77q-.3.78-.5 1.6a11 11 0 0 0 .23 6.47q.33.93.82 1.79c.08.14.2.31.17.28h.12l1.04.27q1.98.53 3.94 1.13l.66.22c.55.22.68.25.26.2l-.32-.04-2.97-.5-3.07-.56-.2-.05-.15-.16-.23-.32a10 10 0 0 1-1.11-2.06q-.48-1.16-.67-2.41a12 12 0 0 1-.05-3.18c.24-1.83.8-3.6 1.66-5.22.32-.6.67-1.2 1.1-1.9l.74-1 .36-.52.09-.12v-.06.04h.07c.06 0 .05-.14.05.11v.5l.11.34a17 17 0 0 0 .89 1.76q.6 1.08 1.25 2.08l1.3 2.04q.62 1 1.18 2a17 17 0 0 1 1.7 3.74q.42 1.44.14 2.93-.14.62-.44 1.2a5 5 0 0 1-1.23 1.5m-24.32-.11a2.3 2.3 0 0 1 2.2-.44q3.34.82 6.65 1.76c1.9.53 3.78 1.13 5.68 1.63q4.9 1.27 9.92 1.93l2.98.43 2.87.4q.24.01.48.08a.4.4 0 0 1 .07.73c-.07.05-.17.14-.24.12-.73-.11-1.4.26-2.2.12-1.45-.25-2.87-.33-4.32-.5q-.87-.1-1.73-.26-1.1-.22-2.2-.47c-.49-.1-1.93-.36-3.8-.79s-4.12-1.05-6.34-1.68l-8.84-2.5c-.33-.12-.66-.3-1.18-.56m48.08 7.68c-.08 0-.07.17-.1.24q-.1.36-.15.73l-.13.4v.27q-.02.18.06.44c.07.17 0 .2.05.33v.44c-.05-.06-.17-.05-.27-.09s-.35-.14-.52-.24l-.16-.16-.11-.29a1.46 1.46 0 0 1 1.18-2.07zm-46.22-3.04c.51-.73.8-.84 1.04-.77q1.17.28 2.3.65c.66.2 1.29.48 1.94.67q1.68.5 3.42.8.51.1 1.02.16.5.05 1 .06h.16c.05 0 .12.52 0 .8-.03.07-.07.18-.1.17-.26 0-.53.48-.81.43q-.79-.09-1.58-.09-.3-.01-.61-.12c-.26-.08-.5-.2-.73-.28-.23-.07-2.03-.5-3.59-1.01a55 55 0 0 1-3.07-1.1q-.22-.16-.4-.37m30.21-1.8c-.32-.85-.27-1.1-.14-1.2l1.27-1.2c.37-.34.79-.64 1.15-1q.91-.95 1.7-2l.45-.62q.2-.33.35-.66-.01-.08.06-.1.45.04.73.38c.05.05.13.12.13.14-.1.18.25.6.11.73q-.31.53-.56 1.08a2 2 0 0 1-.3.38q-.23.21-.47.4c-.16.14-1.06 1.21-2 2.07q-.93.88-2.02 1.57-.22.06-.46.03m-65.45-83.52c2.5-.56 5.12-.04 7.57.67q12.47 3.54 24.92 7.25c7.13 2.12 14.23 4.38 21.36 6.54q18.39 5.56 36.78 11.08c3.65 1.08 7.24 2.19 10.87 3.27q5.22 1.54 10.43 3.03c.59.18 1.22.32 1.75.53 1.46.58 1.62 1.22.4 1.3a3 3 0 0 1-.86 0c-2.7-.79-5.04-.73-7.88-1.62-5.23-1.61-10.54-3-15.81-4.52q-3.16-.9-6.3-1.9c-2.68-.84-5.33-1.74-8.04-2.58-7.3-2.3-69.02-20.8-70.64-21.32-1.27-.45-2.52-.96-4.55-1.73m136.59-71.19c-2.73-4.53-4.79-10.23-6.58-15.9q-9.15-28.5-17.8-57.16l-1.97-6.66-.04.05-.97 2c-.73 1.62-1.65 3.09-2.49 4.62q-1.24 2.32-2.6 4.56l-2.74 4.44c-1.8 2.99-3.77 5.85-5.66 8.77s-3.9 5.75-5.85 8.63a1074 1074 0 0 1-26.08 35.85c-8.9 11.8-18.04 23.44-27.2 35.04q-8.1 10.27-16.33 20.46L39.46 232.2c-.88 1.1-1.78 2.27-2.66 3.26-2.36 2.68-3.31 2.97-1.97.68q.45-.86 1.03-1.64c4.07-5.03 6.79-9.5 11.1-14.78 7.97-9.8 15.75-19.74 23.52-29.74l9.37-11.93c4-5.07 8.04-10.12 11.97-15.23 2.82-3.7 11.23-14.57 21.5-28.76l7.96-11.22 4.1-5.97q1.08-1.51 2.09-3.06l2.03-3.11c1.36-2.1 2.78-4.17 4.09-6.31l3.95-6.44 3.66-6.58q.47-.81.84-1.66l.8-1.67 2.68-5.56 4.83 16.26q2.06 6.78 3.97 13.16l6.95 22.65 7.07 22.58c.91 3.01 1.72 6.02 3.1 10.83m176.73 51.27c-1.33 2.12-3.46 3.56-5.66 4.8l-22.04 12.54-19.06 10.63a5167 5167 0 0 0-32.63 18.59l-9.62 5.5-9.16 5.39q-.74.48-1.54.89c-1.38.63-1.96.33-1.2-.58q.24-.36.59-.61c2.37-1.4 3.9-3.1 6.43-4.53 4.66-2.63 9.22-5.46 13.83-8.19a222 222 0 0 1 5.6-3.19l7.2-3.93 33.32-18.85c14.71-8.3 28.87-16.08 29.61-16.48 1.17-.61 2.4-1.12 4.33-1.98"/>
  <path fill="#12111f" d="M145.47 84.04c5.8-.97 12.52-1.02 19.16-.93 22.21.25 44.46-.07 66.61-1.63a383 383 0 0 0 28.46-3.02q7.07-1.05 14.03-2.63a92 92 0 0 0 13.53-4.22l4.11-1.82.85 4.18.61 2.92 1.28 5.85q1.31 5.84 2.72 11.6a659 659 0 0 0 5.98 23.1 603 603 0 0 0 14.36 45.46 374 374 0 0 0 10.88 27 226 226 0 0 0 12.9 24.6l1.24 2.03q.65.98 1.23 1.93c2.05 3.36 2.1 4.45.16 2.24q-.74-.78-1.38-1.65c-3.9-6.07-7.36-10.77-10.82-17.6a384 384 0 0 1-16.67-38.97 390 390 0 0 1-5.5-16.08 666 666 0 0 1-6.15-20.75c-.74-2.63-2.27-7.96-4.58-16.73a710 710 0 0 1-6.3-25.9l-1.23-5.56-1.03-4.85-.8.36c-.67.28-1.31.61-2 .86-1.37.49-2.76 1.05-4.22 1.52a81 81 0 0 1-4.48 1.34c-1.56.4-3.1.84-4.71 1.19a221 221 0 0 1-20.46 3.56c-14.28 1.8-29.39 2.72-43.23 3.21-27.7.93-50.37.17-51.95.15-3.56-.14-7.03-.38-12.6-.76"/>
  <path fill="#12111f" d="M280.77 47.92c2.45 2.72 4.24 6.38 5.85 10.05l15.9 36.91c4.57 10.6 9.03 21.2 13.65 31.8a2266 2266 0 0 0 24.37 54.24l3.73 7.95 3.85 7.88c1.2 2.53 2.52 5 3.81 7.49l1.94 3.71c.63 1.25 1.36 2.45 2.03 3.66.47.8.99 1.65 1.37 2.45 1.04 2.14.84 2.92-.37 1.58q-.48-.45-.84-1c-1.07-1.9-2.2-3.51-3.31-5.17a50 50 0 0 1-3.17-5.46c-1.96-3.78-3.8-7.6-5.72-11.4q-2.86-5.7-5.6-11.46a331 331 0 0 1-4.3-9.25l-5.25-11.93c-2.41-5.41-13.8-30.92-24.35-55.54A6582 6582 0 0 1 283.38 55c-.8-1.94-1.46-3.93-2.61-7.08"/>
  <path fill="#12111f" d="M291.1 71.65c-.69-1.1-.56-1.64-.27-2.06a60 60 0 0 1 3.03-4c.92-1.11 1.94-2.13 2.89-3.21l4.91-5.54q.74-.81 1.46-1.63c.48-.56.86-1.09 1.26-1.62.07-.1.1-.2.2-.26.26-.12.73.14.95.55.05.1.13.23.1.28-.32.44-.06 1.23-.45 1.66-.74.78-1.3 1.7-1.94 2.53q-.39.5-.84.95c-.39.37-.82.73-1.2 1.1-.53.52-2.84 3.1-5 5.62-2.15 2.53-4.13 4.99-4.25 5.12q-.4.3-.86.51m-72.2 146.29a7.4 7.4 0 0 1 3.73 3.4q4.45 7.18 8.77 14.41l7.35 12.5q6.42 10.7 13 21.29 1.95 3.13 3.93 6.23c1.33 2.06 2.6 3.92 3.9 5.85q.36.46.65.98c.44.91.1 1.41-.64 1.02-.17-.09-.4-.16-.5-.32-1.02-1.5-2.41-2.34-3.44-3.98-1.89-3.02-3.95-5.94-5.9-8.93q-1.17-1.78-2.26-3.65l-2.72-4.75-13.1-21.75c-5.76-9.64-11.2-18.9-11.47-19.4-.4-.78-.72-1.61-1.3-2.9M128.16 57.1q.04-.08.13-.12c.06 0 .07-.05.14-.05q.22 0 .42.1.47.18.87.47a10 10 0 0 1 1.55 1.31q1.43 1.53 2.55 3.3c5.02 7.74 9.6 15.72 14.14 23.72 3.88 6.9 7.61 13.89 11.4 20.82q9.78 17.86 19.45 35.85l5.7 10.62 5.55 10.13c.31.56.68 1.14.92 1.7.66 1.51.35 2.11-.58 1.23q-.37-.27-.64-.66c-1.46-2.61-3.17-4.38-4.64-7.16-2.72-5.12-5.64-10.18-8.47-15.28a276 276 0 0 1-3.3-6.16l-4.1-7.92c-1.9-3.6-10.97-20.46-19.91-36.47-4.46-8.04-8.89-15.82-12.33-21.66a245 245 0 0 0-6.2-10.06l-1.19-1.9c-.22-.34-.45-.73-.73-1.07l-.42-.52c-.15-.16-.16-.15-.2-.19l-.05-.03z"/>
  <path fill="#12111f" d="M165.45 60.2a35 35 0 0 1-3.45 5.85 86 86 0 0 1-4.38 5.65l-30.83 37c-8.87 10.6-17.85 21.11-26.77 31.67a7104 7104 0 0 1-46.3 54.25q-6.92 7.96-13.9 15.86l-6.68 7.57-3.35 3.77-3.4 3.75c-.73.83-1.52 1.74-2.28 2.49-2.05 2.03-2.93 2.15-1.76.3q.36-.69.85-1.3c3.51-3.85 5.8-7.38 9.5-11.48q2.56-2.84 5.07-5.69l5-5.77 9.92-11.6 7.96-9.24 10.28-11.73c4.68-5.35 26.3-30.85 46.94-55.43S158.2 68.06 159.3 66.9c1.64-1.93 3.4-3.73 6.14-6.68m191.02 156.13c.73 1.7.59 3.23 1.24 4.96 1.72-.73 1.62-3.3 2.2-4.82a4.6 4.6 0 0 0-3.44-.14"/>
  <path fill="#12111f" d="M355.4 216.64c.62 1.6.67 3.34 1.24 4.96.2.55 1.1.43 1.47.23 2.22-1.1 2.1-3.38 2.8-5.44.09-.27-.23-.48-.44-.54a12 12 0 0 0-1.58-.41 8 8 0 0 0-2.63.29c-.37.09-1.03.43-.9.9.14.48.88.43 1.22.34a4.5 4.5 0 0 1 2.63.16l-.44-.53c-.38 1.13-.33 3.59-1.55 4.19l1.5.24c-.57-1.62-.62-3.36-1.24-4.96-.29-.84-2.39-.23-2.08.57m-96.36 66.47c.73 1.71.59 3.24 1.25 4.96 1.71-.72 1.62-3.3 2.2-4.81-.92-.21-1.35-.7-3.45-.15"/>
  <path fill="#12111f" d="M257.96 283.4c.62 1.6.67 3.35 1.25 4.96.21.6 1.05.59 1.53.35 2.2-1.07 2.03-3.33 2.71-5.32a.6.6 0 0 0 0-.52.6.6 0 0 0-.4-.33q-.78-.26-1.59-.43a7 7 0 0 0-2.64.27c-1.31.33-.92 1.8.4 1.47a4.5 4.5 0 0 1 2.6.12l-.4-.84c-.4 1.2-.35 3.65-1.62 4.31l1.52.35c-.57-1.62-.62-3.36-1.24-4.96-.35-.96-2.45-.36-2.12.57m-101.64-36.86c-.13-.18 0-.37.27-.6q.2-.1.44-.08.16.12.3.28c.05.06.46 1.1.62 1.46q.21.51.33 1.04l.55 2.16q.06.24.08.49a8 8 0 0 0 .45 1.93q.33.89.49 1.82c0 .5.1 1 .14 1.46q.03.11 0 .22a.7.7 0 0 0 0 .47q.07.3.08.63 0 .18-.07.35c0 .1-.23.1-.26.08s-.15 0-.22.05h-.09q-.42-.59-.73-1.23l-.29-.9-.33-1.02q-.05-.15-.05-.32c0-.05-.46-1.4-.47-1.46a3 3 0 0 1-.14-1.05q-.2-.72-.32-1.46-.09-.39-.2-.73v-.15q.03-.09 0-.17c-.16-.6-.25-1.2-.45-1.79-.04-.14-.07-.82-.13-.98-.06-.15.06-.43 0-.5m-89.61-1.31c1.15-3.84 3.57-7.5 6.13-11q12.84-17.53 25.27-35.35a1121 1121 0 0 0 21-30.93 608 608 0 0 0 8.3-13.15l4.03-6.63 5.62-9.5L139 150.1l1.46 8.2 2.92 16.36q1.69 9.35 3.5 18.69 1.74 8.93 3.65 17.83c.2 1 .47 2.04.6 3 .37 2.56-.14 3.28-.99 1.5a6 6 0 0 1-.56-1.3c-.97-4.6-2.5-8.12-3.44-13.01-1.71-9.02-3.65-18.02-5.38-27.04q-1.03-5.42-1.95-10.86c-.8-4.64-1.47-9.27-2.25-13.88l-.74-4.23-.54.89q-1.27 2.18-2.93 4.92c-1.1 1.84-2.36 3.86-3.7 6.04-1.33 2.18-2.81 4.49-4.34 6.93a972 972 0 0 1-21.4 32.1A1295 1295 0 0 1 72 238.96c-1.43 1.8-2.93 3.5-5.28 6.28m73.32 18.48c-8.66-2.49-16.54-6.26-25.31-8.68s-18.27-3.58-26.65-6.83c-1-.39-4.27-2.34-5.37-2l15.49 1.51a590 590 0 0 0 38.73 12.26z"/>
  <path fill="#12111f" d="M140.17 263.28c-2.41.24-5.02-.44-7.5-1.3-4.16-1.46-8.24-3.02-12.37-4.38q-6.19-2.1-12.59-3.45c-3.65-.8-7.37-1.56-11.05-2.5a90 90 0 0 1-5.48-1.56q-1.37-.44-2.7-.94l-.69-.26c-.26-.1-.47-.21-.73-.32l-1.26-.63a27 27 0 0 0-1.61-.73 6 6 0 0 0-1.1-.3h-.16v-.05l-.14-1.46 15.6 1.53 4.71 1.68 4.66 1.58a563 563 0 0 0 20.31 6.38l4.52 1.3 4.76 1.34 1.2 1.42c.4.47.83.95 1.18 1.42.92 1.27.84 1.8-.13 1.11a4 4 0 0 1-.67-.53c-.39-.46-.74-.88-1.16-1.3l-.58-.6-.5-.49h-.18l-.28-.05-.56-.1-1.13-.23c-.73-.15-1.56-.34-2.39-.58-5.32-1.58-10.7-3.04-16.01-4.67a222 222 0 0 1-6.36-2.04c-2.69-.92-5.36-1.9-8.04-2.85l-3.72-1.34-15.4-1.53-3.93-.4 3.8-.94q.55-.15 1.12 0 .45.1.88.25.84.3 1.64.74l1.64.8q.39.2.81.35l.9.33q3.9 1.38 7.94 2.33c5.64 1.37 11.82 2.45 17.43 4.03 5.62 1.57 10.56 3.55 14.25 4.92s6.1 2.2 6.4 2.32c1.35.45 2.61.98 4.67 1.7"/>
  <path fill="#12111f" d="M82.85 249a7.7 7.7 0 0 1 4.16.14 324 324 0 0 0 13.73 3.06l5.93 1.25c1.97.42 3.95.83 5.95 1.32 6.82 1.7 13.31 4.38 19.73 7.02l5.7 2.35a297 297 0 0 0 6.4 2.5c.74.39.8.8.13.83q-.24.04-.48 0c-1.46-.54-2.73-.56-4.22-1.17q-4.16-1.69-8.33-3.26l-3.3-1.36q-2.09-.91-4.2-1.78c-.96-.37-3.7-1.46-7.39-2.63a69 69 0 0 0-6.1-1.62c-2.2-.47-4.55-.95-6.84-1.42-4.6-.94-9.1-1.91-12.49-2.74-3.38-.82-5.67-1.46-5.9-1.54-.7-.22-1.38-.52-2.48-.95m71.98-161.59c2.58.84 4.89 2.62 7.05 4.5a609 609 0 0 0 22.03 18.47 267 267 0 0 0 19.92 14.56c11.83 7.73 24.5 14.29 37.9 18.7a117 117 0 0 0 12.04 3.33c1.95.46 3.91.78 5.85 1.13.98.19 1.97.29 2.92.44.96.14 1.98.3 2.97.38.67.06 1.37.1 2 .2 1.67.31 2.03.85.73 1.08q-.46.13-.94.13c-1.55-.17-2.97-.13-4.38-.2q-2.28-.03-4.53-.42a143 143 0 0 1-17.83-4.39c-2.34-.73-4.64-1.6-6.92-2.5a148 148 0 0 1-8.55-3.86 189 189 0 0 1-25.36-14.58 261 261 0 0 1-11.62-8.35 388 388 0 0 1-20.2-16.55 619 619 0 0 1-9.29-8.23c-1.06-1.03-2.09-2.1-3.8-3.84"/>
  <path fill="#12111f" d="M165.56 89.01c2.16.5 4.2 1.42 6 2.72q2.36 1.53 4.7 3.12c.79.52 1.57 1.1 2.32 1.65l2.27 1.64q2.26 1.69 4.57 3.22 2.31 1.56 4.67 3.1a180 180 0 0 0 16.62 9.69q7.41 3.68 15.18 6.57 7.79 2.79 15.85 4.63l4.79.93c1.6.28 3.21.47 4.82.7l1.16.15 1.16.1 2.33.17c.77.05 1.55.14 2.32.15l2.33.04q.78-.01 1.57.05c1.32.16 1.63.66.65 1q-.36.17-.73.2c-2.43-.05-4.39.58-7 .29q-7.17-.6-14.23-1.98c-1.87-.44-3.74-.87-5.59-1.39-2.33-.73-4.67-1.46-6.96-2.3-1.57-.56-6.1-2.07-11.79-4.62a166 166 0 0 1-18.96-9.96 200 200 0 0 1-16.86-11.54 134 134 0 0 0-5.54-3.85c-1.39-.92-2.24-1.55-2.4-1.66a34 34 0 0 1-3.25-2.82m-59.12 159.56q.77.15 1.55.15c1.8.16 3.6.27 5.4.52q2.34.36 4.6 1.03 1.95.53 3.84 1.27 1.92.78 3.66 1.93 1 .66 1.96 1.33l1.87 1.28.31.22c.27.2.35.21.13.13l-.16-.06c-.54-.24-1.04-.26-1.64-.46-1.08-.42-2.2-.8-3.25-1.2a17 17 0 0 1-1.24-.53c-.4-.19-1-.52-1.51-.73-.34-.14-1.4-.5-2.8-.93a129 129 0 0 0-4.86-1.37 81 81 0 0 1-4.7-1.36 30 30 0 0 1-2.2-.81c-.28-.12-.54-.26-.96-.41M96.6 300.3c.92-.19 1.22.4 1.16.81-.1.67-.37 1.3-.8 1.8-.42.57-1.02.97-1.69 1.17a2.3 2.3 0 0 1-1.95-.34 3.6 3.6 0 0 1-1.12-1.36 5 5 0 0 1-.45-1.33q-.16-.76.05-1.53a2.2 2.2 0 0 1 1.1-1.34 3 3 0 0 1 1.53-.31 4.6 4.6 0 0 1 3.04 1.4q.13.1.18.27c.06.3-.32.48-.65.48h-.2c-.2-.29-.73-.07-.94-.24-.45-.29-1-.4-1.53-.32l-.53.07a1 1 0 0 0-.5.2q-.11.15-.15.32-.08.44 0 .86c.13.73.67 1.63 1.27 1.72.61.1 1.36-.49 1.67-1.02q.3-.4.32-.9.12-.2.18-.41m74.34-.63a1.2 1.2 0 0 1-.98-.4c-.08-.09-.05-.32.06-.34a6 6 0 0 1 .7-.1 43 43 0 0 1 5.3.56q2.19.4 4.34.92.46.1.94.26c1.07.36 2.16.64 3.24.96q.27.09.55.12a33 33 0 0 1 6.65 2.55q.38.25.8.43.57.27 1.13.56.27.15.52.35c.15.11 0 .2-.07.19-.19 0-.08.1-.09.15v.06l-.38-.1-.83-.25-1.36-.44-1.73-.64-2-.66q-.3-.1-.57-.23c-.09-.04-2.77-.81-2.88-.83q-.84-.22-1.65-.53l-.33-.1-2.88-.76c-.5-.13-1-.21-1.46-.32l-.26-.08-.34-.1c-1.19-.22-2.35-.49-3.55-.64-.27-.03-1.57-.33-1.89-.35-.25-.02-.82-.25-.98-.24"/>
  <path fill="#12111f" d="M94.95 299.36c-.73 0-2.52.18-2.25 1.26a3 3 0 0 0 2.26 1.95c.63.07 2.38-.13 2.27-1.06-.08-.78-1.04-1.46-1.7-1.75q-.52-.1-1 .12c-.07 0-.74.31-.5.4q.77.3 1.27.96.2.24.31.53.04.12.05.23c0 .23-.22.27.2.1.42-.2.12-.12-.12-.25q-.23-.12-.44-.28a4 4 0 0 1-1.01-1.38v-.29q0-.09.06-.16-.98.21-.42.21.6 0 1.12-.3.38-.26-.07-.3zm84.82-94.71a1 1 0 0 0 .8 0q.15-.08.29-.2c.45-.34.76-.84.85-1.4q.1-.45.08-.88v-1.2q0-.16 0 0c0 .1.22.25.35.47a3 3 0 0 1 .47 2.6 3.6 3.6 0 0 1-.93 1.64 2.4 2.4 0 0 1-2.07.48 2 2 0 0 1-1.11-.68q-.55-.7-.69-1.58a6 6 0 0 1-.13-1.19v-.25c0-.31.05-.43.04-.5v-.05s.04.09.2.3c.15.21.38.66.58.98q.24.43.52.82.19.22.4.42.15.1.3.17zm9.67-1.05a1 1 0 0 0 .85.12q.18-.06.32-.17c.52-.3.9-.78 1.06-1.35q.14-.45.18-.89c.06-.4.08-.8.17-1.22q0-.16.03 0c.04.11.2.29.3.51a3.1 3.1 0 0 1 .13 2.73 3.6 3.6 0 0 1-1.15 1.53 2.4 2.4 0 0 1-2.2.24 2.2 2.2 0 0 1-1.04-.83c-.3-.5-.48-1.09-.5-1.69q-.08-.61 0-1.22v-.27c.04-.33.1-.44.1-.5v-.05l.15.33a45 45 0 0 0 .89 1.98q.15.26.36.49.13.15.3.22z"/>
  <path fill="#12111f" d="M217.8 186.05c-2.63-10.52-17.97-21.55-30.89-12.77-.16.1-8.22-3.65-14.8-1.8-8.85 2.44-13.4 9.9-15.49 18.39a39 39 0 0 0-.9 12.87c.41 4.56 2.79 10.3-.69 14.22-4.26 4.8-8.11 12.31-5.5 18.75 3.2 7.9 12.43 10.4 20.47 8.82q1.67-3.3 3.82-6.3c6-8.22 13.47-12.27 23.38-7.72 5.52 2.53 8.62 8.35 10.92 14.41 12.23-3.16 8.2-14.68 8.2-14.68-2.5-7.75-1.58-15.12.83-22.7a41 41 0 0 0 .66-21.5m-17.31 19.3a1.8 1.8 0 0 0-1.17 1.41c-.98 5.85-3.33 13.89-8.57 17.1-12.76 7.79-18.54-19.52-19.9-29.58 3.42.21 10.87.13 16.18-6.08 0 0 3.92 11.44 10.48 10.23 2.07-3.48 7.7-4.33 8.04.73.23 3.86-3.28 5.59-5.06 6.19"/>
  <path fill="#12111f" d="M179.3 194.39a22 22 0 0 1-6.88.89h-.52v.18l.06.47.17 1.09q.17 1.1.38 2.19a87 87 0 0 0 2.56 10.51 41 41 0 0 0 4.5 10.23 12 12 0 0 0 3.76 3.85 6 6 0 0 0 5.02.6 10 10 0 0 0 4.05-2.52 16 16 0 0 0 2.82-3.97 31 31 0 0 0 2.26-5.92 55 55 0 0 0 .78-3.1l.33-1.56.08-.4q.02-.17.1-.44.16-.51.51-.92.32-.37.8-.5c.2 0 .3 0 .3.08.01.08-.27.45-.43.95q-.15.4-.08.83v1.36a17 17 0 0 1-.54 3.4 35 35 0 0 1-2.34 6.39 18 18 0 0 1-4.2 5.58 11 11 0 0 1-3.07 1.88c-1.15.5-2.4.72-3.65.68a7.6 7.6 0 0 1-3.52-1.14 11 11 0 0 1-2.7-2.36q-1.36-1.59-2.37-3.42-1.03-1.8-1.85-3.72-1.63-3.81-2.72-7.82a97 97 0 0 1-1.98-8.76l-.36-2.2-.18-1.16-.24-1.74v-.25h.72l.83.04h1.3q1.1 0 2.19-.12 2.68-.26 5.2-1.24a16 16 0 0 0 4.5-2.7l.46-.41.25-.22.34-.35c.44-.46.87-.97 1.29-1.36l.46 1.27q.11.32.24.61l.22.53q.35.8.73 1.57a22 22 0 0 0 1.78 2.96q1 1.4 2.31 2.48c.84.7 1.85 1.16 2.93 1.33q.64.09 1.3 0c.1-.1.13-.2.33-.48s.38-.44.57-.65a6.5 6.5 0 0 1 3-1.69q.88-.2 1.78-.1a3.7 3.7 0 0 1 2.84 2.18q.4.84.44 1.78a5.7 5.7 0 0 1-2.03 5.02q-.62.54-1.36.9a3 3 0 0 1-2.28.31c-.2-.1 0-.32.51-.66q1.18-.72 2.2-1.64a5 5 0 0 0 1.3-2.05c.22-.78.23-1.61.03-2.4a2.4 2.4 0 0 0-1.16-1.68 3 3 0 0 0-2.13-.08 5 5 0 0 0-2.08 1.26l-.4.46q-.3.5-.69.94l-.69.1-.35.03h-.23q-.45.04-.9 0a7 7 0 0 1-3.26-1.23q-1.37-.92-2.43-2.2a20 20 0 0 1-2.4-3.58 27 27 0 0 1-.94-1.9l-.2-.44-.12.11-.48.43q-.98.86-2.06 1.56a18 18 0 0 1-4.66 2.15z"/>
  <path fill="#12111f" d="M177.94 234.9a38 38 0 0 0-5.97 8l-.61 1.1-.33.6-.28.53c-.06.09-.07.21-.16.25l-.29.04-1.6.26-1.32.13q-2.68.2-5.32-.18c-3.6-.47-6.96-2-9.69-4.38a15 15 0 0 1-3.2-4.39 12.4 12.4 0 0 1-1.28-5.27c-.01-2.63.54-5.22 1.62-7.61a28 28 0 0 1 4.03-6.53l.55-.65.51-.62q.47-.56.8-1.22.65-1.38.72-2.92.03-3.22-.68-6.36a33 33 0 0 1-.57-6.7q0-3.36.57-6.67a35 35 0 0 1 4.66-12.53 22 22 0 0 1 4.46-5.11 19 19 0 0 1 5.88-3.33c.73-.21 1.37-.47 2.1-.63q1.08-.24 2.2-.33 2.2-.15 4.38.17a32 32 0 0 1 6.28 1.52l1.01.35.37.13h.12l.1-.08.59-.37q.36-.22.73-.4.73-.41 1.46-.74a18 18 0 0 1 6.92-1.57 20 20 0 0 1 7.55 1.32q1.8.7 3.47 1.66a25 25 0 0 1 5.92 4.81 21 21 0 0 1 4.07 6.47c.56 1.5.56 2.23.41 2.2-.15-.05-.53-.74-1.18-1.85a29 29 0 0 0-8.63-9.25 20.5 20.5 0 0 0-10.23-3.7 17 17 0 0 0-7.94 1.5c-.42.17-.8.42-1.21.62q-.3.16-.6.35l-.78.49-.26.1-.13.05h-.06v-.07h-.31q-.15.02-.28-.04l-.28-.1-.2-.06-.28-.1-1.1-.39q-1.08-.37-2.18-.66-2.21-.62-4.48-.85a17 17 0 0 0-4.45.1q-.56.1-1.08.24l-1.07.33q-.55.16-1.06.39c-.34.15-.73.26-1.03.44a18.5 18.5 0 0 0-6.92 5.7 28 28 0 0 0-4.17 8.18 36 36 0 0 0-1.82 9.08q-.16 2.3-.05 4.6t.53 4.58q.5 2.35.74 4.74a11 11 0 0 1-.64 4.97q-.51 1.2-1.37 2.2-.75.85-1.46 1.77a28 28 0 0 0-2.46 3.86c-1.55 2.93-2.56 6.27-2.2 9.5a12.3 12.3 0 0 0 4.79 8.24c2.69 2 5.89 3.18 9.23 3.4q2.51.22 5.02-.1l1.05-.17h.07v-.06l.07-.13.29-.54q.63-1.13 1.3-2.27a39 39 0 0 1 3.76-5.24 27 27 0 0 1 4.71-4.44 15.8 15.8 0 0 1 12.44-2.93q1.22.22 2.4.6c.38.14.78.23 1.16.4l1.14.47q2.31.97 4.2 2.63a25 25 0 0 1 5.65 8q.54 1.08 1 2.18l.42 1.06.14.36.08.18s0 .08.04.06h.08l.79-.25q.56-.15 1.09-.41 1.07-.45 2.02-1.11a9.2 9.2 0 0 0 4.08-7.77 13 13 0 0 0-.62-4.4l-.26-.9c-.2-.6-.33-1.21-.49-1.82a33 33 0 0 1-.8-7.42q.06-3.73.81-7.38.37-1.81.87-3.6c.34-1.2.73-2.37 1-3.52a40 40 0 0 0 1.05-6.23q.21-2.5.16-5c0-1.39-.1-2.5-.16-3.4a37 37 0 0 1-.18-3.8q-.03-.58 0-1.17c.06-.41.37.16.78 1.59q.87 3.31 1 6.74c.2 4.53-.35 9.07-1.65 13.42a43 43 0 0 0-2.14 13.04q.02 3.34.79 6.58.18.8.42 1.6l.24.79q.15.46.25.92.44 1.8.44 3.65 0 1.9-.55 3.72a9 9 0 0 1-.73 1.78q-.21.43-.47.84l-.58.77-.3.39-.34.34-.73.67q-.33.33-.73.58l-.79.54a15 15 0 0 1-3.4 1.52l-1.23.4-.61.2h-.08v-.06l-.06-.14-.1-.28-.42-1.1-.32-.8q-.47-1.18-1.01-2.32-1.04-2.3-2.43-4.39a15.3 15.3 0 0 0-7.35-6.11q-1.14-.48-2.32-.81l-1.2-.27q-.6-.14-1.2-.2-1.2-.14-2.41-.11l-1.2.11c-.4 0-.78.16-1.18.22q-2.37.57-4.46 1.84a23 23 0 0 0-3.84 3.08zm-45.84 60.29a4 4 0 0 1-2.34 1.03.24.24 0 0 1-.26-.16.2.2 0 0 1 0-.16q.04-.08.12-.12.62-.49 1.22-1.02c.13-.1 1.2-.94 2.43-2q1.66-1.46 3.57-2.55c1.6-.73 3.22-1.38 4.85-2.04l4.95-2q2.4-1.05 4.56-2.54l1.94-1.28a55 55 0 0 0 7.25-5.92c.24-.26 1.7-1.63 3.13-3.07s2.84-2.92 3.17-3.26a69 69 0 0 0 5.33-5.99q.75-.77 1.3-1.7.84-1.22 1.46-2.56.31-.61.42-1.28c0-.39.23-.24.26-.07.11.45.17.09.25 0 .07-.1.05-.05.07 0q.1.53-.04 1.06a9 9 0 0 1-.73 2.07q-.76 1.6-1.77 3.08a62 62 0 0 1-2.77 3.63 118 118 0 0 1-3.38 3.9c-.33.36-.73.73-1.08 1.08-.09.09-1.31 1.38-2.57 2.63a91 91 0 0 1-2.69 2.55 36 36 0 0 1-3.28 2.71q-.36.25-.68.53a50 50 0 0 1-6.04 4.21 23 23 0 0 1-3.35 1.74l-.63.23-.8.29c-2.7 1.1-5.44 2.15-8.12 3.3q-1.03.42-1.95 1.05-.97.64-1.89 1.36c-.36.29-1.62 1.01-1.92 1.27"/>
  <path fill="#12111f" d="M119.41 289.44c0 .06-.08.12-.06.2a.3.3 0 0 0 .12.15q.14.13.29.22.13.12.36.26l.67.35c.3.15.2.45-.2.43q-.27.02-.56-.06-.42-.06-.83-.17-.77-.16-1.37-.68l-.16-.23a1 1 0 0 1-.1-.4 1 1 0 0 1 .28-.6 2.7 2.7 0 0 1 2.05-.81h.78l.67.04c.45 0 .96.12 1.36.17q2.33.14 4.57-.53 3.4-.9 6.57-2.41a72 72 0 0 0 6.35-3.51q3.15-1.86 6.2-3.85l2.67-1.78q1.16-.77 2.27-1.59 1.08-.8 2.05-1.74a28 28 0 0 0 4.41-5.75c.23-.41 1.67-2.76 2.98-5.22s2.59-5.01 2.93-5.6c1.52-2.85 3-5.76 4.5-8.64q.28-.63.65-1.22a27 27 0 0 0 1.46-2.63q.95-1.89 2-3.66.51-.9 1.13-1.72c.35-.52.35-.13.27.07-.27.58.07.18.16.18h.09l-.16.32-.4.84-1.24 2.6-1.98 4.33-5.77 11.94q-.47.93-.98 1.84c-.09.15-1.15 2.34-2.37 4.48a96 96 0 0 1-2.66 4.38 25 25 0 0 1-3.82 4.6l-.89.8a43 43 0 0 1-4.06 3.09q-2.1 1.42-4.23 2.74c-1.43.88-2.93 1.8-4.39 2.66l-.8.46c-.27.15-.68.36-1.02.57-3.5 2.15-7.3 3.8-11.26 4.88q-1.59.41-3.24.52-1.04.06-2.06-.08c-.65-.1-1.05-.18-1.32-.2l-1.16-.15q-.38-.09-.73.1zM208.27 247q-1.11-2.73-1.68-5.63c-.11-.54.2-.58.5 0a72 72 0 0 1 1.58 3.55c.16.36 1.33 3.5 2.61 7.05 1.29 3.55 2.92 7.4 3.72 9.34a51 51 0 0 0 2.83 5.38 37 37 0 0 0 3.6 4.9c2.63 3.18 5.58 6.16 9.37 7.42.47.17.95.28 1.42.42q.72.19 1.47.25.72.1 1.46.13l1.55.03q3.22.01 6.4.42 2.88.36 5.62 1.3a17 17 0 0 1 4.48 2.33q.53.38.98.83a9 9 0 0 1 .89.96l.27.36q.16.23.34.45l.24.45.1.36.2.73.1.36c.05.14 0 .2-.1.31a1 1 0 0 1-.5.28q-.4.07-.81 0-.53-.12-1.04-.28l-.84-.26-2.28-.69q-2.25-.64-4.57-.93a19 19 0 0 0-3.1-.09c-.4 0-1.78.07-3.65.24-1.87.18-4.22.5-6.75.63-2.38.03-4.76-.35-7.02-1.1q-1.98-.66-3.84-1.63a29 29 0 0 1-6.97-5.04 45 45 0 0 1-6.84-8.5c-.82-1.5-1.7-3-2.47-4.58-1.08-2.2-1.85-4.46-2.88-6.58-.5-1.07-.94-2.16-1.4-3.23-.44-1.07 0-.55.2-.23.53.94.23.12.25 0s0-.1.06-.06q.18.27.31.56l.73 1.46 1.05 2.04c.38.73.73 1.59 1.14 2.42q1.02 2.35 2.28 4.6a42 42 0 0 0 1.56 2.54c.05.08.73 1.2 1.9 2.75a44 44 0 0 0 4.73 5.36 27 27 0 0 0 9.88 6.22q1.64.6 3.33.98 1.35.28 2.7.33 2.84 0 5.63-.4c2.08-.25 4.2-.43 5.85-.46q1.5-.04 2.99.07 2.56.27 5.07.97 1.23.35 2.42.73l.3.1.14.05.13.06c.06 0 0-.1-.06-.14a4 4 0 0 0-.43-.52q-.34-.35-.73-.68l-.8-.6q-.4-.28-.84-.54a17 17 0 0 0-3.77-1.59 36 36 0 0 0-8.29-1.3c-1.46-.1-2.84-.06-4.38-.13q-2.27-.16-4.42-.91-.78-.27-1.52-.66-.48-.21-.93-.48c-.3-.19-.6-.34-.9-.54-3.1-1.98-5.42-4.71-7.6-7.4a41 41 0 0 1-5.48-9.04c-.37-.73-1.16-2.92-2.01-5.12-.85-2.19-1.56-4.46-1.89-5.32s-1.26-4.2-1.59-5.06"/>
  <path fill="#12111f" d="M248.7 301.67c-9.66 6.3-21.59 10.91-32.53 14.28-2.25.7-38.16 9.39-41.85 10.45-6.25 1.8-16.2 4.05-21.75-.67-5.97-5.06 8.4-2.07 12.06-5.31 2.12-1.9 5.24-1.42 7.46-.73a5.7 5.7 0 0 0 5.38-1.03c.6-.5 11.5-9.22 16.7-12.93q2.86-2.04 5.8-3.98c5.3-3.44 16.81-9.27 16.96-9.34 10.42-4.6 21.39-7.08 32.64-5.65a7.6 7.6 0 0 1 5.12 2.8c3.79 4.94-2.27 9.67-6 12.1"/>
  <path fill="#12111f" d="m186.99 312.41-7.04 5.47-1.74 1.4a7 7 0 0 1-4.75 1.6q-.65-.05-1.28-.22c-.45-.12-.73-.23-1.07-.31a8.4 8.4 0 0 0-4-.25q-.91.2-1.67.77-.47.41-1 .73-.56.31-1.16.52-2.25.68-4.6.82c-1.5.13-3 .2-4.44.35q-.75.07-1.5.25-.27.06-.54.17a.3.3 0 0 0-.15.14c-.21.04.69 1.04 1.46 1.57a12 12 0 0 0 5.64 2.15c3.65.48 7.44-.05 11.11-.87 1.86-.4 3.66-.97 5.55-1.46l5.59-1.38 22.35-5.4q4.95-1.2 9.9-2.45 1.24-.3 2.44-.65l2.42-.73q2.4-.78 4.8-1.63a137 137 0 0 0 23.5-10.78c2.29-1.4 2.2-.87.49.7q-1.83 1.54-3.84 2.85a53 53 0 0 1-5.98 3.29q-6.09 2.82-12.38 5.06-3.15 1.13-6.34 2.13c-1.07.33-2.09.68-3.23.96l-3.23.81c-8.63 2.12-17.27 4.15-25.96 6.2q-3.9.9-7.85 1.88c-1.3.33-2.65.66-3.93 1-1.29.36-2.65.74-4 1.05a40 40 0 0 1-8.33 1.12q-1.08.01-2.12-.05a19 19 0 0 1-4.2-.81 13 13 0 0 1-3.97-2.25 8 8 0 0 1-.87-.88q-.24-.3-.42-.63a2 2 0 0 1-.24-.86 1.6 1.6 0 0 1 .98-1.38q.33-.17.69-.27l.6-.15q1.15-.21 2.32-.3c1.5-.12 3-.19 4.47-.35q2.13-.16 4.1-1l.4-.26.18-.13.24-.2q.5-.41 1.08-.67a6 6 0 0 1 2.4-.61q2.39-.07 4.63.73a5 5 0 0 0 3.88-.52q.45-.25.85-.6l.88-.72 1.77-1.4q4.38-3.43 8.77-6.8c1.46-1.13 2.92-2.2 4.45-3.33s3.06-2.1 4.59-3.14a79 79 0 0 1 7.17-4.43q3.68-2.06 7.41-4l3.74-1.92.47-.24.26-.12.24-.1.97-.42q.97-.41 1.95-.79a76 76 0 0 1 7.97-2.66 61 61 0 0 1 12.76-2.13q3.23-.2 6.45 0c.54 0 1.07.1 1.61.14.55.04 1.07.08 1.65.2q1.71.34 3.17 1.3a7 7 0 0 1 2.13 2.2q.42.65.7 1.4a6 6 0 0 1-.36 4.26q-.46 1-1.15 1.85a14 14 0 0 1-2.19 2.23 10 10 0 0 1-3.9 2.06c-.37.05 0-.35.97-1.18q.73-.62 1.8-1.59 1.2-1.1 2.18-2.4c1.1-1.43 1.68-3.14 1.2-4.66-.06-.2-.17-.38-.24-.57s-.07-.19-.12-.27l-.19-.26-.35-.53-.42-.47a6 6 0 0 0-2.13-1.4q-.6-.24-1.24-.38-.67-.13-1.35-.18l-1.46-.14-1.46-.08q-2.93-.15-5.85.05a67 67 0 0 0-22.82 5.94l-3.95 2.04-3.97 2.1c-2.63 1.46-5.26 2.87-7.8 4.42-1.24.73-2.47 1.65-3.7 2.48q-1.88 1.24-3.7 2.53-3.62 2.65-7.18 5.43z"/>
  <path fill="#12111f" d="M199.98 301.8q-2.94 1.95-5.81 3.98a307 307 0 0 0-14.88 11.45c-10.18-.62-20.22-3.1-29.18-7.93-6.03-3.26-19.18-11.86-12.27-18.67 3.05-1.46 6.4-2.3 9.5-3.72 16.16-3.9 46.26 10.97 52.63 14.9"/>
  <path fill="#12111f" d="M145.96 288.53c-1.8.7-3.6 1.25-5.32 1.9l-1.29.5-.62.28-.3.14-.07.04a6 6 0 0 0-1.32 1.98 5.5 5.5 0 0 0 .69 4.67q1.42 2.31 3.45 4.11a45 45 0 0 0 6.5 4.79 66 66 0 0 0 26.97 9.27q1.6.2 3.19.33.66.09 1.32.06l1.13-.92 5.03-4.01c2.19-1.7 4.32-3.4 6.57-5.03s4.52-3.14 6.82-4.64c2.89-1.83.11 1.84-5 5.43-4.5 3.28-8.9 6.71-13.28 10.2l-.67.54-.1.08h-.38l-.47-.04-1.06-.08c-.74-.06-1.41-.15-2.12-.22a71 71 0 0 1-12.53-2.56 65 65 0 0 1-18.85-8.84 39 39 0 0 1-4.5-3.65 18 18 0 0 1-3.62-4.66 8 8 0 0 1-.84-2.96 6 6 0 0 1 .67-3.08q.18-.34.4-.67l.45-.62.55-.58.19-.19.25-.1.33-.16c.88-.4 1.78-.73 2.68-1.08l3.31-1.16 1.63-.61.8-.32.33-.2.25-.12.27-.06q3.51-.71 7.1-.55 5.36.27 10.59 1.52c3.46.8 6.86 1.83 10.23 2.93a168 168 0 0 1 15.14 5.9l3.24 1.46c4 1.96 5.19 2.8 5.8 3.66q.23.27.4.57c.2.5-1.46-.24-4.38-1.64a191 191 0 0 0-13.5-5.84 133 133 0 0 0-14.3-4.8 81 81 0 0 0-5.47-1.25 53 53 0 0 0-5.53-.8 33 33 0 0 0-5.53-.1c-.46 0-.91.07-1.36.13q-.68.06-1.34.2l-.67.13h-.15l-.3.13q-.68.3-1.36.57z"/>
  <path fill="#12111f" d="M216.94 292.44q-.27.1-.52.22a121 121 0 0 0-16.45 9.15 137 137 0 0 0-22.15-10.58l1.82.43c5.2.76 11.8 2.92 16.63 2.5 1.73-.15 10.69-3.23 11.86-3.74.24-.1 1.41-.82 1.66-.73z"/>
  <path fill="#12111f" d="M185.22 293.73c-1.92-.44-3.78-.88-5.7-1.2l-1.77-.43h-.05v-.17c.05-.16.07-.27.1-.41v-.2c.12-.36-.27.67.31-.91h.05l.22.08.4.16.84.33q1.65.66 3.28 1.36c1.46.62 2.92 1.22 4.34 1.9a135 135 0 0 1 11.1 5.86l.9.54.64.4c.07.08.13 0 .2-.05l.3-.18.88-.56q3.16-1.97 6.34-3.81a62 62 0 0 1 8.45-4.26c1.86-.68.13 1.64-3.03 3.24q-4.23 2.18-8.34 4.59l-2.04 1.23-1.03.62-1.4.88-.24.14-.24-.14-.48-.3-.68-.42-1-.63-2.07-1.24a108 108 0 0 0-10.5-5.26q-2.26-1.02-4.56-1.96l-2.3-.92-.3-.1-.13-.06h-.13v-1.2l.34-.04h.05l.63.14 1.17.3q1.51.24 3.02.57c2.62.57 5.2 1.23 7.82 1.67q2.91.57 5.88.35 2.91-.67 5.74-1.65 2.19-.74 4.38-1.57l1.06-.42.24-.11.21-.12.52-.3.27-.13.14-.07.21-.09a1.1 1.1 0 0 1 .88-.04l1.16.42 1.92.68c2.37.9 3.09 1.28 3.45 1.86q.14.19.23.4c.12.38-.95.26-2.72-.32q-1.96-.64-3.97-1.35l-.44-.15h-.06l-.2.1-.44.24q-.26.16-.55.3l-.53.21-1.03.4c-2.72 1-5.47 1.95-8.33 2.77q-.78.23-1.66.41l-.5.08h-.45c-.29 0-.58.03-.87 0q-1.7 0-3.4-.24c-2.19-.3-4.38-.79-6.48-1.25z"/>
  <path fill="#12111f" d="M175.44 273.13q-.44-3.55-1-7.1l-.45-2.57-.1-.57v-.27q0-.17-.05-.33l-.4.2-.1.05-.17.08-.55.25a20 20 0 0 1-4.53 1.46q-2.06.44-4.16.54-2.72.25-5.34-.44c-.56-.18-.36-.55.16-.83a4.4 4.4 0 0 1 2.33-.45c3.4.3 6.83-.12 10.07-1.23l1.46-.62 2.26-1.3h.07v.09l.04.17.06.33.13.68.26 1.31.3 1.63c.4 2.39.72 4.79 1.07 7.18q.31 2.18.58 4.44c.28 2.24.47 4.5.73 6.73.16 1.73.39 3.43.5 5.17 0 .38.05.73.06 1.14 0 1.46-.13 1.9-.55 2.2a1 1 0 0 1-.3.18c-.32.1-.56-.48-.61-1.46-.22-3.02-.52-6.2-.87-9.4-.27-2.4-.53-4.79-.87-7.17zm29.26.91q-.43-3.21-.77-6.42l-.3-2.33-.48-5.14 1.67.57.73.24.3.09.24.06q.97.25 1.97.41 1.75.25 3.48-.1 2.16-.51 4-1.75c.39-.24.61.1.53.67a2.6 2.6 0 0 1-1.47 1.82c-1.6.76-3.35 1.12-5.11 1.04a14 14 0 0 1-4.4-.87l-.26-.12q0 .66.11 1.3l.3 2.5a238 238 0 0 0 1.33 10.34c.33 1.98.67 3.97 1.15 5.9q.58 2.21 1.42 4.33l.4.9q.24.6.44 1.2a1 1 0 0 1-.11.73q-.07.15-.17.3c-.22.28-.69-.06-1.22-.9a31 31 0 0 1-2.73-8.28c-.45-2.14-.78-4.3-1.12-6.45zM126 290.12a2.3 2.3 0 0 1-1.54 1.65q-3.23 1.23-6.5 2.32c-1.88.64-3.8 1.18-5.68 1.8q-4.85 1.57-9.7 3.18-1.44.45-2.87.93c-.95.32-1.82.65-2.72.97q-.22.1-.46.16-.15.04-.28-.02a.45.45 0 0 1-.28-.46q.01-.15.11-.25c.05-.1.08-.22.15-.24.74-.25 1.1-.93 1.87-1.17 1.39-.42 2.73-1 4.1-1.5q.82-.32 1.66-.56l2.2-.58c1.95-.56 18.21-5.97 18.65-6.09q.64-.1 1.28-.14"/>
  <path fill="#12111f" d="M122.77 293.92q.52-.32 1.09-.55l.28-.1q.27-.02-.15-.08c-.06.07-.05.32-.09.41a4 4 0 0 1-1.12 1.62q-.92.92-2.04 1.6a.52.52 0 0 0-.1.86 1.1 1.1 0 0 0 1.22-.1 10 10 0 0 0 3.4-3.23c.37-.65.83-1.82-.1-2.23s-2.31.34-3.14.82c-1 .57-.08 1.46.73.98z"/>
  <path fill="#12111f" d="M124.52 295.35c.27-.2.62-.38.88-.6q.44-.12.06-.16a.3.3 0 0 0-.18-.05l-.13.38q-.42.86-1.07 1.56-.88 1.05-1.86 2a.46.46 0 0 0 0 .68q.09.09.21.12a1.2 1.2 0 0 0 1.2-.32 18 18 0 0 0 2.89-3.42c.3-.49.73-1.27.28-1.8-.89-1-2.66.33-3.4.87-.93.66.46 1.21 1.11.73"/>
  <path fill="#12111f" d="M126.42 295.5c.09-.09.82-.7.73-.74.13.08 0 .47-.03.57q-.3.7-.8 1.28a10 10 0 0 0-1.54 1.81c-.36.73.73 1.38 1.1.65q.52-.79 1.2-1.41a6 6 0 0 0 1.3-2.08 1.7 1.7 0 0 0-.5-1.86c-.85-.54-1.8.33-2.36.9s.32 1.46.9.9zm-4.59-2.83q.37-.08.19.15-.24.24-.5.44-1.52 1.05-3.14 1.87c-1 .56-.1 1.53.73 1.05q1.5-.82 2.96-1.73.77-.45 1.35-1.11a1.3 1.3 0 0 0 .28-1.16c-.28-.94-1.46-.88-2.23-.73-1.07.23-.73 1.46.33 1.22zm63.55-43.24c0-1.2 0-2.39-.09-3.57 0-.43-.1-.86-.14-1.29q-.15-2.26-.8-4.46-.32-.96-.77-1.88-.66-1.14-1.09-2.4c-.15-.53 1.34-.46 1.78.46a17 17 0 0 1 1.77 5.26c.14 1.11.4 2.2.5 3.35.11 1.16.16 2.47.17 3.7v5.65c0 .88.17 1.72.28 2.57 0 .2.06.38.09.56.07.74 0 .93-.35 1.12l-.24.12c-.27.1-.52-.17-.66-.69q-.5-2.39-.5-4.84v-3.66zm8.59-1.62q.02-1.94-.06-3.84c0-.46-.07-.93-.1-1.4a47 47 0 0 0-.45-4.87 17 17 0 0 0-.47-2.12c-.25-.9-.61-1.74-.77-2.66-.11-.57 1.4-.33 1.74.74a23 23 0 0 1 1.01 5.77c.06 1.17.25 2.37.32 3.56q.1 1.95.12 3.9l.03 2.4q0 1.8.2 3.58.19 1.36.56 2.67l.17.57c.17.73.17.96-.15 1.21l-.22.17c-.24.16-.55-.09-.77-.63q-.91-2.47-1.04-5.11c-.1-1.32-.12-2.63-.16-3.93z"/>
  <path fill="#12111f" d="M186.73 258.32q-.38 0-.73.16a.6.6 0 0 0-.35.54c0 .65.19 1.46.92 1.64a1.1 1.1 0 0 0 1.23-.6q.17-.4.07-.82a1.3 1.3 0 0 0-.73-.84 1 1 0 0 0-.4-.08"/>
  <path fill="#12111f" d="M188.09 261.07a1.9 1.9 0 0 1-1.84.23q-.34-.11-.6-.36-.37-.4-.45-.95a1.27 1.27 0 0 1 .34-1.8q.23-.23.53-.35.15-.05.32-.06.15 0 .28.05c.22.09-.16 1.41-.06 1.43h-.04c-.04 0-.1-.05-.15.25a.5.5 0 0 0 .18.49.5.5 0 0 0 .48.11.5.5 0 0 0 .3-.22.7.7 0 0 0 .04-.67.6.6 0 0 0-.45-.25h-.1c-.07 0-.1-.09-.11-.45v-.25c0-.28.09-.53.37-.56a1.7 1.7 0 0 1 1.71 1.58q.06.49-.11.96-.19.5-.6.85zm7.81-4.03q-.38 0-.73.16a.6.6 0 0 0-.35.54c0 .66.18 1.46.91 1.64a1.1 1.1 0 0 0 1.24-.6q.16-.4.06-.82a1.3 1.3 0 0 0-.73-.84 1 1 0 0 0-.4-.08"/>
  <path fill="#12111f" d="M197.26 259.79a1.9 1.9 0 0 1-1.84.24q-.33-.12-.6-.36-.36-.42-.44-.98-.04-.22-.04-.44v-.52q.04-.5.39-.84.23-.22.52-.34.16-.06.32-.06.15 0 .28.05c.23.08-.16 1.4-.06 1.42s0 0-.03 0c-.04 0-.11-.03-.15.26a.5.5 0 0 0 .18.49.5.5 0 0 0 .48.1.5.5 0 0 0 .3-.21.7.7 0 0 0 0-.64.6.6 0 0 0-.45-.25h-.1c-.06 0-.09-.1-.1-.46V257c0-.27.09-.52.36-.55a1.7 1.7 0 0 1 1.72 1.58 2 2 0 0 1-.73 1.8zm53.98 24.91q.63.3 1.19.73.22.13.42.3.68.57 1.28 1.24l.53.56q.34.38.6.8.08.12 0 0c-.06-.06-.24-.1-.41-.2a8 8 0 0 1-1.65-1.1q-.47-.37-.98-.7l-1.1-.72a8 8 0 0 0-.74-.4l-.55-.28-.58-.22c-.3-.1-.61-.13-.92-.22l-.2-.05-.4-.11.28-.05a5 5 0 0 1 1.9-.08q.7.14 1.37.44zm-77.62-88.49c3.35-1.86 8.3-1.83 10.07 2.2 1.35 3.05-.13 9.22-2.92 11.27-.86.63.45 1.07 1.04.64 3.5-2.56 5.4-9.98 2.78-13.58s-8.03-3.39-11.64-1.37c-.94.53-.08 1.27.68.85zm13.23 22.05q-.36.15-.73.2a4 4 0 0 1-1.25-.14q-.76-.38-1.27-1.05l-.43-.5a3 3 0 0 1-.37-.73c0-.06 0-.1 0 0q.2.06.41.08.76.14 1.38.58.51.22 1.07.3.2.03.38 0 .27-.03.51-.14.41-.19.73-.52c.18-.16.3-.37.48-.55l.13-.13.29-.2v1.08a4 4 0 0 1-.28.83q-.19.3-.42.55-.28.26-.6.44zm1.2-21.53a10.1 10.1 0 0 1 10.04-.25c.63.32.12-1.35-.34-1.6a10.7 10.7 0 0 0-10.52.22c-.5.3.34 1.9.82 1.63M195 284.8q-1.4.14-2.76.13c-.34 0-.67.05-1 0-1.17 0-2.32-.12-3.47-.17q-.75-.04-1.52 0-.96.15-1.94.06c-.4-.07 0-1.4.79-1.46q2.02-.1 4.04.16 1.2.1 2.43.04c.9 0 1.78 0 2.65-.1q.82-.05 1.62-.2.6-.1 1.2-.25.6-.13 1.17-.38c.37-.17.56-.27.83-.43l.78-.5q.16-.13.33-.24c.42-.29.6-.3.9-.06l.2.17c.2.2.13.51-.16.8a8 8 0 0 1-3.3 1.81q-1.37.4-2.78.59zm-.01 4.95q-1.25.04-2.5-.07-.45.02-.88-.06c-1.04-.13-2.05-.35-3.06-.5q-.66-.1-1.33-.1-.84.09-1.68 0c-.17-.03-.18-.38-.05-.72a1 1 0 0 1 .78-.74q1.87 0 3.66.5 1.05.21 2.13.26a19 19 0 0 0 3.8.02 10 10 0 0 0 2.11-.48q.77-.3 1.46-.73l.3-.2c.4-.21.57-.2.84.08l.17.19c.17.23.1.51-.18.73a8 8 0 0 1-3 1.46q-1.25.3-2.53.4z"/>
</svg>
