<svg xmlns="http://www.w3.org/2000/svg" width="520" height="520" fill="none">
  <path fill="#12111f" d="M341.26 290.139c6.97-3.99 12.74-2.28 17.42-11.43 3.02-5.91.44 7.03-4.35 13.68-4.8 6.65-14.42 10.9-15.49 6.19-.59-2.6-.89-6.54 2.42-8.44" opacity=".7"/>
  <path fill="#12111f" d="M398.269 91.34s-.81-4.76 3.64-4.35 3.82 3.95 3.01 6.22-4.37 3.16-5.52 2.48-1.07-3.4-1.13-4.35" opacity=".55"/>
  <path fill="#12111f" d="M69.818 250.24c0 2.12-1.68 5.39-3.8 5.39s-3.87-3.27-3.87-5.39a3.83 3.83 0 0 1 3.83-3.83c2.11 0 3.83 1.72 3.83 3.83zm31.83-8.868c2.022 0 3.66-1.984 3.66-4.43 0-2.447-1.638-4.43-3.66-4.43-2.021 0-3.66 1.983-3.66 4.43s1.639 4.43 3.66 4.43m36.593 19.967c1.624 0 2.94-1.742 2.94-3.89s-1.316-3.89-2.94-3.89-2.94 1.741-2.94 3.89 1.316 3.89 2.94 3.89"/>
  <path fill="#12111f" d="M130.801 264.611c-29.13-1.52-46.73-52.66-41.69-82.18 0-.24-35.9-16.24-55.08-44.22l1.96 24.33s5.58 117.3 5.87 121.19c.3 3.89 3.55 68.83 3.47 71.11-.08 2.27-1.13 12.35-1.13 12.35s71.84-36.53 92.92-38.86c1.15-.13-4.5-63.63-6.32-63.72m-64.78-8.98c-1.31.31-3.77-.2-5.2-2.93-1.43-2.74-.45-4.99 2.86-7.54 3.31-2.56 5.71 2.74 5.71 2.74s.96 1.32 0 3.58-2.06 3.84-3.37 4.15m2.73 30s.12-3.1 2.67-3.92 4.76-.74 5.51 2.02c.76 2.76 1.97 6.18-1.18 6.92-3.14.73-7.28-1.16-7-5.02m11.18 45.44c-1.49-.16-3-1.74-3-1.74s-1.11-2.22 1.24-1.26c2.34.96 3.25 3.16 1.76 3m17.94-94.12s.07-4.99 3.78-5.3 5.11 3.98 5.11 5.13-2.06 5.23-4.06 5.3c-2 .08-5.13-1.58-4.83-5.13m11.44 39.53c-3.39.22-7.33-2.35-5.36-6.8 0 0 .59-2.98 3.54-2.5 2.95.49 3.64-.2 3.95 2.5.32 2.69 1.26 6.59-2.13 6.8m8.1 37.63c-1.89.24-2.07-.89-2.07-.89s-1.69-3.01 2.07-3.77c3.76-.75 1.88 4.42 0 4.66" opacity=".15"/>
  <path fill="#12111f" d="M218.191 105.512c1.04.85 2.1 1.67 3.23 2.42.4.28.84.52 1.25.8 1.44.99 2.92 1.95 4.46 2.8.69.37 1.38.74 2.07 1.1.89.44 1.79.89 2.65 1.43.27.17.18.26-.12.3-.3.03-.84.05-1.41-.1-.99-.29-1.98-.59-2.96-.95-.95-.4-1.86-.9-2.76-1.44-1.07-.65-2.26-1.18-3.36-1.82-1.21-.71-2.37-1.53-3.49-2.38-.7-.52-1.37-1.07-2.04-1.62-1.02-.83-1.95-1.77-2.9-2.66-.73-.7-1.52-1.32-2.22-2.05-.16-.16-.31-.31-.45-.48-.52-.64-.59-.93-.36-1.33.05-.09.1-.19.16-.27.21-.26.64-.19 1.11.17 1.43 1.05 2.71 2.29 4.09 3.45 1.03.86 2.01 1.77 3.08 2.59zm-100.803 173.79c-.99 1.71-2.44 3.18-4.16 4.17-1.73 1-3.69 1.49-5.65 1.48-1.45-.02-2.89-.31-4.17-.89-4.55-2.08-7.42-6.61-7.99-11.29-.23-2.09.04-4.27.88-6.18.53-1.23 1.26-2.37 2.16-3.34s1.97-1.8 3.21-2.28c.78-.28.71-.1.25.42-.22.27-.53.65-.85 1.12-.34.45-.74.93-1.17 1.45-3.18 3.7-3.13 8.87-.94 13.1 1.31 2.55 3.84 4.55 6.57 5.32 2.95.84 6.45-.19 8.55-2.58 1.32-1.45 2.22-3.32 2.5-5.31.48-2.99-.21-6.29-1.88-8.8-1.33-1.95-3.39-3.13-5.58-3.65-.48-.12-.97-.2-1.47-.27-1.85-.27-2.46-.38-2.89-1.13-.1-.17-.23-.33-.3-.5-.22-.54.63-1.08 2.27-1.12 1.21-.02 2.46.11 3.71.46 1.24.37 2.46.95 3.56 1.75s2.06 1.81 2.82 2.95c.75 1.14 1.29 2.38 1.68 3.64 1.17 3.71.93 8-1.06 11.51l-.06-.03z"/>
  <path fill="#12111f" d="M107.05 262.43c-5.24 0-9.48 4.53-9.48 10.12s6.04 10.83 11.27 10.83 8.57-5.8 8.57-11.39-5.13-9.56-10.36-9.56m-2.07 13.01c-1.07-1.57-.87-4.34-.87-4.34s.93-4.11 2.69-4.03 3.72 1.77 4.64 4.03c.93 2.26-5.38 5.92-6.46 4.34" opacity=".55"/>
  <path fill="#12111f" d="M101.67 281.898c-1.66-1.06-3.08-2.49-4.03-4.28-.32-.64-.64-1.26-.85-1.94-.72-2.36-.81-4.93-.06-7.25.3-1.03.72-2.03 1.25-2.94.65-1.19 1.55-2.26 2.71-2.95.35-.23.36-.12.23.24-.09.24-.18.5-.26.72-.11.29-.21.64-.4.93-.18.26-.29.56-.45.82s-.31.53-.44.8c-.28.54-.49 1.11-.68 1.68-.38 1.14-.53 2.33-.69 3.55-.15 1.47.24 3.02.8 4.41.59 1.56 1.59 2.86 2.94 3.9.81.64 1.72 1.17 2.69 1.57 1.46.61 3.08.95 4.67.88.62.01 1.23-.15 1.83-.24.59-.19 1.19-.3 1.75-.54.25-.1.49-.2.75-.29.94-.36 1.3-.36 1.64-.17.08.04.17.08.23.13.2.16-.1.53-.76 1.02-2.02 1.3-4.67 1.94-7.32 1.76-1.96-.13-3.93-.71-5.62-1.77l.02-.04z"/>
  <path fill="#12111f" d="M111.959 274.4c-.29.47-.71.88-1.16 1.21-.48.32-.92.52-1.37.65-.32.1-.62.24-.96.28-1.15.12-2.34-.05-3.35-.71-.45-.27-.87-.65-1.12-1.11-.35-.57-.51-1.25-.3-1.84.06-.19.32-.14.63-.02s.68.3.84.45c.24.3.5.39.72.44.17.12.41.28.77.43.43.22.97.04 1.44-.09.27-.06.52-.16.75-.27.21-.11.39-.21.54-.39.19-.2.36-.48.45-.82.15-.5.23-1.11.11-1.71-.09-.46-.39-.89-.61-1.32-.05-.1-.13-.18-.17-.28-.14-.37.03-.54.8-.83l.53-.2c.6-.2 1.15-.16 1.41.11.38.41.64.89.81 1.42.14.53.17 1.12.14 1.73-.07.9-.28 1.9-.85 2.88l-.06-.03zm23.382-14.06c-.3-.7-.49-1.44-.57-2.19-.04-.27-.1-.54-.08-.82.11-.98.44-1.97 1.1-2.65.28-.3.54-.6.84-.84.35-.35.81-.56 1.29-.64.15-.03.18.09.16.29s-.06.52-.17.75c-.22.37-.41.68-.54 1-.14.31-.2.61-.41.88-.23.35-.13.81-.07 1.23.03.47.13.98.32 1.46.13.3.25.58.42.79.26.32.61.61 1.08.71.36.06.75-.02 1.14-.07.09-.01.17-.04.26-.04.33 0 .43.17.5.78l.04.41c.03.47-.12.86-.41 1.01-.43.22-.9.36-1.43.38-.53.03-1.09-.17-1.64-.44-.83-.42-1.51-1.22-1.88-1.97zM70.6 290.769c-.91-.6-1.65-1.46-2.08-2.52-.17-.43-.31-.69-.37-1.03-.19-1.16-.12-2.44.44-3.55.23-.49.48-.97.79-1.4.39-.54.93-1.06 1.67-.98.23.02.32.3.4.72.07.42.23 1.06.15 1.25-.3.73-.38 1.03-.66 1.8-.23.46.01 1 .15 1.51l.09.34c.05.1.08.2.14.3.11.21.27.41.46.6.23.23.53.42.85.56.49.2 1.08.32 1.65.2.44-.11.82-.42 1.17-.73.08-.07.14-.15.23-.19.31-.2.5-.05.98.65l.33.48c.35.55.44 1.1.18 1.45-.74 1.03-2.07 1.52-3.5 1.52-1.06 0-2.16-.33-3.11-.89l.04-.07zm58.762-61.788c-.28-.76-.47-1.54-.48-2.34.01-.29-.1-.56-.03-.86.14-1.02.54-2.01 1.22-2.71.26-.33.55-.62.82-.9.33-.4.89-.51 1.37-.59.16-.02.18.06.17.27-.02.19 0 .58-.06.84-.04.11-.04.24-.04.36s-.06.18-.09.27c-.09.15-.09.34-.15.48-.1.3-.14.57-.33.83-.26.32-.1.76-.07 1.15.08.43.09.91.26 1.37.08.29.22.57.37.84.25.39.52.82.94 1.06.31.22.74.21 1.09.26.08.01.18-.02.24 0 .26.09.26.33.05 1.13l-.14.54c-.17.6-.49 1.04-.87 1.12-1.12.24-2.21-.26-2.97-1.05-.59-.56-1.01-1.3-1.36-2.02l.07-.04zm-27.644 13.028c-.55-.12-1.09-.28-1.59-.57-.25-.13-.48-.31-.7-.47-.2-.17-.36-.33-.53-.5-.12-.13-.24-.24-.37-.36q-.165-.195-.3-.42c-.57-1.08-.8-2.19-.85-3.24-.03-.47-.04-.93-.02-1.38.02-.29.04-.58.12-.86.1-.28.23-.54.41-.78.11-.15.24-.07.39.13.13.19.36.5.42.77.12.96.41 1.76.65 2.61.14.52.61.89.99 1.21.19.19.4.41.6.55.17.14.38.24.61.32.29.08.62.12.98.09.54-.07 1.14-.18 1.66-.51.4-.25.68-.69.95-1.08.06-.08.1-.19.17-.27.26-.26.47-.18 1.12.39l.44.39c.48.45.71.98.56 1.37-.46 1.14-1.47 1.87-2.65 2.34-.88.36-1.94.47-3.05.35v-.07zM61.56 253.378a7 7 0 0 1-.57-2.65c-.01-.33-.04-.65.05-.96.28-1.11.81-2.06 1.45-2.85.28-.35.59-.69.91-.98.41-.38.89-.71 1.42-.87.17-.05.19.04.14.23-.05.18-.13.49-.29.73-.29.42-.5.86-.68 1.29s-.42.8-.62 1.21c-.26.49-.23 1.09-.2 1.62-.02.58.03 1.16.24 1.74.12.35.29.71.51 1.02.33.47.75.93 1.26 1.2.4.2.87.22 1.27.19.09 0 .18-.04.26-.04.31 0 .4.13.52.76l.09.42c.08.47-.08.88-.49 1.02-1.22.39-2.61-.05-3.61-.83-.75-.59-1.3-1.37-1.72-2.2l.05-.03zm62.869 84.051c-4.08 1.23-8.14 2.58-12.2 3.9l-4.41 1.55c-5.21 1.75-10.4 3.59-15.6 5.39-2.3.81-4.61 1.67-6.88 2.52-2.91 1.11-5.86 2.15-8.88 2.96-.94.25-.83.17-.11-.26.72-.42 2.01-1.29 3.65-2.01 2.88-1.37 5.86-2.47 8.81-3.67 2.97-1.16 5.93-2.34 8.98-3.35 3.63-1.23 7.34-2.73 11.04-4.05 4.06-1.47 8.16-2.83 12.29-4.14 2.54-.8 5.09-1.57 7.64-2.32 3.87-1.12 7.79-2.17 11.69-3.08 1.51-.37 3.01-.76 4.52-1.06 1.51-.33 3.01-.69 4.55-.89.68-.11 1.34-.22 2.02-.32 2.56-.24 3.41-.05 3.95.46.13.12.29.23.36.35.24.38-.78.83-2.57 1.05-5.32.74-10.89 2.01-16.46 3.45l-3.1.82-3.09.89c-2.07.57-4.12 1.22-6.18 1.86zm-89.847-156.91c.08-3.19.13-6.39.25-9.58l.05-3.49c.15-4.1.26-8.2.36-12.3.04-1.82 0-3.65-.04-5.45-.08-2.32-.09-4.64.08-6.97.05-.73.15-.63.36-.03.19.6.64 1.71.85 3.05.32 2.37.45 4.74.53 7.12s.13 4.76.02 7.16c-.11 2.86.01 5.84 0 8.76 0 3.22-.08 6.43-.15 9.65l-.1 5.93c-.03 2.99-.06 6 0 8.97.05 2.31.22 4.57.35 6.85l.09 1.5c.05 1.88-.08 2.48-.53 2.9-.1.1-.2.22-.3.28-.34.2-.67-.56-.9-1.93-.34-2.04-.52-4.14-.7-6.27-.17-2.13-.28-4.3-.29-6.46-.05-3.22-.02-6.45 0-9.68h.06zm86.118-27.3c-2.56.05-5.12.04-7.67-.06-.93-.04-1.86-.01-2.79-.09-3.28-.2-6.53-.58-9.78-1-1.44-.19-2.89-.33-4.31-.55-.91-.15-1.83-.26-2.74-.45-.9-.21-1.79-.5-2.69-.77-.55-.18-.48-.16.02-.19.49 0 1.44-.24 2.51-.27 3.78.07 7.45.72 11.2 1.17 2.24.3 4.59.34 6.9.43 2.53.07 5.07.14 7.61.06 1.56-.02 3.12-.12 4.68-.21 2.36-.19 4.73-.4 7.05-.79.9-.16 1.79-.33 2.66-.54l2.62-.66c.39-.09.75-.22 1.14-.32 1.44-.34 1.93-.31 2.36.1.1.09.22.18.29.28.23.34-.29.78-1.33 1.16-3.11 1.11-6.53 1.72-9.98 2.14-2.56.33-5.15.47-7.74.6v-.04zm-53.872 3.189c.42.42 26.41 19.2 37.22 19.93 2.41.16 6.53-3.86 9.46-3.27s-30.47-9.85-30.47-9.85l-16.21-6.82z"/>
  <path fill="#12111f" d="M101.531 173.521c8.52 2.95 17.34 5.1 26.28 6.54 1.63.29 3.28.44 4.91.66l2.46.3 2.47.24c11.59 1.23 23.31 1.52 34.97.7 5.17-.36 10.36-.98 15.44-1.82 3.26-.53 6.51-1.2 9.72-1.95l2.41-.58c.8-.21 1.58-.45 2.39-.62l2.38-.65c.78-.23 1.55-.51 2.33-.76 1.88-.68 1.78-.46.36.7-.73.54-1.82 1.24-3.21 1.93-1.37.74-3.05 1.4-4.93 1.9-13.27 3.66-26.99 5.04-40.77 4.97-8.24-.06-16.82-.33-25.2-1.34-9.2-1.12-18.33-2.95-27.22-5.58l-4.1-1.24-4.04-1.42-2.02-.71c-.67-.24-1.33-.53-1.99-.79l-3.97-1.61c-7.95-3.4-15.57-7.64-22.65-12.48-2.82-1.8-5.38-3.88-8.05-5.83-1.31-1.01-2.53-2.11-3.8-3.17-1.26-1.07-2.54-2.11-3.7-3.3-1.05-1.01-2.07-2.01-3.13-3.03-.99-.94-1.7-1.82-2.3-2.56s-1.06-1.35-1.42-1.87c-.71-1.05-.98-1.77-1.03-2.48-.02-.32-.1-.71-.05-.94.17-.8 2.02.52 4.7 3.34 8.02 8.32 17.54 15.92 28.03 22.1a132.5 132.5 0 0 0 24.74 11.25v.08z"/>
  <path fill="#12111f" d="M169.498 138.151c-6.22 3.79-12.75 7.07-19.53 9.7-2.5.9-4.94 1.96-7.5 2.68-4.46 1.43-9.05 2.37-13.64 3.2-4.62.65-9.26 1.2-13.93 1.23l-3.1.05c-1.03.03-2.07-.06-3.1-.08-1.03-.03-2.06-.07-3.09-.1s-2.05-.17-3.07-.24c-1.31-.13-2.63-.21-3.93-.36l-3.9-.64c-1.3-.21-2.6-.44-3.87-.8-.64-.14-1.27-.37-1.88-.61l-1.85-.71c-1.53-.62-1.31-.57.12-.63.71-.03 1.74-.14 2.95-.26 1.21-.06 2.55.15 4.03.26l3.9.45c.65.09 1.3.15 1.95.17l1.95.15c1.3.08 2.6.24 3.9.26l3.91.08c5.22-.01 10.45-.18 15.69-.82 6.28-.7 12.66-2.47 18.76-4.59 6.72-2.34 13.22-5.33 19.43-8.87 3.83-2.16 7.51-4.58 11.11-7.11 5.41-3.9 10.59-8.19 15.28-12.87 3.63-3.65 6.87-7.54 9.85-11.62.65-.9 1.26-1.8 1.88-2.72 2.33-3.41 3.02-4.36 4.26-4.73.27-.09.58-.27.83-.31.43-.08.64.32.55 1.26-.06.43-.19.95-.4 1.57-.23.58-.53 1.25-.92 1.95-2.35 4.14-5.27 7.97-8.48 11.63s-6.73 7.13-10.42 10.4a137.5 137.5 0 0 1-17.7 13.11l-.05-.07z"/>
  <path fill="#12111f" d="M104.998 133.601c.86.9 1.85 1.66 2.77 2.5.94.83 1.98 1.53 2.97 2.29.73.55 1.57.94 2.32 1.46 2.72 1.73 5.56 3.35 8.57 4.59.66.31 1.35.51 2.04.74l1.03.33 1.04.25c1.79.4 3.57.81 5.33 1.02.56.06.55.21.08.51-.47.31-1.46.85-2.63.86l-1.51-.06c-.51 0-.99-.15-1.48-.24-.49-.1-.98-.2-1.46-.31l-1.42-.41c-.96-.26-1.88-.61-2.79-.97-.93-.34-1.82-.77-2.69-1.22-1.07-.5-2.12-1.08-3.2-1.62-1.09-.51-2.14-1.13-3.17-1.75-2.26-1.38-4.39-2.97-6.41-4.68-.65-.5-1.22-1.08-1.81-1.64l-1.76-1.69-2.46-2.76c-.79-.95-1.5-1.96-2.27-2.9-.63-.72-1.13-1.52-1.71-2.27-.55-.77-1.19-1.48-1.66-2.31-.21-.36-.45-.7-.62-1.09-.64-1.43-.65-1.98-.15-2.55.12-.13.22-.28.34-.38.42-.34 1.12.03 1.83.88.53.63 1.04 1.26 1.44 1.96.47.66.97 1.31 1.43 1.98.88 1.38 1.96 2.64 2.96 3.97.35.51.79.95 1.2 1.41l1.24 1.39c.4.48.85.91 1.3 1.34l1.35 1.3-.05.06zm-48.598-8.37c3.08-.11 6.11-.44 9.14-1.15 1.1-.28 2.18-.6 3.27-.91 3.88-1.01 7.69-2.42 11.56-3.87 1.71-.65 3.45-1.33 5.24-1.84 1.15-.32 2.32-.66 3.55-.76l.92-.06c.31 0 .62.03.92.04.31.03.61.02.91.09.31.06.58.43.87.5.72.23.61.2-.02.38-.31.03-.77.66-1.25.78-.49.26-1.04.43-1.63.63-1.05.32-2.1.54-3.15.95-1.05.35-2.09.83-3.17 1.22-2.16.8-4.38 1.67-6.68 2.41-2.74.9-5.52 2.13-8.4 2.96-3.15.9-6.43 1.52-9.72 1.8-2.02.17-4.04.23-6.06.2-3.06-.04-6.12-.4-9.12-.88-2.33-.37-4.66-.71-6.95-1.37-.51-.13-1.01-.26-1.51-.45-.92-.35-1.49-.68-1.82-1.04s-.43-.73-.41-1.23c.01-.23 0-.47.05-.68.17-.7 1.13-.9 2.39-.54 1.92.45 3.82.97 5.79 1.39 1.97.41 3.99.75 6.03 1 3.04.34 6.13.51 9.22.35v.08zM39.75 227.602l2.3 35.14c.32 4.27.64 8.55.95 12.81.95 15.07 1.9 30.15 2.55 45.25.28 6.7.61 13.44.78 20.1.08 2.14.09 4.28.13 6.43.02 2.14-.04 4.3-.08 6.44-.1 2.15-.18 4.3-.46 6.45-.21 2.14-.54 4.29-1.09 6.4-.73 2.62-.84 2.17-.81-.1.07-1.12-.12-2.75-.13-4.66-.06-.97-.12-2.01-.15-3.11q-.015-.825-.09-1.71c0-.58 0-1.18-.01-1.79-.08-17.29-1.34-34.67-2.08-52.22-.48-10.5-1.49-21.39-2.28-32.12-.87-11.79-1.73-23.59-2.52-35.4-.47-7.27-.95-14.54-1.42-21.8-.7-11.01-1.27-22.07-1.82-33.01-.43-8.5-.95-16.84-1.2-25.27-.04-1.86-.15-3.67-.15-5.55-.04-6.95.33-9.17 1.33-10.62.23-.33.45-.77.67-.96.72-.63 1.3 2.2 1.4 7.24.46 14.96 1.19 30.75 2.07 46.61.66 11.78 1.38 23.62 2.19 35.43l-.09.02zm115.35 47.537-1.44-19.43c-.18-2.36-.44-4.72-.61-7.08-.56-8.34-1.09-16.68-1.39-25.05-.13-3.71-.3-7.44-.39-11.13-.05-2.37-.02-4.75.08-7.13.16-2.38.29-4.78.98-7.1.41-1.44.47-1.21.62.07.14 1.28.58 3.57.59 6.25.02 2.38.16 4.77.26 7.15.07 2.39.16 4.79.27 7.19.21 4.8.5 9.62.66 14.47.22 5.8.88 11.82 1.38 17.74.54 6.52 1.09 13.03 1.63 19.55.32 4.01.64 8.03.97 12.04.48 6.08.9 12.2 1.32 18.25.33 4.7.77 9.31.91 14.01.02 1.04.06 2.06.06 3.1-.03.98-.09 1.79-.17 2.47-.1.68-.22 1.23-.34 1.68-.23.89-.64 1.39-1.08 1.72-.21.15-.43.36-.62.42-.32.11-.53-.25-.63-.94-.07-.67-.16-1.74-.14-3.09-.04-4.05-.27-8.27-.54-12.56-.26-4.29-.58-8.65-.9-13.02-.49-6.5-.99-13.03-1.55-19.56h.07zm-40.069 66.902c-2.77.76-5.51 1.64-8.27 2.45-2.73.89-5.48 1.74-8.2 2.69l-5.91 2.15c-6.96 2.5-13.85 5.22-20.67 8.11-2.99 1.35-6.02 2.69-8.93 4.17l-5.64 2.79-2.82 1.39a37 37 0 0 1-1.43.66c-.48.21-1.01.33-1.5.52-1.24.45-1.08.39-.2-.33.45-.34.98-1 1.76-1.58.76-.59 1.69-1.22 2.74-1.84 1.85-1.11 3.76-2.1 5.67-3.09l2.87-1.48 2.91-1.41c3.87-1.9 7.83-3.62 11.85-5.27 4.83-1.89 9.78-4.05 14.76-5.9 2.74-1.01 5.47-2.02 8.24-2.94 2.75-.96 5.53-1.85 8.31-2.73 1.71-.56 3.43-1.06 5.15-1.58 1.72-.51 3.43-1.04 5.16-1.52 5.22-1.51 10.51-2.87 15.71-4.25 4.05-1.07 7.99-2.27 11.99-3.35.88-.24 1.74-.51 2.63-.73 3.32-.8 4.43-.81 5.33-.06.21.17.46.33.6.52.47.63-.77 1.5-3.15 2.22-7.08 2.12-14.62 3.9-22.16 5.84-5.6 1.45-11.22 2.92-16.77 4.58l-.03-.07z"/>
  <path fill="#12111f" d="M118.471 346.491c-3.84 1.01-7.68 2.06-11.47 3.27-1.39.42-2.74.95-4.11 1.41-4.85 1.6-9.66 3.34-14.37 5.35-2.11.85-4.16 1.86-6.18 2.84-2.58 1.32-5.12 2.71-7.77 3.91-.83.37-.89.03-.39-.66.49-.68 1.52-1.76 2.94-2.67 5.17-2.99 10.53-5.71 16.22-7.7 3.38-1.24 6.84-2.66 10.32-3.87 1.91-.67 3.84-1.27 5.76-1.89 1.94-.57 3.86-1.19 5.81-1.73 2.39-.69 4.79-1.33 7.19-1.97 3.63-.97 7.31-1.83 10.92-2.76 2.81-.71 5.53-1.56 8.3-2.31.61-.17 1.2-.36 1.82-.51 2.3-.54 3.07-.52 3.72.08.15.14.33.26.43.41.34.49-.5 1.15-2.14 1.7-4.87 1.61-10.1 2.86-15.32 4.19-3.88.97-7.79 1.92-11.66 2.98l-.02-.06zm-12.922 9.001c-1.14.33-2.28.69-3.41 1.08-.41.15-.8.35-1.21.49-1.45.52-2.9 1.05-4.31 1.67-.62.28-1.25.57-1.86.87-.77.4-1.54.82-2.36 1.13-.26.09-.34-.1-.25-.42.08-.31.31-.77.73-1.08.74-.54 1.49-1.05 2.27-1.52.8-.43 1.64-.78 2.49-1.1 1.03-.37 2.01-.94 3.03-1.38 1.12-.49 2.27-.93 3.42-1.35.7-.27 1.43-.5 2.14-.75 1.09-.35 2.2-.66 3.3-.99.85-.26 1.68-.61 2.58-.84.2-.05.4-.11.6-.14.78-.11 1.09.09 1.19.68.03.14.06.27.07.41a.95.95 0 0 1-.7.96c-1.3.43-2.78.85-4.29 1.29-1.12.32-2.26.68-3.4 1.03l-.02-.05zM87.31 201c.04-.16.07-.38.08-.67v-.73c-.05-.09-.06-.03-.08-.04-.05.04-.1.35-.14.37-.08.06-.2.21-.38.49l-.31.51-.77 1.41-.74 1.32c-.26.43-.55.86-.84 1.27-.73 1.06-1.65 2.1-2.88 2.67-.41.14-.43-.03-.35-.45.1-.42.24-1.08.54-1.67.59-1.01 1.02-2.11 1.53-3.19.27-.53.55-1.07.83-1.61l.21-.41c.08-.14.11-.23.25-.56.23-.53.45-1.07.68-1.61.26-.64.51-1.27.74-1.97.24-.66.47-1.45.72-1.93.25-.47.49-.77.69-.97.2-.23.37-.4.52-.52l.47-.35s.09-.06.16-.08c.12-.02.19.06.22.11l.26.36c.09.13.17.24.25.38l.26.54c.08.2.17.33.24.58l.18.83c.16.64.24 1.45.36 2.16.07.79.16 1.54.19 2.33l.05.88v2.06c-.01.82-.02 1.62 0 2.42.03 1.24.26 2.45.45 3.63.04.26.12.51.15.78.03.24.04.44.02.61-.03.17-.11.31-.19.43-.18.24-.44.39-.83.53-.18.06-.34.14-.51.19-.54.15-1.15-.21-1.55-.96-.71-2.25-.67-4.67-.62-6.92l.02-1.25v-.71s.05-.09.06-.17l.07-.12z"/>
  <path fill="#12111f" d="M87.798 209.858c.45-.19.89-.37 1.33-.57.16-.07.29-.2.45-.26.58-.23 1.17-.44 1.73-.7.25-.11.47-.27.69-.43.27-.22.59-.36.98-.41.12 0 .24.19.32.46.07.27.13.65.02.84-.18.37-.47.56-.76.75-.3.19-.61.35-.96.47-.42.14-.72.48-1.09.71-.41.25-.83.48-1.25.71-.26.15-.51.29-.77.44-.38.23-.78.44-1.12.72-.26.22-.45.55-.67.82-.05.06-.08.14-.14.19-.21.19-.37.11-.77-.37l-.27-.33c-.29-.38-.42-.77-.33-1 .26-.7.76-1.09 1.32-1.42.41-.25.85-.45 1.28-.67l.03.04zm19.844-6.44c-.71 1.13-1.89 2.02-3.14 2.52-1.31.42-2.55.56-3.87.28-.94-.2-1.88-.589-2.59-1.229-1.26-1.12-1.89-2.561-2.24-3.951-.33-1.4-.4-2.81-.25-4.18.12-1.22.39-2.43.87-3.57.33-.72.71-1.46 1.36-2 .62-.55 1.41-.93 2.2-1.03.51-.06.44.16.15.5-.31.33-.7.93-1.07 1.49-1.43 1.93-1.8 4.831-1.39 7.461.23 1.6 1.25 3.049 2.44 3.619.65.33 1.41.41 2.22.28.21-.01.38-.089.57-.149.18-.07.38-.09.55-.19.32-.21.68-.361.95-.661.71-.64 1.26-1.589 1.48-2.649.35-1.6.14-3.41-.67-4.86-.64-1.13-1.69-1.9-2.78-2.36-.25-.09-.52-.13-.75-.22-.43-.21-.75-.261-.93-.491-.18-.21-.25-.53-.28-1-.01-.22-.05-.439-.04-.649 0-.72.61-1.161 1.68-1.071 1.52.24 3.17.941 4.35 2.211 1.21 1.22 2.04 2.809 2.45 4.459.24 1.24.37 2.521.15 3.791a9 9 0 0 1-1.35 3.679l-.07-.039zM66.86 257.06c-1.02.32-2.19.34-3.21.03a6.1 6.1 0 0 1-2.64-1.58c-.51-.52-1-1.09-1.3-1.76-.24-.6-.42-1.22-.46-1.86-.04-.31-.01-.64 0-.94.03-.27.05-.53.09-.8.12-1.07.44-2.18 1.02-3.21a5.9 5.9 0 0 1 2.18-2.23c.57-.34 1.18-.59 1.8-.68.31-.06.62-.05.93-.06.31-.02.61.14.91.21.37.13.31.39.03.81-.14.21-.32.47-.53.74-.21.25-.43.45-.68.54-.87.39-1.53.68-1.97 1.23-.45.51-.78 1.29-1.03 2.27-.17.56-.22 1.3-.16 1.74.07.51.28.98.55 1.42.58.96 1.68 1.65 2.81 1.6.68-.02 1.47-.32 2.02-.77.44-.34.78-.82.98-1.38.23-.55.31-1.19.26-1.81-.07-.98-.52-1.9-1.04-2.66-.1-.18-.27-.3-.38-.47-.45-.56-.43-.82-.11-1.46.08-.15.14-.31.22-.44.14-.23.34-.37.62-.39.27-.02.65.07.97.34.96.79 1.64 1.86 2.04 3.05s.54 2.53.27 3.91c-.21 1.01-.65 2.07-1.42 2.92-.77.83-1.75 1.46-2.75 1.77l-.03-.07zm36.27-13.248a5.7 5.7 0 0 1-3.3-.21 6.2 6.2 0 0 1-2.54-1.81c-.48-.57-.93-1.2-1.16-1.92-.72-2.4-.25-4.95 1.2-6.83.64-.82 1.47-1.57 2.5-1.97 1.29-.54 2.95-.41 3.85.6.3.29.1.48-.34.73-.45.22-1.11.72-1.53.71-.78.13-1.32.28-1.89.8-.55.5-1 1.27-1.33 2.14-.47 1.04-.15 2.37.27 3.27.5 1.02 1.59 1.82 2.74 1.86.36 0 .7 0 1.07-.17.38-.1.72-.29 1.02-.5.92-.66 1.45-1.9 1.37-3.2-.06-1-.51-1.95-1.03-2.73-.1-.18-.27-.31-.38-.48-.46-.58-.44-.84-.12-1.48.08-.15.13-.31.22-.45.14-.24.34-.37.62-.39.27-.01.66.08.98.35.97.81 1.66 1.91 2.06 3.13.39 1.22.52 2.6.21 4.01-.24 1.04-.77 2.1-1.58 2.94-.82.86-1.85 1.34-2.88 1.66l-.02-.07zm30.989-11.632c-1.01.25-2.08.16-3-.19s-1.7-.93-2.29-1.65c-.43-.52-.84-1.08-1.05-1.74-.64-2.17-.22-4.45 1.09-6.14.57-.74 1.31-1.42 2.24-1.79 1.16-.49 2.67-.38 3.46.54.26.27.08.45-.32.68-.41.21-1 .69-1.37.68-.68.13-1.13.26-1.63.71-.48.44-.87 1.12-1.17 1.89-.42.92-.13 2.1.24 2.9.43.9 1.39 1.61 2.4 1.65.31 0 .61 0 .94-.15.34-.09.63-.25.9-.45.81-.58 1.28-1.69 1.21-2.84-.05-.89-.46-1.73-.93-2.42-.09-.16-.24-.28-.34-.43-.41-.51-.38-.74-.08-1.34.07-.14.13-.28.21-.41.23-.43.83-.53 1.47-.06.88.73 1.5 1.72 1.86 2.82s.47 2.34.19 3.61c-.22.94-.69 1.9-1.42 2.67-.74.78-1.68 1.23-2.61 1.52l-.02-.06zM74.46 291.981c-.92.29-1.98.32-2.9.05-.93-.26-1.75-.77-2.39-1.41-.46-.47-.91-.97-1.18-1.58-.22-.54-.39-1.1-.43-1.67-.04-.28-.01-.57-.01-.85.02-.24.04-.47.07-.72.11-.96.39-1.96.9-2.88.45-.82 1.15-1.55 1.95-2.02.51-.31 1.05-.54 1.61-.62.28-.06.56-.05.83-.06.28-.02.55.12.82.19.33.12.28.36.04.75-.12.2-.28.44-.46.7-.18.23-.37.42-.6.51-.76.36-1.34.62-1.71 1.09-.38.45-.67 1.12-.9 1.99-.15.5-.2 1.16-.13 1.54.07.44.25.86.49 1.24.52.84 1.48 1.45 2.47 1.39.59-.02 1.3-.29 1.78-.69.77-.59 1.18-1.71 1.08-2.83-.07-.87-.49-1.68-.96-2.35-.09-.16-.24-.26-.34-.41-.41-.49-.38-.72-.08-1.32.07-.14.13-.28.2-.41.23-.43.82-.54 1.45-.09 1.72 1.42 2.57 3.76 2.15 6.25-.18.92-.57 1.88-1.27 2.65-.69.76-1.58 1.34-2.48 1.61l-.02-.06zm34.572-14.052c-1.01.25-2.07.17-2.99-.18a5.53 5.53 0 0 1-2.3-1.63c-.44-.51-.85-1.07-1.06-1.73-.66-2.16-.25-4.45 1.05-6.14.57-.74 1.31-1.42 2.24-1.79 1.16-.49 2.66-.39 3.46.52.26.26.08.45-.31.69-.41.22-1 .7-1.36.69-.68.13-1.14.26-1.63.71-.48.43-.87 1.12-1.16 1.88-.42.92-.12 2.1.25 2.88.44.89 1.4 1.6 2.41 1.63.31 0 .61 0 .94-.15.34-.09.63-.26.9-.45.81-.58 1.27-1.68 1.19-2.83-.06-.89-.47-1.72-.95-2.41-.09-.16-.24-.27-.34-.42-.41-.5-.39-.74-.09-1.34.07-.14.13-.28.2-.41.22-.43.83-.54 1.47-.07.89.72 1.51 1.7 1.88 2.8.36 1.1.49 2.33.21 3.61-.21.95-.68 1.91-1.41 2.67-.74.78-1.67 1.23-2.6 1.52l-.02-.06zm30.037-14.879c-.91.23-1.88.15-2.71-.16s-1.54-.83-2.08-1.48c-.39-.47-.76-.97-.95-1.56-.59-1.95-.21-4 .95-5.52.51-.67 1.17-1.28 2.01-1.62 1.04-.45 2.4-.36 3.11.47.23.24.07.41-.29.64-.37.2-.9.66-1.22.66-.59.13-.98.24-1.4.63-.41.38-.76.98-1.03 1.66-.38.81-.1 1.86.22 2.55.38.79 1.23 1.41 2.11 1.44.28 0 .53 0 .83-.13.3-.08.56-.23.79-.4.71-.52 1.12-1.5 1.05-2.52-.05-.79-.43-1.53-.85-2.14-.08-.14-.22-.24-.31-.37-.36-.45-.33-.66-.05-1.21.07-.13.12-.26.19-.38.21-.4.76-.5 1.34-.09 1.57 1.31 2.35 3.47 1.9 5.77-.19.85-.61 1.72-1.26 2.42-.67.71-1.51 1.12-2.35 1.39l-.02-.06zm-58.24 68.412c-.42.42-.93.65-1.38.74-.46.1-.88.08-1.27.01-.28-.05-.57-.07-.83-.18-.47-.22-.87-.52-1.18-.93-.32-.39-.56-1.02-.45-1.59.08-.52.41-.88.67-1.13.36-.33.74-.53 1.18-.57.14 0 .21.18.24.44.02.25.03.61-.06.78-.18.29-.26.61-.17.65a.5.5 0 0 0-.15-.05h.03c.08 0-.11.01-.09 0 0 0 .06-.01.12-.04-.02 0-.04.03-.04.07-.02.09.08.19.2.25s.24.08.38.11c.3.08.64.06.8-.02.1-.05.17-.1.22-.25.03-.11.04-.17.04-.2s-.03-.07-.12-.07c-.06 0-.14.06-.16.14v.05c-.01-.04-.01-.07-.03-.11-.04-.08-.06-.14-.11-.19 0-.02-.06-.05-.03-.03 0 0 .04.02.09.03h.2-.04c-.13.01-.29.03-.49.07-.18.03-.36.08-.54.12-.57.15-1.19.1-1.3-.61-.08-.51.24-1.17.66-1.54.44-.4.91-.54 1.37-.61.88-.09 1.81.18 2.49 1.03.5.62.64 1.5.52 2.07-.1.57-.35 1.11-.76 1.56l-.05-.04zm37.962-17.68a4.4 4.4 0 0 1-2.09 1.49c-.3.1-.6.26-.97.25-.63 0-1.39-.28-1.8-.76-.43-.42-.67-1.07-.62-1.59.04-.45.09-.85.29-1.16.24-.4.55-.74.95-.94.13-.06.2.06.27.25.06.19.18.48.19.66.03.18.09.36.17.5.04.07.09.14.12.18.02.05.03.09.05.11.01.03.04.04.05.06.03 0 .02 0-.05.02-.1.03-.12.07-.03-.01.01-.02-.01.01 0 .02v.02s.03-.04-.03.06v-.03c.01-.11.02-.11.09-.12.16 0 .46-.11.66-.3.14-.13.26-.28.32-.44.04-.11.08-.22.08-.31 0-.05 0-.09-.02-.12 0 0-.02-.02-.05-.03-.04-.01-.13.01-.2.08-.03.03-.06.08-.07.12.01-.05.02-.11.02-.18 0-.06 0-.12-.02-.17-.03-.1-.04-.1-.04-.11.06.06-.1-.12-.26-.27-.15-.14-.3-.27-.46-.4-.26-.22-.48-.44-.56-.72-.09-.27-.02-.59.22-.83.35-.37.84-.56 1.3-.62s.9 0 1.31.16.79.4 1.12.76c.17.18.32.38.44.61.14.25.22.47.27.67.35 1.3-.11 2.37-.58 3.1l-.07-.04zm28.689-17.994c-.02.1-.02.2-.05.3-.13.35-.3.67-.47.98-.22.28-.45.55-.73.75-.22.18-.44.36-.71.47-.98.35-2.06.2-2.75-.35-.32-.2-.63-.5-.86-.84-.26-.46-.35-1-.07-1.39.09-.13.49-.02.93.1.43.12.89.23.98.24h.07l-.1.05-.02.01.04-.04.1-.12h-.01s-.01.01-.01.02v.07s0 .13.04.2c.11.19.25.07.38.05.16-.03.36-.12.48-.31l.03-.05c.08-.1.11-.22.11-.35 0-.22-.08-.48-.29-.59-.18-.09-.46.02-.64.12-.04.02-.08.08-.12.09-.11.03-.11-.2-.16-.98l-.04-.53c-.04-.6.09-1.11.42-1.29.98-.43 2.13-.03 2.86.96.61.65.77 1.6.67 2.43zM82.118 137.98c1.23-.1 2.47-.22 3.68-.47.44-.1.87-.24 1.3-.36 1.55-.35 3.04-.88 4.45-1.58.3-.17.61-.34.89-.55l.78-.67c.61-.63 1.12-1.3 1.77-1.94.21-.19.52 0 .73.4.2.39.33 1.08.05 1.64-1.13 1.88-2.95 3.23-4.9 3.93-.6.17-1.17.42-1.75.66-.58.21-1.16.47-1.76.63-1.31.36-2.63.63-3.96.8-.81.13-1.63.19-2.45.28-1.23.11-2.48.14-3.7.23-.95.05-1.88.27-2.84.36-.21.02-.42.07-.63.06-.79 0-1.02-.29-1.14-.98-.03-.16-.06-.32-.07-.47-.03-.52.31-.96.86-1.17 1.62-.48 3.27-.52 4.94-.65 1.24-.05 2.49-.1 3.73-.23v.07zm9.953 3.859c.67-.05 1.35-.12 2-.29.24-.06.46-.16.69-.23.85-.2 1.7-.5 2.45-.97.36-.18.59-.52.93-.73.36-.35.68-.74 1.14-1.04.15-.09.36.08.51.36s.27.72.13 1.04c-.13.27-.3.53-.46.79-.09.13-.14.28-.24.4l-.33.32c-.45.41-.96.76-1.53 1-.67.3-1.26.75-1.93 1.06-.74.3-1.52.51-2.29.66-.47.11-.95.15-1.42.24-.72.1-1.43.13-2.13.24-.55.06-1.07.22-1.62.3-.12.02-.24.05-.36.05-.45 0-.59-.17-.69-.74-.02-.13-.05-.26-.06-.39-.04-.44.13-.81.44-.99.45-.25.9-.48 1.35-.65.23-.09.45-.18.67-.24l.68-.07c.68-.05 1.36-.08 2.03-.17l.02.06zm-29.57-29.528.86-1.78c.45-.95.91-2.22 1.49-2.89.41-.56.76-1.01 1.2-1.18.29.06.52.02.73.11.22.07.43.21.65.37.44.31.87.88 1.26 1.46.19.29.38.59.56.88l.49.82.63 1.09c.37.64.84 1.21 1.29 1.76.28.36.6.68.88.99.25.34.44.73.62.98.04.13.05.64-.46 1.01-.25.17-.61.29-.99.31-.37.03-.8 0-1.1-.17-.94-.73-1.62-1.5-2.15-2.37-.27-.43-.52-.86-.75-1.3l-.33-.66c-.08-.15-.02-.11-.04-.17v-.12c0-.22-.12-.43-.24-.59a1 1 0 0 0-.2-.21c-.1-.1-.15.06-.19.11-.1.14-.22.31-.34.52l-.1.16c-.03.05-.06.1-.15.28l-.42.9c-.34.74-.68 1.47-1.01 2.22-.49 1.13-1.02 2.25-1.42 3.41-.32.9-.46 1.85-.7 2.78-.05.21-.08.42-.15.62-.15.37-.32.58-.57.68-.22.11-.52.09-.89 0-.16-.04-.32-.05-.45-.1-.41-.12-.88-.68-.89-1.26.06-1.73.66-3.37 1.28-5.03.47-1.23 1.01-2.44 1.52-3.66l.07.03z"/>
  <path fill="#12111f" d="M61.67 105.26c1.03-.23 2.06-.46 3.09-.68.38-.08.74-.23 1.13-.28 1.38-.17 2.78-.25 4.15-.3.61-.03 1.2-.12 1.79-.19.76-.06 1.52-.31 2.3.17.24.13.22.46.04.92-.09.23-.21.51-.36.78-.07.13-.15.28-.24.38-.09.08-.18.14-.28.17-1.41.43-2.77.63-4.24.67-.89 0-1.71.45-2.56.72-.94.3-1.92.52-2.89.82-.6.18-1.21.35-1.8.55-.91.31-1.84.57-2.71.97-.68.31-1.26.85-1.91 1.22-.14.08-.27.2-.43.26-.57.23-.84.05-1.28-.83-.1-.2-.21-.4-.3-.6-.3-.69-.27-1.36.05-1.74.49-.54.99-1.05 1.59-1.36.59-.32 1.21-.57 1.86-.8.95-.34 1.95-.61 2.95-.92l.03.08z"/>
  <path fill="#12111f" d="M166.41 170.531c6.33-1.11 12.63-2.53 18.83-4.34 2.26-.68 4.47-1.5 6.7-2.25 3.94-1.3 7.86-2.71 11.69-4.31 3.84-1.58 7.63-3.31 11.28-5.29 3.23-1.76 6.4-3.7 9.32-5.85.97-.66 1.84-1.43 2.76-2.14.93-.71 1.72-1.55 2.66-2.24 1.72-1.53 3.56-2.96 5.22-4.61 1.25-.89 1.15-.77.91.62-.11.7-.35 1.68-.79 2.79-.22.55-.44 1.19-.77 1.78-.35.57-.75 1.15-1.21 1.71-1.6 2.04-3.63 3.59-5.56 5.22-1 .76-1.99 1.55-3.02 2.27-1.04.71-2.06 1.44-3.12 2.11-4.3 2.58-8.79 4.79-13.42 6.64-5.53 2.23-11.17 4.77-16.93 6.7-6.33 2.11-12.79 3.86-19.33 5.19-4.02.85-8.08 1.48-12.14 2.05-6.16.83-12.41 1.21-18.6 1.26-4.81.05-9.56.05-14.36-.55-1.05-.14-2.1-.22-3.15-.47-1.96-.38-3.19-.92-4-1.43s-1.2-1.02-1.43-1.67c-.1-.3-.27-.6-.29-.87-.09-.89 1.63-1.12 4.36-.85 1.03.03 2.04.17 3.06.29 1.02.11 2.06.15 3.08.24 1.02.13 2.06.16 3.1.23s2.08.15 3.14.16c4.2.19 8.5.11 12.8-.13 6.39-.38 12.83-1.14 19.2-2.35l.03.12z" opacity=".45"/>
  <path fill="#12111f" d="M295.199 216.312c-.15.43-.4.71-.6.97-.24.22-.44.4-.78.53-.13.05-.27.09-.38.08-.1 0-.18 0-.26-.04-.51-.26-1.12-.84-1.73-2.09-.23-.63-.56-1.02-.7-1.72-.1-.42-.18-.8-.19-1.15.01-.27.07-.52.16-.77.06-.15.14-.12.3-.02.15.11.48.25.71.42.12.1.08.07.09.08 0 0 0 .02-.01.05 0 .07 0 .22.07.58.11.45.18.46.33.67.12.16.25.11.3.07q.105-.06.21-.18c.09-.1.18-.22.21-.4.05-.25.07-.56-.06-.87-.08-.19-.4-.5-.67-.8-.05-.07-.13-.12-.18-.19-.18-.26 0-.45.51-.85l.34-.26c.36-.26.87-.38 1.19-.21.44.28.77.61 1.01 1.08l.09.18.11.27c.08.19.15.38.19.57.11.39.2.78.23 1.15.14 1.17-.17 2-.43 2.89l-.05-.06z"/>
  <path fill="#12111f" d="M293.77 212.161c-.43.04-.87.08-1.3.14-.16.02-.29.12-.45.13-.57.04-1.15.09-1.71.13-.25.02-.48.11-.7.21-.28.14-.56.31-.95.13-.15-.15-.24-.46-.33-.96-.08-.5-.12-1.05.02-1.18.24-.24.53-.33.82-.44.3-.09.6-.16.96-.1.42.06.75-.2 1.12-.3.42-.11.84-.19 1.27-.28.26-.06.53-.11.78-.18.39-.11.8-.17 1.17-.35.28-.16.53-.39.84-.57.06-.04.13-.1.22-.11.29-.04.53.14.63.77.03.14.06.28.07.43.04.48.02.9-.02 1.13-.11.38-.28.6-.47.83-.19.22-.46.26-.72.36-.39.12-.82.18-1.23.27l-.02-.07zm24.541-17.23c-4-2.69-9.12-3.31-13.73-2-.97.28-1.58 1.32-1.31 2.31s1.33 1.59 2.31 1.31c1.26-.36 2.19-.52 3.44-.55.56-.01 1.13 0 1.69.06.11.01.43.05.16.01l.37.06c.27.05.53.1.8.16.47.11.94.24 1.4.39.2.07.41.14.61.22.1.04.19.08.29.12-.37-.15-.04-.01.04.02.71.33 1.38.7 2.03 1.13.84.57 2.08.16 2.57-.67.54-.92.17-2-.67-2.57M229 108.048c.28.36.56.72.86 1.06.11.12.25.2.36.33.36.47.75.88 1.08 1.4.15.21.35.37.54.54.29.14.4.54.54.89.04.11.02.12-.11.15-.1.03-.2.06-.28.09-.11.03-.3.14-.4.13l-.32.02c-.1 0-.17-.05-.25-.07-.16-.06-.31-.13-.46-.21-.28-.17-.61-.28-.79-.59-.24-.34-.63-.49-.95-.75-.35-.28-.68-.58-1.01-.87-.21-.18-.41-.37-.62-.54-.32-.26-.62-.55-.98-.76-.28-.16-.65-.19-.98-.26-.07-.02-.161-.01-.221-.05-.23-.13-.179-.33.201-.94l.26-.42c.31-.46.669-.77.929-.8.76-.08 1.241.27 1.701.66.33.3.619.65.939.97l-.039.05zm39.9 178.312c-.66-1.65-1.43-3.26-1.94-4.96l-.85-2.52c-.28-.84-.46-1.71-.7-2.56-.31-1.25-.77-2.46-.96-3.74l-.6-3.34c-.21-1.11-.25-2.25-.39-3.37-.09-1.13-.27-2.24-.3-3.37l-.11-3.38c-.03-1-.06-2 0-2.99l.09-2.98c.02-.63.03-1.27.07-1.9l.21-1.9c.14-1.26.3-2.52.54-3.77.14-.78.13-.67.18 0 .05.68.28 1.92.25 3.37-.11 2.56.2 5.12.24 7.67.02 1.27.25 2.54.27 3.81.07 1.27.08 2.56.25 3.83.18 1.52.32 3.08.65 4.62.35 1.53.67 3.08 1.04 4.6.49 1.65.89 3.33 1.45 4.96l.87 2.43.44 1.22.52 1.18c.43.97.84 1.95 1.29 2.91l1.49 2.81c.35.72.82 1.38 1.24 2.07.43.68.83 1.38 1.29 2.04.96 1.29 1.84 2.63 2.94 3.79.41.46.83.91 1.24 1.37l1.35 1.23c.87.85 1.87 1.53 2.82 2.27.41.33.88.56 1.3.88.4.28.73.53.99.73.28.18.49.35.66.52.33.33.46.64.5 1.03.02.18.07.38.05.54-.04.55-.97.5-2.45-.14-4.21-2.13-7.69-5.72-10.57-9.61-1.12-1.42-2.02-2.99-2.96-4.53-.46-.78-.84-1.6-1.26-2.39-.4-.81-.86-1.58-1.19-2.42l.05-.03zm145.28 107.23c1.42-2.32 2.7-4.74 3.93-7.18.43-.9.78-1.84 1.21-2.74.74-1.6 1.49-3.2 2.19-4.83.74-1.61 1.43-3.25 2.1-4.89.58-1.47 1.08-2.97 1.55-4.46l.43-1.45c.16-.48.34-.95.51-1.42s.36-.94.55-1.41l.3-.7c.11-.23.31-.43.45-.65.42-.53.45-.43.65.18.09.3.35.78.38 1.27.07.5.09 1.07 0 1.65l-.28 1.54c-.1.51-.27 1-.41 1.5-.29 1-.62 1.98-.95 2.97-.66 1.97-1.42 3.92-2.29 5.83-.52 1.15-.99 2.33-1.49 3.52-.48 1.2-.95 2.4-1.5 3.56-1.16 2.58-2.48 5.08-3.84 7.56-.88 1.5-1.74 3.02-2.69 4.48-1.38 2.25-2.96 4.38-4.51 6.5-1.24 1.62-2.37 3.28-3.71 4.82-.29.34-.54.71-.87 1.02-1.19 1.18-1.71 1.41-2.45 1.13-.17-.06-.35-.11-.5-.2-.48-.3-.31-1.1.39-2.04 2.12-2.79 4.24-5.7 6.34-8.68 1.52-2.25 3.06-4.5 4.4-6.9l.07.03zm-35.989 37.33c-3.28.82-6.69 1.25-10.09 1.05-1.25-.06-2.45-.11-3.65-.31-4.22-.68-8.39-1.95-12.13-4.02-1.65-.93-3.24-1.97-4.72-3.13l-1.38-1.16c-.45-.4-.85-.85-1.25-1.3-.76-.93-1.46-1.91-2.09-2.92-.39-.63-.29-.58.24-.21.33.23.7.49 1.08.75.45.3 1.01.62 1.54 1.02.46.37 1.01.63 1.43 1.02.43.38.91.7 1.36 1.06.93.68 1.89 1.3 2.87 1.88 1.99 1.13 4.04 2.15 6.23 2.95 2.62.98 5.55 1.36 8.41 1.59 3.12.35 6.25.17 9.35-.49 1.9-.39 3.78-.94 5.6-1.66 2.76-1.07 5.45-2.41 7.93-4.05 1.93-1.25 3.63-2.78 5.32-4.3.37-.34.71-.7 1.09-1.03 1.41-1.22 1.99-1.47 2.84-1.12.19.08.41.14.58.24.56.35.32 1.25-.62 2.34-2.82 3.19-6.5 5.86-10.47 8.06a42.7 42.7 0 0 1-9.45 3.8l-.02-.07zm-18.641-67.078c-.58-1.28-1.16-2.56-1.67-3.88-.19-.48-.45-.92-.63-1.41-.64-1.7-1.2-3.43-1.76-5.15-.26-.76-.51-1.52-.76-2.28-.16-.49-.31-.98-.44-1.47-.03-.12-.07-.25-.09-.37v-.4c-.02-.26-.02-.53-.01-.79.02-.33.07-.3.31-.09.18.15.36.3.52.42.12.1.23.2.33.28.06.05.1.11.17.16.03.06.06.13.09.19.43.91.86 1.83 1.29 2.75.38.93.73 1.88 1.06 2.85.39 1.17 1.07 2.26 1.64 3.37.63 1.23 1.24 2.47 1.85 3.72.38.77.77 1.53 1.16 2.29.61 1.14 1.21 2.31 1.89 3.4.52.86 1.17 1.62 1.76 2.42.13.18.28.34.4.52.44.69.41 1.01-.1 1.51-.12.11-.23.24-.35.34-.42.34-.98.27-1.43-.15-1.32-1.28-2.43-2.8-3.35-4.45-.68-1.22-1.3-2.5-1.94-3.76l.06-.03zm-19.86-24.721s10.23-1.66 12.44 1.8c1.82 2.84-8.37 6.18-8.37 6.18l-4.08-7.98zm-19.791 3.801c-.56.31-4.43 1.58-3.63 3.27s7.58 2.73 7.58 2.73z"/>
  <path fill="#12111f" d="M335.211 348.968c-1.32-.01-2.63-.04-3.94-.14-.48-.02-.96-.03-1.44-.08a45 45 0 0 1-5.02-.82c-.73-.18-1.47-.36-2.18-.6-.93-.24-1.83-.74-2.54-1.42-.23-.2-.15-.22.13-.2.29.02.75.08 1.28.13 1.79.35 3.59.52 5.45.92 1.11.21 2.3.18 3.46.21 1.28.03 2.56.06 3.85.05.79 0 1.58-.03 2.37-.07 1.2-.08 2.4-.15 3.57-.35.91-.15 1.77-.48 2.61-.75.18-.06.36-.14.54-.19.69-.19.88-.15 1.25.3.08.1.17.19.24.3.24.34.07.77-.49 1.12-1.59.97-3.39 1.21-5.17 1.42-1.32.15-2.66.19-3.98.23v-.05zm-28.049-65.019c.18.44.45.87.71 1.31.09.16.26.27.36.44.37.57.76 1.16 1.21 1.71.2.23.42.46.65.67.15.14.31.26.45.4.11.18.24.34.24.64 0 .19-.08.24-.33.36-.27.14-.7.32-.96.28-.38-.18-.72-.4-1.05-.64-.31-.27-.57-.6-.8-.97-.27-.44-.73-.73-1.09-1.12-.39-.43-.74-.91-1.05-1.42-.19-.32-.37-.64-.54-.97-.27-.5-.44-1.04-.67-1.56-.15-.41-.46-.79-.59-1.24-.03-.1-.07-.19-.08-.3-.01-.38.14-.51.73-.59.13-.02.26-.04.38-.05.41-.03.83.09 1.01.27.63.52.69.98.93 1.51.16.39.31.81.55 1.22l-.05.03zm-14.691-136.75c-4.09 1.37-26.71 3.84-24.01 29.22 2.27 21.28 28.53 20.87 28.53 20.87s16.05-3.55 21.52-11.81c5.48-8.27 10.16-4.49 11.13-3.59.96.9 16.82 18.86 17.15 25.86s3.74-5.58 8.82-6.77 9.51.37 10.9 3.74 2.67 11.05-.64 14.62c-3.31 3.58-5.84 4.82-5.84 4.82s5.74 5.03 2.64 20.55c-3.11 15.51-11.93 25.56-11.93 25.56s26.85-3.2 33.04-7.43l6.19-4.22s4.36-26.43 5.27-25.98c8.66 4.29 7.36 21.4 7.36 21.4s9.88-4.02 15.38-11.8c5.5-7.77 11.83-20.11 12.85-26.32 1.01-6.22 0-9.51 0-9.51s-14.79 4.12-20.71-9.15c-5.93-13.27-8.46-36.28-9.6-39.15s-6.06-12.6-10.39-16.76-18.7-13.16-24.34-15.47c-5.65-2.31-22.02-2.38-26.54.2s-20.82 13.98-22.97 17.4-4.39 10.12-4.39 10.12l-19.42-6.39zm-38.19-52.468c1.57.85 2.94 1.83 4.29 2.83.48.37 1.02.67 1.48 1.06 1.65 1.38 3.21 2.84 4.64 4.42.63.7 1.32 1.35 1.93 2.06.38.47.8.9 1.14 1.4s.72.98.88 1.6c.1.38-.07.43-.51.36-.48-.05-1.13-.24-1.62-.67-1.74-1.54-3.47-3.02-5.11-4.72-.98-1.02-2.25-1.79-3.43-2.6-1.3-.9-2.63-1.76-4-2.49-.42-.22-.85-.44-1.28-.62-.23-.11-.41-.17-.58-.22-.17-.07-.37-.09-.57-.13-1.22-.18-2.69.07-4.04.57-1.06.39-2.02 1.02-3.08 1.57-.24.12-.46.27-.72.37-.95.41-1.5.17-1.83-.6-.08-.18-.16-.36-.21-.54-.08-.31-.03-.61.06-.87.08-.25.24-.51.49-.7 1.56-1.07 3.58-2.14 6.01-2.72.9-.22 1.89-.36 2.98-.3.26 0 .55.04.83.09.28.04.56.09.85.2.64.19.99.39 1.41.59l-.03.07z"/>
  <path fill="#12111f" d="M274.96 107.359c1.27 2.62 2.39 5.28 3.46 7.95.39.97.86 1.91 1.22 2.89.65 1.73 1.21 3.49 1.75 5.25l1.58 5.28c.46 1.56.99 3.11 1.46 4.66.59 1.99 1.25 3.98 1.41 6.09.05.66-.33.65-.9.24-.56-.42-1.39-1.22-1.8-2.32-1.57-3.87-2.87-7.82-4.09-11.86-.73-2.42-1.87-4.79-2.83-7.17-1.07-2.62-2.17-5.23-3.39-7.77-.75-1.56-1.55-3.1-2.4-4.6-1.31-2.24-2.72-4.5-4.54-6.18-.71-.62-1.51-1.13-2.26-1.34-.72-.21-1.59-.16-2.29.06-.32.11-.61.26-.89.42-1.02.65-1.21.69-2.11.56-.19-.02-.41 0-.61 0-.33 0-.6-.22-.62-.74-.02-.51.24-1.2.81-1.8 1.72-1.75 4.47-2.43 7.07-1.5 2.45 1.02 3.92 2.66 5.25 4.26 1.95 2.41 3.43 4.99 4.78 7.6l-.07.04zm148.239 131.612a59.8 59.8 0 0 1-9.82 10.4c-.69.53-1.37 1.08-2.04 1.63-.34.27-.67.55-1.02.81l-1.1.7-2.38 1.47c-.79.49-1.66.84-2.49 1.26-.84.39-1.66.84-2.52 1.18-.63.21-2.38.91-3.63 1.29-.34.08-.62.02-.94.03h-.83c-.03.04.26-.36.14-.19h-.01c-.02-.01-.03-.02-.04-.03-.13-.19-.29-.32-.4-.59-.08-.28-.13-.66-.08-1.11.1-.9.28-1.87.4-2.71l.24-1.76c.31-2.58.5-5.18.46-7.74-.03-1.64-.16-3.28-.37-4.9a39 39 0 0 0-.85-4.81c-.16-1.02.07-1 .82-.33.73.67 1.78 2.17 2.29 4.15.78 3.5.96 7.05.86 10.56-.02.88-.1 1.75-.18 2.62l-.14 1.3-.08.65c-.02.18-.07.53-.07.51l-.17.46c-.02.07-.11.28-.01.23.05.02.15-.07.2.03.04-.11.02-.03.03-.05.09 0 .2 0 .33-.03h.05l.17-.07.36-.13c.23-.09.48-.16.7-.28.9-.46 1.81-.93 2.71-1.4.93-.44 1.77-1.03 2.62-1.6.84-.59 1.74-1.09 2.53-1.73 3.64-2.64 6.83-5.89 9.67-9.42 1.74-2.18 3.32-4.51 4.7-6.94a54 54 0 0 0 5.08-11.65c.22-.79.46-1.57.64-2.36.15-.8.29-1.59.44-2.39l.21-1.19.13-1.2.26-2.39c.03-.71.03-1.4.08-2.1.16-1.3.21-2.15.42-2.76.2-.6.54-.95 1.04-1.24.22-.13.44-.31.65-.39.68-.28 1.39.84 1.58 2.94.21 3.09-.11 6.27-.76 9.39-.17.78-.34 1.57-.52 2.35-.21.78-.45 1.54-.68 2.32-.43 1.56-1.04 3.07-1.62 4.58-1.81 4.47-4.19 8.71-6.94 12.68l-.08-.04zm-124.288-24.999c-.03 1.16-.19 2.34-.28 3.5-.11 1.16-.39 2.33-.57 3.48-.18.84-.35 1.69-.58 2.52-.97 2.89-2.46 5.68-4.61 7.9l-.71.74-.79.67c-.27.22-.51.47-.8.66l-.88.55-.56.36-.61.28c-.41.17-.81.39-1.24.5-.44.1-.89.14-1.34.19-.45 0-.91-.05-1.34-.15-.55-.28-.44-.4-.05-.95.19-.29.46-.57.74-.87.29-.26.58-.64.92-.8 1.25-.55 2.41-1.26 3.44-2.22l.41-.33.37-.39.76-.77c.45-.57.94-1.14 1.38-1.75.48-.78.97-1.58 1.22-2.51l.45-1.36c.1-.47.2-.95.32-1.41.31-1.01.44-2.08.61-3.14.22-1.05.21-2.15.3-3.23l.07-1v-1.01l-.06-2.02c-.02-1.02-.17-2.04-.26-3.06l-.17-1.53c-.09-.5-.2-1.01-.31-1.51-.35-1.55-.88-3.03-1.42-4.51-.11-.33-.26-.64-.35-.97-.37-1.23-.18-1.71.59-2.22.18-.12.35-.25.53-.35.61-.31 1.3.05 1.8.93.34.66.66 1.34.96 2.03.29.7.61 1.4.77 2.15.36 1.49.73 3 .93 4.56.14 1.16.25 2.32.36 3.48l.07 3.53h-.08zm10.638 44.116c.22.03.44.06.74.18.16.06.23.08.44.2.22.13.43.3.6.48.57.7.61 1.2.69 1.55.05.35.05.62.05.86l-.02.57c-.03.08-.06.25.07.29l.05.03.15.06.65.24c.44.16.88.3 1.33.43.45.14.89.23 1.34.34q.66.18 1.35.27c.59.1 1.19.17 1.79.19.6.04 1.2.07 1.81.08 4.27.22 8.66-.52 12.67-2.22 1.75-.8 3.47-1.75 4.96-2.95.49-.37.98-.75 1.41-1.19s.94-.8 1.36-1.25c.43-.44.88-.87 1.34-1.29.42-.46.84-.92 1.27-1.38.55-.56.76-.32.69.45-.09.76-.34 2.19-1.28 3.45-.39.58-.81 1.13-1.31 1.62-.49.5-.96 1.01-1.51 1.44-.54.44-1.05.92-1.62 1.32s-1.15.8-1.73 1.18a26.4 26.4 0 0 1-7.78 2.89c-3.23.65-6.62 1.24-10.02 1.02-.73-.06-1.45-.1-2.17-.24l-1.08-.17-1.08-.25c-.72-.16-1.41-.36-2.1-.58l-1.02-.35-.55-.2-.76-.3c-.27-.13-.52-.26-.73-.44-.22-.18-.37-.45-.46-.71-.19-.54-.21-1.14-.19-1.74 0-.34.02-.55.01-.77 0-.09 0-.2-.02-.23.01-.04-.04-.04.03-.04.1-.03.19-.08.28-.13.07-.03.11-.04.16-.08.04-.02.11-.1.12-.1 0 0 .02-.01.03-.03v-.02c.16-.32-.22.43-.18.35l-.04.08c-.02.05-.04.1-.05.15-.02.14-.02.07-.04.09-.02 0-.02-.01-.06-.01-.12-.01-.34.01-.56.05-.45.08-.98.23-1.54.36l-.44.1c-.15.03-.29.06-.52.09-.4.04-.81.05-1.2-.05-.58-.16-1.1-.64-1.39-.84-.35-.25-.67-.53-1-.8a26 26 0 0 1-1.89-1.73c-1.21-1.2-2.32-2.5-3.33-3.85-1.58-2.1-3.03-4.25-4.18-6.6-.27-.51-.52-1.02-.74-1.55-.75-2.02-.68-2.76-.03-3.41.15-.15.29-.33.46-.44.56-.36 1.28.3 1.97 1.61 1.98 3.88 4.13 7.78 7.15 10.99 1.11 1.19 2.32 2.29 3.63 3.27l.2.15.01.01h.01s.03.02 0 .02c0 0 .12-.02.19-.03l.26-.06 1.3-.33c.52-.1 1.04-.28 2.04-.2v.08zm37.282 9.002s.07.04.11.06c.03.01.03.07.08.05.09 0-.06 0 .41.1.66.2 1.32.36 1.99.5.67.17 1.34.29 2.02.4.68.13 1.36.21 2.04.28 2.74.3 5.53.3 8.3.03 2.22-.22 4.4-.71 6.58-1.22 3.72-.87 7.36-2.17 10.87-3.76 1.75-.8 3.47-1.69 5.15-2.66.84-.48 1.66-.99 2.46-1.51l1.19-.8.57-.41c.16-.12.21-.15.3-.24.06-.11.11-.23.14-.36.18-.7.33-1.67.47-2.53l.38-2.69c.24-1.81.49-3.61.73-5.4l.51-3.46c.21-1.15.45-2.3.73-3.44.53-2.29 1.29-4.56 2.52-6.63.79-1.28.8-1 .7.26-.08.62-.03 1.54-.07 2.59.03 1.07-.02 2.28-.23 3.56l-.32 2.36c-.09.79-.16 1.59-.29 2.37-.23 1.58-.45 3.17-.65 4.77l-.61 4.83c-.1.81-.22 1.63-.35 2.46l-.22 1.29-.09.37c-.05.18-.08.37-.14.55l-.48 1.04c-.23.26-.49.5-.74.73l-.54.42q-.48.36-.96.69c-.65.43-1.3.85-1.96 1.24-1.32.79-2.67 1.53-4.04 2.2-5.24 2.57-10.88 4.98-16.79 6.19-6.47 1.29-13.3 1.34-19.74-.38a6 6 0 0 1-.62-.19l-.89-.27c-.58-.22-1.17-.44-1.76-.64l-1.08-.76-.27-.19h-.02v-.01c.05-.02-.12.04.11-.05v-.01c0-.01-.02-.02-.03-.04 0-.02-.02-.05-.03-.08l-.03-.14c-.04-.17 0-.37.07-.58.22-.84 1.09-1.85 1.77-2.76l1.5-1.96 1.37-1.86c3.45-4.8 6.62-9.86 8.87-15.25 1.74-4.18 2.8-8.53 3.09-12.87.06-.96.05-1.89.04-2.85-.05-3.54-.12-4.63.72-5.6.18-.22.33-.5.51-.64.54-.51 1.69.87 2.15 3.79.64 4.31.11 8.83-1.06 13.11-1.18 4.3-3.01 8.41-5.14 12.3a89 89 0 0 1-5.25 8.35c-.94 1.34-1.92 2.65-2.89 3.96l-.73.97-.18.24-.02.02-.02.02s-.06.06-.09.1l-.14.05z"/>
  <path fill="#12111f" d="M371.542 125.862c9.16 3.71 17.18 9.97 23.1 17.76 2.19 2.82 4.14 5.85 5.66 9.1 1.37 2.83 2.39 5.92 3.13 8.9.76 2.99 1.41 5.96 2.08 8.92 1.33 5.91 2.68 11.8 4.54 17.49.83 2.52 1.79 5 2.95 7.35 1.16 2.34 2.53 4.57 4.3 6.27 2.24 2.15 5.43 3.26 8.55 3.53 3.16.25 6.34-.62 8.9-2.61 1.58-1.26 1.65-1.01.78.76-.24.42-.59.9-1.02 1.44-.47.49-1.02 1.08-1.74 1.57-1.42 1.02-3.42 1.82-5.67 1.98-3.98.3-7.98-.83-11.27-3.39-1.63-1.3-2.86-2.85-3.93-4.43-1.06-1.59-1.93-3.24-2.7-4.91-2.98-6.72-4.63-13.67-6.16-20.6-.9-4.15-1.84-8.36-2.97-12.49a67 67 0 0 0-.91-3.04c-.31-.99-.75-1.94-1.12-2.91a49 49 0 0 0-2.83-5.58c-4.66-7.91-11.54-14.56-19.64-19.02a50.6 50.6 0 0 0-16.08-5.57l-1.6-.26-.8-.13-.81-.06-3.24-.26c-2.14-.14-4.27 0-6.39.34-4.24.68-8.37 2.13-12.21 4.06-5.95 3.05-11.18 7.28-15.27 12.31-.91 1.11-1.67 2.27-2.44 3.46-1.39 2.23-2.06 3.78-2.62 4.83-.28.53-.53.95-.76 1.29-.25.34-.52.61-.8.85-.26.22-.54.54-.79.67-.42.23-.7-.24-.81-1.37-.05-1.11.19-2.87 1.03-4.91 1.23-3.02 3.05-5.76 5.14-8.26s4.49-4.76 7.09-6.78c5.2-4.04 11.2-7.24 17.77-9.04 2.44-.66 4.96-1.11 7.54-1.28.65-.03 1.29-.08 1.94-.06.65 0 1.3 0 1.91.06l3.73.29c4.95.6 9.84 1.79 14.49 3.62l-.02.09zm-59.55 158.149.26-.31.43-.59c.31-.43.6-.85.92-1.21.29-.42.69-.47.98-.6l.45-.17c0 .02-.02-.18-.01-.1h.1s.07.03.11.04l.21.08c.23.15.43.25.69.41l.38.23c.13.07.24.28.36.42.43.55.75 1.1 1.08 1.63l.59.96c.38.61.79 1.21 1.21 1.78.38.51.83.96 1.28 1.37.29.26.61.49.9.73.27.24.52.48.81.75.16.16.06.49-.3.74-.36.26-1.03.43-1.54.19-1.67-.96-2.86-2.24-3.85-3.67-.28-.42-.65-.86-.96-1.19-.13-.16-.24-.27-.34-.43l-.19-.29s-.08-.15-.12-.1c-.03.03-.07.06-.1.09q-.195.195-.45.48l-1.26 1.59c-.69.86-1.46 1.66-2.2 2.48-.58.64-1.07 1.38-1.76 2.02-.15.14-.29.29-.48.4-.67.4-1.03.29-1.48-.37-.1-.15-.21-.3-.29-.46-.28-.54-.24-1.1 0-1.47.67-1.14 1.58-1.95 2.49-3.01.68-.76 1.38-1.56 2.02-2.43l.06.04z"/>
  <path fill="#12111f" d="M316.98 277.022c-.45-.57-.93-1-1.34-1.27-.1-.05-.2-.12-.29-.17a.7.7 0 0 1-.23-.08c-.08-.04-.22 0-.33-.01-.11-.02-.25.01-.4.05l-.31.08-.33.16c-.22.1-.44.21-.67.34-1.7.8-3.44 2.14-4.98 3.6-.7.65-1.3 1.4-1.92 2.11-.8.92-1.5 1.94-2.54 2.7-.34.22-.53 0-.64-.51-.13-.52-.15-1.29.21-1.91 1.25-2.23 2.88-4.26 4.96-5.94 1.26-.97 2.38-2.26 4.04-3.05.87-.44 1.98-.77 3.19-.67.3.05.64.07.9.19.27.11.53.22.79.34.44.28.92.55 1.26.89.93.78 1.6 1.67 2.28 2.53 1 1.32 1.83 2.7 2.78 3.96.73.98 1.62 1.81 2.46 2.58l.56.48c.64.6.65.84.26 1.71-.09.19-.16.4-.26.59-.31.64-1.05.83-1.84.36-2.21-1.39-3.51-3.37-4.82-5.2-.95-1.36-1.85-2.74-2.83-3.79l.06-.06zm20.281 61.299-1.64-3.92c-.2-.47-.47-.91-.67-1.39-.69-1.69-1.38-3.38-2.06-5.07-.32-.74-.68-1.47-1.05-2.17-.47-.92-1.04-1.78-1.26-2.82-.08-.32.18-.41.6-.33.39.1 1.06.3 1.37.81 1.13 1.78 2.2 3.59 3.01 5.56.5 1.17 1.19 2.3 1.78 3.45l1.87 3.85 1.15 2.37c.59 1.19 1.16 2.4 1.8 3.55.51.89 1.16 1.69 1.74 2.53.13.18.28.35.4.55.42.72.36 1.05-.24 1.55-.14.11-.27.24-.41.34-.49.33-1.08.25-1.54-.2-1.33-1.35-2.26-3.02-3.14-4.71-.62-1.28-1.18-2.59-1.78-3.89l.06-.03zm8.88 81.819c3.82 3.32 8.19 6.04 12.91 7.79 4.72 1.73 9.82 2.4 14.76 1.72 3.59-.52 7.1-1.72 10.22-3.63 5.64-3.32 10.62-7.93 14.97-13.02 4.36-5.11 8.16-10.73 11.53-16.61 1.52-2.59 2.87-5.29 4.22-7.99 1.28-2.73 2.55-5.46 3.72-8.21 3.03-7.07 5.56-14.37 8.17-21.61.83-2.25 1.21-1.81 1.15.31-.05 2.12-.55 5.93-1.97 10.19-2.51 7.54-5.34 15.01-8.97 22.15-3.59 7.15-7.73 14.08-12.75 20.44-1.45 1.94-3.1 3.75-4.72 5.61l-.61.7-.65.66-1.31 1.32c-.89.87-1.71 1.81-2.69 2.6l-2.84 2.47c-.97.8-2.03 1.49-3.04 2.24l-1.54 1.1-1.68.95-1.68.94c-.58.27-1.18.49-1.78.74-5.21 2.14-11.01 2.8-16.54 1.98-5.53-.84-10.77-2.97-15.43-5.9-2.91-1.76-5.52-3.94-7.98-6.24-1.17-1.22-2.4-2.37-3.45-3.7-.54-.65-1.09-1.28-1.62-1.94l-1.48-2.05c-5.76-8.32-10.26-17.41-13.98-26.66-2.83-7.22-5.33-14.42-7.13-21.89-.41-1.64-.82-3.25-1.13-4.93-1.21-6.22-1.14-8.27-.41-9.72.17-.33.32-.76.5-.96.3-.34.68.11 1.1 1.19.43 1.08.82 2.81 1.32 5.03 1.39 6.59 3.12 13.27 5.31 19.9 2.17 6.63 4.75 13.23 7.86 19.58 2.3 4.72 4.85 9.33 7.71 13.73l1.07 1.65 1.13 1.55c.38.52.75 1.04 1.13 1.55l1.24 1.46c.42.48.81.99 1.25 1.45l1.35 1.36c.87.94 1.85 1.76 2.81 2.6l-.05.08z"/>
  <path fill="#12111f" d="M361.849 359.219c.65 1.97 1.34 3.94 2.18 5.84.31.69.69 1.35 1.01 2.04 1.05 2.47 2.29 4.86 3.79 7.1.34.49.69.97 1.06 1.44.4.44.79.89 1.18 1.33.5.58 1.07 1.06 1.59 1.62.51.57 1.12 1 1.59 1.64.3.39.11.56-.43.59-.54.04-1.45-.07-2.23-.61-.64-.51-1.33-1-1.93-1.56-.57-.59-1.17-1.17-1.7-1.79-.52-.64-1.04-1.27-1.52-1.94-.46-.68-.9-1.37-1.33-2.07-.46-.86-1.01-1.69-1.56-2.54-.51-.86-1.1-1.69-1.53-2.58-.97-1.96-1.86-3.97-2.62-6.01-.5-1.25-.9-2.53-1.34-3.79-.32-.96-.59-1.94-.89-2.91-.26-.98-.54-1.95-.83-2.92-.21-.76-.45-1.49-.72-2.23-.25-.74-.49-1.48-.71-2.24-.09-.33-.21-.65-.27-1-.22-1.27-.05-1.72.77-2.1.19-.09.37-.19.56-.25.64-.2 1.27.23 1.63 1.08.25.63.5 1.27.75 1.9.23.64.41 1.3.62 1.95.42 1.31.76 2.65 1.14 4 .55 2 1.14 4 1.82 5.98l-.07.03zm23.062-23.019c-.76 2.45-1.54 4.89-2.5 7.27-.33.87-.6 1.77-1 2.61-.65 1.51-1.42 2.97-2.15 4.44-.81 1.43-1.59 2.87-2.49 4.25-.73 1.25-1.57 2.45-2.33 3.67-.54.75-1.1 1.5-1.66 2.23-.3.36-.6.7-.95 1.02-.36.3-.71.6-1.08.9-.46.36-.53.19-.44-.37.04-.28.12-.66.22-1.11.06-.22.1-.46.2-.69.1-.22.23-.43.37-.64.96-1.54 1.92-3.07 2.88-4.61.92-1.56 1.83-3.13 2.72-4.74 1.09-1.92 1.78-4.12 2.54-6.24.8-2.35 1.58-4.71 2.2-7.12.41-1.48.76-2.97 1.07-4.48.46-2.28.91-4.58 1.15-6.88.17-1.79.11-3.57.08-5.36 0-.39-.04-.78-.04-1.17.06-1.46.34-1.9 1.31-2.16.22-.06.44-.14.66-.17.74-.1 1.3.54 1.46 1.65.44 3.29.11 6.74-.44 10.16-.4 2.54-1.06 5.06-1.72 7.56h-.08zm64.25 1.42c-3.1-7.58-6.52-15.04-10.37-22.27-.68-1.33-1.47-2.6-2.2-3.9l-1.12-1.94-1.16-1.91c-2.63-4.55-5.56-8.92-8.64-13.17-3.1-4.24-6.53-8.22-10.2-11.96-1.69-1.59-3.34-3.25-5.19-4.65-.92-.71-1.77-1.5-2.74-2.13l-2.85-1.95c-1.23-.81-2.55-1.46-3.83-2.2-1.27-.75-2.68-1.2-3.97-1.9l-.99-.49-1.03-.39-2.06-.8-1.03-.41c-.35-.11-.71-.2-1.06-.3-.71-.2-1.38-.56-2.1-.76-1.77-.53-1.51-.74.12-.79.81 0 2.03-.24 3.46-.14 1.39.18 3.04.47 4.79.93.74.28 1.49.55 2.23.85l2.19.96c1.4.75 2.78 1.54 4.17 2.31 1.34.84 2.63 1.76 3.95 2.64 1.3.91 2.48 1.95 3.73 2.92 4.84 4.05 9.05 8.76 12.84 13.75 4.51 5.98 8.97 12.35 12.79 18.95 4.19 7.26 7.89 14.78 11.26 22.42 2.1 4.7 3.98 9.48 5.84 14.27 2.78 7.27 5.24 14.69 7.54 22.05 1.79 5.73 3.59 11.34 5.09 17.1.32 1.27.69 2.5.96 3.81 1.07 4.8.96 6.44.2 7.6-.17.27-.33.6-.52.77-.65.54-1.46-1.32-2.32-4.73-2.54-10.13-5.68-20.75-9.18-31.29-2.63-7.82-5.45-15.61-8.65-23.24l.07-.04zm-90.532-47.729a34.5 34.5 0 0 1-4.36 5.07c-.58.57-1.14 1.17-1.78 1.68-2.28 1.77-4.99 3.08-7.82 3.61-1.25.25-2.53.38-3.78.37-.81 0-1.61-.08-2.4-.22-.39-.09-.78-.19-1.16-.31-.38-.11-.73-.36-1.06-.59-.41-.31-.32-.34.15-.51.23-.08.57-.25.94-.35.36-.08.76-.17 1.16-.15 1.44.04 2.83-.14 4.16-.48.67-.16 1.32-.38 1.97-.62.66-.21 1.32-.45 1.98-.71 1.59-.66 2.98-1.87 4.3-3.06 1.47-1.31 2.82-2.82 4-4.46.74-1 1.41-2.06 2.01-3.16.9-1.67 1.73-3.41 2.23-5.23.39-1.41.46-2.87.48-4.28 0-.31-.01-.61-.02-.92.02-1.14.28-1.46 1.31-1.71.23-.06.46-.14.69-.17.76-.13 1.45.4 1.62 1.41.47 2.98-.26 6.05-1.37 8.87-.83 2.1-1.95 4.08-3.18 5.97l-.08-.04zM327.41 420.209c-.33 1.13-.67 2.25-1.03 3.36-.12.41-.18.83-.32 1.24-.51 1.42-1.08 2.82-1.67 4.2-.25.62-.47 1.25-.66 1.88-.25.81-.53 1.62-1.14 2.28-.19.21-.64-.04-1.04-.46s-.79-1.01-.69-1.46c.14-.82.43-1.57.73-2.33s.63-1.51 1.01-2.27c.47-.9.57-1.95.82-2.94.28-1.09.56-2.18.81-3.29.16-.68.31-1.36.44-2.05.2-1.04.43-2.09.51-3.14.06-.82-.08-1.65-.12-2.47 0-.18-.03-.36-.02-.54.06-.67.31-.85 1.14-.9.19-.01.38-.03.57-.03.63 0 1.13.34 1.29.85.12.38.22.76.28 1.15.04.38.06.77.05 1.15 0 .77-.09 1.55-.21 2.32-.17 1.15-.42 2.3-.69 3.45h-.08zm-88.4-313.808c.27-.02.58 0 .77.01l.55.07c.37.04.73.14 1.09.2.71.19 1.4.44 2.05.71.48.2.96.33 1.41.57 1.55.87 2.94 1.85 4.26 2.86.59.45 1.21.84 1.81 1.23.79.48 1.58.97 2.12 1.83.17.27.07.36-.29.47-.18.06-.43.13-.72.2-.28.05-.57.05-.84-.02-.48-.11-.91-.31-1.32-.52-.42-.21-.84-.41-1.24-.63-.82-.43-1.61-.89-2.34-1.45-.89-.66-1.98-.97-2.98-1.32-1.1-.41-2.2-.67-3.33-.84-.4-.05-.59-.08-.8-.05-.21.02-.47.12-.77.29-.91.53-1.98 1.23-2.94 1.93-.76.55-1.39 1.28-2.14 1.84-.16.13-.31.28-.48.39-.64.42-1 .29-1.55-.37-.13-.15-.26-.29-.37-.44-.36-.49-.4-1.18-.05-1.65.53-.67 1.07-1.32 1.71-1.82.63-.52 1.29-.98 1.97-1.45.51-.36 1.02-.7 1.64-1.09.3-.19.68-.41 1.13-.61.47-.2 1.04-.39 1.63-.44v.08z"/>
  <path fill="#12111f" d="M235.55 98.161c.57-.25 1.18-.48 1.87-.65.37-.07.69-.17 1.12-.18.2-.01.42-.03.6-.02l.45.04c1.21.06 2.35.33 3.48.59.81.22 1.64.36 2.42.65 2.76 1.02 5.31 2.4 7.67 4.04 1.03.74 2.07 1.49 3.04 2.29 1.26 1.01 2.46 2.17 3.2 3.65.16.52-.04.57-.65.54a4.76 4.76 0 0 1-2.16-.74c-2.39-1.87-4.9-3.44-7.51-5.1-1.58-.98-3.46-1.5-5.26-1.98-.99-.25-2-.49-3-.61-.5-.08-1-.13-1.5-.16-.29-.04-.4 0-.59 0-.2.03-.4.07-.61.12-1.08.3-2.24.9-3.34 1.57-1.68 1.03-3.36 2.16-4.92 3.41-1.22.97-2.3 2.08-3.45 3.13-.25.23-.48.48-.75.7-.99.81-1.47.86-2.19.34-.16-.11-.33-.21-.47-.33-.43-.38-.4-1.2.22-1.91 1.85-2.1 4.06-3.97 6.44-5.76 1.78-1.32 3.61-2.6 5.85-3.69l.04.07zm29.851 145.1c-.02 6.31.07 12.6.6 18.8.27 2.26.58 4.51.97 6.75.27 1.99.7 3.94 1.09 5.91.21.98.48 1.94.71 2.91l.37 1.45.44 1.43c1.15 3.83 2.61 7.57 4.57 11.03 1.74 3.06 3.9 5.92 6.51 8.2.89.66 1.74 1.38 2.67 1.97l1.43.83c.24.13.47.29.72.41l.75.33 1.51.69c.51.22 1.05.33 1.57.51.53.15 1.05.38 1.6.48l1.65.31c1.37.28 1.21.61-.05.92-.32.08-.7.16-1.15.23-.45.06-.97.18-1.52.13-.56-.02-1.16-.06-1.81-.14-.32-.05-.66-.06-.99-.16s-.66-.2-1-.32l-1.8-.63-1.66-.92c-1.15-.56-2.11-1.37-3.13-2.11-.53-.36-.97-.8-1.42-1.23l-1.37-1.29c-.85-.91-1.64-1.87-2.44-2.82-2.99-3.96-5.2-8.39-6.72-13.01-1.84-5.51-3.4-11.33-4.3-17.16-1.01-6.41-1.25-12.89-1.35-19.28-.05-3.94-.04-7.88-.04-11.81 0-5.95.06-11.92-.19-17.81-.2-4.57-.67-9.04-1.24-13.49-.11-.99-.29-1.94-.42-2.92-.12-.91-.19-1.68-.23-2.32-.06-.64-.07-1.16-.05-1.59.05-.87.28-1.4.68-1.87.18-.21.36-.49.55-.63.65-.48 1.47.94 2.15 3.65.87 4.03 1.46 8.23 1.82 12.49.32 4.26.48 8.58.54 12.89.11 6.41 0 12.82.06 19.18h-.09zm100.148-42.832c1.53 1.14 2.65 2.7 3.35 4.31.7 1.62 1.03 3.3 1.1 4.95.02 1.2.08 2.4-.16 3.56-.75 4.09-2.98 7.85-6.29 10.23-1.46 1.04-3.09 1.86-4.79 2.31-.54.17-1.1.25-1.65.38-.55.1-1.12.12-1.67.18-.56.02-1.12-.09-1.67-.14-.55-.06-1.08-.33-1.6-.47-.65-.24-.54-.28.04-.5.59-.2 1.63-.84 2.73-1.08 1.97-.29 3.82-.87 5.4-1.87 1.55-1.02 3.04-2.18 4.21-3.76 1.43-1.87 2.06-4.38 2.16-6.76.15-2.61-.45-5.33-2.06-7.18-1-1.11-2.32-1.91-3.86-2.19-2.34-.39-5 .01-7.06 1.38-1.62 1.03-2.78 2.6-3.67 4.26-.21.36-.35.75-.54 1.13-.7 1.39-1.1 1.76-2.16 1.74-.24 0-.48.02-.69 0-.69-.07-1.13-1.01-.78-2.37.52-2 1.56-3.99 3.11-5.7 1.52-1.73 3.63-3.07 5.93-3.79 1.72-.53 3.51-.72 5.34-.56 1.83.15 3.74.76 5.33 1.89l-.05.08z"/>
  <path fill="#12111f" d="M342.21 192.928c1.6 2.59 2.84 5.43 3.82 8.3.35 1.05.75 2.07 1.02 3.14.47 1.88.82 3.79 1.03 5.73.21 1.93.26 3.9.04 5.86-.19 1.73-.51 3.51-1.25 5.15-.47 1.05-1.12 2.06-1.98 2.87-.2.21-.44.39-.67.57s-.46.36-.74.47c-.26.14-.53.24-.81.33-.27.1-.54.18-.82.24-.7.15-.68-.15-.34-.73.17-.28.4-.68.63-1.11.22-.46.47-.89.83-1.24 1.19-1.31 1.82-3.02 2.15-4.89.33-1.88.27-3.9.21-5.97-.1-2.49-.9-5.03-1.69-7.47-.86-2.71-1.96-5.3-3.37-7.77-.84-1.53-1.81-3.01-2.83-4.44-1.58-2.15-3.31-4.24-5.22-6.12-1.49-1.46-3.14-2.69-4.77-3.95-.36-.28-.73-.53-1.08-.83-1.29-1.11-1.55-1.63-1.23-2.56.07-.21.12-.44.22-.63.33-.63 1.24-.61 2.34.04 3.29 1.95 6.27 4.67 9.03 7.66 2.04 2.24 3.89 4.69 5.55 7.29l-.07.05z"/>
  <path fill="#12111f" d="M264.119 167.072c-1.71 3.6-2.41 7.56-1.9 11.39.3 1.91.88 3.76 1.72 5.54.87 1.79 1.97 3.46 3.29 4.95 1.92 2.18 4.34 3.89 6.96 5.2 4.61 2.37 10.02 3.28 15.32 2.93 5.33-.36 10.6-1.98 15.53-4.32 4.38-2.09 8.48-4.83 12.22-7.88 2.42-1.95 4.69-4.09 6.85-6.32l3.17-3.39c.52-.57 1.02-1.16 1.51-1.75s.99-1.17 1.46-1.78c1.16-1.48 1.15-1.35.9.45-.27 1.78-1.38 5-3.8 7.91-4.4 5.01-9.45 9.41-15.18 12.87-5.68 3.48-12.01 6.18-18.77 7.2-1 .18-2.03.24-3.05.37-1.03.04-2.06.15-3.1.13-2.08.04-4.18-.14-6.25-.47-4.14-.67-8.26-2.12-11.78-4.53-3.88-2.62-7.04-6.32-8.96-10.58-1.02-2.12-1.61-4.45-1.86-6.79-.24-2.34-.13-4.72.38-6.99 1.2-5.63 4.24-10.57 7.99-14.65 1.41-1.55 3.04-2.96 4.76-4.22.9-.57 1.75-1.21 2.69-1.7.95-.47 1.87-.99 2.84-1.42 3.86-1.72 8-2.67 12.14-3.05.8-.12 1.61-.12 2.41-.16.8-.01 1.61-.1 2.41-.06 1.6.07 3.21.08 4.8.33 1.6.14 3.17.5 4.75.83.79.15 1.55.45 2.33.67.77.25 1.56.45 2.3.8 1.32.56 2.66 1.03 3.9 1.8.58.34 1.12.65 1.61.93.47.31.87.65 1.24.93.73.59 1.32 1.07 1.74 1.54.8.98 1.08 1.73 1.13 2.47.02.34.11.72.06.96-.09.42-.62.37-1.5 0-.45-.18-.94-.48-1.5-.86-.55-.4-1.28-.75-2-1.24-4.39-2.85-9.61-4.53-15-5.18-5.39-.71-11.01-.17-16.21 1.46-3.85 1.25-7.45 3.23-10.33 5.93-2.95 2.79-5.47 6.13-7.1 9.78l-.09-.03zm32.929 131.218c-1.8-3.33-3.52-6.73-4.85-10.4-.67-1.84-1.23-3.76-1.4-5.9-.14-2.3.45-4.28 1.14-6.18 1.07-2.75 2.53-5.25 4.28-7.5 1.55-1.97 3.27-3.79 5.14-5.45.94-.83 1.92-1.61 2.97-2.34l.81-.52.42-.25.21-.13.31-.16c.79-.45 1.76-.82 2.59-.91.43-.07.83-.01 1.23.09.19.08.39.17.54.32.2.09.29.3.44.44.49.68.73 1.55.7 2.47.02.45-.1.94-.18 1.39l-.19.66c-.06.22-.12.33-.18.51-.24.63-.54 1.21-.84 1.77-1.22 2.23-2.71 4.15-4.07 6.13-.74 1.06-1.48 2.12-2.14 3.18-.34.53-.65 1.06-.9 1.57-.25.52-.42 1-.38 1.26.12 1.32.81 2.78 1.57 4.16.63 1.14 1.36 2.29 2.09 3.37.65.97 1.51 1.8 2.51 2.5s2.14 1.26 3.33 1.75c.6.23 1.2.5 1.8.77.61.27 1.23.49 1.85.8.76.43 1.08.67 1.03.78-.05.12-.48.15-1.26.33-.78.17-1.88.31-3.24.32-1.34-.06-2.9-.45-4.49-1.29-1.18-.65-2.34-1.47-3.34-2.52-.49-.52-.97-1.12-1.34-1.7l-.95-1.55c-.62-1.05-1.23-2.13-1.78-3.32-.54-1.19-1.06-2.5-1.2-4.18 0-.39 0-.79.09-1.17.07-.38.17-.61.27-.91.2-.5.42-.95.64-1.35.45-.81.91-1.52 1.41-2.19.98-1.34 1.97-2.6 2.93-3.85.92-1.27 1.8-2.56 2.56-3.84.37-.64.71-1.28.96-1.9l.2-.48c.04-.09.06-.19.07-.29.03-.2-.05-.55-.31-.5-.11 0-.22.04-.34.08-.11.04-.22.09-.43.21-1.31.8-2.62 1.8-3.85 2.89-2.45 2.19-4.66 4.73-6.44 7.45-.99 1.49-1.82 3.07-2.42 4.71-.29.82-.54 1.65-.68 2.49-.09.43-.11.81-.14 1.2 0 .4 0 .81.06 1.24.42 3.41 1.96 6.89 3.58 10.19 2.04 4.09 4.38 8.06 6.79 11.99 1.85 2.98 3.7 5.96 5.55 8.93 1.85 2.98 3.65 6.05 5.24 9.18 2.46 4.87 4.68 9.77 6.34 14.97.37 1.14.71 2.27 1.01 3.46.53 2.19.7 3.7.68 4.76 0 1.06-.28 1.7-.68 2.2-.19.23-.37.53-.56.66-.67.44-1.29-1.27-1.98-4.3-1.05-4.5-2.65-9.04-4.52-13.52-1.88-4.49-4.06-8.92-6.61-13.15-3.84-6.35-8.01-12.71-11.72-19.38l.06-.05z"/>
  <path fill="#12111f" d="M326.162 288.772c-.27.45-.61.87-.9 1.3-.14.22-.33.42-.48.63l-.44.66c-.2.33-.39.67-.68.94-.46.5-1.04.93-1.56 1.37-.57.4-1.11.82-1.71 1.16-.54.3-1.01.67-1.55.95-.65.4-1.35.9-2.27.5-.28-.11-.29-.31-.24-.78.03-.32.06-.65.08-.91.04-.31.13-.53.25-.66.97-.76 1.93-1.33 3.08-2.02.7-.4 1.12-1.14 1.6-1.79.31-.33.61-.68.91-1.03.29-.36.51-.77.77-1.16.31-.48.59-.99.85-1.51.38-.79.78-1.59.98-2.44.17-.66.12-1.37.11-2.03 0-.14-.03-.3-.02-.43.04-.53.26-.56 1.17-.61l.62-.04c.7-.05 1.26.31 1.37.85.33 1.5.02 2.89-.49 4.22-.37.99-.89 1.93-1.4 2.86l-.07-.03z"/>
  <path fill="#12111f" d="M332.319 296.33c-.24.49-.57 1.15-.62 1.18-.08.16-.17-.02.46 1.07.48.81.98 1.64 1.46 2.49.45.79.95 1.57 1.34 2.4 1.37 2.93 2.39 6.2 2.14 9.56-.12 1.48-.48 2.95-1.12 4.28-.85 1.67-2.04 3.25-3.76 4.01-.5.28-.52.11-.33-.39.12-.32.26-.65.39-.98.08-.2.07-.49.17-.7.1-.2.24-.37.37-.56.47-.67.91-1.34 1.21-2.07.34-.71.57-1.45.73-2.2.3-1.52.24-3.14-.06-4.79-.36-1.99-1.42-3.91-2.52-5.74-.6-1.01-1.24-2.01-1.91-3l-1.04-1.55c-.13-.21-.27-.4-.38-.61-.13-.21-.23-.41-.29-.63-.11-.21 0-.44-.09-.67l.22-.64v-.02l.54-1.19c.15-.33.28-.66.41-1 .26-.67.5-1.35.7-2.04.58-2.07.96-4.29.58-6.29-.23-1.4-1.48-2.43-2.7-3.03-.27-.14-.55-.21-.82-.32-1-.33-1.25-.52-1.5-1.49-.05-.22-.14-.43-.18-.65-.07-.37.04-.69.36-.95.32-.25.87-.41 1.55-.34 1 .1 2 .42 2.89.93.89.52 1.68 1.22 2.34 2.08.33.43.63.92.88 1.46.25.53.43 1.25.5 1.7.18 1.01.21 1.98.16 2.93-.16 2.8-.94 5.4-2.01 7.8l-.08-.03zm-.689 51.698c2.52.02 5.06-.18 7.55-.64.91-.17 1.78-.48 2.66-.71 1.56-.41 3.09-.92 4.52-1.59 1.41-.69 2.78-1.47 3.82-2.55.21-.23.46-.5.61-.73.06-.11.15-.23.21-.34.03-.12.08-.23.12-.34.11-.45 0-.95-.32-1.48-.89-1.34-2.55-2.39-3.96-3.76-.43-.46-.29-.51.29-.49.6 0 1.67.02 2.76.53.96.46 1.91 1.04 2.78 1.99.44.46.84 1.09 1.11 1.83.23.77.3 1.69.06 2.47-.08.42-.26.73-.42 1.09-.17.36-.33.55-.5.83-.33.53-.76.95-1.17 1.36-.86.8-1.8 1.43-2.77 1.95-2.36 1.14-4.72 2.24-7.19 2.88-2.7.71-5.46 1.05-8.21 1.21-1.69.08-3.39.06-5.08-.02-2.56-.14-5.11-.53-7.61-1.13-1.94-.46-3.89-.9-5.78-1.78-.42-.18-.83-.39-1.23-.62-1.47-.94-1.68-1.62-1.28-2.52.09-.21.17-.42.29-.6.42-.59 1.27-.6 2.18-.17 2.72 1.29 5.79 2.16 9.08 2.71 2.43.41 4.96.62 7.5.57v.09zm-102.148-228.91c.51 1.21 1.88 2.59 3.46 3.69 1.59 1.13 3.4 2.09 5.26 2.99.68.33 1.39.62 2.1.92.73.31 1.42.58 2.25 1.02.19.1.49.29.71.46.22.19.38.36.54.51.28.31.55.62.77.91.46.59.85 1.15 1.25 1.7.79 1.09 1.58 2.11 2.44 3.06 1.69 1.9 3.76 3.41 6.15 4.25.52.22 1.08.32 1.62.47.56.14 1.2.24 1.8.38 1.22.25 2.43.55 3.61.92 3.06.92 6 2.1 8.6 3.86.73.74.58.77-.4.96-.5.11-1.14.13-1.89.12-.38 0-.78-.04-1.19-.09l-.63-.09c-.2-.06-.41-.12-.62-.19-1.47-.51-2.91-.97-4.37-1.35-.73-.19-1.46-.36-2.19-.52-.73-.18-1.47-.35-2.21-.51-.39-.08-.71-.14-1.16-.25l-1.3-.32c-.85-.28-1.71-.56-2.51-.98-1.62-.78-3.1-1.82-4.36-3.03-1.51-1.44-2.85-3.05-4.06-4.62-.61-.77-1.21-1.57-1.75-2.14-.13-.12-.26-.25-.31-.29-.04-.03-.05-.03-.13-.08l-.26-.13-1.27-.58c-1.95-.86-3.97-1.77-5.91-2.86-1.94-1.1-3.86-2.33-5.51-4.09-.82-.89-1.55-1.96-1.96-3.24-.18-.65-.3-1.33-.27-2.01 0-.34.04-.68.12-1 .04-.32.18-.74.32-1.1.24-.65.71-1.23 1.36-1.51.64-.31 1.47-.38 2.1-.34.59.04 1.14.13 1.66.26 1.05.25 2.04.59 3 .96 1.92.74 3.75 1.6 5.56 2.48.7.34 1.4.69 2.1 1.03.68.33 1.34.63 2.02.89 1.36.52 2.74.9 4.14 1.12.61.1 1.22.13 1.84.18 2.29.15 3.02.18 3.63 1.13.14.19.32.37.41.55.31.52-.64 1.51-2.67 1.63-2.98.26-6.14-.39-8.96-1.61-.7-.3-1.42-.66-2.05-.98l-1.86-.94c-1.25-.62-2.51-1.21-3.77-1.75-1.33-.57-2.7-1.05-3.96-1.35-.31-.07-.61-.13-.89-.16-.14-.01-.27-.03-.38-.03h-.07c-.02-.01-.04 0-.07.01.01-.12-.07.42-.06.68.05.31.08.63.26.96zM109.318 169.83l4.31 1.08 4.35.89c2.89.65 5.84 1 8.77 1.49 5.88.72 11.8 1.3 17.74 1.32 2.17.09 4.33-.02 6.5-.08 2.17-.03 4.32-.24 6.49-.35 15.24-1.02 30.37-4.29 44.69-9.76 6.34-2.45 12.53-5.43 18.3-8.9 7.38-4.51 14.36-9.78 20.1-16.14 1.81-1.97 1.79-1.62.85.58-.21.57-.56 1.2-.98 1.91s-.88 1.55-1.49 2.37c-1.19 1.67-2.82 3.43-4.77 5.12-3.45 3-7.14 5.68-11.02 8.05-3.86 2.39-7.85 4.57-11.96 6.47-8.2 3.88-16.81 6.87-25.66 8.98-2.63.69-5.33 1.18-8.03 1.8-2.72.47-5.44 1.07-8.2 1.44-5.5.91-11.1 1.4-16.64 1.69-6.11.23-12.22.12-18.32-.33-6.08-.54-12.16-1.27-18.13-2.53-7.36-1.47-14.64-3.42-21.7-5.97-5.37-1.85-10.61-4.1-15.76-6.5-5.16-2.39-10.12-5.18-14.91-8.14-7.44-4.64-14.46-9.64-21.1-15.22-1.47-1.22-2.89-2.43-4.33-3.71-5.28-4.8-6.66-6.64-7.07-8.38-.09-.4-.26-.87-.25-1.17.06-1.01 2.48.65 6.35 4.04 5.75 5.03 11.79 10.01 18.18 14.65 6.4 4.62 13.17 8.91 20.28 12.56 10.62 5.33 21.81 9.81 33.42 12.66v.09z"/>
  <path fill="#12111f" d="M223.152 106.681c2.09 1.43 4.32 2.71 6.65 3.83.85.4 1.74.72 2.6 1.09 1.52.67 3.08 1.28 4.65 1.86 1.56.6 3.16 1.14 4.77 1.61 1.43.42 2.9.73 4.36.98.94.16 1.88.29 2.81.49l1.4.28c.47.08.93.19 1.4.36.58.21.5.3-.03.55-.53.31-1.52.69-2.66.69-2.02.07-3.99-.3-5.96-.64-1.96-.37-3.91-.87-5.82-1.52-2.27-.78-4.68-1.48-6.97-2.4a58 58 0 0 1-7.3-3.61c-1.45-.84-2.85-1.77-4.2-2.76-2.06-1.5-3.93-3.25-5.68-5.09-1.35-1.44-2.73-2.84-3.84-4.5a10 10 0 0 1-.72-1.1c-.42-.71-.59-1.24-.58-1.65 0-.41.16-.71.47-1.02.14-.14.27-.3.43-.41.52-.36 1.26.02 1.9.89.96 1.3 1.91 2.58 2.97 3.82 1.07 1.23 2.2 2.43 3.43 3.57 1.84 1.66 3.82 3.24 5.96 4.64l-.04.07zm78.079 106.549c-.11-.34-.2-.69-.28-1.04a10 10 0 0 1-.1-.53c-.05-.25-.09-.54-.11-.81-.11-1.09.02-2.16.75-2.85.15-.17.38-.23.59-.33l.63-.28c.25-.09.55-.1.81-.16l1.2-.17c.37-.06.74-.12 1.11-.19l2.27-.48c.68-.15 1.36-.37 2.03-.57.44-.1.89-.21 1.35-.27.45-.09.94.02 1.41.09.3.06.29.28.12.64a5 5 0 0 1-.36.64q-.105.18-.24.36c-.04.06-.09.1-.13.17-.05.03-.1.07-.16.1l-1.13.64c-.38.2-.78.34-1.18.51-.8.32-1.66.62-2.61.73-.55.08-1.1.23-1.65.4l-.83.25-.21.06c-.06.02-.06.01-.09.02-.05 0-.08.03-.14.01h-.02c-.1.02-.23 0-.33.06-.09.07-.12.18-.14.29-.03.25-.07.35.05 1.01.12.65.31 1.33.6 1.86.11.19.23.37.31.45.02.02.03.03.03.04-.01 0-.06.1-.08.16s-.04.08-.05.13l-.04.21v.09s-.02-.05-.03-.06a.35.35 0 0 0-.12-.12c-.42-.26-.26-.17-.26-.27.02-.07.04-.18.06-.29.03-.22.03-.47.01-.72-.06-.79-.39-1.58-.7-2.31-.06-.16-.16-.31-.21-.47-.2-.59-.09-.76.61-1.23l.44-.31c.45-.33 1.19-.26 1.54.29.56.78.9 1.62 1.09 2.52.1.45.16.91.18 1.41.01.51.03 1-.13 1.74-.07.28-.14.61-.49 1.13-.16.24-.49.6-1 .84-.51.25-1.18.24-1.5.15-.68-.17-1.01-.45-1.28-.68-.27-.24-.42-.45-.58-.65-.54-.8-.81-1.46-1.08-2.15l.07-.03zm.969 37.17c2.09.59 4.45.31 6.31-.83a8.07 8.07 0 0 0 3.56-4.82c.21-.82-.27-1.8-1.13-2s-1.77.25-2 1.13a10 10 0 0 1-.25.81c-.15.33-.34.64-.55.94-.08.18-.12.17 0 0-.04.08-.14.16-.2.23-.12.14-.25.27-.38.39-.07.07-.15.14-.22.2-.03.03-.24.2-.07.06.19-.15-.09.06-.13.09-.08.06-.17.11-.25.16-.16.1-.33.19-.5.28-.07.04-.16.09-.24.11.33-.08.05-.03-.03 0-.37.13-.8.28-1.2.3.13 0 .24-.02.04-.01-.11 0-.22.02-.32.02h-.58c-.11 0-.22-.02-.32-.03-.24-.02.39.08-.02 0q-.315-.06-.63-.15c-.82-.23-1.81.28-2 1.13s.26 1.75 1.13 2zm112.089 60.909c.41 3.41-1.32 6.83-6.31 6.83-6.4 0-9.5-8.93-3.92-12.45 5.41-3.41 9.69 1.1 10.23 5.62m-56.59 88.721c-.29 2.63-2.38 4.82-6.58 3.77-5.4-1.34-6.36-8.65-1-10.11 5.19-1.42 7.97 2.85 7.58 6.33z"/>
  <path fill="#12111f" d="M446.662 386.291c-.22 2.15-1.99 3.91-5.62 3.01-4.66-1.16-5.57-7.14-.98-8.27 4.45-1.1 6.89 2.42 6.6 5.26" opacity=".55"/>
  <path fill="#12111f" d="M413.118 373.012c-.16 1.61-1.49 2.93-4.21 2.25-3.49-.87-4.17-5.34-.73-6.19 3.33-.82 5.16 1.81 4.94 3.94"/>
  <path fill="#12111f" d="M369.9 314.93c-.16 1.61-1.49 2.93-4.21 2.25-3.49-.87-4.17-5.34-.73-6.19 3.33-.82 5.16 1.81 4.94 3.94" opacity=".55"/>
  <path fill="#12111f" d="M291.521 269.28c-.19 1.87-1.73 3.4-4.89 2.62-4.06-1.01-4.85-6.22-.85-7.2 3.88-.96 6 2.11 5.74 4.58"/>
  <path fill="#12111f" d="M277.001 226.801c-.16 1.61-1.49 2.93-4.21 2.25-3.49-.87-4.17-5.34-.73-6.19 3.33-.82 5.16 1.81 4.94 3.94" opacity=".55"/>
  <path fill="#12111f" d="M252.531 378.559c-.37 1.07-1.1 1.77-1.94 2.19-.31.14-.61.34-.98.38-.63.1-1.32-.02-1.85-.34s-.9-.76-1.14-1.22c-.21-.41-.39-.82-.49-1.26-.14-.54-.18-1.27.33-1.72.16-.14.54.18.94.49.38.33.84.54.87.6.08.25.22.58.31.93.09.23.29.16.51.1.26-.05.59-.25.76-.52.11-.16.18-.33.16-.5 0-.25-.17-.6-.51-.75-.26-.12-.59.04-.75.14-.04.02-.07.07-.09.09-.1.04-.16-.13-.54-.76l-.27-.42c-.31-.46-.37-.99.02-1.3.56-.44 1.35-.66 2.05-.5.7.14 1.35.51 1.86 1.07.38.41.69.94.83 1.55.15.6.12 1.24-.03 1.79h-.07z"/>
  <path fill="#12111f" d="M236.071 272.098s-.96-5.32 2.69-5.07 4.25 3.12 3.64 4.8-4.52 3.63-5.38 2.95-.95-2.68-.95-2.68" opacity=".55"/>
  <path fill="#12111f" d="M243.589 273.758c-.88 1.43-2.24 2.22-3.64 2.5-.52.09-1.04.2-1.58.12-.94-.1-1.87-.58-2.5-1.23a4.75 4.75 0 0 1-1.23-2.24c-.17-.71-.25-1.43-.18-2.14.08-.9.44-1.87 1.23-2.42.24-.17.43.12.57.5.13.39.28.85.23 1.17-.07.29-.09.58-.09.87-.03.29 0 .58.03.87.09.57.26 1.13.56 1.6.37.61 1.1.75 1.79.68.77-.05 1.61-.44 2.14-1.03.33-.36.55-.8.57-1.27.06-.68-.32-1.47-1-1.92-.53-.34-1.21-.36-1.67-.2-.1.03-.19.09-.27.13-.3.12-.41-.02-.93-.69l-.36-.45c-.4-.49-.41-1.17.25-1.57.97-.58 2.21-.61 3.24-.26 1.04.35 1.96 1.02 2.61 1.96.49.69.83 1.56.89 2.48.06.93-.18 1.82-.59 2.57l-.06-.03zm213.09-109.577c-.31.39-.78.71-1.26.9-.49.17-.99.22-1.47.13-.35-.06-.71-.13-.99-.31-.97-.7-1.25-1.63-1.31-2.48-.03-.38-.02-.77.04-1.17.06-.5.36-1.17.96-1.27.19-.04.37.41.59.86.11.22.23.44.34.59.1.14.25.27.22.23.12.06.1.06.11.18 0 .11-.03.27-.08.5-.04.29.23.35.27.38.04.07.19.12.31.07a.48.48 0 0 0 .27-.3c.1-.24.17-.6.03-.85-.11-.21-.43-.22-.54-.11-.02 0-.06.08-.05.07 0 0 0-.05.02-.11.03-.14.06-.39.1-.8l.03-.56c.02-.63.25-1.13.74-1.18.72-.03 1.44.39 1.84.93.42.54.6 1.15.66 1.74.07.88-.14 1.77-.76 2.61l-.06-.04zM405.981 94.34c-1.08 1.57-2.69 2.43-4.35 2.68-.61.08-1.24.18-1.88.05-1.12-.22-2.17-.84-2.84-1.76-.67-.91-.94-1.96-.95-2.95 0-.88.16-1.74.5-2.53.22-.51.51-1 .91-1.41.42-.39.93-.72 1.5-.8.36-.07.39.34.33.81-.08.47-.12.99-.29 1.28-.35.51-.54 1.17-.57 1.83-.01.33-.01.65 0 .97.05.31.09.63.2.91.13.34.4.61.75.77s.75.19 1.16.21c.91.04 1.97-.33 2.66-1.03.44-.42.73-.94.81-1.52.15-.88-.18-1.91-.89-2.61-.56-.55-1.34-.78-2.01-.8-.15-.02-.29.02-.43.02-.5-.03-.62-.2-.89-1.01l-.19-.55c-.2-.6.07-1.23.86-1.42 1.15-.28 2.41 0 3.44.6a6.33 6.33 0 0 1 2.48 2.64c.42.83.67 1.81.63 2.81-.02.99-.35 2.01-.86 2.83l-.06-.03z"/>
  <path fill="#12111f" d="M421.969 263.61s3.95-4.79 5.93-3.66 1.3 3.21 0 4.62-5.09 5.24-5.93-.96" opacity=".55"/>
  <path fill="#12111f" d="M429.489 265.119c-.69 1.3-1.83 2.06-3.03 2.37-.44.11-.88.24-1.36.21-.82-.03-1.65-.38-2.24-.89-.6-.51-1.01-1.14-1.24-1.8a6.5 6.5 0 0 1-.39-1.78c-.05-.76.06-1.64.67-2.22.19-.18.49.12.77.48.27.37.56.73.54.96-.11.85.16 1.78.64 2.48.31.46.87.47 1.38.38.58-.08 1.2-.42 1.59-.88.24-.29.4-.62.39-.97.03-.5-.28-1.11-.83-1.43-.43-.24-.98-.18-1.29 0-.07.03-.13.1-.18.13-.19.11-.28-.05-.8-.69l-.37-.43c-.41-.46-.49-1.1.07-1.5.82-.58 1.91-.68 2.83-.43.93.25 1.77.79 2.39 1.59.46.59.81 1.34.9 2.16.1.83-.07 1.62-.39 2.3l-.06-.02zm61.13 22.32a4.3 4.3 0 0 1-1.07 3c-.25.28-.49.59-.84.8-.6.36-1.32.55-2.02.46-.69-.08-1.28-.38-1.74-.75-.41-.34-.78-.71-1.06-1.16-.37-.54-.68-1.36-.28-2.05.12-.22.58 0 1.05.23.46.24.94.35.98.42.12.34.5.85.93 1.16.28.2.62 0 .89-.26.32-.26.61-.72.67-1.2.05-.29.02-.58-.1-.83-.17-.39-.56-.78-1.07-.87-.39-.07-.8.13-1.05.35-.06.04-.1.12-.15.16-.17.14-.27-.01-.77-.7l-.35-.47c-.39-.52-.49-1.11-.09-1.46 1.19-1.02 3.01-.83 4.28.08 1 .62 1.75 1.84 1.84 3.07h-.06zm-320.998 65.9c.16.2-.17.43-.66.67-.16.08-.64.14-.73.08-.17-.11-.35-.21-.5-.33-.13-.06-.6-1.3-.8-1.72-.2-.41-.27-.83-.32-1.26-.1-.86-.21-1.73-.27-2.6-.01-.19 0-.39.06-.58.18-.66.18-1.32.12-1.98-.01-.11 0-.22-.1-.33-.2-.18-.17-1.99-.04-2.22.26-.56.45-1.12.69-1.68.03-.08 0-.17.14-.23.34-.13.3-.31.35-.49.09-.24.19-.47.35-.69.1-.11.31-.2.46-.29.14-.09.51.03.55.07.11.13.31.07.48.08.06 0 .13.01.17.02.12.04.93 1.5.86 1.63v.33c0 .19.01.44.02.7.02.52.05 1.06.08 1.17.02.12-.06.23-.11.34-.03.05.1 1.6.1 1.66-.06.32.04.64-.24.95-.06.06-.04.13-.04.19.02.55-.09 1.1-.16 1.65-.04.28 0 .56 0 .85 0 .05-.04.1-.05.16-.02.07-.05.13-.05.19.04.67-.04 1.35.08 2.01.02.15-.22.92-.17 1.09.02.1-.34.47-.26.55zm16.519-16.27c.25-.11.32.29.29.97-.01.21-.19.82-.28.89-.16.14-.33.28-.48.37-.09.05-1.33.15-1.77.23-.42.07-.81.04-1.19-.01-.78-.11-1.54-.27-2.31-.42-.17-.03-.33-.11-.48-.22-.51-.39-1.08-.54-1.68-.6-.1 0-.19-.06-.32.06-.22.19-1.8-.16-1.97-.31-.43-.39-.88-.68-1.32-1.02-.06-.05-.16-.01-.17-.2-.04-.44-.21-.42-.35-.49-.2-.11-.4-.23-.57-.43-.09-.1-.12-.36-.17-.57-.05-.19.18-.78.23-.84.15-.16.16-.47.22-.72.02-.09.05-.2.07-.26.05-.15 1.59-.86 1.72-.8.02 0 .49.07.99.15.5.07 1.02.15 1.13.14.12 0 .2.12.28.22.04.04 1.55.21 1.6.24.28.14.61.11.81.53.04.08.1.09.16.1.52.12.99.42 1.47.66.25.13.52.17.77.26.05.02.08.08.12.11.05.04.1.11.16.12.62.16 1.17.59 1.81.7.14.03.71.61.89.63.1.01.26.56.36.52z"/>
</svg>
