<svg xmlns="http://www.w3.org/2000/svg" width="380" height="380" fill="none"><path fill="#12111f" d="M266.219 193.119c.409 6.804 15.536 0 18.919-6.248-.007.015-8.016 16.925-16.639 17.085-1.886.037-2.273-10.756-2.28-10.844zM251.832 194.975s3.259 4.655 8.894-1.308c3.931-4.151-8.032 9.96-8.032 9.96z" opacity=".55"/><path fill="#12111f" d="M259.415 230.128s-1.987 2.427-2.389 4.283c-.702 3.281 5.276 16.734-2.171 13.482l-9.492-2.353s-17.393-4.421-18.423-2.652c-1.03 1.761 6.482 5.736 10.026 6.598s3.866 1.287 3.296 3.581 1.483 7.542 3.201 7.14-1.221 4.07.453 5.225c1.673 1.154.928 3.405 2.645 6.109 1.717 2.697 7.593 3.566 10.479 4.253 2.88.687 17.444-.855 21.098 3.354 3.646 4.21 9.514 6.358 9.514 6.358s6.095-11.334 5.81-13.965-8.316-4.553-11.7-8.404-13.146-13.007-15.499-15.653c-2.353-2.645-4.743-16.581-4.743-16.581l-2.083-.782zM223.82 125.692s4.984 18.81 6.701 24.005c1.718 5.196 11.24 26.403 22.165 28.866s22.347-5.094 24.627-9.222c2.272-4.137 8.747-16.355 8.652-19.644s-.351-8.966-.351-8.966 13.081-1.242 13.242-7.352c.16-6.109-2.675-12.065-4.758-12.203-2.082-.139-6.942 8.893-9.953 9.017s-1.213-7.622-1.702-13.57c-.483-5.949-6.329-14.564-6.329-14.564s-18.13 13.745-21.923 14.169-30.371 9.464-30.371 9.464M85.586 171.59s-5.247-4.187-5.123-2.85c.117 1.345 4.173 10.282 4.173 10.282s-1.769 1.169-.636 2.675 3.983 6.072 3.983 6.072-4.312 1.082-2.821 3.121c1.49 2.039 5.73 5.312 5.73 5.312l-5.313-24.619zM127.937 182.349s-8.119-10.231-7.286-13.015c.84-2.785 1.951-3.113 2.843-2.602s10.939 11.495 12.014 12.679 2.638 5.927 3.113 9.376.182 13.146 1.834 13.914c1.651.76 13.863 15.178 13.863 15.178l-14.112 11.159s-6.27-9.289-6.503-9.522c-.161-.161-2.573-4.721-6.892-6.621-1.9-.833-6.496.314-10.662-1.425-4.041-1.696-9.697-3.347-11.341-3.062-2.828.497 26.096-2.631 26.096-2.631l-2.967-23.421z" opacity=".2"/><path fill="#12111f" d="M118.883 142.076s-10.523-.241-17.641.505c-7.118.745-18.043 5.29-18.043 5.29l9.34 52.82 3.675 9.588s29.574-5.101 34.346-3.866c0-2.55-2.002-12.744-6.036-27.703-.387-1.447-3.317-5.846-3.595-7.359-.424-2.302 2.338-4.282 1.914-6.621-1.439-7.87-2.842-15.777-3.968-22.654zm-8.36 53.873c-6.672.27-11.371-7.454-13.132-16.377s.511-18.028 5.634-19.044c5.13-1.008 11.173 6.453 12.935 15.383 1.768 8.923.613 19.789-5.437 20.038" opacity=".55"/><path fill="#12111f" d="M231.179 278.913a135 135 0 0 0 .818-3.829c.103-.468.146-.943.249-1.403.358-1.644.701-3.288.95-4.947.117-.738.168-1.484.248-2.215l.103-1.417c.065-.468.175-.943.285-1.411.08-.292.204-.248.387 0 .175.256.475.731.599 1.294.059.986.073 1.98.007 2.959-.095.98-.233 1.959-.431 2.931-.241 1.162-.299 2.389-.475 3.588-.19 1.315-.46 2.616-.709 3.917l-.482 2.397c-.226 1.213-.533 2.419-.753 3.617-.175.935-.248 1.871-.38 2.806-.029.205-.043.409-.08.614-.168.753-.343.972-.767 1.052-.095.022-.198.052-.285.052-.307.014-.497-.351-.519-.929-.029-1.71.204-3.463.446-5.21.08-.65.204-1.301.343-1.944l.395-1.936h.044zM194.698 288.619c-1.864-.19-3.72-.431-5.532-.899-.329-.08-.665-.139-1.001-.205a24 24 0 0 1-.987-.277c-1.154-.336-2.265-.804-3.354-1.286l-1.593-.819c-.526-.27-1.031-.606-1.542-.899-.921-.511-1.783-1.125-2.631-1.732-.511-.431-1.067-.811-1.549-1.279-.431-.533-.826-1.081-1.294-1.541-.277-.307-.197-.307.132-.161l.672.314c.285.117.658.212 1.016.358.153.073.322.117.475.183l.431.241.848.482c.548.344 1.176.548 1.717.906.534.358 1.126.629 1.681.95.555.337 1.14.607 1.717.907 1.389.723 2.967 1.147 4.509 1.563.855.212 1.71.41 2.58.578.877.131 1.746.307 2.63.365 1.089.132 2.178.161 3.274.183a72 72 0 0 0 2.492-.081c.826-.087 1.659-.146 2.47-.299a26 26 0 0 0 1.864-.439c.606-.197 1.206-.402 1.812-.562.27-.073.519-.183.789-.256.994-.292 1.36-.234 1.74.234.087.102.19.204.255.314.227.373-.087.826-.818 1.191a16.4 16.4 0 0 1-3.427 1.308c-1.214.271-2.456.504-3.727.621-1.871.212-3.778.19-5.664.103v-.052zM148.238 212.888c.103-.307 7.498-5.423 9.259-4.334s-3.179 9.31-3.179 9.31l-6.08-4.984zM136.707 223s-7.403 8.587-3.786 9.515c3.618.928 7.279-3.486 7.279-3.486L136.7 223z"/><path fill="#12111f" d="M149.778 223.594a40 40 0 0 1-2.484 2.032c-.307.241-.578.518-.921.723-1.162.745-2.382 1.388-3.625 1.973-.533.285-1.103.512-1.659.745-.723.271-1.454.57-2.272.512-.249-.015-.227-.051-.073-.241.073-.095.175-.249.292-.424.124-.161.278-.307.453-.417.307-.226.614-.445.928-.628.307-.212.607-.431.914-.628.643-.351 1.293-.687 1.958-1.031.811-.402 1.491-1.059 2.207-1.629.804-.614 1.608-1.243 2.368-1.922.467-.417.935-.841 1.374-1.294.672-.679 1.337-1.374 1.907-2.134.438-.592.738-1.264 1.111-1.885l.233-.417c.315-.497.534-.584 1.024-.431.109.037.226.059.328.103.351.146.483.526.351.986q-.144.516-.365 1.009c-.139.328-.285.665-.49.957-.38.606-.826 1.184-1.286 1.746-.694.826-1.462 1.593-2.236 2.339l-.037-.037zM315.217 259.729c-.059-.526-.066-1.081-.154-1.615-.029-.197-.11-.38-.131-.577a31 31 0 0 0-.322-2.127 5.6 5.6 0 0 0-.227-.928c-.087-.402-.19-.796-.073-1.264.095-.168.088-.146.285-.095.183.051.548.139.746.314l.424.512c.124.175.197.372.285.562.19.38.241.804.27 1.235.037.519.278 1.002.402 1.506q.197.846.329 1.703c.058.35.073.716.117 1.066.051.541.073 1.082.146 1.615.073.41.175.812.234 1.228.014.088.036.183.036.271-.036.343-.226.453-.541.526-.073.014-.146.036-.219.044-.226.029-.453-.103-.657-.329a4.9 4.9 0 0 1-.746-2.061c-.088-.519-.153-1.045-.256-1.571h.052zM346.466 301.749c1.089-1.739 1.907-3.654 2.551-5.634l.306-1.096.256-1.126c.651-2.63 1.016-5.349 1.009-8.082a24 24 0 0 0-.285-3.617c-.212-1.527-.49-3.047-.724-4.604-.08-.482-.044-.431.19-.073.205.365.731 1.016 1.074 1.885.256.775.497 1.564.673 2.368.131.811.241 1.622.307 2.441a28 28 0 0 1-.044 4.925c-.205 1.959-.387 3.997-.826 5.963a24.3 24.3 0 0 1-2.273 6.27c-.672 1.199-1.373 2.383-2.243 3.449a19.9 19.9 0 0 1-4.545 4.239c-.322.248-.68.431-1.016.65l-.512.322-.533.278c-.358.175-.702.387-1.082.533-.372.139-.76.27-1.14.402-.343.102-.679.175-1.03.256-.651.153-1.096.131-1.403.095-.314-.044-.497-.146-.651-.307-.073-.073-.16-.146-.197-.227-.139-.256.351-.562 1.206-.818 1.264-.431 2.463-1.001 3.639-1.601 1.169-.621 2.317-1.33 3.332-2.243a18.6 18.6 0 0 0 3.917-4.662l.037.022zM280.463 279.891c-.417.621-4.538 9.595-1.79 10.83 2.382 1.067 8.959-5.211 8.959-5.211zM289.441 266.592s2.375-3.179 3.713-2.836c1.344.344 0 5.152 0 5.152z"/><path fill="#12111f" d="M289.099 279.777c.227-.505.461-1.009.651-1.528.095-.263.212-.518.314-.774l.285-.789c.146-.388.197-.79.321-1.184.446-1.374.797-2.799.98-4.246.109-.643.095-1.294.102-1.937-.037-.825-.175-1.622.095-2.506.124-.285.146-.256.409-.066.314.175.76.541.943 1.038.256.884.307 1.79.343 2.689.022.906-.073 1.805-.285 2.689-.241 1.053-.314 2.171-.548 3.252-.131.592-.307 1.169-.467 1.754-.19.577-.395 1.14-.629 1.703a39 39 0 0 1-.906 2.031c-.475 1.016-1.06 1.988-1.6 2.96-.461.738-.826 1.52-1.338 2.229-.109.16-.19.329-.329.475-.526.497-.803.555-1.227.358-.095-.044-.198-.081-.285-.139-.278-.183-.307-.592-.146-1.074.255-.709.577-1.352.869-2.025s.592-1.337.965-1.965c.504-.965 1.016-1.944 1.425-2.975l.058.022zM276.641 277.753l-1.783-3.128-.87 1.871zM250.587 200.002s-.401-3.113-3.617 0c-3.157 3.055 3.033-5.122 4.129-3.939 1.096 1.184-.512 3.939-.512 3.939M306.095 199.257c-1.293-1.191-2.594-2.382-3.96-3.5-.49-.417-1.023-.79-1.52-1.192-1.769-1.432-3.53-2.893-5.357-4.267-.804-.621-1.644-1.199-2.463-1.783-1.037-.775-2.126-1.484-3.061-2.405-.293-.285-.205-.321.16-.241.183.037.439.103.738.183.293.095.614.241.936.431 2.302 1.315 4.457 2.85 6.562 4.494 1.257.987 2.645 1.908 3.932 2.923a90 90 0 0 1 4.158 3.464c.84.731 1.637 1.506 2.433 2.28.607.578 1.184 1.199 1.776 1.798q.864.921 1.717 1.841c.431.483.877.95 1.323 1.418l1.279 1.447c.19.212.372.417.548.65.636.848.767 1.177.621 1.557-.037.088-.058.183-.102.256-.161.234-.592.014-1.104-.548-1.527-1.666-3.098-3.42-4.779-5.094a76 76 0 0 0-3.851-3.646l.022-.03zM274.559 201.204a30 30 0 0 1-3.683 1.9l-.351.153-.453.19c-.402.161-.818.264-1.169.271q-.233.002-.431-.073c-.066-.029-.147-.059-.198-.11-.036-.051-.065-.117-.095-.175l-.182-.358c-.052-.132-.037-.366-.052-.548 0-.19-.036-.38-.021-.563l-.022-.373-.044-.636a27 27 0 0 0-.322-2.528c-.131-.745-.336-1.476-.519-2.207-.248-.935-.606-1.82-.796-2.799-.066-.299-.044-.27.153-.073.139.139.285.278.417.402.183.168.365.38.482.636.453.913.892 1.849 1.169 2.828.285.979.497 1.98.622 2.996l.124.921.066.468.021.182c.022.088-.014.219.059.271.102 0 .19-.037.285-.066.029 0 .438-.154.716-.278.3-.124.599-.263.899-.402a28 28 0 0 0 1.768-.906 27 27 0 0 0 2.098-1.279c1.03-.694 2.046-1.425 2.959-2.251.716-.643 1.323-1.366 1.922-2.09.132-.16.256-.321.395-.475.519-.57.753-.686 1.154-.57.088.03.19.044.271.081.27.124.248.533-.059 1.052-.92 1.542-2.302 2.836-3.741 4.019-1.082.877-2.236 1.652-3.413 2.39l-.022-.029zM252.621 199.699c0-.431 0-.862-.044-1.301-.014-.16-.08-.299-.095-.46-.073-.555-.168-1.125-.351-1.666-.073-.241-.204-.461-.292-.694-.139-.293-.285-.578-.38-.899-.029-.103.051-.146.197-.139.139.007.366.051.527.183.255.248.548.489.716.796s.314.636.402.979c.109.41.336.79.475 1.199.153.446.263.913.35 1.374.059.285.081.577.11.869.051.439.051.884.11 1.316.036.336.168.672.241 1.023.014.08.051.153.051.234-.015.292-.146.372-.599.38-.103 0-.205.007-.307 0-.344-.015-.621-.147-.731-.337-.292-.54-.292-1.067-.336-1.622-.029-.409-.029-.833-.081-1.25h.037zM244.21 67.4c-2.127-.65-6.541-.344-8.66-.125-30.539 3.15-46.053 45.293-17.604 56.313 17.056 6.606 33.345-4.896 43.057-12.247 9.712-7.345 14.03-11.174 17.677-7.615s3.939 10.983 3.771 12.891-3.062 10.947-2.814 12.131c.249 1.183 2.5 2.623 4.516 1.439s4.122-5.247 5.021-6.606 2.784-3.478 4.933-2.412c2.148 1.075 4.918 6.102 4.918 6.102s5.912-2.133 8.776-6.854c2.865-4.721 5.737-14.864 5.386-17.824s-1.703-10.596-5.422-14.089c-3.72-3.493-12.087-8.367-15.814-7.286-3.72 1.082-13.271 8.697-13.271 8.697l-2.039.27s-12.321-14.996-15.638-16.83S244.21 67.4 244.21 67.4"/><path fill="#12111f" d="M233.474 218.939c-2.814 3.061-5.656 6.094-8.572 9.054-1.074 1.074-2.053 2.229-3.164 3.266-3.808 3.749-7.812 7.308-11.919 10.735l-2.748 2.266-2.799 2.185c-2.382 1.863-4.918 3.595-7.724 4.808-.884.358-.804.234-.27-.424.263-.329.643-.782 1.103-1.322.468-.527 1.06-1.045 1.71-1.608a503 503 0 0 0 14.068-11.656c1.388-1.213 2.74-2.514 4.085-3.836l3.946-4.078c2.872-2.989 5.722-6.014 8.477-9.12 1.71-1.9 3.39-3.829 5.049-5.773l3.734-4.458a259 259 0 0 0 3.618-4.523c1.812-2.375 3.456-4.816 5.13-7.25.365-.54.723-1.066 1.096-1.607 1.432-1.966 2.112-2.419 3.003-2.412.205 0 .432-.022.6.015.577.139.365 1.213-.512 2.799-2.733 4.582-6.124 9.061-9.668 13.431-1.315 1.623-2.689 3.208-4.041 4.809l-4.151 4.735z"/><path fill="#12111f" d="M252.789 201.854s.014.015.029.022c.037-.044.066-.014.11-.036.073-.044.168-.11.27-.176 0 .007.212-.183.344-.299l.445-.395c.3-.263.585-.534.877-.811.475-.446.877-.958 1.338-1.418 1.607-1.63 3.105-3.383 4.377-5.283.27-.424.519-.87.774-1.308.227-.454.424-.914.629-1.367.438-1.206.731-2.397 1.147-3.632.212-.387.263-.351.512.007.307.351.723 1.118.592 1.952-.117 1.498-.702 2.85-1.294 4.143a15.9 15.9 0 0 1-2.331 3.552c-1.096 1.278-2.083 2.718-3.252 3.96a39 39 0 0 1-1.98 2.003l-.512.482-.76.665-.76.658-.789.621c-.234.175-.468.373-.687.526l-.65.285-.322.146c-.088.029-.168.029-.248.044l-.249.044-.124.022s-.037.014-.066 0c-.029-.022-.029-.044-.044-.059-.058-.153-.08-.329-.117-.511a4.7 4.7 0 0 1-.073-1.323c.066-.592.183-1.228.256-1.834.183-1.389.227-2.032.263-2.901.051-1.294-.109-2.565-.285-3.822-.036-.278-.102-.541-.139-.819-.117-1.023.037-1.359.695-1.681.153-.073.299-.16.445-.211.512-.176 1.023.204 1.287 1.008.365 1.191.533 2.455.584 3.727q.035.956-.007 1.922c-.007.321-.044.643-.081.957l-.095.826s-.014 0-.043.051a.5.5 0 0 0-.044.095q0 .02.022.029l-.044.117z"/><path fill="#12111f" d="M255.855 180.951c.022.103 4.012 7.841 9.5 6.723 11.503-2.353 11.956-18.342 11.956-18.342s-8.397 8.967-11.196 10.107-10.26 1.52-10.26 1.52z"/><path fill="#12111f" d="M240.592 166.82c1.71 2.31 3.632 4.465 5.781 6.322 2.163 1.819 4.552 3.39 7.154 4.326 1.893.709 3.888.928 5.809.804 3.574-.285 7.118-1.447 10.173-3.428 3.062-1.973 5.678-4.691 7.782-7.775 1.871-2.748 3.325-5.802 4.48-8.915.745-2.003 1.33-4.071 1.907-6.139.293-1.03.57-2.075.841-3.113.117-.526.292-1.038.446-1.557.168-.518.453-1.015.643-1.527.27-.636.402-.913.438-.891.044.029.022.358.117.957.066.592.387 1.483.438 2.514a14.4 14.4 0 0 1-.255 3.478 35 35 0 0 1-.782 3.318 65 65 0 0 1-1.016 3.266c-.753 2.156-1.622 4.297-2.704 6.344-2.141 4.077-5.006 7.943-8.798 10.815-1.133.848-2.317 1.659-3.588 2.346-.622.372-1.287.657-1.93.986-.672.271-1.33.585-2.024.804-1.366.504-2.784.84-4.209 1.096-1.396.249-2.967.358-4.443.205-1.637-.154-3.216-.57-4.706-1.155a22.6 22.6 0 0 1-4.231-2.163c-2.668-1.688-4.955-3.836-7.016-6.131-2.528-2.843-4.618-6.014-6.46-9.288-2.748-4.999-4.808-10.333-6.438-15.712-1.271-4.18-2.39-8.323-3.215-12.562-.183-.935-.388-1.841-.519-2.798-.271-1.762-.38-2.931-.329-3.764.029-.833.212-1.323.519-1.739.139-.19.256-.431.394-.541.432-.38 1.119.994 1.542 3.508 1.447 7.446 3.201 15.207 6.022 22.617 2.097 5.481 4.728 10.801 8.228 15.441zM305.784 84.054l1.213 1.081 1.089 1.184c.358.402.73.775 1.081 1.199.329.438.694.855.994 1.315 1.257 1.805 2.214 3.778 2.901 5.817.49 1.49.95 2.989 1.155 4.538a29.94 29.94 0 0 1-2.309 15.872 25.8 25.8 0 0 1-3.691 6.102c-.979 1.169-2.053 2.273-3.296 3.179l-.95.65-1.001.563c-.329.197-.701.307-1.067.431-.358.132-.73.219-1.096.314-.921.212-.818.095-.212-.46l.526-.504c.19-.219.395-.461.614-.716.227-.249.49-.475.753-.738q.405-.364.855-.76c2.134-1.82 3.866-4.071 5.167-6.563a29.3 29.3 0 0 0 2.952-7.994c.745-3.384.526-7.074-.271-10.487-.869-3.763-2.601-7.3-5.436-9.997-.797-.92-1.762-1.63-2.653-2.426-.987-.658-1.937-1.396-3.026-1.87-.781-.446-1.636-.71-2.477-1.01-.416-.182-.862-.211-1.293-.313-.439-.073-.87-.227-1.316-.22l-1.33-.08c-.445-.015-.884.058-1.33.088l-.665.058c-.219.037-.431.095-.65.139-.431.102-.87.19-1.294.314-2.645.848-4.91 2.507-6.847 4.436-.409.446-.833.855-1.228 1.323-1.505 1.68-2.016 2.192-2.988 2.112-.212-.015-.439.014-.614-.03-.57-.11-.475-1.264.541-2.806a20.8 20.8 0 0 1 6.101-5.904c2.5-1.579 5.525-2.631 8.667-2.726 2.332-.022 4.655.41 6.789 1.264 2.076.943 4.034 2.12 5.671 3.58l-.044.06zM268.893 203.543c.036 0 .088 0 .175-.015l1.352-.752c.497-.263.95-.592 1.433-.885.475-.306.95-.599 1.395-.95.665-.482 1.279-1.023 1.908-1.556 2.236-1.827 4.348-3.866 6.153-6.19.811-1.023 1.505-2.148 2.207-3.252l1.33-2.163.35-.533.424-.49c.278-.329.614-.628.928-.935.41-.373.461-.241.439.285-.015.321-.029.687-.044 1.059-.007.22-.037.446-.073.68-.015.117-.051.227-.059.358a6 6 0 0 1-.146.322c-.789 1.52-1.549 3.113-2.55 4.582-.987 1.476-2.068 2.915-3.325 4.209-1.484 1.556-2.996 3.208-4.677 4.633-.957.745-1.9 1.498-2.909 2.148-.496.337-.993.68-1.512.98l-1.718 1.023c-.876.343-1.717.621-2.557.942l-.621.234c-.19-.102-.22-.277-.3-.438a3.7 3.7 0 0 1-.278-1.243c-.036-.76 0-1.658.015-2.367l.029-1.63a40 40 0 0 0-.109-3.223c-.139-1.651-.519-3.244-.972-4.764-.103-.336-.234-.651-.337-.979-.416-1.199-.328-1.623.154-2.163.117-.125.212-.271.336-.366.387-.343 1.082-.014 1.666.957 1.491 2.945 1.834 6.3 1.944 9.522.022.6.022 1.199.022 1.798v.892c0 .051-.007.058-.007.051h-.008s-.065.168 0 .131l-.022.095zM349.234 297.568c.643-2.543.914-5.232.958-7.943.058-2.711-.147-5.452-.475-8.185-.673-5.466-1.944-10.888-3.589-16.194-1.183-3.88-2.667-7.665-4.187-11.436-5.429-13.264-12.598-25.855-21.199-37.372a147 147 0 0 0-12.431-14.513c-2.835-2.908-5.817-5.693-8.879-8.367-.774-.658-1.527-1.345-2.287-2.017l-2.317-1.988c-.387-.329-.789-.636-1.161-.986a40 40 0 0 0-1.119-1.053c-.76-.687-1.498-1.388-2.28-2.046-1.921-1.681-1.629-1.512.329-.533 1.016.489 2.426 1.169 4.115 1.987.453.183.833.483 1.278.738.432.264.87.556 1.323.863a39 39 0 0 1 2.755 2.031c12.971 10.874 23.779 24.145 32.395 38.768 5.137 8.747 10.048 18.13 13.717 27.871 2.009 5.349 3.697 10.83 4.947 16.421 1.242 5.59 2.046 11.326 1.907 17.129-.124 3.559-.584 7.176-1.892 10.611-.658 1.71-1.55 3.354-2.712 4.83-.277.38-.606.709-.928 1.038-.321.329-.643.672-.972.993l-1.067.877-.533.439-.57.38c-2.295 1.586-4.889 2.631-7.52 3.369-2.638.701-5.334 1.081-8.023 1.257-2.69.19-5.379.117-8.046-.081-2.668-.182-5.306-.562-7.922-1.03a95 95 0 0 1-11.911-2.982c-3.881-1.249-7.681-2.769-11.335-4.669-.803-.417-1.6-.826-2.382-1.286-.394-.227-.782-.454-1.176-.68-.38-.249-.768-.497-1.155-.745-2.843-1.893-4.545-3.457-5.568-4.699-.994-1.286-1.396-2.163-1.491-3.011-.051-.38-.161-.833-.124-1.089.204-.884 1.958 1.067 5.692 3.822 2.748 2.083 5.824 3.858 9.047 5.4a80 80 0 0 0 10.085 3.998c6.949 2.229 14.294 3.705 21.623 3.88 2.719.044 5.43-.088 8.068-.497 2.638-.402 5.218-1.081 7.556-2.156l1.71-.877c.534-.336 1.089-.65 1.615-1.001.482-.394 1.016-.745 1.476-1.162.431-.438.928-.855 1.323-1.315 1.63-1.805 2.609-4.26 3.259-6.796h.073z"/><path fill="#12111f" d="M277.709 277.489c.964.533 1.907 1.11 2.835 1.702.343.205.702.38 1.038.614.592.395 1.154.833 1.724 1.25.548.453 1.104.899 1.63 1.366.482.402.965.804 1.44 1.206.292.278.613.512.869.826s.475.658.694.994c.125.219 0 .292-.292.277-.285-.022-.753-.08-1.14-.307-.168-.102-.358-.175-.511-.299l-.454-.351-.92-.687a75 75 0 0 1-1.856-1.396c-.731-.599-1.63-1.001-2.47-1.468a80 80 0 0 0-2.821-1.484c-.592-.292-1.177-.585-1.783-.848-.914-.402-1.827-.818-2.777-1.132-.738-.234-1.513-.329-2.273-.461-.168-.029-.336-.051-.497-.102-.606-.168-.709-.482-.65-1.074.014-.139.022-.278.044-.409.087-.439.46-.739.972-.79.738-.022 1.446.117 2.141.322.701.197 1.388.468 2.068.753 1.016.431 2.009.928 2.996 1.432l-.022.051zM309.991 264.13c1.718.775 3.428 1.578 5.123 2.426.621.307 1.257.577 1.863.921 2.127 1.22 4.188 2.587 6.051 4.202a35 35 0 0 1 2.426 2.199l.724.76c.219.271.453.534.657.826.38.592.724 1.213.972 1.871.161.409-.022.431-.402.241a7 7 0 0 1-.694-.416c-.27-.176-.584-.373-.84-.629-1.827-1.878-3.961-3.376-6.204-4.874-1.33-.928-2.902-1.586-4.422-2.28-1.666-.775-3.354-1.549-5.071-2.258-1.06-.439-2.119-.877-3.194-1.286-1.629-.629-3.259-1.287-4.91-1.871-1.286-.453-2.609-.753-3.925-1.286-.292-.125-.584-.205-.876-.366-1.045-.599-1.265-1.103-.958-1.827.066-.168.124-.336.219-.482.154-.241.395-.38.673-.446.139-.029.285-.036.431-.029q.243.011.497.088c1.03.292 2.119.65 3.244 1.03 1.119.402 2.273.841 3.435 1.294 1.725.672 3.471 1.395 5.225 2.126l-.022.066zM316.015 257.596l.65 2.192c.081.263.212.512.285.775.249.95.504 1.9.753 2.85.102.423.234.84.373 1.242.175.526.387 1.038.387 1.615-.066.197-.197.219-.497.161-.292-.059-.643-.22-.789-.497-.49-.994-1.038-1.951-1.235-3.062-.146-.658-.497-1.264-.76-1.893l-.833-2.097-.519-1.294c-.278-.65-.519-1.315-.855-1.929-.263-.475-.629-.899-.936-1.344-.065-.103-.153-.19-.212-.293-.219-.387-.131-.584.38-.921.117-.073.227-.16.351-.226.409-.234.833-.227 1.096.007.388.351.702.746.98 1.169.263.432.46.899.65 1.367.285.702.519 1.432.775 2.148l-.044.022zM173.322 225.763a106 106 0 0 0 4.853 6.168c.635.709 1.322 1.374 1.936 2.104 2.229 2.514 4.582 4.94 7.125 7.155 1.125.986 2.346 1.87 3.537 2.762.775.555 1.586 1.067 2.368 1.622.774.563 1.542 1.14 2.287 1.754.46.387.256.592-.351.614a6.6 6.6 0 0 1-2.704-.533c-.877-.49-1.732-1.016-2.587-1.535-.833-.563-1.68-1.104-2.477-1.71a100 100 0 0 1-2.316-1.929 99 99 0 0 1-2.193-2.083c-1.666-1.739-3.58-3.369-5.247-5.174l-1.359-1.505-1.301-1.549c-.884-1.024-1.688-2.105-2.535-3.15-1.002-1.323-2.01-2.638-2.967-3.983a129 129 0 0 1-2.163-3.076c-.709-1.031-1.425-2.054-2.12-3.084-1.103-1.579-2.265-3.084-3.368-4.641-.234-.35-.475-.686-.695-1.045-.818-1.337-.906-1.87-.592-2.455.073-.131.132-.285.212-.387.278-.344.965-.015 1.725.847.563.644 1.118 1.309 1.673 1.974a64 64 0 0 1 1.579 2.082 175 175 0 0 1 3.098 4.304c.76 1.075 1.498 2.171 2.28 3.238l1.155 1.615 1.198 1.578-.051.044zM163.574 269.039a143 143 0 0 0 7.081 6.044c2.419 1.936 4.903 3.792 7.476 5.473 1.87 1.25 3.844 2.309 5.802 3.362.877.431 1.725.942 2.616 1.315l1.33.607 1.352.518c.899.38 1.82.585 2.733.885.921.168 1.849.416 2.77.453l.694.065c.234.022.468-.007.702-.014l1.403-.051c.467-.066.935-.146 1.403-.22l.701-.109.694-.19 1.389-.38 1.366-.512c.921-.307 1.791-.789 2.682-1.184 3.128-1.563 6.051-3.631 8.821-5.802a93 93 0 0 0 2.645-2.148l2.675-2.134 1.352-1.06 1.395-1.008c.936-.665 1.879-1.338 2.872-1.922 1.243-.738 1.075-.621.271.299-.409.454-.928 1.17-1.593 1.974-.336.409-.695.855-1.067 1.322-.19.234-.402.461-.592.716l-.687.687-2.521 2.456c-.863.811-1.761 1.564-2.668 2.324a68 68 0 0 1-5.692 4.333c-1.973 1.381-4.144 2.528-6.402 3.515a23.1 23.1 0 0 1-7.286 1.812c-1.52.103-3.098.059-4.603-.219l-1.133-.197c-.38-.066-.738-.183-1.104-.271-.738-.19-1.476-.372-2.177-.635a42.7 42.7 0 0 1-8.134-3.691c-5.583-3.266-10.662-7.191-15.514-11.334-2.981-2.55-5.861-5.218-8.667-7.943-4.26-4.129-8.323-8.485-12.24-12.869-3.04-3.42-6.08-6.731-8.864-10.341-.614-.789-1.235-1.556-1.813-2.397-1.089-1.542-1.659-2.667-1.973-3.507-.329-.826-.299-1.425-.146-1.959.073-.241.102-.526.197-.687.315-.526 1.469.526 3.04 2.638 2.361 3.143 4.933 6.3 7.63 9.442a268 268 0 0 0 8.389 9.339c4.297 4.546 8.754 8.996 13.446 13.147l-.044.065zM133.446 217.287a52 52 0 0 1 2.258 2.843c.27.343.57.672.811 1.037a38 38 0 0 1 2.368 3.983c.321.599.657 1.198.957 1.805.183.395.358.797.526 1.198.153.41.256.841.343 1.272.052.27-.175.307-.489.183-.307-.125-.738-.395-.972-.797-.921-1.41-1.754-2.835-2.587-4.326-.497-.899-1.242-1.673-1.915-2.47a51 51 0 0 0-2.309-2.58c-.497-.504-.979-1.03-1.505-1.512-.782-.746-1.586-1.484-2.456-2.105-.336-.241-.708-.438-1.074-.628-.351-.212-.723-.388-1.074-.592-.161-.088-.314-.161-.468-.263-.548-.38-.643-.636-.519-1.14.03-.117.044-.234.088-.344.132-.358.534-.489 1.074-.38.402.081.804.183 1.177.344.38.153.767.299 1.125.497.702.416 1.352.92 1.995 1.439.943.782 1.82 1.637 2.675 2.514l-.037.044zM232.54 283.028l-1.031 8.381c-.117 1.024-.212 2.047-.358 3.062a447 447 0 0 1-1.746 10.735c-.263 1.586-.534 3.179-.797 4.75-.175 1.009-.358 2.017-.533 3.026s-.534 1.987-.812 2.974c-.19.614-.277.504-.35-.058-.037-.285-.088-.68-.125-1.155-.022-.241-.036-.497-.051-.767-.007-.139 0-.278-.014-.417q.02-.21.051-.431l.767-6.182c.278-2.061.563-4.122.877-6.197.395-2.478.519-5.086.745-7.644l.804-8.433.461-5.203c.212-2.624.467-5.269.621-7.878.124-2.032.095-4.041.146-6.058.007-.446 0-.884.022-1.33.117-1.659.395-2.163 1.133-2.448.168-.066.343-.154.504-.183.555-.102.95.614 1.038 1.834.16 3.61-.074 7.381-.41 11.167-.255 2.813-.57 5.634-.862 8.462h-.059zM66.238 263.874c-5.561-1.308-10.903-3.705-15.478-7.125-.855-.599-1.644-1.279-2.47-1.922-.774-.694-1.578-1.359-2.287-2.126-5.071-5.276-8.806-11.641-11.232-18.416a65 65 0 0 1-2.521-9.215c-.358-2.002-.701-4.019-.782-6.058l-.066-1.527c0-.512.015-1.023.03-1.527.021-.512.021-1.016.073-1.528.058-.504.197-1.008.292-1.512.292-1.25.512-1.045.965.029.526 1.081 1.125 2.974 1.344 5.181l.161 1.469c.051.489.153.972.205 1.461.073.49.117.98.204 1.462l.263 1.454c.344 1.937.84 3.844 1.374 5.737 1.155 3.763 2.536 7.475 4.37 11.02.512 1.081 1.177 2.082 1.805 3.127.702.994 1.367 2.017 2.163 2.953a42.3 42.3 0 0 0 5.02 5.32c3.961 3.566 8.704 6.262 13.82 7.921 3.142 1.045 6.438 1.659 9.748 1.951 5.028.417 10.165.059 15.068-1.088 3.815-.885 7.396-2.339 10.838-4.034.745-.402 1.483-.775 2.228-1.199 2.777-1.505 3.684-1.922 4.692-1.629.227.065.497.102.672.204.293.168.234.534-.16 1.031-.388.504-1.097 1.154-2.112 1.819-6.015 4.019-13.417 6.658-21.068 7.615-5.686.716-11.54.482-17.18-.782v-.073z"/><path fill="#12111f" d="M110.301 251.325s.059-.073 0-.036c0-.059-.051-.088-.146-.11-.015 0-.022-.007-.037-.007h-1.432c-.468.007-.928.073-1.396.087-1.651.03-3.303.103-4.94.3-.73.088-1.447.241-2.148.409-.906.212-1.798.468-2.74.563-.33-.073-.322-.183-.169-.533a1.95 1.95 0 0 1 1.03-.987c.461-.183.929-.343 1.397-.49.475-.124.95-.241 1.432-.336a21 21 0 0 1 2.923-.387c1.176-.066 2.375-.322 3.566-.439.658-.065 1.315-.109 1.966-.153l2.93-.205.512-.036c.058.161-.051.453-.095.694l-.168.753c-.11.504-.234 1.008-.329 1.512-.263 1.192-.556 2.354-.702 3.53-.102.914-.036 1.834.022 2.726.015.197.051.394.051.592 0 .731-.204.957-.833 1.118-.146.036-.292.088-.431.109-.482.081-.891-.241-1.074-.833-.424-1.753-.212-3.602.11-5.378.116-.665.285-1.315.467-1.951l.066-.241.037-.117v-.015c.014 0 .014-.007.021-.015a.1.1 0 0 0 .037-.058l.066-.044zM41.522 259.41c2.44 2.412 5.21 4.538 8.177 6.343.534.344 1.104.629 1.666.921.563.3 1.125.577 1.695.855a53 53 0 0 0 6.168 2.689c2.112.767 4.29 1.41 6.504 1.827 1.966.365 3.975.658 5.963.694 1.279.044 2.558 0 3.837-.065a49 49 0 0 0 3.844-.322c.803-.08.752.146.131.548-.307.197-.76.46-1.33.716-.57.227-1.257.483-2.017.636-2.704.497-5.473.607-8.221.438-.687-.065-1.374-.109-2.053-.211l-2.032-.381c-.672-.146-1.337-.321-2.01-.489-.665-.175-1.322-.395-1.98-.599-3.128-1.016-6.372-2.142-9.354-3.705a49.3 49.3 0 0 1-9.171-6.19 48 48 0 0 1-4.823-4.816c-2.243-2.616-4.129-5.532-5.685-8.572-1.199-2.36-2.339-4.742-3.077-7.293a12 12 0 0 1-.446-1.688c-.226-1.074-.248-1.798-.168-2.316.073-.519.263-.826.585-1.097.146-.116.285-.27.43-.343.498-.248 1.06.555 1.47 1.988.738 2.112 1.359 4.253 2.25 6.336a45.6 45.6 0 0 0 3.143 6.072 42.4 42.4 0 0 0 6.533 7.951l-.044.058zM146.791 86.356c-2.696-1.396-5.641-2.375-8.659-3.011-.548-.132-1.111-.183-1.674-.263-.555-.08-1.118-.132-1.68-.197a44 44 0 0 0-5.993-.344 35.5 35.5 0 0 0-6.021.534c-.884.138-1.761.35-2.638.548-.863.24-1.74.467-2.58.767-2.17.753-4.282 1.666-6.394 2.63-.665.286-.709.052-.314-.504a8.4 8.4 0 0 1 2.367-2.243c2.112-1.272 4.392-2.28 6.753-3.055 1.176-.409 2.404-.635 3.624-.847l1.849-.242a80 80 0 0 1 1.864-.124c2.966-.138 6.065-.248 9.09.154 3.311.445 6.585 1.279 9.676 2.55 1.907.775 3.734 1.747 5.473 2.843 2.631 1.68 4.991 3.778 7.023 6.124 1.571 1.82 3.011 3.741 4.129 5.89.131.233.255.467.38.701.117.241.204.49.299.738.168.468.3.863.388 1.199.065.343.087.628.08.869-.015.483-.175.797-.475 1.089-.139.132-.263.293-.409.38-.49.307-1.169-.307-1.754-1.491-1.001-1.717-1.915-3.442-3.069-5.056a27.6 27.6 0 0 0-3.925-4.502c-2.163-2.06-4.728-3.734-7.468-5.071l.029-.074z"/><path fill="#12111f" d="M123.882 91.052c4.64.168 9.273.936 13.65 2.5 1.601.54 3.201 1.125 4.721 1.863 2.689 1.3 5.196 2.974 7.483 4.874 2.288 1.908 4.378 4.049 6.11 6.453 1.541 2.126 2.959 4.363 4.063 6.716l.548 1.125c.182.373.321.767.482 1.155.3.782.65 1.542.862 2.353.431 1.607.972 3.208.87 4.911-.022 1.052-.292.949-.994.219-.336-.366-.899-.855-1.264-1.498-.366-.643-.848-1.367-1.147-2.207-2.185-5.949-5.51-11.327-10.063-15.814-2.704-2.726-6.292-4.67-9.902-6.204-1.98-.877-4.07-1.513-6.168-2.076-1.067-.212-2.119-.519-3.201-.657l-1.622-.264c-.541-.065-1.089-.11-1.629-.168-2.682-.248-5.401-.3-8.09-.036-4.078.35-8.163 1.213-11.955 2.726-2.96 1.147-5.642 2.755-8.17 4.56-.57.372-1.082.811-1.63 1.227-.512.388-.943.687-1.315.928a6 6 0 0 1-.936.585c-.548.263-.979.285-1.461.153-.22-.058-.475-.095-.65-.182-.615-.307-.118-1.396 1.307-2.806 2.185-2.003 4.692-3.786 7.418-5.276 2.733-1.484 5.692-2.624 8.725-3.486a47.5 47.5 0 0 1 13.943-1.747v.08z"/><path fill="#12111f" d="M86.561 107.518c-.073.095-.16.219-.146.197 0 .015-.037.015-.044.029l-.087.081-.103.109s-.124.125-.029.103c.058.051.124.073.329.095h.168l.256-.015c.285-.015.57-.029.862-.022a58 58 0 0 0 6.16-.373 37 37 0 0 0 2.719-.431c1.154-.204 2.31-.453 3.508-.46.394.102.358.219.109.584-.248.359-.753.775-1.403.965-.585.161-1.162.322-1.746.46-.592.125-1.184.234-1.776.337a33 33 0 0 1-3.625.438c-1.461.088-2.967.38-4.48.475l-.387.022-.562.015c-.38 0-.731.022-1.133.014l-1.184-.022-1.213-.036c.014-.088 0-.154.036-.256l.147-.329.292-.65c.19-.417.387-.841.636-1.264.182-.329.343-.658.555-.987l.431-.672.833-1.265c.826-1.271 1.725-2.506 2.456-3.8.57-1.008.972-2.082 1.322-3.113.066-.226.11-.453.19-.68.11-.401.27-.628.439-.774.16-.131.394-.197.745-.234.161-.014.322-.058.475-.065a.67.67 0 0 1 .636.321c.153.227.256.621.205 1.016-.132 1.22-.563 2.294-1.045 3.31a28 28 0 0 1-1.674 2.916c-.877 1.396-1.93 2.675-2.828 3.983l-.051-.03zM260.103 138.86c-.855 1.045-1.798 1.505-2.748 1.563-.336-.014-.723.044-1.052-.153a1.66 1.66 0 0 1-.789-.884c-.125-.336-.154-.658-.125-1.089.037-.424.147-.935.41-1.447a7 7 0 0 1 .497-.906l.248-.387.197-.278c.366-.446.877-.826 1.455-.914.175-.029.175.059.116.234-.073.168-.138.49-.233.724a2.9 2.9 0 0 0-.198.643c-.014.102-.066.219-.087.292-.008.015-.022.029-.03.029-.043.015-.146.073-.321.344a.7.7 0 0 0-.132.336c0 .146.125.226.241.27.212.095.461.015.673-.182.131-.125.263-.285.343-.497a2 2 0 0 0 .132-.526c0-.095 0-.19-.029-.285a.3.3 0 0 0-.074-.125c-.043.015.059-.08.037-.058 0 0-.007.007-.007.014-.037.066-.037.081-.059.096a.4.4 0 0 0-.073.094c-.051.081-.015.154-.058.278-.015.051-.008.124-.037.183-.102.234-.336.285-1.001 0a9 9 0 0 1-.446-.183c-.482-.234-.833-.592-.767-1.001.051-.307.175-.65.446-1.008.241-.344.767-.731 1.3-.87a2.53 2.53 0 0 1 2.47.599c.154.154.212.227.285.329.139.19.256.402.337.628.263.665.212 1.462.043 2.207a5.5 5.5 0 0 1-.928 1.988l-.043-.051zM243.447 140.418c-.855 1.045-1.798 1.506-2.748 1.564-.336-.015-.724.044-1.052-.153a1.68 1.68 0 0 1-.79-.885c-.124-.336-.153-.657-.124-1.088.037-.424.146-.936.409-1.447.154-.337.322-.636.497-.907l.249-.387.197-.278c.365-.445.877-.825 1.454-.913.176-.029.176.058.117.234-.073.168-.139.489-.234.723a3 3 0 0 0-.197.643c-.015.103-.066.22-.088.293-.007.014-.022.029-.029.029-.044.015-.146.073-.321.343a.7.7 0 0 0-.132.337c0 .146.124.226.241.27.212.095.461.015.672-.183.132-.124.264-.285.344-.497a2 2 0 0 0 .131-.526c0-.095 0-.19-.029-.285a.3.3 0 0 0-.073-.124c-.044.015.059-.08.037-.059 0 0-.008.008-.008.015-.036.066-.036.08-.058.095a.4.4 0 0 0-.073.095c-.051.08-.015.154-.059.278-.014.051-.007.124-.036.182-.102.234-.336.285-1.001 0a7 7 0 0 1-.446-.182c-.482-.234-.833-.592-.767-1.001a2.3 2.3 0 0 1 .445-1.009c.242-.343.768-.731 1.301-.869a2.53 2.53 0 0 1 2.47.599c.154.153.212.226.285.329.139.19.256.402.336.628.263.665.212 1.462.044 2.207a5.5 5.5 0 0 1-.928 1.988l-.044-.051zM253.475 161.668c2.178.987 4.597 1.009 6.76-.036 1.849-.892 3.215-2.587 3.873-4.509.226-.651-.256-1.469-.921-1.615-.731-.168-1.381.219-1.615.921-.029.08-.058.16-.088.248-.138.38.052-.102-.043.11q-.11.24-.242.46c-.095.168-.204.329-.314.497-.036.051-.117.161-.029.044a4 4 0 0 1-.212.248c-.555.629-.892.899-1.622 1.272-.081.036-.154.08-.234.117.131-.059-.044.014-.081.029q-.317.12-.635.197a3.9 3.9 0 0 1-1.045.154c-.79.022-1.571-.11-2.222-.402-.65-.293-1.418-.183-1.798.475-.328.562-.175 1.505.475 1.797zM272.525 122.559c-3.259-3.998-9.376-4.129-14.002-3.004-1.827.446-1.052 3.267.775 2.821q.572-.143 1.154-.241c.117-.022.242-.044.359-.059.036 0 .38-.058.182-.029-.197.029.161-.022.198-.022l.409-.044a17.6 17.6 0 0 1 3.281-.022c.782.073 2.2.38 2.93.695 1.126.475 1.864 1.045 2.631 1.98.497.614 1.549.519 2.068 0 .607-.607.504-1.454 0-2.068zM249.28 120.637c-1.556-.285-3.12-.578-4.677-.863-.394-.073-.767-.058-1.125.147-.3.175-.592.526-.672.877-.161.716.219 1.651 1.023 1.797 1.556.285 3.12.578 4.677.863.394.073.767.058 1.125-.147.3-.175.592-.526.672-.877.161-.716-.219-1.651-1.023-1.797"/><path fill="#12111f" d="M208.985 80.159c-3.742 3.53-6.745 7.87-8.404 12.686-1.622 4.801-1.842 10.107-.081 14.827.629 1.718 1.477 3.369 2.565 4.853 1.082 1.49 2.339 2.857 3.705 4.114 4.933 4.414 11.269 7.308 17.926 7.673 6.672.424 13.41-1.425 19.621-4.209 5.547-2.485 10.757-5.817 15.69-9.354 3.179-2.273 6.241-4.728 9.347-7.14 3.105-2.404 6.248-4.823 9.785-6.7 1.154-.512 1.658-.695 1.673-.615.015.088-.46.475-1.162 1.272-.329.431-.775.877-1.25 1.44-.453.591-1.037 1.147-1.629 1.834-.607.657-1.25 1.403-1.988 2.119a54 54 0 0 1-2.441 2.141 141 141 0 0 1-4.735 3.764 181 181 0 0 1-4.867 3.631c-3.296 2.375-6.686 4.641-10.245 6.687-3.559 2.039-7.279 3.858-11.196 5.269-3.909 1.403-8.031 2.397-12.255 2.66-2.521.117-5.093.095-7.644-.358-1.286-.146-2.528-.519-3.792-.811-.629-.168-1.228-.41-1.849-.614-.614-.212-1.235-.409-1.82-.694l-1.775-.804c-.592-.263-1.14-.629-1.71-.936-.556-.336-1.148-.614-1.674-.994l-1.593-1.118a27.7 27.7 0 0 1-5.656-5.371c-1.776-2.258-3.179-4.837-4.056-7.592a24.5 24.5 0 0 1-1.06-8.521c.322-5.737 2.551-11.188 5.81-15.748a39.2 39.2 0 0 1 7.096-7.483 45 45 0 0 1 8.681-5.466c4.677-2.244 9.749-3.64 14.893-4.202 5.145-.563 10.363-.234 15.376.884 7.79 1.717 15.054 5.386 20.9 10.823 1.271 1.205 2.506 2.418 3.624 3.792 2.09 2.543 3.209 4.414 3.844 5.795.315.694.541 1.25.651 1.747.095.504.117.935.095 1.33-.015.358.014.804-.051 1.037-.117.395-.57.059-1.323-.825-.38-.439-.804-1.038-1.316-1.74-.489-.723-1.088-1.527-1.746-2.448a43.3 43.3 0 0 0-6.833-7.439c-2.572-2.221-5.415-4.165-8.499-5.707a42.2 42.2 0 0 0-9.748-3.544c-3.391-.812-6.899-1.17-10.406-1.14-10.406.05-20.864 4.085-28.405 11.26l-.059-.043zM281.528 128.894c.395.117 1.191.059 1.886-.197a7 7 0 0 0 2.039-1.14 7.2 7.2 0 0 0 1.52-1.812c.387-.695.628-1.433.774-2.288q.068-.262.146-.526c.044-.175.095-.351.205-.504l.256-.409c.087-.117.175-.212.263-.314l.27-.3.285-.241q.285-.252.592-.439c.205-.131.409-.263.629-.358a5.8 5.8 0 0 1 2.784-.643c.862-.014 1.71.249 2.492.592.358.219.731.424 1.052.672.3.271.621.534.884.826 1.089 1.177 1.644 2.536 2.141 3.895.885 2.821.687 5.773-.197 8.441-.789 2.36-2.199 4.596-4.268 6.087-.657.475-1.366.891-2.126 1.184-.76.299-1.549.533-2.361.584-1.607.146-3.237-.109-4.596-.899-.877-.372-.745-.336.058-.299.395.051 1.009-.161 1.667-.256a27 27 0 0 0 1.045-.241q.524-.097 1.103-.205c5.422-.709 8.462-6.81 7.732-12.196a8.1 8.1 0 0 0-.702-2.353c-.146-.402-.365-.746-.577-1.089-.19-.373-.475-.629-.716-.943-.541-.526-1.148-.928-1.805-1.096-.658-.175-1.382-.102-2.054.132-.394.16-.804.35-1.096.621-.168.117-.27.263-.373.38-.029.058-.058.087-.087.131l-.052.146c-.19 1.645-.942 3.347-2.046 4.633a9.23 9.23 0 0 1-4.165 2.858c-.351.139-.745.19-1.111.285-.394.029-.775.117-1.198.073-.212-.015-.41 0-.622-.051-.19-.044-.489-.103-.716-.176l-.657-.343c-.22-.11-.388-.3-.585-.446-.658-.643-.614-1.71-.46-2.521.146-.68.336-1.286.533-1.878.621-1.856 1.264-3.632 1.696-5.466.431-1.82.679-3.683.606-5.51-.095-2.858-1.111-5.51-2.543-7.849-.351-.504-.665-1.001-1.045-1.491-1.279-1.885-1.681-2.528-1.535-3.376.03-.19.037-.409.095-.57.103-.263.395-.285.855-.095.461.19 1.089.585 1.769 1.25a15.5 15.5 0 0 1 1.461 1.549c.424.577.877 1.155 1.243 1.791a15.7 15.7 0 0 1 1.819 4.099c.87 2.923.914 6.102.402 9.054-.329 1.973-.899 3.873-1.512 5.664-.3.891-.622 1.776-.87 2.579-.066.205-.11.388-.161.578-.029.095-.036.175-.051.241v.022s-.022.044 0 .058c0 .015.044.044.037.03l-.015.065zM239.881 153.345a2.2 2.2 0 0 1-.344-.614 2.5 2.5 0 0 1-.226-.658c-.103-.409-.11-.723-.139-1.067 0-.636.058-1.22.153-1.768.19-1.104.497-2.105.826-3.091.241-.717.431-1.44.724-2.127.993-2.426 2.177-4.721 3.405-6.986.541-1.009 1.052-2.032 1.571-3.033.629-1.315 1.44-2.536 2.339-3.69.285-.358.401-.212.409.226a6.2 6.2 0 0 1-.344 1.988c-.248.694-.497 1.389-.825 2.039l-.914 1.988a146 146 0 0 1-1.871 3.96c-.796 1.564-1.337 3.318-1.87 4.999a33 33 0 0 0-.768 2.777c-.19.913-.343 1.863-.263 2.645.015.117.022.234.051.329.022.095.022.153.051.219.037.146.139.249.234.358.241.176.68.285 1.177.249.745-.037 1.593-.3 2.404-.636a16.5 16.5 0 0 0 2.39-1.235c1.205-.738 2.265-1.666 3.412-2.536.256-.19.49-.402.76-.584 1.009-.665 1.498-.695 2.061-.125.132.132.271.256.373.395.329.497.153 1.089-.453 1.637-1.834 1.651-4.005 3.296-6.614 4.596-.891.439-1.849.841-2.974 1.097a6.6 6.6 0 0 1-1.885.168c-.709-.066-1.491-.249-2.229-.804-.241-.219-.504-.417-.694-.694l.051-.044zM264.326 240.226c.394 1.747.928 3.449 1.783 4.83.212.344.438.665.687.958.124.146.255.27.387.409q.22.21.482.431l2.134 1.82c1.052.891 2.149 1.739 3.172 2.689.899.84 1.797 1.703 2.645 2.653.84.942 1.6 1.922 2.339 2.901 1.468 1.951 2.828 3.909 4.457 5.517 1.403 1.345 3.333 2.295 5.211 3.113 1.22.526 2.492.914 3.748 1.352 1.265.431 2.536.76 3.793 1.345.38.27.541.431.519.511-.022.088-.241.132-.643.351-.409.227-.965.373-1.659.541-.68.117-1.461.102-2.273-.066-1.439-.285-2.835-.745-4.194-1.308a21.3 21.3 0 0 1-3.961-2.053 15 15 0 0 1-1.863-1.418c-.636-.563-1.097-1.104-1.594-1.674-.957-1.14-1.783-2.323-2.579-3.493-.943-1.395-1.966-2.733-3.099-3.939-1.125-1.191-2.426-2.309-3.697-3.434l-4.305-3.72a9.7 9.7 0 0 1-1.973-2.47c-.511-.899-.891-1.827-1.227-2.762-.811-2.302-1.25-4.64-1.674-6.942l-.46-2.595-.124-.635-.117-.541a4.3 4.3 0 0 0-.205-.709c-.088-.219-.197-.497-.446-.57-.255-.029-.467.161-.65.314-.19.168-.322.38-.439.607a3 3 0 0 0-.146.336c-.073.175-.124.373-.182.563-.322 1.205-.337 2.513-.242 3.792.103 1.286.329 2.558.644 3.808.131.548.314 1.074.482 1.615.563 2.017.753 2.565.446 3.281-.059.161-.088.351-.161.475-.117.219-.38.197-.782-.088-.409-.278-.855-.84-1.264-1.622-.621-1.155-1.023-2.397-1.323-3.669a21 21 0 0 1-.563-3.939c-.058-1.359 0-2.755.358-4.231.037-.182.103-.372.154-.562.029-.095.051-.19.095-.285l.168-.446c.263-.57.577-1.111.95-1.571.175-.249.402-.402.599-.607.212-.168.439-.314.665-.453.461-.248.928-.424 1.418-.395.373.015.76.117 1.067.293.153.095.299.182.438.292.132.132.271.241.388.387.504.578.789 1.513 1.052 2.397.139.556.168.695.219.958l.146.73.256 1.425c.314 1.878.599 3.705 1.038 5.467l-.059.021zM254.156 274.289a44 44 0 0 0 5.517.767c.68.037 1.367.007 2.046.036 2.412.117 4.845.132 7.249-.109 1.067-.11 2.142-.27 3.165-.526 1.344-.271 2.645-.636 4.041-.79.438-.043.482.212.256.658a4.3 4.3 0 0 1-.541.797c-.241.292-.548.606-.936.774-.679.293-1.359.665-2.068.885-.716.19-1.432.394-2.163.518l-1.096.19c-.365.052-.738.059-1.111.088q-1.105.077-2.221.044c-1.769-.029-3.588.161-5.386.124a50 50 0 0 1-5.905-.497c-1.205-.175-2.411-.394-3.617-.716l-.687-.197-.694-.256c-.46-.183-.892-.387-1.323-.614a9.1 9.1 0 0 1-2.382-1.776c-.541-.57-1.03-1.22-1.381-1.943a6.8 6.8 0 0 1-.651-2.28 8 8 0 0 1-.073-1.016c.015-.314.044-.57.088-.782a1.7 1.7 0 0 1 .219-.497c.176-.256.402-.38.716-.453.147-.037.285-.088.424-.095.461-.037.76.489.928 1.264.161 1.147.446 2.156.855 2.923.424.767 1.06 1.367 1.937 1.893.65.373 1.432.709 2.17.928.826.205 1.696.431 2.609.585v.073z"/><path fill="#12111f" d="M245.531 264.42c.336.431.855.826 1.498 1.111.226.117.504.109.745.204.892.293 1.915.592 2.967.68.468.066.943.037 1.403 0a5.8 5.8 0 0 1 1.849.044c.205.044.212.241.102.526-.109.278-.336.716-.672.928-.592.387-1.235.548-1.893.702-.657.16-1.344.146-2.039.022-.818-.125-1.695-.066-2.557-.285a7.8 7.8 0 0 1-2.719-1.243c-.256-.197-.504-.38-.723-.621l-.336-.343-.271-.337c-.541-.679-1.067-1.585-1.22-2.638-.139-.796-.139-1.622.095-2.338.044-.161.066-.329.168-.453.336-.497.628-.512 1.198-.285q.2.075.388.161c.402.212.643.599.701.986.059.292.117.556.132.76.022.212.095.395.102.526.051.271.102.336.175.526.066.139.183.344.366.6.095.124.204.255.314.402l.249.299-.044.059z"/><path fill="#12111f" d="M242.256 257.164c.424.489 1.184.891 2.025 1.213.314.117.643.146.979.234 1.176.329 2.455.526 3.749.614.577.029 1.154.043 1.724.022.373 0 .738-.044 1.111-.03q.561.033 1.133.154c.234.058.212.248.022.497-.19.241-.519.599-.936.745-.738.219-1.49.336-2.258.439-.767.095-1.556.043-2.346-.052-.942-.138-1.936-.043-2.937-.204-1.089-.176-2.222-.504-3.238-1.184-.321-.175-.599-.475-.891-.716-.249-.3-.519-.585-.716-.921-.592-1.023-.775-2.112-.841-3.172-.051-.818-.109-1.666.073-2.535.037-.19.066-.388.161-.563.344-.658.68-.745 1.25-.504.131.051.263.102.38.168.402.234.577.65.606 1.03.073.592.03 1.053.059 1.564.014.497.095.994.161 1.476.058.351.146.687.263.965.058.139.109.248.204.365.081.117.154.241.285.336l-.036.052z"/><path fill="#12111f" d="M229.672 248.628c-.775-.35-1.17-.497-2.646-1.271-1.257-.621-2.272-1.425-2.667-2.193-.197-.387-.336-.767-.292-1.264 0-.248.095-.519.219-.716.102-.219.263-.395.431-.555.643-.636 1.652-1.023 2.916-1.148.468-.021.935-.087 1.381-.073h.957l.22.015c.577.022 1.147.066 1.702.139 3.939.548 7.673 1.527 11.415 2.514 1.659.438 3.332.818 4.984 1.198 2.141.417 4.238 1.038 6.219 2.054.591.423.489.453-.161.687-.329.124-.775.233-1.316.35q-.405.09-.855.146c-.153.022-.299.022-.467.052-.154-.015-.307-.022-.461-.044l-1.651-.227c-.548-.08-1.082-.234-1.623-.351l-3.222-.774a297 297 0 0 1-6.424-1.659c-2.55-.709-5.298-1.06-7.907-1.272l-.84-.058c-.175-.015-.285-.015-.431-.015-.278 0-.592.015-.877.161-.066.044-.139.088-.175.146-.044.066-.037.146-.008.212.051.132.161.227.271.322.226.182.497.35.789.511a32.078 32.078 0 0 0 2.258 1.038c.84.358 1.695.694 2.55 1.016 2.609.972 5.262 1.892 7.936 2.652 2.076.585 4.159.994 6.249 1.455.46.102.913.175 1.373.285.855.204 1.403.387 1.762.635.35.263.518.534.628.87.051.154.124.307.139.446.029.226-.154.38-.519.497a3.7 3.7 0 0 1-1.549.109c-3.822-.548-7.739-1.6-11.649-2.777-2.908-.877-5.795-1.863-8.674-3.047l.022-.058zM101.073 150.211c-.563.461-1.154.541-1.695.482-.198-.029-.402-.021-.6-.116-.336-.161-.643-.446-.774-.782a1.63 1.63 0 0 1-.088-.914c.044-.234.088-.46.212-.65.132-.249.38-.475.687-.475.095 0 .124.124.16.292.03.161.118.38.162.46.036.139.19.249.204.285.022.044.03.052-.036.081-.044.014-.074.058-.059.036.015-.014.022-.043.03-.058 0 0 0-.007.014 0 .022.022.132.044.19.029h.08c.03.007.073-.095-.022-.161-.036-.022-.102-.014-.16.022a.2.2 0 0 0-.073.073c-.03.052.014-.029.014-.036 0-.022.015-.044.022-.066.008-.044.008-.044.008-.058v-.022c0-.11-.015-.241-.037-.402l-.066-.439c-.095-.475-.03-.928.307-1.081.482-.161 1.009-.029 1.374.234.38.27.643.665.782 1.14.102.35.109.76 0 1.162-.11.401-.336.752-.599 1.008l-.037-.037zM120.489 179.069c-.255-.446-.511-.892-.716-1.367-.234-.453-.409-.943-.584-1.418a11 11 0 0 1-.38-1.045 12.2 12.2 0 0 1-.388-3.865c-.007-.285.037-.57.052-.855.021-.285.014-.57.065-.841.044-.358.11-.716.205-1.059q.186-.518.416-1.001c.103-.198.212-.132.322.087.102.22.256.599.256.987-.029.343.08.694.022 1.016-.044.328-.015.665-.022.993-.015.329 0 .658.022.987l.014.497.044.497c.015.197.044.402.073.606.044.198.103.402.161.6.095.401.27.781.402 1.176.131.439.358.84.519 1.264.212.402.409.819.657 1.213l.454.724c.16.234.336.46.511.687a11.7 11.7 0 0 0 1.783 1.871c.534.401 1.14.686 1.725.979.124.066.263.117.387.182.234.125.373.234.424.388.044.175.022.358-.044.606-.029.11-.051.227-.088.329a.68.68 0 0 1-.35.38c-.168.081-.395.146-.607.073a6.3 6.3 0 0 1-1.871-.826 13 13 0 0 1-.825-.635c-.256-.234-.512-.483-.76-.724-.366-.365-.687-.782-1.024-1.184-.292-.431-.621-.833-.884-1.286l.037-.029z"/><path fill="#12111f" d="m89.016 184.835-3.552-17.795c-.431-2.163-.913-4.319-1.323-6.489l-1.074-5.678-.511-2.857-.22-1.447-.05-.366-.023-.182v-.278c-.022-.38-.044-.76.03-1.125.38-.651 1.19-1.184 1.563-1.389.46-.263.921-.497 1.382-.716a42 42 0 0 1 2.784-1.162 66 66 0 0 1 5.678-1.834c3.361-.921 6.789-1.681 10.238-2.127a57 57 0 0 1 3.339-.336 37 37 0 0 1 3.369 0c2.244.095 4.509.49 6.599 1.337 1.264.651 1.06.585-.139.57-.599.015-1.425-.014-2.419.059-.489.007-1.03.08-1.585.088-.556 0-1.148.022-1.754.007a37 37 0 0 0-3.245.139c-1.081.08-2.17.146-3.252.27-2.17.234-4.333.614-6.482 1.082-2.148.46-4.29 1.03-6.394 1.688s-4.21 1.396-6.16 2.309c-.351.168-.702.343-1.016.533l-.292.176c-.051.036-.103.066-.14.124-.028.073 0 .168 0 .263l.118.819.285 1.702c.19 1.148.402 2.295.62 3.45.454 2.309.907 4.625 1.36 6.92 1.191 5.97 2.39 11.941 3.58 17.911.76 3.669 1.514 7.344 2.274 11.013.584 2.777 1.176 5.561 1.76 8.338.3 1.388.607 2.769.907 4.151l.468 2.068.475 2.009c.036.139.073.285.117.417.065.131.255.124.387.146.168.007.226.007.511 0 .483-.007.987-.058 1.484-.102a60 60 0 0 0 2.996-.402c2.002-.329 3.997-.658 6.007-.994.943-.154 1.863-.322 2.813-.46 3.545-.505 4.721-.461 5.54.043.182.11.423.212.533.322.351.351-1.03.848-3.581 1.301-2.74.497-5.532 1.059-8.396 1.534-1.433.234-2.879.461-4.363.651-.745.087-1.49.175-2.273.219l-.599.029c-.212 0-.358.007-.804 0-.182-.007-.358-.044-.533-.066a1.6 1.6 0 0 1-.504-.124c-.08-.029-.168-.051-.242-.088l-.204-.146-.205-.146c-.036-.022-.058-.058-.11-.066l-.08-.08c-.117-.212-.204-.475-.3-.716a4.2 4.2 0 0 1-.255-.76l-.205-.87c-.131-.548-.255-1.103-.387-1.651-.249-1.104-.504-2.215-.753-3.318-1.33-5.948-2.572-11.933-3.836-17.904l.05-.022zM129.377 191.059c.168 1.242.372 2.506.592 3.77.08.461.234.907.292 1.382.219 1.651.402 3.317.577 4.969.073.731.198 1.461.315 2.185l.124.694q.043.351.066.702.021.348.021.708v.358c-.014.117-.058.242-.087.366-.095.307-.19.285-.483.08-.336-.197-.796-.584-.993-1.089-.38-.898-.534-1.819-.746-2.74a20 20 0 0 1-.416-2.806c-.095-1.14-.49-2.266-.746-3.398a194 194 0 0 1-.752-3.808l-.41-2.382c-.168-1.206-.343-2.419-.511-3.617-.154-.928-.417-1.82-.621-2.733-.044-.205-.103-.395-.132-.599-.08-.38.044-.644.146-.826a.75.75 0 0 1 .241-.234c.117-.066.256-.124.388-.175.124-.044.234-.103.329-.132.263-.095.906.168 1.154.694.658 1.571.906 3.238 1.162 4.904.161 1.242.329 2.484.541 3.734l-.059.015z"/><path fill="#12111f" d="M102.834 149.39a3.6 3.6 0 0 1-.797 1.637 3.2 3.2 0 0 1-1.513.972c-.394.117-.789.226-1.183.197a3.44 3.44 0 0 1-1.85-.745 2.88 2.88 0 0 1-.978-1.696c-.132-.614.08-1.228.372-1.651.366-.563.943-.95 1.579-.958.197 0 .204.212.168.483-.044.27-.059.65-.125.84-.153.329-.095.672.03.702.05.014 0 0 .007.08 0 .066.037.183.066.285.095.292.533.329.833.285.358-.029.606-.124.782-.468.109-.204.153-.489.102-.723a.9.9 0 0 0-.256-.541.65.65 0 0 0-.416-.197c-.3-.022-.54.226-.621.424-.022.043-.022.102-.037.138-.036.059-.08.073-.22.037-.138-.029-.343-.102-.693-.249l-.475-.168c-.526-.175-.906-.599-.724-1.118.256-.752.98-1.447 1.9-1.637a3.8 3.8 0 0 1 1.403-.022 3.6 3.6 0 0 1 1.308.541c.081.051.154.124.242.168a3.6 3.6 0 0 1 1.052 1.623c.19.65.197 1.198.109 1.775h-.065zM111.098 181.072c-.825-.417-2.126-.607-3.456-.753-1.345-.161-2.777-.234-4.29-.57-1.111-.27-2.273-.533-3.398-1.461-.957-.841-1.469-1.9-1.776-2.945a7.1 7.1 0 0 1-.153-3.223c.212-1.067.665-2.214 1.659-3.018l.372-.285.344-.19c.234-.117.446-.263.694-.351.241-.095.475-.197.724-.278l.745-.204c.891-.176 1.79-.227 2.682-.161.884.095 1.754.27 2.565.585 2.104.723 3.99 2.411 4.458 4.589.175.65 0 .614-.57.351a8 8 0 0 0-1.162-.453c-.227-.088-.497-.147-.738-.227-.227-.095-.432-.219-.651-.329-.19-.102-.365-.219-.555-.307-.198-.08-.388-.16-.548-.285l-.526-.285-.549-.241a6.9 6.9 0 0 0-2.272-.468c-.19-.021-.38 0-.57.008-.19 0-.373.029-.556.066a3 3 0 0 0-.548.087c-.19.029-.365.081-.54.146l-.271.081-.256.117-.263.117c-.058.029-.087.058-.146.08a1.54 1.54 0 0 0-.555.57c-.417.665-.475 1.768-.19 2.689.131.468.351.899.621 1.228.278.336.533.533 1.008.775.972.489 2.251.708 3.581.855 1.337.146 2.741.19 4.217.445.906.161 1.87.417 2.784.987.453.285.877.672 1.206 1.118.343.446.555.957.716 1.461l.139.57.073.563c.022.38.058.716 0 1.133l-.073.599c-.03.197-.117.387-.176.577-.073.19-.124.388-.212.563l-.299.504c-.848 1.323-2.105 2.156-3.362 2.755-.994.446-2.002.848-3.054 1.031-.519.139-1.06.168-1.593.248-.534.015-1.082.073-1.623.015-.482-.029-.957-.037-1.432-.168-1.776-.439-2.222-1.009-2.222-1.776 0-.175-.022-.351 0-.504.052-.256.285-.395.622-.483.343-.087.76-.043 1.286-.014.767.095 1.549.044 2.316.014.775-.095 1.542-.19 2.28-.416a16 16 0 0 0 2.119-.731c.658-.3 1.221-.68 1.659-1.081.271-.315.534-.614.614-.914.022-.073.081-.146.088-.219 0-.081.014-.154.029-.234.007-.044.022-.073.029-.124v-.183c0-.124 0-.248-.014-.358-.037-.46-.139-.789-.278-1.016-.132-.234-.373-.431-.782-.621l.029-.066zM80.612 174.283c-.504-1.067-.855-2.156-1.14-3.223-.051-.197-.124-.38-.183-.577a6 6 0 0 1-.095-.395c-.014-.161-.05-.329-.05-.489a3 3 0 0 1 .072-.848c.059-.271.125-.534.249-.775a2.7 2.7 0 0 1 .467-.636 2.1 2.1 0 0 1 .673-.387c.482-.175 1.016-.153 1.534.022.263.08.512.161.76.292.242.103.38.198.57.315.307.219.629.46.848.774.212.314.358.621.475.914.3.738.563 1.359.891 2.038.095.212-.021.285-.292.249-.263-.044-.745-.175-1.096-.526-.585-.621-1.14-1.359-1.498-1.462a2.2 2.2 0 0 0-.519-.307c.022-.051-.073-.146-.19-.233-.153-.117-.358-.044-.394.109a.8.8 0 0 0-.03.227v.117s.015.073.037.16l.183.68c.058.248.138.475.204.716.139.475.307.943.49 1.396.234.555.49 1.103.818 1.6.49.768 1.06 1.506 1.776 2.105.555.468 1.228.775 1.87 1.125.147.073.3.132.432.219.482.359.533.622.27 1.214-.058.131-.11.277-.175.402-.227.423-.665.613-1.155.504-.723-.161-1.352-.519-1.987-.914a10 10 0 0 1-1.776-1.476c-.826-.84-1.535-1.856-2.09-2.901l.058-.037z"/><path fill="#12111f" d="M83.76 184.349c-.27-.431-.526-.891-.746-1.373a9.5 9.5 0 0 1-.591-1.769c-.095-.533-.264-1.089-.183-1.586.051-.431.197-.833.511-1.154.315-.314.687-.446 1.09-.504.219-.008.409-.052.657-.015l.35.036c.118.022.242.074.359.11.241.066.46.19.687.292.212.11.43.132.614.293.555.321.972.614 1.395.972.534.445.987 1.008 1.206 1.658.066.205-.058.242-.3.205-.233-.044-.62-.11-.92-.263a6.4 6.4 0 0 0-1.579-.585l-.38-.087c-.044 0-.022-.022-.029-.029 0 0-.007-.001-.007-.008l-.022-.044a1 1 0 0 0-.22-.226c-.146-.103-.328-.154-.43-.066-.096.102-.03.249-.052.365v.22l.015.124c0 .036.044.153.066.234.117.336.27.687.467 1.023.234.416.512.84.84 1.235.25.314.483.577.79.928s.6.745.855 1.147c.197.314.373.629.548.862.175.234.336.388.497.519.073.059.16.095.234.161.263.241.27.46-.059 1.074-.073.139-.139.285-.219.424-.263.453-.701.694-1.191.526a3.1 3.1 0 0 1-1.038-.635c-.329-.285-.599-.658-.789-.929a7 7 0 0 0-.438-.584c-.103-.146-.19-.278-.315-.417l-.796-.898a20 20 0 0 1-.921-1.184l.059-.044z"/><path fill="#12111f" d="M85.376 193.917c-.577-.65-1.213-1.498-1.484-2.616-.102-.431-.19-.862-.131-1.294.11-.738.468-1.549 1.228-1.987.73-.453 1.563-.439 2.14-.256.527.161.944.336 1.338.526.504.241.943.497 1.418.694.146.066.139.212-.03.395-.16.183-.511.395-.891.409-.658.015-1.286-.014-1.725-.095a2.8 2.8 0 0 0-.511-.022c-.08 0-.154.008-.234.015-.117-.007-.227.307-.248.65-.052.336.146.899.548 1.411.124.16.255.321.402.482.16.175.343.365.511.555.526.556.906 1.265 1.33 1.71.344.351.73.453 1.147.556.095.022.19.022.278.08.322.205.424.387.417.848v.307c-.022.321-.263.577-.68.701-.621.219-1.308.059-1.98-.277-.673-.359-1.148-.877-1.491-1.228a9 9 0 0 1-.68-.76c-.11-.117-.204-.241-.321-.358l-.168-.176-.234-.226.044-.044zM104.886 174.748c.263 1.9.533 3.793.848 5.685.109.695.292 1.367.402 2.054l.299 1.827.241 1.841c.168 1.228.351 2.448.556 3.669.182 1.081.416 2.155.657 3.215.271 1.374.658 2.719.702 4.151.029.438-.022.394-.234.066-.146-.212-.307-.446-.468-.673-.095-.139-.211-.285-.299-.453a5 5 0 0 1-.227-.541 53 53 0 0 1-2.302-8.294c-.153-.847-.372-1.702-.584-2.565-.19-.862-.395-1.732-.563-2.601a254 254 0 0 1-1.008-5.737l-.57-3.537c-.3-1.783-.534-3.588-.848-5.349-.249-1.374-.614-2.697-.921-4.048a9 9 0 0 1-.175-.892c-.146-1.125-.037-1.505.467-1.827.117-.073.22-.161.329-.212.366-.161.819.241 1.104 1.031.204.591.446 1.183.592 1.797.16.614.299 1.228.438 1.856.271 1.25.497 2.522.716 3.8.336 1.893.585 3.815.899 5.722zM109.924 173.881c.197 1.651.423 3.296.65 4.94.08.599.227 1.191.314 1.79.285 2.12.599 4.239.95 6.351.146.942.344 1.871.541 2.799.124.592.285 1.176.373 1.783.08.606.124 1.213.175 1.827.022.38-.066.35-.285.073-.212-.278-.628-.782-.95-1.425-.066-.146-.139-.285-.197-.431l-.139-.446-.278-.892a75 75 0 0 1-.526-1.79c-.351-1.191-.592-2.412-.775-3.654-.219-1.484-.657-2.982-.971-4.48a113 113 0 0 1-.899-4.969l-.49-3.069c-.248-1.549-.453-3.113-.745-4.641-.227-1.191-.556-2.338-.826-3.507-.059-.256-.139-.504-.183-.768-.175-.971-.051-1.308.534-1.6.131-.066.263-.146.394-.197.446-.161.914.175 1.17.862.73 2.039 1.227 4.224 1.527 6.453.234 1.651.468 3.31.694 4.969l-.058.015z"/><path fill="#12111f" d="M82.349 148.486s-.044.029-.059.043v.074l.27 1.3.658 3.113 1.33 6.227 2.668 12.452c.672 3.025 1.344 6.051 2.017 9.069 1.118 5.342 2.258 10.684 3.317 16.04l1.579 8.046.76 4.034.095.504.044.278.087.533.022.139v.066h.066l.227-.044.46-.102c2.346-.563 4.691-1.126 7.037-1.681 2.368-.541 4.75-1.045 7.118-1.498 3.047-.578 6.124-1.089 9.237-1.374 1.556-.139 3.135-.124 4.699-.066 1.571.073 3.142.249 4.669.665.95.263 1.323.49 1.279.526-.051.066-.526-.036-1.337-.08-.811-.073-1.966-.007-3.34.117-1.374.139-2.967.394-4.691.665-6.153.701-12.27 2.075-18.365 3.559l-4.581 1.132-1.184.293c-.366.08-.746.204-1.096.248-.351.051-.739.146-1.002.059l-.424-.066-.204-.029c-.073-.015-.16 0-.16-.103l-.286-.891-.57-1.769q-.91-4.659-1.82-9.339c-1.476-7.454-3.266-15.163-4.932-22.756-1.812-8.36-3.632-16.72-5.444-25.073l-.417-1.929-.205-.972-.102-.482-.058-.263c-.022-.125-.066-.242-.066-.366l-.015-.701v-.336c-.022-.059.015-.103-.036-.183l.095-.146c.124-.198.234-.395.446-.541.19-.154.358-.329.57-.46.482-.285.716-.417 1.06-.563.32-.154.642-.292.956-.409 2.55-.98 5.123-1.63 7.703-2.251 3.917-.914 7.87-1.622 11.846-2.171 3.975-.526 7.965-.957 12.006-.92a24 24 0 0 1 2.375.124c.797.073 1.6.205 2.441.475.19.088.533.19.745.329.212.168.461.307.643.497.081.109.139.226.205.343l.131.387.169.717c.16.767.306 1.512.445 2.265.556 3.003 1.038 5.992 1.52 9.003.212 1.323.439 2.616.629 3.954.774 4.947.541 6.584.102 7.731-.11.263-.197.599-.307.753-.183.263-.431-.095-.76-.965a25.5 25.5 0 0 1-1.118-4.048c-.979-5.342-1.893-10.867-2.85-16.391a53 53 0 0 0-.373-1.988c-.007-.015-.007-.029-.022-.029h-.014l.014.014-.124-.051c-1.001-.3-2.375-.409-3.705-.446-2.711-.058-5.539.161-8.345.453a137 137 0 0 0-12.504 1.959 91 91 0 0 0-6.138 1.461c-.994.3-1.995.607-2.93.965a16 16 0 0 0-1.367.563c-.197.102-.446.197-.607.307-.124.073-.11.058-.117.065l-.014.015-.051-.044z"/><path fill="#12111f" d="M137.028 189.861c-.175-2.149-.38-4.297-.876-6.234-.249-.957-.585-1.871-1.038-2.492-.256-.336-.351-.438-.906-.869a33 33 0 0 1-1.323-1.126c-1.25-1.125-2.441-2.287-3.508-3.544-1.322-1.564-2.535-3.201-3.705-4.83-.584-.812-1.154-1.637-1.739-2.412l-.446-.563-.358-.424c-.124-.124-.277-.365-.489-.277-.344.087-.607.241-.797.847-.175.57-.183 1.301-.102 2.047.109 1.125.446 2.287.877 3.398.438 1.125.986 2.112 1.644 3.127 1.703 2.565 3.851 4.721 6.051 7.016.606.833.482.811-.49.701-.49-.051-1.125-.219-1.878-.489a7.2 7.2 0 0 1-2.338-1.316c-.6-.519-1.214-1.037-1.754-1.629a27 27 0 0 1-1.506-1.871 26 26 0 0 1-1.315-2.01c-.446-.745-.753-1.512-1.038-2.28-.548-1.542-.986-3.12-1.045-4.91 0-.892.088-1.871.548-2.902.117-.255.271-.511.446-.752.088-.11.205-.256.329-.395.131-.11.256-.226.38-.336.526-.439 1.162-.672 1.783-.804a2.02 2.02 0 0 1 1.388.3c.41.277.782.65 1.104 1.052.672.87 1.235 1.673 1.849 2.477a97 97 0 0 0 1.834 2.375 61 61 0 0 0 3.924 4.451 37 37 0 0 0 2.331 2.199c.402.344.812.68 1.235.994.088.066.242.19.38.314q.22.176.395.373c.248.256.446.534.643.811.709 1.118 1.104 2.273 1.396 3.406.292 1.14.482 2.265.643 3.383.395 2.762.526 5.495.789 8.177.219 2.01.431 4.093 1.118 5.817.38.811.943 1.74 1.454 2.602a60 60 0 0 0 1.645 2.572c1.761 2.624 3.749 5.013 5.853 7.264.468.497.95.943 1.432 1.425 1.805 1.754 2.383 2.236 2.507 3.018.029.175.095.373.088.526-.015.249-.278.293-.768.139a5.4 5.4 0 0 1-.884-.38 15 15 0 0 1-1.096-.731c-2.324-1.79-4.385-3.953-6.314-6.24-1.9-2.324-3.727-4.721-5.378-7.323-.146-.248-.3-.482-.446-.745-.146-.256-.292-.504-.46-.848-.3-.636-.519-1.264-.68-1.863-.336-1.206-.519-2.361-.687-3.501-.314-2.28-.512-4.494-.731-6.672l.073-.014z"/><path fill="#12111f" d="M155.976 218.443c-1.666 2.031-3.508 3.829-5.452 5.488-.701.606-1.381 1.242-2.126 1.805a49.5 49.5 0 0 1-8.353 5.093c-1.308.614-2.638 1.213-4.019 1.681-.892.285-1.79.577-2.748.702-.475.08-.964.051-1.447.036-.489-.051-.979-.109-1.425-.351-.562-.27-.423-.35.088-.584q.208-.099.439-.219c.168-.132.343-.183.526-.278q.274-.112.592-.256c.204-.095.416-.139.643-.219 1.622-.329 3.259-.928 4.852-1.681 1.586-.753 3.193-1.549 4.779-2.433 1.908-1.053 3.654-2.521 5.335-3.968 1.863-1.586 3.632-3.282 5.203-5.138.957-1.14 1.856-2.338 2.58-3.617.54-.965 1.008-1.966 1.271-2.996.256-1.009.314-2.105-.131-2.792-.3-.548-.914-.825-1.608-.942-.702-.117-1.484-.044-2.273.058-.351.037-.687.124-1.045.183-.329.036-.614.087-.848.087-.241 0-.438-.051-.613-.102-.351-.117-.585-.351-.819-.731-.109-.175-.234-.336-.314-.511-.263-.57.205-1.257 1.301-1.717.811-.285 1.702-.468 2.638-.578.95-.044 1.973 0 3.084.351q.414.122.84.343c.278.125.563.322.833.512.278.19.526.46.767.709.212.285.453.563.6.884.657 1.272.694 2.609.562 3.632-.19 1.6-.76 2.952-1.41 4.187-.658 1.228-1.425 2.346-2.236 3.398l-.059-.036zM262.865 203.243a2.37 2.37 0 0 1-.752 1.528c-.147.131-.263.292-.461.387-.329.168-.76.234-1.118.146a1.2 1.2 0 0 1-.877-.679 1.85 1.85 0 0 1-.168-.746c0-.161.022-.343.124-.511.088-.168.3-.307.49-.263.124.014.124.175.161.38q.02.076.051.153c.015.044.073.132.058.102-.014-.014 0 0 .03.015.117.095.467.044.394.044-.051-.007-.27.219-.241.234q.001-.12.015-.227v.015s0-.015-.008-.044c0-.022-.036-.073-.043-.088v-.022c.029-.029.109-.109.146-.19.022-.058.051-.058.044-.095 0-.014-.022 0 .021-.036a.8.8 0 0 0 .154-.176c.036-.058.036-.095.036-.095s.015.073 0 .015c-.014-.022.037.066.205.146q.12.066.307.11c.11.029.08.022.124.044.022.014.073.029.081.043.036.059-.139.088-.819.169l-.468.058c-.526.066-.979.022-1.14-.175-.219-.293-.409-.68-.131-1.316a1.97 1.97 0 0 1 .913-.943c.432-.219.972-.27 1.462-.124.723.234 1.023.687 1.213 1.031.175.358.248.723.248 1.103h-.051zM260.221 211.026c-.694.446-1.308.373-1.827.205-.19-.066-.395-.117-.57-.264-.665-.555-.65-1.388-.38-1.826.102-.205.212-.395.344-.549.16-.204.394-.387.672-.387.088 0 .131.176.175.373.037.197.103.409.11.482-.007.292.175.424.044.424-.03 0-.037.015-.044.015l-.117.08a.5.5 0 0 0 .095-.139c0 .015.08.044.102.066.044.102.154.153.095.124l.095.022h.015c.022 0 .014 0 0 0 0 0-.044.007-.081.029-.029.008-.036.022-.065.037-.015.014 0 0-.008 0 0 0-.014-.007-.029-.007-.022 0-.073.051-.08.087.014-.066.036-.175.014-.256 0-.029-.022-.073-.022-.073-.021-.043 0 0 0-.007l.022.022s.066.037-.124-.08a4 4 0 0 0-.38-.22c-.431-.212-.76-.562-.504-.964a1.46 1.46 0 0 1 .789-.57c.292-.095.585-.095.841-.051.511.095.935.358 1.286.855.255.358.431.942.299 1.483a2 2 0 0 1-.73 1.155l-.037-.037zM153.981 231.398a52 52 0 0 1-3.025 2.01c-.373.234-.724.497-1.111.709a61 61 0 0 1-4.151 2.075c-.614.3-1.235.592-1.849.87-.402.175-.789.358-1.198.519-.41.146-.804.328-1.294.277-.299-.022-.263-.036-.124-.292.073-.124.146-.351.27-.555.125-.198.3-.351.512-.483.745-.445 1.469-.92 2.229-1.33a79 79 0 0 1 2.338-1.118c.958-.424 1.82-1.096 2.704-1.681.972-.65 1.944-1.3 2.887-2.002a33 33 0 0 0 1.702-1.337c.841-.702 1.674-1.425 2.412-2.222.57-.628 1.03-1.33 1.513-2.002.109-.146.197-.307.314-.453.416-.541.665-.614 1.176-.387.117.051.241.095.351.16.365.212.446.651.205 1.126-.351.716-.804 1.381-1.301 2.024a21 21 0 0 1-1.695 1.776c-.892.84-1.857 1.607-2.829 2.353l-.029-.037zM299.533 288.323c-.46.943-.972 1.864-1.527 2.755-.212.322-.38.673-.592.987a21.5 21.5 0 0 1-2.66 3.084c-.424.424-.884.811-1.337 1.198-.6.475-1.199.979-1.973 1.162-.234.073-.271-.08-.212-.358.029-.139.087-.314.16-.497.066-.197.176-.365.337-.49l.774-.73.731-.768c.219-.277.482-.518.738-.767q.362-.396.745-.782c.592-.643 1.016-1.461 1.455-2.243.497-.855.942-1.754 1.381-2.653.263-.563.519-1.125.752-1.703.351-.869.702-1.754.95-2.66.198-.701.256-1.432.373-2.148.029-.161.037-.314.073-.475.139-.577.322-.724.87-.702.124 0 .248 0 .373.015.409.051.672.38.672.84.044 1.374-.38 2.704-.833 4.034-.344.987-.76 1.951-1.199 2.916l-.044-.015zM285.586 239.656c-.124.081-.277-.066-.424-.278-.043-.065-.087-.285-.051-.328.059-.088.117-.183.176-.264.036-.036.679-.54.884-.774.197-.227.416-.336.636-.461.445-.241.891-.511 1.352-.686a.63.63 0 0 1 .328-.052c.395.03.753-.095 1.089-.292.059-.029.117-.044.146-.161.052-.197.987-.606 1.14-.54.366.087.709.102 1.067.153.052.015.088-.037.168.073.19.256.271.183.373.183.146 0 .292 0 .453.051.081.022.198.146.307.241.095.08.205.46.197.504-.014.139.095.293.161.446.022.051.051.117.066.161.029.08-.526 1.125-.614 1.176 0 .066-1.14.6-1.257.695-.058.051-.153 0-.234-.015-.036 0-.942.395-.986.387-.212 0-.387.132-.651-.058-.051-.037-.087-.015-.124 0-.336.095-.701.066-1.059.073-.183 0-.351.073-.534.073-.029 0-.073-.022-.109-.037-.044-.014-.095-.036-.132-.029-.424.044-.862.015-1.286.066-.102 0-.614-.168-.724-.146-.065 0-.314-.19-.365-.154zM292.022 213.801c-.168 0-.131-.219.007-.57.044-.11.264-.395.322-.409.117-.037.241-.081.343-.095.059 0 .797.219 1.06.27.256.051.475.161.68.27.431.227.862.453 1.271.709a.9.9 0 0 1 .234.219c.227.315.526.519.862.68.059.029.103.073.198.044.161-.051 1.008.475 1.074.599.175.292.395.548.585.819.029.036.087.043.065.138-.058.234.052.256.125.329.102.095.19.198.263.336.036.066.007.212 0 .337-.008.109-.249.372-.285.394-.117.051-.176.212-.256.336l-.088.125c-.058.073-1.052.08-1.118.021-.007 0-.27-.146-.548-.292a10 10 0 0 0-.628-.314c-.066-.022-.095-.11-.125-.175-.014-.03-.862-.439-.884-.468-.139-.132-.336-.19-.38-.446-.007-.051-.044-.066-.08-.088-.278-.175-.497-.423-.738-.657-.117-.117-.271-.198-.402-.3-.022-.015-.029-.058-.051-.088-.022-.036-.037-.08-.066-.102-.322-.234-.57-.563-.921-.753-.08-.043-.307-.467-.409-.511-.051-.029-.051-.351-.117-.351zM195.904 270.81c-.073.153-.256-.052-.497-.439-.08-.124-.227-.519-.219-.592.014-.139.036-.278.066-.394.021-.059.511-.614.665-.841a1.4 1.4 0 0 1 .518-.46c.388-.212.768-.446 1.162-.665a.5.5 0 0 1 .293-.059c.372.03.672-.117.964-.292.051-.029.11-.037.117-.153.022-.19.855-.556.994-.527.343.088.65.059.994.139.051.015.08-.036.161.066.19.248.255.175.35.168.132 0 .271 0 .424.051.073.022.19.154.293.249.095.087.204.467.204.519 0 .138.102.299.168.453l.066.16c.029.088-.365 1.082-.431 1.126 0 .058-.906.628-1.001.716-.051.051-.132 0-.205-.015-.036 0-.745.497-.775.505-.175.029-.299.19-.562 0-.051-.037-.081-.015-.11 0-.278.116-.599.109-.913.138-.161.015-.293.088-.446.125-.029 0-.066-.015-.095-.022-.044-.008-.088-.03-.117-.015-.343.124-.731.124-1.06.27-.08.03-.555-.102-.635-.051-.052.022-.337-.226-.366-.168zM168.528 252.998c-.161.037-.007-.197.314-.592.103-.124.461-.453.534-.489a4 4 0 0 1 .358-.146c.058-.015.57.131.76.168a.8.8 0 0 1 .424.219c.234.204.482.387.723.584.051.044.081.11.095.19.037.285.197.454.395.585.036.022.051.059.139.029.153-.058.606.388.613.49.015.263.081.482.117.723 0 .037.052.03-.007.125-.146.219-.066.233-.036.292.043.08.073.168.073.292 0 .059-.081.19-.139.3-.051.102-.351.351-.388.373-.116.058-.226.204-.343.314-.037.036-.095.087-.124.117-.073.065-.899.146-.928.102 0 0-.168-.102-.336-.219a4 4 0 0 0-.395-.234c-.044-.015-.037-.088-.037-.146 0-.029-.54-.322-.555-.344-.058-.109-.212-.139-.132-.372.015-.044-.007-.059-.029-.073-.168-.132-.241-.344-.336-.541-.051-.103-.139-.161-.205-.249-.014-.014 0-.051 0-.073 0-.029 0-.066-.014-.087-.176-.176-.256-.454-.482-.585-.052-.029-.059-.409-.125-.439-.036-.014.132-.343.066-.328zM329.628 297.239c-.022.139-.205-.014-.483-.328-.087-.103-.292-.439-.299-.505a2 2 0 0 1-.015-.35c0-.059.336-.578.438-.782.103-.198.242-.329.38-.446.293-.241.622-.439.936-.636a.4.4 0 0 1 .248-.058c.322.014.578-.11.811-.278.037-.029.088-.037.095-.139.008-.168.717-.511.834-.489.292.058.562.08.84.124.036 0 .066-.037.131.058.154.219.205.154.285.146.11-.007.22 0 .344.052.058.021.153.153.234.248.073.088.161.475.161.519-.008.131.08.299.131.453.015.051.037.124.051.161.022.102-.307.899-.358.906 0 0-.183.109-.365.226-.183.117-.373.234-.402.271-.037.036-.102 0-.161-.022-.029-.007-.548.373-.577.38-.132.014-.219.139-.424-.007-.044-.03-.059-.008-.088 0-.197.109-.438.116-.672.153-.117.022-.212.095-.322.132-.022.007-.051-.015-.08-.015s-.066-.015-.088 0c-.241.139-.562.117-.782.292-.051.037-.445-.029-.497.022-.029.029-.299-.161-.314-.102zM249.801 293.344c-.161-.022-.059-.255.175-.592.073-.109.373-.358.438-.372.132-.022.264-.044.373-.044.066 0 .731.336.987.431.241.095.431.227.614.373l.555.446.511.475c.074.073.132.16.169.27.124.365.358.628.65.848.051.036.08.087.183.073.175-.03.869.643.891.789.066.351.19.658.285.986.015.044.073.059.015.161-.132.241-.037.285.014.366.066.117.125.241.147.402.014.08-.052.219-.095.343-.037.117-.344.343-.395.351-.132.036-.234.19-.344.299a.8.8 0 0 1-.124.11c-.073.058-1.081-.073-1.132-.139-.008 0-.234-.183-.475-.365-.242-.183-.505-.366-.556-.402-.058-.037-.058-.124-.073-.205-.007-.036-.723-.592-.738-.628-.095-.161-.278-.249-.234-.534.007-.058-.022-.08-.051-.102-.227-.227-.358-.526-.519-.811-.08-.146-.204-.249-.307-.38-.022-.022-.014-.066-.022-.102-.007-.044-.007-.088-.029-.117-.234-.3-.38-.687-.665-.95-.058-.066-.153-.548-.234-.607-.044-.036.059-.373-.007-.387zM329.686 256.579c.014.161-.19-.036-.534-.431-.109-.124-.394-.541-.416-.614a4 4 0 0 1-.103-.387c-.014-.066.212-.555.285-.745a.8.8 0 0 1 .3-.388c.249-.19.49-.409.753-.592a.3.3 0 0 1 .212-.051c.285.037.489-.08.679-.241.03-.029.073-.029.066-.139-.015-.175.577-.489.68-.453.263.08.504.117.752.205.037.007.052-.037.117.065.154.242.198.176.263.176.095 0 .19.014.3.073.058.029.146.161.219.27.073.095.176.49.183.534 0 .131.095.307.153.467.015.052.044.125.059.169.022.095-.154.92-.19.942 0 0-.132.117-.263.241-.132.117-.271.227-.293.271-.021.036-.08-.008-.131-.037-.029-.014-.395.373-.417.373-.109.007-.153.139-.358-.037-.036-.036-.051-.014-.073 0-.146.095-.358.081-.548.103-.095.007-.168.073-.256.109-.014 0-.043-.014-.065-.022-.03 0-.066-.022-.081-.014-.182.109-.446.109-.592.292-.036.037-.38-.051-.416 0-.022.029-.307-.205-.3-.139zM241.422 222.535c-.116-.022.022-.175.285-.402.081-.073.366-.241.417-.248a2 2 0 0 1 .292-.03c.044 0 .497.22.68.271s.263.161.343.27l.512.673a.3.3 0 0 1 .058.182c0 .249.117.431.271.585.029.029.036.066.117.051.131-.015.467.46.46.548-.015.227.015.431.015.643 0 .029.044.037-.022.11-.146.153-.088.182-.066.241.022.08.037.161.022.27-.007.051-.095.146-.154.234-.058.073-.343.227-.38.234-.102.022-.219.124-.328.197-.037.022-.088.059-.117.073-.073.044-.768-.073-.79-.117l-.248-.263a4 4 0 0 0-.292-.292c-.037-.022-.015-.088-.008-.131 0-.022-.402-.402-.409-.424-.036-.11-.153-.168-.058-.358.022-.037 0-.052-.015-.066-.117-.154-.153-.351-.212-.541-.029-.095-.095-.168-.146-.256-.007-.014 0-.044 0-.065 0-.03.007-.059 0-.074-.124-.197-.183-.431-.322-.613-.029-.044.044-.388 0-.432-.021-.029.147-.263.103-.27zM49.86 150.939c-.204.073-.277-.197-.27-.672 0-.153.14-.585.198-.628a2.5 2.5 0 0 1 .365-.242c.073-.029 1.008-.014 1.323-.051.307-.022.599.015.891.066a25 25 0 0 0 1.783.219q.2.024.388.103c.438.19.899.233 1.359.219.073 0 .153.014.234-.059.131-.109 1.359-.102 1.52-.051.394.146.804.219 1.205.322.059.014.117-.022.176.073.131.212.256.161.38.175.175.015.35.029.533.088.088.029.183.146.278.241.088.08.073.417.051.453-.073.11.008.263.03.395 0 .044.014.109.014.146 0 .088-1.016.723-1.14.716-.015 0-.41.059-.833.117-.417.051-.848.102-.95.117-.095.022-.19-.037-.278-.066-.044 0-1.315.102-1.366.088-.263-.037-.526.014-.775-.197-.051-.044-.102-.037-.153-.037-.453-.015-.892-.146-1.323-.256-.227-.051-.453-.073-.68-.109-.044 0-.073-.044-.117-.059-.05-.022-.095-.058-.146-.066-.533-.08-1.045-.277-1.586-.328-.124-.008-.65-.359-.796-.373-.08 0-.256-.373-.336-.344zM56.658 126.476c-.255-.168-.117-.497.242-.921.117-.139.555-.373.657-.336.198.058.388.124.556.212.095.051 1.081 1.198 1.447 1.563.35.359.628.768.884 1.177.54.833 1.067 1.673 1.564 2.521.11.19.197.395.255.607.212.745.578 1.403 1.002 2.024.073.102.117.226.263.278.24.095 1.271 1.856 1.33 2.126.16.658.365 1.301.548 1.951.029.095.11.161.044.293-.147.307-.008.46.073.65.11.263.212.526.263.818.029.147-.044.344-.088.519-.036.161-.431.307-.497.293-.175-.052-.3.138-.438.233-.052.03-.11.074-.154.088-.095.037-1.512-1.023-1.6-1.184a378 378 0 0 0-1.542-2.207c-.088-.109-.102-.263-.132-.409-.014-.066-1.118-1.622-1.147-1.688-.16-.358-.431-.658-.41-1.118 0-.088-.043-.153-.087-.219-.358-.578-.592-1.213-.862-1.834-.14-.315-.33-.607-.49-.907-.03-.051-.03-.124-.044-.19-.022-.08-.029-.16-.065-.233-.395-.717-.658-1.499-1.111-2.178-.102-.161-.292-1.082-.417-1.257-.073-.102.059-.621-.044-.687zM319.311 83.971c-.226.124-.438-.095-.636-.497-.065-.124-.073-.519-.014-.584.124-.117.248-.242.38-.33.08-.05 1.352-.394 1.783-.54.416-.146.84-.205 1.264-.241l2.587-.278c.19-.022.387-.014.577.015.665.102 1.323.058 1.981-.044.109-.015.219-.015.321-.102.168-.154 1.951-.322 2.185-.27.585.116 1.162.175 1.747.27.08.014.168-.03.248.073.19.24.358.182.541.197.248.022.497.051.745.124.125.037.256.176.38.278.117.095.073.468.037.511-.102.125 0 .293.015.446 0 .051.014.117.014.161-.007.08-1.381.877-1.542.855-.022 0-.541.066-1.089.139s-1.125.146-1.235.175c-.124.03-.248-.022-.372-.058-.059-.015-1.703.234-1.769.226-.343-.014-.687.08-1.037-.117-.066-.036-.139-.022-.205-.022-.585.052-1.184-.007-1.776-.043-.299-.015-.599.022-.906.029-.051 0-.11-.03-.168-.037-.066-.014-.139-.036-.205-.036-.709.036-1.432-.022-2.141.058-.161.015-.957-.182-1.147-.153-.102.014-.468-.263-.563-.212zM313.626 74.794c.073.219-.241.285-.775.277-.168 0-.643-.153-.694-.226-.102-.146-.204-.285-.27-.424-.037-.08-.037-1.206-.059-1.608a2.8 2.8 0 0 1 .161-1.089c.219-.701.439-1.425.687-2.112.059-.153.139-.292.249-.423.38-.431.591-.928.723-1.433.022-.087.073-.16 0-.277-.095-.19.351-1.498.475-1.645.322-.358.585-.745.877-1.132.044-.059.022-.132.161-.154.321-.044.314-.19.38-.321.087-.183.19-.358.336-.52.073-.08.263-.123.416-.182.139-.05.548.117.585.161.11.124.329.117.504.16.059.015.139.037.183.052.102.036.482 1.388.431 1.513 0 .014-.088.453-.175.92-.088.46-.212.943-.227 1.045-.014.11-.117.183-.19.263-.029.044-.373 1.433-.409 1.477-.154.248-.175.555-.519.716-.066.029-.08.087-.102.139-.168.453-.453.84-.694 1.242-.125.205-.19.431-.285.65-.015.037-.066.066-.095.103-.037.043-.088.08-.11.131-.19.526-.49 1.016-.629 1.571-.029.124-.511.629-.526.782-.014.088-.453.241-.416.33zM293.082 279.25c-1.023 2.317-2.266 4.531-3.786 6.57-.548.745-1.088 1.505-1.724 2.192-1.14 1.199-2.426 2.28-3.895 3.128-1.462.84-3.121 1.454-4.86 1.52-.738.029-1.6.036-2.448-.314-.862-.322-1.513-1.111-1.827-1.878-.424-1.002-.446-2.01-.329-2.945a9 9 0 0 1 .79-2.646c.299-.497.336-.394.453.117.102.504.299 1.403.445 2.317.059.402.132.796.249 1.147.051.183.124.336.197.49.044.16.139.285.197.423.161.227.307.417.468.483a.2.2 0 0 0 .117.051c.037.022.051.058.095.073.088.022.139.088.256.102.358.117 1.206.11 1.914 0 .724-.139 1.469-.314 2.207-.628.885-.366 1.732-.928 2.492-1.615.76-.694 1.462-1.469 2.127-2.273 1.461-1.776 2.711-3.778 3.727-5.904a33 33 0 0 0 1.615-4.049c.657-2.105 1.191-4.275 1.344-6.46.132-1.695-.029-3.369-.241-4.998-.044-.358-.095-.709-.124-1.075-.08-.672-.08-1.125-.022-1.454.095-.343.241-.563.46-.774.103-.095.19-.212.285-.278.161-.11.344-.044.585.168.227.219.563.577.738 1.103.307.768.563 1.572.775 2.397l.197 1.257.11 1.279c.117 1.71-.051 3.442-.344 5.145-.424 2.528-1.213 4.984-2.17 7.351l-.066-.022z"/></svg>