<svg xmlns="http://www.w3.org/2000/svg" width="135" height="111" fill="none">
  <path fill="#231f20" d="M42.117 98.087s-12.488 2.288-16.021 8.981c0 0-.617.101-1.04 2.499l9.713.044s-1.093-1.145-.942-2.466c.15-1.322.928-3.957.928-3.957l-3.891 2.501s-.194-.5 1.248-1.84c1.067-.994 3.623-1.297 3.623-1.297l6.382-1.232v-3.236z"/>
  <path fill="#231f20" d="M85.582 90.249s-1.115.675-1.24.937c-.126.262 5.54.48 5.54.48l1.243-1.144-4.315-.142-1.228-.128zm5.544 1.614s.401-.06.197 1.019c-.208 1.078-.197 7.64-.197 7.64l-1.256-.251.126-8.427 1.13-1.136v1.158zm-.001 15.912c.145.227 0 2.294 0 2.294l-1.256-.065-.01-2.229z" opacity=".7"/>
  <path fill="#231f20" d="M100.309 109.359s-.003 1.919.366 1.409c.06-.082 1.245-1.09.393-1.409-.852-.317-.759 0-.759 0m-53.201-1.174c.166-.038.284-.079.437-.128.144-.052.303-.112.453-.211.11-.071.221-.147.3-.245.15-.178.238-.399.276-.623a1 1 0 0 0-.027-.437l-.014-.022q-.016-.027-.038-.054a.1.1 0 0 0-.022-.025l-.01-.011h.013l.057-.019.052-.022c.022-.014.017-.008.06-.035a.8.8 0 0 0 .281-.467c.011-.06-.008-.126-.021-.183-.028-.074-.05-.06-.118-.017a.5.5 0 0 1-.147.063.5.5 0 0 0-.134.066.5.5 0 0 1-.17.087c-.013.005-.021.016-.035.019l-.046.03c-.025.006-.063.006-.096.008l-.1.006h-.413l.123.278q.06.121.123.243l.07.145c.025.077.025.06.036.079.014.025.03.055.038.09a.35.35 0 0 1-.038.257.9.9 0 0 1-.177.213c-.14.139-.375.219-.64.284l-.122.03c-.039.006-.066.017-.104.019a2 2 0 0 1-.238.017 5 5 0 0 1-.762-.028c-.196-.024-.387-.09-.581-.139-.044-.011-.085-.027-.129-.035-.163-.014-.223.027-.27.196l-.03.107a.274.274 0 0 0 .145.295c.333.161.71.196 1.095.218.292.011.562.016.92-.035v-.017z"/>
  <path fill="#231f20" d="M41.082 109.048q.669.128 1.358.191c.166.013.333.043.502.049a8 8 0 0 0 1.772-.15c.26-.058.522-.118.779-.227.163-.074.338-.167.461-.347a.54.54 0 0 0 .104-.317.4.4 0 0 0-.036-.161.4.4 0 0 0-.07-.134c-.075-.098-.102-.051-.15.052a.5.5 0 0 1-.113.161c-.065.044-.112.055-.134.08a1.3 1.3 0 0 1-.254.164 2.4 2.4 0 0 1-.396.147 8 8 0 0 1-.917.188c-.385.06-.787.022-1.18-.013a15 15 0 0 1-1.31-.183q-.406-.073-.806-.167a20 20 0 0 1-1.215-.306c-.312-.092-.607-.215-.92-.297-.069-.019-.135-.041-.206-.058-.262-.043-.357-.016-.436.082-.02.022-.041.044-.052.069-.041.076.046.174.22.267.13.071.263.131.397.189.136.057.268.122.41.166.28.09.57.175.862.251.435.118.88.219 1.328.314v-.013zm8.603-21.066h.03l.009.03v.011l-.003.066-.008.136-.02.279c-.024.371-.046.748-.057 1.125-.008.275-.033.551-.022.833.009.245.025.494.066.75.005.063.025.129.038.194.011.055.03.156.071.246l.057.131.033.063.009.016c.019-.01.01.006.019.006l.021.027c.066.069.164.088.257.11.208.035.309.035.437.04.123.006.246.003.369 0 .243-.002.483-.013.723-.021.426-.02.855-.028 1.276-.039.54-.01 1.087-.043 1.619-.204.164-.115.136-.071-.01-.148-.077-.044-.178-.076-.304-.123a3 3 0 0 0-.2-.063c-.035-.01-.07-.016-.109-.027l-.114-.008-.413-.02-.205-.01-.204.005-.822.025c-.546.016-1.098.038-1.628.044h-.188c-.027-.003-.055 0-.077-.017-.01-.024-.019-.04-.027-.076-.01-.063-.033-.142-.038-.219a7 7 0 0 1-.038-.98c0-.366.016-.735.038-1.106l.035-.557.02-.281.01-.142c.008-.071.003-.142.006-.213.008-.09-.014-.164-.028-.24l-.016-.055c-.016-.011-.033-.025-.05-.033l-.097-.057a1.6 1.6 0 0 0-.246-.069l-.12-.022-.088-.013q-.347-.052-.69-.096a45 45 0 0 0-2.095-.196c-.54-.041-1.07-.115-1.617-.118-.12 0-.237-.005-.363.006-.456.035-.609.125-.66.3-.014.041-.03.082-.034.117 0 .126.178.17.478.178.904.05 1.89.11 2.879.197q.55.048 1.1.109l.549.068.445.066.006-.014z"/>
  <path fill="#231f20" d="m51.809 86.41-1.448.95.115 4.137h1.212zm-.334-.64-1.114 1.205-7.565.339s.697-1.538 1.655-1.797c.959-.257 7.024.251 7.024.251z" opacity=".7"/>
  <path fill="#231f20" d="M87.654 108.22c-.278 0-.56.003-.84-.011-.105-.003-.203-.027-.307-.035a11 11 0 0 1-1.081-.11 3 3 0 0 1-.462-.123c-.093-.035-.188-.073-.286-.103a1 1 0 0 0-.142-.049.3.3 0 0 0-.159-.02c-.073.006-.09.052-.079.151.005.109.055.256.167.325q.296.177.617.273.32.107.655.125c.268.014.53.09.797.12q.442.049.883.06h.543c.276.003.549-.01.822-.016.213-.003.423.027.653.014.052-.006.098.005.155-.011a.5.5 0 0 0 .126-.044c.033-.019.057-.03.08-.071a.24.24 0 0 0 .004-.202q-.014-.045-.032-.079c-.025-.038-.066-.06-.112-.096a1 1 0 0 1-.069-.057c-.013-.014-.013-.019-.024-.022a.1.1 0 0 0-.038-.008c-.293-.033-.672-.025-1.038-.025-.276.003-.557.009-.838-.002v.016zm-1.662-2.662a9 9 0 0 1-.838-.063c-.101-.014-.2-.044-.303-.057-.36-.05-.716-.121-1.07-.202-.159-.039-.304-.107-.451-.162-.186-.073-.388-.136-.53-.273-.041-.046-.044-.043-.038.019.008.058.04.189.128.298.156.186.33.355.54.44.206.095.413.18.632.221.262.046.521.145.783.199q.436.09.88.14.27.028.546.049c.276.022.554.019.83.024.216.006.429.041.65.041.049 0 .098.008.147 0 .18-.038.227-.109.227-.265v-.106c-.014-.115-.104-.197-.224-.227-.18-.052-.35-.043-.53-.057-.18-.006-.36-.008-.543-.014-.273-.011-.552 0-.833-.024v.013zm3.198-13.075c.088.249.132.59.167.91q.048.487.071.988c.011.243 0 .486.008.73.028.856.03 1.72.03 2.582 0 .383-.016.768-.038 1.147-.016.243-.033.49-.035.732 0 .123-.008.246.005.369q.026.184.055.371c.027.153.049.137.12.011.049-.082.1-.172.153-.257.03-.054.07-.112.095-.174a2 2 0 0 0 .05-.2c.09-.497.109-.996.142-1.496q.02-.377.024-.754-.001-.377-.025-.759c-.03-.606.006-1.234-.01-1.854-.022-.683-.05-1.366-.161-2.06-.044-.218-.072-.422-.208-.671q-.033-.049-.071-.093c-.025-.024-.055-.046-.08-.065a.8.8 0 0 0-.152-.104c-.101-.063-.205-.107-.306-.15a7.7 7.7 0 0 0-1.887-.456c-.494-.06-.986-.126-1.494-.08-.112.006-.224.028-.336.05-.417.114-.51.278-.543.398-.008.03-.02.06-.02.085.006.085.176.063.449.066a10 10 0 0 1 2.498.18c.317.046.637.112.926.22.074.028.148.053.213.083q.106.044.189.093c.062.03.095.068.114.076a.3.3 0 0 1 .041.093h.014z"/>
  <path fill="#231f20" d="m89.657 109.108-.063-.303c-.005-.036 0-.074-.011-.109a4 4 0 0 0-.104-.383c-.016-.057-.022-.112-.03-.169-.008-.071-.013-.145-.046-.213-.011-.022-.044-.016-.082.005-.036.022-.085.058-.096.099-.035.147-.07.292-.049.437.022.087 0 .177.003.264.003.096.008.197.01.293 0 .06.006.12.006.18 0 .09.006.183-.01.273-.012.071-.069.134-.085.202q-.01.022-.017.044c-.01.057.036.079.164.104l.085.016c.09.014.188 0 .232-.041.137-.117.14-.254.134-.393-.003-.101-.022-.205-.033-.309h-.011zM72.508 94.85l-.069 6.158s-3.691-.942-4.142.265c-.45 1.207 0 8.086 0 8.086l-13.763.21v-6.207s4.347.357 4.315-1.153c-.036-1.51 0-7.758 0-7.758s1.49-.368 2.51.052c1.015.42 1.165 2.654 3.24 2.654 4.87 0 7.486-2.845 7.486-2.845l.423.54zm28.623 9.725s-.664-.825.505-.59c3.567.713 5.191 2.408 4.061 2.042-1.131-.366-4.468-1.381-4.315-.625s.8 3.583-.254 4.842-2.13.598-2.13.598-.12.928 1.674 1.63c1.322.519 7.458 3.741 11.243 1.431 1.808-1.106 2.703-2.223 1.928-4.334-2.286-6.207-17.805-13.26-22.455-13.26v2.91s1.319-.849 4.48 2.781c3.163 3.631 5.266 2.575 5.266 2.575z"/>
  <path fill="#231f20" d="M117.876 110.678c.521-.033 1.048-.06 1.575-.071.192-.003.386.011.577 0l2.048-.087c.303-.017.606-.009.906-.009.194 0 .385.011.579.009q.292-.015.579-.066c.12-.022.104-.101.003-.197a1.1 1.1 0 0 0-.505-.265c-.781-.076-1.56-.161-2.354-.106-.475.027-.967-.038-1.45-.055a36 36 0 0 0-1.609.006l-.991.03c-.5.016-1.002.054-1.499.065-.385.003-.767-.027-1.152-.041-.085 0-.167-.01-.254-.008-.314.011-.41.079-.456.322-.011.055-.025.112-.031.167-.013.186.129.328.358.363.683.101 1.385.088 2.092.044.524-.027 1.049-.066 1.576-.082v-.022z"/>
  <path fill="#231f20" d="M107.289 102.975a32 32 0 0 1 2.791 2.108c.882.756 1.726 1.562 2.425 2.468.508.667.909 1.379 1.1 2.166.186.691.249 1.414.041 2.067-.196.653-.669 1.199-1.272 1.573-.604.38-1.314.606-2.037.751-.727.142-1.472.202-2.221.213-1.327.014-2.657-.21-3.916-.604a17.6 17.6 0 0 1-2.362-.944c-.385-.181-.756-.385-1.136-.585a13 13 0 0 1-.565-.3 14 14 0 0 1-.557-.317c-.462-.267-.434-.188-.11.142a11 11 0 0 0 1.211 1.054c.188.131.398.251.617.377a14.1 14.1 0 0 0 5.101 1.677c.898.117 1.808.125 2.709.057.901-.071 1.81-.232 2.679-.579a4.7 4.7 0 0 0 1.461-.871c.229-.183.409-.421.592-.655l.221-.391c.077-.128.11-.278.164-.418.18-.568.221-1.174.131-1.742-.024-.289-.101-.565-.172-.838l-.054-.208-.077-.202c-.055-.134-.095-.273-.164-.399-.543-1.136-1.351-2.064-2.206-2.916a27 27 0 0 0-2.747-2.335 47 47 0 0 0-3.676-2.449 61 61 0 0 0-5.898-3.113c-1.56-.721-3.105-1.396-4.714-1.964-.352-.125-.704-.24-1.065-.352-1.349-.393-1.808-.423-2.13-.35-.074.02-.17.03-.213.055-.076.041.02.115.254.216.235.095.61.226 1.09.38a58 58 0 0 1 4.298 1.638 78 78 0 0 1 4.287 2.01c2.1 1.076 4.159 2.255 6.104 3.593l.011-.013zM56.136 79.127c-3.302-.516-9.569-4.29-5.814-9.53 1.865-2.606 6.193-2.16 6.193-2.16s2.868-3.586 8.217-.86c2.868 1.46 2.756 2.615 2.756 2.615s3.754-1.392 5.742-.975c1.988.418 5.172 1.912 6.292 3.583 1.117 1.671 2.518 3.905 2.365 5.907-.153 2.001-1.53 4.533-1.53 4.533s-.95-1.491-2.255-1.5-2.46.99-2.398 1.374c.06.385-1.166 5.262-2.4 5.05-1.234-.214-.81-1.847-.628-2.475s.23-1.846.216-2.577c-.014-.732-1.925-2.141-1.925-3.018v-1.958s-2.808 1.16-5.132 1.958c-3.722 1.278-9.696.027-9.696.027zm34.752 29.407q.02.2.03.404c0 .05-.017.099-.014.148.02.18.047.363.057.543.003.079.006.161-.002.241-.003.101-.047.202.035.308.03.033.101.033.202.014.112-.019.235-.058.254-.109a2 2 0 0 0 .093-.284.8.8 0 0 0-.014-.304c-.027-.125.028-.245.036-.374q.006-.21.005-.423v-.262c0-.134-.01-.268.003-.399.008-.104.063-.205.088-.314.002-.024.013-.046.01-.071 0-.087-.087-.109-.245-.109h-.11a.5.5 0 0 0-.297.109l-.09.126c-.02.041-.028.082-.039.123a1 1 0 0 0-.021.248c0 .126.008.254.008.388h.016zm-6.868-5.18c-.216.022-.407.049-.647.088-.339.052-.713.153-.937.3l-.082.057-.062.066a.5.5 0 0 0-.099.15 2 2 0 0 0-.046.194c.002.071.027.128.046.183.068.208.322.391.653.527q.171.077.363.142c.082.03.15.049.224.074q.22.07.44.125c1.04.249 2.08.391 3.12.536l1.383.204c.292.05.59.082.884.11q.444.051.899-.009c.188-.024.164-.046.016-.133-.073-.041-.177-.112-.306-.181-.062-.032-.13-.076-.204-.106a2 2 0 0 0-.238-.066c-.587-.131-1.18-.215-1.775-.305-.593-.088-1.188-.172-1.789-.263-.715-.103-1.447-.289-2.14-.491l-.394-.123c-.068-.027-.153-.052-.21-.117-.033-.036-.014-.082.019-.104.03-.025.068-.038.104-.052.084-.027.136-.041.3-.06.483-.049.983-.079 1.48-.088.757-.01 1.521 0 2.272.058.585.046 1.153.142 1.723.235q.188.033.374.054c.47.055.623.03.751-.117.03-.033.066-.066.085-.098.068-.115-.11-.257-.456-.358a9 9 0 0 0-1.592-.314 23 23 0 0 0-1.655-.142 23 23 0 0 0-2.507 0v.019z"/>
  <path fill="#231f20" d="M87.72 108.319c.592-.044 1.18-.101 1.767-.161l.879-.093.437-.047.205-.021c.027 0 .043-.011.057.002h.003l.022.014.07.044.14.084c.093.06.188.11.281.164a7 7 0 0 0 .579.303 10 10 0 0 0 4.522.967 8.4 8.4 0 0 0 2.032-.287c.221-.054.398-.112.592-.12.194-.011.39.011.59.055.2.041.396.112.598.169l.62.175c.262.063.232.033.041-.096l-.388-.278c-.082-.058-.169-.126-.27-.183a2.8 2.8 0 0 0-1.046-.314 2 2 0 0 0-.38.005c-.125.011-.264.044-.357.06-.208.036-.41.085-.62.104l-.311.041-.312.022a9.7 9.7 0 0 1-2.51-.088 8 8 0 0 1-1.493-.404 12 12 0 0 1-1.428-.658l-.33-.183-.364-.224c-.044-.011-.079-.052-.13-.041-.044-.008-.091-.019-.135-.022l-.13.009-.088.008-.347.033-.69.068-1.377.123c-.724.057-1.447.104-2.166.112h-.407l-.327-.011c-.15-.011-.309-.017-.456-.077-.036-.016-.071-.041-.082-.079-.014-.038.008-.076.03-.106a.6.6 0 0 1 .186-.137q.102-.053.213-.095l.109-.041.185-.063c.795-.251 1.617-.383 2.44-.503l.54-.065c.677-.071.87-.205 1.007-.372.03-.038.074-.076.093-.112.03-.06-.024-.109-.158-.158a1.8 1.8 0 0 0-.604-.096c-.772.033-1.55.14-2.334.304-.394.082-.787.18-1.186.305l-.15.05-.216.076c-.177.074-.37.145-.524.238-.333.174-.532.385-.609.598-.019.082-.052.169-.027.273l.008.079v.038l.014.036c.013.052.043.084.065.123.066.15.21.259.415.349.418.164 1.23.18 1.398.18.615.006 1.216-.024 1.814-.062v-.02zm-43.754.155c-.795.008-1.622-.093-2.439-.216-.3-.046-.595-.114-.893-.166l-1.59-.282a26 26 0 0 0-.8-.136c-.272-.041-.532-.087-.838-.101-.035 0-.081.003-.123.005-.035.006-.062.011-.092.014l-.18.03-.358.063a7 7 0 0 0-.707.156c-.298.079-.599.158-.888.275-.29.115-.563.268-.828.426-.163.104-.139.093.025.069.082-.014.2-.025.344-.033a5 5 0 0 0 .48-.038c.307-.036.599-.112.902-.148l.45-.063.448-.082.451-.073c.04-.014.218.005.355.024l.912.14c.74.109 1.5.308 2.261.445.836.15 1.68.278 2.54.333.53.027 1.067.043 1.627-.093a1.7 1.7 0 0 0 .32-.117.7.7 0 0 0 .158-.099.6.6 0 0 0 .153-.147c.022-.028.047-.055.066-.082l.043-.096q.023-.048.041-.095l.02-.104a.6.6 0 0 0-.134-.388c-.039-.057-.096-.106-.142-.153q-.069-.058-.137-.104a2 2 0 0 0-.276-.163 5 5 0 0 0-.562-.243 15 15 0 0 0-1.762-.533c-.13-.03-.26-.063-.396-.085a4 4 0 0 0-.32-.038c-.09 0-.163.019-.223.033a.47.47 0 0 0-.248.139c-.025.028-.058.055-.074.082-.047.085.145.175.48.311.508.123 1.03.263 1.543.424q.388.125.751.281c.24.104.478.216.661.33.03.022.066.044.087.063.033.025.017.011.022.017v.002l-.005.003a.2.2 0 0 1-.071.041c-.115.057-.29.098-.473.12a5 5 0 0 1-.576.033v.016z"/>
  <path fill="#231f20" d="M45.853 107.655c.368.021.74.038 1.127.019a4 4 0 0 0 .607-.079l.164-.05a1 1 0 0 0 .084-.035l.112-.052c.069-.041.129-.093.189-.142.046-.06.098-.12.133-.186l.055-.112a.74.74 0 0 0-.074-.584 1.1 1.1 0 0 0-.366-.374 3.5 3.5 0 0 0-.69-.339 7 7 0 0 0-.694-.213 17 17 0 0 0-1.393-.267 18 18 0 0 0-1.237-.162 6 6 0 0 0-.797-.046 3.8 3.8 0 0 0-.8.082c-.164.035-.14.055 0 .112.09.038.185.082.28.123.116.057.25.109.397.136.516.126 1.035.194 1.548.303q.78.11 1.554.257.465.092.907.262c.147.055.284.123.412.191q.095.055.177.112c.03.02.05.039.074.058.025.019.022.022.036.033.03.032.054.081.038.128-.016.052-.052.085-.115.112a1.5 1.5 0 0 1-.357.085c-.268.032-.555.03-.841.016-.437-.019-.88-.063-1.322-.112l-2.021-.235c-.522-.06-1.035-.153-1.57-.177a2 2 0 0 0-.355-.006c-.448.041-.59.142-.645.314-.013.041-.03.079-.035.118-.006.128.175.18.467.202.437.054.885.071 1.352.125q.705.08 1.422.159c.716.084 1.44.172 2.182.235v-.017z"/>
  <path fill="#231f20" d="M46.574 106.265c.387.063.78.11 1.217.085q.165-.007.342-.044c.049-.013.158-.032.226-.071.074-.035.159-.062.213-.12a.77.77 0 0 0 .279-.368.68.68 0 0 0-.047-.451 1.5 1.5 0 0 0-.42-.47 3 3 0 0 0-.385-.243c-.92-.467-1.865-.732-2.818-.991q-.637-.169-1.273-.314c-.54-.12-1.1-.246-1.671-.164-.178.038-.15.047-.008.115.142.082.39.21.69.289 1.074.249 2.144.555 3.215.877.633.199 1.286.494 1.81.855a1 1 0 0 1 .101.076l.077.06a.3.3 0 0 1 .065.077c.044.062-.005.144-.07.172-.03.027-.233.054-.397.051a5 5 0 0 1-.538-.043c-.45-.055-.909-.142-1.368-.238l-2.094-.45c-.544-.115-1.076-.254-1.641-.317-.126-.014-.249-.03-.377-.03-.238.008-.399.038-.505.093a.44.44 0 0 0-.189.224c-.014.038-.035.076-.04.106-.009.055.037.093.122.134.085.035.21.093.358.098.893.09 1.865.303 2.856.527.737.167 1.483.347 2.261.489l.006-.016zm-12.065-6.873c-.492.25-.98.5-1.459.778l-.718.407-.704.434q-.26.159-.52.306c-.171.104-.338.218-.504.33-1.169.806-2.297 1.696-3.258 2.758q-.304.367-.62.727c-.194.251-.38.513-.568.764-.115.17-.21.35-.314.525l-.153.265c-.046.09-.082.188-.123.281-.076.191-.164.374-.221.571a5 5 0 0 0-.101.606c-.025.254.01.224.164.052.16-.172.437-.467.655-.841.369-.675.838-1.287 1.333-1.879.262-.287.51-.585.8-.852l.41-.426.436-.407c.689-.664 1.549-1.191 2.368-1.729.462-.284.923-.568 1.393-.841.478-.259.947-.535 1.433-.783.598-.301 1.191-.62 1.805-.89a45 45 0 0 1 2.802-1.208 40 40 0 0 1 2.22-.723c.164-.05.328-.09.492-.145.606-.202.78-.317.838-.574.014-.057.038-.114.038-.166.009-.167-.289-.23-.75-.112-.683.166-1.38.358-2.07.6q-1.043.353-2.076.782-.769.306-1.526.658c-.506.23-1.01.459-1.508.71l.008.019zm16.755-12.51q.09-.169.191-.333c.025-.038.063-.068.088-.106.09-.14.164-.298.257-.434.04-.063.092-.115.136-.172a.9.9 0 0 0 .148-.246c.01-.03-.017-.05-.066-.063-.05-.011-.126-.027-.18-.006a.9.9 0 0 0-.45.347c-.066.093-.173.156-.255.24q-.135.141-.257.293l-.152.186c-.08.092-.15.193-.238.278-.068.066-.164.106-.248.161-.02.011-.041.02-.058.036-.054.057-.022.112.112.232l.093.082c.11.087.221.133.295.123a.6.6 0 0 0 .399-.293c.068-.1.128-.21.196-.314z"/>
  <path fill="#231f20" d="m48.747 85.099-1.3.076c-.158.008-.316-.005-.475.005-.557.039-1.117.069-1.674.115a10 10 0 0 1-.742.014c-.317.01-.634-.003-.948.126-.098.035-.085.06 0 .125q.092.07.172.137c.035.027.074.06.115.081q.06.027.13.041c.162.028.323.063.484.08q.242.008.483.013c.323 0 .645 0 .97-.043.388-.05.792-.011 1.19-.02l1.311-.035.809-.024c.406-.009.816-.028 1.223-.017.314.005.623.055.937.082.068.005.136.02.204.022.257.01.339-.047.39-.24.012-.044.028-.088.034-.132.021-.144-.085-.273-.27-.316-.555-.123-1.14-.156-1.724-.148-.434.006-.874.028-1.31.041v.02z"/>
  <path fill="#231f20" d="M51.572 87.491c.019.254.04.508.054.762.006.093-.01.186 0 .279.038.327.077.655.09.983.006.144.003.292.003.437 0 .092-.01.185 0 .278q.023.14.055.284c.013.06.021.052.057.006.033-.047.117-.132.177-.233.082-.185.107-.374.145-.565.017-.191.022-.382.006-.576-.02-.232.03-.467.032-.704 0-.26-.013-.517-.021-.776l-.017-.475c-.005-.24-.022-.48-.008-.721.008-.186.057-.366.082-.549.003-.041.01-.08.01-.12.006-.077-.04-.126-.07-.161a.3.3 0 0 0-.145-.071l-.082-.022c-.087-.014-.172.046-.254.156-.057.081-.07.163-.103.248a3 3 0 0 0-.036.254c-.016.17-.02.341-.02.513 0 .257.02.514.025.77h.014zM97.513 104.1c1.005.548 2.103.819 3.151 1.024l.219.049c.024.005.049.013.052.043l.046.151c.019.084.046.166.063.254.144.628.221 1.299.237 1.963.011.666-.022 1.335-.213 1.953-.161.543-.448 1.092-.879 1.392-.278.197-.592.2-.825-.024s-.415-.563-.538-.921c-.079-.224-.125-.185-.152.033a1.9 1.9 0 0 0 .062.773c.02.055.038.112.063.172.033.055.06.115.107.167.142.193.36.387.65.456.286.073.587.011.813-.104.464-.232.759-.601.992-.978.48-.759.573-1.666.578-2.479 0-.497-.01-.997-.051-1.502a8 8 0 0 0-.091-.759 5 5 0 0 0-.185-.779c-.019-.06-.044-.12-.066-.18-.068-.207-.295-.273-.5-.319l-.39-.082q-.377-.078-.746-.167a10 10 0 0 1-1.433-.467c-.587-.248-1.142-.573-1.595-1.002-.333-.333-.666-.729-1.005-1.098-.338-.371-.685-.74-1.046-1.095-.562-.543-1.122-1.098-1.881-1.464-.17-.073-.342-.15-.538-.185-.363-.069-.631-.014-.792.06-.161.085-.23.177-.249.295-.01.052-.027.106-.019.153.011.073.088.106.197.112.11.005.254 0 .429.013.527.052 1.078.407 1.592.825.516.423 1.007.923 1.485 1.442q.537.597 1.073 1.199c.39.439.882.805 1.382 1.086l.011-.013z"/>
  <path fill="#231f20" d="m91.63 97.06-.047-1.634c-.006-.2.008-.398 0-.595l-.096-2.106c-.013-.31-.01-.625-.016-.933l-.017-.596a10 10 0 0 0-.021-.297c-.006-.099-.05-.197-.074-.295-.038-.123-.071-.104-.142 0l-.14.22a.8.8 0 0 0-.076.31c-.063.805-.038 1.608.011 2.422.035.486-.008.994-.005 1.49l.013 1.647.011 1.013c0 .511.016 1.027.008 1.535-.005.396-.052.784-.07 1.174-.003.088-.012.172-.009.257.006.161.014.268.052.341.05.074.104.115.177.148.033.014.066.035.096.041.052.013.096-.014.148-.074a.5.5 0 0 0 .12-.27q.042-.262.07-.527.02-.268.028-.538c.014-.36.01-.727.01-1.095l-.021-1.644h-.016zm-28.577-1.431c-.986-.76-1.699-1.904-2.253-3.103-.203-.44-.36-.903-.527-1.362-.59-1.622-.992-3.326-1.35-5.041a51 51 0 0 1-.398-2.302c-.175-.978-.311-1.986-.773-2.922-.183-.279-.188-.21-.188.065l-.014.557c.003.224-.027.495.02.773.065.495.111 1 .174 1.502l.243 1.507c.172 1.005.366 2.019.644 3.018.323 1.196.612 2.458 1.065 3.654.5 1.31 1.153 2.602 2.133 3.667.606.647 1.357 1.188 2.212 1.491a5.9 5.9 0 0 0 1.996.284 8 8 0 0 0 1.964-.29c.988-.256 1.93-.633 2.801-1.173q.29-.17.56-.377c.666-.527.792-.803.732-1.087-.014-.066-.019-.14-.046-.194-.047-.087-.153-.098-.3-.041-.148.057-.323.186-.552.35-1.314.993-2.955 1.739-4.654 1.916-.625.06-1.256.039-1.848-.106a4.1 4.1 0 0 1-1.625-.803l-.014.017zm16.215-13.627c.355.429.57.953.57 1.508 0 .202-.051.398-.095.595-.147.704-.62 1.36-1.272 1.758-.29.18-.631.279-.967.312-.44.03-.869-.02-1.352-.05-.15-.01-.153.036-.063.162.047.06.11.155.205.248.047.047.099.101.159.145s.13.074.202.104c.13.049.264.093.404.114.14.011.281.03.423.022a3.1 3.1 0 0 0 .847-.125 2.75 2.75 0 0 0 1.411-.931c.424-.522.811-1.126.92-1.817a3.2 3.2 0 0 0-.439-2.162 3.2 3.2 0 0 0-.415-.544l-.142-.133-.15-.102c-.099-.073-.208-.114-.312-.166-.641-.268-1.321-.3-1.98-.194-.505.082-1.04.251-1.447.666-.079.096-.183.178-.245.287-.123.202-.162.36-.142.472a.34.34 0 0 0 .152.254c.041.03.08.063.123.085.148.063.317-.057.456-.238.208-.27.44-.461.749-.587a2.4 2.4 0 0 1 1.037-.174c.541.019 1.13.194 1.347.51l.016-.01zm-15.164-17.05a8 8 0 0 0-2.354-.855q-.225-.042-.448-.093a6 6 0 0 0-.456-.044c-.267-.027-.538 0-.803.003a5.9 5.9 0 0 0-2.324.614c-.42.227-.832.503-1.152.882-.101.12-.194.254-.27.394-.063.147-.142.29-.167.448l-.052.232-.01.234c-.017.156.038.31.068.457.049.182.098.144.19-.009.085-.158.274-.404.378-.647.207-.434.51-.77.936-1.035a6 6 0 0 1 1.431-.628c.314-.09.645-.136.98-.128l.511.016q.256.034.505.06c.738.093 1.467.3 2.15.626.423.194.824.442 1.21.71.573.42 1.11.912 1.556 1.469.352.428.606.917.857 1.398.052.11.096.218.153.325.205.396.32.494.574.483.057-.002.117 0 .172-.008.18-.035.226-.268.123-.612-.33-1.005-.975-1.944-1.75-2.76a9 9 0 0 0-1.992-1.552l-.01.02z"/>
  <path fill="#231f20" d="M80.626 72.6a10 10 0 0 0-1.267-1.578 11 11 0 0 0-1.518-1.31c-.393-.29-.795-.566-1.218-.806-1.505-.82-3.192-1.32-4.907-1.339-.76-.01-1.53.066-2.261.282a6 6 0 0 0-1.358.562c-.106.063-.199.145-.297.219a2 2 0 0 0-.276.243l-.26.256c-.076.096-.158.183-.226.284-.158.263-.115.24.142.153.298-.103.707-.248 1.169-.412.767-.426 1.627-.628 2.501-.718a9.6 9.6 0 0 1 2.693.14c.54.108 1.078.289 1.6.513a14 14 0 0 1 1.505.81q.792.504 1.502 1.123.7.628 1.283 1.365a8.8 8.8 0 0 1 1.174 1.983c.224.538.388 1.1.5 1.674a7.5 7.5 0 0 1 .096 1.742c-.055.904-.293 1.772-.607 2.605-.068.186-.15.358-.22.54-.274.68-.318.916-.198 1.156.028.054.05.12.082.161.107.137.383-.071.683-.568a9.1 9.1 0 0 0 1.087-5.21c-.14-1.388-.64-2.726-1.382-3.878l-.019.011z"/>
  <path fill="#231f20" d="M71.98 85.121a6.4 6.4 0 0 0-.074.964c.008.172.016.347.063.54.04.186.115.402.281.596.159.194.41.336.634.371.109.02.218.03.316.025l.29-.03c.388-.074.737-.281.994-.535.366-.377.603-.8.773-1.227.286-.756.45-1.518.584-2.272l.096-.565.046-.281c.022-.123.011-.115.055-.197l.109-.235c.035-.079.093-.142.136-.215.085-.15.213-.26.323-.388.229-.186.483-.355.775-.418.287-.065.59-.084.882-.016.377.074.73.257 1.032.5.314.232.588.532.795.887.137.216.202.167.205-.087 0-.063 0-.142-.011-.23-.01-.087-.038-.183-.068-.29a1.2 1.2 0 0 0-.134-.33c-.063-.112-.126-.237-.227-.335a2.87 2.87 0 0 0-1.294-.798 2.53 2.53 0 0 0-1.57.05 2.7 2.7 0 0 0-1.248.939c-.071.106-.148.21-.213.32l-.164.338c-.022.054-.08.142-.088.246l-.027.172-.049.325c-.164 1.03-.41 2.108-.866 2.984-.248.475-.598.86-1.046.893a.64.64 0 0 1-.294-.01.32.32 0 0 1-.167-.135c-.096-.15-.128-.423-.123-.69.02-.678.186-1.396.341-2.106.112-.546.254-1.081.273-1.693-.002-.153-.002-.325-.092-.516-.085-.145-.159-.278-.262-.393a4 4 0 0 0-.645-.596c-.338-.264-.63-.527-.816-.852a2.5 2.5 0 0 1-.312-1.073c-.01-.169-.002-.341-.008-.516.022-.655.02-.874-.164-1.046-.04-.038-.079-.09-.12-.117-.136-.09-.306.175-.41.702-.06.393-.1.805-.049 1.242.014.216.074.44.131.661l.132.328c.049.109.114.21.174.314.26.41.626.72.929.966.308.252.535.465.663.7l.02.027v.003s.002 0 .002.013c.006.017.008.069.011.115 0 .101-.01.23-.027.36-.033.262-.093.546-.153.833-.12.574-.262 1.16-.363 1.78l.019.006zm-.016 11.537.055 2.084.024 1.035.011.729q.001.025-.005.046c-.014.003-.03 0-.044 0l-.106-.005a14 14 0 0 0-.768-.019q-.675-.002-1.362.041c-.23.016-.46.035-.694.068a4 4 0 0 0-.358.063 2 2 0 0 0-.232.063c-.087.024-.17.062-.246.103a.8.8 0 0 0-.196.162l-.044.049-.011.06-.025.123c-.024.076-.01.172-.01.265l.01.21c.017.224.022.445.028.669l.032 1.338c.02.792.011 1.586.011 2.37 0 1.008-.032 2.021.156 3.029.104.314.06.273.161.005.055-.134.115-.322.197-.549a4.5 4.5 0 0 0 .156-.786c.081-1.03.09-2.059.081-3.091q-.011-.775-.027-1.549l-.024-.775-.014-.388c0-.123.003-.276 0-.374a.2.2 0 0 1-.016-.063c-.009-.022-.003-.046.019-.057a.2.2 0 0 1 .057-.03 1 1 0 0 1 .134-.033c.275-.055.584-.077.893-.09.62-.025 1.253-.009 1.881.005l.303.008c.142 0 .295.019.429.006a.6.6 0 0 0 .248-.074l.017-.008c-.044-.052-.011-.017-.022-.027l.005-.006.009-.005.032-.028.058-.057c.01-.027.024-.055.033-.085q.027-.09.04-.194c.014-.136.02-.289.02-.417v-.287l-.003-.527-.044-2.097c-.016-.858-.032-1.718-.027-2.573.005-.639.01-1.28.044-1.914.016-.317.038-.634.076-.942q.03-.231.074-.453c.038-.167.052-.219.1-.306a.1.1 0 0 1 .02-.022c.03-.02.066-.025.101-.03l.12-.02q.178-.024.36-.043c.244-.025.49-.038.733-.052.488-.022.98-.03 1.466-.024l.639.021c.396.011.653.02.83-.008a.7.7 0 0 0 .393-.186c.047-.04.11-.073.148-.111.136-.104-.2-.435-.83-.506a13.5 13.5 0 0 0-2.13-.079q-.537.018-1.082.068-.273.025-.554.066l-.145.022-.115.022-.13.027c-.085.025-.17.046-.24.09-.04.02-.067.047-.102.071l-.025.02c-.021-.012-.019.01-.03.013l-.046.044c-.134.155-.21.365-.27.573-.036.14-.058.254-.082.377-.041.24-.066.472-.088.702-.12 1.439-.095 2.842-.087 4.249h.022zm17.438 11.974q.046.167.076.339c.009.041-.005.082 0 .123.028.147.055.298.06.445a.6.6 0 0 1-.03.191c-.024.079-.051.156-.013.251.013.031.114.052.226.058.112.005.24-.008.27-.055a.5.5 0 0 0 .09-.256.8.8 0 0 0-.005-.276c-.021-.112.028-.219.036-.331a3 3 0 0 0 .003-.366c0-.073-.006-.15-.008-.224 0-.112-.022-.226-.006-.335.01-.088.068-.172.104-.26.008-.019.024-.038.027-.057.005-.071-.052-.093-.265-.096h-.144c-.164 0-.3.036-.35.085-.145.147-.142.289-.14.437 0 .109.033.218.05.33h.019zM90.55 91.66a4 4 0 0 1 .212-.25c.027-.03.068-.047.096-.08a3 3 0 0 0 .142-.18q.063-.1.128-.194c.036-.058.09-.096.126-.15.052-.066.117-.118.117-.227-.003-.038-.03-.057-.093-.087-.068-.036-.16-.074-.207-.06a.56.56 0 0 0-.377.25c-.055.08-.142.118-.219.178q-.121.103-.248.216l-.156.142c-.079.071-.15.156-.235.218-.065.05-.163.066-.229.118-.014.01-.033.019-.046.033-.047.051-.028.098.076.215l.071.08c.082.084.175.133.238.136h.133a.2.2 0 0 0 .11-.022c.06-.027.109-.068.16-.106.075-.058.14-.134.211-.21l-.008-.014z"/>
  <path fill="#231f20" d="m88.63 89.98-1.07.02c-.132 0-.26-.013-.391-.01-.459.008-.923.046-1.385.071q-.308.01-.614.005-.198-.001-.396.022a1 1 0 0 0-.396.12c-.08.044-.052.08.027.137.082.055.205.167.347.183.251.05.51.055.77.057q.392.012.79-.013c.316-.02.647.022.972.032l1.075.022.664.014c.333.01.672.016 1.002.035.26.011.508.09.768.096.057.003.111.01.169.01.216-.007.284-.062.328-.201.01-.033.024-.063.03-.096.019-.103-.066-.196-.216-.256-.442-.186-.915-.227-1.396-.252-.357-.013-.715-.008-1.076-.016v.016zm-.03.946c-1.338-.103-2.657-.117-4.02.044l-.221.033c-.085.016-.134.025-.251.05-.235.054-.465.16-.571.373a1.4 1.4 0 0 0-.085.246l-.027.126-.017.084a5 5 0 0 0-.038.325c-.03.404-.033.79-.038 1.172 0 .174-.008.434-.005.45q.001.05-.006.099c0 .021-.02.024-.035.024l-.047.008-.06.006-.126.008-.335.01c-.227.006-.451.01-.68.01-.454 0-.912-.015-1.369-.028l-.93-.038-.465-.025-.232-.01h-.071l-.052-.012h-.09c-.03-.013-.022-.057-.027-.082 0-.057 0-.106.002-.166l.008-.353q.01-.356.009-.72c-.006-.481-.033-.98-.23-1.45-.13-.29-.147-.23-.196.032-.028.131-.096.314-.145.525-.027.106-.06.218-.08.34a4 4 0 0 0-.035.38c-.013.323-.04.645-.063.978l-.016.254c0 .153-.014.328 0 .489a.6.6 0 0 0 .161.382c.044.06.112.077.175.101l.191.071.235.016c.074.011.175.011.197.014l.237.008.478.02.964.032c.644.02 1.297.028 1.958 0l.38-.016.226-.011.322-.02.24-.081c.02-.011.047-.006.055-.027.022-.009.036-.028.05-.044a1 1 0 0 0 .065-.11c.077-.152.087-.368.096-.556l.019-.751q.007-.354.027-.7.011-.171.027-.335l.022-.159.011-.062.006-.017c.005-.027.027-.046.054-.057q.02-.01.038-.014c.014-.005.02-.005.06-.016.14-.028.293-.05.448-.066.309-.033.628-.046.948-.057a28 28 0 0 1 2.813.082l.442.04.336.039c.046.01.131-.005.126.066q.011.078.019.16l.019.43.013.458.014.92q.007.924 0 1.838c-.01.95-.066 1.879-.082 2.824-.003.207-.014.412-.01.622.021.779.127 1.03.335 1.177.05.033.098.08.145.096.156.057.248-.259.295-.82.09-1.66.123-3.42.13-5.196q.001-.754-.005-1.515-.006-.38-.022-.773c0-.041-.008-.192-.019-.309a1.6 1.6 0 0 0-.062-.352.52.52 0 0 0-.178-.257l-.284-.14-.429-.062-.254-.033-.48-.049v.02zm-4.53 10.235c-.055.002-.096.008-.161.016q-.136.011-.265.036c-.17.035-.336.068-.475.131-.08.024-.137.06-.197.095l-.09.052-.071.063c-.101.079-.15.183-.221.287a.52.52 0 0 0-.011.39.8.8 0 0 0 .216.309c.207.194.565.352.887.469.281.101.554.203.836.279.988.259 1.977.445 2.968.625l1.316.238c.281.049.56.109.844.142.284.038.573.033.863.014.18-.014.158-.05.022-.142l-.284-.186a1.4 1.4 0 0 0-.412-.199c-1.112-.287-2.229-.549-3.373-.727-.683-.115-1.37-.336-2.035-.549a8 8 0 0 1-.395-.136l-.205-.074a1 1 0 0 1-.159-.076c-.052-.028-.109-.096-.062-.145.046-.066.133-.096.218-.118a1 1 0 0 1 .158-.03 4 4 0 0 1 .336-.027c.232-.014.47-.016.705-.014a17 17 0 0 1 2.16.181c.554.084 1.09.215 1.627.344l.353.09c.442.098.592.079.723-.033.03-.025.066-.049.088-.074.07-.082-.085-.24-.407-.368-.959-.358-2-.577-3.064-.732-.792-.109-1.59-.194-2.436-.15v.019zm18.725 4.355.874.194c.106.025.207.069.316.093.383.082.765.175 1.155.243.172.03.339.079.508.12.213.06.44.08.664.082.071 0 .068-.032.022-.093a.9.9 0 0 0-.243-.221c-.197-.12-.402-.196-.606-.278-.208-.074-.41-.161-.631-.202-.265-.055-.514-.186-.773-.279a12 12 0 0 0-.874-.278 19 19 0 0 0-.552-.145c-.281-.071-.568-.123-.854-.183-.221-.047-.44-.131-.672-.169-.052-.006-.101-.025-.153-.025-.197.003-.257.06-.279.259q-.008.07-.013.137c0 .15.082.276.196.319q.132.05.26.096.131.032.262.06c.18.036.36.068.543.104.276.055.56.109.847.186l.005-.017zM42.61 95.935a99 99 0 0 1 .008-2.01c.003-.246.028-.489.03-.735.006-.865.011-1.731-.005-2.597-.003-.385.01-.77.014-1.152q0-.37.005-.737c-.005-.123-.024-.246-.038-.37l-.027-.182c-.011-.06-.039-.123-.055-.183-.057-.153-.055-.131-.128 0-.09.128-.233.366-.287.644-.03.249-.05.495-.068.743-.02.249-.047.495-.047.743-.014.497-.022.994-.002 1.5.027.6-.039 1.225-.058 1.84q-.032 1.015-.044 2.034l-.01 1.254c0 .633.005 1.27.008 1.897 0 .49-.038.97-.047 1.456-.003.106-.01.213-.008.319.003.2.027.331.08.421a.35.35 0 0 0 .207.172c.04.016.079.038.114.046.11.03.252-.142.298-.434.077-.857.074-1.75.08-2.651 0-.67-.009-1.344.002-2.018zm16.733.778-.04-2.452-.03-1.226-.02-.615-.014-.341-.01-.273c-.006-.09-.025-.172-.036-.26-.016-.049-.04-.087-.06-.13q-.007-.017-.016-.03l-.008-.014-.006-.006v-.002c-.008.005.016-.014-.016.013v-.003q-.025-.03-.05-.054c-.062-.071-.166-.101-.273-.126a2 2 0 0 0-.346-.035l-.178-.006h-.106c-.276-.003-.544 0-.814.006-.795.013-1.584.016-2.373.04q-1.104.039-2.204.06a36 36 0 0 1-1.092.003q-.271-.002-.536-.016l-.152-.01c-.033-.004-.069-.006-.102-.017-.04-.006-.021-.05-.03-.077v-.551l.02-.98.04-1.967v-.295c.003-.115.009-.237-.016-.336-.01-.049-.019-.1-.038-.142-.006-.01-.008-.021-.016-.03-.03.011-.028-.01-.041-.013l-.063-.036a.7.7 0 0 0-.295-.093 5 5 0 0 0-.347-.022l-.238-.005-.47-.005a70 70 0 0 0-1.856.019c-.79.021-1.581.043-2.373.095l-.593.047-.59.082q-.294.045-.59.098c-.098.014-.193.052-.292.08-.095.032-.194.048-.286.097-.235.101-.334.153-.325.164.01.017.13.003.346.047.435.095 1.205.256 2.103.226a78 78 0 0 1 2.39-.098 68 68 0 0 1 2.386-.038l.293.005h.076s.014-.005.022-.002l.005.016c.006-.068 0 .227 0 .412l-.01.604c-.014.805-.028 1.614-.023 2.433v.21c0 .087 0 .175.009.262v.066c.008.019.019.035.024.054l.047.101.043.096.006.014v.002l-.017.014.006.005.022.022q.021.02.044.039c.133.087.308.136.496.158l.14.016.12.011.172.011q.343.016.677.022a55 55 0 0 0 1.344.005q1.344-.006 2.681-.038l1.527-.03c.254-.002.508-.005.756 0h.18c.025.006.05.008.074.014.027.008.011.044.02.063l.027.652.032.869.055 1.737c.036 1.34.063 2.681.063 4.02-.006 1.01 0 2.036-.09 3.022a2 2 0 0 1-.047.303c-.008.033-.016.074-.046.093s-.066.03-.099.041l-.051.014-.085.019a3 3 0 0 1-.178.03q-.18.026-.368.044c-.497.049-1 .071-1.502.09l-1.177.038c-.093.005-.188.008-.276.025a.6.6 0 0 0-.232.09c-.085.144-.101.338-.112.529l-.022.396-.027.781a59 59 0 0 0-.03 1.551c-.006.342-.008.675-.014 1.019 0 1.273.036 1.671.216 1.95.04.063.082.147.123.185.14.134.295-.393.336-1.332.038-.803.054-1.619.068-2.441v-1.237q.001-.307.005-.618v-.153l.006-.073v-.006q-.001-.007.005-.011h.066l.453-.013q.463-.013.926-.022c.311-.011.623-.022.942-.044a8 8 0 0 0 .986-.109l.07-.016.102-.025c.063-.022.128-.041.188-.068a.6.6 0 0 0 .164-.107c.047-.043.101-.082.128-.142.071-.109.096-.246.142-.368.017-.071.02-.107.028-.145l.019-.115c.04-.295.057-.571.076-.852.033-.557.05-1.106.063-1.657.022-1.101.025-2.196.022-3.291h-.019zm-25.724 8.615c-.06.358-.104.718-.115 1.082-.005.131-.032.262-.019.396.022.466.12.933.276 1.373.06.197.15.385.23.576.06.118.136.23.212.339.036.057.096.095.15.134q.084.058.17.112c.07.041.095-.003.106-.104.003-.096.03-.27-.019-.385-.046-.104-.073-.216-.13-.306-.042-.104-.077-.208-.12-.309-.034-.106-.061-.215-.1-.322-.032-.109-.051-.224-.084-.336-.038-.136-.033-.284-.038-.428.005-.148.027-.295.033-.44.027-.322.054-.65.123-.972l.062-.298.082-.295c.088-.295.189-.592.333-.865.055-.107.129-.2.203-.295.062-.101.139-.186.204-.284q.044-.062.08-.131a.3.3 0 0 0 .043-.213.4.4 0 0 0-.087-.178c-.02-.025-.033-.052-.047-.071-.032-.049-.199-.071-.363.006-.23.122-.404.3-.56.494a4 4 0 0 0-.327.661c-.066.169-.12.346-.175.521-.044.178-.096.355-.131.533l.019.005z"/>
  <path fill="#231f20" d="M46.158 110.153c4.295-.021 8.59-.027 12.886-.008l4.7.049q8.285.036 16.57.131c2.45.03 4.916.085 7.346.145l2.346.063 2.348.035c.784.006 1.565.017 2.349.006l1.174-.019c.39-.008.784-.058 1.174-.074.975-.06.844-.093.022-.235-.822-.166-2.332-.475-4.132-.53l-2.392-.098c-.797-.033-1.595-.035-2.392-.054-1.595-.028-3.192-.052-4.79-.08a668 668 0 0 0-9.618-.068c-3.847 0-7.853-.104-11.788-.145-4.329-.035-8.66-.054-12.99-.043l-7.994.035-6.056.063c-2.018.027-4.034.057-6.035.085-3.114.032-6.167.062-9.247.095-.677.008-1.34.011-2.026.033-2.534.076-3.337.156-3.872.44-.12.06-.284.12-.353.172-.237.166.803.344 2.657.322 5.5-.027 11.295-.137 17.114-.197 4.323-.054 8.665-.09 12.999-.098l.005-.025zm1.132-37.894.005.47.066.461.07.459.126.442.126.44c.057.145.12.29.18.431.11.295.29.552.442.822.686 1.043 1.672 1.814 2.706 2.39.762.415 1.554.759 2.37 1.013 2.893.852 5.897.978 8.838.74 1.305-.11 2.613-.29 3.888-.568.41-.085.817-.191 1.224-.3.401-.126.802-.254 1.196-.413.196-.073.393-.155.581-.248.191-.093.39-.167.566-.29a7 7 0 0 0 1.035-.737c.393-.352.316-.322-.09-.145-.197.096-.506.183-.858.295-.366.09-.775.208-1.207.369-3.116 1.03-6.47 1.436-9.814 1.352-2.002-.058-4.088-.432-5.973-1.164-1.032-.407-2.012-.945-2.82-1.674a5.22 5.22 0 0 1-1.612-2.741c-.019-.082-.052-.162-.062-.243l-.036-.249-.068-.497v-.5c0-.082-.003-.166 0-.248l.035-.246c.058-.664.314-1.292.648-1.86.527-.854 1.335-1.532 2.26-1.958.926-.428 1.967-.611 2.988-.584.399-.008.792.068 1.182.12a5 5 0 0 1 1.106.333c.716.303 1.39.721 2.024 1.191.279.207.54.426.808.653.986.846 1.284 1.125 1.663 1.166.085.01.186.038.254.03.227-.014.011-.576-.693-1.317a12 12 0 0 0-1.74-1.496c-.636-.448-1.324-.855-2.097-1.147-.38-.15-.803-.27-1.215-.328-.407-.049-.811-.125-1.226-.114-.825-.047-1.663.084-2.472.303-1.199.352-2.332 1.038-3.154 2.029-.844.977-1.267 2.285-1.272 3.547h.021zm-1.613 29.735c-1.215-.454-2.444-.833-3.763-1.016a4.8 4.8 0 0 0-1.486.016c-.838.14-1.633.366-2.422.62-.787.254-1.556.549-2.313.874-.674.279-1.34.59-1.985.931-.413.221-.83.443-1.21.729-.186.153-.371.295-.527.484l-.24.265c-.074.095-.131.207-.197.305-.147.257-.131.213.085.082.215-.136.658-.286 1.125-.499.407-.197.775-.456 1.19-.653q.302-.162.615-.303c.207-.098.415-.197.625-.287q1.251-.589 2.564-1.087a13 13 0 0 1 1.628-.491 10.6 10.6 0 0 1 1.657-.276c.577-.052 1.191.068 1.8.197.609.136 1.215.311 1.813.51.735.249 1.464.525 2.144.874l.178.096q.078.045.152.095c.05.036.101.074.14.123a.2.2 0 0 1 .038.082c0 .03-.022.057-.046.074-.082.057-.189.063-.29.065q-.078.001-.156-.005l-.079-.006-.1-.011a13 13 0 0 1-1.077-.18c-.895-.183-1.761-.437-2.665-.617-.2-.041-.396-.082-.6-.112-.765-.109-1.05 0-1.191.202-.033.047-.077.093-.09.134-.025.068.043.123.172.169.13.055.325.096.581.131.765.115 1.565.312 2.384.495.41.092.828.185 1.25.27q.32.064.645.12l.33.049.167.022.096.011q.079.01.158.014c.156.005.32.022.465.013l.22-.011c.066-.01.126-.027.19-.041.067-.01.114-.035.163-.057a.4.4 0 0 0 .137-.074c.09-.051.133-.128.212-.204.02-.03.033-.071.05-.107-.014-.046.019-.085.027-.123a.2.2 0 0 0 .019-.112.4.4 0 0 0-.014-.104c-.005-.068-.04-.133-.068-.199-.052-.068-.074-.136-.15-.205a2.4 2.4 0 0 0-.497-.396l-.298-.18-.196-.104a15 15 0 0 0-1.355-.603l-.008.016zm19.605-17.509c.139.207.21.456.22.704.012.281-.06.634-.346.754-.186.079-.371.03-.522-.096a.8.8 0 0 1-.215-.336 3 3 0 0 1-.159-.737c-.03-.27.055-.584.314-.718.159-.082.377-.047.467.123.082.155.047.38-.123.467-.076.038.044-.044.006-.008-.041.04.046-.077.014-.014q-.02.036.019-.047l-.011.03c-.003.014-.017.088-.008.02.008-.069 0 .008 0 .024v.068q0 .024.005.052l-.003-.027c0 .016.006.033.008.046q.027.165.069.328.02.081.046.161c.006.02.017.038.02.058q-.035-.079-.012-.03.008.015.02.032c.03.058-.058-.06-.003-.002.054.057-.06-.033-.011-.006a.2.2 0 0 0-.115-.03q.037 0-.014.003c-.051.005-.139.038-.152.098q.01-.014.016-.03l-.014.03q.01-.027.014-.055l.008-.04-.003.027c0-.02.003-.044.006-.063q.001-.074-.006-.147l.003.027q-.002-.02-.008-.041-.006-.032-.014-.06l-.024-.08-.017-.038.017.044s-.03-.063-.038-.074l-.044-.07c-.098-.15-.033-.386.123-.468a.35.35 0 0 1 .467.123zm-3.842.824c.12.166.204.369.234.57.041.274.055.631-.202.803-.16.11-.374.069-.519-.043a1.1 1.1 0 0 1-.235-.276 1.8 1.8 0 0 1-.232-.562 1.9 1.9 0 0 1-.01-.76c.032-.177.256-.292.42-.237.188.06.273.232.238.42 0 .014-.006.028-.006.038l.006-.03c0 .02-.006.041-.006.06q-.005.07-.003.14c.003.046 0 .095.011.14l-.005-.053.005.041.011.06q.016.069.036.137.01.033.022.065l.01.028-.01-.028c.027.036.04.088.062.126q.032.056.069.11c.013.021.068.076 0 .002q.018.019.038.044.04.035-.025-.02.037.021-.008 0a.2.2 0 0 0-.158-.01q-.139.044-.175.166c0-.01.005-.04.01-.054q-.01.084-.005.03 0-.021.003-.041v-.134c-.024-.099 0-.03 0 0q-.007-.03-.01-.06a1 1 0 0 0-.042-.14q-.008-.018-.013-.038l.019.044c-.014-.011-.028-.057-.036-.074a1 1 0 0 0-.079-.12c-.05-.068-.055-.186-.035-.262a.35.35 0 0 1 .155-.205.35.35 0 0 1 .262-.036.4.4 0 0 1 .205.156zm2.716-4.363c.838-.213 1.704-.347 2.526-.631.202-.071.456.079.505.286a.42.42 0 0 1-.287.506c-.819.284-1.684.417-2.526.63-.207.052-.453-.068-.505-.286-.052-.219.063-.448.287-.505m-2.471.862c-.12-.028-.244-.047-.366-.066l-.112-.016c-.058-.008.016 0 .032.005-.016 0-.032-.005-.051-.005l-.219-.028q-.4-.045-.806-.073c-.212-.017-.42-.178-.41-.41.01-.207.181-.426.41-.41.58.044 1.17.09 1.737.214.21.046.352.3.287.505a.42.42 0 0 1-.505.287zm6.044 8.763a2.12 2.12 0 0 1-.598 1.44 2.13 2.13 0 0 1-1.431.619.38.38 0 0 1-.377-.377.383.383 0 0 1 .377-.377q.04.001.082-.005c.027-.006.1.005.008 0 .044 0 .104-.02.147-.027q.073-.017.145-.041.038-.015.077-.028c-.044.022.065-.022 0 0 .092-.046.185-.093.273-.153l.054-.038c-.054.047.039-.027 0 0q.062-.051.12-.11c.036-.035.066-.073.099-.111-.041.057.03-.035 0 0l.046-.068c.052-.08.115-.172.142-.263-.027.093-.005.006 0-.01.008-.025.02-.052.025-.077q.019-.065.035-.13l.017-.08c0-.014.005-.027.005-.041q.008-.046-.005.033c.019-.033.008-.123.01-.161.003-.197.17-.386.377-.377.208.008.38.164.377.377z"/>
  <path fill="#231f20" d="M61.39 87.226c-.12.557-.24 1.122-.281 1.742-.011.227-.036.467.022.735.046.23.183.516.447.694.263.166.525.185.74.163.44-.038.795-.19 1.134-.357.3-.15.582-.328.844-.525.33-.25.663-.551.805-.966.044-.126.022-.112-.065-.039-.077.082-.276.167-.456.284a4.7 4.7 0 0 1-1.03.536c-.35.147-.707.292-1.046.352-.196.044-.401 0-.453-.06a.26.26 0 0 1-.06-.14 1.3 1.3 0 0 1-.041-.264c-.022-.465.095-1.022.221-1.551q.12-.495.26-.994c.139-.503.27-1.016.423-1.522.117-.393.276-.77.371-1.193.022-.093.047-.188.055-.286.022-.375-.085-.525-.32-.55-.054-.005-.109-.016-.16-.013a.34.34 0 0 0-.22.11.55.55 0 0 0-.128.228l-.622 1.978a30 30 0 0 0-.462 1.624l.022.009zm23.881 13.159c-.025-.003-.076-.033-.055-.065q.015-.026.044-.041.016-.008.036-.014l.07-.011q.046-.007.096-.011a5 5 0 0 1 .83-.011c.3.017.598.066.901.104a21 21 0 0 1 3.182.655c.464.134.92.301 1.36.486.281.121.56.252.833.383.139.063.281.117.426.172q.209.09.434.158c.188.055.202-.011.12-.194a1.64 1.64 0 0 0-.582-.701c-1.163-.607-2.403-1.003-3.68-1.254-.765-.147-1.546-.352-2.344-.453a9 9 0 0 0-1.22-.077q-.157.001-.314.014c-.052 0-.107.01-.162.016-.046.009-.144.014-.212.039-.31.06-.571.19-.708.423a.54.54 0 0 0-.106.273c0 .366.355.598.704.781.268.131.514.221.77.314.773.268 1.557.467 2.322.694.595.174 1.168.382 1.744.576.129.043.249.093.377.134.473.158.642.133.8.005.036-.03.08-.055.104-.085.085-.095-.068-.292-.41-.461-1.02-.453-2.132-.77-3.225-1.109a36 36 0 0 1-1.207-.388 10 10 0 0 1-.576-.215c-.095-.036-.185-.077-.273-.115l-.057-.027h-.014l-.016.011z"/>
  <path fill="#231f20" d="M77.148 102.838q.231.253.453.519c.055.062.096.136.15.199.194.224.39.448.57.683.08.103.148.218.214.33.082.145.147.303.273.421.076.076.344-.235.257-.413a4 4 0 0 0-.585-.865c-.142-.156-.24-.353-.366-.525-.136-.191-.286-.374-.434-.557l-.276-.336c-.136-.169-.284-.333-.41-.51-.097-.137-.168-.292-.253-.44-.02-.033-.033-.068-.055-.098-.079-.115-.136-.123-.278-.041l-.096.054c-.104.071-.147.178-.11.276.11.292.296.533.49.776q.221.263.442.53l.011-.009z" opacity=".55"/>
  <path fill="#231f20" d="M75.208 106.052c.09.079.178.155.265.237.03.03.047.068.08.098.114.101.234.197.343.301.05.046.085.101.12.158.044.074.066.159.164.194.06.022.418-.317.377-.407a.9.9 0 0 0-.347-.385c-.095-.057-.136-.161-.204-.243a10 10 0 0 0-.238-.259q-.075-.081-.145-.161c-.07-.082-.15-.162-.204-.254-.041-.074-.052-.167-.074-.252-.006-.019-.006-.041-.014-.057-.03-.063-.079-.055-.232.038l-.104.063c-.117.077-.194.164-.196.227-.009.188.07.322.166.448.071.092.153.177.232.264l.014-.008z"/>
  <path fill="#231f20" d="m48.401 97.23.522-.675c.065-.082.142-.15.204-.233.224-.289.443-.584.672-.868a5 5 0 0 1 .328-.355c.15-.142.306-.278.404-.47.03-.06-.055-.128-.175-.163-.117-.036-.273-.044-.366.032a5.8 5.8 0 0 0-.83.956c-.145.213-.347.385-.519.579l-.562.647-.344.399c-.178.2-.347.407-.535.59-.148.142-.317.26-.478.388-.036.027-.074.051-.107.081-.123.115-.126.183-.025.328.025.033.044.068.071.099.088.103.216.13.328.068.333-.183.61-.45.863-.738.191-.21.372-.434.555-.655l-.011-.01z" opacity=".75"/>
</svg>
