<svg width="49" height="74" viewBox="0 0 49 74" fill="none" xmlns="http://www.w3.org/2000/svg">
<path d="M10.4788 60.3093C9.65878 60.3193 8.82877 60.2893 7.99877 60.2393C7.69877 60.2093 7.39877 60.2393 7.08877 60.1993C6.02877 60.0193 4.97879 59.7693 3.98879 59.4193C3.54879 59.2593 3.09878 59.1693 2.66878 59.0293C2.09878 58.9093 1.55879 58.6493 1.07879 58.2893C0.928789 58.1693 1.00878 58.0193 1.22878 57.8493C1.43878 57.6893 1.79879 57.4593 2.13879 57.4493C2.72879 57.4093 3.25877 57.5493 3.80877 57.5893C4.34877 57.6693 4.88879 57.7193 5.41879 57.9193C6.05879 58.1093 6.75879 58.0293 7.42879 58.0193C8.16879 58.0193 8.92877 58.0393 9.68877 58.0093C10.1588 57.9793 10.6288 57.9593 11.1088 57.9093C11.8288 57.8293 12.5588 57.7693 13.2788 57.6093C13.8388 57.4793 14.3588 57.2193 14.9088 57.0293C15.0288 56.9893 15.1488 56.9193 15.2688 56.8993C15.7388 56.7993 15.9088 56.9493 16.0788 57.6093C16.1188 57.7593 16.1688 57.9093 16.1888 58.0593C16.2888 58.5793 16.1488 59.0293 15.8488 59.2193C14.9488 59.7993 13.9588 60.0093 12.9088 60.1593C12.1288 60.2693 11.3188 60.3193 10.4988 60.3793V60.3193L10.4788 60.3093Z" fill="#231F20"/>
<path d="M24.4481 68.5498C24.3981 69.0798 24.3381 69.6298 24.3081 70.1498C24.2981 70.3298 24.3681 70.4598 24.3481 70.5698C24.3481 70.7698 24.2281 70.8398 24.1881 70.9498C24.1381 71.0698 24.2481 71.2298 24.5081 71.3098C24.7381 71.3898 25.0281 71.3598 25.3281 71.3598C25.7181 71.3498 26.1981 71.2998 26.6381 71.6098C26.7681 71.7098 26.6481 71.9898 26.4881 72.2898C26.3181 72.5798 26.1681 72.9598 26.0181 73.0398C25.7281 73.1598 25.4081 73.3598 24.9281 73.4098C24.4881 73.4598 23.7881 73.4598 23.1081 72.9898C22.7281 72.7198 22.3681 72.3698 22.1381 71.9898C21.8881 71.6198 21.7981 71.2598 21.7481 70.9598C21.6981 70.6098 21.6981 70.3498 21.6981 70.0898V69.2798C21.6881 68.9498 21.6881 68.6098 21.6681 68.2798C21.6381 67.7798 21.6581 67.2698 21.5481 66.7898C21.4681 66.4098 21.2081 66.0598 21.0281 65.6998C20.9881 65.6198 20.9181 65.5498 20.8981 65.4598C20.8081 65.1498 20.9881 65.0298 21.7781 64.8698L22.3081 64.7698C22.8881 64.6698 23.4481 64.7398 23.6381 64.9398C24.2481 65.5498 24.3981 66.2398 24.4781 66.9498C24.5381 67.4698 24.4981 68.0098 24.5081 68.5498H24.4381H24.4481Z" fill="#231F20"/>
<path d="M29.1783 68.5689C29.0583 69.1589 28.9383 69.7489 28.8183 70.3289C28.7883 70.3889 28.8483 70.4289 28.8283 70.4889C28.8183 70.5389 28.8283 70.5889 28.8283 70.6489C28.9283 70.8489 28.9783 70.8789 29.7383 71.1589C30.0783 71.2789 30.4283 71.3489 30.7683 71.4389C31.2083 71.5389 31.6583 71.6289 32.0683 71.8889C32.1983 71.9689 32.1483 72.1989 31.9883 72.4489C31.8283 72.6889 31.5683 73.0089 31.2883 73.0689C30.8083 73.1489 30.3283 73.2589 29.8683 73.2489C29.6383 73.2289 29.4083 73.1989 29.1783 73.1489C29.0683 73.1289 28.9483 73.0989 28.8383 73.0689C28.6383 73.0089 28.4283 72.9889 28.2183 72.9489C27.7083 72.7689 27.2383 72.5589 26.8583 72.1989C26.5383 71.9189 26.3483 71.5089 26.2783 71.0889C26.2383 70.8389 26.2283 70.5689 26.2483 70.3189C26.2583 70.1189 26.2883 69.9589 26.3083 69.7989L26.4483 68.8689C26.4983 68.4889 26.5683 68.0989 26.6083 67.7189C26.6683 67.1389 26.7683 66.5589 26.7483 65.9789C26.7283 65.5289 26.5483 65.0789 26.4383 64.6389C26.4083 64.5389 26.3583 64.4389 26.3483 64.3389C26.3183 63.9689 26.5583 63.8689 27.2783 63.8089L27.7783 63.7789C28.3283 63.7589 28.7983 63.9289 28.9883 64.1989C29.4883 65.0089 29.4883 65.8489 29.4583 66.6889C29.4283 67.3089 29.3283 67.9389 29.2583 68.5589H29.1883L29.1783 68.5689Z" fill="#231F20"/>
<path d="M45.2993 30.529C45.5293 30.769 45.7693 31.069 46.0493 31.309C46.1493 31.399 46.2793 31.419 46.3793 31.519C46.7393 31.869 47.0993 32.229 47.4393 32.619C47.5893 32.789 47.7693 32.899 47.9493 33.019C48.1793 33.159 48.4193 33.299 48.5393 33.589C48.5793 33.679 48.4293 33.889 48.2193 34.079C48.0093 34.269 47.7393 34.489 47.5893 34.489C47.0593 34.439 46.5693 34.409 46.1793 34.069C45.9693 33.819 45.6193 33.829 45.3293 33.699C45.0093 33.559 44.6893 33.379 44.3593 33.189C44.1593 33.059 43.9593 32.929 43.7693 32.809C43.4593 32.619 43.1793 32.379 42.8493 32.229C42.5893 32.119 42.2293 32.139 41.8993 32.079C41.8293 32.069 41.7393 32.079 41.6793 32.039C41.4593 31.919 41.5393 31.699 42.0593 31.049L42.4193 30.599C42.8393 30.109 43.2493 29.759 43.4693 29.689C44.1193 29.479 44.3593 29.659 44.6693 29.879C44.8893 30.049 45.0993 30.269 45.3493 30.469L45.3193 30.529H45.2993Z" fill="#231F20"/>
<path d="M43.9679 28.1104C44.3179 28.0204 44.6779 27.9204 45.0179 27.7604C45.1379 27.7104 45.2179 27.6004 45.3479 27.5404C45.8079 27.3504 46.2879 27.1404 46.7379 26.8904C46.9479 26.7904 47.1179 26.6604 47.2879 26.5204C47.3979 26.4304 47.4979 26.3304 47.6079 26.2504C47.7379 26.1904 47.9079 26.1604 48.0779 26.1504C48.1879 26.1504 48.3179 26.3104 48.4379 26.5604C48.5479 26.8004 48.7079 27.1804 48.6879 27.3804C48.4379 27.9204 48.1479 28.4104 47.5579 28.6004C47.2179 28.7304 47.0479 29.0804 46.7779 29.3104C46.4779 29.5704 46.1479 29.8104 45.7979 30.0304C45.5779 30.1604 45.3679 30.3004 45.1579 30.4304C44.8379 30.6404 44.4879 30.8004 44.1979 31.0304C43.9779 31.2204 43.8379 31.5504 43.6579 31.8304C43.6179 31.8904 43.5979 31.9704 43.5479 32.0204C43.3679 32.1904 43.2079 32.0404 42.7679 31.3104L42.4779 30.8104C42.1579 30.2304 41.9879 29.7104 42.0379 29.4804C42.1979 28.8004 42.5479 28.5504 42.9579 28.3704C43.2679 28.2404 43.6079 28.1604 43.9279 28.0304L43.9679 28.0804V28.1104Z" fill="#231F20"/>
<path d="M39.5494 58.1196C37.7094 61.0696 34.8294 62.9695 31.9394 64.1695C30.8794 64.6195 29.8194 65.0496 28.7194 65.3296C24.8294 66.3196 20.8794 66.4396 17.0094 66.1496C15.2894 66.0196 13.5695 65.8396 11.8695 65.5396C11.3295 65.4496 10.7794 65.3396 10.2394 65.2196C9.69945 65.0696 9.16944 64.9096 8.63944 64.7096C7.57944 64.3396 6.57945 63.7596 5.73945 62.9696C5.27945 62.3796 5.40944 62.4196 6.06944 62.3896C6.46944 62.3696 6.90944 62.3596 7.35944 62.3396C7.88944 62.2896 8.43943 62.2996 8.99943 62.4496C11.0194 62.7996 13.0294 63.2996 15.1294 63.4996C17.2194 63.7396 19.3294 63.8296 21.4694 63.8296C24.0294 63.7996 26.6494 63.2096 29.0694 62.3896C31.7294 61.4996 34.2594 60.1396 36.0494 58.0996C37.1394 56.8496 37.9594 55.3496 38.2894 53.7096C38.5294 52.4696 38.5794 51.1696 38.4594 49.8696C38.2994 48.5696 37.9994 47.2696 37.5694 46.0096C36.8994 44.0396 35.8394 42.2596 34.8294 40.4296C34.6094 40.0196 34.3694 39.6396 34.1694 39.2196C33.7894 38.4396 33.5694 37.9096 33.5394 37.4796C33.5394 37.0296 33.6694 36.7096 33.9094 36.3796C34.0194 36.2296 34.1094 36.0596 34.2294 35.9496C34.4294 35.7596 34.6994 35.7796 35.0594 35.9496C35.4094 36.1296 35.8794 36.4496 36.2294 36.9896C36.7894 37.7696 37.3495 38.5796 37.8695 39.4196C38.3595 40.2796 38.8294 41.1796 39.2594 42.1096C40.1094 43.9796 40.8294 45.9996 41.2294 48.1796C41.5294 49.7996 41.5995 51.5196 41.3695 53.2496C41.1595 54.9796 40.5395 56.6996 39.6195 58.1796L39.5594 58.1496L39.5494 58.1196Z" fill="#231F20"/>
<path d="M19.0881 33.5002C19.3681 31.2602 19.6281 28.9402 20.3281 26.5702C21.0181 24.2302 22.3081 21.7602 24.3981 20.0902C25.1381 19.4702 25.9381 18.9302 26.7781 18.5202C27.6181 18.0702 28.4981 17.7502 29.3981 17.5002C32.5981 16.7702 35.9781 17.0502 38.9381 18.4902C40.4081 19.2102 41.7581 20.2502 42.7581 21.5902C43.7581 22.9202 44.4081 24.5002 44.6481 26.1102C45.0481 28.9302 44.3081 31.9702 42.4481 34.1502C41.2681 35.5402 39.6381 36.5902 37.8681 37.0302C36.9781 37.2302 36.0681 37.3102 35.1881 37.2302C34.2981 37.1902 33.4281 36.9802 32.6681 36.5302C31.7181 36.0002 31.8781 36.0702 32.7881 35.9402C33.7281 35.7202 35.2681 35.3202 36.7081 34.7602C38.0181 34.3302 39.1581 33.5902 39.9681 32.5702C40.8281 31.6102 41.4281 30.4002 41.6281 29.1102C41.8481 27.8502 41.6881 26.4402 41.2581 25.2502C40.8081 24.0502 39.9881 22.9902 38.8881 22.1502C37.5581 21.1602 35.8181 20.5202 34.0081 20.4002C32.1981 20.2502 30.3481 20.5802 28.6981 21.2502C26.8481 21.9502 25.3481 23.2302 24.3381 24.9502C23.3381 26.6802 22.7881 28.7802 22.4381 30.9602C21.9781 33.6502 21.7181 36.4402 21.2681 39.2302C20.9281 41.3402 20.4781 43.4702 19.7581 45.5402C19.0481 47.6102 17.9781 49.6202 16.4781 51.3002C15.9181 51.9502 15.2181 52.5902 14.4481 53.0702C13.6781 53.5402 12.8481 53.9302 11.9981 54.1702C10.2981 54.6902 8.54812 54.8302 6.84812 54.7602C6.09812 54.7402 5.35814 54.7002 4.61814 54.5902C1.86814 54.1602 1.10812 53.5902 0.788118 52.6602C0.718118 52.4402 0.608106 52.2202 0.588106 52.0202C0.528106 51.3602 1.71813 51.1602 3.54813 51.4102C6.25813 51.7702 9.08811 51.9002 11.4081 51.2002C11.6981 51.1202 11.9581 50.9902 12.2381 50.9002C12.4781 50.7602 12.7581 50.6602 12.9781 50.5002C13.2081 50.3502 13.4481 50.2102 13.6381 50.0202C13.8481 49.8702 14.0581 49.6302 14.2681 49.4002C15.1181 48.4902 15.8281 47.4002 16.3581 46.1502C17.9881 42.4602 18.4681 38.0102 18.9981 33.5102H19.0681L19.0881 33.5002Z" fill="#231F20"/>
<path d="M32.0693 26.0105C33.6093 27.9805 36.8693 28.4005 38.8593 26.9005C39.0993 26.7205 39.2893 26.5305 39.3793 26.2305C39.4493 25.9605 39.4193 25.6005 39.2693 25.3605C38.9693 24.9005 38.2293 24.5805 37.7293 24.9605C37.5393 25.1005 37.3393 25.2305 37.1293 25.3305C37.0793 25.3505 36.9393 25.4605 37.0693 25.3605C37.1993 25.2605 37.0693 25.3605 37.0093 25.3805C36.8993 25.4205 36.7893 25.4505 36.6693 25.4805C36.5893 25.5005 36.3893 25.5005 36.3193 25.5505C36.3793 25.5105 36.5793 25.5305 36.3693 25.5405C36.3093 25.5405 36.2493 25.5405 36.1893 25.5505C36.0693 25.5505 35.9493 25.5505 35.8293 25.5505C35.7293 25.5505 35.5693 25.5005 35.4693 25.5205C35.5193 25.5105 35.7093 25.5605 35.5593 25.5205C35.4893 25.5105 35.4193 25.4905 35.3493 25.4805C35.2293 25.4505 35.1193 25.4205 35.0093 25.3905C34.9593 25.3805 34.9193 25.3605 34.8793 25.3405C34.8493 25.3305 34.8093 25.3205 34.7793 25.3005C34.6993 25.2705 34.7393 25.2805 34.8793 25.3505C34.8493 25.2905 34.6593 25.2405 34.5893 25.2105C34.4893 25.1505 34.3793 25.0905 34.2893 25.0305C34.2793 25.0305 34.1593 24.9205 34.1393 24.9305C34.1793 24.9105 34.3193 25.0905 34.1693 24.9505C33.9793 24.7805 33.8093 24.6105 33.6593 24.4105C33.2993 23.9405 32.4493 24.0005 32.0693 24.4105C31.6193 24.9005 31.6793 25.5005 32.0693 26.0005V26.0105Z" fill="#231F20"/>
<path d="M2.32773 10.1689C2.08773 10.1789 2.08772 9.8689 2.21772 9.3689C2.25772 9.2089 2.50772 8.8089 2.59772 8.7789C2.75772 8.7189 2.92772 8.6689 3.06772 8.6389C3.15772 8.6289 4.22774 8.9489 4.61774 9.0289C4.98774 9.1089 5.30772 9.2589 5.62772 9.4289L7.58771 10.4089C7.72771 10.4789 7.85773 10.5789 7.97773 10.6989C8.36773 11.1189 8.85774 11.3889 9.36774 11.6089C9.45774 11.6489 9.52772 11.7089 9.65772 11.6589C9.87772 11.5789 11.1877 12.3189 11.3077 12.4889C11.6277 12.8989 11.9777 13.2389 12.3177 13.6189C12.3677 13.6689 12.4477 13.6789 12.4377 13.8089C12.4177 14.1289 12.5677 14.1589 12.6877 14.2589C12.8477 14.3889 13.0077 14.5289 13.1377 14.7189C13.1977 14.8089 13.2077 15.0089 13.2177 15.1689C13.2377 15.3189 12.9677 15.6689 12.9177 15.6889C12.7677 15.7589 12.7277 15.9689 12.6377 16.1289C12.6077 16.1789 12.5677 16.2489 12.5377 16.2889C12.4677 16.3789 11.0777 16.3889 10.9677 16.3189C10.9577 16.3189 10.5477 16.1289 10.1277 15.9289C9.69772 15.7389 9.25772 15.5389 9.15772 15.5089C9.05772 15.4789 8.99772 15.3689 8.93772 15.2789C8.89772 15.2489 7.60773 14.6889 7.57773 14.6389C7.35773 14.4489 7.05773 14.3789 6.94773 14.0189C6.92773 13.9489 6.86772 13.9289 6.81772 13.8989C6.38772 13.6589 6.01773 13.2989 5.63773 12.9789C5.43773 12.8189 5.21772 12.6989 5.00772 12.5589C4.96772 12.5289 4.94773 12.4789 4.91773 12.4389C4.87773 12.3889 4.84773 12.3389 4.79773 12.3089C4.28773 11.9989 3.84773 11.5689 3.29773 11.3189C3.16773 11.2589 2.74772 10.6889 2.59772 10.6389C2.51772 10.6089 2.44772 10.1589 2.34772 10.1689H2.32773Z" fill="#231F20"/>
<path d="M0.548977 21.5805C0.418977 21.7405 0.268955 21.4705 0.0889553 20.9605C0.0289553 20.8005 -0.0210312 20.2905 0.00896876 20.2105C0.0789688 20.0605 0.14897 19.9105 0.22897 19.8005C0.27897 19.7305 1.10896 19.3605 1.40896 19.2205C1.68896 19.0805 1.97898 19.0305 2.26898 18.9905C2.85898 18.9305 3.44897 18.8505 4.03897 18.8105C4.16897 18.8105 4.29898 18.8205 4.42898 18.8705C4.87898 19.0405 5.31896 19.0505 5.77896 19.0005C5.85896 19.0005 5.92897 19.0105 6.00897 18.9105C6.13897 18.7405 7.36896 18.7805 7.52896 18.8705C7.89896 19.0905 8.27898 19.2605 8.64898 19.4605C8.69898 19.4905 8.76898 19.4605 8.79898 19.5905C8.86898 19.8905 8.99897 19.8605 9.10897 19.9005C9.26897 19.9505 9.42897 20.0305 9.56897 20.1505C9.63897 20.2105 9.68896 20.3905 9.74896 20.5305C9.79896 20.6605 9.67898 21.0805 9.64898 21.1205C9.54898 21.2405 9.57898 21.4505 9.54898 21.6305C9.54898 21.6905 9.52898 21.7705 9.51898 21.8205C9.48898 21.9305 8.48898 22.5105 8.39898 22.4905C8.39898 22.4905 8.30898 22.4905 8.17898 22.4905C8.04898 22.4905 7.88898 22.5005 7.70898 22.5105C7.35898 22.5305 7.00898 22.5405 6.92898 22.5605C6.84898 22.5805 6.77898 22.5005 6.70898 22.4505C6.67898 22.4205 5.64897 22.5305 5.60897 22.5205C5.39897 22.4705 5.18898 22.5505 4.98898 22.3005C4.94898 22.2505 4.90897 22.2605 4.85897 22.2605C4.49897 22.2705 4.12898 22.1605 3.76898 22.0905C3.57898 22.0505 3.39898 22.0905 3.20898 22.0705C3.17898 22.0705 3.13897 22.0305 3.10897 22.0205C3.06897 22.0005 3.01897 21.9705 2.97897 21.9705C2.53897 21.9905 2.07898 21.8805 1.64898 21.9905C1.54898 22.0105 1.03897 21.7905 0.918972 21.8305C0.858972 21.8505 0.598977 21.5105 0.548977 21.5805Z" fill="#231F20"/>
<path d="M16.7689 0.439996C16.7089 0.279996 16.9089 0.15 17.1889 0.03C17.2789 -0.01 17.5389 -0.01 17.5789 0.03C17.6689 0.12 17.7689 0.199995 17.8489 0.289995C17.8689 0.319995 17.9789 0.549997 18.1189 0.799997C18.2389 1.06 18.3389 1.35 18.4189 1.49C18.5489 1.77 18.6189 2.06 18.6789 2.34L18.8789 4.08C18.8889 4.21 18.8789 4.34 18.8489 4.47C18.7289 4.91 18.7489 5.34999 18.8289 5.78999C18.8389 5.85999 18.8289 5.94 18.9289 6.01C19.0789 6.12 19.2089 7.32 19.1389 7.48C18.9689 7.87 18.8789 8.26 18.7389 8.64C18.7189 8.7 18.7589 8.75 18.6489 8.81C18.3889 8.93 18.4389 9.05 18.4089 9.17C18.3689 9.34 18.3189 9.5 18.2189 9.67C18.1689 9.75 18.0289 9.84 17.9089 9.92C17.8089 9.99 17.4389 9.96 17.3989 9.94C17.2789 9.87 17.1089 9.94 16.9589 9.94C16.9089 9.94 16.8389 9.94 16.7989 9.94C16.7389 9.94 15.9189 9 15.9489 8.89C15.9489 8.88 15.8989 8.53 15.8389 8.16C15.7789 7.8 15.7189 7.43 15.6989 7.33C15.6789 7.25 15.7389 7.16 15.7789 7.08C15.7989 7.04 15.6389 5.93 15.6489 5.89C15.6889 5.66 15.6089 5.43 15.8289 5.2C15.8689 5.15 15.8589 5.11 15.8589 5.06C15.8389 4.66 15.9389 4.27 16.0089 3.87C16.0389 3.67 16.0289 3.47 16.0389 3.26C16.0389 3.22 16.0689 3.19 16.0889 3.15C16.1089 3.1 16.1389 3.06 16.1389 3.01C16.1289 2.53 16.2789 2.05 16.2589 1.57C16.2589 1.46 16.4889 0.929997 16.5089 0.799997C16.5189 0.729997 16.8089 0.490002 16.7689 0.430002V0.439996Z" fill="#231F20"/>
</svg>
