<svg width="455" height="12" viewBox="0 0 455 12" fill="none" xmlns="http://www.w3.org/2000/svg">
<path d="M177.172 4.07041C188.842 4.93906 200.283 6.5115 211.829 6.78644C223.381 7.24158 234.965 7.25747 246.548 6.98318C254.997 6.78079 263.442 6.3582 271.888 5.91561C286.775 5.15411 301.66 4.13244 316.552 3.18102C323.999 2.7003 331.455 2.22987 338.91 1.80942C342.627 1.60391 346.365 1.36898 350.119 1.28454C353.863 1.17984 357.606 1.15509 361.337 1.15006C367.97 1.14665 374.582 1.15268 381.211 0.939066C387.878 0.77656 394.504 1.03302 401.078 1.31808C404.965 1.49749 408.862 1.6572 412.75 1.75663C414.69 1.81121 416.64 1.84607 418.58 1.86066L419.98 1.88004C420.1 1.87341 420.141 1.85457 420.293 1.78882C420.455 1.71335 420.638 1.60845 420.821 1.48357L422.055 0.677942C422.279 0.534191 422.523 0.390999 422.807 0.258931C423.131 0.107997 423.534 -0.000711792 423.914 -1.79223e-05C424.454 0.025169 424.812 0.105269 425.277 0.288423C425.712 0.470734 426.104 0.761885 426.415 1.08076C426.716 1.39936 426.975 1.8068 426.994 1.81736C427.033 1.86846 427.071 1.92955 427.13 1.96123C427.14 1.9715 427.16 1.96208 427.18 1.97264C427.212 1.91351 427.267 1.73498 427.31 1.62615L427.581 0.863496C427.068 3.09995 427.444 1.47988 427.32 1.98658L427.34 1.98715L427.37 1.98799L427.46 1.99052L427.83 2.00093L428.559 2.03144L430.028 2.09281L432.956 2.20522L438.811 2.45002L444.656 2.72456C446.603 2.86938 448.55 2.98419 450.485 3.2087C453.106 3.53259 454.232 3.71432 454.149 3.81203C454.066 3.90974 452.774 3.96342 450.527 4.19029C448.29 4.39745 445.11 4.70811 441.287 4.77059C437.463 4.86304 432.991 4.85727 428.144 4.70084L427.584 4.68509L427.264 4.67608L426.964 4.66764L426.814 4.66342L426.744 4.66146L426.704 4.66033L426.684 4.65977L426.251 6.53831L426.09 5.16323C426.056 4.95219 426.044 4.66175 425.998 4.5104C425.929 4.47845 425.85 4.45621 425.781 4.41425C425.505 4.25644 425.271 4.05973 425.068 3.80392C424.894 3.57895 424.625 3.18125 424.606 3.1607C424.538 3.07876 424.49 3.00737 424.441 2.95598C424.344 2.8632 424.285 2.82152 424.196 2.779C424.146 2.7776 424.107 2.7465 424.037 2.73454C423.998 2.71342 423.848 2.71918 423.908 2.71087C423.908 2.71087 423.949 2.69202 423.868 2.72976C423.746 2.78636 423.573 2.89151 423.39 3.0064C423.013 3.24589 422.584 3.55396 422.085 3.86005C421.81 4.02239 421.566 4.17556 421.131 4.35339C420.888 4.4466 420.646 4.51982 420.395 4.55277C420.154 4.586 419.833 4.59701 419.754 4.58476L418.204 4.56114C416.134 4.51291 414.075 4.44496 412.027 4.3573L399.729 3.77111C395.642 3.59608 391.555 3.44103 387.485 3.38651C383.415 3.322 379.369 3.48822 375.215 3.5614C366.968 3.68946 358.749 3.54819 350.569 3.77817C346.485 3.87331 342.395 4.14839 338.267 4.38235C334.149 4.62659 330.03 4.88082 325.911 5.12506C305.177 6.42228 283.605 8.31619 262.329 9.27806C250.64 9.80943 238.916 10.1197 227.203 10.0602C215.501 9.97099 203.726 9.63959 192.065 8.44108C184.891 7.779 177.749 7.04781 170.604 6.76671C167.036 6.63629 163.456 6.57554 159.9 6.75556C156.344 6.91559 152.794 7.22585 149.314 7.86822C146.681 8.31431 143.887 8.74592 141.176 9.11979C138.448 9.36314 135.708 9.68618 132.972 9.84928C130.237 9.9924 127.5 10.1855 124.776 10.2889L116.576 10.5383C105.656 10.7412 94.7635 10.6848 83.9407 10.6303C67.1167 10.537 50.6314 10.4932 34.0366 10.7865C30.3821 10.8937 26.8176 11.0035 23.1332 11.1099C9.49465 11.5764 5.2597 12.0474 2.21779 11.3616C1.53143 11.2222 0.623784 11.1267 0.217885 10.9752C-0.485364 10.7253 0.536595 10.3139 2.9842 9.7225C4.203 9.42667 5.80336 9.08155 7.71048 8.85511C9.61761 8.62867 11.8549 8.40153 14.3721 8.18226C29.287 7.15143 44.5944 7.10202 60.0792 7.14764C75.5732 7.22354 91.2615 7.50499 106.96 7.43657L115.696 7.33229L124.426 7.09777C127.34 6.99971 130.227 6.80086 133.132 6.65254C134.585 6.57337 136.01 6.40338 137.454 6.28396C138.889 6.13426 140.342 6.05511 141.758 5.85487C144.591 5.4244 147.353 5.03194 150.39 4.49714C151.876 4.27888 153.372 4.11087 154.867 3.95286C156.36 3.85483 157.855 3.68684 159.347 3.64879C165.317 3.37662 171.263 3.594 177.154 4.00988L177.182 4.09068L177.172 4.07041Z" fill="#231F20"/>
</svg>
