<svg xmlns="http://www.w3.org/2000/svg" viewBox="66 0 1659 535" width="1725" height="535" fill="none" preserveAspectRatio="xMinYMid slice">
  <path fill="#12111f" d="M1447.19 444.238c11.67-.868 23.11-2.441 34.66-2.716 11.55-.455 23.14-.471 34.72-.197 8.45.203 16.89.625 25.34 1.068 14.89.761 29.77 1.783 44.66 2.735 7.45.48 14.91.951 22.36 1.371 3.72.206 7.46.441 11.21.525 3.74.105 7.49.13 11.22.135 6.63.003 13.24-.003 19.87.211 6.67.162 13.3-.094 19.87-.379 3.89-.18 7.78-.34 11.67-.439 1.94-.055 3.89-.089 5.83-.104l1.4-.019c.12.006.16.025.31.091.17.075.35.18.53.305l1.24.806c.22.143.46.287.75.419.32.151.73.259 1.11.259.54-.026.89-.106 1.36-.289.43-.182.83-.473 1.14-.792.3-.319.56-.726.58-.737a.37.37 0 0 1 .13-.144c.01-.01.03 0 .05-.011.03.059.09.238.13.346l.27.763c-.51-2.236-.13-.616-.26-1.123l.02-.001h.03l.09-.003.37-.01.73-.031 1.47-.061 2.93-.113 5.85-.244 5.85-.275c1.94-.145 3.89-.26 5.83-.484 2.62-.324 3.74-.506 3.66-.603-.08-.098-1.37-.152-3.62-.379-2.24-.207-5.42-.518-9.24-.58-3.83-.092-8.3-.087-13.14.07l-.56.016-.32.009-.3.008-.15.004-.07.002-.04.001-.02.001-.44-1.879-.16 1.375c-.03.211-.04.502-.09.653-.07.032-.15.054-.22.096a2.5 2.5 0 0 0-.71.611c-.17.225-.44.622-.46.643-.07.082-.12.153-.17.205a.8.8 0 0 1-.24.177c-.05.001-.09.032-.16.044-.04.021-.19.015-.13.024l-.04-.019a5 5 0 0 1-.48-.277c-.38-.239-.8-.547-1.3-.853-.28-.163-.52-.316-.96-.494a3.2 3.2 0 0 0-.73-.199 3.6 3.6 0 0 0-.64-.032l-1.55.023q-3.105.073-6.18.204l-12.3.586c-4.09.176-8.17.331-12.24.385-4.07.065-8.12-.102-12.27-.175-8.25-.128-16.47.013-24.65-.217-4.08-.095-8.17-.37-12.3-.604-4.12-.244-8.24-.498-12.36-.742-20.73-1.298-42.3-3.192-63.58-4.153-11.69-.532-23.41-.842-35.13-.783-11.7.09-23.47.421-35.13 1.62-7.18.662-14.32 1.393-21.46 1.674-3.57.13-7.15.191-10.71.011-3.55-.16-7.1-.47-10.58-1.113a276 276 0 0 0-8.14-1.251c-2.73-.244-5.47-.567-8.21-.73-2.73-.143-5.47-.336-8.19-.439l-8.2-.25c-10.92-.203-21.82-.146-32.64-.092-16.82.094-33.31.137-49.9-.156-3.66-.107-7.22-.217-10.91-.323-13.63-.467-17.87-.938-20.91-.252-.69.139-1.59.235-2 .386-.7.25.32.662 2.77 1.253 1.21.296 2.81.641 4.72.867 1.91.227 4.15.454 6.66.673 14.92 1.031 30.23 1.081 45.71 1.035 15.49-.076 31.18-.357 46.88-.289l8.74.104 8.73.235c2.91.098 5.8.297 8.7.445 1.46.079 2.88.249 4.33.369 1.43.149 2.88.228 4.3.429 2.83.43 5.59.823 8.63 1.357 1.49.219 2.98.387 4.48.545 1.49.098 2.99.266 4.48.304 5.97.272 11.91.055 17.81-.361l.02-.081z"/>
  <path fill="#12111f" d="M1003.19 439.983c11.67.868 23.11 2.441 34.66 2.716 11.55.455 23.14.471 34.72.196 8.45-.202 16.89-.625 25.34-1.067 14.89-.762 29.77-1.783 44.66-2.735 7.45-.481 14.91-.951 22.36-1.371 3.72-.206 7.46-.441 11.21-.525 3.74-.105 7.49-.13 11.22-.135 6.63-.003 13.24.003 19.87-.211 6.67-.162 13.3.094 19.87.379 3.89.18 7.78.339 11.67.439 1.94.054 3.89.089 5.83.104l1.4.019c.12-.006.16-.025.31-.091.17-.076.35-.18.53-.305l1.24-.806c.22-.144.46-.287.75-.419.32-.151.73-.26 1.11-.259.54.025.89.105 1.36.289.43.182.83.473 1.14.792.3.318.56.726.58.736.03.052.07.113.13.144.01.011.03.001.05.012.03-.059.09-.238.13-.347l.27-.762c-.51 2.236-.13.616-.26 1.123h.02l.03.001.09.003.37.01.73.031 1.47.061 2.93.112 5.85.245 5.85.275c1.94.144 3.89.259 5.83.484 2.62.324 3.74.505 3.66.603s-1.37.152-3.62.378c-2.24.208-5.42.518-9.24.581-3.83.092-8.3.086-13.14-.07l-.56-.016-.32-.009-.3-.008-.15-.004-.07-.002-.04-.002h-.02l-.44 1.878-.16-1.375c-.03-.211-.04-.501-.09-.652-.07-.032-.15-.055-.22-.097a2.4 2.4 0 0 1-.71-.61c-.17-.225-.44-.623-.46-.643-.07-.082-.12-.154-.17-.205a.7.7 0 0 0-.24-.177c-.05-.001-.09-.032-.16-.044-.04-.021-.19-.016-.13-.024l-.04.019c-.12.056-.3.162-.48.277-.38.239-.8.547-1.3.853-.28.162-.52.316-.96.494-.24.093-.48.166-.73.199a3.6 3.6 0 0 1-.64.032l-1.55-.024a314 314 0 0 1-6.18-.204l-12.3-.586c-4.09-.175-8.17-.33-12.24-.384-4.07-.065-8.12.101-12.27.175-8.25.128-16.47-.014-24.65.216-4.08.095-8.17.371-12.3.604-4.12.245-8.24.499-12.36.743-20.73 1.297-42.3 3.191-63.58 4.153-11.69.532-23.41.842-35.13.782-11.7-.089-23.47-.42-35.13-1.619-7.18-.662-14.32-1.393-21.465-1.674-3.568-.131-7.147-.191-10.704-.011-3.556.16-7.106.47-10.585 1.112-2.634.446-5.427.878-8.139 1.252-2.728.243-5.468.566-8.203.729-2.736.144-5.472.337-8.196.44l-8.2.249c-10.92.203-21.813.147-32.636.092-16.824-.093-33.309-.137-49.904.157-3.654.107-7.219.217-10.903.323-13.639.466-17.874.938-20.916.252-.686-.14-1.594-.235-2-.387-.703-.25.319-.661 2.767-1.252a40 40 0 0 1 4.726-.868c1.907-.226 4.144-.453 6.662-.673 14.914-1.03 30.222-1.08 45.707-1.034 15.494.076 31.182.357 46.88.289l8.737-.105 8.73-.234c2.914-.098 5.8-.297 8.706-.445 1.452-.08 2.878-.25 4.322-.369 1.434-.15 2.887-.229 4.303-.429 2.834-.43 5.596-.823 8.632-1.358 1.487-.218 2.982-.386 4.477-.544 1.493-.098 2.989-.266 4.48-.304 5.97-.272 11.917-.055 17.812.361l.02.081z"/>
  <path fill="#12111f" d="M750.083 447.907c-11.658-1.025-23.076-2.75-34.618-3.18-11.545-.61-23.128-.781-34.713-.662-8.451.09-16.901.399-25.352.729-14.896.562-29.793 1.384-44.697 2.136-7.452.381-14.914.751-22.374 1.072-3.719.155-7.46.34-11.215.374-3.745.055-7.488.03-11.219-.015-6.632-.086-13.244-.18-19.875-.056-6.668.074-13.29-.272-19.86-.645a575 575 0 0 0-11.665-.595c-1.939-.08-3.888-.141-5.828-.182l-1.4-.038c-.12.005-.161.024-.313.087a4 4 0 0 0-.533.298l-1.244.789a6 6 0 0 1-.758.409c-.326.147-.731.25-1.111.244a3.8 3.8 0 0 1-1.358-.306 3.5 3.5 0 0 1-1.128-.808c-.297-.322-.55-.733-.569-.744-.038-.052-.076-.113-.134-.146-.01-.01-.03-.001-.05-.012-.032.059-.09.237-.134.345l-.282.759c.543-2.229.146-.615.277-1.12h-.02l-.03-.002-.09-.003-.37-.016-.729-.04-1.468-.081-2.926-.152-5.852-.323-5.84-.353c-1.945-.171-3.89-.311-5.822-.562-2.617-.359-3.74-.556-3.656-.652.084-.097 1.377-.133 3.627-.33 2.239-.177 5.423-.445 9.247-.456 3.825-.042 8.296.024 13.141.245l.56.024.319.013.3.012.15.007.07.002.04.002.02.001.458-1.873.143 1.378c.031.211.039.502.083.654.069.032.148.056.216.099.273.161.505.361.705.619.171.228.434.629.453.65.067.083.114.155.162.207a.9.9 0 0 0 .243.18c.049.002.088.034.158.046.039.022.189.018.129.026l.041-.018a5 5 0 0 0 .481-.271c.38-.234.813-.536 1.316-.836.277-.158.523-.308.961-.48a3.25 3.25 0 0 1 1.38-.213l1.549.044q3.103.114 6.174.287l12.289.751c4.084.229 8.169.439 12.238.548 4.069.119 8.117.007 12.271-.01 8.248-.018 16.465.233 24.647.113 4.085-.04 8.177-.261 12.308-.439 4.122-.189 8.244-.388 12.365-.578 20.75-1.019 42.346-2.624 63.632-3.301 11.696-.374 23.422-.528 35.133-.311 11.7.246 23.47.735 35.114 2.089 7.164.759 14.296 1.585 21.437 1.962 3.565.178 7.144.287 10.703.155 3.557-.113 7.111-.375 10.599-.971a272 272 0 0 1 8.154-1.143c2.731-.206 5.476-.493 8.213-.619 2.737-.107 5.476-.263 8.201-.33l8.203-.14c10.922-.056 21.813.146 32.634.346 16.821.318 33.304.583 49.901.512 3.656-.058 7.222-.121 10.907-.178 13.644-.283 17.885-.698 20.917.029.685.148 1.591.256 1.995.413.699.259-.328.657-2.783 1.216a40 40 0 0 1-4.738.804c-1.91.2-4.15.398-6.67.583-14.927.831-30.234.676-45.717.422-15.491-.283-31.174-.774-46.872-.916l-8.737-.013-8.732.118c-2.915.059-5.804.219-8.712.328-1.453.06-2.881.211-4.326.311-1.437.13-2.891.19-4.309.371-2.839.393-5.606.748-8.649 1.242-1.49.199-2.987.346-4.484.484-1.495.078-2.992.226-4.484.244-5.973.193-11.916-.104-17.801-.599l-.026-.081z"/>
  <g fill="#12111f" opacity=".3">
    <path d="M170.409 429.138c.749-.041 1.486-.151 2.214-.262.269-.038.539-.035.798-.082a42 42 0 0 0 2.752-.668c.407-.102.805-.193 1.202-.294.507-.124 1.034-.239 1.496-.522.148-.085.062-.302-.134-.497-.196-.194-.512-.406-.801-.387-.519.044-1.029.059-1.537.143q-.746.156-1.49.372c-.595.187-1.246.145-1.875.183-.689.049-1.389.089-2.079.098-.429.012-.859.024-1.29.007-.651-.022-1.302-.054-1.936-.186-.493-.116-.95-.333-1.414-.5-.101-.028-.203-.075-.313-.092-.393-.079-.559.036-.758.452-.047.091-.095.183-.132.284-.131.323-.032.651.235.873.791.738 1.797.95 2.801 1.052.752.089 1.503.088 2.253.087l-.002-.05zm2.848 7.693a33 33 0 0 0 2.591-.713c.317-.089.636-.148.943-.256a37 37 0 0 0 3.205-1.301c.474-.194.918-.436 1.372-.649.582-.286 1.154-.583 1.652-1.017.156-.134.053-.251-.179-.325-.232-.073-.604-.133-.952-.033q-.905.25-1.826.501c-.595.197-1.158.453-1.751.7-.701.32-1.489.412-2.245.583-.835.194-1.68.358-2.526.522-.517.104-1.045.209-1.573.284-.796.122-1.603.255-2.412.288-.63.018-1.253-.085-1.874-.097-.14.004-.271-.033-.411-.019-.508.064-.663.229-.74.701-.017.111-.044.212-.051.322-.03.351.208.634.592.784 1.142.408 2.33.334 3.527.2.888-.095 1.774-.26 2.659-.425zm12.31 5.146a38 38 0 0 0 1.764-.94c.207-.116.434-.213.64-.339.728-.44 1.393-.989 2.048-1.528.294-.238.587-.466.881-.705.372-.3.753-.621 1.001-1.048.163-.255-.581-.384-.974-.103-.714.55-1.481 1.032-2.236 1.593-.45.333-.984.568-1.497.833-.562.296-1.124.582-1.707.838-.356.15-.711.31-1.078.441-.554.205-1.119.401-1.687.497-.447.083-.898.066-1.329.038-.1.003-.191-.015-.28-.012-.341-.011-.448.092-.527.475-.018.09-.046.171-.053.261-.042.292.115.537.418.619.916.214 1.874.117 2.746-.158a15.5 15.5 0 0 0 1.9-.733l-.001-.03z"/>
    <path d="M176.93 428.024a28 28 0 0 1-2.716-1.244c-.325-.171-.611-.383-.926-.564a21.4 21.4 0 0 1-3.153-2.183c-.45-.357-.842-.776-1.214-1.196-.238-.273-.456-.557-.694-.841-.238-.273-.505-.536-.763-.809-.165-.165-.233-.093-.255.158-.014.24-.021.69.151 1.116.38.689.848 1.336 1.365 1.942.259.303.537.585.825.857.297.262.624.493.95.724.785.528 1.534 1.167 2.349 1.684.896.565 1.83 1.059 2.773 1.513q.868.428 1.763.781l2.701 1.064c.679.301 1.338.623 2.016.894.152.056.294.132.445.187.566.205.795.148 1.019-.078.048-.052.107-.103.145-.154.125-.174-.032-.45-.4-.719a33 33 0 0 0-1.731-1.072c-.599-.323-1.227-.576-1.855-.858-.922-.405-1.844-.819-2.765-1.223l-.019.041zm4.581 10.645c-.77-.348-1.56-.666-2.321-1.065-.771-.368-1.542-.737-2.284-1.156-.558-.284-1.068-.64-1.607-.955a50 50 0 0 1-5.545-3.636c-.806-.567-1.516-1.268-2.273-1.876-.934-.845-1.839-1.709-2.939-2.399-.336-.22-.354-.13-.234.217.139.326.3 1.042.747 1.65 1.697 2.003 3.735 3.686 5.947 5.134 1.314.864 2.623 1.867 3.988 2.729 1.517.928 3.062 1.805 4.683 2.539a53 53 0 0 0 3.008 1.306c.769.319 1.557.577 2.325.865.788.248 1.575.486 2.362.734.615.173 1.221.366 1.816.559l1.835.499c.272.072.535.155.815.167 1.043.101 1.391.021 1.653-.267.059-.061.137-.123.175-.195.124-.223-.254-.503-.962-.773-1.042-.421-2.112-.741-3.182-1.081-1.071-.37-2.151-.73-3.223-1.14l-2.396-.892c-.79-.318-1.589-.636-2.369-.994l-.019.04z"/>
  </g>
  <g fill="#12111f" opacity=".3">
    <path d="M309.608 412.646a94 94 0 0 0-2.447-3.783c-.303-.462-.577-.934-.889-1.375-1.115-1.57-2.377-3.045-3.589-4.521-.539-.665-1.067-1.321-1.596-1.976-.654-.862-1.427-1.641-2.218-2.379-.246-.233-.283-.132-.195.166.088.297.273.832.598 1.354.548.965 1.222 1.816 1.837 2.719.626.893 1.271 1.775 1.926 2.657.8 1.048 1.444 2.26 2.176 3.38a92 92 0 0 1 2.288 3.797c.452.788.895 1.586 1.308 2.394.614 1.233 1.289 2.445 1.815 3.711.407.979.666 2.002 1.044 2.981l.228.654c.323.802.529 1.016.961 1.064.1.007.201.034.291.032.3-.009.418-.432.329-1.09-.147-.966-.295-1.963-.612-2.924a39 39 0 0 0-1.081-2.841c-.569-1.404-1.337-2.723-2.094-4.043l-.04.022zm-12.644-7.857-1.672-2.534c-.199-.305-.378-.63-.587-.934-.73-1.07-1.559-2.077-2.328-3.116-.343-.46-.677-.931-.99-1.403-.388-.619-.874-1.175-1.389-1.701-.164-.166-.241-.063-.245.177-.003.24.019.65.209 1.034.29.692.737 1.29 1.125 1.92.397.619.825 1.227 1.262 1.825.53.715.954 1.544 1.445 2.31.534.845 1.059 1.701 1.573 2.557.315.531.63 1.062.925 1.604.454.818.907 1.635 1.32 2.474.309.652.528 1.336.787 1.999.064.138.118.287.192.425.265.522.438.648.798.627l.24-.006c.249-.047.34-.36.268-.798-.06-.329-.119-.667-.198-.995a18 18 0 0 0-.327-.951 22 22 0 0 0-.823-1.868c-.476-.897-1.01-1.772-1.535-2.648l-.03.021z"/>
    <path d="M292.694 404.56c1.133.078 2.265.146 3.395.124.41.009.821.037 1.231.016a52 52 0 0 0 4.31-.402c.638-.078 1.267-.145 1.895-.223.807-.103 1.614-.216 2.387-.487.238-.087.173-.265-.073-.449-.245-.173-.66-.371-1.12-.348-.81.023-1.62.015-2.419.068-.799.062-1.597.145-2.404.238-.967.127-1.981.005-2.962-.037a74 74 0 0 1-3.268-.208 34 34 0 0 1-2.007-.244 31 31 0 0 1-2.999-.606c-.765-.198-1.466-.549-2.203-.788l-.484-.157c-.615-.162-.854-.116-1.106.162-.058.061-.127.123-.165.184-.144.215.024.51.433.818 1.188.957 2.643 1.497 4.144 1.865 1.118.248 2.262.396 3.396.524l-.001-.04zm13.005 7.767a48 48 0 0 1-3.757-.564c-.463-.077-.906-.195-1.369-.282a102 102 0 0 1-4.85-1.004c-.715-.17-1.431-.37-2.127-.57-.907-.245-1.823-.449-2.766-.553-.291-.032-.287.128-.09.353s.576.564 1.081.76c.445.167.891.355 1.345.512l1.372.392a43 43 0 0 0 2.8.671c1.137.228 2.278.606 3.436.884 1.269.294 2.565.508 3.871.691.794.118 1.606.185 2.408.263 1.224.095 2.455.131 3.665.127.47-.014.941.003 1.411 0l1.399-.04c.21-.005.41-.031.619-.057.767-.112.994-.228 1.105-.551.028-.071.066-.152.074-.222.033-.241-.301-.392-.852-.407-.841-.016-1.651-.023-2.482-.04-.841-.036-1.673-.073-2.524-.099a40 40 0 0 1-3.78-.294l.001.03z"/>
  </g>
  <path fill="#12111f" d="m235.904 224.014-.532-3.946-.452-3.969-.241-2.904a319 319 0 0 1-.819-10.251c-.123-1.518-.176-3.047-.228-4.556-.015-1.94-.22-3.885-.364-5.832-.058-.608-.075-.528-.151-.016-.066.512-.279 1.459-.418 2.583-.264 1.988-.248 3.979-.282 5.97-.044 1.992.063 3.99.259 5.996.218 2.394.268 4.894.457 7.34.196 2.695.491 5.378.847 8.059.196 1.655.473 3.298.709 4.942.41 2.489.87 4.977 1.409 7.423.197.955.374 1.9.62 2.834.227.934.453 1.878.76 2.8.131.406.243.813.384 1.219.652 1.473.983 1.883 1.389 2.072.091.048.193.115.263.123.232.053.203-.626-.079-1.739-.802-3.278-1.49-6.75-2.199-10.252-.513-2.607-.918-5.256-1.283-7.907l-.04.001z"/>
  <path fill="#12111f" d="M185.145 233.986s1.65 26.264 1.888 29.058c.239 2.795 4.03 42.224 2.065 53.814-1.975 11.58-6.99 39.922-13.702 56.638-8.563 21.339-17.441 32.573-17.441 32.573s11.159 6.909 17.324 10.197c6.175 3.287 18.587 6.75 24.526 6.272 9.023-.724 28.717-62.372 29.622-79.635l.712-9.864 1.584 2.607s9.367 12.551 15.043 23.686c6.257 12.269 12.808 42.057 12.808 42.057s-2.224-.468 5.228-3.689 31.914-7.781 35.391-6.858c3.477.922 5.448.216 1.859-8.946-3.589-9.163-32.199-67.781-32.199-67.781s-12.445-25.59-15.616-31.633c-3.172-6.044-8.878-21.479-10.095-25.617-1.227-4.137-3.907-14.415-3.907-14.415s-7.771 5.771-17.39 4.861c-9.619-.9-24.966-5.89-24.966-5.89l-12.724-7.425zm82.733 23.482c.58-.376 1.159-.743 1.697-1.188.206-.146.433-.252.619-.418.684-.569 1.327-1.188 1.96-1.796a20 20 0 0 1 .858-.784c.371-.321.762-.642.989-1.108.076-.143-.149-.326-.453-.458-.303-.121-.696-.22-.922-.084-.817.473-1.616.906-2.245 1.634-.399.421-.963.637-1.455.931-.54.336-1.091.671-1.642 1.007-.345.2-.679.409-1.034.589-.532.275-1.075.561-1.649.747-.436.162-.926.156-1.363.278-.1.023-.2.026-.288.088-.324.21-.388.412-.357.821.003.09.005.19.028.279.048.289.274.503.618.633.516.216.997.222 1.465.169a4 4 0 0 0 1.351-.358c.643-.268 1.253-.606 1.854-.943l-.021-.049zm-132.52-5.634a18 18 0 0 1-1.531-1.057c-.183-.135-.318-.311-.503-.456a24 24 0 0 1-.931-.764c-.318-.252-.635-.503-.933-.785-.276-.232-.475-.536-.732-.779a11 11 0 0 0-.988-.983c-.113-.097-.142-.056-.157.105.004.15-.028.441.05.719.238 1.003.801 1.818 1.511 2.498.431.398.805.878 1.217 1.306.473.457.966.893 1.477 1.299.308.262.635.503.961.734.491.366 1.01.691 1.481 1.068.368.29.669.672 1.047.941.082.068.154.136.245.193.355.16.581.024.815-.213.058-.061.117-.113.165-.164.155-.185.147-.475.047-.812a3.8 3.8 0 0 0-.75-1.049c-.307-.272-.634-.513-.961-.764-.491-.356-.991-.722-1.491-1.078l-.029.031zm53.47-105.565a20 20 0 0 1 5.188-.486c.631.032 1.264.134 1.888.237 2.189.298 4.209 1.352 5.815 2.967.71.701 1.343 1.513 1.907 2.347.365.54.681 1.102 1.027 1.662.356.55.711 1.081 1.077 1.651.23.343.356.22.375-.181a4.3 4.3 0 0 0-.341-1.821c-1.18-2.468-2.938-4.849-5.46-6.329-1.476-.889-3.215-1.53-4.922-1.762a19.8 19.8 0 0 0-5.64.078c-1.146.163-2.268.464-3.369.796-1.665.537-3.244 1.311-4.731 2.173-.58.347-1.161.673-1.701 1.049-.275.188-.57.356-.824.563l-.773.642c-.224.197-.459.363-.664.569-.758.802-.929 1.117-.848 1.504.013.09.026.19.058.259.106.237.562.064 1.179-.403.44-.363.921-.687 1.402-1 .481-.324.963-.638 1.444-.961.941-.667 1.965-1.246 3.011-1.766a21 21 0 0 1 4.924-1.719l-.001-.04zm24.38-8.931c1.638.985 3.086 2.304 4.31 3.851.228.273.426.578.625.872.208.295.397.6.585.904 1.4 2.112 2.359 4.546 2.931 7.091.272 1.132.395 2.299.537 3.446.081.738.132 1.487.193 2.235.091.748.232 1.494.373 2.241.103.467.281.392.52-.015.229-.406.588-1.157.693-2.05.016-1.561.001-3.141-.253-4.715-.254-1.563-.638-3.133-1.231-4.647-.711-1.791-1.425-3.701-2.532-5.361a19.2 19.2 0 0 0-4.475-4.746c-1.103-.779-2.253-1.487-3.498-1.992-1.863-.808-3.866-1.232-5.852-1.426-1.536-.177-3.069-.254-4.605-.101-.339.02-.669.049-1.007.109-.617.117-1.013.268-1.278.456-.255.167-.39.341-.474.563-.037.101-.095.203-.112.284-.052.291.502.446 1.394.48 1.311.034 2.61-.023 3.913.07 1.301.024 2.596.167 3.863.412 1.882.387 3.721 1.026 5.331 2.071l.029-.041zm26.392 11.844c-.224-.504-.429-1.008-.731-1.46-.147-.226-.273-.462-.43-.688l-.498-.636c-.229-.314-.468-.627-.745-.89-.474-.496-1.075-.85-1.616-1.235-.608-.293-1.169-.657-1.804-.839-.273-.103-.546-.205-.81-.328a8 8 0 0 0-.836-.226c-.353-.08-.706-.21-1.077-.21-.362-.07-.747.111-1.105.181-.228.077-.204.206-.037.462l.324.491c.063.098.135.186.208.284.031.049.072.078.114.137l.122.056c1.195.547 2.353.794 3.518 1.332.719.29 1.247.915 1.763 1.491.299.312.519.675.789 1.018.191.385.461.737.602 1.144.097.247.214.494.302.751l.202.785c.142.796.226 1.634.007 2.401a2.2 2.2 0 0 1-.367.82l-.239.367c-.098.103-.194.216-.282.318-.077.093-.165.175-.232.277-.301.319-.243.587-.021 1.021.053.099.096.207.148.296.179.305.541.385 1.056.18.396-.141.648-.428.94-.706.323-.27.503-.625.683-.98.2-.356.31-.729.409-1.122.119-.383.168-.775.177-1.165.097-1.164-.125-2.298-.485-3.348l-.05.001zm-41.08-54.926c.197.965.533 1.886.789 2.819.336.91.672 1.822 1.047 2.702l.824 1.927c1.093 2.2 2.362 4.285 3.551 6.373.546.915.984 1.893 1.45 2.82.237.614.554 1.215.722 1.851.099.307.277.602.396.909.099.317.188.625.287.952.131.407.18.355.29-.008.08-.352.408-1.122.314-1.98-.583-2.964-2.181-5.34-3.599-7.722-.86-1.426-1.565-3.007-2.209-4.559l-.526-1.286-.447-1.308c-.325-.871-.53-1.766-.755-2.66a12 12 0 0 1-.327-1.661c-.076-.558-.181-1.115-.237-1.684l-.113-2.568c.056-.852.102-1.713.178-2.566.213-1.306.618-2.558.963-3.809.083-.272.185-.535.257-.817.281-1.038.231-1.417-.08-1.779-.072-.078-.135-.186-.207-.244-.235-.203-.646.128-1.045.87-.58 1.107-1.268 2.246-1.491 3.553-.152.635-.334 1.28-.426 1.933-.061.662-.132 1.334-.194 1.996-.114 1.994.163 3.997.547 5.937l.05-.001zm47.879-28.099c7.253-7.097 31.088-4.746 39.208 12.552 3.597 7.662 1.081 18.497-5.632 19.556-26.452 4.186-39.525-26.278-33.576-32.108"/>
  <path fill="#12111f" d="M215.263 103.407c-1.128.092-7.74-.232-12.535-7.81-12.418-19.659 5.379-41.698 19.135-39.895 13.867 1.811 17.07 5.072 19.676 12.712s-6.538 17.95-8.121 19.646c-1.583 1.685-8.081 7.2-9.795 6.368s-2.622-5.368-4.014-7.21c-1.382-1.842-3.318-4.128-5.749-2.73-2.422 1.4-4.46 1.837-4.509 5.43-.049 3.583 1.276 9.098 3.332 10.69 2.055 1.593 2.58 2.819 2.58 2.819zm-15.522 338.901s-.039.042-.068.062c-.04.011.02 0-.089.033l-.289.068c-.467.083-1.036.139-1.605.165-1.159.053-2.382-.013-3.584-.089-2.436-.172-4.896-.492-7.339-.904-1.779-.3-3.551-.7-5.313-1.091-3.11-.673-6.213-1.456-9.212-2.462-1.495-.508-2.981-1.056-4.361-1.738-.7-.33-1.361-.712-1.953-1.125-.571-.414-1.106-.929-1.217-1.316-.003-.1-.063-.119-.049-.309l.006-.501c-.009-.339.001-.67.052-1.011.051-.682.172-1.356.303-2.03a27.4 27.4 0 0 1 1.219-3.956c.613-1.668 1.378-3.3 2.183-4.903.815-1.604 1.671-3.188 2.271-4.956.39-1.091.395-.911-.357-.25-.36.34-1.009.749-1.633 1.337-.312.298-.693.599-1.013.978-.309.389-.607.808-.884 1.266a45 45 0 0 0-2.698 5.098 24.8 24.8 0 0 0-1.631 5.678 17 17 0 0 0-.224 3.057l.011.4.129.657c.053.479.291.742.471 1.097.199.315.414.509.631.763.217.224.441.377.657.571 1.768 1.321 3.568 2.021 5.388 2.7 4.355 1.528 8.874 2.861 13.413 3.844 2.496.53 5.01.989 7.541 1.328 2.54.329 5.079.618 7.747.513.41-.012.829-.054 1.257-.116.448-.082.877-.134 1.45-.401 1.067-.48 2.023-1.337 1.99-2.487-.015-.549-.279-1.052-.642-1.492-.176-.225-.392-.419-.607-.613l-.338-.271-.266-.193c-.703-.48-1.415-.87-2.125-1.24-4.302-2.15-8.758-3.705-12.802-5.912-1.412-.771-2.766-1.623-3.954-2.6a13 13 0 0 1-1.614-1.535 6.5 6.5 0 0 1-.614-.834c-.094-.137-.158-.285-.242-.423-.042-.079-.054-.138-.064-.158-.021-.04-.023-.08-.034-.119-.043-.129-.007-.27.049-.392.056-.161.234-.587.375-.891.161-.334.321-.679.482-1.024.614-1.297 1.019-2.169 1.18-2.844.141-.684.098-1.153-.095-1.608-.086-.208-.153-.456-.257-.603-.187-.245-.515-.165-.965.207-.449.373-1.062 1.011-1.615 1.967a39 39 0 0 0-1.315 2.337c-.208.426-.416.833-.612 1.338a5.2 5.2 0 0 0-.3 1.089c.006.2-.049.402-.013.611.003.1.046.198.009.31l.069.298c.097.257.184.515.322.781.085.198.18.355.275.532.189.345.408.659.627.953.447.598.941 1.114 1.445 1.59 1.017.952 2.128 1.681 3.238 2.38 2.239 1.358 4.56 2.423 6.87 3.438 2.33 1.035 4.687 1.979 6.926 2.986 1.105.51 2.211 1.039 3.097 1.624.286.192.245.163.255.173.01 0 .021.019.031.029.021.029.012.06-.008.08l.062.049zm103.223-25.153c1.757 1.621 3.486 3.363 5.295 5.063 1.828 1.679 3.647 3.389 5.947 4.774.792.448 1.635.895 2.731 1.094.272.042.553.085.872.056.3.001.619-.058.936-.157.318-.069.603-.257.889-.415.275-.178.469-.393.723-.631.134-.193.268-.407.392-.611.162-.305.213-.626.284-.928.033-.271.035-.541.038-.812-.034-.489-.088-.978-.21-1.394-.195-.885-.507-1.667-.818-2.428-.663-1.522-1.453-2.931-2.302-4.307a62.6 62.6 0 0 0-5.719-7.682c-1.86-2.129-3.829-4.184-5.923-6.076-2.659-2.406-5.793-4.639-9.512-5.285-1.165-.137-1.006.159-.181.676.834.516 2.163 1.53 3.717 2.696 5.596 4.064 10.381 9.502 14.605 15.255 1.083 1.531 2.08 3.173 2.858 4.892.385.859.709 1.731.924 2.585.233.844.168 1.706.002 1.851a1.26 1.26 0 0 1-.69.369c-.678.099-1.771-.37-2.708-.964-.968-.603-1.909-1.347-2.822-2.131-1.824-1.57-3.564-3.301-5.333-5.022-1.09-1.06-2.181-2.13-3.34-3.158a23 23 0 0 0-1.843-1.488c-.683-.451-1.327-.953-2.452-1.122-2.175-.159-4.383-.757-6.475-1.508-2.093-.772-4.102-1.796-5.723-3.231-1.242-1.115-2.241-2.478-2.624-4.007-.201-.755-.304-1.542-.236-2.335.009-.39.078-.782.137-1.174l.134-.584c.092-.273.059-.752.044-.932a16 16 0 0 0-.378-2.41c-.763-2.92-1.496-3.719-2.205-4.039-.172-.076-.365-.18-.505-.186-.491-.017-.11 1.073.385 3.01.18.725.321 1.462.432 2.199.05.368.091.747.121 1.107.005.18.02.359.015.53l.003.119.001.03c.001.03 0 0-.019.051-.502 1.705-.606 3.689-.003 5.552.562 1.865 1.748 3.473 3.103 4.715 1.366 1.252 2.914 2.219 4.507 3.004 2.373 1.164 4.856 1.934 7.469 2.371.332.051.663.102 1.025.141.17.016.371.03.571.044l.04-.001c.015-.53-.004-.14.013-.26l.005.2-.008.07s0-.01.03-.001c.212.044.7.32 1.118.609.878.615 1.771 1.421 2.644 2.236l.049-.041zm-35.451-139.237.029.319c.004.15.05.339.074.508.026.18.06.339.115.497.044.159.099.317.182.455.266.563.848.967 1.468.969.626-.157 1.267-.125 1.874-.613.236-.136.411-.311.576-.496.165-.175.36-.36.465-.553 1.027-1.54 1.353-3.09 1.681-4.58.23-1.096.49-2.154.661-3.189.067-.472.144-.925.242-1.368.062-.282.062-.262.07-.352.018-.06.026-.151.064-.202.037-.101.072-.302.204-.206.102.048.193.105.286.183l.143.116.309.311c.227.244.454.487.661.752.85 1.036 1.524 2.248 1.861 3.549.212.774.293 1.542.246 2.344a21 21 0 0 1-.281 2.449c-.171 1.045-.442 2.073-.694 3.09l-.367 1.531a9 9 0 0 1-.417 1.523c-.243.597-.184.585.306.201.234-.197.576-.496.965-.887.195-.196.398-.422.582-.667.152-.264.315-.539.436-.843a8.4 8.4 0 0 0 .534-1.645c.134-.554.249-1.118.353-1.681.188-1.136.346-2.261.342-3.481-.026-1.28-.33-2.492-.812-3.608-.491-1.107-1.041-2.172-1.788-3.111a11 11 0 0 0-.683-.822l-.186-.204-.299-.312a6 6 0 0 0-.616-.563c-.43-.338-.867-.586-1.278-.624-.181-.015-.481-.027-.606.167l-.478.443c-.205.526-.493.945-.667 1.51l-.193.635-.135.524c-.18.706-.321 1.39-.412 2.073-.218 1.477-.417 2.943-.83 4.275a5.8 5.8 0 0 1-.82 1.784c-.425.552-.653.608-1.002.658-.221-.054-.268-.302-.304-.501-.012-.07-.028-.3-.035-.52-.006-.21-.002-.44.002-.66.025-.891.099-1.814.163-2.736.09-1.403.16-2.835-.021-4.301-.101-.737-.272-1.493-.683-2.211-.22-.374-.499-.667-.705-.911a24 24 0 0 1-.643-.782 13.5 13.5 0 0 1-2.426-5.504 14 14 0 0 1-.145-1.267c-.021-.399-.07-.718-.078-.998a3 3 0 0 0-.17-.685c-.09-.378-.287-.612-.543-.835-.113-.097-.217-.224-.329-.291-.173-.115-.36 0-.591.307-.242.307-.457.843-.557 1.556-.07 1.052.01 2.14.26 3.194.24 1.053.619 2.093 1.156 3.028a17.3 17.3 0 0 0 1.836 2.67l1.014 1.202c.165.195.176.215.26.373.074.128.138.276.183.455.32 1.061.362 2.541.312 3.973-.038 1.471-.197 2.936-.141 4.595l.04-.001zm16.059-1.334a14 14 0 0 1-.107 2.254c-.032.271-.135.524-.188.786-.214.936-.457 1.903-.841 2.834-.168.415-.397.802-.627 1.179a69 69 0 0 1-.786 1.552c-.076.162-.066.142.061.059.128-.094.424-.222.709-.431.244-.186.499-.384.733-.59.224-.217.397-.472.58-.717.356-.5.682-1.03.915-1.616.301-.679.611-1.398.83-2.135.227-.826.333-1.68.401-2.482.046-.501.061-1.022.077-1.533-.002-.78-.094-1.548-.166-2.316-.066-.588-.013-1.2-.18-1.775a2.3 2.3 0 0 0-.09-.378c-.143-.466-.356-.57-.677-.571-.07.002-.15-.006-.209.006-.2.015-.403.281-.433.632-.025.521-.16 1.045-.117 1.534.014.49.028.98.052 1.479.001.74.012 1.48.013 2.231l.04-.002z"/>
  <path fill="#12111f" d="M281.646 262.554c1.504 1.188 3.04 2.436 4.099 3.796.137.257.292.442.401.769.109.317.248.634.347.951.764 2.259.963 4.705.59 7.106-.16 1.065-.501 2.105-.933 3.078-.575 1.256-1.334 2.378-1.785 3.771-.148.435.013.48.46.338.228-.067.545-.186.911-.336.335-.18.667-.449.948-.787.503-.605.792-1.343 1.123-2.043.3-.718.569-1.456.768-2.212.397-1.512.563-3.097.429-4.664-.133-1.867-.427-3.779-1.067-5.562-.133-.457-.43-1.059-.723-1.52a10.5 10.5 0 0 0-.986-1.253c-.682-.791-1.422-1.481-2.151-2.161a90 90 0 0 0-2.77-2.423c-1.414-1.19-2.857-2.34-4.172-3.594-1.028-.971-1.889-2.057-2.699-3.125-.177-.225-.373-.46-.54-.685a3 3 0 0 0-.803-.808c-.214-.154-.455-.187-.716-.2-.12.004-.241-.033-.331-.03-.251-.023-.473.613-.166 1.565l.457.957c.169.296.347.601.526.896.406.559.84 1.077 1.295 1.584.918 1.005 1.905 1.927 2.91 2.819 1.508 1.309 3.005 2.607 4.54 3.824l.038-.041zm-150.034 4.782c-.379.411-.768.812-1.176 1.234-.39.381-.99 1.078-1.247 1.545-.672 1.01-1.222 2.065-1.794 3.072-.41.732-.87 1.435-1.302 2.107-.335.53-.701 1.021-1.081 1.381-.098.093-.195.186-.284.238-.098.073-.186.136-.276.148-.088.053-.189.036-.248.047-.059.032-.11.003-.171-.005-.16-.015-.263-.113-.319-.321-.067-.258-.087-.608-.067-.969.049-.731.187-1.515.365-2.301a18 18 0 0 1 .538-1.866c.212-.656.408-1.142.744-1.651.422-.632.966-1.238 1.473-2.032.125-.194.239-.417.343-.63.073-.232.157-.465.19-.716.053-.242.066-.482.089-.723a3.3 3.3 0 0 0-.099-.707c-.156-.566-.224-.464-.532-.045-.144.204-.437.472-.7.73-.126.133-.283.248-.429.372-.079.062-.147.124-.226.176-.058.072-.126.144-.174.215-.202.276-.454.553-.745.872a6.5 6.5 0 0 0-.86 1.104c-.567.826-.936 1.917-1.154 2.704a24 24 0 0 0-.625 2.658c-.144.935-.228 1.878.045 3.03.137.617.661 1.472 1.438 1.681.341.05.694.13 1.032.071.32-.009.586-.147.864-.235a4.8 4.8 0 0 0 1.256-.876c.691-.659 1.202-1.364 1.692-2.068.672-.999 1.274-1.997 1.898-2.955.316-.479.633-.958.95-1.417l.241-.347.212-.256.604-.597c1.032-1.009 2.082-2.099 2.979-3.285a16.9 16.9 0 0 0 2.999-6.097c.483-1.704.714-3.451.664-5.211-.011-.389-.072-.768-.132-1.146-.33-1.412-.701-1.781-1.186-1.968-.111-.037-.223-.104-.323-.111-.161-.025-.277.118-.37.391s-.19.685-.177 1.165c-.089 1.453-.15 2.846-.311 4.221-.182 1.375-.614 2.708-1.128 4.003-.796 1.923-1.996 3.718-3.542 5.322l.041.039zm-16.768-.039c.651-1.739 1.534-3.415 2.59-4.995.374-.581.85-1.094 1.254-1.666 1.455-1.972 3.216-3.722 4.986-5.552.777-.813 1.595-1.616 2.351-2.467.97-1.068 1.997-2.268 2.234-3.795.036-.491-.063-.458-.507-.256-.495.174-1.186.534-1.69 1.108-1.609 2.176-3.665 4.135-5.653 6.342-1.194 1.314-2.537 2.652-3.646 4.114a28.5 28.5 0 0 0-3.155 5.191 23 23 0 0 0-1.302 3.518c-.519 1.825-.755 3.733-.782 5.614-.039 1.462-.008 2.912.202 4.356.049.319.088.628.147.946.283 1.173.542 1.486 1.095 1.57.13.017.261.053.381.05.41-.022.584-.577.471-1.384-.338-2.412-.477-4.879-.226-7.327a20 20 0 0 1 1.289-5.378l-.04-.019z"/>
  <path fill="#12111f" d="M116.81 276.375c-.208.797-.406 1.572-.656 2.31-.157.444-.157.444-.184.545a1.3 1.3 0 0 1-.132.284c-.077.132-.234.237-.347.12-.082-.068-.115-.187-.149-.326-.035-.149-.057-.249-.02-.71a25 25 0 0 1 .424-3.063c.144-.904.409-1.802.725-2.651.46-1.084.882-2.086 1.18-3.225.131-.334.089-.383-.319-.321a5 5 0 0 0-.874.215c-.169.064-.397.121-.564.236a2 2 0 0 0-.429.402c-.212.276-.455.543-.596.847-.142.304-.283.608-.405.912a19 19 0 0 0-.628 1.858c-.385 1.241-.478 2.555-.491 3.865l-.003.591-.02.721c-.005.54.024 1.209.089 1.748.085.538.189 1.045.419 1.389.106.187.24.343.414.478s.436.228.656.212c.469-.033.863-.265 1.263-.626.399-.381.754-.922 1.069-1.481a11.6 11.6 0 0 0 .667-1.529c.138-.414.277-.828.395-1.232.302-1.009.524-2.005.848-2.955.479-1.454 1.049-2.88 1.802-4.202.592-1.027 1.336-1.938 2.06-2.879.154-.205.339-.4.483-.614.588-.777.547-1.176.214-1.637-.073-.108-.136-.216-.219-.304-.247-.263-.814-.157-1.35.349-1.436 1.601-2.621 3.585-3.621 5.714-.746 1.571-1.298 3.277-1.743 4.911l.041.018zm101.372-30.824a65 65 0 0 1-8.926-1.529c-1.078-.27-2.128-.621-3.188-.931-3.761-1.054-7.469-2.371-10.998-4.052-1.571-.726-3.077-1.614-4.484-2.575-1.796-1.26-3.368-2.736-4.79-4.187-.413-.478-.651-.382-.75.361-.069.392-.035.902.093 1.528.049.329.207.595.356.901.148.306.337.62.603.843 1.781 1.771 3.77 3.125 5.824 4.308 2.054 1.193 4.241 2.101 6.474 2.879 2.666.915 5.369 2.03 8.132 2.822a71 71 0 0 0 9.26 1.991c1.928.255 3.865.481 5.818.556 2.945.147 5.932.003 8.861-.449 2.27-.374 4.538-.828 6.69-1.849.463-.253.959-.407 1.39-.74 1.711-1.038 1.766-1.96 1.678-2.598-.035-.159-.04-.329-.083-.448-.086-.197-.327-.231-.715-.17a4.4 4.4 0 0 0-1.437.491c-3.162 1.73-6.867 2.704-10.84 2.986a46.5 46.5 0 0 1-8.96-.208l.002.07zm45.879-141.156c.277 3.434-1.28 6.769-3.941 8.905-.469.383-1.257.115-1.551-.357-.356-.57-.112-1.167.357-1.55-.088.072.029-.031.059-.052.078-.062.146-.134.224-.197q.205-.183.379-.38c.234-.247.457-.503.659-.769.058-.072-.009.03.077-.102.049-.062.087-.133.135-.194q.146-.23.277-.458c.181-.315.343-.63.483-.964.085-.193.038-.081.112-.283q.098-.258.166-.515c.1-.343.18-.696.24-1.048.069-.392.068-.432.087-.832a7 7 0 0 0-.032-1.14c-.047-.609.508-1.135 1.088-1.151.64-.018 1.104.489 1.151 1.088z"/>
  <path fill="#12111f" d="M256.207 104.046c.185 2.305.655 4.443 1.145 6.55.182.765.293 1.542.485 2.297l1.032 3.963.398 1.699c.064.139.039.319-.089.403a1.4 1.4 0 0 1-.414.212c-.943.266-2.213.272-3.337.154-1.485-.149-2.914-.459-4.312-.709-.403-.119-.53.015-.345.53.097.257.287.592.567.954.145.166.3.372.495.516.194.135.417.249.649.332 1.659.644 3.354.786 5.112.687.439-.033.888-.085 1.365-.179.179-.035.606-.137.943-.266.346-.13.682-.29.956-.518.537-.445.868-1.124.759-1.822-.005-.17-.05-.358-.085-.537l-.082-.428c-.046-.199-.092-.398-.147-.596-.494-1.897-.789-3.86-1.213-5.759-.459-2.088-.917-4.155-1.145-6.21-.135-1.257-.211-2.535-.003-3.681.135-.874.484-1.634 1.05-2.14.546-.506 1.381-.69 2.262-.675 1.382.072 2.749.653 4.114 1.165.294.122.597.254.891.375 1.123.459 1.619.305 2.078-.108.107-.103.235-.187.322-.29.28-.337-.036-.909-.804-1.537-1.202-.757-2.513-1.49-4.036-1.928a11.6 11.6 0 0 0-2.482-.39c-.9-.015-1.918.084-2.935.563-.74.35-1.445.91-1.917 1.564-.261.318-.421.653-.612.988-.14.344-.271.698-.391 1.041-.362 1.361-.357 2.592-.324 3.771l.07-.002zm-21.226 33.121a29.4 29.4 0 0 0 6.875-1.344c.813-.263 1.627-.506 2.407-.848a27.3 27.3 0 0 0 3.921-2.171 32 32 0 0 0 3.474-2.759c.965-.887 1.9-1.804 2.762-2.779.532-.645 1.054-1.31 1.494-2.032.481-.694.686-1.57.893-2.386.105-.524-.044-.489-.425-.189-.186.156-.45.363-.774.592l-.5.375c-.088.062-.166.134-.264.197l-.203.256c-1.953 2.416-4.17 4.699-6.746 6.652-1.537 1.184-3.396 1.967-5.238 2.639a26.5 26.5 0 0 1-6.342 1.429c-1.336.147-2.686.165-4.038.113a32 32 0 0 1-2.748-.252 22 22 0 0 1-1.358-.232c-.463-.107-.804-.158-1.541-.397-.281-.032-.553-.085-.823-.097-.495.204-.811.703-1.148 1.183l-.73 1.041-1.397 1.92c-.213.266-.415.532-.628.798-.721 1.03-.77 1.442-.543 2.026.054.138.088.287.161.395.211.395.908.255 1.729-.428.956-.848 1.688-1.879 2.42-2.88.327-.469.653-.948.98-1.418.03-.001.04-.001.041.029h.01l.101.027.211.044.835.177c2.354.434 4.737.537 7.105.4l-.002-.06z"/>
  <path fill="#12111f" d="M283.02 98.76c3.16-1.47 5.662-4.261 6.955-7.369 1.333-3.109 1.807-6.543 1.344-9.851-.317-2.382-.944-4.726-1.935-6.899-3.577-7.662-10.349-13.304-17.946-16.311-3.389-1.335-7.005-2.204-10.651-2.352-2.334-.114-4.718.113-7.002.728-2.284.584-4.476 1.636-6.222 3.206-1.093.971-.834.944.379.66.585-.177 1.503-.253 2.478-.45a20.6 20.6 0 0 0 3.283-.663c4.153-1.007 8.556-.971 12.796.04 4.25 1.01 8.325 2.927 11.941 5.546 4.339 3.12 7.842 7.793 9.527 12.927.5 1.407.761 2.87.972 4.335a16 16 0 0 1-.116 4.385c-.449 2.904-1.731 5.7-3.774 7.75-1.265 1.245-2.84 2.18-4.554 2.768-1.724.579-3.558.82-5.409.803-2.803-.061-5.622-.672-8.243-1.75-2.622-1.106-5.124-2.556-7.432-4.222-3.574-2.61-6.615-5.776-9.116-9.327-.571-.764-1.034-1.581-1.597-2.366-.982-1.493-1.601-2.496-2.149-3.14-.509-.677-.869-1.027-1.266-1.276-.174-.115-.378-.28-.51-.335-.232-.084-.244.227-.094.913.139.676.448 1.718 1.004 2.983 3.51 7.424 10.082 13.781 17.828 17.795 2.883 1.5 6.135 2.609 9.467 2.985 3.322.377 6.865.057 10.054-1.444l-.022-.059zm-75.737-39.686c-4.227 4.1-7.304 9.22-9.091 14.672l-.916 3.007c-.221 1.026-.453 2.043-.654 3.07a43 43 0 0 0-.251 10.99c.423 3.65 1.403 7.194 2.809 10.586 1.355 3.003 3.2 5.642 4.835 8.287 1.078 1.681 2.067 3.394 2.907 5.171.85 1.776 1.492 3.609 2.115 5.492.533 1.156.519 1.016.737-.121.144-.574.162-1.365.144-2.345a11.4 11.4 0 0 0-.731-3.22c-.766-2.009-1.77-3.912-2.822-5.723-1.061-1.801-2.229-3.489-3.248-5.211-1.019-1.732-1.925-3.377-2.5-5.292-.326-.93-.682-1.861-.88-2.836-.227-.964-.544-1.915-.662-2.912-.873-4.718-.496-9.82.64-14.584.112-.664.344-1.3.535-1.956l.596-1.938.758-1.872c.242-.627.495-1.254.828-1.844l.93-1.797c.303-.598.718-1.14 1.062-1.71.385-.551.688-1.16 1.134-1.673l1.266-1.576c2.181-2.482 4.679-4.723 7.595-6.306.52-.365 1.125-.552 1.688-.838l1.708-.788 1.764-.6c.596-.157 1.212-.294 1.818-.441 2.447-.49 4.968-.49 7.419-.15 1.909.297 3.755.825 5.506 1.567a30.3 30.3 0 0 1 4.96 2.751 48 48 0 0 1 1.992 1.485c.594.493 1.135.858 1.535 1.227.43.328.855.516 1.191.707.641.392 1.086.57 1.509.658.191.034.423.128.554.134.24.003.182-.275-.065-.869a13.3 13.3 0 0 0-1.441-2.52c-1.25-1.385-2.647-2.706-4.22-3.833-1.572-1.126-3.329-2.047-5.161-2.816-1.833-.778-3.798-1.283-5.789-1.657-2.01-.334-4.072-.356-6.127-.168-3.023.295-6.078 1.221-8.7 2.626l-1.016.488c-.336.17-.64.389-.964.588l-1.897 1.204c-.639.398-1.175.913-1.772 1.37-.567.486-1.196.894-1.7 1.438l.041.06z"/>
  <path fill="#12111f" d="M239.122 75.975c-.748 2.572-2.039 5.04-3.636 7.315-1.607 2.266-3.457 4.41-5.546 6.259a23 23 0 0 1-2.379 1.857c-.412.272-.824.554-1.229.755-.207.106-.413.242-.582.287-.198.065-.296.148-.594.227-.862.274-1.808.46-1.89.373-.132-.056-.203-.085-.318-.291-.137-.237-.257-.593-.38-1.03-.521-1.826-1.036-3.782-2.177-5.581-.575-.884-1.281-1.785-2.339-2.405-1.048-.641-2.364-.804-3.498-.602-1.144.232-2.102.67-3.015 1.295a7.8 7.8 0 0 0-2.153 2.432c-.902 1.696-1.2 3.565-1.129 5.354.05 1.789.46 3.558 1.196 5.178.917 2.025 2.255 4.048 4.291 5.311 2.006 1.245 4.521 1.754 6.683 1.093 1.338-.448 1.075-.551-.064-.879-1.163-.447-3.03-1.025-4.7-2.038-1.506-.908-2.677-2.356-3.526-4.083-.848-1.687-1.231-3.576-1.173-5.419s.682-3.51 1.905-4.475c.587-.477 1.426-.89 2.142-1.03.707-.1 1.289-.037 1.931.355.773.458 1.461 1.45 1.972 2.525.531 1.096.904 2.296 1.211 3.588.189.675.343 1.51 1.118 2.41.382.419.89.705 1.434.83.574.133 1.093.089 1.492.037.418-.051.766-.141 1.124-.231.367-.1.626-.138 1.032-.3.832-.283 1.442-.65 2.072-1.028 2.633-1.705 4.855-3.768 6.862-6.046a32.5 32.5 0 0 0 5.019-7.584c1.575-3.395 2.487-7.253 2.009-11.07a19.4 19.4 0 0 0-1.028-4.193 16.2 16.2 0 0 0-2.098-3.803c-1.756-2.331-4.176-4.064-6.769-5.202-4.051-1.756-8.402-2.424-12.746-2.182-.959.057-1.897.134-2.863.3-.448.074-.856.175-1.223.265-.367.11-.694.24-.991.348-.593.247-1.057.47-1.42.71-.364.23-.638.449-.831.684a1.85 1.85 0 0 0-.421.682c-.084.213-.208.446-.213.617-.004.58 1.285.153 3.626-.193 3.444-.607 7.131-.77 10.709-.17 1.779.3 3.533.77 5.154 1.465a15.8 15.8 0 0 1 4.37 2.808 12.97 12.97 0 0 1 3.737 6.597c.089.318.149.647.198.975.049.329.138.657.148.986.018.65.096 1.298.084 1.949-.061.652-.093 1.313-.204 1.966-.162.645-.284 1.309-.465 1.954l.06.028zm-1.132 72.451c.298.662.409 1.379.469 2.088-.02.711-.07 1.432-.331 2.12-.166.505-.473.974-.79 1.433-1.103 1.671-2.959 2.934-4.986 3.782-.91.365-1.873.602-2.838.82-1.243.255-2.508.44-3.783.646-.398.072-.344.21.011.38.344.151 1.002.422 1.763.441 2.716.163 5.562-.357 8.041-1.847 1.435-.921 2.966-1.974 3.993-3.524.556-.836.948-1.837 1.17-2.834.132-1.024.153-2.055-.085-3.029-.234-1.214-.786-2.338-1.464-3.32-1.043-1.501-2.515-2.64-4.108-3.426-.61-.343-1.256-.554-1.904-.826-.323-.111-.666-.192-.998-.272a4.4 4.4 0 0 0-1.025-.172c-.301-.021-.603-.073-.913-.084-1.139.062-1.47.362-1.636.876-.037.121-.093.243-.1.363-.039.382.43.699 1.135.869 2.103.441 4.011 1.027 5.653 2.152 1.194.846 2.148 2.04 2.656 3.396l.06-.021zm-27.577-13.338c2.515.869 4.803 2.545 6.584 4.686.662.782 1.177 1.668 1.712 2.533a22.2 22.2 0 0 1 2.221 5c.55 1.755.872 3.606 1.115 5.47.207 1.665.274 3.354.301 5.024 0 1.07-.009 2.151.051 3.23.03 1.079.091 2.158.261 3.244.1.677.197.584.451.027.16-.365.339-.76.508-1.165.186-.485.32-1.059.402-1.692.338-2.22.235-4.458.152-6.707-.124-2.247-.368-4.521-.981-6.765a48 48 0 0 0-1.284-4.025c-.527-1.326-1.144-2.629-1.908-3.838-1.676-2.654-4.001-4.949-6.805-6.461a15.3 15.3 0 0 0-5.552-1.775 15.2 15.2 0 0 0-4.409.104c-1.453.251-2.841.701-4.187 1.239-2.066.868-4.017 1.923-5.8 3.254-.392.291-.795.553-1.156.893-1.345 1.238-1.466 1.922-1.308 2.578.044.149.059.318.113.437.095.197.336.23.694.14s.862-.284 1.352-.658c1.541-1.034 3.011-2.146 4.616-3.031 1.596-.895 3.276-1.633 5.015-2.042 2.573-.643 5.295-.599 7.812.33l.029-.06z"/>
  <path fill="#12111f" d="M167.65 159.399c-2.13 2.901-4.107 5.878-6.065 8.814a458 458 0 0 0-5.821 8.937c-1.368 2.209-2.798 4.371-4.116 6.598-4.651 7.854-8.987 15.86-13.497 23.74a294 294 0 0 1-6.222 10.349c-1.359 2.179-2.78 4.31-4.179 6.47-1.431 2.131-2.811 4.291-3.946 6.623-.709 1.461-.532 1.326.573.445.538-.446 1.392-1.03 2.269-1.845.449-.403.927-.846 1.382-1.359.436-.523.87-1.095 1.293-1.708a263 263 0 0 0 8.518-13.344c2.693-4.538 5.275-9.142 7.815-13.786 3.035-5.557 6.509-11.147 9.916-16.625 1.887-3.005 3.793-5.999 5.782-8.926a517 517 0 0 1 6.086-8.745c2.541-3.543 5.176-6.988 8.128-10.133 2.245-2.364 4.685-4.533 7.375-6.33 2.681-1.786 5.611-3.239 8.704-3.546 2.383-.277 4.766.166 6.808 1.279 2.042 1.103 3.731 2.796 5.056 4.75.283.442.565.874.847 1.306.253.453.506.916.759 1.38.465.867.786 1.628 1.104 2.249.268.643.483 1.157.734 1.57.494.827.818 1.308 1.208 1.667.175.165.351.4.484.497.224.153.305-.189.322-.99.009-.4.015-.911-.033-1.53-.057-.608-.246-1.293-.428-2.078-.704-2.261-1.6-4.587-3.109-6.646-1.478-2.059-3.442-3.934-5.897-5.156-2.446-1.231-5.321-1.731-8.033-1.424-2.723.296-5.279 1.199-7.585 2.414-3.371 1.796-6.356 4.141-9.045 6.717a70 70 0 0 0-7.229 8.317l.062.058zm-25.861 92.795a23.5 23.5 0 0 1-5.789-2.388c-.671-.382-1.275-.865-1.927-1.287a49 49 0 0 1-3.281-2.488 30 30 0 0 1-2.963-2.918c-.827-.927-1.546-1.938-2.195-2.98-.409-.668-.848-1.326-1.247-1.995-.448-.648-.956-1.284-1.366-1.973-.272-.422-.28-.362-.297.099-.008.45-.122 1.374.047 2.379.253.833.606 1.624.977 2.394.441.728.912 1.455 1.411 2.141a24.3 24.3 0 0 0 3.439 3.805c1.519 1.377 3.051 2.865 4.815 4.036a26.8 26.8 0 0 0 6.19 3.097c1.334.493 2.733.803 4.122 1.084 2.122.391 4.284.44 6.402.33 1.638-.086 3.277-.142 4.889-.457.348-.08.706-.13 1.054-.23.655-.179 1.049-.4 1.292-.647.253-.237.357-.46.42-.732.026-.121.072-.252.069-.362.011-.35-.615-.523-1.586-.545-.687.099-1.397.109-2.085.178-.688.1-1.377.129-2.075.219-1.388.079-2.776.178-4.169.097-2.063-.082-4.131-.334-6.138-.918l-.018.061zm25.101-28.049c1.38-3.22 2.841-6.402 4.423-9.538.568-1.146 1.228-2.245 1.816-3.382 2.119-3.981 4.349-7.916 6.844-11.677 1.093-1.682 2.309-3.287 3.525-4.851 1.533-2.044 3.272-3.894 4.62-6.123.389-.731.363-.61-.279-.292-.305.169-.861.314-1.372.649-.511.324-1.1.731-1.666 1.237a54 54 0 0 0-2.667 2.966c-.842 1.034-1.612 2.116-2.371 3.198a82 82 0 0 0-4.252 6.753c-1.563 2.775-3.335 5.576-4.875 8.44a159 159 0 0 0-4.751 9.618 163 163 0 0 0-2.59 6.075 132 132 0 0 0-3.367 9.408c-.771 2.463-1.563 4.876-2.031 7.44-.084.573-.229 1.117-.273 1.699-.034.541-.092.983-.061 1.372s.12.697.197.945c.194.504.412.778.657.972.113.086.226.213.318.261.324.141.52-.715.88-2.136.231-2.117.759-4.313 1.357-6.531a98 98 0 0 1 2.093-6.671 134 134 0 0 1 3.875-9.823l-.051-.029zm21.559 106.607c.283-1.319.536-2.636.808-3.965.253-1.327.567-2.626.698-3.991l.507-4.036c.152-1.344.175-2.676.267-4.019.072-1.342.175-2.676.217-4.017l.047-4.013c.075-2.673-.03-5.342-.085-8.011-.015-1.95-.14-3.888-.214-5.836-.075-1.949-.17-3.887-.334-5.823-1.005-13.657-2.746-27.184-3.529-40.767-.124-3.008-.349-6.033-.334-9.054l-.038-4.521c.048-1.502.096-3.004.134-4.496l.099-2.883.229-2.868c.073-.962.167-1.915.219-2.877l.08-1.443.15-1.435c.196-1.916.412-3.823.558-5.748l.749-5.733c.293-2.389.232-2.078-.364-.13a202 202 0 0 1-1.316 4.049c-.644 1.668-1.057 3.701-1.464 5.913l-.528 2.946c-.132.984-.265 1.968-.337 2.961-.164 1.985-.408 3.963-.452 5.955-.075 1.983-.179 3.976-.223 5.968l.008 5.963c.104 7.95.817 15.873 1.65 23.783 1.007 9.465 1.864 19.305 2.406 28.973.125 2.658.31 5.314.334 7.974l.093 3.989c.007 1.33-.026 2.652-.038 3.983-.033 1.331-.015 2.661-.078 3.983l-.239 3.969c-.075 2.663-.542 5.247-.839 7.877-1.13 6.404-2.792 12.753-4.787 18.992-3.036 9.439-6.695 18.755-10.723 27.762-3.155 6.992-6.547 13.71-10.131 20.383-.779 1.473-1.589 2.896-2.398 4.36-1.484 2.742-2.494 4.512-3.078 5.828a14 14 0 0 0-.623 1.659 15 15 0 0 0-.246 1.227c-.05.332-.169.745-.173.965-.15.715 2.153-1.001 4.462-4.987 3.536-5.862 6.773-12.075 9.894-18.466a307 307 0 0 0 8.811-19.655c4.042-9.948 7.666-20.154 10.24-30.701l-.061-.028z"/>
  <path fill="#12111f" d="M215.269 399.756c3.166-9.433 5.969-18.956 8.652-28.505.972-3.489 1.995-6.959 2.897-10.466.793-3.093 1.576-6.186 2.279-9.307.346-1.561.702-3.121.987-4.72l.206-1.216c.059-.412.115-.884.145-1.265l.173-2.386c.471-6.365.781-12.767.56-19.193-.15-5.698-.931-11.398-1.977-16.931-.34-1.781-.72-3.551-1.11-5.321a136 136 0 0 0-1.369-5.254c-.958-3.484-2.016-6.946-3.093-10.377-.68-2.141-.652-1.832-.309.039.367 2.02.983 5.414 1.696 9.416.341 1.801.672 3.613.962 5.415l.963 5.395c.581 3.595 1.053 7.203 1.344 10.817.644 7.224.639 14.517.216 21.892a215 215 0 0 1-.453 6.656c-.252 2.047-.808 4.324-1.317 6.499-1.067 4.402-2.253 8.807-3.451 13.173-2.621 9.607-5.403 19.179-8.458 28.649-1.886 5.825-3.843 11.643-6.135 17.299-.871 2.136-1.771 4.272-2.824 6.292-.533.986-1.084 2.011-1.752 2.801-.638.798-1.491 1.412-2.48 1.81-.464.243-1.011.339-1.517.503-.538.085-1.064.23-1.613.255-1.087.131-2.219.083-3.331.014-2.246-.167-4.48-.634-6.668-1.233-6.807-1.939-13.108-5.103-19.131-8.655a122 122 0 0 1-3.891-2.472c-4.782-3.206-6.27-4.195-7.668-4.466-.312-.071-.687-.22-.897-.224-.693-.111.629 2.083 4.067 4.797 5.142 3.907 10.888 7.247 17.028 10.005 3.07 1.384 6.265 2.585 9.583 3.522 3.326.907 6.798 1.609 10.514 1.425a15 15 0 0 0 4.198-.839c1.396-.509 2.771-1.418 3.788-2.618 1.006-1.208 1.594-2.345 2.222-3.513a62 62 0 0 0 1.652-3.498c2.019-4.679 3.717-9.409 5.354-14.166l-.061-.029z"/>
  <path fill="#12111f" d="M250.13 375.454c-1.225-3.727-2.5-7.443-3.914-11.104-.498-1.337-.946-2.705-1.504-4.02a179 179 0 0 0-6.279-13.758 1524 1524 0 0 1-3-5.998c-1.4-2.482-2.664-5.077-4.576-7.245-.569-.694-.703-.46-.62.368.042.419.128.987.257 1.653.069.329.14.697.259 1.044.13.346.29.702.49 1.056 1.293 2.565 2.575 5.12 3.947 7.652a511 511 0 0 1 3.929 7.723c1.558 3.107 2.794 6.514 4.088 9.819 1.383 3.652 2.727 7.336 3.932 11.053.765 2.29 1.47 4.591 2.145 6.903.49 1.757.99 3.523 1.48 5.28.459 1.768.909 3.536 1.309 5.306.608 2.754 1.045 5.482 1.492 8.231.098.607.184 1.205.282 1.813.373 2.26.713 2.941 1.423 3.311.163.085.326.201.477.247.494.136.766-.872.589-2.558-.521-5.007-1.598-10.199-2.903-15.354-.959-3.835-2.086-7.645-3.243-11.424z"/>
  <path fill="#12111f" d="M283.335 390.047c-1.334.248-2.657.495-3.978.842-.656.169-1.312.307-1.967.496l-1.945.575c-.953.257-1.906.524-2.827.86a50 50 0 0 0-9.334 4.594l-.994.588-.963.628c-.648.418-1.307.807-1.946 1.235a50 50 0 0 0-2.371 1.767c-.7.7-1.308 1.498-1.907 2.275-.366.5-.081.662.578.634.66-.039 1.777-.16 2.733-.657 1.633-.977 3.091-2.128 4.683-3.143.765-.562 1.603-.996 2.409-1.509.795-.532 1.633-.976 2.47-1.46.983-.608 2.082-1.029 3.18-1.47 1.087-.47 2.249-.763 3.348-1.174 1.228-.435 2.49-.761 3.729-1.146 1.273-.286 2.533-.651 3.817-.887l2.378-.448 2.402-.327c2.423-.299 4.889-.468 7.32-.446 1.893.076 3.731.335 5.577.533.402.049.804.107 1.215.156 1.516.167 2.022.043 2.446-.529.097-.133.213-.256.28-.388.217-.436-.356-.911-1.486-1.249a28 28 0 0 0-2.559-.638c-.875-.156-1.752-.401-2.654-.446a81 81 0 0 0-2.716-.173c-.91.005-1.83.011-2.75.007-1.36.028-2.727.147-4.085.255-1.355.178-2.723.297-4.066.535l.001.07zm-15.23-82.896-8.488-15.837c-1.395-2.642-2.79-5.294-4.045-7.93-1.177-2.728-2.395-5.454-3.513-8.214l-2.361-6.076-2.184-6.141a250 250 0 0 1-6.493-22.046c-1.82-7.452-3.203-15.006-4.307-22.608-1.001-6.744-1.613-13.58-2.083-20.329-.312-4.333-.495-8.69-.697-13.046-.153-4.357-.345-8.704-.798-13.053-.286-2.713-.406-2.339-.761-.038-.346 2.3-1.146 6.565-.924 11.6.461 17.835 2.216 35.732 6.202 53.337 2.397 10.517 5.344 21.378 9.137 31.736 1.011 2.862 2.18 5.661 3.27 8.491 1.209 2.787 2.328 5.587 3.626 8.351 2.686 5.497 5.556 10.768 8.387 16.121 3.486 6.564 6.962 13.129 10.448 19.684 5.222 9.957 10.417 19.994 15.242 30.053 3.751 7.817 7.122 15.626 10.276 23.56.67 1.752 1.319 3.474 1.999 5.246 2.317 6.607 3.074 8.647 4.161 9.937.238.293.51.696.694.86.328.271.392-.301.265-1.608-.166-1.285-.336-3.402-1.205-5.858-.296-.922-.592-1.854-.879-2.786l-.449-1.398-.509-1.377c-.682-1.831-1.374-3.672-2.067-5.534-1.513-3.648-2.998-7.358-4.671-11.003-3.238-7.341-6.824-14.633-10.431-21.925-5.406-10.812-11.07-21.537-16.753-32.221l-.069.022z"/>
  <path fill="#12111f" d="M255.626 221.31a468 468 0 0 0 9.317 11.522c1.15 1.388 2.26 2.798 3.429 4.165l3.785 4.376c.64.712 1.241 1.465 1.833 2.229l.436.568c.135.186.322.421.342.43.084.128.338.281.183.455-.066.132-.055.162-.228.407l-.471.703c-.367.451-.694.93-1.112 1.372a31 31 0 0 1-2.518 2.582 40.5 40.5 0 0 1-6.521 5.026c-3 1.825-6.118 3.353-9.37 4.405-1.018.429-.926.506.084.848.253.103.565.174.937.254.352.05.763.088 1.224.125.924.104 1.96-.055 3-.424 3.686-1.254 6.846-3.414 9.802-5.738.744-.581 1.447-1.211 2.159-1.842a38 38 0 0 0 1.993-2.047c.321-.349.641-.708.94-1.087.31-.378.62-.737.898-1.145.289-.409.589-.777.846-1.235l.421-.692c.17-.335.339-.719.5-1.074l.034-.181.061-.322.018-.081-.001-.04.01-.02-.11.003-.001-.02-.005-.16-.048-.308-.119-.307c-.241-.374-.633-.813-.891-1.076l-1.164-1.227c-.793-.798-1.499-1.689-2.233-2.548-1.449-1.73-2.909-3.48-4.348-5.21-3.188-3.792-6.337-7.605-9.407-11.49a279 279 0 0 1-5.547-7.257c-2.735-3.714-5.422-7.49-7.852-11.364-1.896-3.007-3.543-6.082-5.121-9.199-.34-.691-.669-1.372-1.009-2.073-1.352-2.533-1.883-3.288-2.643-3.627-.172-.075-.366-.199-.507-.225-.462-.098-.357 1.15.41 3.179.543 1.516 1.234 2.977 1.966 4.437a82 82 0 0 0 2.353 4.345c1.651 2.875 3.462 5.705 5.351 8.483 2.807 4.133 5.791 8.15 8.834 12.106l.049-.031z"/>
  <path fill="#12111f" d="M251.345 249.401c-.56-1.065-1.11-2.13-1.72-3.173-.22-.374-.392-.79-.622-1.153-.808-1.318-1.654-2.605-2.471-3.902-.376-.57-.723-1.16-1.05-1.751-.382-.78-.902-1.486-1.5-2.139-.196-.205-.362-.06-.483.264-.111.323-.226.866-.092 1.363.539 1.725 1.422 3.241 2.483 4.672.634.862 1.063 1.881 1.59 2.826l1.748 3.112c.358.64.697 1.291 1.025 1.942.488.997.986 1.993 1.376 3.023.312.791.515 1.606.758 2.419.055.179.12.347.184.515.269.643.473.807.795.868.071.018.151.036.212.044.21.004.33-.329.325-.869.027-.821-.125-1.607-.317-2.402-.102-.398-.203-.795-.314-1.182l-.422-1.148c-.443-1.138-.954-2.245-1.475-3.34l-.039.021zm215.542 210.35s-2.561-1.069-3.055-2.995-5.262-2.823-5.063-2.169c.198.655-1.962-4.997-1.962-4.997l9.587-.269s3.157 10.175 1.82 10.302zm-27.389-54.691s-9.561 2.94-9.881 2.229c-.32-.712 3.262-3.163 3.609-5.064.347-1.9 1.354-6.27 3.772-7.099 2.417-.828 10.431-1.524 12.22 3.748 1.941 5.708.245 8.696.245 8.696s13.055 8.196 16.41 16.125c3.354 7.929 7.951 19.834 5.618 22.971-2.843 3.822-8.942-9.922-11.398-14.705-4.001-7.8-5.348 6.553 5.381 15.615 1.825 1.539-18.119 1.7-23.503-1.219s-10.619-16.178-8.458-26.473c1.658-7.92 1.815-9.075 6.063-12.045 2.188-1.532-.078-2.789-.078-2.789z"/>
  <path fill="#12111f" d="M458.658 459.552a37 37 0 0 1 .772 3.63c.083.448.076.908.148 1.356.123.797.235 1.594.348 2.402q.201 1.21.358 2.42c.09.718.131 1.447.171 2.157.026.919.172 1.845.358 2.761.058.288.167.245.3-.009.133-.244.37-.701.455-1.233.184-.946.227-1.877.261-2.829.023-.941.016-1.891-.08-2.839-.132-1.136-.106-2.327-.199-3.495a51 51 0 0 0-.488-3.858 33 33 0 0 0-.487-2.357c-.263-1.183-.656-2.343-.979-3.514-.266-.903-.491-1.807-.826-2.688-.066-.198-.121-.397-.226-.574-.389-.669-.742-.769-1.181-.717-.1.013-.21.006-.289.038-.278.068-.426.502-.42 1.082.093.818.276 1.603.438 2.389.061.399.182.785.312 1.162l.333 1.161c.323 1.161.636 2.343.87 3.547l.06-.002zm4.346-.212c.294 1.212.509 2.446.674 3.692.073.458.026.92.089 1.378.165 1.616.411 3.26.448 4.909.02.73.001 1.471-.028 2.192-.064.932-.168 1.866.049 2.83.059.298.228.273.492.056.244-.227.752-.631.927-1.167.214-.956.397-1.911.519-2.885.093-.973.075-1.963-.013-2.951-.093-1.178.023-2.412-.091-3.619a41 41 0 0 0-.512-3.967 53 53 0 0 0-.508-2.417c-.275-1.213-.658-2.412-1.022-3.583-.315-.911-.472-1.857-.857-2.746-.076-.198-.131-.397-.247-.584-.409-.678-.742-.789-1.191-.737-.11.014-.209.016-.309.039-.308.079-.426.502-.419 1.092.157 1.697.611 3.244 1.017 4.854.333 1.181.677 2.372.911 3.605l.06-.001zm3.521-2.191c.305 1.232.49 2.497.616 3.774.033.469-.014.931.02 1.4.076 1.658.144 3.347.072 5.05a17 17 0 0 1-.297 2.239c-.164.945-.307 1.9-.128 2.925.049.319.198.304.503.106.157-.095.353-.24.578-.427.118-.093.225-.186.342-.299.059-.052.097-.113.165-.165.029-.061.067-.122.095-.193.197-.476.393-.951.55-1.436.116-.493.222-.987.298-1.489.172-.995.253-2.018.254-3.048-.004-1.231.17-2.506.154-3.776-.009-1.39-.168-2.786-.367-4.161a36 36 0 0 0-.491-2.518c-.305-1.251-.71-2.481-1.054-3.691-.267-.943-.484-1.897-.77-2.82a2.7 2.7 0 0 0-.217-.604c-.36-.72-.615-.893-1.095-.879-.11.003-.22-.004-.32.009-.329.049-.497.464-.49 1.064-.015.911.12 1.767.244 2.634.075.878.308 1.712.492 2.557.295 1.252.52 2.496.786 3.739l.07-.002zm-25.631-64.355c-1.558.094-3.136.549-4.493 1.387a9.7 9.7 0 0 0-3.218 3.302c-.136.154-.392.661-.483.994-.1.363-.15.685-.182.986-.053.591-.04 1.081-.048 1.502.009.329-.023.591-.069.732.011.05-.16.355-.363.62-.395.542-.879 1.105-1.374 1.67l-.378.42-.592.637c-.418.452-.815.914-1.113 1.342-.298.439-.447.823-.497 1.175-.009.38.291.752.687.961.194.114.406.178.618.262.202.085.424.149.685.181.495.146 1.094.119 1.675.133.28-.008.599-.037.849-.054.199-.005.399-.031.598-.067a18 18 0 0 0 2.318-.445c.973-.257 1.935-.565 2.853-1.011.928-.436 1.739-1.119 2.397-1.918.395-.521.144-.584-.423-.458-.268.067-.666.139-1.084.22-.428.093-.927.117-1.392.32-1.237.485-2.579.763-3.916.91-.329.04-.668.069-.998.078l-.49.014c-.09.003-.039.041-.069.022-.049.031-.119.053-.288.078-.29.008-.214-.134-.169-.325a.8.8 0 0 1 .104-.203l.601-.687c.407-.472.824-.934 1.239-1.456.203-.266.416-.532.617-.857a3.2 3.2 0 0 0 .321-.65c.084-.232.138-.444.172-.655.137-.824.069-1.452.074-1.993a3 3 0 0 1 .059-.732.7.7 0 0 1 .065-.202c.028-.07.144-.224.22-.336.164-.235.316-.499.5-.724l.572-.647a6.66 6.66 0 0 1 2.964-1.674c1.391-.369 2.932-.332 4.385.087 1.089.31 2.182.759 3.091 1.424.898.645 1.604 1.555 2.074 2.592.735 1.61.797 3.439.443 5.1-.09.363-.19.716-.32 1.069-.494 1.285-.47 1.794-.275 2.319.054.118.088.268.14.356.095.158.285.152.59-.016.306-.159.707-.49 1.092-1.022 1.948-3.286 1.772-8.133-1.193-11.471-2.34-2.445-5.409-3.429-8.588-3.339l.002.07zm-11.435 41.22c.83 3.178 2.317 6.257 4.596 8.674.815.887 1.689 1.733 2.689 2.415 1.765 1.231 3.747 1.985 5.693 2.541 1.967.555 3.948.909 5.926 1.174 1.757.23 3.523.431 5.268.572 1.123.078 2.245.147 3.376.165.56.004 1.121.008 1.69-.008.561.004 1.126-.172 1.684-.257.696-.15.604-.217.007-.461a30 30 0 0 1-1.216-.536c-.495-.186-1.088-.269-1.72-.331-4.482-.374-8.946-.799-13.286-1.817-1.29-.324-2.573-.768-3.76-1.365a15.3 15.3 0 0 1-3.244-2.23c-2.154-1.9-3.717-4.467-4.656-7.252a20.7 20.7 0 0 1-1.051-5.352c-.179-2.796-.069-5.67.242-8.48.188-2.196.658-4.321.948-6.49.066-.482.143-.944.189-1.425.085-.903.118-1.494.056-1.933-.072-.438-.199-.694-.386-.919-.083-.098-.157-.236-.238-.294-.133-.106-.29.008-.492.314a5.1 5.1 0 0 0-.65 1.429c-.303.959-.596 1.918-.899 2.897-.302.978-.494 1.984-.705 3.001a61 61 0 0 0-.564 3.087c-.16 1.045-.201 2.106-.261 3.168-.131 3.155-.098 6.446.694 9.725l.06-.002z"/>
  <path fill="#12111f" d="M466.624 428.715a48 48 0 0 1 3.425 10.768c.248 1.353.377 2.73.495 4.087.124 1.197.088 2.409 0 3.552a18 18 0 0 1-.107.843l-.033.241-.026.151c-.027.101-.054.211-.121.303-.067.102-.198.086-.298.079a1.2 1.2 0 0 1-.322-.071 1.2 1.2 0 0 1-.263-.113c-.112-.067-.234-.113-.346-.18-.467-.267-.927-.604-1.387-.952-.911-.724-1.765-1.581-2.561-2.488-1.416-1.621-2.619-3.468-3.652-5.35-1.359-2.433-2.222-5.029-3.503-7.534-.413-.789-.479-.677-.676.149-.227.816-.513 2.415.033 4.04a36.4 36.4 0 0 0 4.107 7.998c.855 1.247 1.78 2.451 2.842 3.572 1.081 1.1 2.223 2.208 3.805 2.964.243.123.435.197.87.365.353.1.716.19 1.077.24.703.09 1.431.01 1.907-.514.476-.483.726-1.201.886-1.935.098-.423.093-.593.136-.855.023-.24.046-.481.059-.722.063-.962.057-1.892.011-2.821a36 36 0 0 0-.178-2.756c-.442-3.999-1.442-7.893-2.828-11.635a50.5 50.5 0 0 0-3.069-6.686c-1.793-3.261-4.009-6.3-6.497-9.031-1.921-2.127-3.948-4.141-6.228-5.887-.501-.386-.992-.773-1.522-1.128-2.036-1.223-2.962-1.087-3.636-.848-.158.064-.337.1-.445.163-.177.115-.091.342.17.725.27.363.697.941 1.332 1.453.913.815 1.893 1.528 2.855 2.281a52 52 0 0 1 2.788 2.402 45 45 0 0 1 5.077 5.49 45 45 0 0 1 5.775 9.681l.059-.022z"/>
  <path fill="#12111f" d="M397.312 450.204s-2.124 8.413-2.482 9.924c-.357 1.511-4.016 2.684-5.448 5.125-3.005 5.167-3.887-2.331-5.647.159-1.761 2.491 6.937-12.65 5.707-16.157-1.229-3.507 7.87.949 7.87.949" opacity=".3"/>
  <path fill="#12111f" d="M390.409 412.524s-.727-9.824 2.911-10.997 7.05-2.599 8.806.443c1.757 3.042 2.728 5.905 2.099 8.464-.628 2.549-1.654 5.189-1.654 5.189s4.562 6.784 4.669 12.723c.108 5.94-1.845 17.979-3.345 19.762-1.501 1.773-6.557.185-6.557.185s1.744-12.674.541-15.231c-2.437-5.204-12.189-3.359-13.61 7.635-.782 5.985-.191 6.388-1.518 6.866-1.337.478-4.153-.774-4.153-.774s-1.29-5.305-.387-13.734c.903-8.439 3.683-14.54 5.981-16.415s6.227-4.107 6.227-4.107z" opacity=".3"/>
  <path fill="#12111f" d="M391.607 395.402c-.609.428-.881 1.416-1.026 2.32l-.05.342-.023.23-.039.412-.047.811c-.019.401-.088.793-.056 1.222.014.49.131 1.097.333 1.532.117.216.243.433.447.587.175.175.435.178.658.252.241.053.521.045.781.038s.569-.046.698-.06l.998-.118c.588-.076 1.166-.143 1.754-.219.379-.051.748-.101 1.125-.192.389-.061.721-.35 1.054-.6.195-.175.102-.273-.152-.416-.253-.103-.674-.481-1.066-.55-.68.019-1.391-.011-2.092-.031-.35-.01-.709.04-1.068.06l-.529.055-.13.003s-.019.031-.039.032l-.079.052c-.127.083-.367.12-.382-.06-.034-.159-.025-.189-.02-.709.008-.451.044-.932.091-1.393l.04-.352c.017-.12.007-.12.015-.19.007-.11.024-.231.04-.351.017-.101.034-.211.081-.313.019-.06.078-.072.119-.063.05-.002.1-.003.15.016.09.007.172.045.272.072.112.047.213.094.335.161l.193.104.285.172c.377.24.745.52 1.084.82.523.476.939 1.044 1.365 1.592.093.118.167.256.28.353.401.389.582.413 1.018.261.099-.033.208-.056.297-.098.317-.109.415-.522.232-1.007-.24-.714-.676-1.272-1.112-1.82a12 12 0 0 0-1.533-1.527c-.359-.29-.575-.504-1.319-.993-.316-.212-.691-.401-1.026-.572-.353-.08-.696-.18-1.047-.21a1.5 1.5 0 0 0-.467.093c-.069.042-.17.005-.207.106-.08.032-.169.044-.238.096l.032.059zm-2.48 14.607c-.023-.45-.026-.92.031-1.382.025-.171.091-.323.116-.493.073-.603.165-1.246.399-1.832.092-.263.235-.517.348-.77.151-.335.362-.631.472-1.014.036-.121-.045-.169-.205-.164-.16.004-.43.022-.636.148-.354.23-.666.508-.968.807-.21.356-.41.722-.508 1.125-.127.484-.435.912-.541 1.416a8.4 8.4 0 0 0-.223 1.657c-.021.34-.001.68-.002 1.02.015.52.119 1.027.203 1.525.051.389.053.789.114 1.187.022.09.025.18.047.269.099.317.251.383.639.282.089-.022.179-.035.258-.067.287-.098.471-.314.495-.524.082-.653.065-1.243.069-1.843.007-.44-.085-.888-.078-1.338l-.04.001z"/>
  <path fill="#12111f" d="M406.028 408.711a12.5 12.5 0 0 0-.765-3.379 11 11 0 0 0-.474-1.198 8.6 8.6 0 0 0-3.151-3.202c-.58-.334-1.179-.647-1.836-.889l-.664-.131c-.23-.014-.461-.037-.701-.03-.478.093-.951.326-1.29.716-.214.236-.009.39.307.622.326.201.69.691.928.954.213.104.435.178.668.301.233.094.504.126.767.239.536.185 1.084.46 1.654.804.692.42 1.064 1.21 1.425 1.94a9.3 9.3 0 0 1 .856 2.687 10 10 0 0 1 .13 1.797c-.014.911-.118 1.854-.383 2.742-.21.696-.573 1.317-.915 1.947-.076.142-.163.264-.239.407-.255.527-.189.765.251 1.103.102.077.195.165.297.232.336.22.784.148 1.094-.221.889-1.106 1.48-2.503 1.808-4.003.249-1.117.326-2.28.273-3.449l-.05.002z"/>
  <path fill="#12111f" d="M404.469 416.97c-1.533-1.838-3.516-3.362-5.793-4.279-1.134-.478-2.351-.724-3.575-.849a13.5 13.5 0 0 0-3.645.222c-1.731.359-3.383 1.006-4.838 1.937-2.564 1.653-4.581 3.92-6.091 6.454a24 24 0 0 0-1.849 3.963 30 30 0 0 0-1.234 4.147c-.55 2.496-.908 5.047-.897 7.578-.029 3.232.425 6.561 1.947 9.459.445.898.412.769.397-.101a11.6 11.6 0 0 1 .11-1.794c.039-.731.086-1.573.061-2.453-.158-3.116-.204-6.186.21-9.239a31.6 31.6 0 0 1 2.481-8.884c1.507-3.323 4.356-6.235 7.644-7.788 1.807-.851 3.817-1.238 5.784-.993 1.967.225 3.852 1.082 5.449 2.358 1.955 1.576 3.486 3.733 4.453 6.107.701 1.781 1.097 3.791 1.413 5.773.296 1.982.433 3.989.409 5.99-.043 3.103-.588 6.119-1.508 8.976a58 58 0 0 1-.699 1.841c-.458 1.143-.818 1.844-.962 2.418-.154.564-.164.935-.073 1.322.045.169.051.379.115.507.096.218.354.14.755-.171a6 6 0 0 0 .712-.66c.262-.288.481-.664.739-1.091 1.469-2.553 2.337-5.478 2.833-8.464.456-2.994.55-6.067.274-9.121-.204-2.285-.557-4.496-1.192-6.789a17.7 17.7 0 0 0-1.364-3.353 17.3 17.3 0 0 0-1.996-3.025l-.049.031z"/>
  <path fill="#12111f" d="M400.12 440.851c-.014-1.19-.127-2.377-.23-3.555-.032-.429-.024-.859-.077-1.298a44 44 0 0 0-.837-4.518c-.169-.666-.328-1.331-.497-1.997-.152-.426-.234-.864-.436-1.288-.106-.207-.261-.403-.397-.589-.155-.186-.37-.35-.554-.505-.245-.183-.369.041-.489.404-.064.212-.128.434-.173.615-.054.202-.136.474-.121.674.39 1.399.576 3.055 1.072 4.672.268.982.238 2.054.317 3.082.082 1.138.134 2.287.167 3.436.02.71.03 1.42.009 2.121-.03 1.071-.069 2.153-.24 3.198-.137.814-.426 1.583-.694 2.341-.055.171-.131.323-.156.504-.102.643.005.89.463 1.178.102.067.194.134.285.182.285.152.751-.002 1.068-.461.125-.173.24-.346.355-.52.116-.173.16-.364.245-.557a11 11 0 0 0 .368-1.151c.188-.785.335-1.59.422-2.393.147-1.194.173-2.405.199-3.607l-.06.002zm-14.263.081c.046-.481.093-.963.159-1.445.047-.481.093-.973.159-1.445.051-.351.151-.694.201-1.036.083-.622.176-1.235.288-1.849.073-.622.196-1.236.329-1.85.145-.524.32-1.059.557-1.526.151-.314.282-.628.424-.932.12-.334.283-.618.454-.933.094-.203.012-.271-.227-.234a2.7 2.7 0 0 0-.497.114c-.208.066-.436.162-.601.317-.686.53-1.075 1.251-1.396 1.96-.33.71-.559 1.446-.718 2.201-.155.905-.439 1.803-.624 2.719a35 35 0 0 0-.405 3.012l-.158 1.856-.221 2.807c-.08.722-.25 1.418-.34 2.14-.026.161-.061.312-.067.472-.031.301.015.51.138.647.114.137.256.213.458.277.091.027.182.065.273.072.291.052.574-.196.783-.602.346-1.21.54-2.506.703-3.811.123-.964.225-1.947.368-2.912l-.05.002zm-.35 19.218c-.547 1.206-1.204 2.365-1.842 3.543-.227.437-.507.825-.745 1.251-.827 1.514-1.736 3-2.737 4.409-.432.643-.915 1.236-1.409 1.821-.639.748-1.3 1.457-1.897 2.254-.184.245-.02.361.309.321a2.53 2.53 0 0 0 1.294-.586c1.532-1.374 2.95-2.875 4.041-4.626.661-1.039 1.484-2.022 2.185-3.073.778-1.152 1.433-2.381 2.069-3.609.368-.771.757-1.532 1.095-2.322q.41-.882.76-1.792c.253-.597.476-1.204.679-1.82.314-.949.688-1.87.9-2.866.054-.222.118-.424.152-.645.076-.842-.002-1.12-.347-1.311-.082-.047-.153-.095-.234-.123-.262-.083-.534.215-.709.75-.515 1.605-1.312 3.158-1.966 4.787-.506 1.205-1.022 2.43-1.649 3.618l.041.029zm3.751 1.426c-.23.696-.461 1.383-.722 2.061a26 26 0 0 1-.803 2.053c-.206.496-.503.945-.73 1.431-.385.872-.852 1.705-1.288 2.558-.447.852-.913 1.696-1.441 2.491-.439.733-1.011 1.379-1.533 2.044-.717.821-1.476 1.592-2.151 2.472-.203.275.012.429.402.428a2.63 2.63 0 0 0 1.514-.572c1.728-1.52 3.352-3.206 4.566-5.201.727-1.181 1.554-2.375 2.249-3.625.741-1.381 1.402-2.8 1.93-4.276.325-.909.629-1.818.904-2.736.431-1.393.71-2.831 1.051-4.231.249-1.098.539-2.176.688-3.291.043-.241.106-.483.079-.733-.046-.929-.204-1.224-.7-1.43-.112-.047-.203-.105-.304-.132-.302-.081-.703.27-.935.897-.729 1.831-1.137 3.683-1.594 5.587-.36 1.4-.731 2.811-1.242 4.186l.06.029z"/>
  <path fill="#12111f" d="M392.882 461.663c-.465 1.604-.97 3.189-1.577 4.737-.224.566-.53 1.085-.754 1.651-.896 1.926-1.73 3.921-2.982 5.667-.248.407-.568.766-.868 1.134-.31.359-.579.757-.92 1.087l-1.274 1.296c-.459.393-.897.816-1.325 1.258-.262.277-.118.413.271.392.39-.021 1.056-.169 1.685-.567 1.059-.77 2.116-1.59 2.989-2.575.456-.483.841-1.014 1.216-1.555l.568-.806.486-.854c.391-.682.812-1.364 1.202-2.065.401-.692.781-1.403 1.111-2.132.745-1.592 1.329-3.239 1.893-4.885.322-1.02.613-2.048.884-3.076.426-1.553.772-3.143 1.169-4.685.326-1.2.653-2.37.92-3.557.063-.262.136-.514.178-.786.152-.994.042-1.342-.196-1.615-.051-.059-.104-.137-.165-.175-.183-.135-.464.223-.815.893-.461 1.013-.832 2.074-1.242 3.136-.4 1.062-.67 2.16-1.009 3.25-.495 1.614-.949 3.248-1.515 4.824l.051.019zm-141.593-360.3c-.334 1.99-.785 4.094-1.917 5.806-.806 1.223-1.944 2.376-3.447 2.648-3.075.567-5.149-2.396-5.784-5.039-.521-2.166-.395-4.421.145-6.567.351-1.4 2.537-.871 2.186.54-.216.846-.362 1.68-.4 2.481-.039.752-.002 1.691.105 2.318.085.518.306 1.282.543 1.876.022.049.118.257.022.049.031.059.053.119.085.178.063.128.127.256.2.374a10 10 0 0 0 .345.531c.021.029.198.254.094.127-.083-.107.144.156.186.205.093.098.195.185.298.272.092.077.285.202.072.068.122.076.234.153.356.21.111.057.344.14.091.057.111.037.222.074.343.101.091.017.181.035.282.052-.342-.071.08-.002.19-.005.14-.004.298-.049.06-.002.119-.034.238-.057.357-.09.06-.022.366-.151.228-.077-.167.085.069-.042.079-.052.069-.042.147-.084.216-.126.099-.063.187-.135.285-.198-.206.156.146-.134.195-.186.107-.103.214-.216.311-.329.058-.061.116-.133.164-.204.019-.031.202-.276.096-.123 1.136-1.583 1.511-3.554 1.838-5.444.103-.603.803-.963 1.357-.828.625.152.922.764.829 1.357zm-11.829 23.273c.032.08.064.169.107.248l-.118-.267c.171.375.391.729.65 1.042l-.187-.225q.326.396.74.7l-.235-.174q.337.246.732.4l-.273-.103c.242.093.484.147.735.18l-.301-.032c.131.016.261.023.401.019.59-.017 1.164.477 1.151 1.088-.013.61-.458 1.143-1.088 1.151-1.08.03-2.072-.382-2.881-1.069-.728-.61-1.231-1.436-1.576-2.307-.107-.257-.038-.629.086-.873a1.1 1.1 0 0 1 .655-.538c.288-.079.608-.068.872.085.265.153.421.368.539.655zm11.354-34.864c-2.429-2.793-6.63-4.196-10.339-4.111-1.77.04-1.847-2.71-.078-2.75 2.5-.05 4.945.472 7.253 1.427 1.873.778 3.725 1.896 5.059 3.44.486.556.599 1.363.055 1.939-.476.503-1.454.62-1.94.054zm-112.979 155.58a29 29 0 0 1-3.125-1.933c-.368-.259-.696-.56-1.064-.83-1.268-.965-2.488-2.021-3.591-3.19-.505-.516-.941-1.084-1.377-1.642-.57-.714-1.101-1.46-1.799-2.09-.216-.204-.293-.102-.295.198.008.29-.006.85.238 1.344.899 1.715 2.18 3.17 3.627 4.479.872.766 1.688 1.664 2.6 2.428.994.843 2.085 1.582 3.214 2.251.692.41 1.403.791 2.123 1.14 1.096.54 2.229.988 3.361 1.397.889.305 1.749.641 2.665.855.201.034.402.079.603.103.773.078 1.03-.029 1.223-.275.048-.061.097-.112.125-.173.095-.193-.182-.415-.688-.631-.375-.17-.74-.349-1.105-.529-.374-.14-.749-.299-1.123-.449l-1.124-.468c-.384-.14-.758-.279-1.143-.438-1.123-.449-2.248-.957-3.315-1.568l-.019.031zm128.363 5.771c.576-.526 1.099-1.121 1.643-1.687.195-.205.42-.382.614-.597.669-.749 1.307-1.528 1.946-2.286.28-.348.571-.676.862-1.005.379-.41.767-.821 1.043-1.329.086-.153-.067-.259-.308-.282s-.6.017-.844.224c-.869.735-1.75 1.43-2.435 2.339-.425.533-1.004.949-1.511 1.413l-1.698 1.529c-.351.32-.702.63-1.064.93-.547.456-1.095.911-1.694 1.298-.451.313-.976.498-1.439.781-.098.063-.206.116-.304.189-.353.27-.408.451-.308.799q.031.118.077.238c.097.247.379.339.738.279 1.097-.131 2.011-.687 2.864-1.311.637-.468 1.233-.985 1.839-1.502l-.031-.04z"/>
  <path fill="#12111f" d="M324.375 126.467c.381 4.301 6.132 6.01 8.258 1.929 2.098-4.011-2.554-7.571-6.213-5.708-1.578.805-2.177 2.292-2.044 3.789zm-217.326 52.965c.381 4.301 6.132 6.01 8.258 1.929 2.098-4.011-2.554-7.572-6.213-5.708-1.578.805-2.177 2.292-2.045 3.789z" opacity=".3"/>
  <path fill="#12111f" d="M357.643 146.86c.037.249.104.507.2.735.473 1.157 1.648 2.014 2.899 2.039s2.487-.84 2.823-2.05c.663-2.41-1.912-3.618-3.913-3.251-.786.142-1.553.614-1.872 1.353-.16.364-.199.776-.137 1.174m-51.797 35.34c.037.249.104.507.201.735.472 1.157 1.647 2.014 2.898 2.039s2.487-.84 2.824-2.05c.662-2.41-1.913-3.618-3.913-3.252-.787.143-1.554.614-1.873 1.354-.16.364-.198.776-.137 1.174M66.031 124.985c.037.249.105.507.201.735.473 1.157 1.647 2.014 2.899 2.039 1.25.025 2.487-.84 2.823-2.05.663-2.41-1.912-3.618-3.913-3.251-.786.142-1.553.614-1.873 1.353-.16.364-.198.776-.137 1.174"/>
  <path fill="#12111f" d="M369.971 265.35c.037.249.104.508.201.735.472 1.157 1.647 2.014 2.898 2.039s2.487-.84 2.824-2.05c.662-2.41-1.913-3.618-3.913-3.251-.787.142-1.554.614-1.873 1.353-.16.365-.198.776-.137 1.174M126.268 81.682c.037.25.104.508.2.735.473 1.157 1.648 2.014 2.899 2.04 1.251.024 2.487-.841 2.823-2.05.663-2.41-1.912-3.618-3.913-3.252-.786.142-1.553.614-1.872 1.353-.16.365-.199.776-.137 1.174" opacity=".5"/>
  <path fill="#12111f" d="M222.282 447.697c11.67-.868 23.11-2.441 34.657-2.716 11.552-.455 23.136-.471 34.718-.197 8.449.203 16.894.625 25.34 1.068 14.887.761 29.772 1.783 44.665 2.735 7.446.48 14.902.951 22.357 1.371 3.717.206 7.455.441 11.209.525 3.745.105 7.487.129 11.219.135 6.632.003 13.245-.003 19.873.211 6.668.162 13.293-.094 19.868-.38 3.886-.179 7.783-.339 11.672-.438a283 283 0 0 1 5.829-.104l1.4-.019c.12.006.161.025.313.091.162.075.345.18.529.305l1.233.806c.224.143.468.287.752.419a2.7 2.7 0 0 0 1.108.259 3.9 3.9 0 0 0 1.362-.289 3.5 3.5 0 0 0 1.138-.792c.301-.319.56-.726.58-.737.038-.051.077-.112.136-.144.01-.01.03-.001.049-.011.032.059.087.238.13.346l.272.763c-.513-2.236-.138-.616-.262-1.123l.02-.001h.03l.09-.003.37-.01.729-.031 1.469-.061 2.928-.113 5.856-.244 5.844-.275c1.947-.145 3.894-.26 5.829-.484 2.622-.324 3.747-.506 3.664-.603-.082-.098-1.374-.152-3.622-.379-2.236-.207-5.416-.518-9.24-.58a236 236 0 0 0-13.143.07l-.56.015-.32.009-.299.009-.15.004-.07.002-.04.001-.02.001-.433-1.879-.162 1.375c-.034.211-.046.502-.091.653-.07.032-.149.054-.218.096-.275.158-.51.355-.713.611-.174.225-.443.622-.462.643-.068.082-.116.153-.164.205a.9.9 0 0 1-.245.177c-.05.001-.089.032-.159.044-.04.021-.19.015-.13.024l-.04-.019a5 5 0 0 1-.478-.277c-.377-.239-.806-.547-1.305-.853-.274-.163-.519-.316-.954-.494a3.2 3.2 0 0 0-.736-.199 3.6 3.6 0 0 0-.641-.032l-1.55.023q-3.103.073-6.177.204l-12.298.586c-4.087.175-8.174.331-12.244.385-4.07.065-8.116-.102-12.27-.175-8.247-.128-16.466.013-24.646-.217-4.084-.095-8.173-.37-12.301-.604-4.119-.244-8.238-.498-12.356-.742-20.735-1.298-42.307-3.192-63.582-4.153-11.69-.532-23.413-.842-35.126-.783-11.702.09-23.478.421-35.139 1.619-7.174.663-14.316 1.394-21.461 1.675-3.568.13-7.147.191-10.704.011-3.556-.16-7.106-.47-10.585-1.113a272 272 0 0 0-8.139-1.251c-2.728-.244-5.468-.567-8.204-.73-2.735-.143-5.471-.336-8.195-.439l-8.2-.25c-10.92-.203-21.813-.146-32.636-.092-16.824.094-33.31.137-49.904-.156-3.654-.107-7.219-.217-10.903-.323-13.639-.467-17.874-.938-20.916-.252-.686.139-1.594.235-2 .386-.703.25.319.662 2.767 1.253 1.218.296 2.819.641 4.726.867 1.907.227 4.144.454 6.661.673 14.915 1.031 30.223 1.081 45.708 1.035 15.494-.076 31.182-.357 46.88-.289l8.736.104 8.73.235c2.914.098 5.801.297 8.706.445 1.453.079 2.879.249 4.323.369 1.434.149 2.887.228 4.303.429 2.834.43 5.596.823 8.632 1.357 1.487.219 2.982.387 4.477.545 1.493.098 2.989.266 4.48.304 5.97.272 11.917.055 17.807-.361l.028-.081zM309.288 70.63c-.238.096-.079.402.322.8.134.127.601.384.701.381.19-.025.369-.04.508-.084.079-.032.858-.805 1.151-1.033.274-.228.496-.504.699-.78.424-.562.869-1.095 1.345-1.618a1.5 1.5 0 0 0 .249-.398c.226-.506.594-.917 1.005-1.258.068-.062.126-.134.246-.127.19-.006 1.222-1.015 1.327-1.188.248-.427.538-.816.816-1.244.038-.06.107-.083.104-.193-.017-.27.111-.343.208-.456.135-.164.27-.328.395-.511.058-.092.084-.242.12-.364.037-.11-.138-.276-.178-.285-.12-.006-.124-.146-.167-.235-.02-.03-.042-.069-.062-.088-.021-.03-1.426.16-1.565.214-.01 0-.433.232-.887.465l-.964.597c-.098.053-.155.165-.212.256-.04.032-1.296.887-1.324.948-.204.236-.489.404-.549.766-.008.07-.067.112-.116.153-.389.371-.687.82-.985 1.258-.153.225-.348.42-.512.635-.029.04-.037.101-.056.141-.028.061-.036.132-.075.173-.417.492-.7 1.08-1.137 1.562-.107.113-.276.838-.393.962-.068.072.085.528-.004.56zm11.992 5.585c-.153-.096-.247.127-.295.539-.016.13.045.519.096.567.093.098.175.185.267.253.051.038.804.117 1.055.17.242.043.482.047.722.03a24 24 0 0 1 1.46-.021c.11-.003.219-.016.328-.05.377-.11.758-.09 1.12-.03.06.007.13-.005.182.064.092.087 1.086.21 1.225.176.338-.07.678-.09 1.018-.11.05 0 .09.028.149-.023.127-.114.228-.077.328-.06.141.017.291.022.441.018.07-.002.158-.064.247-.097.08-.032.094-.233.073-.252-.052-.079.026-.15.054-.222-.001-.03.018-.06.028-.08.008-.05-.738-.62-.839-.647-.02 0-1.202-.416-1.384-.481-.071-.028-.15-.016-.23-.004-.03 0-1.038-.27-1.078-.27-.21-.014-.423-.088-.639.028-.04.021-.09.003-.13.004-.362-.05-.731-.02-1.101 0-.19.006-.37-.009-.56-.013-.03 0-.07.022-.1.032-.039.012-.079.033-.129.034-.44-.017-.878.075-1.319.037-.101-.017-.575.206-.685.19-.07-.008-.242.276-.313.239z"/>
</svg>
