<svg width="1252" height="43" viewBox="0 0 1252 43" fill="none" xmlns="http://www.w3.org/2000/svg">
<path d="M974.194 20.2694C985.864 19.4008 997.304 17.8283 1008.85 17.5534C1020.4 17.0983 1031.99 17.0824 1043.57 17.3567C1052.02 17.5591 1060.46 17.9816 1068.91 18.4242C1083.8 19.1857 1098.68 20.2074 1113.57 21.1588C1121.02 21.6395 1128.48 22.11 1135.93 22.5304C1139.65 22.7359 1143.39 22.9709 1147.14 23.0553C1150.88 23.16 1154.63 23.1848 1158.36 23.1898C1164.99 23.1932 1171.6 23.1872 1178.23 23.4008C1184.9 23.5633 1191.53 23.3068 1198.1 23.0218C1201.99 22.8424 1205.88 22.6826 1209.77 22.5832C1211.71 22.5286 1213.66 22.4938 1215.6 22.4792L1217 22.4598C1217.12 22.4664 1217.16 22.4853 1217.31 22.551C1217.48 22.6265 1217.66 22.7314 1217.84 22.8563L1219.08 23.6619C1219.3 23.8057 1219.54 23.9488 1219.83 24.0809C1220.15 24.2318 1220.56 24.3406 1220.94 24.3399C1221.48 24.3147 1221.83 24.2346 1222.3 24.0514C1222.73 23.8691 1223.13 23.578 1223.44 23.2591C1223.74 22.9405 1224 22.533 1224.02 22.5225C1224.05 22.4714 1224.09 22.4103 1224.15 22.3786C1224.16 22.3683 1224.18 22.3778 1224.2 22.3672C1224.23 22.4263 1224.29 22.6049 1224.33 22.7137L1224.6 23.4763C1224.09 21.2399 1224.47 22.86 1224.34 22.3533L1224.36 22.3527L1224.39 22.3519L1224.48 22.3493L1224.85 22.3389L1225.58 22.3084L1227.05 22.247L1229.98 22.1346L1235.83 21.8898L1241.68 21.6153C1243.62 21.4705 1245.57 21.3557 1247.51 21.1311C1250.13 20.8073 1251.25 20.6255 1251.17 20.5278C1251.09 20.4301 1249.8 20.3764 1247.55 20.1496C1245.31 19.9424 1242.13 19.6317 1238.31 19.5693C1234.48 19.4768 1230.01 19.4826 1225.17 19.639L1224.61 19.6548L1224.29 19.6638L1223.99 19.6722L1223.84 19.6764L1223.77 19.6784L1223.73 19.6795L1223.71 19.6801L1223.27 17.8015L1223.11 19.1766C1223.08 19.3877 1223.07 19.6781 1223.02 19.8294C1222.95 19.8614 1222.87 19.8836 1222.8 19.9256C1222.53 20.0834 1222.29 20.2801 1222.09 20.5359C1221.92 20.7609 1221.65 21.1586 1221.63 21.1791C1221.56 21.2611 1221.51 21.3325 1221.46 21.3839C1221.37 21.4766 1221.31 21.5183 1221.22 21.5608C1221.17 21.5622 1221.13 21.5933 1221.06 21.6053C1221.02 21.6264 1220.87 21.6207 1220.93 21.629C1220.93 21.629 1220.97 21.6478 1220.89 21.6101C1220.77 21.5535 1220.59 21.4483 1220.41 21.3334C1220.03 21.094 1219.61 20.7859 1219.11 20.4798C1218.83 20.3175 1218.59 20.1643 1218.15 19.9865C1217.91 19.8932 1217.67 19.82 1217.42 19.7871C1217.18 19.7538 1216.85 19.7428 1216.78 19.7551L1215.23 19.7787C1213.16 19.8269 1211.1 19.8949 1209.05 19.9825L1196.75 20.5687C1192.66 20.7438 1188.58 20.8988 1184.51 20.9533C1180.44 21.0178 1176.39 20.8516 1172.24 20.7784C1163.99 20.6504 1155.77 20.7917 1147.59 20.5617C1143.51 20.4665 1139.42 20.1914 1135.29 19.9575C1131.17 19.7133 1127.05 19.459 1122.93 19.2148C1102.2 17.9176 1080.63 16.0237 1059.35 15.0618C1047.66 14.5304 1035.94 14.2201 1024.22 14.2796C1012.52 14.3689 1000.75 14.7002 989.087 15.8988C981.912 16.5608 974.77 17.292 967.625 17.5731C964.057 17.7036 960.478 17.7643 956.921 17.5843C953.365 17.4242 949.815 17.114 946.336 16.4716C943.702 16.0255 940.909 15.5939 938.197 15.2201C935.469 14.9767 932.729 14.6537 929.994 14.4906C927.258 14.3474 924.522 14.1543 921.798 14.0509L913.598 13.8015C902.678 13.5986 891.785 13.6551 880.962 13.7096C864.138 13.8029 847.653 13.8467 831.058 13.5534C827.404 13.4461 823.839 13.3364 820.155 13.23C806.516 12.7635 802.281 12.2924 799.239 12.9783C798.553 13.1176 797.645 13.2132 797.239 13.3647C796.536 13.6145 797.558 14.026 800.006 14.6173C801.224 14.9132 802.825 15.2583 804.732 15.4847C806.639 15.7112 808.876 15.9383 811.394 16.1576C826.308 17.1884 841.616 17.2378 857.101 17.1922C872.595 17.1163 888.283 16.8349 903.981 16.9033L912.718 17.0076L921.448 17.2421C924.362 17.3401 927.248 17.539 930.154 17.6873C931.606 17.7665 933.032 17.9365 934.476 18.0559C935.91 18.2056 937.363 18.2847 938.779 18.485C941.613 18.9154 944.375 19.3079 947.411 19.8427C948.898 20.061 950.393 20.229 951.888 20.387C953.381 20.485 954.877 20.653 956.368 20.6911C962.338 20.9632 968.285 20.7458 974.175 20.33L974.203 20.2492L974.194 20.2694Z" fill="#717079"/>
<path d="M530.194 16.0138C541.864 16.8824 553.304 18.4549 564.851 18.7298C576.403 19.1849 587.987 19.2008 599.569 18.9265C608.018 18.7241 616.463 18.3016 624.909 17.859C639.797 17.0975 654.681 16.0758 669.574 15.1244C677.02 14.6437 684.476 14.1732 691.931 13.7528C695.649 13.5473 699.387 13.3123 703.14 13.2279C706.885 13.1232 710.627 13.0984 714.359 13.0934C720.991 13.09 727.604 13.096 734.232 12.8824C740.9 12.7199 747.525 12.9764 754.1 13.2614C757.986 13.4408 761.883 13.6006 765.772 13.7C767.711 13.7546 769.661 13.7894 771.601 13.804L773.001 13.8234C773.122 13.8168 773.162 13.7979 773.314 13.7322C773.476 13.6567 773.659 13.5518 773.843 13.4269L775.076 12.6213C775.3 12.4776 775.544 12.3344 775.828 12.2023C776.152 12.0514 776.556 11.9426 776.936 11.9433C777.475 11.9685 777.833 12.0486 778.298 12.2318C778.733 12.4141 779.125 12.7052 779.436 13.0241C779.738 13.3427 779.996 13.7502 780.016 13.7607C780.054 13.8118 780.093 13.8729 780.152 13.9046C780.162 13.9149 780.182 13.9054 780.202 13.916C780.233 13.8569 780.288 13.6783 780.331 13.5695L780.603 12.8069C780.09 15.0433 780.466 13.4232 780.341 13.9299L780.361 13.9305L780.391 13.9313L780.481 13.9339L780.851 13.9443L781.58 13.9748L783.049 14.0362L785.977 14.1486L791.833 14.3934L797.677 14.6679C799.624 14.8127 801.572 14.9276 803.506 15.1521C806.128 15.4759 807.253 15.6577 807.171 15.7554C807.088 15.8531 805.796 15.9068 803.548 16.1337C801.312 16.3408 798.132 16.6515 794.308 16.7139C790.484 16.8064 786.013 16.8006 781.165 16.6442L780.605 16.6284L780.286 16.6194L779.986 16.611L779.836 16.6068L779.766 16.6048L779.726 16.6037L779.706 16.6031L779.273 18.4817L779.111 17.1066C779.077 16.8956 779.065 16.6051 779.02 16.4538C778.951 16.4218 778.871 16.3996 778.802 16.3576C778.527 16.1998 778.292 16.0031 778.089 15.7473C777.916 15.5223 777.647 15.1246 777.627 15.1041C777.559 15.0221 777.511 14.9507 777.463 14.8993C777.365 14.8066 777.307 14.7649 777.218 14.7224C777.168 14.721 777.129 14.6899 777.059 14.6779C777.019 14.6568 776.869 14.6625 776.93 14.6542C776.93 14.6542 776.97 14.6354 776.889 14.6731C776.767 14.7297 776.594 14.8349 776.411 14.9498C776.034 15.1892 775.605 15.4973 775.106 15.8034C774.832 15.9657 774.587 16.1189 774.152 16.2968C773.91 16.39 773.667 16.4632 773.416 16.4961C773.175 16.5294 772.855 16.5404 772.775 16.5281L771.225 16.5045C769.156 16.4563 767.097 16.3883 765.049 16.3007L752.75 15.7145C748.663 15.5394 744.576 15.3844 740.506 15.3299C736.436 15.2654 732.39 15.4316 728.236 15.5048C719.989 15.6328 711.77 15.4915 703.59 15.7215C699.506 15.8167 695.417 16.0918 691.289 16.3257C687.17 16.57 683.051 16.8242 678.933 17.0684C658.198 18.3656 636.626 20.2595 615.351 21.2214C603.661 21.7528 591.938 22.0631 580.225 22.0036C568.523 21.9143 556.747 21.583 545.087 20.3844C537.912 19.7224 530.77 18.9912 523.625 18.7101C520.057 18.5796 516.478 18.5189 512.921 18.6989C509.365 18.859 505.815 19.1692 502.336 19.8116C499.702 20.2577 496.909 20.6893 494.197 21.0631C491.469 21.3065 488.729 21.6295 485.994 21.7926C483.258 21.9358 480.522 22.1289 477.798 22.2323L469.598 22.4817C458.678 22.6846 447.785 22.6281 436.962 22.5736C420.138 22.4803 403.653 22.4365 387.058 22.7298C383.404 22.8371 379.839 22.9468 376.155 23.0532C362.516 23.5197 358.281 23.9908 355.239 23.3049C354.553 23.1656 353.645 23.07 353.239 22.9185C352.536 22.6687 353.558 22.2572 356.006 21.6659C357.224 21.37 358.825 21.0249 360.732 20.7985C362.639 20.572 364.876 20.3449 367.394 20.1256C382.308 19.0948 397.616 19.0454 413.101 19.091C428.595 19.1669 444.283 19.4483 459.981 19.3799L468.718 19.2756L477.448 19.0411C480.362 18.9431 483.248 18.7442 486.154 18.5959C487.606 18.5167 489.032 18.3467 490.476 18.2273C491.91 18.0776 493.363 17.9985 494.779 17.7982C497.613 17.3678 500.375 16.9753 503.411 16.4405C504.898 16.2222 506.393 16.0542 507.888 15.8962C509.381 15.7982 510.877 15.6302 512.368 15.5921C518.338 15.32 524.285 15.5374 530.175 15.9532L530.203 16.034L530.194 16.0138Z" fill="#717079"/>
<path d="M277.083 23.9384C265.425 22.9135 254.007 21.188 242.465 20.7584C230.92 20.1486 219.337 19.9776 207.752 20.0967C199.301 20.1859 190.851 20.4954 182.4 20.8248C167.504 21.3868 152.607 22.209 137.703 22.9609C130.251 23.3419 122.789 23.7124 115.329 24.0329C111.61 24.1887 107.869 24.3735 104.114 24.4076C100.369 24.4622 96.6265 24.4368 92.8951 24.3919C86.263 24.3064 79.6512 24.2118 73.0203 24.3367C66.3515 24.4099 59.7301 24.0647 53.16 23.6916C49.2762 23.4601 45.3817 23.2483 41.4946 23.0967C39.5563 23.0162 37.6071 22.9552 35.6671 22.9146L34.2675 22.8765C34.1472 22.8815 34.1064 22.8998 33.9536 22.9635C33.7904 23.0368 33.606 23.1393 33.4208 23.2617L32.177 24.0507C31.9509 24.1915 31.7049 24.3314 31.4193 24.4596C31.093 24.6062 30.6883 24.7095 30.3082 24.7037C29.7691 24.6713 29.4123 24.5864 28.9498 24.397C28.5172 24.2089 28.1292 23.9125 27.8223 23.5895C27.5255 23.2669 27.2723 22.8561 27.2528 22.8452C27.2149 22.7936 27.1774 22.732 27.1187 22.6996C27.1091 22.6892 27.0887 22.6983 27.0691 22.6875C27.0367 22.7462 26.9792 22.924 26.9347 23.0322L26.653 23.7912C27.196 21.5618 26.7986 23.1767 26.9297 22.6717L26.9097 22.6708L26.8797 22.6696L26.7898 22.6659L26.4201 22.6505L25.6912 22.6102L24.2233 22.5292L21.297 22.3776L15.4454 22.0544L9.60502 21.7016C7.66044 21.5307 5.71461 21.3898 3.78334 21.1394C1.16599 20.7804 0.0431897 20.5836 0.127272 20.4871C0.211355 20.3905 1.50398 20.3541 3.75409 20.1573C5.99338 19.9802 9.17725 19.7121 13.001 19.7009C16.826 19.6596 21.2971 19.7253 26.1421 19.9466L26.7017 19.9699L27.0214 19.9832L27.3211 19.9956L27.471 20.0018L27.5409 20.0047L27.5809 20.0064L27.6009 20.0072L28.059 18.1347L28.202 19.5118C28.2332 19.7233 28.2412 20.0138 28.2849 20.1658C28.3536 20.1987 28.4327 20.222 28.501 20.2648C28.7745 20.4263 29.0064 20.6262 29.2058 20.8847C29.3765 21.1119 29.6401 21.5132 29.6593 21.534C29.7259 21.6169 29.7729 21.6889 29.8208 21.7409C29.917 21.835 29.9753 21.8775 30.0635 21.9212C30.1135 21.9232 30.1522 21.9549 30.2217 21.9677C30.2609 21.9894 30.4112 21.9856 30.3508 21.9931C30.3508 21.9931 30.31 22.0115 30.3916 21.9748C30.514 21.9198 30.6884 21.817 30.8732 21.7046C31.2533 21.4702 31.6862 21.1679 32.1891 20.8685C32.4659 20.7098 32.7123 20.56 33.1499 20.388C33.3938 20.298 33.6369 20.2281 33.8884 20.1985C34.1298 20.1685 34.4504 20.1617 34.5299 20.1751L36.0794 20.2194C38.148 20.2954 40.2058 20.3909 42.2528 20.506L54.5422 21.2568C58.6262 21.4866 62.711 21.6964 66.78 21.8054C70.8486 21.9244 74.8967 21.8124 79.051 21.7949C87.2989 21.7773 95.5155 22.0286 103.698 21.9082C107.783 21.8678 111.875 21.6475 116.006 21.4688C120.128 21.2798 124.25 21.0808 128.371 20.8917C149.121 19.8723 170.717 18.2675 192.003 17.5907C203.699 17.2159 215.425 17.0626 227.136 17.279C238.836 17.525 250.606 18.0141 262.25 19.3687C269.414 20.1268 276.546 20.9535 283.687 21.3303C287.252 21.5085 290.831 21.6172 294.39 21.4848C297.947 21.3724 301.501 21.1098 304.989 20.514C307.628 20.1033 310.427 19.7091 313.143 19.3716C315.874 19.1648 318.619 18.8785 321.356 18.752C324.093 18.6456 326.832 18.4891 329.557 18.4222L337.76 18.2827C348.682 18.2261 359.573 18.4284 370.394 18.6278C387.215 18.9465 403.698 19.211 420.295 19.14C423.951 19.0818 427.517 19.0197 431.202 18.9627C444.846 18.6789 449.087 18.2646 452.119 18.9911C452.804 19.1397 453.71 19.2474 454.114 19.4043C454.813 19.6636 453.786 20.0613 451.331 20.6198C450.108 20.8993 448.503 21.223 446.593 21.4238C444.683 21.6247 442.443 21.8219 439.923 22.0074C424.996 22.8384 409.689 22.6828 394.206 22.4297C378.715 22.1463 363.032 21.6548 347.334 21.5129L338.597 21.5002L329.865 21.6178C326.95 21.6768 324.061 21.837 321.153 21.9464C319.7 22.0061 318.272 22.1569 316.827 22.257C315.39 22.3875 313.936 22.4472 312.518 22.6284C309.679 23.0209 306.912 23.3763 303.869 23.8704C302.379 24.0688 300.882 24.2167 299.385 24.3547C297.89 24.4327 296.393 24.5807 294.901 24.5987C288.928 24.7909 282.985 24.4939 277.1 23.9992L277.074 23.918L277.083 23.9384Z" fill="#717079"/>
</svg>
