<svg xmlns="http://www.w3.org/2000/svg" width="380" height="380" fill="none">
  <path fill="#12111f" d="M189.531 198.967c1.214.431 1.214 9.193-4.187 6.935 0 0 3.625 8.367 9.266 10.947 5.635 2.579 18.606 1.841 19.234-8.937.629-10.779-6.248-14.06-6.248-14.06l-15.719 5.115h-2.353zm32.785-7.418s1.278 3.946-1.528 5.072c0 0 9.727 7.68 10.311 9.85.592 2.171 1.63 2.003 1.63 2.003s4.246-2.565 4.136-5.225c-.109-2.66-1.147-10.94-4.136-14.002-2.989-3.055-10.421 2.302-10.421 2.302z" opacity=".13"/>
  <path fill="#12111f" d="M214.575 252.576s-5.744 1.966-4.575 3.281c1.17 1.316 7.973 5.028 10.545 7.958s-16.559-7.344-16.559-7.344l.994-1.776 9.595-2.112z"/>
  <path fill="#12111f" d="m134.828 260.563 7.373-4.707c-2.404 1.235-4.867 2.785-7.373 4.707" opacity=".75"/>
  <path fill="#12111f" d="M140.389 257.012c10.326-5.357 19.197-6.241 26.001-5.21 1.447.219 4.231 1.132 4.852 1.929 2.083 4.553 5.576 10.172 9.317 13.548 6.877 6.197 17.824 5.364 21.397-3.076.548-1.301 4.458-.673 6.109-.388 6.197 1.075 16.596 5.262 21.982 9.625-1.82-1.754-5.203-5.817-5.203-5.817l-18.642-9.42-5.284-2.207s-7.022 10.231-12.569 8.207c-8.345-3.048-9.997-14.462-9.997-14.462s-4.428-3.398-7.841-3.398-17.129 2.367-17.129 2.367l-13 8.302z" opacity=".78"/>
  <path fill="#12111f" d="M229.017 271.648c1.805 1.74 3.091 2.967 1.015.907-.299-.3-.643-.6-1.015-.907" opacity=".75"/>
  <path fill="#12111f" d="M201.232 254.256s-1.717 9.946-9.353 9.91c-6.709-.03-11.758-7.41-12.738-9.062-.986-1.651-2.119-10.318-2.119-10.318l1.323-4.348s5.232 7.234 11.188 10.333c5.956 3.098 11.699 3.485 11.699 3.485m-4.999-34.85c1.658.467 3.383.709 5.1.636a13 13 0 0 0 1.871-.154 13.45 13.45 0 0 0 5.963-2.667c.753-.614 1.476-1.257 2.09-1.995.205-.227.402-.461.585-.716.175-.256.394-.475.526-.76l.424-.819c.117-.285.226-.563.343-.848.139-.358.037-.343-.226-.116-.256.226-.687.643-1.14 1.147-.731.935-1.44 1.871-2.317 2.645a14.2 14.2 0 0 1-2.886 2.003c-1.257.672-2.733.971-4.18 1.118a14.6 14.6 0 0 1-4.801-.307c-.972-.227-1.93-.519-2.836-.936-1.388-.606-2.711-1.395-3.844-2.389-.891-.768-1.615-1.659-2.309-2.565-.161-.198-.292-.41-.438-.614-.578-.753-.782-.979-1.097-1.038-.065-.014-.146-.044-.204-.044-.19 0-.117.41.153 1.111a12.4 12.4 0 0 0 1.835 2.843c.781.855 1.688 1.607 2.652 2.272 1.447.98 3.04 1.74 4.714 2.229v-.029z"/>
  <path fill="#12111f" d="M228.818 141.674c5.254-3.544 31.394-2.163 25.657 21.952 0 0-6.847 8.667-18.992 7.776-12.146-.892-8.821-1.308-8.821-1.308s-3.186 6.357-10.888 6.481c-7.703.125-10.728-3.303-10.728-3.303s5.386 6.387-10.443 7.688c-15.828 1.301-20.585-4.772-20.585-4.772s3.354 11.671 1.3 17.656c-2.053 5.985-3.42 9.397-3.42 9.397s2.163 1.696 4.414 5.225 2.843 10.355 0 10.596c-2.843.242-6.971-3.047-9.273-6.328s-4.1-3.603-4.1-3.603-8.002.943-8.002 4.633c0 2.01-11.809-6.942-14.367-10.523s-7.892-13.139-8.221-22.281.972-19.49 6.694-24.956 17.21-12.562 23.195-12.598 16.259 2.28 21.353 4.684c5.086 2.404 3.858 3.223 3.858 3.223s2.594-10.275 8.835-16.333c8.901-8.638 32.534-12.73 32.534 6.687zm-49.261 116.134c1.264 2.047 2.821 4.005 4.896 5.452.746.533 1.535 1.038 2.412 1.374 1.542.584 3.222.774 4.808.599.797-.08 1.571-.248 2.317-.475a10 10 0 0 0 2.185-.899 12.2 12.2 0 0 0 3.23-2.609c.548-.694 1.037-1.447 1.359-2.272a6.6 6.6 0 0 0 .307-1.287c.058-.211.014-.445-.015-.672-.014-.219 0-.431-.014-.643-.03-.533-.037-.453-.249-.051-.109.197-.234.49-.621.753-.307.277-.57.599-.87.928-.423.614-.877 1.184-1.41 1.673-.512.504-1.023.994-1.608 1.403a11.9 11.9 0 0 1-3.96 1.761c-1.769.468-3.654.044-5.247-.811-1.776-.942-3.303-2.477-4.509-4.267a22 22 0 0 1-1.937-3.53c-.826-1.878-1.505-3.859-1.907-5.875-.314-1.572-.365-3.15-.395-4.721-.014-.344.03-.687-.014-1.031-.051-.643-.11-1.059-.271-1.352-.175-.292-.424-.46-.723-.599-.139-.066-.263-.146-.373-.182-.197-.066-.365.036-.599.285-.241.248-.453.643-.512 1.154-.277 1.513-.197 3.062-.043 4.626.175 1.564.489 3.128.928 4.67a28.8 28.8 0 0 0 2.791 6.642l.059-.029zm52.956-57.743c.445.702.694 1.586.65 2.427-.044.957-.38 2.053-1.264 2.565a1.96 1.96 0 0 1-1.754.131c-.49-.205-.855-.563-1.118-1.023-.212-.365-.366-.782-.519-1.176a8 8 0 0 1-.329-1.024c-.226-.957-.285-2.031.102-2.959.147-.344.293-.621.629-.819.292-.175.723-.241 1.052-.138s.651.314.819.628.277.723.139 1.052a3.4 3.4 0 0 0-.212.76l.051-.365c-.037.314-.029.636.007.95l-.051-.366c.088.629.285 1.228.533 1.805l-.138-.328c.08.197.16.394.27.577.015.022.073.088.066.11 0-.03-.227-.249-.103-.132.044.044.19.168 0 .015-.182-.146-.051-.044.015-.022l-.329-.139s.073.022.11.029l-.366-.051a.8.8 0 0 0 .183 0l-.365.051c.058-.014.109-.029.168-.051l-.329.139c.051-.029.205-.139.007.007-.248.183-.014-.015-.007-.022-.029.015-.19.278-.102.124.029-.058.058-.109.087-.168l-.139.329q.12-.296.161-.614l-.051.366a3 3 0 0 0 0-.819l.051.366a3 3 0 0 0-.197-.717l.139.329a3.5 3.5 0 0 0-.241-.46c-.388-.607-.147-1.535.489-1.878a1.406 1.406 0 0 1 1.878.49z"/>
  <path fill="#12111f" d="M133.468 173.981c.614-5.758 2.631-11.465 6.007-16.193a19 19 0 0 1 2.039-2.405l1.147-1.125.57-.57.6-.533c2.784-2.551 5.948-4.699 9.405-6.234a31.6 31.6 0 0 1 10.983-2.696c3.376-.22 6.789.292 10.041 1.14l1.556.467.775.234c.256.088.504.197.76.3 1.001.423 2.032.774 3.025 1.213.98.467 1.966.928 2.96 1.374l1.454.745.731.365.365.183.183.095c.037 0 .044.058.11.022l.102.022c.702.161 1.03.197 1.067.11.036-.095-.205-.344-.555-.892-.344-.555-.958-1.177-1.71-1.922-.19-.19-.395-.358-.614-.541a20 20 0 0 0-2.346-1.447 37.4 37.4 0 0 0-13.497-3.909c-4.728-.417-9.581.182-14.038 1.871l-1.974.833-.993.416-.958.49c-.635.336-1.293.643-1.922.994-.613.372-1.235.752-1.856 1.125-2.419 1.578-4.75 3.354-6.73 5.444-1.14 1.074-2.185 2.361-3.099 3.654a32 32 0 0 0-2.455 4.085c-1.454 2.821-2.492 5.832-3.208 8.901a40 40 0 0 0-.833 5.758 42 42 0 0 0 .044 5.81c.467 5.861 2.44 11.546 5.261 16.581 1.067 1.98 2.302 3.837 3.559 5.678.672.877 1.315 1.79 2.017 2.653.723.84 1.396 1.732 2.17 2.528.68.709 1.287 1.462 2.01 2.134 1.367 1.22 2.302 1.988 3.069 2.382.768.395 1.308.497 1.813.49.226 0 .489.044.643.015.263-.052.16-.38-.168-.994-.322-.621-.965-1.432-1.857-2.368-.65-.709-1.271-1.447-1.951-2.126-.643-.717-1.293-1.433-1.944-2.156l-1.87-2.244c-.585-.782-1.199-1.542-1.776-2.331-2.295-3.171-4.261-6.606-5.722-10.253-2.149-5.415-2.989-11.348-2.324-17.165l-.066-.015zm64.856 80.933c4.86 1.177 10.085.943 14.857-.511 1.725-.57 3.449-1.184 5.042-2.061 2.799-1.542 5.379-3.471 7.578-5.751a38.3 38.3 0 0 0 5.605-7.586l.943-1.863.475-.928c.154-.314.27-.643.409-.965l.804-1.929c.241-.65.439-1.315.658-1.973l.416-1.264.315-1.294.285-1.301.138-.65.081-.665c.095-.884.219-1.768.256-2.653l-.081-1.337c-.036-.446-.117-.884-.175-1.33-.183-1.096-.292-.935-.724-.036-.204.453-.577 1.081-.855 1.826-.138.373-.307.775-.467 1.192-.132.423-.249.877-.329 1.344-.702 3.318-1.484 6.606-2.872 9.712a38 38 0 0 1-5.313 8.674c-2.601 3.186-6.167 5.744-9.975 7.454-4.224 1.82-8.901 2.624-13.519 2.039-2.843-.321-5.634-1.155-8.302-2.229-4.026-1.695-7.819-4.092-11.02-7.052-2.47-2.324-4.501-4.991-6.153-7.848-.35-.636-.723-1.242-1.015-1.915a27 27 0 0 0-.812-1.505c-.241-.409-.38-.76-.57-1.023-.358-.534-.716-.789-1.096-.972-.168-.081-.343-.212-.475-.256-.219-.066-.292.183-.321.753-.03.562.087 1.41.438 2.426.292.731.577 1.483.914 2.221.358.724.767 1.418 1.154 2.134.373.731.884 1.374 1.33 2.061.234.336.461.68.709 1.016l.782.957a37.3 37.3 0 0 0 7.286 6.855c.489.387 1.016.723 1.549 1.059l1.579 1.009 1.651.891c.555.3 1.096.607 1.681.841 1.147.511 2.287 1.037 3.493 1.417.599.198 1.176.439 1.79.592l1.835.475.021-.058z"/>
  <path fill="#12111f" d="M229.118 202.255c-2.258-2.287-4.728-4.238-7.198-6.116-.899-.687-1.754-1.411-2.652-2.068-.782-.578-1.572-1.155-2.273-1.747a8 8 0 0 1-.884-.833l-.073-.08-.03-.052c-.029-.029-.043-.087-.073-.16-.073-.139-.087-.3-.131-.446-.095-.643.073-1.432.453-2.207.365-.775.884-1.535 1.483-2.244 1.053-1.271 2.383-2.367 3.771-3.303 1.812-1.169 3.712-2.148 5.539-3.142.57-.241.578-.416-.087-.753a5.2 5.2 0 0 0-1.462-.416c-.3-.029-.65-.081-.979-.051a4.5 4.5 0 0 0-1.001.234c-.578.226-1.17.423-1.703.73a23.6 23.6 0 0 0-4.458 3.179c-.906.826-1.768 1.747-2.499 2.814-.365.54-.702 1.103-.987 1.732a7.2 7.2 0 0 0-.621 2.046c-.131.884-.087 1.878.278 2.806.073.234.256.548.395.745l.219.3.212.241c.285.321.57.585.848.84 1.118 1.009 2.228 1.893 3.346 2.748 2.463 1.871 4.919 3.683 7.147 5.737 1.374 1.257 2.675 2.587 3.771 4.048.826 1.104 1.571 2.28 2.09 3.53l.176.475.087.234.044.182c.044.249.066.504.015.775-.081.548-.373 1.125-.716 1.666-1.155 1.695-2.931 2.974-4.648 4.231-.395.271-.775.541-1.169.811-.724.526-1.184.914-1.44 1.279-.241.38-.307.709-.248 1.096.021.176.021.366.08.512.088.248.343.329.716.299.373-.036.906-.175 1.476-.526 1.725-.994 3.471-2.134 5.101-3.61.818-.745 1.608-1.564 2.317-2.587.35-.519.672-1.096.92-1.783.241-.679.402-1.505.293-2.382-.015-.161-.052-.322-.088-.482a4 4 0 0 0-.117-.417l-.227-.628a15 15 0 0 0-.526-1.213 18 18 0 0 0-1.293-2.222c-.943-1.41-2.017-2.66-3.135-3.844l-.051.044z"/>
  <path fill="#12111f" d="M231.931 189.613c.088 0 .249 0 .234-.007l.044-.015s.066-.022.095 0a1 1 0 0 1 .08.066l.373.562c.263.373.46.775.694 1.162.234.388.439.79.629 1.192.307.584.467 1.213.709 1.819.219.534.365 1.082.54 1.622.117.556.293 1.104.351 1.667.205 1.125.197 2.265.08 3.405-.073 1.016-.423 1.995-.803 2.93-.563 1.184-1.243 2.266-1.696 3.618-.146.416.051.519.548.438.249-.036.592-.117.98-.241.19-.066.394-.146.577-.256q.264-.176.497-.416c.256-.293.519-.592.723-.921.212-.329.366-.694.548-1.038.329-.709.621-1.447.819-2.221.431-1.528.475-3.157.248-4.699-.27-1.842-.577-3.727-1.257-5.452-.16-.482-.394-.928-.599-1.388a12 12 0 0 0-.687-1.337c-.241-.439-.475-.885-.753-1.294l-.453-.716c-.102-.154-.19-.329-.314-.453l-.175-.197s-.044-.088-.103-.081c-.036-.029-.065-.058-.102-.08-.38-.219-.855-.241-1.301-.271-.409-.014-.665-.007-.993 0a22 22 0 0 0-1.849.154c-1.849.226-3.647.694-5.401 1.242-1.359.424-2.733.819-4.055 1.432-.293.139-.578.271-.841.454-.497.328-.796.599-.928.884-.08.351-.066.621 0 .913.037.139.051.278.102.38.081.183.263.271.541.314.139.022.314.037.504.052.205.029.358-.052.548-.11.541-.219 1.119-.365 1.645-.592l1.622-.628a36 36 0 0 1 3.376-1.067c1.703-.431 3.522-.76 5.203-.76zm-24.969 26.117c-2.696 1.382-5.985 1.944-8.996 1.053-.562-.117-1.089-.351-1.622-.578-.548-.19-1.03-.518-1.557-.774-3.61-1.988-6.555-5.379-8.403-9.259-.307-.621-.534-1.286-.812-1.922l-.38-1.184q-.118-.382-.248-.752l-.132-.373-.029-.095-.014-.044v.037l.051.16-.38-.54c-.008-.044-.051 0-.081.014l-.102.066-.205.124-.401.256-.205.124c-.059.022-.102.022-.146.029l-.293.052c-.19.036-.409.073-.526.109-1.3.329-2.506.797-3.683 1.33-1.169.541-2.302 1.155-3.361 1.951-.665.534-.315.738.431.709.753-.022 1.988-.204 3.296-.709a29 29 0 0 1 2.645-.913c.438-.132.877-.234 1.286-.314.073-.015.066-.022.073-.022 0-.015-.029.029.015.022.007.022 0-.037.029.043l.088.307q.077.31.197.607c.322.782.607 1.586 1.016 2.324l.584 1.125.673 1.082c.424.73.979 1.388 1.483 2.06.526.622 1.06 1.257 1.623 1.864.591.585 1.147 1.213 1.805 1.746 1.235 1.148 2.689 2.083 4.209 2.843 1.702.804 3.566 1.242 5.444 1.396 1.893.095 3.771-.197 5.547-.76a14.5 14.5 0 0 0 3.127-1.462 12.3 12.3 0 0 0 2.616-2.28c1.162-1.322 1.959-2.93 2.456-4.582.475-1.658.665-3.376.621-5.064-.066-2.623-.526-5.203-1.571-7.644-.241-.533-.468-1.059-.768-1.571-.599-.921-1.103-1.469-1.534-1.761-.424-.307-.789-.358-1.177-.3-.175.03-.365.03-.497.088-.453.205-.153 1.052.505 2.258.467.921.906 1.842 1.278 2.814.366.972.658 1.98.87 3.003.417 2.054.512 4.195.124 6.212-.285 1.498-.84 2.908-1.68 4.114-.834 1.213-1.981 2.185-3.304 2.901l.03.059z"/>
  <path fill="#12111f" d="M170.137 214.188c-.877-1.008-1.702-2.09-2.521-3.193l-1.228-1.696-.372-.504a7 7 0 0 0-.592-.723c-.212-.22-.439-.395-.716-.49-.278-.058-.57-.029-.855-.044l-1.199.249-.804.204c-.533.132-1.074.307-1.607.483-1.411.482-2.894 1.052-4.173 2.163-1.118.95-2.024 2.397-2.214 3.902-.212 1.491.014 2.908.416 4.18.431 1.293 1.023 2.55 1.842 3.595.365.563.833 1.023 1.257 1.528.467.46.928.92 1.432 1.337 1.783 1.469 3.807 2.653 6.007 3.354 1.41.446 2.923.709 4.436.548l.57-.044c.19-.036.372-.08.555-.124l.555-.131c.183-.044.373-.081.541-.183l1.009-.519c.175-.073.314-.212.453-.336l.424-.373c.679-.635.519-.584-.271-.489-.394.051-.95.073-1.571.029-.314-.022-.621 0-.965-.037a9 9 0 0 0-1.008.059c-4.925.146-10.165-3.069-12.577-7.571-.146-.351-.292-.694-.431-1.045-.095-.38-.219-.76-.285-1.14-.131-.76-.16-1.52-.036-2.207a4.3 4.3 0 0 1 .877-1.827c.424-.548 1.059-.979 1.717-1.374.723-.438 1.579-.752 2.434-1.045.438-.131.869-.277 1.322-.387l.658-.168.402-.095c.087-.007.204-.088.27 0 .066.066.124.139.19.219.029.029.227.307.351.483l.424.591c.57.797 1.147 1.601 1.746 2.39 1.477 1.922 3.04 3.829 5.072 5.386.775.577 1.644 1.103 2.682 1.381.519.132 1.081.19 1.651.117a4.1 4.1 0 0 0 1.586-.57c.928-.563 1.622-1.52 1.951-2.499.329-.994.402-2.003.336-2.967-.109-1.506-.475-2.938-.993-4.297a18.6 18.6 0 0 0-2.047-3.851c-.38-.519-.738-1.045-1.176-1.528-1.659-1.768-2.477-2.038-3.267-1.775-.182.058-.387.102-.526.19-.46.314.059 1.147 1.096 2.28 1.542 1.702 2.814 3.712 3.64 5.853.409 1.067.694 2.185.767 3.237.08 1.053-.095 2.039-.497 2.617-.709.906-1.41 1.096-2.835.328-1.345-.767-2.66-2.112-3.844-3.515l-.051.037z"/>
  <path fill="#12111f" d="M174.647 187.961c-.022.76-.014 1.527-.109 2.294l-.103 1.148c-.058.38-.124.76-.168 1.147-.036.278-.095.555-.153.833q-.111.407-.19.826c-.336 1.966-.855 3.931-1.593 5.802-.307.848-.767 1.622-1.184 2.404-.592.98-1.279 1.871-1.688 2.982-.132.343.124.497.592.46a3.3 3.3 0 0 0 .847-.182c.154-.052.322-.125.476-.205l.233-.139a2 2 0 0 0 .176-.19c1.549-1.973 2.645-4.246 3.295-6.65.388-1.432.965-2.864 1.33-4.333.19-.811.337-1.63.461-2.456.08-.833.212-1.651.241-2.484l.066-1.535-.022-1.535c.022-.774-.11-1.549-.161-2.323-.066-.775-.248-1.535-.336-2.302a30 30 0 0 1-.322-1.769c-.095-.592-.285-1.169-.438-1.754-.073-.255-.117-.518-.256-.76a4 4 0 0 0-.314-.548 1.5 1.5 0 0 0-.343-.307 1 1 0 0 0-.68-.16c-.117.007-.234 0-.329.029-.321.073-.446.584-.431 1.293.343 1.951.745 3.866.855 5.89.088.738.131 1.498.19 2.251 0 .76.058 1.52 0 2.287h.066zm41.485-13.007a20.4 20.4 0 0 1-4.926-.387c-.599-.117-1.162-.351-1.746-.512-2.047-.607-4.049-1.527-5.766-2.857-.775-.578-1.44-1.301-2.032-2.046-.394-.468-.738-.98-1.096-1.484-.373-.49-.826-.935-1.337-1.381-.329-.27-.409-.183-.519.263-.058.219-.132.541-.212.935-.051.38-.015.782.095 1.184.307.643.702 1.243 1.118 1.82.197.299.453.555.694.818.242.263.49.519.76.76a14.8 14.8 0 0 0 3.501 2.426c1.52.746 3.047 1.586 4.691 2.09 1.798.549 3.661.87 5.532.914 1.148.051 2.302-.037 3.449-.168a15.1 15.1 0 0 0 5.043-1.579c.606-.336 1.213-.694 1.776-1.132.548-.453 1.066-.972 1.468-1.579l.285-.394c.073-.139.154-.285.22-.432.285-.54.292-.957.233-1.249-.051-.292-.197-.49-.445-.658-.11-.08-.22-.168-.329-.226-.38-.168-.862.153-1.257.701-.621.804-1.228 1.469-1.988 1.988a8.6 8.6 0 0 1-2.528 1.344c-1.418.505-3.04.746-4.67.768v.066zm-1.498-51.344c-3.742.723-7.257 2.126-10.501 3.939-.585.343-1.199.635-1.776.986-.57.366-1.147.724-1.703 1.111a36 36 0 0 0-9.755 10.304c-.548.899-1.148 1.768-1.586 2.733-.468.943-.987 1.863-1.33 2.857l-.746 1.878c-.19.643-.365 1.301-.533 1.951-.365 1.301-.351 2.682-.256 4.027.212.848.249.723.797.102.285-.314.599-.752.964-1.271.344-.519.6-1.14.907-1.791.219-.592.372-1.198.555-1.79.161-.599.46-1.162.68-1.747l.35-.869.176-.431.219-.417.862-1.666c.241-.577.621-1.089.928-1.637.336-.533.614-1.103.994-1.615.753-1.023 1.432-2.105 2.287-3.069 1.937-2.404 4.539-4.385 7.228-6.044 2.937-1.856 6.146-3.332 9.5-4.238 1.023-.329 2.082-.461 3.135-.672.526-.103 1.059-.103 1.585-.161.527-.037 1.067-.117 1.579-.073 3.135-.008 6.358 1.125 8.535 3.332 1.732 1.695 2.507 4.034 2.595 6.307.014.504-.066 1.008-.066 1.512-.168 1.893-.139 2.543.424 3.157.124.139.241.314.365.417.219.168.475.08.775-.256q.228-.25.467-.687c.161-.285.337-.628.439-1.045.716-2.419.555-5.283-.578-7.863-1.154-2.572-3.295-4.684-5.751-5.978a15.3 15.3 0 0 0-5.882-1.71c-1.016-.073-2.047-.087-3.004.015l-1.454.109c-.475.066-.95.161-1.425.242v.073zm2.667 140.958c2.28 1.337 4.45 2.893 6.584 4.501.775.592 1.476 1.279 2.244 1.878 2.667 2.178 5.291 4.443 7.768 6.869 1.111 1.067 2.141 2.222 3.164 3.355 1.33 1.447 2.507 3.032 4.151 4.202.541.343.65.138.614-.519a4.8 4.8 0 0 0-.877-2.719c-2.499-3.201-5.379-6.08-8.499-8.747-.935-.797-1.842-1.652-2.777-2.499l-1.381-1.286q-.721-.615-1.432-1.228c-2.105-1.791-4.349-3.42-6.621-4.991-1.44-.914-2.858-1.856-4.363-2.675-.563-.314-1.111-.658-1.695-.943l-1.74-.862-.869-.431-.892-.387c-.592-.256-1.184-.519-1.768-.775-.928-.38-1.842-.76-2.762-1.14a13 13 0 0 0-1.396-.526l-1.418-.475c-.424-.132-.818-.314-1.264-.387-.819-.117-1.367-.154-1.769-.059-.409.139-.65.314-.862.563-.095.109-.212.212-.27.314-.103.175 0 .365.248.621.256.256.643.614 1.184.797.402.146.789.336 1.198.445.402.139.797.307 1.199.446.796.314 1.63.526 2.426.884.797.337 1.622.622 2.426.972.797.373 1.601.724 2.419 1.067 2.36 1.148 4.743 2.331 6.979 3.793l.036-.051zm-69.283-14.586-2.368 1.103-2.295 1.243c-1.542.789-3.011 1.717-4.494 2.601l-.818.475-.797.504c-.533.337-1.067.68-1.586 1.031-3.646 2.543-7.066 5.364-10.311 8.36-1.418 1.352-2.894 2.653-4.282 4.004a75 75 0 0 0-2.682 2.609l-.651.673c-.204.241-.394.489-.584.738l-.563.752c-.183.256-.314.556-.475.833-.358.717-.146.768.621.585.811-.139 2.127-.555 3.157-1.513a227 227 0 0 1 5.349-5.225c.899-.862 1.791-1.746 2.719-2.579.913-.855 1.82-1.725 2.77-2.543.562-.504 1.14-.994 1.731-1.484.607-.467 1.235-.913 1.857-1.366.635-.439 1.249-.914 1.9-1.323.65-.424 1.293-.84 1.936-1.264l1.052-.702 1.089-.65 2.178-1.301c.723-.438 1.498-.789 2.243-1.184.753-.38 1.499-.789 2.266-1.147 1.907-.826 3.793-1.732 5.773-2.375l2.229-.797 2.28-.643c.76-.204 1.52-.431 2.28-.614.774-.146 1.542-.285 2.316-.423 1.199-.212 2.39-.402 3.596-.424 1.198-.059 2.389-.11 3.588-.168.526.014 1.045.051 1.578.051.987 0 1.63-.066 2.076-.256.453-.175.716-.431.928-.826.095-.175.226-.35.285-.526.197-.577-.629-1.052-2.141-1.235-1.119-.073-2.251-.161-3.399-.131-1.14.058-2.301.146-3.463.255-1.17.073-2.324.315-3.486.534l-1.739.343-.87.176-.855.241-2.543.731-1.272.372-1.242.461c-1.651.614-3.318 1.205-4.903 1.965zm53.061-36.83a4.13 4.13 0 0 1 1.315 2.302c.183.994.132 2.148-.643 2.894-.38.372-.913.584-1.447.57-.584-.015-1.081-.263-1.527-.636-.307-.256-.541-.614-.767-.95a7 7 0 0 1-.629-1.228c-.409-.986-.467-2.046-.277-3.098.058-.322.358-.658.628-.819.292-.175.724-.241 1.052-.138s.651.314.819.628c.183.343.204.672.139 1.052-.015.066-.022.132-.03.19l.052-.365a3.8 3.8 0 0 0 0 1.045l-.052-.366c.052.388.161.768.315 1.126l-.139-.329c.197.453.453.877.753 1.264l-.212-.277q.129.163.292.306l-.278-.211a1.4 1.4 0 0 0 .278.168l-.329-.139a1 1 0 0 0 .212.058l-.365-.051a1 1 0 0 0 .204 0l-.365.051a.6.6 0 0 0 .161-.044l-.329.139a.6.6 0 0 0 .146-.087l-.278.211a.5.5 0 0 0 .124-.131l-.211.278c.051-.066.087-.139.124-.212l-.139.329c.051-.125.08-.256.102-.388l-.051.366a3 3 0 0 0 0-.724l.051.366a3 3 0 0 0-.204-.753l.138.329a3 3 0 0 0-.394-.673l.212.278a3.4 3.4 0 0 0-.388-.402c-.255-.219-.401-.643-.401-.972s.146-.738.401-.972c.256-.234.607-.416.972-.402.366.015.68.154.972.402zm-17.371-25.088c2.711-4.224 7.593-6.124 12.504-5.583 1.14.124 2.265.336 3.354.687.84.27 1.944.555 2.565 1.22.658.709.577 1.783-.117 2.433-.694.651-1.717.76-2.602.731-1.578-.051-2.959-.658-4.465-1.023s-2.915-.468-4.377-.533c-1.754-.073-1.768-2.821 0-2.741 2.185.095 4.355.358 6.438 1.045.943.314 1.9.548 2.901.504.073 0 .146 0 .22-.014-.052.007-.242.022.014-.015.256-.036.11-.124.051 0 .066-.139-.095.11-.109.132-.103.161-.22.438-.22.636 0 .365.242.533.388.796.073.132.029.015-.124-.051-.139-.059-.278-.124-.417-.183a12 12 0 0 0-1.228-.416 13.5 13.5 0 0 0-2.462-.497c-1.762-.168-3.53-.037-5.211.526-1.966.658-3.61 1.98-4.728 3.72-.95 1.483-3.325.109-2.368-1.382zm33.44 45.198c-.519 1.323-1.359 2.411-2.733 2.901-1.111.395-2.404.256-3.486-.153-2.653-1.009-4.845-3.201-6.124-5.715-.35-.687-.182-1.542.512-1.951.636-.373 1.6-.176 1.951.511.599 1.184 1.074 1.827 1.966 2.704q.273.276.57.519c.036.029.365.3.248.205s.219.16.256.182c.417.293.862.541 1.315.76.329.161-.27-.087.066.03.117.036.234.087.351.124.212.066.424.109.643.153.307.066-.278.008.007 0 .125 0 .249.015.38.008.066 0 .227.014.278-.022q-.318.045-.153.014.065-.009.131-.029c.095-.029.205-.073.3-.088q.155-.052-.139.059c.051-.022.109-.051.161-.081.073-.043.153-.102.226-.138-.161.197.241-.125 0 0 .073-.095.183-.19.263-.271-.153.154-.08.117.015-.036q.085-.134.161-.278c.036-.066.065-.132.102-.197-.066.168-.066.168-.007.014.277-.716.957-1.213 1.753-.994.687.19 1.279 1.031.994 1.754zm-31.547-93.049c.234.066 1.279-.475 1.71-.892 1.505-1.461 6.489-8.951 3.763-10.932-5.13-3.727-7.337 11.305-5.481 11.824zm-3.902 1.315c-.131.16-1.132.197-1.651.058-1.805-.49-9.157-4.224-8.294-7.03 1.622-5.283 10.968 5.722 9.945 6.972m-77.689 3.559c.848-1.359.695-2.243.322-2.989-1.242-2.484-2.507-4.969-3.902-7.395-1.206-2.083-2.573-4.078-3.99-6.051a99 99 0 0 0-3.757-5.035c-1.33-1.629-2.696-3.237-4.23-4.691-.44-.446-.914-.855-1.375-1.272-.475-.409-.906-.855-1.403-1.235l-1.366-1.154c-.49-.351-1.03-.629-1.55-.928-.175-.103-.336-.242-.54-.278-.556-.102-.972.27-.95.848 0 .131-.03.328.044.387.336.299.511.731.657 1.206.161.453.249.986.607 1.278 1.3 1.119 2.36 2.5 3.442 3.815.43.534.92 1.001 1.395 1.491.629.599 1.36 1.118 1.966 1.754.212.212.6.643 1.118 1.227.49.614 1.14 1.36 1.82 2.258 1.381 1.769 2.974 4.064 4.516 6.336a268 268 0 0 1 4.078 6.285c1.096 1.732 1.849 2.908 1.936 3.018.271.351.651.628 1.177 1.125zm-4.084 30.904c1.03-1.015 1.155-1.87.987-2.609-.68-2.411-1.557-4.793-2.682-7.073-.468-.987-1.053-1.915-1.63-2.836a77 77 0 0 0-1.915-2.66 52 52 0 0 0-3.566-4.362c-.643-.687-1.286-1.374-1.995-1.995-.68-.651-1.396-1.257-2.119-1.864-.417-.365-.87-.694-1.308-1.023-.446-.329-.877-.68-1.33-1.001-.424-.314-.848-.643-1.264-.965-.41-.343-.885-.584-1.33-.869-.154-.095-.285-.234-.468-.256-.511-.044-.994.563-1.038 1.235-.007.153-.058.387 0 .438.65.461.548 1.747 1.213 2.2 1.257.833 2.266 1.995 3.303 3.076.41.439.877.812 1.323 1.199.577.497 1.257.891 1.812 1.418.198.175.563.518 1.045 1.001.454.511 1.067 1.118 1.689 1.878 1.293 1.469 2.674 3.464 3.96 5.451a50 50 0 0 1 3.12 5.671c.731 1.608 1.206 2.719 1.272 2.821.198.336.512.614.906 1.125zm208.553-35.625c1.25-.322 1.761-.957 2.061-1.659 1.023-2.338 2.229-4.582 3.289-6.884.935-1.966 1.79-3.983 2.813-5.919.87-1.666 1.805-3.31 2.748-4.94l2.864-4.889 1.71-2.886c.271-.461.556-.921.841-1.374.146-.227.285-.453.394-.702.132-.234.22-.497.293-.767.058-.176.146-.344.138-.548-.021-.556-.387-.906-.913-.833-.124.014-.307 0-.358.065-.453.702-1.776.665-2.229 1.433-.87 1.381-1.958 2.638-2.894 3.99a14 14 0 0 0-.994 1.702c-.372.753-.672 1.55-1.023 2.317-.475 1.045-3.069 5.795-5.144 10.56a92 92 0 0 0-1.462 3.493c-.446 1.118-.782 2.185-1.089 3.098-.584 1.842-.935 3.099-.95 3.23-.08.409-.051.841-.102 1.506z"/>
  <path fill="#12111f" d="M304.811 115.242c1.257-.051 1.6-.299 1.724-.599.432-.986.899-1.936 1.367-2.864.402-.79.694-1.63 1.162-2.39.402-.65.826-1.286 1.264-1.922.439-.628.935-1.235 1.425-1.841.3-.359.541-.753.862-1.097.307-.328.629-.635.943-.957.051-.051.146-.073.139-.183-.029-.285-.563-.84-1.089-1.118-.117-.065-.307-.182-.329-.16-.263.241-1.235-.242-1.491.058-.438.57-1.147.913-1.688 1.418a2.8 2.8 0 0 0-.526.709c-.175.343-.277.723-.446 1.066-.109.234-.511.848-.986 1.681a26 26 0 0 0-1.367 3.018c-.833 2.185-1.176 4.356-1.169 4.473 0 .182.124.394.219.701z" opacity=".45"/>
  <path fill="#12111f" d="M314.48 149.457c1.425-.073 1.929-.504 2.177-1.023.439-.848.87-1.703 1.33-2.521.431-.826.87-1.652 1.301-2.477.738-1.403 1.403-2.836 2.287-4.144a31 31 0 0 1 2.507-3.223c.877-1.045 1.834-2.046 2.791-3.047l1.74-1.761c.285-.278.577-.541.877-.804.285-.278.548-.577.818-.869.088-.103.227-.161.249-.322.065-.424-.417-1.052-1.016-1.315-.139-.059-.344-.183-.395-.147-.241.198-.65.183-1.067.154-.416-.015-.869-.073-1.096.175-.424.446-.935.811-1.44 1.184-.496.38-1.015.746-1.49 1.155-.38.336-.716.709-1.023 1.111-.38.526-.687 1.11-1.06 1.644-.256.365-1.03 1.352-1.973 2.718a36.4 36.4 0 0 0-2.872 4.918c-.87 1.798-1.586 3.596-2.01 4.991-.423 1.389-.679 2.339-.694 2.434-.044.307.037.658.059 1.176z"/>
  <path fill="#12111f" d="M100.743 162.983c.899-.709 1.009-1.059.936-1.308a17 17 0 0 0-.914-2.448c-.299-.687-.818-1.235-1.227-1.856l-1.075-1.586c-.372-.519-.723-1.052-1.147-1.534-.241-.293-.504-.563-.738-.855-.227-.285-.417-.592-.636-.885-.036-.051-.036-.131-.124-.131-.227 0-.738.402-1.03.804-.066.095-.183.234-.168.255.16.227-.344.943-.154 1.148.365.372.504.928.738 1.403q.143.287.373.497c.197.175.46.314.65.497.27.248 1.294 1.615 2.178 2.996.95 1.337 1.761 2.689 1.812 2.748.095.095.285.146.512.263z" opacity=".55"/>
  <path fill="#12111f" d="M274.433 218.843c.936.219 1.308.11 1.491-.102.643-.694 1.345-1.345 1.885-2.076.49-.621.848-1.315 1.323-1.936.424-.526.797-1.082 1.199-1.622.409-.534.818-1.067 1.242-1.586.263-.292.431-.672.665-.994.219-.314.468-.599.709-.899.036-.051.117-.073.102-.161-.036-.248-.475-.679-.906-.898-.102-.052-.256-.139-.278-.125-.212.212-1.052-.175-1.279.059-.204.226-.46.402-.738.562-.139.081-.277.161-.424.242q-.188.14-.365.292a2.1 2.1 0 0 0-.446.577c-.146.278-.226.607-.372.884-.095.19-.439.687-.885 1.338-.431.665-.906 1.512-1.366 2.346-.461.833-.899 1.651-1.147 2.316-.271.658-.439 1.104-.446 1.155-.029.153.022.35.029.621z"/>
  <path fill="#12111f" d="M73.545 134.739c-1.761 0-1.769-2.74 0-2.74s1.768 2.74 0 2.74" opacity=".35"/>
  <path fill="#12111f" d="M70.943 133.344c0 .467.124.942.387 1.366s.65.745 1.06.914c.292.131.577.241.884.248a2.5 2.5 0 0 0 1.454-.431 1.94 1.94 0 0 0 .819-1.206q.14-.603.029-1.162c-.08-.468-.329-.994-.826-1.176-.153-.059-.248.175-.329.438-.073.256-.212.534-.197.643.051.197.03.424-.015.599-.044.19-.102.271-.146.439-.095.212-.446.19-.657.124-.264-.073-.417-.168-.49-.431-.037-.168-.051-.365.007-.512.073-.248.344-.482.636-.416.234.044.329.292.387.446.015.029.022.065.037.087.073.073.197.051.643.059l.3.014c.321.022.635-.16.643-.606 0-.621-.3-1.301-.928-1.637a2.43 2.43 0 0 0-2.04-.197c-1.008.328-1.68 1.417-1.71 2.404h.052zm38.424-14.097a2.38 2.38 0 0 0 1.951-.154c.197-.102.416-.19.57-.372.27-.315.46-.724.489-1.148.037-.438-.116-.869-.358-1.118a2.2 2.2 0 0 0-.687-.548c-.299-.175-.803-.256-1.103.051-.095.095.051.263.197.468.154.183.234.468.227.526.007.095.014.19.014.249.008.029-.029.058.008.036a.6.6 0 0 1 .168-.036h.007l-.088-.015s.015.007.015.015c0 .007 0 .022-.015.029-.029.015-.073.022-.109.058a.6.6 0 0 1-.351.205.42.42 0 0 1-.3-.08c-.153-.095-.321-.285-.343-.505 0-.131.058-.255.124-.35l-.541.65h.205c.059 0 .117.015.175 0 .198-.051.227-.212.139-.672l-.058-.315c-.081-.35-.249-.621-.431-.716a2 2 0 0 0-.563-.175l-.395-.073-.475 1.118c-.212.504-.131 1.074.095 1.564.256.57.753 1.081 1.411 1.359l.022-.044zm6.008 37.759a2.4 2.4 0 0 0 1.951-.154c.197-.102.416-.19.57-.373.27-.314.46-.723.489-1.147.037-.438-.117-.869-.358-1.118a2.2 2.2 0 0 0-.687-.548c-.299-.175-.804-.256-1.103.051-.095.095.051.263.197.468.154.183.234.468.227.526.007.095.014.19.014.248.008.03-.029.059.008.037a.6.6 0 0 1 .168-.037h.007s-.175-.029-.088-.014l.015.014c0 .008 0 .022-.015.03-.029.014-.073.022-.109.058a.6.6 0 0 1-.351.205.43.43 0 0 1-.3-.081c-.153-.095-.321-.285-.343-.504 0-.131.058-.256.124-.351l-.541.651h.205c.058 0 .117.014.175 0 .198-.051.227-.212.139-.673l-.058-.314c-.081-.351-.249-.621-.431-.716a2 2 0 0 0-.563-.175l-.395-.073-.475 1.118c-.212.504-.131 1.074.095 1.564.256.57.753 1.081 1.411 1.359l.022-.044zm154.631-24.766c.146.255.314.475.482.679l.256.285c.124.154.263.293.387.431.183.198.336.424.519.614h.014c.417.03.907 0 1.294-.204a2.17 2.17 0 0 0 .906-.943c.183-.336.314-.716.358-1.067.066-.416-.014-1.016-.475-1.271-.139-.081-.343.211-.563.504a2.2 2.2 0 0 1-.54.519c-.132.182.058.065.029.438-.029.175-.205.205-.27.124l-.044-.029c-.059-.044-.11-.066-.205-.153a5 5 0 0 1-.358-.446 2.1 2.1 0 0 1-.307-.577c-.102-.285-.131-.592 0-.877.095-.22.351-.307.49-.337h.095c.08-.021.029-.197-.008-.643l-.022-.307c-.021-.321-.204-.628-.584-.665-.519 0-1.031.293-1.337.68a2.7 2.7 0 0 0-.549 1.315c-.051.344-.029.724.059 1.067.08.322.197.614.329.877zm23.39-8.71c.022.116.051.197.088.321.051.132.087.27.153.387.102.249.241.461.351.673.044.08.08.175.124.263a.6.6 0 0 0 .234.022 1.88 1.88 0 0 0 1.608-.753c.08-.102.16-.219.226-.329a2 2 0 0 0 .161-.299c.117-.256.227-.607.037-.885-.059-.087-.322.022-.578.132-.256.117-.519.183-.533.212l-.088.241c.029.015.051.08.022.197-.051.146-.161.124-.241.117-.059-.066-.139-.139-.197-.27a1 1 0 0 1-.059-.402c0-.051.015-.11.022-.146a.36.36 0 0 1 .197-.271c.103-.065.293.037.3.066.015 0-.007.044.015 0 0 0 .014-.029.014-.022l.029-.029q.066-.055.263-.175l.19-.103c.205-.102.351-.314.183-.577-.248-.373-.76-.563-1.118-.482-.395.043-.804.233-1.06.57-.138.16-.233.35-.306.548a2.5 2.5 0 0 0-.052.994h.037zm4.253-35.655c.087.636.372 1.25.906 1.703.19.16.402.328.658.401.416.14 1.001.088 1.366-.16.38-.234.607-.556.767-.885.139-.292.256-.591.293-.935.022-.22.022-.468-.081-.709-.095-.24-.299-.453-.54-.519-.161-.05-.263.27-.395.585a1.8 1.8 0 0 1-.219.395c-.037.043-.095.095-.095.095.014-.015 0 0-.022.014-.081.03-.081.03-.073.059-.008.044-.008.095-.022.168-.029.139-.081.3-.139.446-.102.168-.19.124-.365.058-.176-.058-.38-.278-.475-.577a1.3 1.3 0 0 1-.052-.578c.037-.219.11-.423.256-.57l-.226.117c.051 0 .102-.014.16 0 .176.037.278.263.315.395.007.03 0 .073.022.08.08.059.197.059.54.08l.227.023c.241.029.49-.11.533-.468.117-.987-.913-1.834-2.09-1.63l-.328.059-.198.212-.153.16c-.519.592-.651 1.33-.599 1.974h.036z"/>
  <path fill="#12111f" d="M263.99 169.758h.124c1.761 0 1.768 2.74 0 2.74h-.124c-1.761 0-1.769-2.74 0-2.74h.124c1.761 0 1.768 2.74 0 2.74h-.124c-1.761 0-1.769-2.74 0-2.74" opacity=".35"/>
  <path fill="#12111f" d="M261.688 170.605c-.131.914.117 1.732.585 2.412.168.248.343.519.606.709.366.263.841.438 1.294.46a2.2 2.2 0 0 0 1.776-.819c.292-.394.489-.716.628-1.147.066-.27.154-.57.066-.891-.051-.307-.197-.614-.497-.76-.183-.11-.439.241-.724.577-.27.343-.65.563-.672.541-.058-.03-.08.044-.146.153-.051.066.015.073.007.132 0 .051 0 .124-.036.204a.18.18 0 0 1-.117.095c-.117.015-.197-.065-.329-.16-.205-.154-.395-.483-.431-.819a1 1 0 0 1 .102-.592c.154-.292.439-.584.826-.679.3-.081.621.036.884.138.059.015.117.059.168.066.212.037.3-.088.512-.599l.146-.344c.153-.387.117-.774-.168-.979a2.3 2.3 0 0 0-.687-.343 2.7 2.7 0 0 0-.767-.066 3.4 3.4 0 0 0-1.557.504 3.4 3.4 0 0 0-1.527 2.2l.051.014zm-6.532-22.208c.965 2.01 1.462 4.231 1.301 6.46-.176 2.214-.899 4.421-2.185 6.329-.921 1.403-2.134 2.594-3.442 3.668-2.331 1.886-5.189 3.289-8.163 4.166a26.4 26.4 0 0 1-9.288 1.037c-2.769-.204-5.517-.964-7.907-2.265-1.542-.833-2.886-1.944-4.136-3.128-1.25-1.206-2.258-2.609-3.325-4.056-.387-.431-.636-.592-.76-.518-.131.073-.168.387-.234.971-.08.592 0 1.367.198 2.31a7.6 7.6 0 0 0 1.461 2.85c.658.818 1.389 1.593 2.2 2.258.833.65 1.695 1.249 2.609 1.754a21.6 21.6 0 0 0 5.787 2.214c4.012.899 8.156.804 12.058-.146 2.338-.556 4.67-1.323 6.913-2.353a27 27 0 0 0 3.252-1.805c.511-.373 1.038-.717 1.527-1.118.468-.424.979-.797 1.403-1.265 1.951-1.965 3.508-4.362 4.326-7.037.877-2.653.958-5.547.337-8.243a17.3 17.3 0 0 0-5.072-8.587 17.3 17.3 0 0 0-6.555-3.719c-2.404-.76-4.918-1.001-7.373-.914-3.822.183-7.564 1.053-10.998 2.741-.753.365-1.491.745-2.215 1.191-1.337.833-2.112 1.542-2.535 2.156-.22.299-.373.562-.454.818-.08.263-.102.519-.109.745 0 .212-.059.446-.037.585.03.439 1.381.095 3.194-.935 2.623-1.645 5.51-2.945 8.557-3.698 3.033-.745 6.241-.943 9.252-.314 4.494.84 8.418 3.727 10.333 7.87l.073-.029zm-69.365 32.98c1.988.344 3.997.57 6.007.673.731.051 1.469.124 2.207.117 2.601-.052 5.247-.351 7.768-1.279 1.111-.417 2.221-.928 3.201-1.688.299-.263.613-.512.891-.804.256-.314.555-.599.745-.965.11-.168.183-.365.271-.548.066-.19.109-.394.161-.584.117-.388.087-.804.051-1.199-.146-.511-.19-.424-.629-.139-.424.3-1.205.687-1.644 1.126-1.22 1.841-3.72 2.762-6.38 3.456-1.622.402-3.398.314-5.13.249a45 45 0 0 1-5.743-.578 41 41 0 0 1-3.501-.716c-1.754-.438-3.507-.943-5.159-1.637-1.286-.541-2.448-1.271-3.61-1.973-.248-.161-.497-.321-.745-.489-.468-.293-.812-.424-1.111-.432-.292-.014-.526.073-.789.249-.117.08-.256.146-.351.234-.329.277-.154.877.453 1.578.986.906 2.126 1.637 3.325 2.302 1.213.629 2.492 1.125 3.793 1.571 1.929.658 3.917 1.14 5.919 1.535l.014-.059zm15.353 12.182c-1.125.277-2.243.577-3.361.884-.41.117-.834.146-1.235.27-1.433.446-2.829 1.045-4.217 1.608-.621.248-1.235.504-1.849.753-.796.299-1.556.73-2.185 1.359-.197.197-.007.446.351.672.365.219.913.475 1.374.417 1.651-.176 3.113-.695 4.618-1.44.906-.431 1.944-.533 2.931-.796 1.081-.278 2.177-.563 3.281-.812.679-.16 1.359-.299 2.046-.431 1.038-.182 2.083-.402 3.135-.482.818-.066 1.637.058 2.455.088.176 0 .358.022.534 0 .329-.03.541-.117.679-.3.139-.168.205-.402.242-.738.014-.154.043-.307.051-.453.014-.482-.3-.899-.819-1.133-.38-.109-.76-.212-1.14-.278a12 12 0 0 0-1.147-.051c-.767.008-1.535.081-2.309.183-1.148.146-2.288.38-3.435.599zm92.764 89.037 1.762 1.644c.219.197.402.431.628.621.797.687 1.593 1.366 2.514 1.98.212.132.402.271.68.395.248.124.628.241.942.197a.77.77 0 0 0 .548-.292c.059-.088.139-.161.19-.263l.117-.322c.081-.219.044-.402.059-.606 0-.19-.073-.322-.117-.483-.073-.19-.271-.138-.504.022-.117.081-.256.19-.38.307-.117.125-.19.139-.205.212-.007.022 0 0 0 .015v.014s0 .008-.015 0l-.109-.051c-.366-.19-.87-.54-1.338-.862-.577-.395-1.045-.972-1.563-1.483l-1.74-1.689-1.081-1.037c-.556-.526-1.111-1.045-1.666-1.571-.424-.41-.804-.87-1.301-1.265-.11-.087-.219-.175-.336-.255-.468-.293-.76-.19-.943.095a1 1 0 0 0-.117.204c-.08.249.015.49.19.724.3.299.629.657.972 1.015.343.366.723.709 1.103 1.082q.857.833 1.703 1.666l.029-.022zm-37.43 3.478c-.344.665-.504 1.388-.336 2.09.168.709.701 1.242 1.286 1.659.321.182.621.409.979.511.322.11.534.19.804.227.519.117 1.016.124 1.52.146l1.067-.059c.343-.058.687-.116 1.03-.197 2.331-.745 4.166-2.178 5.693-3.741.358-.329.658-.717 1.001-1.06.336-.351.68-.694.972-1.06.402-.46.833-.906 1.14-1.439l.234-.395.168-.438c.102-.293.212-.585.321-.885.117-.372-.014-.401-.416-.292-.263.073-.541.154-.797.227-.16.051-.328.102-.497.168-.087.029-.16.073-.263.095-.058.051-.131.102-.19.161-.95.745-1.607 1.702-2.448 2.477-.204.204-.387.424-.592.614s-.416.38-.613.584c-.388.431-.819.768-1.228 1.17-1.023.891-2.361 1.381-3.603 1.6-.679.102-1.388.146-2.017-.022-.365-.11-.446-.124-.621-.212-.146-.088-.314-.219-.343-.402-.037-.226.087-.453.226-.636.015-.029.088-.117.176-.197l.241-.234c.175-.153.343-.307.54-.446.57-.438 1.184-.862 1.827-1.278.636-.402 1.36-.892 1.973-1.374.972-.768 1.981-1.447 2.858-2.236.19-.176.387-.329.57-.519.336-.336.511-.599.562-.863.059-.255.022-.475-.087-.752-.051-.124-.088-.256-.146-.358-.183-.344-.738-.358-1.462-.059-2.024.994-3.493 2.602-5.093 3.544-.665.41-1.447.855-2.156 1.418-.366.271-.724.585-1.089.914-.183.182-.365.35-.548.555-.285.292-.512.643-.709.972l.059.029z"/>
  <path fill="#12111f" d="M302.751 286.337a8 8 0 0 0-.168-1.44c-.03-.248-.132-.489-.212-.738-.081-.234-.183-.533-.234-.628-.249-.585-.541-1.111-.826-1.637a38 38 0 0 0-1.9-2.96c-.49-.694-.928-1.41-1.447-2.068a61 61 0 0 0-4.414-4.976c-.54-.527-1.03-1.053-1.724-1.564a5.5 5.5 0 0 0-2.09-1.009c-.768-.175-1.55-.212-2.258-.087-.914.153-1.754.409-2.536.701a7.2 7.2 0 0 0-2.171 1.191c-.416.329-.314.497.22.753.27.131.657.321 1.103.431.219.051.461.124.694.132.227 0 .461-.03.687-.088.797-.205 1.55-.38 2.207-.439.665-.029 1.177-.102 1.644.015l.351.11c.117.065.234.102.358.175l.373.234c.132.095.278.219.424.336.592.497 1.198 1.06 1.805 1.615 1.454 1.352 2.66 3.047 3.873 4.662a50 50 0 0 1 1.915 2.719c.591.906 1.154 1.9 1.549 2.799.131.299.256.614.277.979 0 .175-.014.373-.124.511-.131.132-.336.074-.482 0-.234-.116-.446-.285-.665-.467l-.161-.139-.08-.073-.139-.132-.563-.54a74 74 0 0 1-2.185-2.28c-1.118-1.199-2.148-2.463-3.398-3.603-.278-.256-.541-.504-.855-.738-.577-.424-1.03-.651-1.396-.694-.197 0-.35.014-.489.065a1.4 1.4 0 0 0-.38.249c-.103.087-.212.153-.263.219-.103.124-.03.285.102.555.124.285.336.563.68.804 1.001.804 1.987 1.827 2.988 2.879 1.024 1.082 2.054 2.185 3.092 3.282.402.416.803.825 1.235 1.242l.482.446.628.562c.41.38.855.731 1.272.928.424.198.804.278 1.162.278a2.1 2.1 0 0 0 1.074-.373c.344-.255.585-.577.738-.957.088-.183.139-.387.205-.577.044-.205.058-.439.087-.651l-.058-.029zm-19.555 6.489q.307.365.679.717c.271.255.453.423.965.782.241.116.467.248.709.35.248.066.489.168.738.205.504.08.979.014 1.461-.088.256-.095.497-.226.731-.365.219-.168.402-.373.563-.592.314-.446.431-1.009.467-1.579 0-.292.015-.577-.029-.884l-.051-.38-.058-.285c-.081-.38-.183-.738-.293-1.081-.307-.943-.614-1.849-1.037-2.697a31 31 0 0 0-2.573-4.238 22 22 0 0 0-1.578-1.944c-.57-.614-1.191-1.242-2.017-1.747a15.9 15.9 0 0 0-4.18-1.732 15.6 15.6 0 0 0-2.821-.365c-.468-.007-.935.051-1.396.11a6.7 6.7 0 0 0-1.359.292c-.555.183-.482.343-.007.709.475.394 1.359.979 2.316 1.242.855.146 1.674.278 2.456.504.782.198 1.549.402 2.272.716q.55.218 1.067.512c.395.212.57.314.877.563.578.475 1.177 1.118 1.754 1.768 1.396 1.579 2.434 3.603 3.303 5.554.358.811.672 1.644.841 2.426.029.102.036.205.043.219.008.037.015.088.022.132a.9.9 0 0 1 0 .278c-.007.19-.146.38-.343.409-.249.073-.519-.008-.746-.161-.036-.029-.226-.146-.336-.248a4 4 0 0 1-.38-.337 11 11 0 0 1-.745-.781c-.497-.549-.95-1.162-1.425-1.769-1.418-1.849-2.96-3.705-4.83-5.232-1.44-1.184-3.026-2.266-4.86-2.88-.402-.138-.797-.285-1.22-.365a3.7 3.7 0 0 0-.994-.11c-.278.008-.497.008-.687.095a1.4 1.4 0 0 0-.738.673c-.073.131-.168.263-.205.387-.066.212.051.409.3.621.248.212.628.431 1.096.57.701.198 1.381.417 2.053.665.658.278 1.308.57 1.93.936 1.242.723 2.411 1.666 3.493 2.769 1.622 1.666 3.04 3.559 4.728 5.686l.044-.037z"/>
  <path fill="#12111f" d="M298.227 287.784c-.19-.461-.314-.906-.548-1.359l-.321-.68a5 5 0 0 0-.292-.555c-.285-.505-.6-.987-.914-1.455a42 42 0 0 0-1.995-2.703c-.504-.636-.957-1.309-1.498-1.915a41 41 0 0 0-3.033-3.033c-1.081-.95-2.185-1.871-3.507-2.667-.3-.175-.614-.344-.95-.497a18 18 0 0 0-.556-.212l-.526-.146a8 8 0 0 0-2.148-.197 8.4 8.4 0 0 0-2.595.504c-.803.292-1.564.65-2.068 1.432-.321.475-.153.643.453.957.3.147.76.439 1.184.57.219.066.446.161.658.183.205.007.402 0 .592-.058.665-.198 1.308-.271 1.863-.366a4.9 4.9 0 0 1 1.601.022c.329.022.942.336 1.542.687a28 28 0 0 1 1.856 1.235c1.505 1.082 2.733 2.631 3.982 4.071 1.367 1.585 2.697 3.295 3.72 5.02.161.263.322.541.46.862.132.314.264.68.183 1.045-.029.132-.095.271-.219.322-.117.058-.249.036-.373 0-.241-.081-.46-.227-.679-.388-.468-.358-.731-.599-1.557-1.439-1.081-1.111-2.002-2.346-3.12-3.501-.249-.255-.483-.518-.768-.76-.526-.445-.95-.701-1.33-.752a1.1 1.1 0 0 0-.935.343c-.11.11-.227.205-.292.314-.11.183-.051.395.022.658.08.292.204.57.497.848.84.869 1.724 1.929 2.667 2.974.475.526.957 1.06 1.469 1.593l.804.819c.511.518 1.03 1.067 1.585 1.527.819.694 1.652 1.133 2.31 1.25.672.109 1.213.065 1.885-.359.3-.248.606-.482.745-.818l.249-.446c.058-.161.087-.336.139-.497.138-.687.051-1.52-.176-2.426l-.08-.014zm-217.257-12.7c-.424.803-.826 1.615-1.235 2.433-.139.3-.322.585-.453.884a53 53 0 0 0-1.257 3.296c-.175.49-.358.979-.534 1.469-.277.606-.343 1.293-.358 1.973 0 .212.147.219.38.11.227-.117.607-.329.834-.636l.3-.409c.101-.139.13-.293.211-.439l.387-.884c.256-.592.431-1.221.629-1.856.226-.76.665-1.469 1.03-2.193.395-.796.775-1.607 1.191-2.404.256-.489.505-.986.782-1.469.41-.73.811-1.469 1.272-2.17.336-.555.782-1.023 1.118-1.564.073-.124.153-.234.22-.358.248-.468.255-.665.094-.906-.036-.059-.066-.117-.11-.161-.131-.146-.401-.066-.716.19-.233.197-.467.395-.701.585-.234.197-.417.438-.621.665-.395.46-.775.942-1.09 1.469-.496.76-.95 1.556-1.41 2.353zm-5.54.496q-.436.779-.862 1.557c-.102.19-.24.358-.336.555-.35.68-.665 1.396-.92 2.134-.118.322-.256.643-.344.972-.124.417-.22.855-.205 1.301 0 .139.08.131.205.036s.307-.255.424-.46l.321-.541c.117-.175.241-.343.315-.533.182-.366.365-.738.526-1.133.175-.482.504-.906.782-1.352l.928-1.483.584-.914c.293-.46.578-.942.9-1.381.255-.343.54-.65.781-1.001.051-.073.117-.146.16-.227.162-.314.125-.467-.021-.643-.037-.036-.066-.08-.102-.117-.117-.109-.322-.065-.549.081-.314.234-.591.504-.87.774-.262.278-.496.592-.737.899-.351.468-.71.936-1.009 1.454zm28.632 10.435c.395.212.812.388 1.228.57.431.147.855.322 1.279.432.431.117.87.219 1.337.285.234.036.468.058.716.073.117.014.329.014.49 0 .175-.008.351 0 .519-.037.972-.124 1.915-.57 2.324-1.432.102-.176.153-.38.226-.57.044-.198.051-.402.051-.607a2.7 2.7 0 0 0-.401-1.147c-.22-.358-.519-.687-.812-.987-.212-.197-.416-.38-.621-.555-.826-.687-1.637-1.293-2.397-1.944a11 11 0 0 1-1.761-1.892 21 21 0 0 1-.833-1.316c-.226-.446-.482-.84-.789-1.301-.358-.277-.395-.277-.819.095-.226.19-.402.475-.57.848-.065.183-.153.395-.16.599 0 .198.022.417.095.607.117.351.263.679.423.994a4 4 0 0 0 .549.877c.416.533.862 1.015 1.322 1.454.921.877 1.915 1.593 2.879 2.258.293.197.556.409.797.636l.175.168c.073.08.044.044.081.08.044.044.08.088.117.132.065.095.124.212.102.329a.56.56 0 0 1-.183.292.73.73 0 0 1-.372.139c-.066.029-.475 0-.804-.073-.694-.117-1.411-.373-2.076-.651a11.5 11.5 0 0 1-2.353-1.425c-1.103-.869-2.155-1.892-2.989-3.054-.65-.907-1.096-1.93-1.534-2.931a6 6 0 0 0-.322-.643 4 4 0 0 0-.321-.475c-.117-.117-.27-.183-.38-.248-.234-.125-.475-.147-.716-.147-.11.001-.212-.021-.285-.014-.132.007-.198.117-.315.358a1.7 1.7 0 0 0-.139.431c-.029.161-.072.366-.058.556.044.27.102.548.168.818.059.278.124.548.249.796q.318.77.745 1.506a16.5 16.5 0 0 0 2.017 2.799c1.133 1.315 2.536 2.448 4.114 3.347l.037-.052z"/>
  <path fill="#12111f" d="M72.339 280.206c.204-1.06.577-2.192 1.03-3.288.168-.402.41-.768.57-1.17.578-1.432 1.243-2.864 2.04-4.209.335-.606.752-1.169 1.183-1.695.606-.636 1.067-1.374 1.49-2.214.132-.264.052-.322-.277-.329-.16 0-.402-.008-.68.007a3 3 0 0 0-.438.051c-.08.007-.146.037-.234.044l-.19.102c-.22.132-.424.271-.643.409-.205.139-.365.329-.54.497q-.514.516-.973 1.075c-.628.73-1.11 1.571-1.52 2.448-.482 1.045-1.22 1.987-1.76 3.032a24.6 24.6 0 0 0-1.44 3.64c-.234.782-.432 1.593-.505 2.484-.036.329-.022.811.066 1.257.095.446.322.841.629 1.155.555.548 1.308.884 2.082.891 1.308.008 2.317-.511 3.194-1.147.182-.146.387-.278.548-.46.57-.702.468-1.155-.088-1.615-.124-.103-.234-.212-.358-.285-.205-.132-.431-.168-.694-.183s-.512.015-.702.124c-.307.146-.577.307-.833.446a4 4 0 0 1-.701.307c-.475.131-.307 0-.337.029h-.029v-.117c-.014-.336.059-.804.176-1.264z"/>
  <path fill="#12111f" d="M77.55 278.138a39 39 0 0 1 2.024-4.655c.285-.548.65-1.052.95-1.593 1.06-1.878 2.28-3.763 3.77-5.086.344-.27.665-.482 1.038-.577.395-.102.84-.146 1.279-.146.57.007 1.14.109 1.666.241.263.058.534.08.79.153.248.066.533.073.796.198.314.138.424.124.446-.366 0-.241-.052-.599-.22-1.045a2.4 2.4 0 0 0-.935-1.008c-.76-.344-1.535-.453-2.31-.512-.781-.044-1.556-.022-2.455.256-.935.314-1.593.811-2.163 1.315-.584.497-1.023 1.075-1.432 1.659-.957 1.396-2.017 2.697-2.865 4.129a42 42 0 0 0-2.419 4.874 48 48 0 0 0-1.183 3.135q-.405 1.206-.68 2.478c-.175.869-.329 1.68-.3 2.718 0 .351.088.643.147.972l.182.446c.066.146.161.277.242.416.372.453.92.738 1.527.833.307.044.62.052.935.015.322-.029.65-.139.877-.212.344-.124.68-.248.98-.46 1.096-.804 1.08-1.396.723-1.915-.088-.124-.161-.256-.256-.343-.322-.307-.899-.19-1.418.014a2.5 2.5 0 0 1-.957.205h-.146c-.022 0-.03-.007-.044-.022-.095-.059-.117-.132-.102-.183.007-.044.029-.036.043-.066.015-.328.037-.723.125-1.162.263-1.476.774-3.113 1.388-4.669l-.058-.029z"/>
  <path fill="#12111f" d="M82.008 281.806a40 40 0 0 1 1.615-4.728c.24-.563.555-1.074.81-1.622.446-.965.943-1.9 1.477-2.792.54-.877 1.17-1.71 1.9-2.309.6-.504 1.498-.76 2.368-.87.562-.073 1.118-.029 1.636 0 .264 0 .505.051.768.022.278-.044.555-.051.84 0 .358.066.446.015.38-.467a3.3 3.3 0 0 0-.35-1.009c-.11-.205-.242-.431-.424-.606a2.1 2.1 0 0 0-.629-.329c-.402-.154-.804-.198-1.206-.205-.394-.007-.782 0-1.162.051a9 9 0 0 0-2.236.541c-.35.132-.796.358-1.132.585-.358.226-.658.489-.95.752a9.8 9.8 0 0 0-1.403 1.703c-.921 1.418-1.886 2.792-2.61 4.26-.796 1.615-1.432 3.289-2.009 4.97a46 46 0 0 0-.935 3.157c-.212.811-.395 1.622-.49 2.535-.015.103-.015.256-.03.41-.007.146.015.292.023.431.036.285.16.555.292.818.066.132.124.278.205.395l.255.343c.154.249.38.424.6.599.709.549 1.68.585 2.55.3.205-.08.453-.161.636-.248l.519-.271c.314-.197.635-.402.906-.65.241-.212.49-.409.694-.665.395-.453.548-.848.526-1.191 0-.322-.16-.592-.446-.841-.131-.117-.248-.234-.387-.314-.475-.241-1.016-.117-1.586.197a9 9 0 0 1-1.118.768 5 5 0 0 1-.504.292c-.066.022-.175.088-.197.08-.015 0-.03-.014-.037-.022-.044-.029-.051-.065-.044-.087v-.015c.015 0 .037.059.03.044v-.015c.014-.146.029-.307.065-.489.059-.358.132-.746.22-1.133.175-.782.394-1.586.65-2.382l-.066-.029z"/>
  <path fill="#12111f" d="M88.956 286.52a.3.3 0 0 1-.278.205c-.117-.015-.139-.139-.175-.256-.008-.029-.015-.08-.022-.124v-.38c0-.314.029-.643.05-.965.06-.76.242-1.52.373-2.287.468-2.704 1.287-5.408 2.66-7.783a10.9 10.9 0 0 1 2.28-2.769c.585-.475 1.184-.921 1.82-1.287.314-.19.65-.336.965-.54.329-.22.65-.432.979-.651.424-.299.358-.431-.146-.687-.249-.117-.643-.35-1.111-.431-.234-.044-.504-.117-.76-.102a3.4 3.4 0 0 0-.76.204c-1.805.731-3.252 2.083-4.333 3.545-1.104 1.469-1.893 3.098-2.463 4.764-.665 2.003-1.425 4.027-1.798 6.146a21 21 0 0 0-.314 2.989c0 .643-.015 1.491.168 2.134.168.679.475 1.184 1.074 1.498.475.161.972.234 1.462.161.957-.132 1.783-.855 2.426-1.667.519-.701.84-1.3 1.184-1.958.986-1.951 1.703-3.939 2.601-5.788.702-1.417 1.608-2.733 2.58-3.683.205-.212.424-.387.621-.533.373-.285.563-.431.709-.629.153-.182.263-.438.395-.745.058-.139.153-.256.197-.365.08-.183 0-.351-.3-.607-.073-.058-.168-.146-.277-.183a3 3 0 0 0-.359-.08 2.4 2.4 0 0 0-.928.036c-.993.278-1.79.848-2.448 1.44a12.4 12.4 0 0 0-1.57 1.995c-.878 1.374-1.543 2.799-2.164 4.187-.438 1.045-.848 2.076-1.279 3.04q-.32.734-.672 1.382c-.117.204-.234.416-.358.599-.088.124-.044.066-.059.095v.022zm96.675-10.662c1.352.453 2.755.782 4.187.921.519.051 1.038.139 1.571.124a14 14 0 0 0 2.763-.402 12 12 0 0 0 2.565-1.023c.694-.424 1.381-.862 1.973-1.388a8.3 8.3 0 0 0 1.827-2.405c.146-.277.08-.263-.161-.124-.417.256-.811.497-1.14.702-.387.292-.826.511-1.221.752l-.584.366-.599.321c-.819.38-1.615.775-2.492 1.06-1.053.358-2.244.307-3.384.226-1.264-.058-2.543-.314-3.785-.687a16 16 0 0 1-2.251-.855c-1.103-.511-2.2-1.103-3.164-1.848-.753-.578-1.396-1.25-1.995-1.937-.132-.153-.241-.314-.38-.46-.556-.497-.811-.592-1.228-.497-.095.022-.197.029-.278.066-.27.095-.292.518-.051 1.125.168.46.439.855.724 1.235q.43.57.935 1.096c.651.716 1.447 1.279 2.266 1.798 1.213.767 2.528 1.381 3.887 1.878l.022-.044z"/>
</svg>
